G04 #@! TF.GenerationSoftware,KiCad,Pcbnew,8.0.8+1*
G04 #@! TF.CreationDate,2025-03-13T20:36:27+00:00*
G04 #@! TF.ProjectId,bottom_plate,626f7474-6f6d-45f7-906c-6174652e6b69,0.1*
G04 #@! TF.SameCoordinates,Original*
G04 #@! TF.FileFunction,Profile,NP*
%FSLAX46Y46*%
G04 Gerber Fmt 4.6, Leading zero omitted, Abs format (unit mm)*
G04 Created by KiCad (PCBNEW 8.0.8+1) date 2025-03-13 20:36:27*
%MOMM*%
%LPD*%
G01*
G04 APERTURE LIST*
G04 #@! TA.AperFunction,Profile*
%ADD10C,0.150000*%
G04 #@! TD*
G04 APERTURE END LIST*
D10*
X39000000Y-159500000D02*
X39000000Y-89500000D01*
X40000000Y-88500000D02*
X74000000Y-88500000D01*
X75000000Y-87500000D02*
X75000000Y-80150000D01*
X76000000Y-79150000D02*
X92000000Y-79150000D01*
X93000000Y-78150000D02*
X93000000Y-76750000D01*
X94000000Y-75750000D02*
X114000000Y-75750000D01*
X115000000Y-76750000D02*
X115000000Y-78150000D01*
X116000000Y-79150000D02*
X132000000Y-79150000D01*
X133000000Y-80150000D02*
X133000000Y-80850000D01*
X133000000Y-80850000D02*
X150000000Y-80850000D01*
X151000000Y-81850000D02*
X151000000Y-97850000D01*
X172845574Y-181295623D02*
X173017912Y-181520029D01*
X172931915Y-182836221D02*
X159245626Y-196522510D01*
X158038520Y-196681428D02*
X110660495Y-169327713D01*
X110428144Y-169230222D02*
X79131338Y-160536484D01*
X78863689Y-160500000D02*
X40000000Y-160500000D01*
X39000000Y-89500000D02*
G75*
G02*
X40000000Y-88500000I1000000J0D01*
G01*
X75000000Y-87500000D02*
G75*
G02*
X74000000Y-88500000I-1000000J0D01*
G01*
X75000000Y-80150000D02*
G75*
G02*
X76000000Y-79150000I1000000J0D01*
G01*
X93000000Y-78150000D02*
G75*
G02*
X92000000Y-79150000I-1000000J0D01*
G01*
X93000000Y-76750000D02*
G75*
G02*
X94000000Y-75750000I1000000J0D01*
G01*
X114000000Y-75750000D02*
G75*
G02*
X115000000Y-76750000I0J-1000000D01*
G01*
X116000000Y-79150000D02*
G75*
G02*
X115000000Y-78150000I0J1000000D01*
G01*
X132000000Y-79150000D02*
G75*
G02*
X133000000Y-80150000I0J-1000000D01*
G01*
X150000000Y-80850000D02*
G75*
G02*
X151000000Y-81850000I0J-1000000D01*
G01*
X173017912Y-181520029D02*
G75*
G02*
X172931902Y-182836208I-793112J-609071D01*
G01*
X159245626Y-196522510D02*
G75*
G02*
X158038508Y-196681448I-707126J707110D01*
G01*
X110428144Y-169230222D02*
G75*
G02*
X110660494Y-169327715I-267644J-963478D01*
G01*
X78863689Y-160500000D02*
G75*
G02*
X79131339Y-160536481I11J-1000000D01*
G01*
X40000000Y-160500000D02*
G75*
G02*
X39000000Y-159500000I0J1000000D01*
G01*
X60100000Y-107500000D02*
G75*
G02*
X57900000Y-107500000I-1100000J0D01*
G01*
X57900000Y-107500000D02*
G75*
G02*
X60100000Y-107500000I1100000J0D01*
G01*
X60100000Y-141500000D02*
G75*
G02*
X57900000Y-141500000I-1100000J0D01*
G01*
X57900000Y-141500000D02*
G75*
G02*
X60100000Y-141500000I1100000J0D01*
G01*
X132100000Y-98150000D02*
G75*
G02*
X129900000Y-98150000I-1100000J0D01*
G01*
X129900000Y-98150000D02*
G75*
G02*
X132100000Y-98150000I1100000J0D01*
G01*
X132100000Y-150850000D02*
G75*
G02*
X129900000Y-150850000I-1100000J0D01*
G01*
X129900000Y-150850000D02*
G75*
G02*
X132100000Y-150850000I1100000J0D01*
G01*
X151247052Y-176064021D02*
G75*
G02*
X149047052Y-176064021I-1100000J0D01*
G01*
X149047052Y-176064021D02*
G75*
G02*
X151247052Y-176064021I1100000J0D01*
G01*
X151000000Y-97850000D02*
X173000000Y-97850000D01*
X173000000Y-97850000D02*
X172845574Y-181295623D01*
M02*
