G04 #@! TF.GenerationSoftware,KiCad,Pcbnew,8.0.8+1*
G04 #@! TF.CreationDate,2025-04-03T17:45:40+00:00*
G04 #@! TF.ProjectId,board,626f6172-642e-46b6-9963-61645f706362,0.1*
G04 #@! TF.SameCoordinates,Original*
G04 #@! TF.FileFunction,Copper,L2,Bot*
G04 #@! TF.FilePolarity,Positive*
%FSLAX46Y46*%
G04 Gerber Fmt 4.6, Leading zero omitted, Abs format (unit mm)*
G04 Created by KiCad (PCBNEW 8.0.8+1) date 2025-04-03 17:45:40*
%MOMM*%
%LPD*%
G01*
G04 APERTURE LIST*
G04 #@! TA.AperFunction,ComponentPad*
%ADD10R,1.778000X1.778000*%
G04 #@! TD*
G04 #@! TA.AperFunction,SMDPad,CuDef*
%ADD11R,0.900000X1.200000*%
G04 #@! TD*
G04 #@! TA.AperFunction,ComponentPad*
%ADD12C,1.905000*%
G04 #@! TD*
G04 #@! TA.AperFunction,ComponentPad*
%ADD13C,1.700000*%
G04 #@! TD*
G04 #@! TA.AperFunction,SMDPad,CuDef*
%ADD14R,0.800000X1.000000*%
G04 #@! TD*
G04 #@! TA.AperFunction,SMDPad,CuDef*
%ADD15R,1.500000X0.700000*%
G04 #@! TD*
G04 #@! TA.AperFunction,ComponentPad*
%ADD16O,2.200000X1.600000*%
G04 #@! TD*
G04 #@! TA.AperFunction,ComponentPad*
%ADD17O,3.300000X1.600000*%
G04 #@! TD*
G04 #@! TA.AperFunction,ComponentPad*
%ADD18O,1.200000X1.750000*%
G04 #@! TD*
G04 #@! TA.AperFunction,SMDPad,CuDef*
%ADD19R,0.600000X1.200000*%
G04 #@! TD*
G04 #@! TA.AperFunction,ComponentPad*
%ADD20C,0.800000*%
G04 #@! TD*
G04 #@! TA.AperFunction,SMDPad,CuDef*
%ADD21R,2.600000X2.600000*%
G04 #@! TD*
G04 #@! TA.AperFunction,ViaPad*
%ADD22C,0.600000*%
G04 #@! TD*
G04 #@! TA.AperFunction,Conductor*
%ADD23C,0.250000*%
G04 #@! TD*
G04 #@! TA.AperFunction,Conductor*
%ADD24C,0.300000*%
G04 #@! TD*
G04 APERTURE END LIST*
D10*
X82190000Y-93650000D03*
D11*
X84350000Y-93650000D03*
X87650000Y-93650000D03*
D12*
X89810000Y-93650000D03*
D10*
X64190000Y-103000000D03*
D11*
X66350000Y-103000000D03*
X69650000Y-103000000D03*
D12*
X71810000Y-103000000D03*
D10*
X136190000Y-95350000D03*
D11*
X138350000Y-95350000D03*
X141650000Y-95350000D03*
D12*
X143810000Y-95350000D03*
D10*
X118190000Y-144650000D03*
D11*
X120350000Y-144650000D03*
X123650000Y-144650000D03*
D12*
X125810000Y-144650000D03*
G04 #@! TA.AperFunction,ComponentPad*
G36*
X135916946Y-171531997D02*
G01*
X136805946Y-169992203D01*
X138345740Y-170881203D01*
X137456740Y-172420997D01*
X135916946Y-171531997D01*
G37*
G04 #@! TD.AperFunction*
G04 #@! TA.AperFunction,SMDPad,CuDef*
G36*
X138312247Y-172581215D02*
G01*
X138912247Y-171541985D01*
X139691669Y-171991985D01*
X139091669Y-173031215D01*
X138312247Y-172581215D01*
G37*
G04 #@! TD.AperFunction*
G04 #@! TA.AperFunction,SMDPad,CuDef*
G36*
X141170131Y-174231215D02*
G01*
X141770131Y-173191985D01*
X142549553Y-173641985D01*
X141949553Y-174681215D01*
X141170131Y-174231215D01*
G37*
G04 #@! TD.AperFunction*
X143730457Y-175016600D03*
D13*
X171000000Y-165600000D03*
X171000000Y-159100000D03*
D10*
X46190000Y-154000000D03*
D11*
X48350000Y-154000000D03*
X51650000Y-154000000D03*
D12*
X53810000Y-154000000D03*
D10*
X136190000Y-146350000D03*
D11*
X138350000Y-146350000D03*
X141650000Y-146350000D03*
D12*
X143810000Y-146350000D03*
G04 #@! TA.AperFunction,ComponentPad*
G36*
X151569787Y-181996623D02*
G01*
X152827023Y-180739387D01*
X154084259Y-181996623D01*
X152827023Y-183253859D01*
X151569787Y-181996623D01*
G37*
G04 #@! TD.AperFunction*
G04 #@! TA.AperFunction,SMDPad,CuDef*
G36*
X153611912Y-183630040D02*
G01*
X154460440Y-182781512D01*
X155096836Y-183417908D01*
X154248308Y-184266436D01*
X153611912Y-183630040D01*
G37*
G04 #@! TD.AperFunction*
G04 #@! TA.AperFunction,SMDPad,CuDef*
G36*
X155945364Y-185963492D02*
G01*
X156793892Y-185114964D01*
X157430288Y-185751360D01*
X156581760Y-186599888D01*
X155945364Y-185963492D01*
G37*
G04 #@! TD.AperFunction*
X158215177Y-187384777D03*
G04 #@! TA.AperFunction,ComponentPad*
G36*
X118089025Y-165475216D02*
G01*
X118549205Y-163757800D01*
X120266621Y-164217980D01*
X119806441Y-165935396D01*
X118089025Y-165475216D01*
G37*
G04 #@! TD.AperFunction*
G04 #@! TA.AperFunction,SMDPad,CuDef*
G36*
X120674264Y-165868737D02*
G01*
X120984847Y-164709626D01*
X121854180Y-164942563D01*
X121543597Y-166101674D01*
X120674264Y-165868737D01*
G37*
G04 #@! TD.AperFunction*
G04 #@! TA.AperFunction,SMDPad,CuDef*
G36*
X123861820Y-166722837D02*
G01*
X124172403Y-165563726D01*
X125041736Y-165796663D01*
X124731153Y-166955774D01*
X123861820Y-166722837D01*
G37*
G04 #@! TD.AperFunction*
X126538177Y-166818802D03*
D10*
X64190000Y-137000000D03*
D11*
X66350000Y-137000000D03*
X69650000Y-137000000D03*
D12*
X71810000Y-137000000D03*
D10*
X46190000Y-137000000D03*
D11*
X48350000Y-137000000D03*
X51650000Y-137000000D03*
D12*
X53810000Y-137000000D03*
D14*
X168915000Y-136700000D03*
X168915000Y-144000000D03*
X171125000Y-136700000D03*
X171125000Y-144000000D03*
D15*
X168265000Y-138100000D03*
X168265000Y-141100000D03*
X168265000Y-142600000D03*
D10*
X46190000Y-120000000D03*
D11*
X48350000Y-120000000D03*
X51650000Y-120000000D03*
D12*
X53810000Y-120000000D03*
D10*
X64190000Y-120000000D03*
D11*
X66350000Y-120000000D03*
X69650000Y-120000000D03*
D12*
X71810000Y-120000000D03*
D10*
X100190000Y-124250000D03*
D11*
X102350000Y-124250000D03*
X105650000Y-124250000D03*
D12*
X107810000Y-124250000D03*
D10*
X46190000Y-103000000D03*
D11*
X48350000Y-103000000D03*
X51650000Y-103000000D03*
D12*
X53810000Y-103000000D03*
D16*
X169800000Y-150050000D03*
X169800000Y-154650000D03*
X166800000Y-150050000D03*
X166800000Y-154650000D03*
D17*
X162250000Y-150050000D03*
X162250000Y-154650000D03*
D10*
X64190000Y-154000000D03*
D11*
X66350000Y-154000000D03*
X69650000Y-154000000D03*
D12*
X71810000Y-154000000D03*
D10*
X136190000Y-112350000D03*
D11*
X138350000Y-112350000D03*
X141650000Y-112350000D03*
D12*
X143810000Y-112350000D03*
D10*
X82190000Y-110650000D03*
D11*
X84350000Y-110650000D03*
X87650000Y-110650000D03*
D12*
X89810000Y-110650000D03*
D10*
X100190000Y-107250000D03*
D11*
X102350000Y-107250000D03*
X105650000Y-107250000D03*
D12*
X107810000Y-107250000D03*
D10*
X100190000Y-141250000D03*
D11*
X102350000Y-141250000D03*
X105650000Y-141250000D03*
D12*
X107810000Y-141250000D03*
G04 #@! TA.AperFunction,SMDPad,CuDef*
G36*
X157600000Y-143534000D02*
G01*
X157000000Y-142934000D01*
X156400000Y-143534000D01*
X156400000Y-142284000D01*
X157600000Y-142284000D01*
X157600000Y-143534000D01*
G37*
G04 #@! TD.AperFunction*
G04 #@! TA.AperFunction,SMDPad,CuDef*
G36*
X159600000Y-143534000D02*
G01*
X159000000Y-142934000D01*
X158400000Y-143534000D01*
X158400000Y-142284000D01*
X159600000Y-142284000D01*
X159600000Y-143534000D01*
G37*
G04 #@! TD.AperFunction*
D18*
X159000000Y-145350000D03*
X157000000Y-145350000D03*
G04 #@! TA.AperFunction,SMDPad,CuDef*
G36*
X159600000Y-143750000D02*
G01*
X159600000Y-143950000D01*
X158400000Y-143950000D01*
X158400000Y-143750000D01*
X159000000Y-143150000D01*
X159600000Y-143750000D01*
G37*
G04 #@! TD.AperFunction*
G04 #@! TA.AperFunction,SMDPad,CuDef*
G36*
X157600000Y-143750000D02*
G01*
X157600000Y-143950000D01*
X156400000Y-143950000D01*
X156400000Y-143750000D01*
X157000000Y-143150000D01*
X157600000Y-143750000D01*
G37*
G04 #@! TD.AperFunction*
D10*
X118190000Y-93650000D03*
D11*
X120350000Y-93650000D03*
X123650000Y-93650000D03*
D12*
X125810000Y-93650000D03*
D10*
X82190000Y-127650000D03*
D11*
X84350000Y-127650000D03*
X87650000Y-127650000D03*
D12*
X89810000Y-127650000D03*
D10*
X118190000Y-110650000D03*
D11*
X120350000Y-110650000D03*
X123650000Y-110650000D03*
D12*
X125810000Y-110650000D03*
D19*
X168480000Y-102650000D03*
D13*
X170620000Y-102650000D03*
D19*
X168480000Y-105190000D03*
D13*
X170620000Y-105190000D03*
D19*
X168480000Y-107730000D03*
D13*
X170620000Y-107730000D03*
D19*
X168480000Y-110270000D03*
D13*
X170620000Y-110270000D03*
D19*
X168480000Y-112810000D03*
D13*
X170620000Y-112810000D03*
D19*
X168480000Y-115350000D03*
D13*
X170620000Y-115350000D03*
D19*
X168480000Y-117890000D03*
D13*
X170620000Y-117890000D03*
D19*
X168480000Y-120430000D03*
D13*
X170620000Y-120430000D03*
D19*
X168480000Y-122970000D03*
D13*
X170620000Y-122970000D03*
D19*
X168480000Y-125510000D03*
D13*
X170620000Y-125510000D03*
D19*
X168480000Y-128050000D03*
D13*
X170620000Y-128050000D03*
D19*
X168480000Y-130590000D03*
D13*
X170620000Y-130590000D03*
X155380000Y-130590000D03*
D19*
X157520000Y-130590000D03*
D13*
X155380000Y-128050000D03*
D19*
X157520000Y-128050000D03*
D13*
X155380000Y-125510000D03*
D19*
X157520000Y-125510000D03*
D13*
X155380000Y-122970000D03*
D19*
X157520000Y-122970000D03*
D13*
X155380000Y-120430000D03*
D19*
X157520000Y-120430000D03*
D13*
X155380000Y-117890000D03*
D19*
X157520000Y-117890000D03*
D13*
X155380000Y-115350000D03*
D19*
X157520000Y-115350000D03*
D13*
X155380000Y-112810000D03*
D19*
X157520000Y-112810000D03*
D13*
X155380000Y-110270000D03*
D19*
X157520000Y-110270000D03*
D13*
X155380000Y-107730000D03*
D19*
X157520000Y-107730000D03*
D13*
X155380000Y-105190000D03*
D19*
X157520000Y-105190000D03*
D13*
X155380000Y-102650000D03*
D19*
X157520000Y-102650000D03*
X158420000Y-102650000D03*
D20*
X166400000Y-102650000D03*
D19*
X158420000Y-105190000D03*
D20*
X166400000Y-105190000D03*
D19*
X158420000Y-107730000D03*
D20*
X166400000Y-107730000D03*
D19*
X158420000Y-110270000D03*
D20*
X166400000Y-110270000D03*
D19*
X158420000Y-112810000D03*
D20*
X166400000Y-112810000D03*
D19*
X158420000Y-115350000D03*
D20*
X166400000Y-115350000D03*
D19*
X158420000Y-117890000D03*
D20*
X166400000Y-117890000D03*
D19*
X158420000Y-120430000D03*
D20*
X166400000Y-120430000D03*
D19*
X158420000Y-122970000D03*
D20*
X166400000Y-122970000D03*
D19*
X158420000Y-125510000D03*
D20*
X166400000Y-125510000D03*
D19*
X158420000Y-128050000D03*
D20*
X166400000Y-128050000D03*
D19*
X158420000Y-130590000D03*
D20*
X166400000Y-130590000D03*
X159600000Y-130590000D03*
D19*
X167580000Y-130590000D03*
D20*
X159600000Y-128050000D03*
D19*
X167580000Y-128050000D03*
D20*
X159600000Y-125510000D03*
D19*
X167580000Y-125510000D03*
D20*
X159600000Y-122970000D03*
D19*
X167580000Y-122970000D03*
D20*
X159600000Y-120430000D03*
D19*
X167580000Y-120430000D03*
D20*
X159600000Y-117890000D03*
D19*
X167580000Y-117890000D03*
D20*
X159600000Y-115350000D03*
D19*
X167580000Y-115350000D03*
D20*
X159600000Y-112810000D03*
D19*
X167580000Y-112810000D03*
D20*
X159600000Y-110270000D03*
D19*
X167580000Y-110270000D03*
D20*
X159600000Y-107730000D03*
D19*
X167580000Y-107730000D03*
D20*
X159600000Y-105190000D03*
D19*
X167580000Y-105190000D03*
D20*
X159600000Y-102650000D03*
D19*
X167580000Y-102650000D03*
D10*
X136190000Y-129350000D03*
D11*
X138350000Y-129350000D03*
X141650000Y-129350000D03*
D12*
X143810000Y-129350000D03*
D10*
X82190000Y-144650000D03*
D11*
X84350000Y-144650000D03*
X87650000Y-144650000D03*
D12*
X89810000Y-144650000D03*
D10*
X100190000Y-90250000D03*
D11*
X102350000Y-90250000D03*
X105650000Y-90250000D03*
D12*
X107810000Y-90250000D03*
D10*
X118190000Y-127650000D03*
D11*
X120350000Y-127650000D03*
X123650000Y-127650000D03*
D12*
X125810000Y-127650000D03*
G04 #@! TA.AperFunction,SMDPad,CuDef*
G36*
X63425000Y-125750000D02*
G01*
X66025000Y-125750000D01*
X66025000Y-128350000D01*
X64608000Y-128350000D01*
X63425000Y-127167000D01*
X63425000Y-125750000D01*
G37*
G04 #@! TD.AperFunction*
D21*
X76275000Y-129250000D03*
G04 #@! TA.AperFunction,SMDPad,CuDef*
G36*
X45425000Y-125750000D02*
G01*
X48025000Y-125750000D01*
X48025000Y-128350000D01*
X46608000Y-128350000D01*
X45425000Y-127167000D01*
X45425000Y-125750000D01*
G37*
G04 #@! TD.AperFunction*
X58275000Y-129250000D03*
G04 #@! TA.AperFunction,SMDPad,CuDef*
G36*
X45425000Y-91750000D02*
G01*
X48025000Y-91750000D01*
X48025000Y-94350000D01*
X46608000Y-94350000D01*
X45425000Y-93167000D01*
X45425000Y-91750000D01*
G37*
G04 #@! TD.AperFunction*
X58275000Y-95250000D03*
G04 #@! TA.AperFunction,SMDPad,CuDef*
G36*
X63425000Y-108750000D02*
G01*
X66025000Y-108750000D01*
X66025000Y-111350000D01*
X64608000Y-111350000D01*
X63425000Y-110167000D01*
X63425000Y-108750000D01*
G37*
G04 #@! TD.AperFunction*
X76275000Y-112250000D03*
G04 #@! TA.AperFunction,SMDPad,CuDef*
G36*
X81425000Y-99400000D02*
G01*
X84025000Y-99400000D01*
X84025000Y-102000000D01*
X82608000Y-102000000D01*
X81425000Y-100817000D01*
X81425000Y-99400000D01*
G37*
G04 #@! TD.AperFunction*
X94275000Y-102900000D03*
G04 #@! TA.AperFunction,SMDPad,CuDef*
G36*
X160241011Y-173500762D02*
G01*
X162079489Y-175339240D01*
X160241011Y-177177718D01*
X159239041Y-176175747D01*
X159239041Y-174502733D01*
X160241011Y-173500762D01*
G37*
G04 #@! TD.AperFunction*
G04 #@! TA.AperFunction,SMDPad,CuDef*
G36*
X165013981Y-185061958D02*
G01*
X166852459Y-183223480D01*
X168690937Y-185061958D01*
X166852459Y-186900436D01*
X165013981Y-185061958D01*
G37*
G04 #@! TD.AperFunction*
G04 #@! TA.AperFunction,SMDPad,CuDef*
G36*
X142093834Y-161081316D02*
G01*
X144345500Y-162381316D01*
X143045500Y-164632982D01*
X141818342Y-163924482D01*
X141385334Y-162308474D01*
X142093834Y-161081316D01*
G37*
G04 #@! TD.AperFunction*
G04 #@! TA.AperFunction,SMDPad,CuDef*
G36*
X149696427Y-171013238D02*
G01*
X150996427Y-168761572D01*
X153248093Y-170061572D01*
X151948093Y-172313238D01*
X149696427Y-171013238D01*
G37*
G04 #@! TD.AperFunction*
G04 #@! TA.AperFunction,SMDPad,CuDef*
G36*
X99425000Y-113000000D02*
G01*
X102025000Y-113000000D01*
X102025000Y-115600000D01*
X100608000Y-115600000D01*
X99425000Y-114417000D01*
X99425000Y-113000000D01*
G37*
G04 #@! TD.AperFunction*
X112275000Y-116500000D03*
G04 #@! TA.AperFunction,SMDPad,CuDef*
G36*
X81425000Y-116400000D02*
G01*
X84025000Y-116400000D01*
X84025000Y-119000000D01*
X82608000Y-119000000D01*
X81425000Y-117817000D01*
X81425000Y-116400000D01*
G37*
G04 #@! TD.AperFunction*
X94275000Y-119900000D03*
G04 #@! TA.AperFunction,SMDPad,CuDef*
G36*
X45425000Y-108750000D02*
G01*
X48025000Y-108750000D01*
X48025000Y-111350000D01*
X46608000Y-111350000D01*
X45425000Y-110167000D01*
X45425000Y-108750000D01*
G37*
G04 #@! TD.AperFunction*
X58275000Y-112250000D03*
G04 #@! TA.AperFunction,SMDPad,CuDef*
G36*
X121350627Y-153781941D02*
G01*
X123862034Y-154454870D01*
X123189105Y-156966277D01*
X121820388Y-156599531D01*
X120983881Y-155150658D01*
X121350627Y-153781941D01*
G37*
G04 #@! TD.AperFunction*
G04 #@! TA.AperFunction,SMDPad,CuDef*
G36*
X131264740Y-161407745D02*
G01*
X131937669Y-158896338D01*
X134449076Y-159569267D01*
X133776147Y-162080674D01*
X131264740Y-161407745D01*
G37*
G04 #@! TD.AperFunction*
G04 #@! TA.AperFunction,SMDPad,CuDef*
G36*
X135425000Y-101100000D02*
G01*
X138025000Y-101100000D01*
X138025000Y-103700000D01*
X136608000Y-103700000D01*
X135425000Y-102517000D01*
X135425000Y-101100000D01*
G37*
G04 #@! TD.AperFunction*
X148275000Y-104600000D03*
G04 #@! TA.AperFunction,SMDPad,CuDef*
G36*
X99425000Y-79000000D02*
G01*
X102025000Y-79000000D01*
X102025000Y-81600000D01*
X100608000Y-81600000D01*
X99425000Y-80417000D01*
X99425000Y-79000000D01*
G37*
G04 #@! TD.AperFunction*
X112275000Y-82500000D03*
G04 #@! TA.AperFunction,SMDPad,CuDef*
G36*
X99425000Y-130000000D02*
G01*
X102025000Y-130000000D01*
X102025000Y-132600000D01*
X100608000Y-132600000D01*
X99425000Y-131417000D01*
X99425000Y-130000000D01*
G37*
G04 #@! TD.AperFunction*
X112275000Y-133500000D03*
G04 #@! TA.AperFunction,SMDPad,CuDef*
G36*
X135425000Y-118100000D02*
G01*
X138025000Y-118100000D01*
X138025000Y-120700000D01*
X136608000Y-120700000D01*
X135425000Y-119517000D01*
X135425000Y-118100000D01*
G37*
G04 #@! TD.AperFunction*
X148275000Y-121600000D03*
G04 #@! TA.AperFunction,SMDPad,CuDef*
G36*
X135425000Y-135100000D02*
G01*
X138025000Y-135100000D01*
X138025000Y-137700000D01*
X136608000Y-137700000D01*
X135425000Y-136517000D01*
X135425000Y-135100000D01*
G37*
G04 #@! TD.AperFunction*
X148275000Y-138600000D03*
G04 #@! TA.AperFunction,SMDPad,CuDef*
G36*
X63425000Y-91750000D02*
G01*
X66025000Y-91750000D01*
X66025000Y-94350000D01*
X64608000Y-94350000D01*
X63425000Y-93167000D01*
X63425000Y-91750000D01*
G37*
G04 #@! TD.AperFunction*
X76275000Y-95250000D03*
G04 #@! TA.AperFunction,SMDPad,CuDef*
G36*
X135425000Y-84100000D02*
G01*
X138025000Y-84100000D01*
X138025000Y-86700000D01*
X136608000Y-86700000D01*
X135425000Y-85517000D01*
X135425000Y-84100000D01*
G37*
G04 #@! TD.AperFunction*
X148275000Y-87600000D03*
G04 #@! TA.AperFunction,SMDPad,CuDef*
G36*
X117425000Y-116400000D02*
G01*
X120025000Y-116400000D01*
X120025000Y-119000000D01*
X118608000Y-119000000D01*
X117425000Y-117817000D01*
X117425000Y-116400000D01*
G37*
G04 #@! TD.AperFunction*
X130275000Y-119900000D03*
G04 #@! TA.AperFunction,SMDPad,CuDef*
G36*
X117425000Y-82400000D02*
G01*
X120025000Y-82400000D01*
X120025000Y-85000000D01*
X118608000Y-85000000D01*
X117425000Y-83817000D01*
X117425000Y-82400000D01*
G37*
G04 #@! TD.AperFunction*
X130275000Y-85900000D03*
G04 #@! TA.AperFunction,SMDPad,CuDef*
G36*
X117425000Y-133400000D02*
G01*
X120025000Y-133400000D01*
X120025000Y-136000000D01*
X118608000Y-136000000D01*
X117425000Y-134817000D01*
X117425000Y-133400000D01*
G37*
G04 #@! TD.AperFunction*
X130275000Y-136900000D03*
G04 #@! TA.AperFunction,SMDPad,CuDef*
G36*
X81425000Y-133400000D02*
G01*
X84025000Y-133400000D01*
X84025000Y-136000000D01*
X82608000Y-136000000D01*
X81425000Y-134817000D01*
X81425000Y-133400000D01*
G37*
G04 #@! TD.AperFunction*
X94275000Y-136900000D03*
G04 #@! TA.AperFunction,SMDPad,CuDef*
G36*
X45425000Y-142750000D02*
G01*
X48025000Y-142750000D01*
X48025000Y-145350000D01*
X46608000Y-145350000D01*
X45425000Y-144167000D01*
X45425000Y-142750000D01*
G37*
G04 #@! TD.AperFunction*
X58275000Y-146250000D03*
G04 #@! TA.AperFunction,SMDPad,CuDef*
G36*
X117425000Y-99400000D02*
G01*
X120025000Y-99400000D01*
X120025000Y-102000000D01*
X118608000Y-102000000D01*
X117425000Y-100817000D01*
X117425000Y-99400000D01*
G37*
G04 #@! TD.AperFunction*
X130275000Y-102900000D03*
G04 #@! TA.AperFunction,SMDPad,CuDef*
G36*
X63425000Y-142750000D02*
G01*
X66025000Y-142750000D01*
X66025000Y-145350000D01*
X64608000Y-145350000D01*
X63425000Y-144167000D01*
X63425000Y-142750000D01*
G37*
G04 #@! TD.AperFunction*
X76275000Y-146250000D03*
G04 #@! TA.AperFunction,SMDPad,CuDef*
G36*
X81425000Y-82400000D02*
G01*
X84025000Y-82400000D01*
X84025000Y-85000000D01*
X82608000Y-85000000D01*
X81425000Y-83817000D01*
X81425000Y-82400000D01*
G37*
G04 #@! TD.AperFunction*
X94275000Y-85900000D03*
G04 #@! TA.AperFunction,SMDPad,CuDef*
G36*
X99425000Y-96000000D02*
G01*
X102025000Y-96000000D01*
X102025000Y-98600000D01*
X100608000Y-98600000D01*
X99425000Y-97417000D01*
X99425000Y-96000000D01*
G37*
G04 #@! TD.AperFunction*
X112275000Y-99500000D03*
D22*
X50000000Y-112750000D03*
X50000000Y-146500000D03*
X50250000Y-95500000D03*
X50000000Y-129750000D03*
X68000000Y-112500000D03*
X68000000Y-129500000D03*
X68000000Y-146500000D03*
X68000000Y-95750000D03*
X86000000Y-120250000D03*
X86250000Y-137250000D03*
X86000000Y-103000000D03*
X86000000Y-86500000D03*
X104000000Y-133750000D03*
X125250000Y-159250000D03*
X104000000Y-100000000D03*
X104000000Y-116750000D03*
X104000000Y-83000000D03*
X143750000Y-166750000D03*
X122000000Y-86500000D03*
X122000000Y-120250000D03*
X122000000Y-137000000D03*
X122250000Y-103250000D03*
X140000000Y-139000000D03*
X140000000Y-105250000D03*
X160750000Y-179500000D03*
X140000000Y-88250000D03*
X140000000Y-122000000D03*
X166250000Y-140500000D03*
X166250000Y-138100000D03*
X159000000Y-141500000D03*
D23*
X47921000Y-150861000D02*
X51059800Y-154000000D01*
X53810000Y-154000000D02*
X51650000Y-154000000D01*
X51059800Y-154000000D02*
X51650000Y-154000000D01*
X47921000Y-145246000D02*
X47921000Y-150861000D01*
X46725000Y-144050000D02*
X47921000Y-145246000D01*
X97250000Y-94750000D02*
X95750000Y-96250000D01*
X117750000Y-97000000D02*
X115500000Y-94750000D01*
X160395000Y-113040000D02*
X165816600Y-113040000D01*
X158420000Y-112810000D02*
X158497500Y-112810000D01*
X158497500Y-112810000D02*
X158536300Y-112810000D01*
X52000000Y-97250000D02*
X56275000Y-97250000D01*
X56275000Y-131250000D02*
X58275000Y-129250000D01*
X158575000Y-112810000D02*
X159300000Y-113535000D01*
X159300000Y-113535000D02*
X159900000Y-113535000D01*
X82250000Y-96250000D02*
X71500000Y-107000000D01*
X158497500Y-112810000D02*
X158536300Y-112810000D01*
X50000000Y-112750000D02*
X51500000Y-114250000D01*
X158497500Y-112810000D02*
X158536300Y-112810000D01*
X158575000Y-112810000D02*
X159300000Y-113535000D01*
X158225000Y-112810000D02*
X158420000Y-112810000D01*
X158420000Y-112810000D02*
X158497500Y-112810000D01*
X158225000Y-112810000D02*
X158420000Y-112810000D01*
X148750000Y-100250000D02*
X129750000Y-100250000D01*
X160395000Y-113040000D02*
X165816600Y-113040000D01*
X159300000Y-113535000D02*
X159900000Y-113535000D01*
X158420000Y-112810000D02*
X158497500Y-112810000D01*
X158536300Y-112810000D02*
X158575000Y-112810000D01*
X159300000Y-113535000D02*
X159900000Y-113535000D01*
X158225000Y-112810000D02*
X158420000Y-112810000D01*
X159300000Y-113535000D02*
X159900000Y-113535000D01*
X158536300Y-112810000D02*
X158575000Y-112810000D01*
X159900000Y-113535000D02*
X160395000Y-113040000D01*
X158420000Y-112810000D02*
X158497500Y-112810000D01*
X159900000Y-113535000D02*
X160395000Y-113040000D01*
X160395000Y-113040000D02*
X165816600Y-113040000D01*
X165816600Y-113040000D02*
X166170000Y-113040000D01*
X160395000Y-113040000D02*
X165816600Y-113040000D01*
X158575000Y-112810000D02*
X159300000Y-113535000D01*
X152750000Y-109839800D02*
X152750000Y-104250000D01*
X115500000Y-94750000D02*
X97250000Y-94750000D01*
X158536300Y-112810000D02*
X158575000Y-112810000D01*
X95750000Y-96250000D02*
X82250000Y-96250000D01*
X158497500Y-112810000D02*
X158536300Y-112810000D01*
X159300000Y-113535000D02*
X159900000Y-113535000D01*
X158225000Y-112810000D02*
X158420000Y-112810000D01*
X129750000Y-100250000D02*
X126500000Y-97000000D01*
X159900000Y-113535000D02*
X160395000Y-113040000D01*
X159300000Y-113535000D02*
X159900000Y-113535000D01*
X154505100Y-111594900D02*
X152750000Y-109839800D01*
X165816600Y-113040000D02*
X166170000Y-113040000D01*
X158575000Y-112810000D02*
X159300000Y-113535000D01*
X165816600Y-113040000D02*
X166170000Y-113040000D01*
X56275000Y-114250000D02*
X58275000Y-112250000D01*
X50250000Y-95500000D02*
X52000000Y-97250000D01*
X165816600Y-113040000D02*
X166170000Y-113040000D01*
X159900000Y-113535000D02*
X160395000Y-113040000D01*
X158536300Y-112447900D02*
X157683300Y-111594900D01*
X51500000Y-114250000D02*
X56275000Y-114250000D01*
X158536300Y-112810000D02*
X158575000Y-112810000D01*
X165816600Y-113040000D02*
X166170000Y-113040000D01*
X158536300Y-112810000D02*
X158575000Y-112810000D01*
X158575000Y-112810000D02*
X159300000Y-113535000D01*
X158420000Y-112810000D02*
X158497500Y-112810000D01*
X158497500Y-112810000D02*
X158536300Y-112810000D01*
X159300000Y-113535000D02*
X159900000Y-113535000D01*
X160395000Y-113040000D02*
X165816600Y-113040000D01*
X63525000Y-107000000D02*
X58275000Y-112250000D01*
X158497500Y-112810000D02*
X158536300Y-112810000D01*
X158497500Y-112810000D02*
X158536300Y-112810000D01*
X160395000Y-113040000D02*
X165816600Y-113040000D01*
X159900000Y-113535000D02*
X160395000Y-113040000D01*
X71500000Y-107000000D02*
X63525000Y-107000000D01*
X56275000Y-97250000D02*
X58275000Y-95250000D01*
X158575000Y-112810000D02*
X159300000Y-113535000D01*
X56275000Y-148250000D02*
X58275000Y-146250000D01*
X158225000Y-112810000D02*
X158420000Y-112810000D01*
X158420000Y-112810000D02*
X158497500Y-112810000D01*
X158536300Y-112810000D02*
X158575000Y-112810000D01*
X51500000Y-131250000D02*
X56275000Y-131250000D01*
X159900000Y-113535000D02*
X160395000Y-113040000D01*
X50000000Y-129750000D02*
X51500000Y-131250000D01*
X166170000Y-113040000D02*
X166400000Y-112810000D01*
X159900000Y-113535000D02*
X160395000Y-113040000D01*
X152750000Y-104250000D02*
X148750000Y-100250000D01*
X126500000Y-97000000D02*
X117750000Y-97000000D01*
X158225000Y-112810000D02*
X158420000Y-112810000D01*
X158575000Y-112810000D02*
X159300000Y-113535000D01*
X158536300Y-112810000D02*
X158536300Y-112447900D01*
X165816600Y-113040000D02*
X166170000Y-113040000D01*
X158225000Y-112810000D02*
X158420000Y-112810000D01*
X50000000Y-146500000D02*
X51750000Y-148250000D01*
X165816600Y-113040000D02*
X166170000Y-113040000D01*
X160395000Y-113040000D02*
X165816600Y-113040000D01*
X51750000Y-148250000D02*
X56275000Y-148250000D01*
X158536300Y-112810000D02*
X158575000Y-112810000D01*
X157683300Y-111594900D02*
X154505100Y-111594900D01*
X158420000Y-112810000D02*
X158497500Y-112810000D01*
X167775000Y-110270000D02*
X167580000Y-110270000D01*
X159300000Y-105915000D02*
X159900000Y-105915000D01*
X166151300Y-105420000D02*
X166151400Y-105420000D01*
X166034900Y-105420000D02*
X166036400Y-105420000D01*
X160395000Y-105420000D02*
X166034900Y-105420000D01*
X160173300Y-110050000D02*
X159820000Y-110050000D01*
X167580000Y-107730000D02*
X167425000Y-107730000D01*
X160395000Y-105420000D02*
X166034900Y-105420000D01*
X166150200Y-105420000D02*
X166150300Y-105420000D01*
X166136600Y-105420000D02*
X166145000Y-105420000D01*
X167775000Y-110270000D02*
X167580000Y-110270000D01*
X159900000Y-105915000D02*
X160395000Y-105420000D01*
X166100000Y-109545000D02*
X165595000Y-110050000D01*
X166150000Y-105420000D02*
X166150100Y-105420000D01*
X166149900Y-105420000D02*
X166150000Y-105420000D01*
X166151400Y-105420000D02*
X166153300Y-105420000D01*
X165595000Y-110050000D02*
X160173300Y-110050000D01*
X166700000Y-109545000D02*
X166100000Y-109545000D01*
X158575000Y-105190000D02*
X159300000Y-105915000D01*
X166700000Y-109545000D02*
X166100000Y-109545000D01*
X166151400Y-105420000D02*
X166153300Y-105420000D01*
X159875000Y-107510000D02*
X159820000Y-107510000D01*
X166100000Y-107005000D02*
X165595000Y-107510000D01*
X166100000Y-107005000D02*
X165595000Y-107510000D01*
X167775000Y-107730000D02*
X167580000Y-107730000D01*
X166150400Y-105420000D02*
X166151300Y-105420000D01*
X158575000Y-105190000D02*
X159300000Y-105915000D01*
X159960100Y-107510000D02*
X159875200Y-107510000D01*
X166700000Y-107005000D02*
X166100000Y-107005000D01*
X158225000Y-105190000D02*
X158420000Y-105190000D01*
X166150400Y-105420000D02*
X166151300Y-105420000D01*
X160173300Y-110050000D02*
X159820000Y-110050000D01*
X166150000Y-105420000D02*
X166150100Y-105420000D01*
X167580000Y-107730000D02*
X167425000Y-107730000D01*
X166151300Y-105420000D02*
X166151400Y-105420000D01*
X166150100Y-105420000D02*
X166150200Y-105420000D01*
X158225000Y-105190000D02*
X158420000Y-105190000D01*
X167580000Y-110270000D02*
X167425000Y-110270000D01*
X166136600Y-105420000D02*
X166145000Y-105420000D01*
X166700000Y-107005000D02*
X166100000Y-107005000D01*
X167775000Y-110270000D02*
X167580000Y-110270000D01*
X166150000Y-105420000D02*
X166150100Y-105420000D01*
X166100000Y-109545000D02*
X165595000Y-110050000D01*
X167425000Y-110270000D02*
X166700000Y-109545000D01*
X166150300Y-105420000D02*
X166150400Y-105420000D01*
X159875000Y-107510000D02*
X159820000Y-107510000D01*
X166100000Y-109545000D02*
X165595000Y-110050000D01*
X166149900Y-105420000D02*
X166150000Y-105420000D01*
X167580000Y-110270000D02*
X167425000Y-110270000D01*
X166153300Y-105420000D02*
X166153400Y-105420000D01*
X166700000Y-109545000D02*
X166100000Y-109545000D01*
X166153400Y-105420000D02*
X166170000Y-105420000D01*
X166700000Y-107005000D02*
X166100000Y-107005000D01*
X166145000Y-105420000D02*
X166149200Y-105420000D01*
X165595000Y-107510000D02*
X159960100Y-107510000D01*
X159875200Y-107510000D02*
X159875000Y-107510000D01*
X158225000Y-105190000D02*
X158420000Y-105190000D01*
X166153400Y-105420000D02*
X166170000Y-105420000D01*
X166100000Y-107005000D02*
X165595000Y-107510000D01*
X159300000Y-105915000D02*
X159900000Y-105915000D01*
X166151400Y-105420000D02*
X166153300Y-105420000D01*
X165595000Y-110050000D02*
X160173300Y-110050000D01*
X159875200Y-107510000D02*
X159875000Y-107510000D01*
X166100000Y-107005000D02*
X165595000Y-107510000D01*
X166034900Y-105420000D02*
X166036400Y-105420000D01*
X159875000Y-107510000D02*
X159820000Y-107510000D01*
X166100000Y-109545000D02*
X165595000Y-110050000D01*
X159875200Y-107510000D02*
X159875000Y-107510000D01*
X166145000Y-105420000D02*
X166149200Y-105420000D01*
X158575000Y-105190000D02*
X159300000Y-105915000D01*
X166149800Y-105420000D02*
X166149900Y-105420000D01*
X159960100Y-107510000D02*
X159875200Y-107510000D01*
X167580000Y-110270000D02*
X167425000Y-110270000D01*
X159900000Y-105915000D02*
X160395000Y-105420000D01*
X166153400Y-105420000D02*
X166170000Y-105420000D01*
X166150300Y-105420000D02*
X166150400Y-105420000D01*
X158575000Y-105190000D02*
X159300000Y-105915000D01*
X167425000Y-107730000D02*
X166700000Y-107005000D01*
X167775000Y-107730000D02*
X167580000Y-107730000D01*
X167580000Y-110270000D02*
X167425000Y-110270000D01*
X166153400Y-105420000D02*
X166170000Y-105420000D01*
X167425000Y-110270000D02*
X166700000Y-109545000D01*
X158420000Y-105190000D02*
X158575000Y-105190000D01*
X166153400Y-105420000D02*
X166170000Y-105420000D01*
X166150100Y-105420000D02*
X166150200Y-105420000D01*
X166700000Y-107005000D02*
X166100000Y-107005000D01*
X166149200Y-105420000D02*
X166149800Y-105420000D01*
X166149900Y-105420000D02*
X166150000Y-105420000D01*
X166036400Y-105420000D02*
X166103200Y-105420000D01*
X166151400Y-105420000D02*
X166153300Y-105420000D01*
X159900000Y-105915000D02*
X160395000Y-105420000D01*
X159300000Y-105915000D02*
X159900000Y-105915000D01*
X166150400Y-105420000D02*
X166151300Y-105420000D01*
X167425000Y-107730000D02*
X166700000Y-107005000D01*
X166153400Y-105420000D02*
X166170000Y-105420000D01*
X159820000Y-107510000D02*
X159600000Y-107730000D01*
X166149900Y-105420000D02*
X166150000Y-105420000D01*
X166150000Y-105420000D02*
X166150100Y-105420000D01*
X159300000Y-105915000D02*
X159900000Y-105915000D01*
X159300000Y-105915000D02*
X159900000Y-105915000D01*
X166500000Y-107005000D02*
X166400000Y-106905000D01*
X159960100Y-107510000D02*
X159875200Y-107510000D01*
X165595000Y-110050000D02*
X160173300Y-110050000D01*
X167580000Y-107730000D02*
X167425000Y-107730000D01*
X160395000Y-105420000D02*
X166034900Y-105420000D01*
X166150100Y-105420000D02*
X166150200Y-105420000D01*
X159875000Y-107510000D02*
X159820000Y-107510000D01*
X166150400Y-105420000D02*
X166151300Y-105420000D01*
X166149800Y-105420000D02*
X166149900Y-105420000D01*
X166150400Y-105420000D02*
X166151300Y-105420000D01*
X159875200Y-107510000D02*
X159875000Y-107510000D01*
X169800000Y-148923100D02*
X163410900Y-142534000D01*
X166100000Y-107005000D02*
X165595000Y-107510000D01*
X158420000Y-105190000D02*
X158575000Y-105190000D01*
X166151400Y-105420000D02*
X166153300Y-105420000D01*
X160395000Y-105420000D02*
X166034900Y-105420000D01*
X159900000Y-105915000D02*
X160395000Y-105420000D01*
X167775000Y-107730000D02*
X167580000Y-107730000D01*
X167775000Y-110270000D02*
X167580000Y-110270000D01*
X169800000Y-150050000D02*
X169800000Y-148923100D01*
X165595000Y-107510000D02*
X159960100Y-107510000D01*
X160173300Y-110050000D02*
X159820000Y-110050000D01*
X166149900Y-105420000D02*
X166150000Y-105420000D01*
X159900000Y-105915000D02*
X160395000Y-105420000D01*
X166103200Y-105420000D02*
X166136600Y-105420000D01*
X165595000Y-110050000D02*
X160173300Y-110050000D01*
X159960100Y-107510000D02*
X159875200Y-107510000D01*
X166153300Y-105420000D02*
X166153400Y-105420000D01*
X166500000Y-107005000D02*
X166100000Y-107005000D01*
X158575000Y-105190000D02*
X159300000Y-105915000D01*
X166151300Y-105420000D02*
X166151400Y-105420000D01*
X158225000Y-105190000D02*
X158420000Y-105190000D01*
X166145000Y-105420000D02*
X166149200Y-105420000D01*
X158420000Y-105190000D02*
X158575000Y-105190000D01*
X166149800Y-105420000D02*
X166149900Y-105420000D01*
X167775000Y-110270000D02*
X167580000Y-110270000D01*
X167775000Y-107730000D02*
X167580000Y-107730000D01*
X167580000Y-107730000D02*
X167425000Y-107730000D01*
X166145000Y-105420000D02*
X166149200Y-105420000D01*
X159900000Y-105915000D02*
X160395000Y-105420000D01*
X165595000Y-107510000D02*
X159960100Y-107510000D01*
X166149200Y-105420000D02*
X166149800Y-105420000D01*
X166150200Y-105420000D02*
X166150300Y-105420000D01*
X166149800Y-105420000D02*
X166149900Y-105420000D01*
X167425000Y-107730000D02*
X166700000Y-107005000D01*
X166103200Y-105420000D02*
X166136600Y-105420000D01*
X159960100Y-107510000D02*
X159875200Y-107510000D01*
X167425000Y-110270000D02*
X166700000Y-109545000D01*
X166150300Y-105420000D02*
X166150400Y-105420000D01*
X166034900Y-105420000D02*
X166036400Y-105420000D01*
X166700000Y-107005000D02*
X166500000Y-107005000D01*
X166036400Y-105420000D02*
X166103200Y-105420000D01*
X166153400Y-105420000D02*
X166170000Y-105420000D01*
X166034900Y-105420000D02*
X166036400Y-105420000D01*
X166136600Y-105420000D02*
X166145000Y-105420000D01*
X166150100Y-105420000D02*
X166150200Y-105420000D01*
X166145000Y-105420000D02*
X166149200Y-105420000D01*
X166700000Y-109545000D02*
X166100000Y-109545000D01*
X166400000Y-106905000D02*
X166400000Y-105190000D01*
X167425000Y-107730000D02*
X166700000Y-107005000D01*
X166149900Y-105420000D02*
X166150000Y-105420000D01*
X159300000Y-105915000D02*
X159900000Y-105915000D01*
X159900000Y-105915000D02*
X160395000Y-105420000D01*
X166150200Y-105420000D02*
X166150300Y-105420000D01*
X158420000Y-105190000D02*
X158575000Y-105190000D01*
X166153300Y-105420000D02*
X166153400Y-105420000D01*
X166153300Y-105420000D02*
X166153400Y-105420000D01*
X165595000Y-110050000D02*
X160173300Y-110050000D01*
X166150400Y-105420000D02*
X166151300Y-105420000D01*
X166136600Y-105420000D02*
X166145000Y-105420000D01*
X160173300Y-110050000D02*
X159820000Y-110050000D01*
X159875200Y-107510000D02*
X159875000Y-107510000D01*
X166100000Y-107005000D02*
X165595000Y-107510000D01*
X166034900Y-105420000D02*
X166036400Y-105420000D01*
X160395000Y-105420000D02*
X166034900Y-105420000D01*
X166036400Y-105420000D02*
X166103200Y-105420000D01*
X166149800Y-105420000D02*
X166149900Y-105420000D01*
X166136600Y-105420000D02*
X166145000Y-105420000D01*
X167425000Y-107730000D02*
X166700000Y-107005000D01*
X166150300Y-105420000D02*
X166150400Y-105420000D01*
X166150300Y-105420000D02*
X166150400Y-105420000D01*
X158575000Y-105190000D02*
X159300000Y-105915000D01*
X166150000Y-105420000D02*
X166150100Y-105420000D01*
X167580000Y-110270000D02*
X167425000Y-110270000D01*
X167425000Y-110270000D02*
X166700000Y-109545000D01*
X167775000Y-107730000D02*
X167580000Y-107730000D01*
X166100000Y-109545000D02*
X165595000Y-110050000D01*
X159875000Y-107510000D02*
X159820000Y-107510000D01*
X166150100Y-105420000D02*
X166150200Y-105420000D01*
X159875200Y-107510000D02*
X159875000Y-107510000D01*
X166149200Y-105420000D02*
X166149800Y-105420000D01*
X166151300Y-105420000D02*
X166151400Y-105420000D01*
X166170000Y-105420000D02*
X166400000Y-105190000D01*
X166100000Y-109545000D02*
X165595000Y-110050000D01*
X160173300Y-110050000D02*
X159820000Y-110050000D01*
X166700000Y-107005000D02*
X166100000Y-107005000D01*
X167425000Y-107730000D02*
X166700000Y-107005000D01*
X166036400Y-105420000D02*
X166103200Y-105420000D01*
X166150100Y-105420000D02*
X166150200Y-105420000D01*
X167580000Y-107730000D02*
X167425000Y-107730000D01*
X166151300Y-105420000D02*
X166151400Y-105420000D01*
X166700000Y-109545000D02*
X166100000Y-109545000D01*
X167775000Y-107730000D02*
X167580000Y-107730000D01*
X165595000Y-107510000D02*
X159960100Y-107510000D01*
X166150200Y-105420000D02*
X166150300Y-105420000D01*
X166150300Y-105420000D02*
X166150400Y-105420000D01*
X166149800Y-105420000D02*
X166149900Y-105420000D01*
X166150200Y-105420000D02*
X166150300Y-105420000D01*
X165595000Y-110050000D02*
X160173300Y-110050000D01*
X166103200Y-105420000D02*
X166136600Y-105420000D01*
X160395000Y-105420000D02*
X166034900Y-105420000D01*
X159960100Y-107510000D02*
X159875200Y-107510000D01*
X167775000Y-107730000D02*
X167580000Y-107730000D01*
X160395000Y-105420000D02*
X166034900Y-105420000D01*
X166150400Y-105420000D02*
X166151300Y-105420000D01*
X166145000Y-105420000D02*
X166149200Y-105420000D01*
X166103200Y-105420000D02*
X166136600Y-105420000D01*
X166700000Y-109545000D02*
X166100000Y-109545000D01*
X160173300Y-110050000D02*
X159820000Y-110050000D01*
X166136600Y-105420000D02*
X166145000Y-105420000D01*
X167425000Y-107730000D02*
X166700000Y-107005000D01*
X159960100Y-107510000D02*
X159875200Y-107510000D01*
X166036400Y-105420000D02*
X166103200Y-105420000D01*
X166153300Y-105420000D02*
X166153400Y-105420000D01*
X166149900Y-105420000D02*
X166150000Y-105420000D01*
X165595000Y-107510000D02*
X159960100Y-107510000D01*
X166145000Y-105420000D02*
X166149200Y-105420000D01*
X166151300Y-105420000D02*
X166151400Y-105420000D01*
X158575000Y-105190000D02*
X159300000Y-105915000D01*
X166153300Y-105420000D02*
X166153400Y-105420000D01*
X166149200Y-105420000D02*
X166149800Y-105420000D01*
X167580000Y-107730000D02*
X167425000Y-107730000D01*
X159875200Y-107510000D02*
X159875000Y-107510000D01*
X158420000Y-105190000D02*
X158575000Y-105190000D01*
X165595000Y-107510000D02*
X159960100Y-107510000D01*
X167775000Y-110270000D02*
X167580000Y-110270000D01*
X158225000Y-105190000D02*
X158420000Y-105190000D01*
X166149200Y-105420000D02*
X166149800Y-105420000D01*
X166149200Y-105420000D02*
X166149800Y-105420000D01*
X167425000Y-110270000D02*
X166700000Y-109545000D01*
X159820000Y-110050000D02*
X159600000Y-110270000D01*
X166103200Y-105420000D02*
X166136600Y-105420000D01*
X158225000Y-105190000D02*
X158420000Y-105190000D01*
X167775000Y-110270000D02*
X167580000Y-110270000D01*
X166150200Y-105420000D02*
X166150300Y-105420000D01*
X166034900Y-105420000D02*
X166036400Y-105420000D01*
X167425000Y-110270000D02*
X166700000Y-109545000D01*
X159300000Y-105915000D02*
X159900000Y-105915000D01*
X159875000Y-107510000D02*
X159820000Y-107510000D01*
X166150000Y-105420000D02*
X166150100Y-105420000D01*
X163410900Y-142534000D02*
X159000000Y-142534000D01*
X166700000Y-109545000D02*
X166100000Y-109545000D01*
X165595000Y-110050000D02*
X160173300Y-110050000D01*
X166150100Y-105420000D02*
X166150200Y-105420000D01*
X167580000Y-110270000D02*
X167425000Y-110270000D01*
X166036400Y-105420000D02*
X166103200Y-105420000D01*
X166036400Y-105420000D02*
X166103200Y-105420000D01*
X166700000Y-107005000D02*
X166100000Y-107005000D01*
X167580000Y-107730000D02*
X167425000Y-107730000D01*
X167580000Y-110270000D02*
X167425000Y-110270000D01*
X166150200Y-105420000D02*
X166150300Y-105420000D01*
X166151300Y-105420000D02*
X166151400Y-105420000D01*
X166100000Y-107005000D02*
X165595000Y-107510000D01*
X165595000Y-107510000D02*
X159960100Y-107510000D01*
X166136600Y-105420000D02*
X166145000Y-105420000D01*
X166151400Y-105420000D02*
X166153300Y-105420000D01*
X166149800Y-105420000D02*
X166149900Y-105420000D01*
X166103200Y-105420000D02*
X166136600Y-105420000D01*
X166034900Y-105420000D02*
X166036400Y-105420000D01*
X160173300Y-110050000D02*
X159820000Y-110050000D01*
X166153300Y-105420000D02*
X166153400Y-105420000D01*
X167425000Y-110270000D02*
X166700000Y-109545000D01*
X158420000Y-105190000D02*
X158575000Y-105190000D01*
X166150000Y-105420000D02*
X166150100Y-105420000D01*
X166150300Y-105420000D02*
X166150400Y-105420000D01*
X166100000Y-109545000D02*
X165595000Y-110050000D01*
X166103200Y-105420000D02*
X166136600Y-105420000D01*
X158225000Y-105190000D02*
X158420000Y-105190000D01*
X166151400Y-105420000D02*
X166153300Y-105420000D01*
X166149200Y-105420000D02*
X166149800Y-105420000D01*
X158420000Y-105190000D02*
X158575000Y-105190000D01*
X159875000Y-107510000D02*
X159820000Y-107510000D01*
X47921000Y-133861000D02*
X51059800Y-137000000D01*
X47921000Y-128246000D02*
X47921000Y-133861000D01*
X46725000Y-127050000D02*
X47921000Y-128246000D01*
X51059800Y-137000000D02*
X51650000Y-137000000D01*
X53810000Y-137000000D02*
X51650000Y-137000000D01*
X47750000Y-116690000D02*
X51059800Y-120000000D01*
X51650000Y-120000000D02*
X53810000Y-120000000D01*
X46725000Y-110050000D02*
X47750000Y-111075000D01*
X51059800Y-120000000D02*
X51650000Y-120000000D01*
X47750000Y-111075000D02*
X47750000Y-116690000D01*
X47750000Y-99690100D02*
X51059800Y-103000000D01*
X53810000Y-103000000D02*
X51650000Y-103000000D01*
X46725000Y-93050000D02*
X47750000Y-94075000D01*
X47750000Y-94075000D02*
X47750000Y-99690100D01*
X51059800Y-103000000D02*
X51650000Y-103000000D01*
X69059900Y-154000000D02*
X69650000Y-154000000D01*
X64725000Y-144050000D02*
X65921000Y-145246000D01*
X65921000Y-145246000D02*
X65921000Y-150861000D01*
X65921000Y-150861000D02*
X69059900Y-154000000D01*
X69650000Y-154000000D02*
X71810000Y-154000000D01*
X158420000Y-115350000D02*
X158575000Y-115350000D01*
X158575000Y-115350000D02*
X159300000Y-116075000D01*
X111592800Y-111250000D02*
X114425200Y-114082400D01*
X74396000Y-148129000D02*
X76275000Y-146250000D01*
X157626900Y-114082400D02*
X158420000Y-114875500D01*
X165816600Y-115580000D02*
X166170000Y-115580000D01*
X159900000Y-116075000D02*
X160395000Y-115580000D01*
X69750000Y-97250000D02*
X74275000Y-97250000D01*
X158575000Y-115350000D02*
X159300000Y-116075000D01*
X158225000Y-115350000D02*
X158420000Y-115350000D01*
X70000000Y-114500000D02*
X74025000Y-114500000D01*
X158420000Y-115350000D02*
X158575000Y-115350000D01*
X159300000Y-116075000D02*
X159900000Y-116075000D01*
X76110400Y-121181400D02*
X83291800Y-114000000D01*
X160395000Y-115580000D02*
X165816600Y-115580000D01*
X68250000Y-95750000D02*
X69750000Y-97250000D01*
X159300000Y-116075000D02*
X159900000Y-116075000D01*
X160395000Y-115580000D02*
X165816600Y-115580000D01*
X165816600Y-115580000D02*
X166170000Y-115580000D01*
X158420000Y-114875500D02*
X158420000Y-115350000D01*
X158420000Y-115350000D02*
X158575000Y-115350000D01*
X68000000Y-146500000D02*
X69629000Y-148129000D01*
X83291800Y-114000000D02*
X96537300Y-114000000D01*
X158225000Y-115350000D02*
X158420000Y-115350000D01*
X158225000Y-115350000D02*
X158420000Y-115350000D01*
X69629000Y-148129000D02*
X74396000Y-148129000D01*
X69750000Y-131250000D02*
X74275000Y-131250000D01*
X158420000Y-115350000D02*
X158575000Y-115350000D01*
X159900000Y-116075000D02*
X160395000Y-115580000D01*
X96537300Y-114000000D02*
X99287300Y-111250000D01*
X165816600Y-115580000D02*
X166170000Y-115580000D01*
X160395000Y-115580000D02*
X165816600Y-115580000D01*
X165816600Y-115580000D02*
X166170000Y-115580000D01*
X99287300Y-111250000D02*
X111592800Y-111250000D01*
X159900000Y-116075000D02*
X160395000Y-115580000D01*
X159300000Y-116075000D02*
X159900000Y-116075000D01*
X74025000Y-114500000D02*
X76275000Y-112250000D01*
X159900000Y-116075000D02*
X160395000Y-115580000D01*
X158575000Y-115350000D02*
X159300000Y-116075000D01*
X160395000Y-115580000D02*
X165816600Y-115580000D01*
X158420000Y-115350000D02*
X158575000Y-115350000D01*
X166170000Y-115580000D02*
X166400000Y-115350000D01*
X159300000Y-116075000D02*
X159900000Y-116075000D01*
X160395000Y-115580000D02*
X165816600Y-115580000D01*
X160395000Y-115580000D02*
X165816600Y-115580000D01*
X68000000Y-112500000D02*
X70000000Y-114500000D01*
X165816600Y-115580000D02*
X166170000Y-115580000D01*
X114425200Y-114082400D02*
X157626900Y-114082400D01*
X159300000Y-116075000D02*
X159900000Y-116075000D01*
X165816600Y-115580000D02*
X166170000Y-115580000D01*
X159900000Y-116075000D02*
X160395000Y-115580000D01*
X158575000Y-115350000D02*
X159300000Y-116075000D01*
X68000000Y-95750000D02*
X68250000Y-95750000D01*
X76110400Y-129414600D02*
X76110400Y-121181400D01*
X165816600Y-115580000D02*
X166170000Y-115580000D01*
X74275000Y-131250000D02*
X76110400Y-129414600D01*
X158575000Y-115350000D02*
X159300000Y-116075000D01*
X159300000Y-116075000D02*
X159900000Y-116075000D01*
X159900000Y-116075000D02*
X160395000Y-115580000D01*
X160395000Y-115580000D02*
X165816600Y-115580000D01*
X158225000Y-115350000D02*
X158420000Y-115350000D01*
X68000000Y-129500000D02*
X69750000Y-131250000D01*
X159900000Y-116075000D02*
X160395000Y-115580000D01*
X158575000Y-115350000D02*
X159300000Y-116075000D01*
X159300000Y-116075000D02*
X159900000Y-116075000D01*
X158420000Y-115350000D02*
X158575000Y-115350000D01*
X158420000Y-115350000D02*
X158575000Y-115350000D01*
X158575000Y-115350000D02*
X159300000Y-116075000D01*
X158225000Y-115350000D02*
X158420000Y-115350000D01*
X158225000Y-115350000D02*
X158420000Y-115350000D01*
X74275000Y-97250000D02*
X76275000Y-95250000D01*
X76110400Y-129414600D02*
X76275000Y-129250000D01*
X64725000Y-127050000D02*
X65921000Y-128246000D01*
X65921000Y-128246000D02*
X65921000Y-133861000D01*
X69059900Y-137000000D02*
X69650000Y-137000000D01*
X69650000Y-137000000D02*
X71810000Y-137000000D01*
X65921000Y-133861000D02*
X69059900Y-137000000D01*
X68875000Y-120000000D02*
X69650000Y-120000000D01*
X69650000Y-120000000D02*
X71810000Y-120000000D01*
X65750000Y-116875000D02*
X68875000Y-120000000D01*
X65750000Y-111075000D02*
X65750000Y-116875000D01*
X64725000Y-110050000D02*
X65750000Y-111075000D01*
X64879000Y-98879000D02*
X69000000Y-103000000D01*
X69000000Y-103000000D02*
X69650000Y-103000000D01*
X69650000Y-103000000D02*
X71810000Y-103000000D01*
X64725000Y-93050000D02*
X64879000Y-93204000D01*
X64879000Y-93204000D02*
X64879000Y-98879000D01*
X87650000Y-144650000D02*
X89810000Y-144650000D01*
X82725000Y-134700000D02*
X83921000Y-135896000D01*
X83921000Y-141511000D02*
X87059900Y-144650000D01*
X83921000Y-135896000D02*
X83921000Y-141511000D01*
X87059900Y-144650000D02*
X87650000Y-144650000D01*
X160395000Y-118120000D02*
X165816600Y-118120000D01*
X86000000Y-120250000D02*
X87750000Y-122000000D01*
X92175000Y-105000000D02*
X94275000Y-102900000D01*
X160395000Y-118120000D02*
X165816600Y-118120000D01*
X165816600Y-118120000D02*
X166170000Y-118120000D01*
X157628400Y-116620000D02*
X158536300Y-117527900D01*
X153000000Y-115000000D02*
X154620000Y-116620000D01*
X158497500Y-117890000D02*
X158536300Y-117890000D01*
X158420000Y-117890000D02*
X158497500Y-117890000D01*
X160395000Y-118120000D02*
X165816600Y-118120000D01*
X159300000Y-118615000D02*
X159900000Y-118615000D01*
X159300000Y-118615000D02*
X159900000Y-118615000D01*
X158420000Y-117890000D02*
X158497500Y-117890000D01*
X158225000Y-117890000D02*
X158420000Y-117890000D01*
X158536300Y-117890000D02*
X158575000Y-117890000D01*
X158225000Y-117890000D02*
X158420000Y-117890000D01*
X159900000Y-118615000D02*
X160395000Y-118120000D01*
X159300000Y-118615000D02*
X159900000Y-118615000D01*
X92175000Y-122000000D02*
X94275000Y-119900000D01*
X159300000Y-118615000D02*
X159900000Y-118615000D01*
X92175000Y-88000000D02*
X94275000Y-85900000D01*
X87500000Y-88000000D02*
X92175000Y-88000000D01*
X160395000Y-118120000D02*
X165816600Y-118120000D01*
X158225000Y-117890000D02*
X158420000Y-117890000D01*
X94275000Y-117662000D02*
X99937000Y-112000000D01*
X159300000Y-118615000D02*
X159900000Y-118615000D01*
X160395000Y-118120000D02*
X165816600Y-118120000D01*
X94275000Y-119900000D02*
X94275000Y-117662000D01*
X158497500Y-117890000D02*
X158536300Y-117890000D01*
X165816600Y-118120000D02*
X166170000Y-118120000D01*
X158420000Y-117890000D02*
X158497500Y-117890000D01*
X154620000Y-116620000D02*
X157628400Y-116620000D01*
X158497500Y-117890000D02*
X158536300Y-117890000D01*
X158536300Y-117890000D02*
X158575000Y-117890000D01*
X159900000Y-118615000D02*
X160395000Y-118120000D01*
X158420000Y-117890000D02*
X158497500Y-117890000D01*
X92175000Y-139000000D02*
X94275000Y-136900000D01*
X159900000Y-118615000D02*
X160395000Y-118120000D01*
X158536300Y-117527900D02*
X158536300Y-117890000D01*
X158497500Y-117890000D02*
X158536300Y-117890000D01*
X159900000Y-118615000D02*
X160395000Y-118120000D01*
X159300000Y-118615000D02*
X159900000Y-118615000D01*
X158575000Y-117890000D02*
X159300000Y-118615000D01*
X158575000Y-117890000D02*
X159300000Y-118615000D01*
X86000000Y-103000000D02*
X88000000Y-105000000D01*
X158536300Y-117890000D02*
X158575000Y-117890000D01*
X158575000Y-117890000D02*
X159300000Y-118615000D01*
X158225000Y-117890000D02*
X158420000Y-117890000D01*
X159900000Y-118615000D02*
X160395000Y-118120000D01*
X86250000Y-137250000D02*
X88000000Y-139000000D01*
X159900000Y-118615000D02*
X160395000Y-118120000D01*
X158575000Y-117890000D02*
X159300000Y-118615000D01*
X158225000Y-117890000D02*
X158420000Y-117890000D01*
X158536300Y-117890000D02*
X158575000Y-117890000D01*
X165816600Y-118120000D02*
X166170000Y-118120000D01*
X158420000Y-117890000D02*
X158497500Y-117890000D01*
X160395000Y-118120000D02*
X165816600Y-118120000D01*
X88000000Y-139000000D02*
X92175000Y-139000000D01*
X158225000Y-117890000D02*
X158420000Y-117890000D01*
X159300000Y-118615000D02*
X159900000Y-118615000D01*
X158536300Y-117890000D02*
X158575000Y-117890000D01*
X158575000Y-117890000D02*
X159300000Y-118615000D01*
X158420000Y-117890000D02*
X158497500Y-117890000D01*
X166170000Y-118120000D02*
X166400000Y-117890000D01*
X160395000Y-118120000D02*
X165816600Y-118120000D01*
X158536300Y-117890000D02*
X158575000Y-117890000D01*
X87750000Y-122000000D02*
X92175000Y-122000000D01*
X158497500Y-117890000D02*
X158536300Y-117890000D01*
X158225000Y-117890000D02*
X158420000Y-117890000D01*
X158575000Y-117890000D02*
X159300000Y-118615000D01*
X86000000Y-86500000D02*
X87500000Y-88000000D01*
X165816600Y-118120000D02*
X166170000Y-118120000D01*
X165816600Y-118120000D02*
X166170000Y-118120000D01*
X158575000Y-117890000D02*
X159300000Y-118615000D01*
X165816600Y-118120000D02*
X166170000Y-118120000D01*
X165816600Y-118120000D02*
X166170000Y-118120000D01*
X158497500Y-117890000D02*
X158536300Y-117890000D01*
X114025000Y-115000000D02*
X153000000Y-115000000D01*
X99937000Y-112000000D02*
X111025000Y-112000000D01*
X158420000Y-117890000D02*
X158497500Y-117890000D01*
X88000000Y-105000000D02*
X92175000Y-105000000D01*
X111025000Y-112000000D02*
X114025000Y-115000000D01*
X159900000Y-118615000D02*
X160395000Y-118120000D01*
X158497500Y-117890000D02*
X158536300Y-117890000D01*
X158536300Y-117890000D02*
X158575000Y-117890000D01*
X82725000Y-117700000D02*
X83921000Y-118896000D01*
X87650000Y-127650000D02*
X89810000Y-127650000D01*
X83921000Y-124511000D02*
X87059900Y-127650000D01*
X83921000Y-118896000D02*
X83921000Y-124511000D01*
X87059900Y-127650000D02*
X87650000Y-127650000D01*
X82725000Y-100700000D02*
X83921000Y-101896000D01*
X87650000Y-110650000D02*
X89810000Y-110650000D01*
X83921000Y-101896000D02*
X83921000Y-107511000D01*
X83921000Y-107511000D02*
X87059900Y-110650000D01*
X87059900Y-110650000D02*
X87650000Y-110650000D01*
X87059900Y-93650000D02*
X87650000Y-93650000D01*
X83921000Y-90511100D02*
X87059900Y-93650000D01*
X87650000Y-93650000D02*
X89810000Y-93650000D01*
X83921000Y-84896000D02*
X83921000Y-90511100D01*
X82725000Y-83700000D02*
X83921000Y-84896000D01*
X101921000Y-138111000D02*
X105060000Y-141250000D01*
X101921000Y-132496000D02*
X101921000Y-138111000D01*
X105060000Y-141250000D02*
X105650000Y-141250000D01*
X100725000Y-131300000D02*
X101921000Y-132496000D01*
X105650000Y-141250000D02*
X107810000Y-141250000D01*
X158420000Y-120430000D02*
X158575000Y-120430000D01*
X160395000Y-120660000D02*
X165816600Y-120660000D01*
X165816600Y-120660000D02*
X166170000Y-120660000D01*
X160395000Y-120660000D02*
X165816600Y-120660000D01*
X158322500Y-120430000D02*
X158420000Y-120430000D01*
X159900000Y-121155000D02*
X160395000Y-120660000D01*
X158420000Y-120430000D02*
X158575000Y-120430000D01*
X165816600Y-120660000D02*
X166170000Y-120660000D01*
X158575000Y-120430000D02*
X159300000Y-121155000D01*
X110025000Y-135750000D02*
X112275000Y-133500000D01*
X104000000Y-100000000D02*
X105750000Y-101750000D01*
X110025000Y-101750000D02*
X112275000Y-99500000D01*
X106000000Y-135750000D02*
X110025000Y-135750000D01*
X158322500Y-120430000D02*
X158420000Y-120430000D01*
X158322500Y-119868700D02*
X158322500Y-120430000D01*
X158322500Y-120430000D02*
X158420000Y-120430000D01*
X158420000Y-120430000D02*
X158575000Y-120430000D01*
X158575000Y-120430000D02*
X159300000Y-121155000D01*
X127750000Y-161750000D02*
X131595000Y-161750000D01*
X158322500Y-120430000D02*
X158420000Y-120430000D01*
X158225000Y-120430000D02*
X158322500Y-120430000D01*
X158420000Y-120430000D02*
X158575000Y-120430000D01*
X165816600Y-120660000D02*
X166170000Y-120660000D01*
X110025000Y-118750000D02*
X112275000Y-116500000D01*
X158575000Y-120430000D02*
X159300000Y-121155000D01*
X158420000Y-120430000D02*
X158575000Y-120430000D01*
X159900000Y-121155000D02*
X160395000Y-120660000D01*
X165816600Y-120660000D02*
X166170000Y-120660000D01*
X158225000Y-120430000D02*
X158322500Y-120430000D01*
X165816600Y-120660000D02*
X166170000Y-120660000D01*
X105750000Y-101750000D02*
X110025000Y-101750000D01*
X143750000Y-131750000D02*
X114025000Y-131750000D01*
X104000000Y-133750000D02*
X106000000Y-135750000D01*
X158575000Y-120430000D02*
X159300000Y-121155000D01*
X158225000Y-120430000D02*
X158322500Y-120430000D01*
X158420000Y-120430000D02*
X158575000Y-120430000D01*
X158575000Y-120430000D02*
X159300000Y-121155000D01*
X159900000Y-121155000D02*
X160395000Y-120660000D01*
X158322500Y-120430000D02*
X158420000Y-120430000D01*
X158225000Y-120430000D02*
X158322500Y-120430000D01*
X160395000Y-120660000D02*
X165816600Y-120660000D01*
X158322500Y-120430000D02*
X158420000Y-120430000D01*
X158322500Y-120430000D02*
X158420000Y-120430000D01*
X159300000Y-121155000D02*
X159900000Y-121155000D01*
X159900000Y-121155000D02*
X160395000Y-120660000D01*
X159300000Y-121155000D02*
X159900000Y-121155000D01*
X110025000Y-84750000D02*
X112275000Y-82500000D01*
X158420000Y-120430000D02*
X158420000Y-121330000D01*
X125250000Y-159250000D02*
X127750000Y-161750000D01*
X158225000Y-120430000D02*
X158322500Y-120430000D01*
X160395000Y-120660000D02*
X165816600Y-120660000D01*
X158420000Y-121330000D02*
X157955000Y-121795000D01*
X159900000Y-121155000D02*
X160395000Y-120660000D01*
X160395000Y-120660000D02*
X165816600Y-120660000D01*
X158225000Y-120430000D02*
X158322500Y-120430000D01*
X104000000Y-116750000D02*
X106000000Y-118750000D01*
X158225000Y-120430000D02*
X158322500Y-120430000D01*
X106000000Y-118750000D02*
X110025000Y-118750000D01*
X132856900Y-160488500D02*
X131595400Y-161750000D01*
X160395000Y-120660000D02*
X165816600Y-120660000D01*
X105750000Y-84750000D02*
X110025000Y-84750000D01*
X131595400Y-161750000D02*
X131595000Y-161750000D01*
X157955000Y-121795000D02*
X153705000Y-121795000D01*
X158420000Y-120430000D02*
X158575000Y-120430000D01*
X159900000Y-121155000D02*
X160395000Y-120660000D01*
X160395000Y-120660000D02*
X165816600Y-120660000D01*
X153705000Y-121795000D02*
X143750000Y-131750000D01*
X166170000Y-120660000D02*
X166400000Y-120430000D01*
X159300000Y-121155000D02*
X159900000Y-121155000D01*
X114025000Y-131750000D02*
X112275000Y-133500000D01*
X104000000Y-83000000D02*
X105750000Y-84750000D01*
X131595000Y-161750000D02*
X132857000Y-160489000D01*
X159900000Y-121155000D02*
X160395000Y-120660000D01*
X159300000Y-121155000D02*
X159900000Y-121155000D01*
X165816600Y-120660000D02*
X166170000Y-120660000D01*
X159300000Y-121155000D02*
X159900000Y-121155000D01*
X159300000Y-121155000D02*
X159900000Y-121155000D01*
X158575000Y-120430000D02*
X159300000Y-121155000D01*
X159300000Y-121155000D02*
X159900000Y-121155000D01*
X158575000Y-120430000D02*
X159300000Y-121155000D01*
X165816600Y-120660000D02*
X166170000Y-120660000D01*
X101921000Y-121111000D02*
X105060000Y-124250000D01*
X105060000Y-124250000D02*
X105650000Y-124250000D01*
X100725000Y-114300000D02*
X101921000Y-115496000D01*
X101921000Y-115496000D02*
X101921000Y-121111000D01*
X105650000Y-124250000D02*
X107810000Y-124250000D01*
X101921000Y-98496000D02*
X101921000Y-104111000D01*
X100725000Y-97300000D02*
X101921000Y-98496000D01*
X101921000Y-104111000D02*
X105060000Y-107250000D01*
X105060000Y-107250000D02*
X105650000Y-107250000D01*
X105650000Y-107250000D02*
X107810000Y-107250000D01*
X105650000Y-90250000D02*
X107810000Y-90250000D01*
X105060000Y-90250000D02*
X105650000Y-90250000D01*
X100725000Y-80300000D02*
X101921000Y-81496000D01*
X101921000Y-81496000D02*
X101921000Y-87111100D01*
X101921000Y-87111100D02*
X105060000Y-90250000D01*
X118725000Y-134700000D02*
X119921000Y-135896000D01*
X119921000Y-135896000D02*
X119921000Y-141511000D01*
X119921000Y-141511000D02*
X123060000Y-144650000D01*
X123650000Y-144650000D02*
X125810000Y-144650000D01*
X123060000Y-144650000D02*
X123650000Y-144650000D01*
X158225000Y-122970000D02*
X158322500Y-122970000D01*
X158575000Y-122970000D02*
X159300000Y-123695000D01*
X158575000Y-122970000D02*
X159300000Y-123695000D01*
X165816600Y-123200000D02*
X166170000Y-123200000D01*
X158420000Y-122970000D02*
X158575000Y-122970000D01*
X158322500Y-122970000D02*
X158420000Y-122970000D01*
X158420000Y-122970000D02*
X158575000Y-122970000D01*
X124000000Y-105000000D02*
X128175000Y-105000000D01*
X151010000Y-171000000D02*
X151241000Y-170768500D01*
X158322500Y-122970000D02*
X158420000Y-122970000D01*
X158322500Y-122970000D02*
X158420000Y-122970000D01*
X158575000Y-122970000D02*
X159300000Y-123695000D01*
X159900000Y-123695000D02*
X160395000Y-123200000D01*
X159900000Y-123695000D02*
X160395000Y-123200000D01*
X165816600Y-123200000D02*
X166170000Y-123200000D01*
X158322500Y-122970000D02*
X158420000Y-122970000D01*
X158420000Y-122970000D02*
X158575000Y-122970000D01*
X123750000Y-122000000D02*
X128175000Y-122000000D01*
X160395000Y-123200000D02*
X165816600Y-123200000D01*
X159300000Y-123695000D02*
X159900000Y-123695000D01*
X128175000Y-139000000D02*
X130275000Y-136900000D01*
X122250000Y-103250000D02*
X124000000Y-105000000D01*
X158420000Y-122970000D02*
X158575000Y-122970000D01*
X128175000Y-88000000D02*
X130275000Y-85900000D01*
X122000000Y-137000000D02*
X124000000Y-139000000D01*
X157915000Y-124335000D02*
X153415000Y-124335000D01*
X122000000Y-86500000D02*
X123500000Y-88000000D01*
X158225000Y-122970000D02*
X158322500Y-122970000D01*
X160395000Y-123200000D02*
X165816600Y-123200000D01*
X158225000Y-122970000D02*
X158322500Y-122970000D01*
X143750000Y-166750000D02*
X143750000Y-166836000D01*
X158420000Y-122970000D02*
X158575000Y-122970000D01*
X158225000Y-122970000D02*
X158322500Y-122970000D01*
X158420000Y-123830000D02*
X157915000Y-124335000D01*
X158420000Y-122970000D02*
X158575000Y-122970000D01*
X160395000Y-123200000D02*
X165816600Y-123200000D01*
X158322500Y-122970000D02*
X158420000Y-122970000D01*
X158225000Y-122970000D02*
X158322500Y-122970000D01*
X158420000Y-122970000D02*
X158575000Y-122970000D01*
X165816600Y-123200000D02*
X166170000Y-123200000D01*
X158322500Y-122970000D02*
X158420000Y-122970000D01*
X159900000Y-123695000D02*
X160395000Y-123200000D01*
X158322500Y-122970000D02*
X158420000Y-122970000D01*
X151241200Y-170768500D02*
X151472300Y-170537400D01*
X159300000Y-123695000D02*
X159900000Y-123695000D01*
X160395000Y-123200000D02*
X165816600Y-123200000D01*
X160395000Y-123200000D02*
X165816600Y-123200000D01*
X159900000Y-123695000D02*
X160395000Y-123200000D01*
X158575000Y-122970000D02*
X159300000Y-123695000D01*
X165816600Y-123200000D02*
X166170000Y-123200000D01*
X123500000Y-88000000D02*
X128175000Y-88000000D01*
X159300000Y-123695000D02*
X159900000Y-123695000D01*
X158225000Y-122970000D02*
X158322500Y-122970000D01*
X159900000Y-123695000D02*
X160395000Y-123200000D01*
X159900000Y-123695000D02*
X160395000Y-123200000D01*
X159300000Y-123695000D02*
X159900000Y-123695000D01*
X158575000Y-122970000D02*
X159300000Y-123695000D01*
X159300000Y-123695000D02*
X159900000Y-123695000D01*
X122000000Y-120250000D02*
X123750000Y-122000000D01*
X143750000Y-166836000D02*
X147914000Y-171000000D01*
X159900000Y-123695000D02*
X160395000Y-123200000D01*
X133675000Y-133500000D02*
X130275000Y-136900000D01*
X144250000Y-133500000D02*
X133675000Y-133500000D01*
X153415000Y-124335000D02*
X144250000Y-133500000D01*
X160395000Y-123200000D02*
X165816600Y-123200000D01*
X165816600Y-123200000D02*
X166170000Y-123200000D01*
X151241000Y-170768500D02*
X151472000Y-170537000D01*
X165816600Y-123200000D02*
X166170000Y-123200000D01*
X159300000Y-123695000D02*
X159900000Y-123695000D01*
X158575000Y-122970000D02*
X159300000Y-123695000D01*
X158225000Y-122970000D02*
X158322500Y-122970000D01*
X159300000Y-123695000D02*
X159900000Y-123695000D01*
X128175000Y-105000000D02*
X130275000Y-102900000D01*
X158420000Y-122970000D02*
X158420000Y-123830000D01*
X166170000Y-123200000D02*
X166400000Y-122970000D01*
X124000000Y-139000000D02*
X128175000Y-139000000D01*
X151241000Y-170768500D02*
X151241200Y-170768500D01*
X158575000Y-122970000D02*
X159300000Y-123695000D01*
X128175000Y-122000000D02*
X130275000Y-119900000D01*
X160395000Y-123200000D02*
X165816600Y-123200000D01*
X147914000Y-171000000D02*
X151010000Y-171000000D01*
X165816600Y-123200000D02*
X166170000Y-123200000D01*
X123060000Y-127650000D02*
X123650000Y-127650000D01*
X118725000Y-117700000D02*
X119921000Y-118896000D01*
X119921000Y-118896000D02*
X119921000Y-124511000D01*
X123650000Y-127650000D02*
X125810000Y-127650000D01*
X119921000Y-124511000D02*
X123060000Y-127650000D01*
X119921000Y-101896000D02*
X119921000Y-107511000D01*
X123060000Y-110650000D02*
X123650000Y-110650000D01*
X118725000Y-100700000D02*
X119921000Y-101896000D01*
X123650000Y-110650000D02*
X125810000Y-110650000D01*
X119921000Y-107511000D02*
X123060000Y-110650000D01*
X118725000Y-83700000D02*
X119921000Y-84896000D01*
X123060000Y-93650000D02*
X123650000Y-93650000D01*
X123650000Y-93650000D02*
X125810000Y-93650000D01*
X119921000Y-84896000D02*
X119921000Y-90511100D01*
X119921000Y-90511100D02*
X123060000Y-93650000D01*
X141650000Y-146350000D02*
X143810000Y-146350000D01*
X141060000Y-146350000D02*
X141650000Y-146350000D01*
X136725000Y-136400000D02*
X137921000Y-137596000D01*
X137921000Y-143211000D02*
X141060000Y-146350000D01*
X137921000Y-137596000D02*
X137921000Y-143211000D01*
X165816600Y-125740000D02*
X166170000Y-125740000D01*
X158420000Y-125510000D02*
X158575000Y-125510000D01*
X165816600Y-125740000D02*
X166170000Y-125740000D01*
X158322500Y-125510000D02*
X158420000Y-125510000D01*
X159900000Y-126235000D02*
X160395000Y-125740000D01*
X160395000Y-125740000D02*
X165816600Y-125740000D01*
X159900000Y-126235000D02*
X160395000Y-125740000D01*
X158322500Y-125510000D02*
X158420000Y-125510000D01*
X159300000Y-126235000D02*
X159900000Y-126235000D01*
X141750000Y-123750000D02*
X143974600Y-123750000D01*
X158322500Y-125510000D02*
X158420000Y-125510000D01*
X148275000Y-138600000D02*
X148275000Y-131975000D01*
X158575000Y-125510000D02*
X159300000Y-126235000D01*
X160750000Y-182000000D02*
X163812000Y-185062000D01*
X148850000Y-121600000D02*
X148275000Y-121600000D01*
X158225000Y-125510000D02*
X158322500Y-125510000D01*
X158420000Y-125510000D02*
X158575000Y-125510000D01*
X158575000Y-125510000D02*
X159300000Y-126235000D01*
X158575000Y-125510000D02*
X159300000Y-126235000D01*
X160395000Y-125740000D02*
X165816600Y-125740000D01*
X158575000Y-125510000D02*
X159300000Y-126235000D01*
X158225000Y-125510000D02*
X158322500Y-125510000D01*
X160395000Y-125740000D02*
X165816600Y-125740000D01*
X158322500Y-125510000D02*
X158420000Y-125510000D01*
X146125000Y-106750000D02*
X148275000Y-104600000D01*
X158420000Y-126360000D02*
X158420000Y-125510000D01*
X141750000Y-140750000D02*
X146125000Y-140750000D01*
X160395000Y-125740000D02*
X165816600Y-125740000D01*
X140000000Y-139000000D02*
X141750000Y-140750000D01*
X158575000Y-125510000D02*
X159300000Y-126235000D01*
X160395000Y-125740000D02*
X165816600Y-125740000D01*
X165816600Y-125740000D02*
X166170000Y-125740000D01*
X160395000Y-125740000D02*
X165816600Y-125740000D01*
X158225000Y-125510000D02*
X158322500Y-125510000D01*
X166852000Y-185062000D02*
X166852500Y-185062000D01*
X158225000Y-125510000D02*
X158322500Y-125510000D01*
X159300000Y-126235000D02*
X159900000Y-126235000D01*
X158322500Y-125510000D02*
X158420000Y-125510000D01*
X160750000Y-179500000D02*
X160750000Y-182000000D01*
X159300000Y-126235000D02*
X159900000Y-126235000D01*
X165816600Y-125740000D02*
X166170000Y-125740000D01*
X158420000Y-125510000D02*
X158575000Y-125510000D01*
X146125000Y-123750000D02*
X148275000Y-121600000D01*
X158420000Y-125510000D02*
X158575000Y-125510000D01*
X140000000Y-88250000D02*
X141500000Y-89750000D01*
X153375000Y-126875000D02*
X157905000Y-126875000D01*
X140000000Y-105250000D02*
X141500000Y-106750000D01*
X159300000Y-126235000D02*
X159900000Y-126235000D01*
X158225000Y-125510000D02*
X158322500Y-125510000D01*
X159900000Y-126235000D02*
X160395000Y-125740000D01*
X158322500Y-125510000D02*
X158420000Y-125510000D01*
X143974600Y-123750000D02*
X146125000Y-123750000D01*
X158420000Y-125510000D02*
X158575000Y-125510000D01*
X160395000Y-125740000D02*
X165816600Y-125740000D01*
X159900000Y-126235000D02*
X160395000Y-125740000D01*
X157905000Y-126875000D02*
X158420000Y-126360000D01*
X158225000Y-125510000D02*
X158322500Y-125510000D01*
X165816600Y-125740000D02*
X166170000Y-125740000D01*
X158575000Y-125510000D02*
X159300000Y-126235000D01*
X159900000Y-126235000D02*
X160395000Y-125740000D01*
X141500000Y-106750000D02*
X146125000Y-106750000D01*
X165816600Y-125740000D02*
X166170000Y-125740000D01*
X148275000Y-131975000D02*
X153375000Y-126875000D01*
X163812000Y-185062000D02*
X166852000Y-185062000D01*
X158322500Y-125510000D02*
X158420000Y-125510000D01*
X158420000Y-125510000D02*
X158575000Y-125510000D01*
X158225000Y-125510000D02*
X158322500Y-125510000D01*
X159300000Y-126235000D02*
X159900000Y-126235000D01*
X141500000Y-89750000D02*
X146125000Y-89750000D01*
X159300000Y-126235000D02*
X159900000Y-126235000D01*
X140000000Y-122000000D02*
X141750000Y-123750000D01*
X166170000Y-125740000D02*
X166400000Y-125510000D01*
X158575000Y-125510000D02*
X159300000Y-126235000D01*
X159300000Y-126235000D02*
X159900000Y-126235000D01*
X158420000Y-125510000D02*
X158575000Y-125510000D01*
X159900000Y-126235000D02*
X160395000Y-125740000D01*
X146125000Y-89750000D02*
X148275000Y-87600000D01*
X165816600Y-125740000D02*
X166170000Y-125740000D01*
X146125000Y-140750000D02*
X148275000Y-138600000D01*
X159900000Y-126235000D02*
X160395000Y-125740000D01*
X137921000Y-126211000D02*
X141060000Y-129350000D01*
X141060000Y-129350000D02*
X141650000Y-129350000D01*
X136725000Y-119400000D02*
X137921000Y-120596000D01*
X141650000Y-129350000D02*
X143810000Y-129350000D01*
X137921000Y-120596000D02*
X137921000Y-126211000D01*
X141060000Y-112350000D02*
X141650000Y-112350000D01*
X141650000Y-112350000D02*
X143810000Y-112350000D01*
X136725000Y-102400000D02*
X137921000Y-103596000D01*
X137921000Y-109211000D02*
X141060000Y-112350000D01*
X137921000Y-103596000D02*
X137921000Y-109211000D01*
X137921000Y-86596000D02*
X137921000Y-92211100D01*
X141650000Y-95350000D02*
X143810000Y-95350000D01*
X141060000Y-95350000D02*
X141650000Y-95350000D01*
X137921000Y-92211100D02*
X141060000Y-95350000D01*
X136725000Y-85400000D02*
X137921000Y-86596000D01*
X121250000Y-160500000D02*
X121250000Y-163058000D01*
X126258500Y-166539500D02*
X126538000Y-166819000D01*
X122270000Y-155374000D02*
X122270000Y-156022900D01*
X122270000Y-156022900D02*
X122270000Y-159480000D01*
X122269900Y-156022800D02*
X122269900Y-155374100D01*
X125979000Y-166260000D02*
X126258500Y-166539500D01*
X121250000Y-163058000D02*
X124451800Y-166259800D01*
X122270000Y-156022900D02*
X122269900Y-156022800D01*
X126258500Y-166539500D02*
X126258900Y-166539500D01*
X124451800Y-166259800D02*
X124452000Y-166260000D01*
X124452000Y-166260000D02*
X125979000Y-166260000D01*
X122270000Y-159480000D02*
X121250000Y-160500000D01*
X126258900Y-166539500D02*
X126538200Y-166818800D01*
X140250000Y-172327000D02*
X141055000Y-173132000D01*
X140250000Y-166750000D02*
X140250000Y-172327000D01*
X142570000Y-162857000D02*
X142570000Y-162857100D01*
X141937000Y-173937000D02*
X142343500Y-174343500D01*
X142570000Y-162857100D02*
X142570000Y-164430000D01*
X142570000Y-164430000D02*
X140250000Y-166750000D01*
X142343500Y-174343500D02*
X142750000Y-174750000D01*
X142569700Y-162857100D02*
X142570000Y-162857100D01*
X141055000Y-173132000D02*
X141860000Y-173937000D01*
X141860000Y-173937000D02*
X141937000Y-173937000D01*
X156270000Y-181001000D02*
X156270000Y-185440000D01*
X157069800Y-186239000D02*
X157069400Y-186239000D01*
X157451500Y-186621000D02*
X158215000Y-187385000D01*
X157069800Y-186239000D02*
X157451500Y-186621000D01*
X156688000Y-185857000D02*
X157069800Y-186239000D01*
X160241000Y-177031000D02*
X156270000Y-181001000D01*
X160241000Y-175339000D02*
X160241000Y-175339200D01*
X157451500Y-186621000D02*
X158215200Y-187384700D01*
X157069400Y-186239000D02*
X156687800Y-185857400D01*
X160241000Y-175339200D02*
X160241000Y-177031000D01*
X156270000Y-185440000D02*
X156688000Y-185857000D01*
X158215200Y-187384700D02*
X158215200Y-187384800D01*
X167775000Y-128050000D02*
X167580000Y-128050000D01*
X167775000Y-128050000D02*
X167580000Y-128050000D01*
X118190000Y-144650000D02*
X120350000Y-144650000D01*
X136190000Y-146350000D02*
X138350000Y-146350000D01*
X153375000Y-138625000D02*
X153375000Y-130933299D01*
X64190000Y-154000000D02*
X65270000Y-154000000D01*
X166100000Y-127325000D02*
X165595000Y-127830000D01*
X167580000Y-128050000D02*
X167502500Y-128050000D01*
X118190000Y-144650000D02*
X106526700Y-144650000D01*
X166700000Y-127325000D02*
X166100000Y-127325000D01*
X67250000Y-155500000D02*
X72750000Y-155500000D01*
X159820000Y-127830000D02*
X159620000Y-127830000D01*
X167502500Y-128050000D02*
X167425000Y-128050000D01*
X122200000Y-146500000D02*
X136040000Y-146500000D01*
X138350000Y-146350000D02*
X140250000Y-148250000D01*
X167775000Y-128050000D02*
X167580000Y-128050000D01*
X160173400Y-127830000D02*
X159820000Y-127830000D01*
X166700000Y-127325000D02*
X166100000Y-127325000D01*
X167775000Y-128050000D02*
X167580000Y-128050000D01*
X165595000Y-127830000D02*
X160173400Y-127830000D01*
X167580000Y-128050000D02*
X167502500Y-128050000D01*
X167580000Y-128050000D02*
X167502500Y-128050000D01*
X72750000Y-155500000D02*
X82190000Y-146060000D01*
X86726700Y-146250000D02*
X85126700Y-144650000D01*
X167580000Y-128050000D02*
X167502500Y-128050000D01*
X165595000Y-127830000D02*
X160173400Y-127830000D01*
X160173400Y-127830000D02*
X159820000Y-127830000D01*
X167425000Y-128050000D02*
X166700000Y-127325000D01*
X95190000Y-146250000D02*
X86726700Y-146250000D01*
X160173400Y-127830000D02*
X159820000Y-127830000D01*
X167502500Y-128050000D02*
X167425000Y-128050000D01*
X165595000Y-127830000D02*
X160173400Y-127830000D01*
X166100000Y-127325000D02*
X165595000Y-127830000D01*
X65270000Y-154000000D02*
X66350000Y-154000000D01*
X167775000Y-128050000D02*
X167580000Y-128050000D01*
X166700000Y-127325000D02*
X166100000Y-127325000D01*
X160173400Y-127830000D02*
X159820000Y-127830000D01*
X82190000Y-144650000D02*
X84350000Y-144650000D01*
X166100000Y-127325000D02*
X165595000Y-127830000D01*
X66350000Y-154600000D02*
X66350000Y-154000000D01*
X160173400Y-127830000D02*
X159820000Y-127830000D01*
X153375000Y-139375000D02*
X153375000Y-138625000D01*
X153375000Y-130933299D02*
X155058299Y-129250000D01*
X167775000Y-128050000D02*
X167580000Y-128050000D01*
X167425000Y-128050000D02*
X166700000Y-127325000D01*
X167425000Y-128050000D02*
X166700000Y-127325000D01*
X160173400Y-127830000D02*
X159820000Y-127830000D01*
X140250000Y-148250000D02*
X144500000Y-148250000D01*
X67250000Y-155500000D02*
X66350000Y-154600000D01*
X82190000Y-146060000D02*
X82190000Y-144650000D01*
X165595000Y-127830000D02*
X160173400Y-127830000D01*
X167580000Y-128050000D02*
X167502500Y-128050000D01*
X165595000Y-127830000D02*
X160173400Y-127830000D01*
X166700000Y-127325000D02*
X166100000Y-127325000D01*
X62440000Y-155750000D02*
X50100000Y-155750000D01*
X166700000Y-127325000D02*
X166100000Y-127325000D01*
X167502500Y-128050000D02*
X167425000Y-128050000D01*
X100190000Y-141250000D02*
X95190000Y-146250000D01*
X167502500Y-128050000D02*
X167425000Y-128050000D01*
X84350000Y-144650000D02*
X85126700Y-144650000D01*
X167502500Y-128050000D02*
X167425000Y-128050000D01*
X144500000Y-148250000D02*
X153375000Y-139375000D01*
X159600000Y-127850000D02*
X159600000Y-128050000D01*
X167425000Y-128050000D02*
X166700000Y-127325000D01*
X166100000Y-127325000D02*
X165595000Y-127830000D01*
X167502500Y-128050000D02*
X167425000Y-128050000D01*
X165595000Y-127830000D02*
X160173400Y-127830000D01*
X167425000Y-128050000D02*
X166700000Y-127325000D01*
X46190000Y-154000000D02*
X48350000Y-154000000D01*
X167425000Y-128050000D02*
X166700000Y-127325000D01*
X166100000Y-127325000D02*
X165595000Y-127830000D01*
X166700000Y-127325000D02*
X166100000Y-127325000D01*
X50100000Y-155750000D02*
X48350000Y-154000000D01*
X166100000Y-127325000D02*
X165595000Y-127830000D01*
X64190000Y-154000000D02*
X62440000Y-155750000D01*
X100190000Y-141250000D02*
X102350000Y-141250000D01*
X102350000Y-141250000D02*
X103126700Y-141250000D01*
X166700000Y-127325000D02*
X166100000Y-127325000D01*
X166100000Y-127325000D02*
X165595000Y-127830000D01*
X159620000Y-127830000D02*
X159600000Y-127850000D01*
X167580000Y-128050000D02*
X167502500Y-128050000D01*
X160173400Y-127830000D02*
X159820000Y-127830000D01*
X167425000Y-128050000D02*
X166700000Y-127325000D01*
X167580000Y-128050000D02*
X167502500Y-128050000D01*
X167502500Y-128050000D02*
X167425000Y-128050000D01*
X166380000Y-129250000D02*
X167580000Y-128050000D01*
X120350000Y-144650000D02*
X122200000Y-146500000D01*
X155058299Y-129250000D02*
X166380000Y-129250000D01*
X106526700Y-144650000D02*
X103126700Y-141250000D01*
X165595000Y-127830000D02*
X160173400Y-127830000D01*
X136040000Y-146500000D02*
X136190000Y-146350000D01*
X167775000Y-128050000D02*
X167580000Y-128050000D01*
X48350000Y-137000000D02*
X50100000Y-138750000D01*
X167425000Y-125510000D02*
X166700000Y-124785000D01*
X100190000Y-124250000D02*
X102350000Y-124250000D01*
X165595000Y-125290000D02*
X160173400Y-125290000D01*
X167425000Y-125510000D02*
X166700000Y-124785000D01*
X102350000Y-124250000D02*
X102500000Y-124250000D01*
X68100000Y-138750000D02*
X66350000Y-137000000D01*
X167580000Y-125510000D02*
X167425000Y-125510000D01*
X166100000Y-124785000D02*
X165595000Y-125290000D01*
X166100000Y-124785000D02*
X165595000Y-125290000D01*
X160173400Y-125290000D02*
X159820000Y-125290000D01*
X159600000Y-125290000D02*
X159600000Y-125510000D01*
X166100000Y-124785000D02*
X165595000Y-125290000D01*
X167775000Y-125510000D02*
X167580000Y-125510000D01*
X165595000Y-125290000D02*
X160173400Y-125290000D01*
X122750000Y-129350000D02*
X121050000Y-127650000D01*
X121050000Y-127650000D02*
X120350000Y-127650000D01*
X122750000Y-129350000D02*
X136190000Y-129350000D01*
X72750000Y-138750000D02*
X68100000Y-138750000D01*
X160173400Y-125290000D02*
X159820000Y-125290000D01*
X166700000Y-124785000D02*
X166100000Y-124785000D01*
X166100000Y-124785000D02*
X165595000Y-125290000D01*
X166700000Y-124785000D02*
X166100000Y-124785000D01*
X167775000Y-125510000D02*
X167580000Y-125510000D01*
X160173400Y-125290000D02*
X159820000Y-125290000D01*
X166700000Y-124785000D02*
X166100000Y-124785000D01*
X167425000Y-125510000D02*
X166700000Y-124785000D01*
X167775000Y-125510000D02*
X167580000Y-125510000D01*
X166100000Y-124785000D02*
X165595000Y-125290000D01*
X102500000Y-124250000D02*
X105900000Y-127650000D01*
X165595000Y-125290000D02*
X160173400Y-125290000D01*
X166700000Y-124785000D02*
X166100000Y-124785000D01*
X160173400Y-125290000D02*
X159820000Y-125290000D01*
X159820000Y-125290000D02*
X159600000Y-125290000D01*
X166700000Y-124785000D02*
X166100000Y-124785000D01*
X167425000Y-125510000D02*
X166700000Y-124785000D01*
X166700000Y-124785000D02*
X166100000Y-124785000D01*
X167775000Y-125510000D02*
X167580000Y-125510000D01*
X64190000Y-137000000D02*
X66350000Y-137000000D01*
X160173400Y-125290000D02*
X159820000Y-125290000D01*
X84350000Y-127650000D02*
X86200000Y-129500000D01*
X165595000Y-125290000D02*
X160173400Y-125290000D01*
X167775000Y-125510000D02*
X167580000Y-125510000D01*
X167580000Y-125510000D02*
X167425000Y-125510000D01*
X166700000Y-124785000D02*
X166100000Y-124785000D01*
X166100000Y-124785000D02*
X165595000Y-125290000D01*
X167775000Y-125510000D02*
X167580000Y-125510000D01*
X160173400Y-125290000D02*
X159820000Y-125290000D01*
X167425000Y-125510000D02*
X166700000Y-124785000D01*
X166100000Y-124785000D02*
X165595000Y-125290000D01*
X167580000Y-125510000D02*
X167425000Y-125510000D01*
X167425000Y-125510000D02*
X166700000Y-124785000D01*
X165595000Y-125290000D02*
X160173400Y-125290000D01*
X46190000Y-137000000D02*
X48350000Y-137000000D01*
X165595000Y-125290000D02*
X160173400Y-125290000D01*
X83100000Y-127650000D02*
X84350000Y-127650000D01*
X82190000Y-127650000D02*
X82190000Y-129310000D01*
X83100000Y-127650000D02*
X82190000Y-127650000D01*
X167580000Y-125510000D02*
X167425000Y-125510000D01*
X167580000Y-125510000D02*
X167425000Y-125510000D01*
X86200000Y-129500000D02*
X94940000Y-129500000D01*
X62440000Y-138750000D02*
X64190000Y-137000000D01*
X167425000Y-125510000D02*
X166700000Y-124785000D01*
X160173400Y-125290000D02*
X159820000Y-125290000D01*
X167580000Y-125510000D02*
X167425000Y-125510000D01*
X94940000Y-129500000D02*
X100190000Y-124250000D01*
X167580000Y-125510000D02*
X167425000Y-125510000D01*
X136190000Y-129350000D02*
X138350000Y-129350000D01*
X167775000Y-125510000D02*
X167580000Y-125510000D01*
X50100000Y-138750000D02*
X62440000Y-138750000D01*
X105900000Y-127650000D02*
X118190000Y-127650000D01*
X118190000Y-127650000D02*
X120350000Y-127650000D01*
X165595000Y-125290000D02*
X160173400Y-125290000D01*
X120350000Y-127650000D02*
X120650000Y-127650000D01*
X82190000Y-129310000D02*
X72750000Y-138750000D01*
X159820000Y-122750000D02*
X159600000Y-122750000D01*
X167580000Y-122970000D02*
X167425000Y-122970000D01*
X167580000Y-122970000D02*
X167425000Y-122970000D01*
X166700000Y-122245000D02*
X166100000Y-122245000D01*
X166700000Y-122245000D02*
X166100000Y-122245000D01*
X94940000Y-112500000D02*
X86200000Y-112500000D01*
X166700000Y-122245000D02*
X166100000Y-122245000D01*
X86200000Y-112500000D02*
X84350000Y-110650000D01*
X166100000Y-122245000D02*
X165595000Y-122750000D01*
X160173400Y-122750000D02*
X159820000Y-122750000D01*
X136190000Y-112350000D02*
X122826700Y-112350000D01*
X167425000Y-122970000D02*
X166700000Y-122245000D01*
X160173400Y-122750000D02*
X159820000Y-122750000D01*
X166100000Y-122245000D02*
X165595000Y-122750000D01*
X165595000Y-122750000D02*
X160173400Y-122750000D01*
X159600000Y-122750000D02*
X159600000Y-122970000D01*
X118040000Y-110500000D02*
X118190000Y-110650000D01*
X167425000Y-122970000D02*
X166700000Y-122245000D01*
X159600000Y-122627000D02*
X159600000Y-122750000D01*
X48350000Y-120000000D02*
X50100000Y-121750000D01*
X82190000Y-110650000D02*
X84350000Y-110650000D01*
X167580000Y-122970000D02*
X167425000Y-122970000D01*
X105600000Y-110500000D02*
X118040000Y-110500000D01*
X165595000Y-122750000D02*
X160173400Y-122750000D01*
X166700000Y-122245000D02*
X166100000Y-122245000D01*
X166100000Y-122245000D02*
X165595000Y-122750000D01*
X48350000Y-120000000D02*
X46190000Y-120000000D01*
X166100000Y-122245000D02*
X165595000Y-122750000D01*
X167775000Y-122970000D02*
X167580000Y-122970000D01*
X160173400Y-122750000D02*
X159820000Y-122750000D01*
X167425000Y-122970000D02*
X166700000Y-122245000D01*
X100190000Y-107250000D02*
X94940000Y-112500000D01*
X167425000Y-122970000D02*
X166700000Y-122245000D01*
X136190000Y-112350000D02*
X138350000Y-112350000D01*
X165595000Y-122750000D02*
X160173400Y-122750000D01*
X166700000Y-122245000D02*
X166100000Y-122245000D01*
X165595000Y-122750000D02*
X160173400Y-122750000D01*
X118190000Y-110650000D02*
X120350000Y-110650000D01*
X167425000Y-122970000D02*
X166700000Y-122245000D01*
X160173400Y-122750000D02*
X159820000Y-122750000D01*
X160173400Y-122750000D02*
X159820000Y-122750000D01*
X64190000Y-120000000D02*
X66350000Y-120000000D01*
X167580000Y-122970000D02*
X167425000Y-122970000D01*
X167775000Y-122970000D02*
X167580000Y-122970000D01*
X102350000Y-107250000D02*
X105600000Y-110500000D01*
X167580000Y-122970000D02*
X167425000Y-122970000D01*
X100190000Y-107250000D02*
X102350000Y-107250000D01*
X160173400Y-122750000D02*
X159820000Y-122750000D01*
X167775000Y-122970000D02*
X167580000Y-122970000D01*
X165595000Y-122750000D02*
X160173400Y-122750000D01*
X82190000Y-110650000D02*
X82190000Y-111962850D01*
X167775000Y-122970000D02*
X167580000Y-122970000D01*
X167425000Y-122970000D02*
X166700000Y-122245000D01*
X165595000Y-122750000D02*
X160173400Y-122750000D01*
X120350000Y-110650000D02*
X121126700Y-110650000D01*
X166100000Y-122245000D02*
X165595000Y-122750000D01*
X167775000Y-122970000D02*
X167580000Y-122970000D01*
X166700000Y-122245000D02*
X166100000Y-122245000D01*
X167580000Y-122970000D02*
X167425000Y-122970000D01*
X166100000Y-122245000D02*
X165595000Y-122750000D01*
X122826700Y-112350000D02*
X121126700Y-110650000D01*
X167425000Y-122970000D02*
X166700000Y-122245000D01*
X68100000Y-121750000D02*
X66350000Y-120000000D01*
X167580000Y-122970000D02*
X167425000Y-122970000D01*
X165595000Y-122750000D02*
X160173400Y-122750000D01*
X50100000Y-121750000D02*
X62440000Y-121750000D01*
X82190000Y-111962850D02*
X72402850Y-121750000D01*
X160173400Y-122750000D02*
X159820000Y-122750000D01*
X72402850Y-121750000D02*
X68100000Y-121750000D01*
X62440000Y-121750000D02*
X64190000Y-120000000D01*
X167775000Y-122970000D02*
X167580000Y-122970000D01*
X166100000Y-122245000D02*
X165595000Y-122750000D01*
X167775000Y-122970000D02*
X167580000Y-122970000D01*
X166700000Y-122245000D02*
X166100000Y-122245000D01*
X166100000Y-119705000D02*
X165595000Y-120210000D01*
X167775000Y-120430000D02*
X167580000Y-120430000D01*
X64190000Y-103000000D02*
X62974300Y-103000000D01*
X167425000Y-120430000D02*
X166700000Y-119705000D01*
X159600000Y-120210000D02*
X159600000Y-120430000D01*
X119405700Y-93650000D02*
X120350000Y-93650000D01*
X160173400Y-120210000D02*
X159820000Y-120210000D01*
X166700000Y-119705000D02*
X166100000Y-119705000D01*
X165595000Y-120210000D02*
X160173400Y-120210000D01*
X165595000Y-120210000D02*
X160173400Y-120210000D01*
X64190000Y-103000000D02*
X66350000Y-103000000D01*
X166700000Y-119705000D02*
X166100000Y-119705000D01*
X166100000Y-119705000D02*
X165595000Y-120210000D01*
X100190000Y-90250000D02*
X102350000Y-90250000D01*
X136190000Y-95350000D02*
X138350000Y-95350000D01*
X167580000Y-120430000D02*
X167425000Y-120430000D01*
X167775000Y-120430000D02*
X167580000Y-120430000D01*
X167775000Y-120430000D02*
X167580000Y-120430000D01*
X167580000Y-120430000D02*
X167425000Y-120430000D01*
X166700000Y-119705000D02*
X166100000Y-119705000D01*
X82190000Y-93650000D02*
X84350000Y-93650000D01*
X86406100Y-94929400D02*
X95570600Y-94929400D01*
X165595000Y-120210000D02*
X160173400Y-120210000D01*
X103126700Y-90250000D02*
X106526700Y-93650000D01*
X82190000Y-94865700D02*
X72775200Y-104280500D01*
X167580000Y-120430000D02*
X167425000Y-120430000D01*
X167580000Y-120430000D02*
X167425000Y-120430000D01*
X167425000Y-120430000D02*
X166700000Y-119705000D01*
X165595000Y-120210000D02*
X160173400Y-120210000D01*
X166700000Y-119705000D02*
X166100000Y-119705000D01*
X166100000Y-119705000D02*
X165595000Y-120210000D01*
X167425000Y-120430000D02*
X166700000Y-119705000D01*
X48350000Y-103000000D02*
X49126700Y-103000000D01*
X95570600Y-94929400D02*
X100190000Y-90310000D01*
X50412300Y-104285600D02*
X61688700Y-104285600D01*
X167775000Y-120430000D02*
X167580000Y-120430000D01*
X120350000Y-93650000D02*
X122050000Y-95350000D01*
X85126700Y-93650000D02*
X86406100Y-94929400D01*
X167425000Y-120430000D02*
X166700000Y-119705000D01*
X167775000Y-120430000D02*
X167580000Y-120430000D01*
X165595000Y-120210000D02*
X160173400Y-120210000D01*
X160173400Y-120210000D02*
X159820000Y-120210000D01*
X165595000Y-120210000D02*
X160173400Y-120210000D01*
X167425000Y-120430000D02*
X166700000Y-119705000D01*
X160173400Y-120210000D02*
X159820000Y-120210000D01*
X165595000Y-120210000D02*
X160173400Y-120210000D01*
X160173400Y-120210000D02*
X159820000Y-120210000D01*
X46190000Y-103000000D02*
X48350000Y-103000000D01*
X66350000Y-103000000D02*
X67126700Y-103000000D01*
X166100000Y-119705000D02*
X165595000Y-120210000D01*
X159600000Y-120060000D02*
X159600000Y-120210000D01*
X167775000Y-120430000D02*
X167580000Y-120430000D01*
X122050000Y-95350000D02*
X136190000Y-95350000D01*
X68407200Y-104280500D02*
X67126700Y-103000000D01*
X167775000Y-120430000D02*
X167580000Y-120430000D01*
X106526700Y-93650000D02*
X118190000Y-93650000D01*
X167580000Y-120430000D02*
X167425000Y-120430000D01*
X82190000Y-93650000D02*
X82190000Y-94865700D01*
X49126700Y-103000000D02*
X50412300Y-104285600D01*
X61688700Y-104285600D02*
X62974300Y-103000000D01*
X166700000Y-119705000D02*
X166100000Y-119705000D01*
X166700000Y-119705000D02*
X166100000Y-119705000D01*
X84350000Y-93650000D02*
X85126700Y-93650000D01*
X100190000Y-90250000D02*
X100190000Y-90310000D01*
X166700000Y-119705000D02*
X166100000Y-119705000D01*
X160173400Y-120210000D02*
X159820000Y-120210000D01*
X102350000Y-90250000D02*
X103126700Y-90250000D01*
X167580000Y-120430000D02*
X167425000Y-120430000D01*
X166100000Y-119705000D02*
X165595000Y-120210000D01*
X160173400Y-120210000D02*
X159820000Y-120210000D01*
X160173400Y-120210000D02*
X159820000Y-120210000D01*
X167580000Y-120430000D02*
X167425000Y-120430000D01*
X72775200Y-104280500D02*
X68407200Y-104280500D01*
X166100000Y-119705000D02*
X165595000Y-120210000D01*
X166100000Y-119705000D02*
X165595000Y-120210000D01*
X167425000Y-120430000D02*
X166700000Y-119705000D01*
X159820000Y-120210000D02*
X159600000Y-120210000D01*
X167425000Y-120430000D02*
X166700000Y-119705000D01*
X118190000Y-93650000D02*
X119405700Y-93650000D01*
X167775000Y-130590000D02*
X167580000Y-130590000D01*
X139002000Y-172286600D02*
X139001800Y-172286800D01*
X137131000Y-171207000D02*
X137922000Y-171207000D01*
X139001900Y-172286900D02*
X139002000Y-172287000D01*
X166700000Y-129865000D02*
X166100000Y-129865000D01*
X166100000Y-129865000D02*
X165595000Y-130370000D01*
X167502500Y-130590000D02*
X167425000Y-130590000D01*
X153590500Y-182760500D02*
X153590900Y-182760500D01*
X119178000Y-164847000D02*
X119178100Y-164847000D01*
X160173400Y-130370000D02*
X159820000Y-130370000D01*
X167580000Y-130590000D02*
X167502500Y-130590000D01*
X165595000Y-130370000D02*
X160173400Y-130370000D01*
X160173400Y-130370000D02*
X159820000Y-130370000D01*
X147593500Y-181137000D02*
X151967400Y-181137000D01*
X160173400Y-130370000D02*
X159820000Y-130370000D01*
X167580000Y-130590000D02*
X167502500Y-130590000D01*
X160173400Y-130370000D02*
X159820000Y-130370000D01*
X166100000Y-129865000D02*
X165595000Y-130370000D01*
X166100000Y-129865000D02*
X165595000Y-130370000D01*
X139001800Y-172286800D02*
X139001900Y-172286900D01*
X166700000Y-129865000D02*
X166100000Y-129865000D01*
X166700000Y-129865000D02*
X166100000Y-129865000D01*
X153590500Y-182760500D02*
X154354000Y-183524000D01*
X119178100Y-164847000D02*
X124767000Y-170435900D01*
X167502500Y-130590000D02*
X167425000Y-130590000D01*
X167775000Y-130590000D02*
X167580000Y-130590000D01*
D24*
X153000000Y-182169600D02*
X153000000Y-175000000D01*
D23*
X165595000Y-130370000D02*
X160173400Y-130370000D01*
X121170000Y-165500000D02*
X121264000Y-165406000D01*
X137922000Y-171207000D02*
X139001800Y-172286800D01*
X167775000Y-130590000D02*
X167580000Y-130590000D01*
X166700000Y-129865000D02*
X166100000Y-129865000D01*
X167425000Y-130590000D02*
X166700000Y-129865000D01*
X165595000Y-130370000D02*
X160173400Y-130370000D01*
X159820000Y-130370000D02*
X159600000Y-130590000D01*
X167580000Y-130590000D02*
X167502500Y-130590000D01*
X167580000Y-130590000D02*
X167502500Y-130590000D01*
X167775000Y-130590000D02*
X167580000Y-130590000D01*
X166700000Y-129865000D02*
X166100000Y-129865000D01*
X124767000Y-170435900D02*
X135796300Y-170435900D01*
X167425000Y-130590000D02*
X166700000Y-129865000D01*
X160173400Y-130370000D02*
X159820000Y-130370000D01*
X165595000Y-130370000D02*
X160173400Y-130370000D01*
X166700000Y-129865000D02*
X166100000Y-129865000D01*
X152827000Y-181996600D02*
X152827000Y-181997000D01*
X119178000Y-164846800D02*
X119178000Y-164847000D01*
X121264000Y-165406000D02*
X121264200Y-165405800D01*
X167502500Y-130590000D02*
X167425000Y-130590000D01*
X167580000Y-130590000D02*
X167502500Y-130590000D01*
X167502500Y-130590000D02*
X167425000Y-130590000D01*
X166100000Y-129865000D02*
X165595000Y-130370000D01*
X165595000Y-130370000D02*
X160173400Y-130370000D01*
X119177800Y-164846600D02*
X119178000Y-164846800D01*
D24*
X161750000Y-133000000D02*
X165170000Y-133000000D01*
X155000000Y-173000000D02*
X155000000Y-139750000D01*
D23*
X137131300Y-171206600D02*
X135796400Y-170435800D01*
X152827000Y-181997000D02*
X153590500Y-182760500D01*
X166100000Y-129865000D02*
X165595000Y-130370000D01*
X167775000Y-130590000D02*
X167580000Y-130590000D01*
X153590900Y-182760500D02*
X154354400Y-183524000D01*
X167425000Y-130590000D02*
X166700000Y-129865000D01*
D24*
X153000000Y-175000000D02*
X155000000Y-173000000D01*
D23*
X167425000Y-130590000D02*
X166700000Y-129865000D01*
X167502500Y-130590000D02*
X167425000Y-130590000D01*
X119178000Y-164847000D02*
X119831000Y-165500000D01*
X167775000Y-130590000D02*
X167580000Y-130590000D01*
X165595000Y-130370000D02*
X160173400Y-130370000D01*
X165595000Y-130370000D02*
X160173400Y-130370000D01*
D24*
X165170000Y-133000000D02*
X167580000Y-130590000D01*
D23*
X135796300Y-170435900D02*
X135796400Y-170435800D01*
X121264200Y-165405800D02*
X121264200Y-165405600D01*
X167775000Y-130590000D02*
X167580000Y-130590000D01*
X167502500Y-130590000D02*
X167425000Y-130590000D01*
X139001900Y-172545400D02*
X147593500Y-181137000D01*
X167502500Y-130590000D02*
X167425000Y-130590000D01*
X167580000Y-130590000D02*
X167502500Y-130590000D01*
X119831000Y-165500000D02*
X121170000Y-165500000D01*
X166100000Y-129865000D02*
X165595000Y-130370000D01*
X139001900Y-172286900D02*
X139001900Y-172545400D01*
D24*
X155000000Y-139750000D02*
X161750000Y-133000000D01*
D23*
X160173400Y-130370000D02*
X159820000Y-130370000D01*
X167425000Y-130590000D02*
X166700000Y-129865000D01*
X167580000Y-130590000D02*
X167502500Y-130590000D01*
X167425000Y-130590000D02*
X166700000Y-129865000D01*
D24*
X154354374Y-183523974D02*
X153000000Y-182169600D01*
D23*
X167425000Y-130590000D02*
X166700000Y-129865000D01*
X166700000Y-129865000D02*
X166100000Y-129865000D01*
X160173400Y-130370000D02*
X159820000Y-130370000D01*
X166100000Y-129865000D02*
X165595000Y-130370000D01*
X152827000Y-181996600D02*
X151967400Y-181137000D01*
X166850000Y-141100000D02*
X168265000Y-141100000D01*
X165993400Y-102880000D02*
X166170000Y-102880000D01*
X158575000Y-102650000D02*
X159300000Y-103375000D01*
X158575000Y-102650000D02*
X159300000Y-103375000D01*
X165816800Y-102880000D02*
X165993400Y-102880000D01*
X165816800Y-102880000D02*
X165993400Y-102880000D01*
X160395000Y-102880000D02*
X165816800Y-102880000D01*
X158225000Y-102650000D02*
X158420000Y-102650000D01*
X159900000Y-103375000D02*
X160395000Y-102880000D01*
X171022500Y-103920000D02*
X171885400Y-104782900D01*
X158225000Y-102650000D02*
X158420000Y-102650000D01*
X165816800Y-102880000D02*
X165993400Y-102880000D01*
X158225000Y-102650000D02*
X158420000Y-102650000D01*
X159300000Y-103375000D02*
X159900000Y-103375000D01*
X160395000Y-102880000D02*
X165816800Y-102880000D01*
X158575000Y-102650000D02*
X159300000Y-103375000D01*
X165993400Y-102880000D02*
X166170000Y-102880000D01*
X165993400Y-102880000D02*
X166170000Y-102880000D01*
X167033400Y-103920000D02*
X171022500Y-103920000D01*
X171885400Y-138539500D02*
X170074900Y-140350000D01*
X159300000Y-103375000D02*
X159900000Y-103375000D01*
X165993400Y-102880000D02*
X166170000Y-102880000D01*
X160395000Y-102880000D02*
X165816800Y-102880000D01*
X165816800Y-102880000D02*
X165993400Y-102880000D01*
X158420000Y-102650000D02*
X158575000Y-102650000D01*
X165816800Y-102880000D02*
X165993400Y-102880000D01*
X159300000Y-103375000D02*
X159900000Y-103375000D01*
X159900000Y-103375000D02*
X160395000Y-102880000D01*
X166250000Y-140500000D02*
X166850000Y-141100000D01*
X159900000Y-103375000D02*
X160395000Y-102880000D01*
X165993400Y-102880000D02*
X166170000Y-102880000D01*
X159300000Y-103375000D02*
X159900000Y-103375000D01*
X159300000Y-103375000D02*
X159900000Y-103375000D01*
X171885400Y-104782900D02*
X171885400Y-138539500D01*
X158575000Y-102650000D02*
X159300000Y-103375000D01*
X160395000Y-102880000D02*
X165816800Y-102880000D01*
X159900000Y-103375000D02*
X160395000Y-102880000D01*
X158575000Y-102650000D02*
X159300000Y-103375000D01*
X158420000Y-102650000D02*
X158575000Y-102650000D01*
X165816800Y-102880000D02*
X165993400Y-102880000D01*
X169015000Y-140350000D02*
X168265000Y-141100000D01*
X158225000Y-102650000D02*
X158420000Y-102650000D01*
X158420000Y-102650000D02*
X158575000Y-102650000D01*
X165993400Y-102880000D02*
X167033400Y-103920000D01*
X158575000Y-102650000D02*
X159300000Y-103375000D01*
X158225000Y-102650000D02*
X158420000Y-102650000D01*
X158420000Y-102650000D02*
X158575000Y-102650000D01*
X159900000Y-103375000D02*
X160395000Y-102880000D01*
X158225000Y-102650000D02*
X158420000Y-102650000D01*
X165816800Y-102880000D02*
X165993400Y-102880000D01*
X160395000Y-102880000D02*
X165816800Y-102880000D01*
X158225000Y-102650000D02*
X158420000Y-102650000D01*
X170074900Y-140350000D02*
X169015000Y-140350000D01*
X158575000Y-102650000D02*
X159300000Y-103375000D01*
X159900000Y-103375000D02*
X160395000Y-102880000D01*
X165993400Y-102880000D02*
X166170000Y-102880000D01*
X158420000Y-102650000D02*
X158575000Y-102650000D01*
X159300000Y-103375000D02*
X159900000Y-103375000D01*
X159900000Y-103375000D02*
X160395000Y-102880000D01*
X160395000Y-102880000D02*
X165816800Y-102880000D01*
X159300000Y-103375000D02*
X159900000Y-103375000D01*
X158420000Y-102650000D02*
X158575000Y-102650000D01*
X158420000Y-102650000D02*
X158575000Y-102650000D01*
X165993400Y-102880000D02*
X166170000Y-102880000D01*
X160395000Y-102880000D02*
X165816800Y-102880000D01*
X166170000Y-102880000D02*
X166400000Y-102650000D01*
X158420000Y-107730000D02*
X158575000Y-107730000D01*
X158225000Y-107730000D02*
X158420000Y-107730000D01*
X165816600Y-107960000D02*
X166170000Y-107960000D01*
X159900000Y-108455000D02*
X160395000Y-107960000D01*
X158225000Y-107730000D02*
X158420000Y-107730000D01*
X158575000Y-107730000D02*
X159300000Y-108455000D01*
X158575000Y-107730000D02*
X159300000Y-108455000D01*
X160395000Y-107960000D02*
X165816600Y-107960000D01*
X165816600Y-107960000D02*
X166170000Y-107960000D01*
X160395000Y-107960000D02*
X165816600Y-107960000D01*
X158575000Y-107730000D02*
X159300000Y-108455000D01*
X165816600Y-107960000D02*
X166170000Y-107960000D01*
X160395000Y-107960000D02*
X165816600Y-107960000D01*
X159900000Y-108455000D02*
X160395000Y-107960000D01*
X158575000Y-107730000D02*
X159300000Y-108455000D01*
X165816600Y-107960000D02*
X166170000Y-107960000D01*
X158420000Y-107730000D02*
X158575000Y-107730000D01*
X158575000Y-107730000D02*
X159300000Y-108455000D01*
X160395000Y-107960000D02*
X165816600Y-107960000D01*
X165816600Y-107960000D02*
X166170000Y-107960000D01*
X160395000Y-107960000D02*
X165816600Y-107960000D01*
X158575000Y-107730000D02*
X159300000Y-108455000D01*
X158225000Y-107730000D02*
X158420000Y-107730000D01*
X159300000Y-108455000D02*
X159900000Y-108455000D01*
X159300000Y-108455000D02*
X159900000Y-108455000D01*
X160395000Y-107960000D02*
X165816600Y-107960000D01*
X159300000Y-108455000D02*
X159900000Y-108455000D01*
X158420000Y-107730000D02*
X158575000Y-107730000D01*
X158420000Y-107730000D02*
X158575000Y-107730000D01*
X158225000Y-107730000D02*
X158420000Y-107730000D01*
X165816600Y-107960000D02*
X166170000Y-107960000D01*
X159900000Y-108455000D02*
X160395000Y-107960000D01*
X158575000Y-107730000D02*
X159300000Y-108455000D01*
X159300000Y-108455000D02*
X159900000Y-108455000D01*
X158420000Y-107730000D02*
X158575000Y-107730000D01*
X166170000Y-107960000D02*
X166400000Y-107730000D01*
X158420000Y-107730000D02*
X158575000Y-107730000D01*
X165816600Y-107960000D02*
X166170000Y-107960000D01*
X159900000Y-108455000D02*
X160395000Y-107960000D01*
X159300000Y-108455000D02*
X159900000Y-108455000D01*
X159300000Y-108455000D02*
X159900000Y-108455000D01*
X158225000Y-107730000D02*
X158420000Y-107730000D01*
X159900000Y-108455000D02*
X160395000Y-107960000D01*
X158420000Y-107730000D02*
X158575000Y-107730000D01*
X159900000Y-108455000D02*
X160395000Y-107960000D01*
X159900000Y-108455000D02*
X160395000Y-107960000D01*
X158225000Y-107730000D02*
X158420000Y-107730000D01*
X159300000Y-108455000D02*
X159900000Y-108455000D01*
X160395000Y-107960000D02*
X165816600Y-107960000D01*
X158225000Y-107730000D02*
X158420000Y-107730000D01*
X158575000Y-110270000D02*
X159300000Y-110995000D01*
X158575000Y-110270000D02*
X159300000Y-110995000D01*
X158420000Y-110270000D02*
X158575000Y-110270000D01*
X165816800Y-110500000D02*
X166170000Y-110500000D01*
X159900000Y-110995000D02*
X160395000Y-110500000D01*
X159900000Y-110995000D02*
X160395000Y-110500000D01*
X159300000Y-110995000D02*
X159900000Y-110995000D01*
X159300000Y-110995000D02*
X159900000Y-110995000D01*
X158225000Y-110270000D02*
X158420000Y-110270000D01*
X158575000Y-110270000D02*
X159300000Y-110995000D01*
X158225000Y-110270000D02*
X158420000Y-110270000D01*
X159900000Y-110995000D02*
X160395000Y-110500000D01*
X159900000Y-110995000D02*
X160395000Y-110500000D01*
X159900000Y-110995000D02*
X160395000Y-110500000D01*
X165816800Y-110500000D02*
X166170000Y-110500000D01*
X158575000Y-110270000D02*
X159300000Y-110995000D01*
X160395000Y-110500000D02*
X165816800Y-110500000D01*
X160395000Y-110500000D02*
X165816800Y-110500000D01*
X158225000Y-110270000D02*
X158420000Y-110270000D01*
X158225000Y-110270000D02*
X158420000Y-110270000D01*
X165816800Y-110500000D02*
X166170000Y-110500000D01*
X158420000Y-110270000D02*
X158575000Y-110270000D01*
X158420000Y-110270000D02*
X158575000Y-110270000D01*
X158420000Y-110270000D02*
X158575000Y-110270000D01*
X158420000Y-110270000D02*
X158575000Y-110270000D01*
X166170000Y-110500000D02*
X166400000Y-110270000D01*
X159900000Y-110995000D02*
X160395000Y-110500000D01*
X159300000Y-110995000D02*
X159900000Y-110995000D01*
X159300000Y-110995000D02*
X159900000Y-110995000D01*
X165816800Y-110500000D02*
X166170000Y-110500000D01*
X158420000Y-110270000D02*
X158575000Y-110270000D01*
X159300000Y-110995000D02*
X159900000Y-110995000D01*
X160395000Y-110500000D02*
X165816800Y-110500000D01*
X158575000Y-110270000D02*
X159300000Y-110995000D01*
X158225000Y-110270000D02*
X158420000Y-110270000D01*
X160395000Y-110500000D02*
X165816800Y-110500000D01*
X159300000Y-110995000D02*
X159900000Y-110995000D01*
X158225000Y-110270000D02*
X158420000Y-110270000D01*
X165816800Y-110500000D02*
X166170000Y-110500000D01*
X165816800Y-110500000D02*
X166170000Y-110500000D01*
X158420000Y-110270000D02*
X158575000Y-110270000D01*
X158575000Y-110270000D02*
X159300000Y-110995000D01*
X159300000Y-110995000D02*
X159900000Y-110995000D01*
X160395000Y-110500000D02*
X165816800Y-110500000D01*
X159900000Y-110995000D02*
X160395000Y-110500000D01*
X158575000Y-110270000D02*
X159300000Y-110995000D01*
X158225000Y-110270000D02*
X158420000Y-110270000D01*
X160395000Y-110500000D02*
X165816800Y-110500000D01*
X160395000Y-110500000D02*
X165816800Y-110500000D01*
X165816800Y-110500000D02*
X166170000Y-110500000D01*
X158420000Y-128050000D02*
X158575000Y-128050000D01*
X159300000Y-128775000D02*
X159900000Y-128775000D01*
X159900000Y-128775000D02*
X160395000Y-128280000D01*
X165816600Y-128280000D02*
X166170000Y-128280000D01*
X158225000Y-128050000D02*
X158420000Y-128050000D01*
X158420000Y-128050000D02*
X158575000Y-128050000D01*
X158225000Y-128050000D02*
X158420000Y-128050000D01*
X159300000Y-128775000D02*
X159900000Y-128775000D01*
X165816600Y-128280000D02*
X166170000Y-128280000D01*
X165816600Y-128280000D02*
X166170000Y-128280000D01*
X158420000Y-128050000D02*
X158575000Y-128050000D01*
X158225000Y-128050000D02*
X158420000Y-128050000D01*
X158575000Y-128050000D02*
X159300000Y-128775000D01*
X158420000Y-128050000D02*
X158575000Y-128050000D01*
X158575000Y-128050000D02*
X159300000Y-128775000D01*
X158420000Y-128050000D02*
X158575000Y-128050000D01*
X159900000Y-128775000D02*
X160395000Y-128280000D01*
X159300000Y-128775000D02*
X159900000Y-128775000D01*
X158575000Y-128050000D02*
X159300000Y-128775000D01*
X160395000Y-128280000D02*
X165816600Y-128280000D01*
X158420000Y-128050000D02*
X158575000Y-128050000D01*
X158225000Y-128050000D02*
X158420000Y-128050000D01*
X158225000Y-128050000D02*
X158420000Y-128050000D01*
X158225000Y-128050000D02*
X158420000Y-128050000D01*
X159900000Y-128775000D02*
X160395000Y-128280000D01*
X159300000Y-128775000D02*
X159900000Y-128775000D01*
X160395000Y-128280000D02*
X165816600Y-128280000D01*
X165816600Y-128280000D02*
X166170000Y-128280000D01*
X158575000Y-128050000D02*
X159300000Y-128775000D01*
X165816600Y-128280000D02*
X166170000Y-128280000D01*
X158575000Y-128050000D02*
X159300000Y-128775000D01*
X160395000Y-128280000D02*
X165816600Y-128280000D01*
X158225000Y-128050000D02*
X158420000Y-128050000D01*
X158575000Y-128050000D02*
X159300000Y-128775000D01*
X160395000Y-128280000D02*
X165816600Y-128280000D01*
X159900000Y-128775000D02*
X160395000Y-128280000D01*
X159300000Y-128775000D02*
X159900000Y-128775000D01*
X160395000Y-128280000D02*
X165816600Y-128280000D01*
X158575000Y-128050000D02*
X159300000Y-128775000D01*
X160395000Y-128280000D02*
X165816600Y-128280000D01*
X159300000Y-128775000D02*
X159900000Y-128775000D01*
X158420000Y-128050000D02*
X158575000Y-128050000D01*
X159900000Y-128775000D02*
X160395000Y-128280000D01*
X160395000Y-128280000D02*
X165816600Y-128280000D01*
X166170000Y-128280000D02*
X166400000Y-128050000D01*
X159900000Y-128775000D02*
X160395000Y-128280000D01*
X159300000Y-128775000D02*
X159900000Y-128775000D01*
X165816600Y-128280000D02*
X166170000Y-128280000D01*
X159900000Y-128775000D02*
X160395000Y-128280000D01*
X165816600Y-128280000D02*
X166170000Y-128280000D01*
X158575000Y-130590000D02*
X159300000Y-131315000D01*
X159900000Y-131315000D02*
X160395000Y-130820000D01*
X165816600Y-130820000D02*
X166170000Y-130820000D01*
X160395000Y-130820000D02*
X165816600Y-130820000D01*
X165816600Y-130820000D02*
X166170000Y-130820000D01*
X158225000Y-130590000D02*
X158420000Y-130590000D01*
X160395000Y-130820000D02*
X165816600Y-130820000D01*
X159300000Y-131315000D02*
X159900000Y-131315000D01*
X158225000Y-130590000D02*
X158420000Y-130590000D01*
X160395000Y-130820000D02*
X165816600Y-130820000D01*
X159300000Y-131315000D02*
X159900000Y-131315000D01*
X165816600Y-130820000D02*
X166170000Y-130820000D01*
X159300000Y-131315000D02*
X159900000Y-131315000D01*
X160395000Y-130820000D02*
X165816600Y-130820000D01*
X158420000Y-130590000D02*
X158575000Y-130590000D01*
X158225000Y-130590000D02*
X158420000Y-130590000D01*
X158575000Y-130590000D02*
X159300000Y-131315000D01*
X165816600Y-130820000D02*
X166170000Y-130820000D01*
X160395000Y-130820000D02*
X165816600Y-130820000D01*
X159900000Y-131315000D02*
X160395000Y-130820000D01*
X160395000Y-130820000D02*
X165816600Y-130820000D01*
X158575000Y-130590000D02*
X159300000Y-131315000D01*
X160395000Y-130820000D02*
X165816600Y-130820000D01*
X158575000Y-130590000D02*
X159300000Y-131315000D01*
X158420000Y-130590000D02*
X158575000Y-130590000D01*
X159900000Y-131315000D02*
X160395000Y-130820000D01*
X159900000Y-131315000D02*
X160395000Y-130820000D01*
X158420000Y-130590000D02*
X158575000Y-130590000D01*
X158575000Y-130590000D02*
X159300000Y-131315000D01*
X158420000Y-130590000D02*
X158575000Y-130590000D01*
X159900000Y-131315000D02*
X160395000Y-130820000D01*
X159300000Y-131315000D02*
X159900000Y-131315000D01*
X165816600Y-130820000D02*
X166170000Y-130820000D01*
X165816600Y-130820000D02*
X166170000Y-130820000D01*
X158575000Y-130590000D02*
X159300000Y-131315000D01*
X158225000Y-130590000D02*
X158420000Y-130590000D01*
X159900000Y-131315000D02*
X160395000Y-130820000D01*
X159900000Y-131315000D02*
X160395000Y-130820000D01*
X158575000Y-130590000D02*
X159300000Y-131315000D01*
X165816600Y-130820000D02*
X166170000Y-130820000D01*
X158420000Y-130590000D02*
X158575000Y-130590000D01*
X158225000Y-130590000D02*
X158420000Y-130590000D01*
X159300000Y-131315000D02*
X159900000Y-131315000D01*
X158420000Y-130590000D02*
X158575000Y-130590000D01*
X158225000Y-130590000D02*
X158420000Y-130590000D01*
X158225000Y-130590000D02*
X158420000Y-130590000D01*
X158420000Y-130590000D02*
X158575000Y-130590000D01*
X166170000Y-130820000D02*
X166400000Y-130590000D01*
X159300000Y-131315000D02*
X159900000Y-131315000D01*
X159300000Y-131315000D02*
X159900000Y-131315000D01*
X165595000Y-102430000D02*
X160173400Y-102430000D01*
X166100000Y-101925000D02*
X165595000Y-102430000D01*
X166100000Y-101925000D02*
X165595000Y-102430000D01*
X165595000Y-102430000D02*
X160173400Y-102430000D01*
X167580000Y-102650000D02*
X167425000Y-102650000D01*
X160173400Y-102430000D02*
X159820000Y-102430000D01*
X167775000Y-102650000D02*
X167580000Y-102650000D01*
X160173400Y-102430000D02*
X159820000Y-102430000D01*
X167425000Y-102650000D02*
X166700000Y-101925000D01*
X166100000Y-101925000D02*
X165595000Y-102430000D01*
X167580000Y-102650000D02*
X167425000Y-102650000D01*
X166700000Y-101925000D02*
X166100000Y-101925000D01*
X167580000Y-102650000D02*
X167425000Y-102650000D01*
X167775000Y-102650000D02*
X167580000Y-102650000D01*
X167425000Y-102650000D02*
X166700000Y-101925000D01*
X165595000Y-102430000D02*
X160173400Y-102430000D01*
X166700000Y-101925000D02*
X166100000Y-101925000D01*
X166100000Y-101925000D02*
X165595000Y-102430000D01*
X167580000Y-102650000D02*
X167425000Y-102650000D01*
X166700000Y-101925000D02*
X166100000Y-101925000D01*
X166100000Y-101925000D02*
X165595000Y-102430000D01*
X160173400Y-102430000D02*
X159820000Y-102430000D01*
X167425000Y-102650000D02*
X166700000Y-101925000D01*
X167425000Y-102650000D02*
X166700000Y-101925000D01*
X167775000Y-102650000D02*
X167580000Y-102650000D01*
X166700000Y-101925000D02*
X166100000Y-101925000D01*
X166100000Y-101925000D02*
X165595000Y-102430000D01*
X166700000Y-101925000D02*
X166100000Y-101925000D01*
X165595000Y-102430000D02*
X160173400Y-102430000D01*
X167775000Y-102650000D02*
X167580000Y-102650000D01*
X167580000Y-102650000D02*
X167425000Y-102650000D01*
X166100000Y-101925000D02*
X165595000Y-102430000D01*
X160173400Y-102430000D02*
X159820000Y-102430000D01*
X160173400Y-102430000D02*
X159820000Y-102430000D01*
X160173400Y-102430000D02*
X159820000Y-102430000D01*
X159820000Y-102430000D02*
X159600000Y-102650000D01*
X166700000Y-101925000D02*
X166100000Y-101925000D01*
X165595000Y-102430000D02*
X160173400Y-102430000D01*
X167775000Y-102650000D02*
X167580000Y-102650000D01*
X160173400Y-102430000D02*
X159820000Y-102430000D01*
X166700000Y-101925000D02*
X166100000Y-101925000D01*
X167775000Y-102650000D02*
X167580000Y-102650000D01*
X165595000Y-102430000D02*
X160173400Y-102430000D01*
X167580000Y-102650000D02*
X167425000Y-102650000D01*
X165595000Y-102430000D02*
X160173400Y-102430000D01*
X167425000Y-102650000D02*
X166700000Y-101925000D01*
X167425000Y-102650000D02*
X166700000Y-101925000D01*
X167425000Y-102650000D02*
X166700000Y-101925000D01*
X167580000Y-102650000D02*
X167425000Y-102650000D01*
X167775000Y-102650000D02*
X167580000Y-102650000D01*
X167775000Y-105190000D02*
X167580000Y-105190000D01*
X165595000Y-104970000D02*
X160173400Y-104970000D01*
X160173400Y-104970000D02*
X159820000Y-104970000D01*
X165595000Y-104970000D02*
X160173400Y-104970000D01*
X166700000Y-104465000D02*
X166100000Y-104465000D01*
X167425000Y-105190000D02*
X166700000Y-104465000D01*
X160173400Y-104970000D02*
X159820000Y-104970000D01*
X166700000Y-104465000D02*
X166100000Y-104465000D01*
X167425000Y-105190000D02*
X166700000Y-104465000D01*
X167775000Y-105190000D02*
X167580000Y-105190000D01*
X160173400Y-104970000D02*
X159820000Y-104970000D01*
X166700000Y-104465000D02*
X166100000Y-104465000D01*
X166700000Y-104465000D02*
X166100000Y-104465000D01*
X166100000Y-104465000D02*
X165595000Y-104970000D01*
X165595000Y-104970000D02*
X160173400Y-104970000D01*
X166700000Y-104465000D02*
X166100000Y-104465000D01*
X167580000Y-105190000D02*
X167425000Y-105190000D01*
X167580000Y-105190000D02*
X167425000Y-105190000D01*
X160173400Y-104970000D02*
X159820000Y-104970000D01*
X166700000Y-104465000D02*
X166100000Y-104465000D01*
X159820000Y-104970000D02*
X159600000Y-105190000D01*
X167425000Y-105190000D02*
X166700000Y-104465000D01*
X167425000Y-105190000D02*
X166700000Y-104465000D01*
X167580000Y-105190000D02*
X167425000Y-105190000D01*
X166100000Y-104465000D02*
X165595000Y-104970000D01*
X167775000Y-105190000D02*
X167580000Y-105190000D01*
X165595000Y-104970000D02*
X160173400Y-104970000D01*
X166100000Y-104465000D02*
X165595000Y-104970000D01*
X167580000Y-105190000D02*
X167425000Y-105190000D01*
X167580000Y-105190000D02*
X167425000Y-105190000D01*
X167425000Y-105190000D02*
X166700000Y-104465000D01*
X166100000Y-104465000D02*
X165595000Y-104970000D01*
X166100000Y-104465000D02*
X165595000Y-104970000D01*
X165595000Y-104970000D02*
X160173400Y-104970000D01*
X167580000Y-105190000D02*
X167425000Y-105190000D01*
X165595000Y-104970000D02*
X160173400Y-104970000D01*
X167775000Y-105190000D02*
X167580000Y-105190000D01*
X167775000Y-105190000D02*
X167580000Y-105190000D01*
X166100000Y-104465000D02*
X165595000Y-104970000D01*
X160173400Y-104970000D02*
X159820000Y-104970000D01*
X167425000Y-105190000D02*
X166700000Y-104465000D01*
X167775000Y-105190000D02*
X167580000Y-105190000D01*
X160173400Y-104970000D02*
X159820000Y-104970000D01*
X167580000Y-105190000D02*
X167425000Y-105190000D01*
X167425000Y-105190000D02*
X166700000Y-104465000D01*
X166100000Y-104465000D02*
X165595000Y-104970000D01*
X160173400Y-104970000D02*
X159820000Y-104970000D01*
X166700000Y-104465000D02*
X166100000Y-104465000D01*
X167775000Y-105190000D02*
X167580000Y-105190000D01*
X165595000Y-104970000D02*
X160173400Y-104970000D01*
X166100000Y-112085000D02*
X165595000Y-112590000D01*
X167580000Y-112810000D02*
X167425000Y-112810000D01*
X165595000Y-112590000D02*
X160173400Y-112590000D01*
X167775000Y-112810000D02*
X167580000Y-112810000D01*
X167775000Y-112810000D02*
X167580000Y-112810000D01*
X167425000Y-112810000D02*
X166700000Y-112085000D01*
X166100000Y-112085000D02*
X165595000Y-112590000D01*
X166700000Y-112085000D02*
X166100000Y-112085000D01*
X167425000Y-112810000D02*
X166700000Y-112085000D01*
X167580000Y-112810000D02*
X167425000Y-112810000D01*
X160173400Y-112590000D02*
X159820000Y-112590000D01*
X167580000Y-112810000D02*
X167425000Y-112810000D01*
X167425000Y-112810000D02*
X166700000Y-112085000D01*
X167425000Y-112810000D02*
X166700000Y-112085000D01*
X165595000Y-112590000D02*
X160173400Y-112590000D01*
X166700000Y-112085000D02*
X166100000Y-112085000D01*
X159820000Y-112590000D02*
X159600000Y-112810000D01*
X166700000Y-112085000D02*
X166100000Y-112085000D01*
X166100000Y-112085000D02*
X165595000Y-112590000D01*
X166700000Y-112085000D02*
X166100000Y-112085000D01*
X167775000Y-112810000D02*
X167580000Y-112810000D01*
X167775000Y-112810000D02*
X167580000Y-112810000D01*
X167425000Y-112810000D02*
X166700000Y-112085000D01*
X166700000Y-112085000D02*
X166100000Y-112085000D01*
X167775000Y-112810000D02*
X167580000Y-112810000D01*
X166100000Y-112085000D02*
X165595000Y-112590000D01*
X165595000Y-112590000D02*
X160173400Y-112590000D01*
X167425000Y-112810000D02*
X166700000Y-112085000D01*
X167775000Y-112810000D02*
X167580000Y-112810000D01*
X167580000Y-112810000D02*
X167425000Y-112810000D01*
X160173400Y-112590000D02*
X159820000Y-112590000D01*
X167580000Y-112810000D02*
X167425000Y-112810000D01*
X160173400Y-112590000D02*
X159820000Y-112590000D01*
X165595000Y-112590000D02*
X160173400Y-112590000D01*
X160173400Y-112590000D02*
X159820000Y-112590000D01*
X165595000Y-112590000D02*
X160173400Y-112590000D01*
X166700000Y-112085000D02*
X166100000Y-112085000D01*
X167425000Y-112810000D02*
X166700000Y-112085000D01*
X166700000Y-112085000D02*
X166100000Y-112085000D01*
X166100000Y-112085000D02*
X165595000Y-112590000D01*
X167580000Y-112810000D02*
X167425000Y-112810000D01*
X160173400Y-112590000D02*
X159820000Y-112590000D01*
X160173400Y-112590000D02*
X159820000Y-112590000D01*
X166100000Y-112085000D02*
X165595000Y-112590000D01*
X160173400Y-112590000D02*
X159820000Y-112590000D01*
X165595000Y-112590000D02*
X160173400Y-112590000D01*
X167775000Y-112810000D02*
X167580000Y-112810000D01*
X167580000Y-112810000D02*
X167425000Y-112810000D01*
X166100000Y-112085000D02*
X165595000Y-112590000D01*
X165595000Y-112590000D02*
X160173400Y-112590000D01*
X160173400Y-115130000D02*
X159820000Y-115130000D01*
X167425000Y-115350000D02*
X166700000Y-114625000D01*
X166100000Y-114625000D02*
X165595000Y-115130000D01*
X166100000Y-114625000D02*
X165595000Y-115130000D01*
X166100000Y-114625000D02*
X165595000Y-115130000D01*
X167425000Y-115350000D02*
X166700000Y-114625000D01*
X167775000Y-115350000D02*
X167580000Y-115350000D01*
X165595000Y-115130000D02*
X160173400Y-115130000D01*
X165595000Y-115130000D02*
X160173400Y-115130000D01*
X167425000Y-115350000D02*
X166700000Y-114625000D01*
X160173400Y-115130000D02*
X159820000Y-115130000D01*
X160173400Y-115130000D02*
X159820000Y-115130000D01*
X167425000Y-115350000D02*
X166700000Y-114625000D01*
X167775000Y-115350000D02*
X167580000Y-115350000D01*
X166700000Y-114625000D02*
X166100000Y-114625000D01*
X167580000Y-115350000D02*
X167425000Y-115350000D01*
X160173400Y-115130000D02*
X159820000Y-115130000D01*
X167580000Y-115350000D02*
X167425000Y-115350000D01*
X167580000Y-115350000D02*
X167425000Y-115350000D01*
X167775000Y-115350000D02*
X167580000Y-115350000D01*
X166700000Y-114625000D02*
X166100000Y-114625000D01*
X167580000Y-115350000D02*
X167425000Y-115350000D01*
X166700000Y-114625000D02*
X166100000Y-114625000D01*
X165595000Y-115130000D02*
X160173400Y-115130000D01*
X160173400Y-115130000D02*
X159820000Y-115130000D01*
X165595000Y-115130000D02*
X160173400Y-115130000D01*
X167775000Y-115350000D02*
X167580000Y-115350000D01*
X165595000Y-115130000D02*
X160173400Y-115130000D01*
X166100000Y-114625000D02*
X165595000Y-115130000D01*
X167580000Y-115350000D02*
X167425000Y-115350000D01*
X167425000Y-115350000D02*
X166700000Y-114625000D01*
X167580000Y-115350000D02*
X167425000Y-115350000D01*
X167775000Y-115350000D02*
X167580000Y-115350000D01*
X167775000Y-115350000D02*
X167580000Y-115350000D01*
X166100000Y-114625000D02*
X165595000Y-115130000D01*
X167425000Y-115350000D02*
X166700000Y-114625000D01*
X166700000Y-114625000D02*
X166100000Y-114625000D01*
X165595000Y-115130000D02*
X160173400Y-115130000D01*
X160173400Y-115130000D02*
X159820000Y-115130000D01*
X166700000Y-114625000D02*
X166100000Y-114625000D01*
X167425000Y-115350000D02*
X166700000Y-114625000D01*
X166100000Y-114625000D02*
X165595000Y-115130000D01*
X166100000Y-114625000D02*
X165595000Y-115130000D01*
X166700000Y-114625000D02*
X166100000Y-114625000D01*
X167580000Y-115350000D02*
X167425000Y-115350000D01*
X160173400Y-115130000D02*
X159820000Y-115130000D01*
X159820000Y-115130000D02*
X159600000Y-115350000D01*
X167775000Y-115350000D02*
X167580000Y-115350000D01*
X165595000Y-115130000D02*
X160173400Y-115130000D01*
X166700000Y-114625000D02*
X166100000Y-114625000D01*
X166100000Y-117165000D02*
X165595000Y-117670000D01*
X167775000Y-117890000D02*
X167580000Y-117890000D01*
X167775000Y-117890000D02*
X167580000Y-117890000D01*
X166700000Y-117165000D02*
X166100000Y-117165000D01*
X166100000Y-117165000D02*
X165595000Y-117670000D01*
X167580000Y-117890000D02*
X167425000Y-117890000D01*
X167775000Y-117890000D02*
X167580000Y-117890000D01*
X165595000Y-117670000D02*
X160173400Y-117670000D01*
X165595000Y-117670000D02*
X160173400Y-117670000D01*
X167425000Y-117890000D02*
X166700000Y-117165000D01*
X166100000Y-117165000D02*
X165595000Y-117670000D01*
X165595000Y-117670000D02*
X160173400Y-117670000D01*
X167775000Y-117890000D02*
X167580000Y-117890000D01*
X167425000Y-117890000D02*
X166700000Y-117165000D01*
X167425000Y-117890000D02*
X166700000Y-117165000D01*
X166100000Y-117165000D02*
X165595000Y-117670000D01*
X167580000Y-117890000D02*
X167425000Y-117890000D01*
X165595000Y-117670000D02*
X160173400Y-117670000D01*
X166700000Y-117165000D02*
X166100000Y-117165000D01*
X160173400Y-117670000D02*
X159820000Y-117670000D01*
X166700000Y-117165000D02*
X166100000Y-117165000D01*
X166700000Y-117165000D02*
X166100000Y-117165000D01*
X160173400Y-117670000D02*
X159820000Y-117670000D01*
X166100000Y-117165000D02*
X165595000Y-117670000D01*
X160173400Y-117670000D02*
X159820000Y-117670000D01*
X167580000Y-117890000D02*
X167425000Y-117890000D01*
X167775000Y-117890000D02*
X167580000Y-117890000D01*
X167580000Y-117890000D02*
X167425000Y-117890000D01*
X166100000Y-117165000D02*
X165595000Y-117670000D01*
X167425000Y-117890000D02*
X166700000Y-117165000D01*
X167580000Y-117890000D02*
X167425000Y-117890000D01*
X166700000Y-117165000D02*
X166100000Y-117165000D01*
X160173400Y-117670000D02*
X159820000Y-117670000D01*
X166700000Y-117165000D02*
X166100000Y-117165000D01*
X159820000Y-117670000D02*
X159600000Y-117890000D01*
X167425000Y-117890000D02*
X166700000Y-117165000D01*
X165595000Y-117670000D02*
X160173400Y-117670000D01*
X160173400Y-117670000D02*
X159820000Y-117670000D01*
X166700000Y-117165000D02*
X166100000Y-117165000D01*
X165595000Y-117670000D02*
X160173400Y-117670000D01*
X167580000Y-117890000D02*
X167425000Y-117890000D01*
X165595000Y-117670000D02*
X160173400Y-117670000D01*
X167775000Y-117890000D02*
X167580000Y-117890000D01*
X167425000Y-117890000D02*
X166700000Y-117165000D01*
X167775000Y-117890000D02*
X167580000Y-117890000D01*
X167580000Y-117890000D02*
X167425000Y-117890000D01*
X167425000Y-117890000D02*
X166700000Y-117165000D01*
X166100000Y-117165000D02*
X165595000Y-117670000D01*
X160173400Y-117670000D02*
X159820000Y-117670000D01*
X160173400Y-117670000D02*
X159820000Y-117670000D01*
X156440000Y-102650000D02*
X157500000Y-102650000D01*
X155380000Y-102650000D02*
X156440000Y-102650000D01*
X156440000Y-102650000D02*
X157500000Y-102650000D01*
X156440000Y-102650000D02*
X157500000Y-102650000D01*
X156440000Y-102650000D02*
X157500000Y-102650000D01*
X155380000Y-102650000D02*
X156440000Y-102650000D01*
X155380000Y-102650000D02*
X156440000Y-102650000D01*
X157500000Y-102650000D02*
X157520000Y-102650000D01*
X155380000Y-102650000D02*
X156440000Y-102650000D01*
X155380000Y-102650000D02*
X156440000Y-102650000D01*
X156440000Y-102650000D02*
X157500000Y-102650000D01*
X155380000Y-102650000D02*
X156440000Y-102650000D01*
X156440000Y-102650000D02*
X157500000Y-102650000D01*
X155380000Y-102650000D02*
X156440000Y-102650000D01*
X156440000Y-102650000D02*
X157500000Y-102650000D01*
X170620000Y-102650000D02*
X169560000Y-102650000D01*
X169560000Y-102650000D02*
X168500000Y-102650000D01*
X170620000Y-102650000D02*
X169560000Y-102650000D01*
X169560000Y-102650000D02*
X168500000Y-102650000D01*
X169560000Y-102650000D02*
X168500000Y-102650000D01*
X170620000Y-102650000D02*
X169560000Y-102650000D01*
X169560000Y-102650000D02*
X168500000Y-102650000D01*
X170620000Y-102650000D02*
X169560000Y-102650000D01*
X169560000Y-102650000D02*
X168500000Y-102650000D01*
X170620000Y-102650000D02*
X169560000Y-102650000D01*
X170620000Y-102650000D02*
X169560000Y-102650000D01*
X169560000Y-102650000D02*
X168500000Y-102650000D01*
X169560000Y-102650000D02*
X168500000Y-102650000D01*
X168500000Y-102650000D02*
X168480000Y-102650000D01*
X170620000Y-102650000D02*
X169560000Y-102650000D01*
X156440000Y-105190000D02*
X157500000Y-105190000D01*
X156440000Y-105190000D02*
X157500000Y-105190000D01*
X155380000Y-105190000D02*
X156440000Y-105190000D01*
X155380000Y-105190000D02*
X156440000Y-105190000D01*
X156440000Y-105190000D02*
X157500000Y-105190000D01*
X156440000Y-105190000D02*
X157500000Y-105190000D01*
X156440000Y-105190000D02*
X157500000Y-105190000D01*
X156440000Y-105190000D02*
X157500000Y-105190000D01*
X155380000Y-105190000D02*
X156440000Y-105190000D01*
X155380000Y-105190000D02*
X156440000Y-105190000D01*
X157500000Y-105190000D02*
X157520000Y-105190000D01*
X155380000Y-105190000D02*
X156440000Y-105190000D01*
X155380000Y-105190000D02*
X156440000Y-105190000D01*
X156440000Y-105190000D02*
X157500000Y-105190000D01*
X155380000Y-105190000D02*
X156440000Y-105190000D01*
X170620000Y-105190000D02*
X169560000Y-105190000D01*
X170620000Y-105190000D02*
X169560000Y-105190000D01*
X170620000Y-105190000D02*
X169560000Y-105190000D01*
X169560000Y-105190000D02*
X168500000Y-105190000D01*
X169560000Y-105190000D02*
X168500000Y-105190000D01*
X169560000Y-105190000D02*
X168500000Y-105190000D01*
X169560000Y-105190000D02*
X168500000Y-105190000D01*
X169560000Y-105190000D02*
X168500000Y-105190000D01*
X170620000Y-105190000D02*
X169560000Y-105190000D01*
X169560000Y-105190000D02*
X168500000Y-105190000D01*
X170620000Y-105190000D02*
X169560000Y-105190000D01*
X170620000Y-105190000D02*
X169560000Y-105190000D01*
X169560000Y-105190000D02*
X168500000Y-105190000D01*
X170620000Y-105190000D02*
X169560000Y-105190000D01*
X168500000Y-105190000D02*
X168480000Y-105190000D01*
X155380000Y-107730000D02*
X156440000Y-107730000D01*
X155380000Y-107730000D02*
X156440000Y-107730000D01*
X156440000Y-107730000D02*
X157500000Y-107730000D01*
X155380000Y-107730000D02*
X156440000Y-107730000D01*
X155380000Y-107730000D02*
X156440000Y-107730000D01*
X156440000Y-107730000D02*
X157500000Y-107730000D01*
X156440000Y-107730000D02*
X157500000Y-107730000D01*
X155380000Y-107730000D02*
X156440000Y-107730000D01*
X156440000Y-107730000D02*
X157500000Y-107730000D01*
X155380000Y-107730000D02*
X156440000Y-107730000D01*
X156440000Y-107730000D02*
X157500000Y-107730000D01*
X157500000Y-107730000D02*
X157520000Y-107730000D01*
X155380000Y-107730000D02*
X156440000Y-107730000D01*
X156440000Y-107730000D02*
X157500000Y-107730000D01*
X156440000Y-107730000D02*
X157500000Y-107730000D01*
X169560000Y-107730000D02*
X168500000Y-107730000D01*
X170620000Y-107730000D02*
X169560000Y-107730000D01*
X170620000Y-107730000D02*
X169560000Y-107730000D01*
X169560000Y-107730000D02*
X168500000Y-107730000D01*
X169560000Y-107730000D02*
X168500000Y-107730000D01*
X169560000Y-107730000D02*
X168500000Y-107730000D01*
X170620000Y-107730000D02*
X169560000Y-107730000D01*
X170620000Y-107730000D02*
X169560000Y-107730000D01*
X169560000Y-107730000D02*
X168500000Y-107730000D01*
X169560000Y-107730000D02*
X168500000Y-107730000D01*
X168500000Y-107730000D02*
X168480000Y-107730000D01*
X169560000Y-107730000D02*
X168500000Y-107730000D01*
X170620000Y-107730000D02*
X169560000Y-107730000D01*
X170620000Y-107730000D02*
X169560000Y-107730000D01*
X170620000Y-107730000D02*
X169560000Y-107730000D01*
X155380000Y-110270000D02*
X156440000Y-110270000D01*
X156440000Y-110270000D02*
X157500000Y-110270000D01*
X155380000Y-110270000D02*
X156440000Y-110270000D01*
X155380000Y-110270000D02*
X156440000Y-110270000D01*
X155380000Y-110270000D02*
X156440000Y-110270000D01*
X156440000Y-110270000D02*
X157500000Y-110270000D01*
X156440000Y-110270000D02*
X157500000Y-110270000D01*
X155380000Y-110270000D02*
X156440000Y-110270000D01*
X156440000Y-110270000D02*
X157500000Y-110270000D01*
X156440000Y-110270000D02*
X157500000Y-110270000D01*
X155380000Y-110270000D02*
X156440000Y-110270000D01*
X155380000Y-110270000D02*
X156440000Y-110270000D01*
X156440000Y-110270000D02*
X157500000Y-110270000D01*
X156440000Y-110270000D02*
X157500000Y-110270000D01*
X157500000Y-110270000D02*
X157520000Y-110270000D01*
X170620000Y-110270000D02*
X169560000Y-110270000D01*
X169560000Y-110270000D02*
X168500000Y-110270000D01*
X169560000Y-110270000D02*
X168500000Y-110270000D01*
X170620000Y-110270000D02*
X169560000Y-110270000D01*
X169560000Y-110270000D02*
X168500000Y-110270000D01*
X169560000Y-110270000D02*
X168500000Y-110270000D01*
X168500000Y-110270000D02*
X168480000Y-110270000D01*
X170620000Y-110270000D02*
X169560000Y-110270000D01*
X170620000Y-110270000D02*
X169560000Y-110270000D01*
X170620000Y-110270000D02*
X169560000Y-110270000D01*
X169560000Y-110270000D02*
X168500000Y-110270000D01*
X169560000Y-110270000D02*
X168500000Y-110270000D01*
X170620000Y-110270000D02*
X169560000Y-110270000D01*
X170620000Y-110270000D02*
X169560000Y-110270000D01*
X169560000Y-110270000D02*
X168500000Y-110270000D01*
X156440000Y-112810000D02*
X157500000Y-112810000D01*
X156440000Y-112810000D02*
X157500000Y-112810000D01*
X155380000Y-112810000D02*
X156440000Y-112810000D01*
X156440000Y-112810000D02*
X157500000Y-112810000D01*
X155380000Y-112810000D02*
X156440000Y-112810000D01*
X156440000Y-112810000D02*
X157500000Y-112810000D01*
X155380000Y-112810000D02*
X156440000Y-112810000D01*
X155380000Y-112810000D02*
X156440000Y-112810000D01*
X156440000Y-112810000D02*
X157500000Y-112810000D01*
X155380000Y-112810000D02*
X156440000Y-112810000D01*
X156440000Y-112810000D02*
X157500000Y-112810000D01*
X155380000Y-112810000D02*
X156440000Y-112810000D01*
X157500000Y-112810000D02*
X157520000Y-112810000D01*
X156440000Y-112810000D02*
X157500000Y-112810000D01*
X155380000Y-112810000D02*
X156440000Y-112810000D01*
X169560000Y-112810000D02*
X168500000Y-112810000D01*
X170620000Y-112810000D02*
X169560000Y-112810000D01*
X169560000Y-112810000D02*
X168500000Y-112810000D01*
X169560000Y-112810000D02*
X168500000Y-112810000D01*
X170620000Y-112810000D02*
X169560000Y-112810000D01*
X170620000Y-112810000D02*
X169560000Y-112810000D01*
X170620000Y-112810000D02*
X169560000Y-112810000D01*
X170620000Y-112810000D02*
X169560000Y-112810000D01*
X170620000Y-112810000D02*
X169560000Y-112810000D01*
X170620000Y-112810000D02*
X169560000Y-112810000D01*
X169560000Y-112810000D02*
X168500000Y-112810000D01*
X169560000Y-112810000D02*
X168500000Y-112810000D01*
X168500000Y-112810000D02*
X168480000Y-112810000D01*
X169560000Y-112810000D02*
X168500000Y-112810000D01*
X169560000Y-112810000D02*
X168500000Y-112810000D01*
X155380000Y-115350000D02*
X156440000Y-115350000D01*
X156440000Y-115350000D02*
X157500000Y-115350000D01*
X156440000Y-115350000D02*
X157500000Y-115350000D01*
X155380000Y-115350000D02*
X156440000Y-115350000D01*
X156440000Y-115350000D02*
X157500000Y-115350000D01*
X156440000Y-115350000D02*
X157500000Y-115350000D01*
X155380000Y-115350000D02*
X156440000Y-115350000D01*
X155380000Y-115350000D02*
X156440000Y-115350000D01*
X155380000Y-115350000D02*
X156440000Y-115350000D01*
X155380000Y-115350000D02*
X156440000Y-115350000D01*
X156440000Y-115350000D02*
X157500000Y-115350000D01*
X156440000Y-115350000D02*
X157500000Y-115350000D01*
X156440000Y-115350000D02*
X157500000Y-115350000D01*
X157500000Y-115350000D02*
X157520000Y-115350000D01*
X155380000Y-115350000D02*
X156440000Y-115350000D01*
X170620000Y-115350000D02*
X169560000Y-115350000D01*
X170620000Y-115350000D02*
X169560000Y-115350000D01*
X170620000Y-115350000D02*
X169560000Y-115350000D01*
X170620000Y-115350000D02*
X169560000Y-115350000D01*
X169560000Y-115350000D02*
X168500000Y-115350000D01*
X169560000Y-115350000D02*
X168500000Y-115350000D01*
X170620000Y-115350000D02*
X169560000Y-115350000D01*
X169560000Y-115350000D02*
X168500000Y-115350000D01*
X170620000Y-115350000D02*
X169560000Y-115350000D01*
X169560000Y-115350000D02*
X168500000Y-115350000D01*
X168500000Y-115350000D02*
X168480000Y-115350000D01*
X169560000Y-115350000D02*
X168500000Y-115350000D01*
X170620000Y-115350000D02*
X169560000Y-115350000D01*
X169560000Y-115350000D02*
X168500000Y-115350000D01*
X169560000Y-115350000D02*
X168500000Y-115350000D01*
X155380000Y-117890000D02*
X156440000Y-117890000D01*
X156440000Y-117890000D02*
X157500000Y-117890000D01*
X156440000Y-117890000D02*
X157500000Y-117890000D01*
X156440000Y-117890000D02*
X157500000Y-117890000D01*
X155380000Y-117890000D02*
X156440000Y-117890000D01*
X155380000Y-117890000D02*
X156440000Y-117890000D01*
X157500000Y-117890000D02*
X157520000Y-117890000D01*
X156440000Y-117890000D02*
X157500000Y-117890000D01*
X156440000Y-117890000D02*
X157500000Y-117890000D01*
X155380000Y-117890000D02*
X156440000Y-117890000D01*
X155380000Y-117890000D02*
X156440000Y-117890000D01*
X155380000Y-117890000D02*
X156440000Y-117890000D01*
X155380000Y-117890000D02*
X156440000Y-117890000D01*
X156440000Y-117890000D02*
X157500000Y-117890000D01*
X156440000Y-117890000D02*
X157500000Y-117890000D01*
X170620000Y-117890000D02*
X169560000Y-117890000D01*
X169560000Y-117890000D02*
X168500000Y-117890000D01*
X169560000Y-117890000D02*
X168500000Y-117890000D01*
X170620000Y-117890000D02*
X169560000Y-117890000D01*
X169560000Y-117890000D02*
X168500000Y-117890000D01*
X168500000Y-117890000D02*
X168480000Y-117890000D01*
X170620000Y-117890000D02*
X169560000Y-117890000D01*
X170620000Y-117890000D02*
X169560000Y-117890000D01*
X169560000Y-117890000D02*
X168500000Y-117890000D01*
X169560000Y-117890000D02*
X168500000Y-117890000D01*
X169560000Y-117890000D02*
X168500000Y-117890000D01*
X170620000Y-117890000D02*
X169560000Y-117890000D01*
X169560000Y-117890000D02*
X168500000Y-117890000D01*
X170620000Y-117890000D02*
X169560000Y-117890000D01*
X170620000Y-117890000D02*
X169560000Y-117890000D01*
X155380000Y-120430000D02*
X156440000Y-120430000D01*
X156440000Y-120430000D02*
X157500000Y-120430000D01*
X155380000Y-120430000D02*
X156440000Y-120430000D01*
X155380000Y-120430000D02*
X156440000Y-120430000D01*
X155380000Y-120430000D02*
X156440000Y-120430000D01*
X156440000Y-120430000D02*
X157500000Y-120430000D01*
X155380000Y-120430000D02*
X156440000Y-120430000D01*
X156440000Y-120430000D02*
X157500000Y-120430000D01*
X156440000Y-120430000D02*
X157500000Y-120430000D01*
X155380000Y-120430000D02*
X156440000Y-120430000D01*
X155380000Y-120430000D02*
X156440000Y-120430000D01*
X156440000Y-120430000D02*
X157500000Y-120430000D01*
X156440000Y-120430000D02*
X157500000Y-120430000D01*
X157500000Y-120430000D02*
X157520000Y-120430000D01*
X156440000Y-120430000D02*
X157500000Y-120430000D01*
X169560000Y-120430000D02*
X168500000Y-120430000D01*
X169560000Y-120430000D02*
X168500000Y-120430000D01*
X170620000Y-120430000D02*
X169560000Y-120430000D01*
X170620000Y-120430000D02*
X169560000Y-120430000D01*
X169560000Y-120430000D02*
X168500000Y-120430000D01*
X170620000Y-120430000D02*
X169560000Y-120430000D01*
X169560000Y-120430000D02*
X168500000Y-120430000D01*
X169560000Y-120430000D02*
X168500000Y-120430000D01*
X168500000Y-120430000D02*
X168480000Y-120430000D01*
X170620000Y-120430000D02*
X169560000Y-120430000D01*
X170620000Y-120430000D02*
X169560000Y-120430000D01*
X170620000Y-120430000D02*
X169560000Y-120430000D01*
X169560000Y-120430000D02*
X168500000Y-120430000D01*
X169560000Y-120430000D02*
X168500000Y-120430000D01*
X170620000Y-120430000D02*
X169560000Y-120430000D01*
X156440000Y-122970000D02*
X157500000Y-122970000D01*
X156440000Y-122970000D02*
X157500000Y-122970000D01*
X155380000Y-122970000D02*
X156440000Y-122970000D01*
X155380000Y-122970000D02*
X156440000Y-122970000D01*
X156440000Y-122970000D02*
X157500000Y-122970000D01*
X155380000Y-122970000D02*
X156440000Y-122970000D01*
X156440000Y-122970000D02*
X157500000Y-122970000D01*
X155380000Y-122970000D02*
X156440000Y-122970000D01*
X156440000Y-122970000D02*
X157500000Y-122970000D01*
X155380000Y-122970000D02*
X156440000Y-122970000D01*
X155380000Y-122970000D02*
X156440000Y-122970000D01*
X156440000Y-122970000D02*
X157500000Y-122970000D01*
X157500000Y-122970000D02*
X157520000Y-122970000D01*
X156440000Y-122970000D02*
X157500000Y-122970000D01*
X155380000Y-122970000D02*
X156440000Y-122970000D01*
X170620000Y-122970000D02*
X169560000Y-122970000D01*
X169560000Y-122970000D02*
X168500000Y-122970000D01*
X170620000Y-122970000D02*
X169560000Y-122970000D01*
X170620000Y-122970000D02*
X169560000Y-122970000D01*
X169560000Y-122970000D02*
X168500000Y-122970000D01*
X169560000Y-122970000D02*
X168500000Y-122970000D01*
X168500000Y-122970000D02*
X168480000Y-122970000D01*
X169560000Y-122970000D02*
X168500000Y-122970000D01*
X170620000Y-122970000D02*
X169560000Y-122970000D01*
X169560000Y-122970000D02*
X168500000Y-122970000D01*
X169560000Y-122970000D02*
X168500000Y-122970000D01*
X170620000Y-122970000D02*
X169560000Y-122970000D01*
X169560000Y-122970000D02*
X168500000Y-122970000D01*
X170620000Y-122970000D02*
X169560000Y-122970000D01*
X170620000Y-122970000D02*
X169560000Y-122970000D01*
X156440000Y-125510000D02*
X157500000Y-125510000D01*
X157500000Y-125510000D02*
X157520000Y-125510000D01*
X155380000Y-125510000D02*
X156440000Y-125510000D01*
X156440000Y-125510000D02*
X157500000Y-125510000D01*
X155380000Y-125510000D02*
X156440000Y-125510000D01*
X155380000Y-125510000D02*
X156440000Y-125510000D01*
X156440000Y-125510000D02*
X157500000Y-125510000D01*
X155380000Y-125510000D02*
X156440000Y-125510000D01*
X155380000Y-125510000D02*
X156440000Y-125510000D01*
X155380000Y-125510000D02*
X156440000Y-125510000D01*
X156440000Y-125510000D02*
X157500000Y-125510000D01*
X155380000Y-125510000D02*
X156440000Y-125510000D01*
X156440000Y-125510000D02*
X157500000Y-125510000D01*
X156440000Y-125510000D02*
X157500000Y-125510000D01*
X156440000Y-125510000D02*
X157500000Y-125510000D01*
X169560000Y-125510000D02*
X168500000Y-125510000D01*
X170620000Y-125510000D02*
X169560000Y-125510000D01*
X169560000Y-125510000D02*
X168500000Y-125510000D01*
X170620000Y-125510000D02*
X169560000Y-125510000D01*
X170620000Y-125510000D02*
X169560000Y-125510000D01*
X170620000Y-125510000D02*
X169560000Y-125510000D01*
X169560000Y-125510000D02*
X168500000Y-125510000D01*
X170620000Y-125510000D02*
X169560000Y-125510000D01*
X170620000Y-125510000D02*
X169560000Y-125510000D01*
X169560000Y-125510000D02*
X168500000Y-125510000D01*
X169560000Y-125510000D02*
X168500000Y-125510000D01*
X169560000Y-125510000D02*
X168500000Y-125510000D01*
X169560000Y-125510000D02*
X168500000Y-125510000D01*
X170620000Y-125510000D02*
X169560000Y-125510000D01*
X168500000Y-125510000D02*
X168480000Y-125510000D01*
X155380000Y-128050000D02*
X156440000Y-128050000D01*
X155380000Y-128050000D02*
X156440000Y-128050000D01*
X155380000Y-128050000D02*
X156440000Y-128050000D01*
X156440000Y-128050000D02*
X157500000Y-128050000D01*
X156440000Y-128050000D02*
X157500000Y-128050000D01*
X155380000Y-128050000D02*
X156440000Y-128050000D01*
X156440000Y-128050000D02*
X157500000Y-128050000D01*
X157500000Y-128050000D02*
X157520000Y-128050000D01*
X156440000Y-128050000D02*
X157500000Y-128050000D01*
X156440000Y-128050000D02*
X157500000Y-128050000D01*
X156440000Y-128050000D02*
X157500000Y-128050000D01*
X155380000Y-128050000D02*
X156440000Y-128050000D01*
X156440000Y-128050000D02*
X157500000Y-128050000D01*
X155380000Y-128050000D02*
X156440000Y-128050000D01*
X155380000Y-128050000D02*
X156440000Y-128050000D01*
X170620000Y-128050000D02*
X169560000Y-128050000D01*
X170620000Y-128050000D02*
X169560000Y-128050000D01*
X169560000Y-128050000D02*
X168500000Y-128050000D01*
X169560000Y-128050000D02*
X168500000Y-128050000D01*
X170620000Y-128050000D02*
X169560000Y-128050000D01*
X170620000Y-128050000D02*
X169560000Y-128050000D01*
X169560000Y-128050000D02*
X168500000Y-128050000D01*
X169560000Y-128050000D02*
X168500000Y-128050000D01*
X169560000Y-128050000D02*
X168500000Y-128050000D01*
X170620000Y-128050000D02*
X169560000Y-128050000D01*
X169560000Y-128050000D02*
X168500000Y-128050000D01*
X168500000Y-128050000D02*
X168480000Y-128050000D01*
X169560000Y-128050000D02*
X168500000Y-128050000D01*
X170620000Y-128050000D02*
X169560000Y-128050000D01*
X170620000Y-128050000D02*
X169560000Y-128050000D01*
X156440000Y-130590000D02*
X157500000Y-130590000D01*
X156440000Y-130590000D02*
X157500000Y-130590000D01*
X157500000Y-130590000D02*
X157520000Y-130590000D01*
X156440000Y-130590000D02*
X157500000Y-130590000D01*
X156440000Y-130590000D02*
X157500000Y-130590000D01*
X155380000Y-130590000D02*
X156440000Y-130590000D01*
X155380000Y-130590000D02*
X156440000Y-130590000D01*
X155380000Y-130590000D02*
X156440000Y-130590000D01*
X155380000Y-130590000D02*
X156440000Y-130590000D01*
X156440000Y-130590000D02*
X157500000Y-130590000D01*
X155380000Y-130590000D02*
X156440000Y-130590000D01*
X155380000Y-130590000D02*
X156440000Y-130590000D01*
X156440000Y-130590000D02*
X157500000Y-130590000D01*
X155380000Y-130590000D02*
X156440000Y-130590000D01*
X156440000Y-130590000D02*
X157500000Y-130590000D01*
X170620000Y-130590000D02*
X169560000Y-130590000D01*
X169560000Y-130590000D02*
X168500000Y-130590000D01*
X169560000Y-130590000D02*
X168500000Y-130590000D01*
X170620000Y-130590000D02*
X169560000Y-130590000D01*
X169560000Y-130590000D02*
X168500000Y-130590000D01*
X170620000Y-130590000D02*
X169560000Y-130590000D01*
X169560000Y-130590000D02*
X168500000Y-130590000D01*
X169560000Y-130590000D02*
X168500000Y-130590000D01*
X170620000Y-130590000D02*
X169560000Y-130590000D01*
X170620000Y-130590000D02*
X169560000Y-130590000D01*
X168500000Y-130590000D02*
X168480000Y-130590000D01*
X169560000Y-130590000D02*
X168500000Y-130590000D01*
X169560000Y-130590000D02*
X168500000Y-130590000D01*
X170620000Y-130590000D02*
X169560000Y-130590000D01*
X170620000Y-130590000D02*
X169560000Y-130590000D01*
X159000000Y-139957100D02*
X160228550Y-138728550D01*
X166250000Y-138100000D02*
X168265000Y-138100000D01*
X159000000Y-141500000D02*
X159000000Y-139957100D01*
X166250000Y-138100000D02*
X160857100Y-138100000D01*
X157000000Y-142534000D02*
X157000000Y-141957100D01*
X160857100Y-138100000D02*
X160228550Y-138728550D01*
X157000000Y-141957100D02*
X160228550Y-138728550D01*
X159000000Y-143550000D02*
X159000000Y-145350000D01*
X159000000Y-143550000D02*
X159000000Y-145350000D01*
X159000000Y-143550000D02*
X159000000Y-145350000D01*
X159000000Y-143550000D02*
X159000000Y-145350000D01*
X159000000Y-143550000D02*
X159000000Y-145350000D01*
X159000000Y-143550000D02*
X159000000Y-145350000D01*
X159000000Y-143550000D02*
X159000000Y-145350000D01*
X157000000Y-143550000D02*
X157000000Y-145350000D01*
X157000000Y-143550000D02*
X157000000Y-145350000D01*
X157000000Y-143550000D02*
X157000000Y-145350000D01*
X157000000Y-143550000D02*
X157000000Y-145350000D01*
X157000000Y-143550000D02*
X157000000Y-145350000D01*
X157000000Y-143550000D02*
X157000000Y-145350000D01*
X157000000Y-143550000D02*
X157000000Y-145350000D01*
M02*
