G04 #@! TF.GenerationSoftware,KiCad,Pcbnew,8.0.8+1*
G04 #@! TF.CreationDate,2025-04-03T17:45:40+00:00*
G04 #@! TF.ProjectId,board,626f6172-642e-46b6-9963-61645f706362,0.1*
G04 #@! TF.SameCoordinates,Original*
G04 #@! TF.FileFunction,Legend,Bot*
G04 #@! TF.FilePolarity,Positive*
%FSLAX46Y46*%
G04 Gerber Fmt 4.6, Leading zero omitted, Abs format (unit mm)*
G04 Created by KiCad (PCBNEW 8.0.8+1) date 2025-04-03 17:45:40*
%MOMM*%
%LPD*%
G01*
G04 APERTURE LIST*
%ADD10C,0.150000*%
%ADD11C,0.100000*%
%ADD12C,0.120000*%
%ADD13C,2.005000*%
%ADD14C,1.800000*%
%ADD15C,1.000000*%
%ADD16C,1.600000*%
%ADD17O,2.300000X1.700000*%
%ADD18O,3.400000X1.700000*%
%ADD19O,1.300000X1.850000*%
%ADD20C,0.900000*%
%ADD21C,2.000000*%
%ADD22C,3.100000*%
%ADD23C,3.500000*%
G04 APERTURE END LIST*
D10*
X83071427Y-149649847D02*
X83071427Y-148983180D01*
X83071427Y-149078418D02*
X83023808Y-149030799D01*
X83023808Y-149030799D02*
X82928570Y-148983180D01*
X82928570Y-148983180D02*
X82785713Y-148983180D01*
X82785713Y-148983180D02*
X82690475Y-149030799D01*
X82690475Y-149030799D02*
X82642856Y-149126037D01*
X82642856Y-149126037D02*
X82642856Y-149649847D01*
X82642856Y-149126037D02*
X82595237Y-149030799D01*
X82595237Y-149030799D02*
X82499999Y-148983180D01*
X82499999Y-148983180D02*
X82357142Y-148983180D01*
X82357142Y-148983180D02*
X82261903Y-149030799D01*
X82261903Y-149030799D02*
X82214284Y-149126037D01*
X82214284Y-149126037D02*
X82214284Y-149649847D01*
X81738094Y-149649847D02*
X81738094Y-148983180D01*
X81738094Y-148649847D02*
X81785713Y-148697466D01*
X81785713Y-148697466D02*
X81738094Y-148745085D01*
X81738094Y-148745085D02*
X81690475Y-148697466D01*
X81690475Y-148697466D02*
X81738094Y-148649847D01*
X81738094Y-148649847D02*
X81738094Y-148745085D01*
X81261904Y-149649847D02*
X81261904Y-148983180D01*
X81261904Y-149078418D02*
X81214285Y-149030799D01*
X81214285Y-149030799D02*
X81119047Y-148983180D01*
X81119047Y-148983180D02*
X80976190Y-148983180D01*
X80976190Y-148983180D02*
X80880952Y-149030799D01*
X80880952Y-149030799D02*
X80833333Y-149126037D01*
X80833333Y-149126037D02*
X80833333Y-149649847D01*
X80833333Y-149126037D02*
X80785714Y-149030799D01*
X80785714Y-149030799D02*
X80690476Y-148983180D01*
X80690476Y-148983180D02*
X80547619Y-148983180D01*
X80547619Y-148983180D02*
X80452380Y-149030799D01*
X80452380Y-149030799D02*
X80404761Y-149126037D01*
X80404761Y-149126037D02*
X80404761Y-149649847D01*
X79928571Y-149649847D02*
X79928571Y-148983180D01*
X79928571Y-148649847D02*
X79976190Y-148697466D01*
X79976190Y-148697466D02*
X79928571Y-148745085D01*
X79928571Y-148745085D02*
X79880952Y-148697466D01*
X79880952Y-148697466D02*
X79928571Y-148649847D01*
X79928571Y-148649847D02*
X79928571Y-148745085D01*
X83999999Y-151259791D02*
X83999999Y-150259791D01*
X83999999Y-150640743D02*
X83904761Y-150593124D01*
X83904761Y-150593124D02*
X83714285Y-150593124D01*
X83714285Y-150593124D02*
X83619047Y-150640743D01*
X83619047Y-150640743D02*
X83571428Y-150688362D01*
X83571428Y-150688362D02*
X83523809Y-150783600D01*
X83523809Y-150783600D02*
X83523809Y-151069314D01*
X83523809Y-151069314D02*
X83571428Y-151164552D01*
X83571428Y-151164552D02*
X83619047Y-151212172D01*
X83619047Y-151212172D02*
X83714285Y-151259791D01*
X83714285Y-151259791D02*
X83904761Y-151259791D01*
X83904761Y-151259791D02*
X83999999Y-151212172D01*
X83190475Y-150593124D02*
X82952380Y-151259791D01*
X82714285Y-150593124D02*
X82952380Y-151259791D01*
X82952380Y-151259791D02*
X83047618Y-151497886D01*
X83047618Y-151497886D02*
X83095237Y-151545505D01*
X83095237Y-151545505D02*
X83190475Y-151593124D01*
X81571427Y-151259791D02*
X81571427Y-150593124D01*
X81571427Y-150688362D02*
X81523808Y-150640743D01*
X81523808Y-150640743D02*
X81428570Y-150593124D01*
X81428570Y-150593124D02*
X81285713Y-150593124D01*
X81285713Y-150593124D02*
X81190475Y-150640743D01*
X81190475Y-150640743D02*
X81142856Y-150735981D01*
X81142856Y-150735981D02*
X81142856Y-151259791D01*
X81142856Y-150735981D02*
X81095237Y-150640743D01*
X81095237Y-150640743D02*
X80999999Y-150593124D01*
X80999999Y-150593124D02*
X80857142Y-150593124D01*
X80857142Y-150593124D02*
X80761903Y-150640743D01*
X80761903Y-150640743D02*
X80714284Y-150735981D01*
X80714284Y-150735981D02*
X80714284Y-151259791D01*
X79809523Y-151259791D02*
X79809523Y-150259791D01*
X79809523Y-151212172D02*
X79904761Y-151259791D01*
X79904761Y-151259791D02*
X80095237Y-151259791D01*
X80095237Y-151259791D02*
X80190475Y-151212172D01*
X80190475Y-151212172D02*
X80238094Y-151164552D01*
X80238094Y-151164552D02*
X80285713Y-151069314D01*
X80285713Y-151069314D02*
X80285713Y-150783600D01*
X80285713Y-150783600D02*
X80238094Y-150688362D01*
X80238094Y-150688362D02*
X80190475Y-150640743D01*
X80190475Y-150640743D02*
X80095237Y-150593124D01*
X80095237Y-150593124D02*
X79904761Y-150593124D01*
X79904761Y-150593124D02*
X79809523Y-150640743D01*
X79333332Y-151259791D02*
X79333332Y-150259791D01*
X79238094Y-150878838D02*
X78952380Y-151259791D01*
X78952380Y-150593124D02*
X79333332Y-150974076D01*
X171454819Y-161802380D02*
X170978628Y-161469047D01*
X171454819Y-161230952D02*
X170454819Y-161230952D01*
X170454819Y-161230952D02*
X170454819Y-161611904D01*
X170454819Y-161611904D02*
X170502438Y-161707142D01*
X170502438Y-161707142D02*
X170550057Y-161754761D01*
X170550057Y-161754761D02*
X170645295Y-161802380D01*
X170645295Y-161802380D02*
X170788152Y-161802380D01*
X170788152Y-161802380D02*
X170883390Y-161754761D01*
X170883390Y-161754761D02*
X170931009Y-161707142D01*
X170931009Y-161707142D02*
X170978628Y-161611904D01*
X170978628Y-161611904D02*
X170978628Y-161230952D01*
X171407200Y-162183333D02*
X171454819Y-162326190D01*
X171454819Y-162326190D02*
X171454819Y-162564285D01*
X171454819Y-162564285D02*
X171407200Y-162659523D01*
X171407200Y-162659523D02*
X171359580Y-162707142D01*
X171359580Y-162707142D02*
X171264342Y-162754761D01*
X171264342Y-162754761D02*
X171169104Y-162754761D01*
X171169104Y-162754761D02*
X171073866Y-162707142D01*
X171073866Y-162707142D02*
X171026247Y-162659523D01*
X171026247Y-162659523D02*
X170978628Y-162564285D01*
X170978628Y-162564285D02*
X170931009Y-162373809D01*
X170931009Y-162373809D02*
X170883390Y-162278571D01*
X170883390Y-162278571D02*
X170835771Y-162230952D01*
X170835771Y-162230952D02*
X170740533Y-162183333D01*
X170740533Y-162183333D02*
X170645295Y-162183333D01*
X170645295Y-162183333D02*
X170550057Y-162230952D01*
X170550057Y-162230952D02*
X170502438Y-162278571D01*
X170502438Y-162278571D02*
X170454819Y-162373809D01*
X170454819Y-162373809D02*
X170454819Y-162611904D01*
X170454819Y-162611904D02*
X170502438Y-162754761D01*
X170454819Y-163040476D02*
X170454819Y-163611904D01*
X171454819Y-163326190D02*
X170454819Y-163326190D01*
X170952380Y-144804819D02*
X170761904Y-144804819D01*
X170761904Y-144804819D02*
X170666666Y-144852438D01*
X170666666Y-144852438D02*
X170571428Y-144947676D01*
X170571428Y-144947676D02*
X170523809Y-145138152D01*
X170523809Y-145138152D02*
X170523809Y-145471485D01*
X170523809Y-145471485D02*
X170571428Y-145661961D01*
X170571428Y-145661961D02*
X170666666Y-145757200D01*
X170666666Y-145757200D02*
X170761904Y-145804819D01*
X170761904Y-145804819D02*
X170952380Y-145804819D01*
X170952380Y-145804819D02*
X171047618Y-145757200D01*
X171047618Y-145757200D02*
X171142856Y-145661961D01*
X171142856Y-145661961D02*
X171190475Y-145471485D01*
X171190475Y-145471485D02*
X171190475Y-145138152D01*
X171190475Y-145138152D02*
X171142856Y-144947676D01*
X171142856Y-144947676D02*
X171047618Y-144852438D01*
X171047618Y-144852438D02*
X170952380Y-144804819D01*
X169761904Y-145281009D02*
X170095237Y-145281009D01*
X170095237Y-145804819D02*
X170095237Y-144804819D01*
X170095237Y-144804819D02*
X169619047Y-144804819D01*
X168904761Y-145281009D02*
X169238094Y-145281009D01*
X169238094Y-145804819D02*
X169238094Y-144804819D01*
X169238094Y-144804819D02*
X168761904Y-144804819D01*
X170619047Y-134804819D02*
X170428571Y-134804819D01*
X170428571Y-134804819D02*
X170333333Y-134852438D01*
X170333333Y-134852438D02*
X170238095Y-134947676D01*
X170238095Y-134947676D02*
X170190476Y-135138152D01*
X170190476Y-135138152D02*
X170190476Y-135471485D01*
X170190476Y-135471485D02*
X170238095Y-135661961D01*
X170238095Y-135661961D02*
X170333333Y-135757200D01*
X170333333Y-135757200D02*
X170428571Y-135804819D01*
X170428571Y-135804819D02*
X170619047Y-135804819D01*
X170619047Y-135804819D02*
X170714285Y-135757200D01*
X170714285Y-135757200D02*
X170809523Y-135661961D01*
X170809523Y-135661961D02*
X170857142Y-135471485D01*
X170857142Y-135471485D02*
X170857142Y-135138152D01*
X170857142Y-135138152D02*
X170809523Y-134947676D01*
X170809523Y-134947676D02*
X170714285Y-134852438D01*
X170714285Y-134852438D02*
X170619047Y-134804819D01*
X169761904Y-135804819D02*
X169761904Y-134804819D01*
X169761904Y-134804819D02*
X169190476Y-135804819D01*
X169190476Y-135804819D02*
X169190476Y-134804819D01*
X162764285Y-128504819D02*
X162764285Y-127504819D01*
X162764285Y-127504819D02*
X162383333Y-127504819D01*
X162383333Y-127504819D02*
X162288095Y-127552438D01*
X162288095Y-127552438D02*
X162240476Y-127600057D01*
X162240476Y-127600057D02*
X162192857Y-127695295D01*
X162192857Y-127695295D02*
X162192857Y-127838152D01*
X162192857Y-127838152D02*
X162240476Y-127933390D01*
X162240476Y-127933390D02*
X162288095Y-127981009D01*
X162288095Y-127981009D02*
X162383333Y-128028628D01*
X162383333Y-128028628D02*
X162764285Y-128028628D01*
X161240476Y-128504819D02*
X161811904Y-128504819D01*
X161526190Y-128504819D02*
X161526190Y-127504819D01*
X161526190Y-127504819D02*
X161621428Y-127647676D01*
X161621428Y-127647676D02*
X161716666Y-127742914D01*
X161716666Y-127742914D02*
X161811904Y-127790533D01*
X160383333Y-127504819D02*
X160573809Y-127504819D01*
X160573809Y-127504819D02*
X160669047Y-127552438D01*
X160669047Y-127552438D02*
X160716666Y-127600057D01*
X160716666Y-127600057D02*
X160811904Y-127742914D01*
X160811904Y-127742914D02*
X160859523Y-127933390D01*
X160859523Y-127933390D02*
X160859523Y-128314342D01*
X160859523Y-128314342D02*
X160811904Y-128409580D01*
X160811904Y-128409580D02*
X160764285Y-128457200D01*
X160764285Y-128457200D02*
X160669047Y-128504819D01*
X160669047Y-128504819D02*
X160478571Y-128504819D01*
X160478571Y-128504819D02*
X160383333Y-128457200D01*
X160383333Y-128457200D02*
X160335714Y-128409580D01*
X160335714Y-128409580D02*
X160288095Y-128314342D01*
X160288095Y-128314342D02*
X160288095Y-128076247D01*
X160288095Y-128076247D02*
X160335714Y-127981009D01*
X160335714Y-127981009D02*
X160383333Y-127933390D01*
X160383333Y-127933390D02*
X160478571Y-127885771D01*
X160478571Y-127885771D02*
X160669047Y-127885771D01*
X160669047Y-127885771D02*
X160764285Y-127933390D01*
X160764285Y-127933390D02*
X160811904Y-127981009D01*
X160811904Y-127981009D02*
X160859523Y-128076247D01*
X165778094Y-118344819D02*
X165778094Y-117344819D01*
X165778094Y-117344819D02*
X165397142Y-117344819D01*
X165397142Y-117344819D02*
X165301904Y-117392438D01*
X165301904Y-117392438D02*
X165254285Y-117440057D01*
X165254285Y-117440057D02*
X165206666Y-117535295D01*
X165206666Y-117535295D02*
X165206666Y-117678152D01*
X165206666Y-117678152D02*
X165254285Y-117773390D01*
X165254285Y-117773390D02*
X165301904Y-117821009D01*
X165301904Y-117821009D02*
X165397142Y-117868628D01*
X165397142Y-117868628D02*
X165778094Y-117868628D01*
X164349523Y-117678152D02*
X164349523Y-118344819D01*
X164587618Y-117297200D02*
X164825713Y-118011485D01*
X164825713Y-118011485D02*
X164206666Y-118011485D01*
X165778094Y-123424819D02*
X165778094Y-122424819D01*
X165778094Y-122424819D02*
X165397142Y-122424819D01*
X165397142Y-122424819D02*
X165301904Y-122472438D01*
X165301904Y-122472438D02*
X165254285Y-122520057D01*
X165254285Y-122520057D02*
X165206666Y-122615295D01*
X165206666Y-122615295D02*
X165206666Y-122758152D01*
X165206666Y-122758152D02*
X165254285Y-122853390D01*
X165254285Y-122853390D02*
X165301904Y-122901009D01*
X165301904Y-122901009D02*
X165397142Y-122948628D01*
X165397142Y-122948628D02*
X165778094Y-122948628D01*
X164349523Y-122424819D02*
X164539999Y-122424819D01*
X164539999Y-122424819D02*
X164635237Y-122472438D01*
X164635237Y-122472438D02*
X164682856Y-122520057D01*
X164682856Y-122520057D02*
X164778094Y-122662914D01*
X164778094Y-122662914D02*
X164825713Y-122853390D01*
X164825713Y-122853390D02*
X164825713Y-123234342D01*
X164825713Y-123234342D02*
X164778094Y-123329580D01*
X164778094Y-123329580D02*
X164730475Y-123377200D01*
X164730475Y-123377200D02*
X164635237Y-123424819D01*
X164635237Y-123424819D02*
X164444761Y-123424819D01*
X164444761Y-123424819D02*
X164349523Y-123377200D01*
X164349523Y-123377200D02*
X164301904Y-123329580D01*
X164301904Y-123329580D02*
X164254285Y-123234342D01*
X164254285Y-123234342D02*
X164254285Y-122996247D01*
X164254285Y-122996247D02*
X164301904Y-122901009D01*
X164301904Y-122901009D02*
X164349523Y-122853390D01*
X164349523Y-122853390D02*
X164444761Y-122805771D01*
X164444761Y-122805771D02*
X164635237Y-122805771D01*
X164635237Y-122805771D02*
X164730475Y-122853390D01*
X164730475Y-122853390D02*
X164778094Y-122901009D01*
X164778094Y-122901009D02*
X164825713Y-122996247D01*
X171142858Y-100559819D02*
X171619048Y-100559819D01*
X171619048Y-100559819D02*
X171619048Y-99559819D01*
X170047619Y-100559819D02*
X170047619Y-99559819D01*
X169619048Y-100559819D02*
X169619048Y-100036009D01*
X169619048Y-100036009D02*
X169666667Y-99940771D01*
X169666667Y-99940771D02*
X169761905Y-99893152D01*
X169761905Y-99893152D02*
X169904762Y-99893152D01*
X169904762Y-99893152D02*
X170000000Y-99940771D01*
X170000000Y-99940771D02*
X170047619Y-99988390D01*
X168714286Y-100559819D02*
X168714286Y-100036009D01*
X168714286Y-100036009D02*
X168761905Y-99940771D01*
X168761905Y-99940771D02*
X168857143Y-99893152D01*
X168857143Y-99893152D02*
X169047619Y-99893152D01*
X169047619Y-99893152D02*
X169142857Y-99940771D01*
X168714286Y-100512200D02*
X168809524Y-100559819D01*
X168809524Y-100559819D02*
X169047619Y-100559819D01*
X169047619Y-100559819D02*
X169142857Y-100512200D01*
X169142857Y-100512200D02*
X169190476Y-100416961D01*
X169190476Y-100416961D02*
X169190476Y-100321723D01*
X169190476Y-100321723D02*
X169142857Y-100226485D01*
X169142857Y-100226485D02*
X169047619Y-100178866D01*
X169047619Y-100178866D02*
X168809524Y-100178866D01*
X168809524Y-100178866D02*
X168714286Y-100131247D01*
X168238095Y-99893152D02*
X168238095Y-100559819D01*
X168238095Y-99988390D02*
X168190476Y-99940771D01*
X168190476Y-99940771D02*
X168095238Y-99893152D01*
X168095238Y-99893152D02*
X167952381Y-99893152D01*
X167952381Y-99893152D02*
X167857143Y-99940771D01*
X167857143Y-99940771D02*
X167809524Y-100036009D01*
X167809524Y-100036009D02*
X167809524Y-100559819D01*
X166904762Y-100559819D02*
X166904762Y-99559819D01*
X166904762Y-100512200D02*
X167000000Y-100559819D01*
X167000000Y-100559819D02*
X167190476Y-100559819D01*
X167190476Y-100559819D02*
X167285714Y-100512200D01*
X167285714Y-100512200D02*
X167333333Y-100464580D01*
X167333333Y-100464580D02*
X167380952Y-100369342D01*
X167380952Y-100369342D02*
X167380952Y-100083628D01*
X167380952Y-100083628D02*
X167333333Y-99988390D01*
X167333333Y-99988390D02*
X167285714Y-99940771D01*
X167285714Y-99940771D02*
X167190476Y-99893152D01*
X167190476Y-99893152D02*
X167000000Y-99893152D01*
X167000000Y-99893152D02*
X166904762Y-99940771D01*
X165666666Y-100559819D02*
X165666666Y-99559819D01*
X165666666Y-99940771D02*
X165571428Y-99893152D01*
X165571428Y-99893152D02*
X165380952Y-99893152D01*
X165380952Y-99893152D02*
X165285714Y-99940771D01*
X165285714Y-99940771D02*
X165238095Y-99988390D01*
X165238095Y-99988390D02*
X165190476Y-100083628D01*
X165190476Y-100083628D02*
X165190476Y-100369342D01*
X165190476Y-100369342D02*
X165238095Y-100464580D01*
X165238095Y-100464580D02*
X165285714Y-100512200D01*
X165285714Y-100512200D02*
X165380952Y-100559819D01*
X165380952Y-100559819D02*
X165571428Y-100559819D01*
X165571428Y-100559819D02*
X165666666Y-100512200D01*
X164333333Y-100559819D02*
X164333333Y-100036009D01*
X164333333Y-100036009D02*
X164380952Y-99940771D01*
X164380952Y-99940771D02*
X164476190Y-99893152D01*
X164476190Y-99893152D02*
X164666666Y-99893152D01*
X164666666Y-99893152D02*
X164761904Y-99940771D01*
X164333333Y-100512200D02*
X164428571Y-100559819D01*
X164428571Y-100559819D02*
X164666666Y-100559819D01*
X164666666Y-100559819D02*
X164761904Y-100512200D01*
X164761904Y-100512200D02*
X164809523Y-100416961D01*
X164809523Y-100416961D02*
X164809523Y-100321723D01*
X164809523Y-100321723D02*
X164761904Y-100226485D01*
X164761904Y-100226485D02*
X164666666Y-100178866D01*
X164666666Y-100178866D02*
X164428571Y-100178866D01*
X164428571Y-100178866D02*
X164333333Y-100131247D01*
X163428571Y-100512200D02*
X163523809Y-100559819D01*
X163523809Y-100559819D02*
X163714285Y-100559819D01*
X163714285Y-100559819D02*
X163809523Y-100512200D01*
X163809523Y-100512200D02*
X163857142Y-100464580D01*
X163857142Y-100464580D02*
X163904761Y-100369342D01*
X163904761Y-100369342D02*
X163904761Y-100083628D01*
X163904761Y-100083628D02*
X163857142Y-99988390D01*
X163857142Y-99988390D02*
X163809523Y-99940771D01*
X163809523Y-99940771D02*
X163714285Y-99893152D01*
X163714285Y-99893152D02*
X163523809Y-99893152D01*
X163523809Y-99893152D02*
X163428571Y-99940771D01*
X162999999Y-100559819D02*
X162999999Y-99559819D01*
X162904761Y-100178866D02*
X162619047Y-100559819D01*
X162619047Y-99893152D02*
X162999999Y-100274104D01*
X161476189Y-100512200D02*
X161380951Y-100559819D01*
X161380951Y-100559819D02*
X161190475Y-100559819D01*
X161190475Y-100559819D02*
X161095237Y-100512200D01*
X161095237Y-100512200D02*
X161047618Y-100416961D01*
X161047618Y-100416961D02*
X161047618Y-100369342D01*
X161047618Y-100369342D02*
X161095237Y-100274104D01*
X161095237Y-100274104D02*
X161190475Y-100226485D01*
X161190475Y-100226485D02*
X161333332Y-100226485D01*
X161333332Y-100226485D02*
X161428570Y-100178866D01*
X161428570Y-100178866D02*
X161476189Y-100083628D01*
X161476189Y-100083628D02*
X161476189Y-100036009D01*
X161476189Y-100036009D02*
X161428570Y-99940771D01*
X161428570Y-99940771D02*
X161333332Y-99893152D01*
X161333332Y-99893152D02*
X161190475Y-99893152D01*
X161190475Y-99893152D02*
X161095237Y-99940771D01*
X160619046Y-100559819D02*
X160619046Y-99893152D01*
X160619046Y-99559819D02*
X160666665Y-99607438D01*
X160666665Y-99607438D02*
X160619046Y-99655057D01*
X160619046Y-99655057D02*
X160571427Y-99607438D01*
X160571427Y-99607438D02*
X160619046Y-99559819D01*
X160619046Y-99559819D02*
X160619046Y-99655057D01*
X159714285Y-100559819D02*
X159714285Y-99559819D01*
X159714285Y-100512200D02*
X159809523Y-100559819D01*
X159809523Y-100559819D02*
X159999999Y-100559819D01*
X159999999Y-100559819D02*
X160095237Y-100512200D01*
X160095237Y-100512200D02*
X160142856Y-100464580D01*
X160142856Y-100464580D02*
X160190475Y-100369342D01*
X160190475Y-100369342D02*
X160190475Y-100083628D01*
X160190475Y-100083628D02*
X160142856Y-99988390D01*
X160142856Y-99988390D02*
X160095237Y-99940771D01*
X160095237Y-99940771D02*
X159999999Y-99893152D01*
X159999999Y-99893152D02*
X159809523Y-99893152D01*
X159809523Y-99893152D02*
X159714285Y-99940771D01*
X158857142Y-100512200D02*
X158952380Y-100559819D01*
X158952380Y-100559819D02*
X159142856Y-100559819D01*
X159142856Y-100559819D02*
X159238094Y-100512200D01*
X159238094Y-100512200D02*
X159285713Y-100416961D01*
X159285713Y-100416961D02*
X159285713Y-100036009D01*
X159285713Y-100036009D02*
X159238094Y-99940771D01*
X159238094Y-99940771D02*
X159142856Y-99893152D01*
X159142856Y-99893152D02*
X158952380Y-99893152D01*
X158952380Y-99893152D02*
X158857142Y-99940771D01*
X158857142Y-99940771D02*
X158809523Y-100036009D01*
X158809523Y-100036009D02*
X158809523Y-100131247D01*
X158809523Y-100131247D02*
X159285713Y-100226485D01*
X157333332Y-100940771D02*
X157380951Y-100893152D01*
X157380951Y-100893152D02*
X157476189Y-100750295D01*
X157476189Y-100750295D02*
X157523808Y-100655057D01*
X157523808Y-100655057D02*
X157571427Y-100512200D01*
X157571427Y-100512200D02*
X157619046Y-100274104D01*
X157619046Y-100274104D02*
X157619046Y-100083628D01*
X157619046Y-100083628D02*
X157571427Y-99845533D01*
X157571427Y-99845533D02*
X157523808Y-99702676D01*
X157523808Y-99702676D02*
X157476189Y-99607438D01*
X157476189Y-99607438D02*
X157380951Y-99464580D01*
X157380951Y-99464580D02*
X157333332Y-99416961D01*
X156952379Y-100559819D02*
X156952379Y-99559819D01*
X156952379Y-99559819D02*
X156619046Y-100274104D01*
X156619046Y-100274104D02*
X156285713Y-99559819D01*
X156285713Y-99559819D02*
X156285713Y-100559819D01*
X155428570Y-99797914D02*
X155428570Y-100559819D01*
X155238094Y-100369342D02*
X155428570Y-100559819D01*
X155428570Y-100559819D02*
X155619046Y-100369342D01*
X154666665Y-100940771D02*
X154619046Y-100893152D01*
X154619046Y-100893152D02*
X154523808Y-100750295D01*
X154523808Y-100750295D02*
X154476189Y-100655057D01*
X154476189Y-100655057D02*
X154428570Y-100512200D01*
X154428570Y-100512200D02*
X154380951Y-100274104D01*
X154380951Y-100274104D02*
X154380951Y-100083628D01*
X154380951Y-100083628D02*
X154428570Y-99845533D01*
X154428570Y-99845533D02*
X154476189Y-99702676D01*
X154476189Y-99702676D02*
X154523808Y-99607438D01*
X154523808Y-99607438D02*
X154619046Y-99464580D01*
X154619046Y-99464580D02*
X154666665Y-99416961D01*
X165778094Y-125964819D02*
X165778094Y-124964819D01*
X165778094Y-124964819D02*
X165397142Y-124964819D01*
X165397142Y-124964819D02*
X165301904Y-125012438D01*
X165301904Y-125012438D02*
X165254285Y-125060057D01*
X165254285Y-125060057D02*
X165206666Y-125155295D01*
X165206666Y-125155295D02*
X165206666Y-125298152D01*
X165206666Y-125298152D02*
X165254285Y-125393390D01*
X165254285Y-125393390D02*
X165301904Y-125441009D01*
X165301904Y-125441009D02*
X165397142Y-125488628D01*
X165397142Y-125488628D02*
X165778094Y-125488628D01*
X164873332Y-124964819D02*
X164206666Y-124964819D01*
X164206666Y-124964819D02*
X164635237Y-125964819D01*
X162883332Y-109724819D02*
X162549999Y-110724819D01*
X162549999Y-110724819D02*
X162216666Y-109724819D01*
X161311904Y-110629580D02*
X161359523Y-110677200D01*
X161359523Y-110677200D02*
X161502380Y-110724819D01*
X161502380Y-110724819D02*
X161597618Y-110724819D01*
X161597618Y-110724819D02*
X161740475Y-110677200D01*
X161740475Y-110677200D02*
X161835713Y-110581961D01*
X161835713Y-110581961D02*
X161883332Y-110486723D01*
X161883332Y-110486723D02*
X161930951Y-110296247D01*
X161930951Y-110296247D02*
X161930951Y-110153390D01*
X161930951Y-110153390D02*
X161883332Y-109962914D01*
X161883332Y-109962914D02*
X161835713Y-109867676D01*
X161835713Y-109867676D02*
X161740475Y-109772438D01*
X161740475Y-109772438D02*
X161597618Y-109724819D01*
X161597618Y-109724819D02*
X161502380Y-109724819D01*
X161502380Y-109724819D02*
X161359523Y-109772438D01*
X161359523Y-109772438D02*
X161311904Y-109820057D01*
X160311904Y-110629580D02*
X160359523Y-110677200D01*
X160359523Y-110677200D02*
X160502380Y-110724819D01*
X160502380Y-110724819D02*
X160597618Y-110724819D01*
X160597618Y-110724819D02*
X160740475Y-110677200D01*
X160740475Y-110677200D02*
X160835713Y-110581961D01*
X160835713Y-110581961D02*
X160883332Y-110486723D01*
X160883332Y-110486723D02*
X160930951Y-110296247D01*
X160930951Y-110296247D02*
X160930951Y-110153390D01*
X160930951Y-110153390D02*
X160883332Y-109962914D01*
X160883332Y-109962914D02*
X160835713Y-109867676D01*
X160835713Y-109867676D02*
X160740475Y-109772438D01*
X160740475Y-109772438D02*
X160597618Y-109724819D01*
X160597618Y-109724819D02*
X160502380Y-109724819D01*
X160502380Y-109724819D02*
X160359523Y-109772438D01*
X160359523Y-109772438D02*
X160311904Y-109820057D01*
X162764285Y-113264819D02*
X162764285Y-112264819D01*
X162764285Y-112264819D02*
X162383333Y-112264819D01*
X162383333Y-112264819D02*
X162288095Y-112312438D01*
X162288095Y-112312438D02*
X162240476Y-112360057D01*
X162240476Y-112360057D02*
X162192857Y-112455295D01*
X162192857Y-112455295D02*
X162192857Y-112598152D01*
X162192857Y-112598152D02*
X162240476Y-112693390D01*
X162240476Y-112693390D02*
X162288095Y-112741009D01*
X162288095Y-112741009D02*
X162383333Y-112788628D01*
X162383333Y-112788628D02*
X162764285Y-112788628D01*
X161811904Y-112360057D02*
X161764285Y-112312438D01*
X161764285Y-112312438D02*
X161669047Y-112264819D01*
X161669047Y-112264819D02*
X161430952Y-112264819D01*
X161430952Y-112264819D02*
X161335714Y-112312438D01*
X161335714Y-112312438D02*
X161288095Y-112360057D01*
X161288095Y-112360057D02*
X161240476Y-112455295D01*
X161240476Y-112455295D02*
X161240476Y-112550533D01*
X161240476Y-112550533D02*
X161288095Y-112693390D01*
X161288095Y-112693390D02*
X161859523Y-113264819D01*
X161859523Y-113264819D02*
X161240476Y-113264819D01*
X160288095Y-113264819D02*
X160859523Y-113264819D01*
X160573809Y-113264819D02*
X160573809Y-112264819D01*
X160573809Y-112264819D02*
X160669047Y-112407676D01*
X160669047Y-112407676D02*
X160764285Y-112502914D01*
X160764285Y-112502914D02*
X160859523Y-112550533D01*
X165778094Y-120884819D02*
X165778094Y-119884819D01*
X165778094Y-119884819D02*
X165397142Y-119884819D01*
X165397142Y-119884819D02*
X165301904Y-119932438D01*
X165301904Y-119932438D02*
X165254285Y-119980057D01*
X165254285Y-119980057D02*
X165206666Y-120075295D01*
X165206666Y-120075295D02*
X165206666Y-120218152D01*
X165206666Y-120218152D02*
X165254285Y-120313390D01*
X165254285Y-120313390D02*
X165301904Y-120361009D01*
X165301904Y-120361009D02*
X165397142Y-120408628D01*
X165397142Y-120408628D02*
X165778094Y-120408628D01*
X164301904Y-119884819D02*
X164778094Y-119884819D01*
X164778094Y-119884819D02*
X164825713Y-120361009D01*
X164825713Y-120361009D02*
X164778094Y-120313390D01*
X164778094Y-120313390D02*
X164682856Y-120265771D01*
X164682856Y-120265771D02*
X164444761Y-120265771D01*
X164444761Y-120265771D02*
X164349523Y-120313390D01*
X164349523Y-120313390D02*
X164301904Y-120361009D01*
X164301904Y-120361009D02*
X164254285Y-120456247D01*
X164254285Y-120456247D02*
X164254285Y-120694342D01*
X164254285Y-120694342D02*
X164301904Y-120789580D01*
X164301904Y-120789580D02*
X164349523Y-120837200D01*
X164349523Y-120837200D02*
X164444761Y-120884819D01*
X164444761Y-120884819D02*
X164682856Y-120884819D01*
X164682856Y-120884819D02*
X164778094Y-120837200D01*
X164778094Y-120837200D02*
X164825713Y-120789580D01*
X165211904Y-109772438D02*
X165307142Y-109724819D01*
X165307142Y-109724819D02*
X165449999Y-109724819D01*
X165449999Y-109724819D02*
X165592856Y-109772438D01*
X165592856Y-109772438D02*
X165688094Y-109867676D01*
X165688094Y-109867676D02*
X165735713Y-109962914D01*
X165735713Y-109962914D02*
X165783332Y-110153390D01*
X165783332Y-110153390D02*
X165783332Y-110296247D01*
X165783332Y-110296247D02*
X165735713Y-110486723D01*
X165735713Y-110486723D02*
X165688094Y-110581961D01*
X165688094Y-110581961D02*
X165592856Y-110677200D01*
X165592856Y-110677200D02*
X165449999Y-110724819D01*
X165449999Y-110724819D02*
X165354761Y-110724819D01*
X165354761Y-110724819D02*
X165211904Y-110677200D01*
X165211904Y-110677200D02*
X165164285Y-110629580D01*
X165164285Y-110629580D02*
X165164285Y-110296247D01*
X165164285Y-110296247D02*
X165354761Y-110296247D01*
X164735713Y-110724819D02*
X164735713Y-109724819D01*
X164735713Y-109724819D02*
X164164285Y-110724819D01*
X164164285Y-110724819D02*
X164164285Y-109724819D01*
X163688094Y-110724819D02*
X163688094Y-109724819D01*
X163688094Y-109724819D02*
X163449999Y-109724819D01*
X163449999Y-109724819D02*
X163307142Y-109772438D01*
X163307142Y-109772438D02*
X163211904Y-109867676D01*
X163211904Y-109867676D02*
X163164285Y-109962914D01*
X163164285Y-109962914D02*
X163116666Y-110153390D01*
X163116666Y-110153390D02*
X163116666Y-110296247D01*
X163116666Y-110296247D02*
X163164285Y-110486723D01*
X163164285Y-110486723D02*
X163211904Y-110581961D01*
X163211904Y-110581961D02*
X163307142Y-110677200D01*
X163307142Y-110677200D02*
X163449999Y-110724819D01*
X163449999Y-110724819D02*
X163688094Y-110724819D01*
X165778094Y-103104819D02*
X165778094Y-102104819D01*
X165778094Y-102104819D02*
X165397142Y-102104819D01*
X165397142Y-102104819D02*
X165301904Y-102152438D01*
X165301904Y-102152438D02*
X165254285Y-102200057D01*
X165254285Y-102200057D02*
X165206666Y-102295295D01*
X165206666Y-102295295D02*
X165206666Y-102438152D01*
X165206666Y-102438152D02*
X165254285Y-102533390D01*
X165254285Y-102533390D02*
X165301904Y-102581009D01*
X165301904Y-102581009D02*
X165397142Y-102628628D01*
X165397142Y-102628628D02*
X165778094Y-102628628D01*
X164254285Y-103104819D02*
X164825713Y-103104819D01*
X164539999Y-103104819D02*
X164539999Y-102104819D01*
X164539999Y-102104819D02*
X164635237Y-102247676D01*
X164635237Y-102247676D02*
X164730475Y-102342914D01*
X164730475Y-102342914D02*
X164825713Y-102390533D01*
X165778094Y-131044819D02*
X165778094Y-130044819D01*
X165778094Y-130044819D02*
X165397142Y-130044819D01*
X165397142Y-130044819D02*
X165301904Y-130092438D01*
X165301904Y-130092438D02*
X165254285Y-130140057D01*
X165254285Y-130140057D02*
X165206666Y-130235295D01*
X165206666Y-130235295D02*
X165206666Y-130378152D01*
X165206666Y-130378152D02*
X165254285Y-130473390D01*
X165254285Y-130473390D02*
X165301904Y-130521009D01*
X165301904Y-130521009D02*
X165397142Y-130568628D01*
X165397142Y-130568628D02*
X165778094Y-130568628D01*
X164730475Y-131044819D02*
X164539999Y-131044819D01*
X164539999Y-131044819D02*
X164444761Y-130997200D01*
X164444761Y-130997200D02*
X164397142Y-130949580D01*
X164397142Y-130949580D02*
X164301904Y-130806723D01*
X164301904Y-130806723D02*
X164254285Y-130616247D01*
X164254285Y-130616247D02*
X164254285Y-130235295D01*
X164254285Y-130235295D02*
X164301904Y-130140057D01*
X164301904Y-130140057D02*
X164349523Y-130092438D01*
X164349523Y-130092438D02*
X164444761Y-130044819D01*
X164444761Y-130044819D02*
X164635237Y-130044819D01*
X164635237Y-130044819D02*
X164730475Y-130092438D01*
X164730475Y-130092438D02*
X164778094Y-130140057D01*
X164778094Y-130140057D02*
X164825713Y-130235295D01*
X164825713Y-130235295D02*
X164825713Y-130473390D01*
X164825713Y-130473390D02*
X164778094Y-130568628D01*
X164778094Y-130568628D02*
X164730475Y-130616247D01*
X164730475Y-130616247D02*
X164635237Y-130663866D01*
X164635237Y-130663866D02*
X164444761Y-130663866D01*
X164444761Y-130663866D02*
X164349523Y-130616247D01*
X164349523Y-130616247D02*
X164301904Y-130568628D01*
X164301904Y-130568628D02*
X164254285Y-130473390D01*
X162764285Y-120884819D02*
X162764285Y-119884819D01*
X162764285Y-119884819D02*
X162383333Y-119884819D01*
X162383333Y-119884819D02*
X162288095Y-119932438D01*
X162288095Y-119932438D02*
X162240476Y-119980057D01*
X162240476Y-119980057D02*
X162192857Y-120075295D01*
X162192857Y-120075295D02*
X162192857Y-120218152D01*
X162192857Y-120218152D02*
X162240476Y-120313390D01*
X162240476Y-120313390D02*
X162288095Y-120361009D01*
X162288095Y-120361009D02*
X162383333Y-120408628D01*
X162383333Y-120408628D02*
X162764285Y-120408628D01*
X161240476Y-120884819D02*
X161811904Y-120884819D01*
X161526190Y-120884819D02*
X161526190Y-119884819D01*
X161526190Y-119884819D02*
X161621428Y-120027676D01*
X161621428Y-120027676D02*
X161716666Y-120122914D01*
X161716666Y-120122914D02*
X161811904Y-120170533D01*
X160669047Y-120313390D02*
X160764285Y-120265771D01*
X160764285Y-120265771D02*
X160811904Y-120218152D01*
X160811904Y-120218152D02*
X160859523Y-120122914D01*
X160859523Y-120122914D02*
X160859523Y-120075295D01*
X160859523Y-120075295D02*
X160811904Y-119980057D01*
X160811904Y-119980057D02*
X160764285Y-119932438D01*
X160764285Y-119932438D02*
X160669047Y-119884819D01*
X160669047Y-119884819D02*
X160478571Y-119884819D01*
X160478571Y-119884819D02*
X160383333Y-119932438D01*
X160383333Y-119932438D02*
X160335714Y-119980057D01*
X160335714Y-119980057D02*
X160288095Y-120075295D01*
X160288095Y-120075295D02*
X160288095Y-120122914D01*
X160288095Y-120122914D02*
X160335714Y-120218152D01*
X160335714Y-120218152D02*
X160383333Y-120265771D01*
X160383333Y-120265771D02*
X160478571Y-120313390D01*
X160478571Y-120313390D02*
X160669047Y-120313390D01*
X160669047Y-120313390D02*
X160764285Y-120361009D01*
X160764285Y-120361009D02*
X160811904Y-120408628D01*
X160811904Y-120408628D02*
X160859523Y-120503866D01*
X160859523Y-120503866D02*
X160859523Y-120694342D01*
X160859523Y-120694342D02*
X160811904Y-120789580D01*
X160811904Y-120789580D02*
X160764285Y-120837200D01*
X160764285Y-120837200D02*
X160669047Y-120884819D01*
X160669047Y-120884819D02*
X160478571Y-120884819D01*
X160478571Y-120884819D02*
X160383333Y-120837200D01*
X160383333Y-120837200D02*
X160335714Y-120789580D01*
X160335714Y-120789580D02*
X160288095Y-120694342D01*
X160288095Y-120694342D02*
X160288095Y-120503866D01*
X160288095Y-120503866D02*
X160335714Y-120408628D01*
X160335714Y-120408628D02*
X160383333Y-120361009D01*
X160383333Y-120361009D02*
X160478571Y-120313390D01*
X162764285Y-123424819D02*
X162764285Y-122424819D01*
X162764285Y-122424819D02*
X162383333Y-122424819D01*
X162383333Y-122424819D02*
X162288095Y-122472438D01*
X162288095Y-122472438D02*
X162240476Y-122520057D01*
X162240476Y-122520057D02*
X162192857Y-122615295D01*
X162192857Y-122615295D02*
X162192857Y-122758152D01*
X162192857Y-122758152D02*
X162240476Y-122853390D01*
X162240476Y-122853390D02*
X162288095Y-122901009D01*
X162288095Y-122901009D02*
X162383333Y-122948628D01*
X162383333Y-122948628D02*
X162764285Y-122948628D01*
X161240476Y-123424819D02*
X161811904Y-123424819D01*
X161526190Y-123424819D02*
X161526190Y-122424819D01*
X161526190Y-122424819D02*
X161621428Y-122567676D01*
X161621428Y-122567676D02*
X161716666Y-122662914D01*
X161716666Y-122662914D02*
X161811904Y-122710533D01*
X160335714Y-122424819D02*
X160811904Y-122424819D01*
X160811904Y-122424819D02*
X160859523Y-122901009D01*
X160859523Y-122901009D02*
X160811904Y-122853390D01*
X160811904Y-122853390D02*
X160716666Y-122805771D01*
X160716666Y-122805771D02*
X160478571Y-122805771D01*
X160478571Y-122805771D02*
X160383333Y-122853390D01*
X160383333Y-122853390D02*
X160335714Y-122901009D01*
X160335714Y-122901009D02*
X160288095Y-122996247D01*
X160288095Y-122996247D02*
X160288095Y-123234342D01*
X160288095Y-123234342D02*
X160335714Y-123329580D01*
X160335714Y-123329580D02*
X160383333Y-123377200D01*
X160383333Y-123377200D02*
X160478571Y-123424819D01*
X160478571Y-123424819D02*
X160716666Y-123424819D01*
X160716666Y-123424819D02*
X160811904Y-123377200D01*
X160811904Y-123377200D02*
X160859523Y-123329580D01*
X165211904Y-107232438D02*
X165307142Y-107184819D01*
X165307142Y-107184819D02*
X165449999Y-107184819D01*
X165449999Y-107184819D02*
X165592856Y-107232438D01*
X165592856Y-107232438D02*
X165688094Y-107327676D01*
X165688094Y-107327676D02*
X165735713Y-107422914D01*
X165735713Y-107422914D02*
X165783332Y-107613390D01*
X165783332Y-107613390D02*
X165783332Y-107756247D01*
X165783332Y-107756247D02*
X165735713Y-107946723D01*
X165735713Y-107946723D02*
X165688094Y-108041961D01*
X165688094Y-108041961D02*
X165592856Y-108137200D01*
X165592856Y-108137200D02*
X165449999Y-108184819D01*
X165449999Y-108184819D02*
X165354761Y-108184819D01*
X165354761Y-108184819D02*
X165211904Y-108137200D01*
X165211904Y-108137200D02*
X165164285Y-108089580D01*
X165164285Y-108089580D02*
X165164285Y-107756247D01*
X165164285Y-107756247D02*
X165354761Y-107756247D01*
X164735713Y-108184819D02*
X164735713Y-107184819D01*
X164735713Y-107184819D02*
X164164285Y-108184819D01*
X164164285Y-108184819D02*
X164164285Y-107184819D01*
X163688094Y-108184819D02*
X163688094Y-107184819D01*
X163688094Y-107184819D02*
X163449999Y-107184819D01*
X163449999Y-107184819D02*
X163307142Y-107232438D01*
X163307142Y-107232438D02*
X163211904Y-107327676D01*
X163211904Y-107327676D02*
X163164285Y-107422914D01*
X163164285Y-107422914D02*
X163116666Y-107613390D01*
X163116666Y-107613390D02*
X163116666Y-107756247D01*
X163116666Y-107756247D02*
X163164285Y-107946723D01*
X163164285Y-107946723D02*
X163211904Y-108041961D01*
X163211904Y-108041961D02*
X163307142Y-108137200D01*
X163307142Y-108137200D02*
X163449999Y-108184819D01*
X163449999Y-108184819D02*
X163688094Y-108184819D01*
X165778094Y-113264819D02*
X165778094Y-112264819D01*
X165778094Y-112264819D02*
X165397142Y-112264819D01*
X165397142Y-112264819D02*
X165301904Y-112312438D01*
X165301904Y-112312438D02*
X165254285Y-112360057D01*
X165254285Y-112360057D02*
X165206666Y-112455295D01*
X165206666Y-112455295D02*
X165206666Y-112598152D01*
X165206666Y-112598152D02*
X165254285Y-112693390D01*
X165254285Y-112693390D02*
X165301904Y-112741009D01*
X165301904Y-112741009D02*
X165397142Y-112788628D01*
X165397142Y-112788628D02*
X165778094Y-112788628D01*
X164825713Y-112360057D02*
X164778094Y-112312438D01*
X164778094Y-112312438D02*
X164682856Y-112264819D01*
X164682856Y-112264819D02*
X164444761Y-112264819D01*
X164444761Y-112264819D02*
X164349523Y-112312438D01*
X164349523Y-112312438D02*
X164301904Y-112360057D01*
X164301904Y-112360057D02*
X164254285Y-112455295D01*
X164254285Y-112455295D02*
X164254285Y-112550533D01*
X164254285Y-112550533D02*
X164301904Y-112693390D01*
X164301904Y-112693390D02*
X164873332Y-113264819D01*
X164873332Y-113264819D02*
X164254285Y-113264819D01*
X162764285Y-125964819D02*
X162764285Y-124964819D01*
X162764285Y-124964819D02*
X162383333Y-124964819D01*
X162383333Y-124964819D02*
X162288095Y-125012438D01*
X162288095Y-125012438D02*
X162240476Y-125060057D01*
X162240476Y-125060057D02*
X162192857Y-125155295D01*
X162192857Y-125155295D02*
X162192857Y-125298152D01*
X162192857Y-125298152D02*
X162240476Y-125393390D01*
X162240476Y-125393390D02*
X162288095Y-125441009D01*
X162288095Y-125441009D02*
X162383333Y-125488628D01*
X162383333Y-125488628D02*
X162764285Y-125488628D01*
X161240476Y-125964819D02*
X161811904Y-125964819D01*
X161526190Y-125964819D02*
X161526190Y-124964819D01*
X161526190Y-124964819D02*
X161621428Y-125107676D01*
X161621428Y-125107676D02*
X161716666Y-125202914D01*
X161716666Y-125202914D02*
X161811904Y-125250533D01*
X160383333Y-125298152D02*
X160383333Y-125964819D01*
X160621428Y-124917200D02*
X160859523Y-125631485D01*
X160859523Y-125631485D02*
X160240476Y-125631485D01*
X162764285Y-115804819D02*
X162764285Y-114804819D01*
X162764285Y-114804819D02*
X162383333Y-114804819D01*
X162383333Y-114804819D02*
X162288095Y-114852438D01*
X162288095Y-114852438D02*
X162240476Y-114900057D01*
X162240476Y-114900057D02*
X162192857Y-114995295D01*
X162192857Y-114995295D02*
X162192857Y-115138152D01*
X162192857Y-115138152D02*
X162240476Y-115233390D01*
X162240476Y-115233390D02*
X162288095Y-115281009D01*
X162288095Y-115281009D02*
X162383333Y-115328628D01*
X162383333Y-115328628D02*
X162764285Y-115328628D01*
X161811904Y-114900057D02*
X161764285Y-114852438D01*
X161764285Y-114852438D02*
X161669047Y-114804819D01*
X161669047Y-114804819D02*
X161430952Y-114804819D01*
X161430952Y-114804819D02*
X161335714Y-114852438D01*
X161335714Y-114852438D02*
X161288095Y-114900057D01*
X161288095Y-114900057D02*
X161240476Y-114995295D01*
X161240476Y-114995295D02*
X161240476Y-115090533D01*
X161240476Y-115090533D02*
X161288095Y-115233390D01*
X161288095Y-115233390D02*
X161859523Y-115804819D01*
X161859523Y-115804819D02*
X161240476Y-115804819D01*
X160621428Y-114804819D02*
X160526190Y-114804819D01*
X160526190Y-114804819D02*
X160430952Y-114852438D01*
X160430952Y-114852438D02*
X160383333Y-114900057D01*
X160383333Y-114900057D02*
X160335714Y-114995295D01*
X160335714Y-114995295D02*
X160288095Y-115185771D01*
X160288095Y-115185771D02*
X160288095Y-115423866D01*
X160288095Y-115423866D02*
X160335714Y-115614342D01*
X160335714Y-115614342D02*
X160383333Y-115709580D01*
X160383333Y-115709580D02*
X160430952Y-115757200D01*
X160430952Y-115757200D02*
X160526190Y-115804819D01*
X160526190Y-115804819D02*
X160621428Y-115804819D01*
X160621428Y-115804819D02*
X160716666Y-115757200D01*
X160716666Y-115757200D02*
X160764285Y-115709580D01*
X160764285Y-115709580D02*
X160811904Y-115614342D01*
X160811904Y-115614342D02*
X160859523Y-115423866D01*
X160859523Y-115423866D02*
X160859523Y-115185771D01*
X160859523Y-115185771D02*
X160811904Y-114995295D01*
X160811904Y-114995295D02*
X160764285Y-114900057D01*
X160764285Y-114900057D02*
X160716666Y-114852438D01*
X160716666Y-114852438D02*
X160621428Y-114804819D01*
X162240476Y-103104819D02*
X162573809Y-102628628D01*
X162811904Y-103104819D02*
X162811904Y-102104819D01*
X162811904Y-102104819D02*
X162430952Y-102104819D01*
X162430952Y-102104819D02*
X162335714Y-102152438D01*
X162335714Y-102152438D02*
X162288095Y-102200057D01*
X162288095Y-102200057D02*
X162240476Y-102295295D01*
X162240476Y-102295295D02*
X162240476Y-102438152D01*
X162240476Y-102438152D02*
X162288095Y-102533390D01*
X162288095Y-102533390D02*
X162335714Y-102581009D01*
X162335714Y-102581009D02*
X162430952Y-102628628D01*
X162430952Y-102628628D02*
X162811904Y-102628628D01*
X161859523Y-102819104D02*
X161383333Y-102819104D01*
X161954761Y-103104819D02*
X161621428Y-102104819D01*
X161621428Y-102104819D02*
X161288095Y-103104819D01*
X161049999Y-102104819D02*
X160811904Y-103104819D01*
X160811904Y-103104819D02*
X160621428Y-102390533D01*
X160621428Y-102390533D02*
X160430952Y-103104819D01*
X160430952Y-103104819D02*
X160192857Y-102104819D01*
X162097619Y-108184819D02*
X162430952Y-107708628D01*
X162669047Y-108184819D02*
X162669047Y-107184819D01*
X162669047Y-107184819D02*
X162288095Y-107184819D01*
X162288095Y-107184819D02*
X162192857Y-107232438D01*
X162192857Y-107232438D02*
X162145238Y-107280057D01*
X162145238Y-107280057D02*
X162097619Y-107375295D01*
X162097619Y-107375295D02*
X162097619Y-107518152D01*
X162097619Y-107518152D02*
X162145238Y-107613390D01*
X162145238Y-107613390D02*
X162192857Y-107661009D01*
X162192857Y-107661009D02*
X162288095Y-107708628D01*
X162288095Y-107708628D02*
X162669047Y-107708628D01*
X161716666Y-108137200D02*
X161573809Y-108184819D01*
X161573809Y-108184819D02*
X161335714Y-108184819D01*
X161335714Y-108184819D02*
X161240476Y-108137200D01*
X161240476Y-108137200D02*
X161192857Y-108089580D01*
X161192857Y-108089580D02*
X161145238Y-107994342D01*
X161145238Y-107994342D02*
X161145238Y-107899104D01*
X161145238Y-107899104D02*
X161192857Y-107803866D01*
X161192857Y-107803866D02*
X161240476Y-107756247D01*
X161240476Y-107756247D02*
X161335714Y-107708628D01*
X161335714Y-107708628D02*
X161526190Y-107661009D01*
X161526190Y-107661009D02*
X161621428Y-107613390D01*
X161621428Y-107613390D02*
X161669047Y-107565771D01*
X161669047Y-107565771D02*
X161716666Y-107470533D01*
X161716666Y-107470533D02*
X161716666Y-107375295D01*
X161716666Y-107375295D02*
X161669047Y-107280057D01*
X161669047Y-107280057D02*
X161621428Y-107232438D01*
X161621428Y-107232438D02*
X161526190Y-107184819D01*
X161526190Y-107184819D02*
X161288095Y-107184819D01*
X161288095Y-107184819D02*
X161145238Y-107232438D01*
X160859523Y-107184819D02*
X160288095Y-107184819D01*
X160573809Y-108184819D02*
X160573809Y-107184819D01*
X165778094Y-115804819D02*
X165778094Y-114804819D01*
X165778094Y-114804819D02*
X165397142Y-114804819D01*
X165397142Y-114804819D02*
X165301904Y-114852438D01*
X165301904Y-114852438D02*
X165254285Y-114900057D01*
X165254285Y-114900057D02*
X165206666Y-114995295D01*
X165206666Y-114995295D02*
X165206666Y-115138152D01*
X165206666Y-115138152D02*
X165254285Y-115233390D01*
X165254285Y-115233390D02*
X165301904Y-115281009D01*
X165301904Y-115281009D02*
X165397142Y-115328628D01*
X165397142Y-115328628D02*
X165778094Y-115328628D01*
X164873332Y-114804819D02*
X164254285Y-114804819D01*
X164254285Y-114804819D02*
X164587618Y-115185771D01*
X164587618Y-115185771D02*
X164444761Y-115185771D01*
X164444761Y-115185771D02*
X164349523Y-115233390D01*
X164349523Y-115233390D02*
X164301904Y-115281009D01*
X164301904Y-115281009D02*
X164254285Y-115376247D01*
X164254285Y-115376247D02*
X164254285Y-115614342D01*
X164254285Y-115614342D02*
X164301904Y-115709580D01*
X164301904Y-115709580D02*
X164349523Y-115757200D01*
X164349523Y-115757200D02*
X164444761Y-115804819D01*
X164444761Y-115804819D02*
X164730475Y-115804819D01*
X164730475Y-115804819D02*
X164825713Y-115757200D01*
X164825713Y-115757200D02*
X164873332Y-115709580D01*
X165778094Y-105644819D02*
X165778094Y-104644819D01*
X165778094Y-104644819D02*
X165397142Y-104644819D01*
X165397142Y-104644819D02*
X165301904Y-104692438D01*
X165301904Y-104692438D02*
X165254285Y-104740057D01*
X165254285Y-104740057D02*
X165206666Y-104835295D01*
X165206666Y-104835295D02*
X165206666Y-104978152D01*
X165206666Y-104978152D02*
X165254285Y-105073390D01*
X165254285Y-105073390D02*
X165301904Y-105121009D01*
X165301904Y-105121009D02*
X165397142Y-105168628D01*
X165397142Y-105168628D02*
X165778094Y-105168628D01*
X164587618Y-104644819D02*
X164492380Y-104644819D01*
X164492380Y-104644819D02*
X164397142Y-104692438D01*
X164397142Y-104692438D02*
X164349523Y-104740057D01*
X164349523Y-104740057D02*
X164301904Y-104835295D01*
X164301904Y-104835295D02*
X164254285Y-105025771D01*
X164254285Y-105025771D02*
X164254285Y-105263866D01*
X164254285Y-105263866D02*
X164301904Y-105454342D01*
X164301904Y-105454342D02*
X164349523Y-105549580D01*
X164349523Y-105549580D02*
X164397142Y-105597200D01*
X164397142Y-105597200D02*
X164492380Y-105644819D01*
X164492380Y-105644819D02*
X164587618Y-105644819D01*
X164587618Y-105644819D02*
X164682856Y-105597200D01*
X164682856Y-105597200D02*
X164730475Y-105549580D01*
X164730475Y-105549580D02*
X164778094Y-105454342D01*
X164778094Y-105454342D02*
X164825713Y-105263866D01*
X164825713Y-105263866D02*
X164825713Y-105025771D01*
X164825713Y-105025771D02*
X164778094Y-104835295D01*
X164778094Y-104835295D02*
X164730475Y-104740057D01*
X164730475Y-104740057D02*
X164682856Y-104692438D01*
X164682856Y-104692438D02*
X164587618Y-104644819D01*
X162311904Y-104692438D02*
X162407142Y-104644819D01*
X162407142Y-104644819D02*
X162549999Y-104644819D01*
X162549999Y-104644819D02*
X162692856Y-104692438D01*
X162692856Y-104692438D02*
X162788094Y-104787676D01*
X162788094Y-104787676D02*
X162835713Y-104882914D01*
X162835713Y-104882914D02*
X162883332Y-105073390D01*
X162883332Y-105073390D02*
X162883332Y-105216247D01*
X162883332Y-105216247D02*
X162835713Y-105406723D01*
X162835713Y-105406723D02*
X162788094Y-105501961D01*
X162788094Y-105501961D02*
X162692856Y-105597200D01*
X162692856Y-105597200D02*
X162549999Y-105644819D01*
X162549999Y-105644819D02*
X162454761Y-105644819D01*
X162454761Y-105644819D02*
X162311904Y-105597200D01*
X162311904Y-105597200D02*
X162264285Y-105549580D01*
X162264285Y-105549580D02*
X162264285Y-105216247D01*
X162264285Y-105216247D02*
X162454761Y-105216247D01*
X161835713Y-105644819D02*
X161835713Y-104644819D01*
X161835713Y-104644819D02*
X161264285Y-105644819D01*
X161264285Y-105644819D02*
X161264285Y-104644819D01*
X160788094Y-105644819D02*
X160788094Y-104644819D01*
X160788094Y-104644819D02*
X160549999Y-104644819D01*
X160549999Y-104644819D02*
X160407142Y-104692438D01*
X160407142Y-104692438D02*
X160311904Y-104787676D01*
X160311904Y-104787676D02*
X160264285Y-104882914D01*
X160264285Y-104882914D02*
X160216666Y-105073390D01*
X160216666Y-105073390D02*
X160216666Y-105216247D01*
X160216666Y-105216247D02*
X160264285Y-105406723D01*
X160264285Y-105406723D02*
X160311904Y-105501961D01*
X160311904Y-105501961D02*
X160407142Y-105597200D01*
X160407142Y-105597200D02*
X160549999Y-105644819D01*
X160549999Y-105644819D02*
X160788094Y-105644819D01*
X162764285Y-118344819D02*
X162764285Y-117344819D01*
X162764285Y-117344819D02*
X162383333Y-117344819D01*
X162383333Y-117344819D02*
X162288095Y-117392438D01*
X162288095Y-117392438D02*
X162240476Y-117440057D01*
X162240476Y-117440057D02*
X162192857Y-117535295D01*
X162192857Y-117535295D02*
X162192857Y-117678152D01*
X162192857Y-117678152D02*
X162240476Y-117773390D01*
X162240476Y-117773390D02*
X162288095Y-117821009D01*
X162288095Y-117821009D02*
X162383333Y-117868628D01*
X162383333Y-117868628D02*
X162764285Y-117868628D01*
X161240476Y-118344819D02*
X161811904Y-118344819D01*
X161526190Y-118344819D02*
X161526190Y-117344819D01*
X161526190Y-117344819D02*
X161621428Y-117487676D01*
X161621428Y-117487676D02*
X161716666Y-117582914D01*
X161716666Y-117582914D02*
X161811904Y-117630533D01*
X160764285Y-118344819D02*
X160573809Y-118344819D01*
X160573809Y-118344819D02*
X160478571Y-118297200D01*
X160478571Y-118297200D02*
X160430952Y-118249580D01*
X160430952Y-118249580D02*
X160335714Y-118106723D01*
X160335714Y-118106723D02*
X160288095Y-117916247D01*
X160288095Y-117916247D02*
X160288095Y-117535295D01*
X160288095Y-117535295D02*
X160335714Y-117440057D01*
X160335714Y-117440057D02*
X160383333Y-117392438D01*
X160383333Y-117392438D02*
X160478571Y-117344819D01*
X160478571Y-117344819D02*
X160669047Y-117344819D01*
X160669047Y-117344819D02*
X160764285Y-117392438D01*
X160764285Y-117392438D02*
X160811904Y-117440057D01*
X160811904Y-117440057D02*
X160859523Y-117535295D01*
X160859523Y-117535295D02*
X160859523Y-117773390D01*
X160859523Y-117773390D02*
X160811904Y-117868628D01*
X160811904Y-117868628D02*
X160764285Y-117916247D01*
X160764285Y-117916247D02*
X160669047Y-117963866D01*
X160669047Y-117963866D02*
X160478571Y-117963866D01*
X160478571Y-117963866D02*
X160383333Y-117916247D01*
X160383333Y-117916247D02*
X160335714Y-117868628D01*
X160335714Y-117868628D02*
X160288095Y-117773390D01*
X162764285Y-131044819D02*
X162764285Y-130044819D01*
X162764285Y-130044819D02*
X162383333Y-130044819D01*
X162383333Y-130044819D02*
X162288095Y-130092438D01*
X162288095Y-130092438D02*
X162240476Y-130140057D01*
X162240476Y-130140057D02*
X162192857Y-130235295D01*
X162192857Y-130235295D02*
X162192857Y-130378152D01*
X162192857Y-130378152D02*
X162240476Y-130473390D01*
X162240476Y-130473390D02*
X162288095Y-130521009D01*
X162288095Y-130521009D02*
X162383333Y-130568628D01*
X162383333Y-130568628D02*
X162764285Y-130568628D01*
X161240476Y-131044819D02*
X161811904Y-131044819D01*
X161526190Y-131044819D02*
X161526190Y-130044819D01*
X161526190Y-130044819D02*
X161621428Y-130187676D01*
X161621428Y-130187676D02*
X161716666Y-130282914D01*
X161716666Y-130282914D02*
X161811904Y-130330533D01*
X160621428Y-130044819D02*
X160526190Y-130044819D01*
X160526190Y-130044819D02*
X160430952Y-130092438D01*
X160430952Y-130092438D02*
X160383333Y-130140057D01*
X160383333Y-130140057D02*
X160335714Y-130235295D01*
X160335714Y-130235295D02*
X160288095Y-130425771D01*
X160288095Y-130425771D02*
X160288095Y-130663866D01*
X160288095Y-130663866D02*
X160335714Y-130854342D01*
X160335714Y-130854342D02*
X160383333Y-130949580D01*
X160383333Y-130949580D02*
X160430952Y-130997200D01*
X160430952Y-130997200D02*
X160526190Y-131044819D01*
X160526190Y-131044819D02*
X160621428Y-131044819D01*
X160621428Y-131044819D02*
X160716666Y-130997200D01*
X160716666Y-130997200D02*
X160764285Y-130949580D01*
X160764285Y-130949580D02*
X160811904Y-130854342D01*
X160811904Y-130854342D02*
X160859523Y-130663866D01*
X160859523Y-130663866D02*
X160859523Y-130425771D01*
X160859523Y-130425771D02*
X160811904Y-130235295D01*
X160811904Y-130235295D02*
X160764285Y-130140057D01*
X160764285Y-130140057D02*
X160716666Y-130092438D01*
X160716666Y-130092438D02*
X160621428Y-130044819D01*
X165778094Y-128504819D02*
X165778094Y-127504819D01*
X165778094Y-127504819D02*
X165397142Y-127504819D01*
X165397142Y-127504819D02*
X165301904Y-127552438D01*
X165301904Y-127552438D02*
X165254285Y-127600057D01*
X165254285Y-127600057D02*
X165206666Y-127695295D01*
X165206666Y-127695295D02*
X165206666Y-127838152D01*
X165206666Y-127838152D02*
X165254285Y-127933390D01*
X165254285Y-127933390D02*
X165301904Y-127981009D01*
X165301904Y-127981009D02*
X165397142Y-128028628D01*
X165397142Y-128028628D02*
X165778094Y-128028628D01*
X164635237Y-127933390D02*
X164730475Y-127885771D01*
X164730475Y-127885771D02*
X164778094Y-127838152D01*
X164778094Y-127838152D02*
X164825713Y-127742914D01*
X164825713Y-127742914D02*
X164825713Y-127695295D01*
X164825713Y-127695295D02*
X164778094Y-127600057D01*
X164778094Y-127600057D02*
X164730475Y-127552438D01*
X164730475Y-127552438D02*
X164635237Y-127504819D01*
X164635237Y-127504819D02*
X164444761Y-127504819D01*
X164444761Y-127504819D02*
X164349523Y-127552438D01*
X164349523Y-127552438D02*
X164301904Y-127600057D01*
X164301904Y-127600057D02*
X164254285Y-127695295D01*
X164254285Y-127695295D02*
X164254285Y-127742914D01*
X164254285Y-127742914D02*
X164301904Y-127838152D01*
X164301904Y-127838152D02*
X164349523Y-127885771D01*
X164349523Y-127885771D02*
X164444761Y-127933390D01*
X164444761Y-127933390D02*
X164635237Y-127933390D01*
X164635237Y-127933390D02*
X164730475Y-127981009D01*
X164730475Y-127981009D02*
X164778094Y-128028628D01*
X164778094Y-128028628D02*
X164825713Y-128123866D01*
X164825713Y-128123866D02*
X164825713Y-128314342D01*
X164825713Y-128314342D02*
X164778094Y-128409580D01*
X164778094Y-128409580D02*
X164730475Y-128457200D01*
X164730475Y-128457200D02*
X164635237Y-128504819D01*
X164635237Y-128504819D02*
X164444761Y-128504819D01*
X164444761Y-128504819D02*
X164349523Y-128457200D01*
X164349523Y-128457200D02*
X164301904Y-128409580D01*
X164301904Y-128409580D02*
X164254285Y-128314342D01*
X164254285Y-128314342D02*
X164254285Y-128123866D01*
X164254285Y-128123866D02*
X164301904Y-128028628D01*
X164301904Y-128028628D02*
X164349523Y-127981009D01*
X164349523Y-127981009D02*
X164444761Y-127933390D01*
D11*
X85250000Y-93650000D02*
X85650000Y-93650000D01*
X85650000Y-93650000D02*
X85650000Y-93100000D01*
X85650000Y-93650000D02*
X85650000Y-94200000D01*
X85650000Y-93650000D02*
X86250000Y-93250000D01*
X86250000Y-93250000D02*
X86250000Y-94050000D01*
X86250000Y-93650000D02*
X86750000Y-93650000D01*
X86250000Y-94050000D02*
X85650000Y-93650000D01*
X67250000Y-103000000D02*
X67650000Y-103000000D01*
X67650000Y-103000000D02*
X67650000Y-102450000D01*
X67650000Y-103000000D02*
X67650000Y-103550000D01*
X67650000Y-103000000D02*
X68250000Y-102600000D01*
X68250000Y-102600000D02*
X68250000Y-103400000D01*
X68250000Y-103000000D02*
X68750000Y-103000000D01*
X68250000Y-103400000D02*
X67650000Y-103000000D01*
X139250000Y-95350000D02*
X139650000Y-95350000D01*
X139650000Y-95350000D02*
X139650000Y-94800000D01*
X139650000Y-95350000D02*
X139650000Y-95900000D01*
X139650000Y-95350000D02*
X140250000Y-94950000D01*
X140250000Y-94950000D02*
X140250000Y-95750000D01*
X140250000Y-95350000D02*
X140750000Y-95350000D01*
X140250000Y-95750000D02*
X139650000Y-95350000D01*
X121250000Y-144650000D02*
X121650000Y-144650000D01*
X121650000Y-144650000D02*
X121650000Y-144100000D01*
X121650000Y-144650000D02*
X121650000Y-145200000D01*
X121650000Y-144650000D02*
X122250000Y-144250000D01*
X122250000Y-144250000D02*
X122250000Y-145050000D01*
X122250000Y-144650000D02*
X122750000Y-144650000D01*
X122250000Y-145050000D02*
X121650000Y-144650000D01*
X139781381Y-172736600D02*
X140127791Y-172936600D01*
X140127791Y-172936600D02*
X139852791Y-173412914D01*
X140127791Y-172936600D02*
X140402791Y-172460286D01*
X140127791Y-172936600D02*
X140847406Y-172890190D01*
X140447406Y-173583010D02*
X140127791Y-172936600D01*
X140647406Y-173236600D02*
X141080419Y-173486600D01*
X140847406Y-172890190D02*
X140447406Y-173583010D01*
D10*
X169250000Y-159350000D02*
X169500000Y-159350000D01*
X169250000Y-165350000D02*
X169250000Y-159350000D01*
X169500000Y-165350000D02*
X169250000Y-165350000D01*
X172500000Y-159350000D02*
X172750000Y-159350000D01*
X172750000Y-159350000D02*
X172750000Y-165350000D01*
X172750000Y-165350000D02*
X172500000Y-165350000D01*
D11*
X49250000Y-154000000D02*
X49650000Y-154000000D01*
X49650000Y-154000000D02*
X49650000Y-153450000D01*
X49650000Y-154000000D02*
X49650000Y-154550000D01*
X49650000Y-154000000D02*
X50250000Y-153600000D01*
X50250000Y-153600000D02*
X50250000Y-154400000D01*
X50250000Y-154000000D02*
X50750000Y-154000000D01*
X50250000Y-154400000D02*
X49650000Y-154000000D01*
X139250000Y-146350000D02*
X139650000Y-146350000D01*
X139650000Y-146350000D02*
X139650000Y-145800000D01*
X139650000Y-146350000D02*
X139650000Y-146900000D01*
X139650000Y-146350000D02*
X140250000Y-145950000D01*
X140250000Y-145950000D02*
X140250000Y-146750000D01*
X140250000Y-146350000D02*
X140750000Y-146350000D01*
X140250000Y-146750000D02*
X139650000Y-146350000D01*
X154990770Y-184160370D02*
X155273613Y-184443213D01*
X155273613Y-184443213D02*
X154884704Y-184832121D01*
X155273613Y-184443213D02*
X155662521Y-184054304D01*
X155273613Y-184443213D02*
X155980719Y-184584634D01*
X155415034Y-185150319D02*
X155273613Y-184443213D01*
X155697877Y-184867477D02*
X156051430Y-185221030D01*
X155980719Y-184584634D02*
X155415034Y-185150319D01*
X122133556Y-165638586D02*
X122519926Y-165742113D01*
X122519926Y-165742113D02*
X122377575Y-166273374D01*
X122519926Y-165742113D02*
X122662276Y-165210854D01*
X122519926Y-165742113D02*
X123203009Y-165511034D01*
X122995954Y-166283775D02*
X122519926Y-165742113D01*
X123099481Y-165897405D02*
X123582444Y-166026814D01*
X123203009Y-165511034D02*
X122995954Y-166283775D01*
X67250000Y-137000000D02*
X67650000Y-137000000D01*
X67650000Y-137000000D02*
X67650000Y-136450000D01*
X67650000Y-137000000D02*
X67650000Y-137550000D01*
X67650000Y-137000000D02*
X68250000Y-136600000D01*
X68250000Y-136600000D02*
X68250000Y-137400000D01*
X68250000Y-137000000D02*
X68750000Y-137000000D01*
X68250000Y-137400000D02*
X67650000Y-137000000D01*
X49250000Y-137000000D02*
X49650000Y-137000000D01*
X49650000Y-137000000D02*
X49650000Y-136450000D01*
X49650000Y-137000000D02*
X49650000Y-137550000D01*
X49650000Y-137000000D02*
X50250000Y-136600000D01*
X50250000Y-136600000D02*
X50250000Y-137400000D01*
X50250000Y-137000000D02*
X50750000Y-137000000D01*
X50250000Y-137400000D02*
X49650000Y-137000000D01*
D12*
X168575000Y-138750000D02*
X168575000Y-140450000D01*
X168575000Y-141750000D02*
X168575000Y-141950000D01*
X169625000Y-136900000D02*
X170415000Y-136900000D01*
X170415000Y-143800000D02*
X169625000Y-143800000D01*
X171425000Y-137500000D02*
X171425000Y-143200000D01*
D11*
X49250000Y-120000000D02*
X49650000Y-120000000D01*
X49650000Y-120000000D02*
X49650000Y-119450000D01*
X49650000Y-120000000D02*
X49650000Y-120550000D01*
X49650000Y-120000000D02*
X50250000Y-119600000D01*
X50250000Y-119600000D02*
X50250000Y-120400000D01*
X50250000Y-120000000D02*
X50750000Y-120000000D01*
X50250000Y-120400000D02*
X49650000Y-120000000D01*
X67250000Y-120000000D02*
X67650000Y-120000000D01*
X67650000Y-120000000D02*
X67650000Y-119450000D01*
X67650000Y-120000000D02*
X67650000Y-120550000D01*
X67650000Y-120000000D02*
X68250000Y-119600000D01*
X68250000Y-119600000D02*
X68250000Y-120400000D01*
X68250000Y-120000000D02*
X68750000Y-120000000D01*
X68250000Y-120400000D02*
X67650000Y-120000000D01*
X103250000Y-124250000D02*
X103650000Y-124250000D01*
X103650000Y-124250000D02*
X103650000Y-123700000D01*
X103650000Y-124250000D02*
X103650000Y-124800000D01*
X103650000Y-124250000D02*
X104250000Y-123850000D01*
X104250000Y-123850000D02*
X104250000Y-124650000D01*
X104250000Y-124250000D02*
X104750000Y-124250000D01*
X104250000Y-124650000D02*
X103650000Y-124250000D01*
X49250000Y-103000000D02*
X49650000Y-103000000D01*
X49650000Y-103000000D02*
X49650000Y-102450000D01*
X49650000Y-103000000D02*
X49650000Y-103550000D01*
X49650000Y-103000000D02*
X50250000Y-102600000D01*
X50250000Y-102600000D02*
X50250000Y-103400000D01*
X50250000Y-103000000D02*
X50750000Y-103000000D01*
X50250000Y-103400000D02*
X49650000Y-103000000D01*
X67250000Y-154000000D02*
X67650000Y-154000000D01*
X67650000Y-154000000D02*
X67650000Y-153450000D01*
X67650000Y-154000000D02*
X67650000Y-154550000D01*
X67650000Y-154000000D02*
X68250000Y-153600000D01*
X68250000Y-153600000D02*
X68250000Y-154400000D01*
X68250000Y-154000000D02*
X68750000Y-154000000D01*
X68250000Y-154400000D02*
X67650000Y-154000000D01*
X139250000Y-112350000D02*
X139650000Y-112350000D01*
X139650000Y-112350000D02*
X139650000Y-111800000D01*
X139650000Y-112350000D02*
X139650000Y-112900000D01*
X139650000Y-112350000D02*
X140250000Y-111950000D01*
X140250000Y-111950000D02*
X140250000Y-112750000D01*
X140250000Y-112350000D02*
X140750000Y-112350000D01*
X140250000Y-112750000D02*
X139650000Y-112350000D01*
X85250000Y-110650000D02*
X85650000Y-110650000D01*
X85650000Y-110650000D02*
X85650000Y-110100000D01*
X85650000Y-110650000D02*
X85650000Y-111200000D01*
X85650000Y-110650000D02*
X86250000Y-110250000D01*
X86250000Y-110250000D02*
X86250000Y-111050000D01*
X86250000Y-110650000D02*
X86750000Y-110650000D01*
X86250000Y-111050000D02*
X85650000Y-110650000D01*
X103250000Y-107250000D02*
X103650000Y-107250000D01*
X103650000Y-107250000D02*
X103650000Y-106700000D01*
X103650000Y-107250000D02*
X103650000Y-107800000D01*
X103650000Y-107250000D02*
X104250000Y-106850000D01*
X104250000Y-106850000D02*
X104250000Y-107650000D01*
X104250000Y-107250000D02*
X104750000Y-107250000D01*
X104250000Y-107650000D02*
X103650000Y-107250000D01*
X103250000Y-141250000D02*
X103650000Y-141250000D01*
X103650000Y-141250000D02*
X103650000Y-140700000D01*
X103650000Y-141250000D02*
X103650000Y-141800000D01*
X103650000Y-141250000D02*
X104250000Y-140850000D01*
X104250000Y-140850000D02*
X104250000Y-141650000D01*
X104250000Y-141250000D02*
X104750000Y-141250000D01*
X104250000Y-141650000D02*
X103650000Y-141250000D01*
D12*
X154940000Y-138990000D02*
X154940000Y-139990000D01*
X154940000Y-146810000D02*
X154940000Y-145810000D01*
X155860000Y-138990000D02*
X154940000Y-138990000D01*
X155860000Y-146810000D02*
X154940000Y-146810000D01*
D11*
X156500000Y-137950000D02*
X157500000Y-137950000D01*
X159000000Y-138450000D02*
X159000000Y-137450000D01*
X159500000Y-137950000D02*
X158500000Y-137950000D01*
D12*
X160060000Y-146810000D02*
X161060000Y-146810000D01*
X160140000Y-138990000D02*
X161060000Y-138990000D01*
X161060000Y-138990000D02*
X161060000Y-139990000D01*
X161060000Y-146810000D02*
X161060000Y-145810000D01*
D11*
X121250000Y-93650000D02*
X121650000Y-93650000D01*
X121650000Y-93650000D02*
X121650000Y-93100000D01*
X121650000Y-93650000D02*
X121650000Y-94200000D01*
X121650000Y-93650000D02*
X122250000Y-93250000D01*
X122250000Y-93250000D02*
X122250000Y-94050000D01*
X122250000Y-93650000D02*
X122750000Y-93650000D01*
X122250000Y-94050000D02*
X121650000Y-93650000D01*
X85250000Y-127650000D02*
X85650000Y-127650000D01*
X85650000Y-127650000D02*
X85650000Y-127100000D01*
X85650000Y-127650000D02*
X85650000Y-128200000D01*
X85650000Y-127650000D02*
X86250000Y-127250000D01*
X86250000Y-127250000D02*
X86250000Y-128050000D01*
X86250000Y-127650000D02*
X86750000Y-127650000D01*
X86250000Y-128050000D02*
X85650000Y-127650000D01*
X121250000Y-110650000D02*
X121650000Y-110650000D01*
X121650000Y-110650000D02*
X121650000Y-110100000D01*
X121650000Y-110650000D02*
X121650000Y-111200000D01*
X121650000Y-110650000D02*
X122250000Y-110250000D01*
X122250000Y-110250000D02*
X122250000Y-111050000D01*
X122250000Y-110650000D02*
X122750000Y-110650000D01*
X122250000Y-111050000D02*
X121650000Y-110650000D01*
D12*
X154050000Y-101320000D02*
X154050000Y-131920000D01*
X156710000Y-101320000D02*
X154050000Y-101320000D01*
X156710000Y-101320000D02*
X156710000Y-131920000D01*
X156710000Y-131920000D02*
X154050000Y-131920000D01*
X169290000Y-101320000D02*
X169290000Y-131920000D01*
X171950000Y-101320000D02*
X169290000Y-101320000D01*
X171950000Y-101320000D02*
X171950000Y-131920000D01*
X171950000Y-103920000D02*
X169290000Y-103920000D01*
X171950000Y-131920000D02*
X169290000Y-131920000D01*
D11*
X139250000Y-129350000D02*
X139650000Y-129350000D01*
X139650000Y-129350000D02*
X139650000Y-128800000D01*
X139650000Y-129350000D02*
X139650000Y-129900000D01*
X139650000Y-129350000D02*
X140250000Y-128950000D01*
X140250000Y-128950000D02*
X140250000Y-129750000D01*
X140250000Y-129350000D02*
X140750000Y-129350000D01*
X140250000Y-129750000D02*
X139650000Y-129350000D01*
X85250000Y-144650000D02*
X85650000Y-144650000D01*
X85650000Y-144650000D02*
X85650000Y-144100000D01*
X85650000Y-144650000D02*
X85650000Y-145200000D01*
X85650000Y-144650000D02*
X86250000Y-144250000D01*
X86250000Y-144250000D02*
X86250000Y-145050000D01*
X86250000Y-144650000D02*
X86750000Y-144650000D01*
X86250000Y-145050000D02*
X85650000Y-144650000D01*
X103250000Y-90250000D02*
X103650000Y-90250000D01*
X103650000Y-90250000D02*
X103650000Y-89700000D01*
X103650000Y-90250000D02*
X103650000Y-90800000D01*
X103650000Y-90250000D02*
X104250000Y-89850000D01*
X104250000Y-89850000D02*
X104250000Y-90650000D01*
X104250000Y-90250000D02*
X104750000Y-90250000D01*
X104250000Y-90650000D02*
X103650000Y-90250000D01*
X121250000Y-127650000D02*
X121650000Y-127650000D01*
X121650000Y-127650000D02*
X121650000Y-127100000D01*
X121650000Y-127650000D02*
X121650000Y-128200000D01*
X121650000Y-127650000D02*
X122250000Y-127250000D01*
X122250000Y-127250000D02*
X122250000Y-128050000D01*
X122250000Y-127650000D02*
X122750000Y-127650000D01*
X122250000Y-128050000D02*
X121650000Y-127650000D01*
D10*
X66500000Y-124800000D02*
X66000000Y-125300000D01*
X66500000Y-129300000D02*
X66000000Y-128800000D01*
X68800000Y-129300000D02*
X66500000Y-129300000D01*
X69500000Y-124800000D02*
X66500000Y-124800000D01*
X70000000Y-125300000D02*
X69500000Y-124800000D01*
X70000000Y-125300000D02*
X70000000Y-126220000D01*
X70500000Y-131500000D02*
X70500000Y-130800000D01*
X70520000Y-126800000D02*
X75000000Y-126800000D01*
X75000000Y-126800000D02*
X75000000Y-127400000D01*
X75000000Y-131000000D02*
X75000000Y-131500000D01*
X75000000Y-131500000D02*
X70500000Y-131500000D01*
X68800000Y-129300000D02*
G75*
G02*
X70500000Y-130780000I110000J-1590000D01*
G01*
X70520000Y-126800000D02*
G75*
G02*
X70000000Y-126220000I30000J550000D01*
G01*
X48500000Y-124800000D02*
X48000000Y-125300000D01*
X48500000Y-129300000D02*
X48000000Y-128800000D01*
X50800000Y-129300000D02*
X48500000Y-129300000D01*
X51500000Y-124800000D02*
X48500000Y-124800000D01*
X52000000Y-125300000D02*
X51500000Y-124800000D01*
X52000000Y-125300000D02*
X52000000Y-126220000D01*
X52500000Y-131500000D02*
X52500000Y-130800000D01*
X52520000Y-126800000D02*
X57000000Y-126800000D01*
X57000000Y-126800000D02*
X57000000Y-127400000D01*
X57000000Y-131000000D02*
X57000000Y-131500000D01*
X57000000Y-131500000D02*
X52500000Y-131500000D01*
X50800000Y-129300000D02*
G75*
G02*
X52500000Y-130780000I110000J-1590000D01*
G01*
X52520000Y-126800000D02*
G75*
G02*
X52000000Y-126220000I30000J550000D01*
G01*
X48500000Y-90800000D02*
X48000000Y-91300000D01*
X48500000Y-95300000D02*
X48000000Y-94800000D01*
X50800000Y-95300000D02*
X48500000Y-95300000D01*
X51500000Y-90800000D02*
X48500000Y-90800000D01*
X52000000Y-91300000D02*
X51500000Y-90800000D01*
X52000000Y-91300000D02*
X52000000Y-92220000D01*
X52500000Y-97500000D02*
X52500000Y-96800000D01*
X52520000Y-92800000D02*
X57000000Y-92800000D01*
X57000000Y-92800000D02*
X57000000Y-93400000D01*
X57000000Y-97000000D02*
X57000000Y-97500000D01*
X57000000Y-97500000D02*
X52500000Y-97500000D01*
X50800000Y-95300000D02*
G75*
G02*
X52500000Y-96780000I110000J-1590000D01*
G01*
X52520000Y-92800000D02*
G75*
G02*
X52000000Y-92220000I30000J550000D01*
G01*
X66500000Y-107800000D02*
X66000000Y-108300000D01*
X66500000Y-112300000D02*
X66000000Y-111800000D01*
X68800000Y-112300000D02*
X66500000Y-112300000D01*
X69500000Y-107800000D02*
X66500000Y-107800000D01*
X70000000Y-108300000D02*
X69500000Y-107800000D01*
X70000000Y-108300000D02*
X70000000Y-109220000D01*
X70500000Y-114500000D02*
X70500000Y-113800000D01*
X70520000Y-109800000D02*
X75000000Y-109800000D01*
X75000000Y-109800000D02*
X75000000Y-110400000D01*
X75000000Y-114000000D02*
X75000000Y-114500000D01*
X75000000Y-114500000D02*
X70500000Y-114500000D01*
X68800000Y-112300000D02*
G75*
G02*
X70500000Y-113780000I110000J-1590000D01*
G01*
X70520000Y-109800000D02*
G75*
G02*
X70000000Y-109220000I30000J550000D01*
G01*
X84500000Y-98450000D02*
X84000000Y-98950000D01*
X84500000Y-102950000D02*
X84000000Y-102450000D01*
X86800000Y-102950000D02*
X84500000Y-102950000D01*
X87500000Y-98450000D02*
X84500000Y-98450000D01*
X88000000Y-98950000D02*
X87500000Y-98450000D01*
X88000000Y-98950000D02*
X88000000Y-99870000D01*
X88500000Y-105150000D02*
X88500000Y-104450000D01*
X88520000Y-100450000D02*
X93000000Y-100450000D01*
X93000000Y-100450000D02*
X93000000Y-101050000D01*
X93000000Y-104650000D02*
X93000000Y-105150000D01*
X93000000Y-105150000D02*
X88500000Y-105150000D01*
X86800000Y-102950000D02*
G75*
G02*
X88500000Y-104430000I110000J-1590000D01*
G01*
X88520000Y-100450000D02*
G75*
G02*
X88000000Y-99870000I30000J550000D01*
G01*
X159905135Y-178185345D02*
X159905135Y-177478238D01*
X161177927Y-182569407D02*
X161672902Y-182074432D01*
X161531481Y-179811690D02*
X159905135Y-178185345D01*
X163087115Y-175003364D02*
X162380009Y-175003364D01*
X164359908Y-185751387D02*
X161177927Y-182569407D01*
X164515471Y-179260147D02*
X167683310Y-182427985D01*
X164713461Y-185397834D02*
X164359908Y-185751387D01*
X165208436Y-177124685D02*
X163087115Y-175003364D01*
X165208436Y-177831791D02*
X164557898Y-178482330D01*
X165208436Y-177831791D02*
X165208436Y-177124685D01*
X167683310Y-182427985D02*
X167259045Y-182852249D01*
X161531481Y-179811690D02*
G75*
G02*
X161687044Y-182060290I-1046519J-1202082D01*
G01*
X164515471Y-179260147D02*
G75*
G02*
X164557898Y-178482330I410122J367695D01*
G01*
X142981862Y-165693206D02*
X142798849Y-165010193D01*
X144973720Y-166843206D02*
X142981862Y-165693206D01*
X145231862Y-161796092D02*
X144548849Y-161979104D01*
X145345964Y-169598462D02*
X145695964Y-168992244D01*
X147713284Y-165538142D02*
X151593078Y-167778142D01*
X147829938Y-163296092D02*
X145231862Y-161796092D01*
X148012951Y-163979104D02*
X147552951Y-164775848D01*
X148012951Y-163979104D02*
X147829938Y-163296092D01*
X149243078Y-171848462D02*
X145345964Y-169598462D01*
X149493078Y-171415449D02*
X149243078Y-171848462D01*
X151593078Y-167778142D02*
X151293078Y-168297758D01*
X144973720Y-166843206D02*
G75*
G02*
X145705963Y-168974923I-699737J-1431980D01*
G01*
X147713284Y-165538142D02*
G75*
G02*
X147552952Y-164775848I300981J461313D01*
G01*
X102500000Y-112050000D02*
X102000000Y-112550000D01*
X102500000Y-116550000D02*
X102000000Y-116050000D01*
X104800000Y-116550000D02*
X102500000Y-116550000D01*
X105500000Y-112050000D02*
X102500000Y-112050000D01*
X106000000Y-112550000D02*
X105500000Y-112050000D01*
X106000000Y-112550000D02*
X106000000Y-113470000D01*
X106500000Y-118750000D02*
X106500000Y-118050000D01*
X106520000Y-114050000D02*
X111000000Y-114050000D01*
X111000000Y-114050000D02*
X111000000Y-114650000D01*
X111000000Y-118250000D02*
X111000000Y-118750000D01*
X111000000Y-118750000D02*
X106500000Y-118750000D01*
X104800000Y-116550000D02*
G75*
G02*
X106500000Y-118030000I110000J-1590000D01*
G01*
X106520000Y-114050000D02*
G75*
G02*
X106000000Y-113470000I30000J550000D01*
G01*
X84500000Y-115450000D02*
X84000000Y-115950000D01*
X84500000Y-119950000D02*
X84000000Y-119450000D01*
X86800000Y-119950000D02*
X84500000Y-119950000D01*
X87500000Y-115450000D02*
X84500000Y-115450000D01*
X88000000Y-115950000D02*
X87500000Y-115450000D01*
X88000000Y-115950000D02*
X88000000Y-116870000D01*
X88500000Y-122150000D02*
X88500000Y-121450000D01*
X88520000Y-117450000D02*
X93000000Y-117450000D01*
X93000000Y-117450000D02*
X93000000Y-118050000D01*
X93000000Y-121650000D02*
X93000000Y-122150000D01*
X93000000Y-122150000D02*
X88500000Y-122150000D01*
X86800000Y-119950000D02*
G75*
G02*
X88500000Y-121430000I110000J-1590000D01*
G01*
X88520000Y-117450000D02*
G75*
G02*
X88000000Y-116870000I30000J550000D01*
G01*
X48500000Y-107800000D02*
X48000000Y-108300000D01*
X48500000Y-112300000D02*
X48000000Y-111800000D01*
X50800000Y-112300000D02*
X48500000Y-112300000D01*
X51500000Y-107800000D02*
X48500000Y-107800000D01*
X52000000Y-108300000D02*
X51500000Y-107800000D01*
X52000000Y-108300000D02*
X52000000Y-109220000D01*
X52500000Y-114500000D02*
X52500000Y-113800000D01*
X52520000Y-109800000D02*
X57000000Y-109800000D01*
X57000000Y-109800000D02*
X57000000Y-110400000D01*
X57000000Y-114000000D02*
X57000000Y-114500000D01*
X57000000Y-114500000D02*
X52500000Y-114500000D01*
X50800000Y-112300000D02*
G75*
G02*
X52500000Y-113780000I110000J-1590000D01*
G01*
X52520000Y-109800000D02*
G75*
G02*
X52000000Y-109220000I30000J550000D01*
G01*
X123402042Y-158006846D02*
X123048488Y-157394473D01*
X124566727Y-153660180D02*
X123954355Y-154013733D01*
X125623671Y-158602130D02*
X123402042Y-158006846D01*
X126696343Y-161167159D02*
X126877516Y-160491011D01*
X127464505Y-154436637D02*
X124566727Y-153660180D01*
X127818058Y-155049009D02*
X127464505Y-154436637D01*
X127818058Y-155049009D02*
X127579945Y-155937661D01*
X127932111Y-156632484D02*
X132259459Y-157791993D01*
X131043009Y-162331846D02*
X126696343Y-161167159D01*
X131172419Y-161848882D02*
X131043009Y-162331846D01*
X132259459Y-157791993D02*
X132104167Y-158371549D01*
X125623671Y-158602130D02*
G75*
G02*
X126882693Y-160471692I-305270J-1564292D01*
G01*
X127932111Y-156632484D02*
G75*
G02*
X127579944Y-155937661I171328J523495D01*
G01*
X138500000Y-100150000D02*
X138000000Y-100650000D01*
X138500000Y-104650000D02*
X138000000Y-104150000D01*
X140800000Y-104650000D02*
X138500000Y-104650000D01*
X141500000Y-100150000D02*
X138500000Y-100150000D01*
X142000000Y-100650000D02*
X141500000Y-100150000D01*
X142000000Y-100650000D02*
X142000000Y-101570000D01*
X142500000Y-106850000D02*
X142500000Y-106150000D01*
X142520000Y-102150000D02*
X147000000Y-102150000D01*
X147000000Y-102150000D02*
X147000000Y-102750000D01*
X147000000Y-106350000D02*
X147000000Y-106850000D01*
X147000000Y-106850000D02*
X142500000Y-106850000D01*
X140800000Y-104650000D02*
G75*
G02*
X142500000Y-106130000I110000J-1590000D01*
G01*
X142520000Y-102150000D02*
G75*
G02*
X142000000Y-101570000I30000J550000D01*
G01*
X102500000Y-78050000D02*
X102000000Y-78550000D01*
X102500000Y-82550000D02*
X102000000Y-82050000D01*
X104800000Y-82550000D02*
X102500000Y-82550000D01*
X105500000Y-78050000D02*
X102500000Y-78050000D01*
X106000000Y-78550000D02*
X105500000Y-78050000D01*
X106000000Y-78550000D02*
X106000000Y-79470000D01*
X106500000Y-84750000D02*
X106500000Y-84050000D01*
X106520000Y-80050000D02*
X111000000Y-80050000D01*
X111000000Y-80050000D02*
X111000000Y-80650000D01*
X111000000Y-84250000D02*
X111000000Y-84750000D01*
X111000000Y-84750000D02*
X106500000Y-84750000D01*
X104800000Y-82550000D02*
G75*
G02*
X106500000Y-84030000I110000J-1590000D01*
G01*
X106520000Y-80050000D02*
G75*
G02*
X106000000Y-79470000I30000J550000D01*
G01*
X102500000Y-129050000D02*
X102000000Y-129550000D01*
X102500000Y-133550000D02*
X102000000Y-133050000D01*
X104800000Y-133550000D02*
X102500000Y-133550000D01*
X105500000Y-129050000D02*
X102500000Y-129050000D01*
X106000000Y-129550000D02*
X105500000Y-129050000D01*
X106000000Y-129550000D02*
X106000000Y-130470000D01*
X106500000Y-135750000D02*
X106500000Y-135050000D01*
X106520000Y-131050000D02*
X111000000Y-131050000D01*
X111000000Y-131050000D02*
X111000000Y-131650000D01*
X111000000Y-135250000D02*
X111000000Y-135750000D01*
X111000000Y-135750000D02*
X106500000Y-135750000D01*
X104800000Y-133550000D02*
G75*
G02*
X106500000Y-135030000I110000J-1590000D01*
G01*
X106520000Y-131050000D02*
G75*
G02*
X106000000Y-130470000I30000J550000D01*
G01*
X138500000Y-117150000D02*
X138000000Y-117650000D01*
X138500000Y-121650000D02*
X138000000Y-121150000D01*
X140800000Y-121650000D02*
X138500000Y-121650000D01*
X141500000Y-117150000D02*
X138500000Y-117150000D01*
X142000000Y-117650000D02*
X141500000Y-117150000D01*
X142000000Y-117650000D02*
X142000000Y-118570000D01*
X142500000Y-123850000D02*
X142500000Y-123150000D01*
X142520000Y-119150000D02*
X147000000Y-119150000D01*
X147000000Y-119150000D02*
X147000000Y-119750000D01*
X147000000Y-123350000D02*
X147000000Y-123850000D01*
X147000000Y-123850000D02*
X142500000Y-123850000D01*
X140800000Y-121650000D02*
G75*
G02*
X142500000Y-123130000I110000J-1590000D01*
G01*
X142520000Y-119150000D02*
G75*
G02*
X142000000Y-118570000I30000J550000D01*
G01*
X138500000Y-134150000D02*
X138000000Y-134650000D01*
X138500000Y-138650000D02*
X138000000Y-138150000D01*
X140800000Y-138650000D02*
X138500000Y-138650000D01*
X141500000Y-134150000D02*
X138500000Y-134150000D01*
X142000000Y-134650000D02*
X141500000Y-134150000D01*
X142000000Y-134650000D02*
X142000000Y-135570000D01*
X142500000Y-140850000D02*
X142500000Y-140150000D01*
X142520000Y-136150000D02*
X147000000Y-136150000D01*
X147000000Y-136150000D02*
X147000000Y-136750000D01*
X147000000Y-140350000D02*
X147000000Y-140850000D01*
X147000000Y-140850000D02*
X142500000Y-140850000D01*
X140800000Y-138650000D02*
G75*
G02*
X142500000Y-140130000I110000J-1590000D01*
G01*
X142520000Y-136150000D02*
G75*
G02*
X142000000Y-135570000I30000J550000D01*
G01*
X66500000Y-90800000D02*
X66000000Y-91300000D01*
X66500000Y-95300000D02*
X66000000Y-94800000D01*
X68800000Y-95300000D02*
X66500000Y-95300000D01*
X69500000Y-90800000D02*
X66500000Y-90800000D01*
X70000000Y-91300000D02*
X69500000Y-90800000D01*
X70000000Y-91300000D02*
X70000000Y-92220000D01*
X70500000Y-97500000D02*
X70500000Y-96800000D01*
X70520000Y-92800000D02*
X75000000Y-92800000D01*
X75000000Y-92800000D02*
X75000000Y-93400000D01*
X75000000Y-97000000D02*
X75000000Y-97500000D01*
X75000000Y-97500000D02*
X70500000Y-97500000D01*
X68800000Y-95300000D02*
G75*
G02*
X70500000Y-96780000I110000J-1590000D01*
G01*
X70520000Y-92800000D02*
G75*
G02*
X70000000Y-92220000I30000J550000D01*
G01*
X138500000Y-83150000D02*
X138000000Y-83650000D01*
X138500000Y-87650000D02*
X138000000Y-87150000D01*
X140800000Y-87650000D02*
X138500000Y-87650000D01*
X141500000Y-83150000D02*
X138500000Y-83150000D01*
X142000000Y-83650000D02*
X141500000Y-83150000D01*
X142000000Y-83650000D02*
X142000000Y-84570000D01*
X142500000Y-89850000D02*
X142500000Y-89150000D01*
X142520000Y-85150000D02*
X147000000Y-85150000D01*
X147000000Y-85150000D02*
X147000000Y-85750000D01*
X147000000Y-89350000D02*
X147000000Y-89850000D01*
X147000000Y-89850000D02*
X142500000Y-89850000D01*
X140800000Y-87650000D02*
G75*
G02*
X142500000Y-89130000I110000J-1590000D01*
G01*
X142520000Y-85150000D02*
G75*
G02*
X142000000Y-84570000I30000J550000D01*
G01*
X120500000Y-115450000D02*
X120000000Y-115950000D01*
X120500000Y-119950000D02*
X120000000Y-119450000D01*
X122800000Y-119950000D02*
X120500000Y-119950000D01*
X123500000Y-115450000D02*
X120500000Y-115450000D01*
X124000000Y-115950000D02*
X123500000Y-115450000D01*
X124000000Y-115950000D02*
X124000000Y-116870000D01*
X124500000Y-122150000D02*
X124500000Y-121450000D01*
X124520000Y-117450000D02*
X129000000Y-117450000D01*
X129000000Y-117450000D02*
X129000000Y-118050000D01*
X129000000Y-121650000D02*
X129000000Y-122150000D01*
X129000000Y-122150000D02*
X124500000Y-122150000D01*
X122800000Y-119950000D02*
G75*
G02*
X124500000Y-121430000I110000J-1590000D01*
G01*
X124520000Y-117450000D02*
G75*
G02*
X124000000Y-116870000I30000J550000D01*
G01*
X120500000Y-81450000D02*
X120000000Y-81950000D01*
X120500000Y-85950000D02*
X120000000Y-85450000D01*
X122800000Y-85950000D02*
X120500000Y-85950000D01*
X123500000Y-81450000D02*
X120500000Y-81450000D01*
X124000000Y-81950000D02*
X123500000Y-81450000D01*
X124000000Y-81950000D02*
X124000000Y-82870000D01*
X124500000Y-88150000D02*
X124500000Y-87450000D01*
X124520000Y-83450000D02*
X129000000Y-83450000D01*
X129000000Y-83450000D02*
X129000000Y-84050000D01*
X129000000Y-87650000D02*
X129000000Y-88150000D01*
X129000000Y-88150000D02*
X124500000Y-88150000D01*
X122800000Y-85950000D02*
G75*
G02*
X124500000Y-87430000I110000J-1590000D01*
G01*
X124520000Y-83450000D02*
G75*
G02*
X124000000Y-82870000I30000J550000D01*
G01*
X120500000Y-132450000D02*
X120000000Y-132950000D01*
X120500000Y-136950000D02*
X120000000Y-136450000D01*
X122800000Y-136950000D02*
X120500000Y-136950000D01*
X123500000Y-132450000D02*
X120500000Y-132450000D01*
X124000000Y-132950000D02*
X123500000Y-132450000D01*
X124000000Y-132950000D02*
X124000000Y-133870000D01*
X124500000Y-139150000D02*
X124500000Y-138450000D01*
X124520000Y-134450000D02*
X129000000Y-134450000D01*
X129000000Y-134450000D02*
X129000000Y-135050000D01*
X129000000Y-138650000D02*
X129000000Y-139150000D01*
X129000000Y-139150000D02*
X124500000Y-139150000D01*
X122800000Y-136950000D02*
G75*
G02*
X124500000Y-138430000I110000J-1590000D01*
G01*
X124520000Y-134450000D02*
G75*
G02*
X124000000Y-133870000I30000J550000D01*
G01*
X84500000Y-132450000D02*
X84000000Y-132950000D01*
X84500000Y-136950000D02*
X84000000Y-136450000D01*
X86800000Y-136950000D02*
X84500000Y-136950000D01*
X87500000Y-132450000D02*
X84500000Y-132450000D01*
X88000000Y-132950000D02*
X87500000Y-132450000D01*
X88000000Y-132950000D02*
X88000000Y-133870000D01*
X88500000Y-139150000D02*
X88500000Y-138450000D01*
X88520000Y-134450000D02*
X93000000Y-134450000D01*
X93000000Y-134450000D02*
X93000000Y-135050000D01*
X93000000Y-138650000D02*
X93000000Y-139150000D01*
X93000000Y-139150000D02*
X88500000Y-139150000D01*
X86800000Y-136950000D02*
G75*
G02*
X88500000Y-138430000I110000J-1590000D01*
G01*
X88520000Y-134450000D02*
G75*
G02*
X88000000Y-133870000I30000J550000D01*
G01*
X48500000Y-141800000D02*
X48000000Y-142300000D01*
X48500000Y-146300000D02*
X48000000Y-145800000D01*
X50800000Y-146300000D02*
X48500000Y-146300000D01*
X51500000Y-141800000D02*
X48500000Y-141800000D01*
X52000000Y-142300000D02*
X51500000Y-141800000D01*
X52000000Y-142300000D02*
X52000000Y-143220000D01*
X52500000Y-148500000D02*
X52500000Y-147800000D01*
X52520000Y-143800000D02*
X57000000Y-143800000D01*
X57000000Y-143800000D02*
X57000000Y-144400000D01*
X57000000Y-148000000D02*
X57000000Y-148500000D01*
X57000000Y-148500000D02*
X52500000Y-148500000D01*
X50800000Y-146300000D02*
G75*
G02*
X52500000Y-147780000I110000J-1590000D01*
G01*
X52520000Y-143800000D02*
G75*
G02*
X52000000Y-143220000I30000J550000D01*
G01*
X120500000Y-98450000D02*
X120000000Y-98950000D01*
X120500000Y-102950000D02*
X120000000Y-102450000D01*
X122800000Y-102950000D02*
X120500000Y-102950000D01*
X123500000Y-98450000D02*
X120500000Y-98450000D01*
X124000000Y-98950000D02*
X123500000Y-98450000D01*
X124000000Y-98950000D02*
X124000000Y-99870000D01*
X124500000Y-105150000D02*
X124500000Y-104450000D01*
X124520000Y-100450000D02*
X129000000Y-100450000D01*
X129000000Y-100450000D02*
X129000000Y-101050000D01*
X129000000Y-104650000D02*
X129000000Y-105150000D01*
X129000000Y-105150000D02*
X124500000Y-105150000D01*
X122800000Y-102950000D02*
G75*
G02*
X124500000Y-104430000I110000J-1590000D01*
G01*
X124520000Y-100450000D02*
G75*
G02*
X124000000Y-99870000I30000J550000D01*
G01*
X66500000Y-141800000D02*
X66000000Y-142300000D01*
X66500000Y-146300000D02*
X66000000Y-145800000D01*
X68800000Y-146300000D02*
X66500000Y-146300000D01*
X69500000Y-141800000D02*
X66500000Y-141800000D01*
X70000000Y-142300000D02*
X69500000Y-141800000D01*
X70000000Y-142300000D02*
X70000000Y-143220000D01*
X70500000Y-148500000D02*
X70500000Y-147800000D01*
X70520000Y-143800000D02*
X75000000Y-143800000D01*
X75000000Y-143800000D02*
X75000000Y-144400000D01*
X75000000Y-148000000D02*
X75000000Y-148500000D01*
X75000000Y-148500000D02*
X70500000Y-148500000D01*
X68800000Y-146300000D02*
G75*
G02*
X70500000Y-147780000I110000J-1590000D01*
G01*
X70520000Y-143800000D02*
G75*
G02*
X70000000Y-143220000I30000J550000D01*
G01*
X84500000Y-81450000D02*
X84000000Y-81950000D01*
X84500000Y-85950000D02*
X84000000Y-85450000D01*
X86800000Y-85950000D02*
X84500000Y-85950000D01*
X87500000Y-81450000D02*
X84500000Y-81450000D01*
X88000000Y-81950000D02*
X87500000Y-81450000D01*
X88000000Y-81950000D02*
X88000000Y-82870000D01*
X88500000Y-88150000D02*
X88500000Y-87450000D01*
X88520000Y-83450000D02*
X93000000Y-83450000D01*
X93000000Y-83450000D02*
X93000000Y-84050000D01*
X93000000Y-87650000D02*
X93000000Y-88150000D01*
X93000000Y-88150000D02*
X88500000Y-88150000D01*
X86800000Y-85950000D02*
G75*
G02*
X88500000Y-87430000I110000J-1590000D01*
G01*
X88520000Y-83450000D02*
G75*
G02*
X88000000Y-82870000I30000J550000D01*
G01*
X102500000Y-95050000D02*
X102000000Y-95550000D01*
X102500000Y-99550000D02*
X102000000Y-99050000D01*
X104800000Y-99550000D02*
X102500000Y-99550000D01*
X105500000Y-95050000D02*
X102500000Y-95050000D01*
X106000000Y-95550000D02*
X105500000Y-95050000D01*
X106000000Y-95550000D02*
X106000000Y-96470000D01*
X106500000Y-101750000D02*
X106500000Y-101050000D01*
X106520000Y-97050000D02*
X111000000Y-97050000D01*
X111000000Y-97050000D02*
X111000000Y-97650000D01*
X111000000Y-101250000D02*
X111000000Y-101750000D01*
X111000000Y-101750000D02*
X106500000Y-101750000D01*
X104800000Y-99550000D02*
G75*
G02*
X106500000Y-101030000I110000J-1590000D01*
G01*
X106520000Y-97050000D02*
G75*
G02*
X106000000Y-96470000I30000J550000D01*
G01*
%LPC*%
G36*
G01*
X81251000Y-94539000D02*
X81251000Y-92761000D01*
G75*
G02*
X81301000Y-92711000I50000J0D01*
G01*
X83079000Y-92711000D01*
G75*
G02*
X83129000Y-92761000I0J-50000D01*
G01*
X83129000Y-94539000D01*
G75*
G02*
X83079000Y-94589000I-50000J0D01*
G01*
X81301000Y-94589000D01*
G75*
G02*
X81251000Y-94539000I0J50000D01*
G01*
G37*
G36*
G01*
X83850000Y-94250000D02*
X83850000Y-93050000D01*
G75*
G02*
X83900000Y-93000000I50000J0D01*
G01*
X84800000Y-93000000D01*
G75*
G02*
X84850000Y-93050000I0J-50000D01*
G01*
X84850000Y-94250000D01*
G75*
G02*
X84800000Y-94300000I-50000J0D01*
G01*
X83900000Y-94300000D01*
G75*
G02*
X83850000Y-94250000I0J50000D01*
G01*
G37*
G36*
G01*
X87150000Y-94250000D02*
X87150000Y-93050000D01*
G75*
G02*
X87200000Y-93000000I50000J0D01*
G01*
X88100000Y-93000000D01*
G75*
G02*
X88150000Y-93050000I0J-50000D01*
G01*
X88150000Y-94250000D01*
G75*
G02*
X88100000Y-94300000I-50000J0D01*
G01*
X87200000Y-94300000D01*
G75*
G02*
X87150000Y-94250000I0J50000D01*
G01*
G37*
D13*
X89810000Y-93650000D03*
G36*
G01*
X63251000Y-103889000D02*
X63251000Y-102111000D01*
G75*
G02*
X63301000Y-102061000I50000J0D01*
G01*
X65079000Y-102061000D01*
G75*
G02*
X65129000Y-102111000I0J-50000D01*
G01*
X65129000Y-103889000D01*
G75*
G02*
X65079000Y-103939000I-50000J0D01*
G01*
X63301000Y-103939000D01*
G75*
G02*
X63251000Y-103889000I0J50000D01*
G01*
G37*
G36*
G01*
X65850000Y-103600000D02*
X65850000Y-102400000D01*
G75*
G02*
X65900000Y-102350000I50000J0D01*
G01*
X66800000Y-102350000D01*
G75*
G02*
X66850000Y-102400000I0J-50000D01*
G01*
X66850000Y-103600000D01*
G75*
G02*
X66800000Y-103650000I-50000J0D01*
G01*
X65900000Y-103650000D01*
G75*
G02*
X65850000Y-103600000I0J50000D01*
G01*
G37*
G36*
G01*
X69150000Y-103600000D02*
X69150000Y-102400000D01*
G75*
G02*
X69200000Y-102350000I50000J0D01*
G01*
X70100000Y-102350000D01*
G75*
G02*
X70150000Y-102400000I0J-50000D01*
G01*
X70150000Y-103600000D01*
G75*
G02*
X70100000Y-103650000I-50000J0D01*
G01*
X69200000Y-103650000D01*
G75*
G02*
X69150000Y-103600000I0J50000D01*
G01*
G37*
X71810000Y-103000000D03*
G36*
G01*
X135251000Y-96239000D02*
X135251000Y-94461000D01*
G75*
G02*
X135301000Y-94411000I50000J0D01*
G01*
X137079000Y-94411000D01*
G75*
G02*
X137129000Y-94461000I0J-50000D01*
G01*
X137129000Y-96239000D01*
G75*
G02*
X137079000Y-96289000I-50000J0D01*
G01*
X135301000Y-96289000D01*
G75*
G02*
X135251000Y-96239000I0J50000D01*
G01*
G37*
G36*
G01*
X137850000Y-95950000D02*
X137850000Y-94750000D01*
G75*
G02*
X137900000Y-94700000I50000J0D01*
G01*
X138800000Y-94700000D01*
G75*
G02*
X138850000Y-94750000I0J-50000D01*
G01*
X138850000Y-95950000D01*
G75*
G02*
X138800000Y-96000000I-50000J0D01*
G01*
X137900000Y-96000000D01*
G75*
G02*
X137850000Y-95950000I0J50000D01*
G01*
G37*
G36*
G01*
X141150000Y-95950000D02*
X141150000Y-94750000D01*
G75*
G02*
X141200000Y-94700000I50000J0D01*
G01*
X142100000Y-94700000D01*
G75*
G02*
X142150000Y-94750000I0J-50000D01*
G01*
X142150000Y-95950000D01*
G75*
G02*
X142100000Y-96000000I-50000J0D01*
G01*
X141200000Y-96000000D01*
G75*
G02*
X141150000Y-95950000I0J50000D01*
G01*
G37*
X143810000Y-95350000D03*
G36*
G01*
X117251000Y-145539000D02*
X117251000Y-143761000D01*
G75*
G02*
X117301000Y-143711000I50000J0D01*
G01*
X119079000Y-143711000D01*
G75*
G02*
X119129000Y-143761000I0J-50000D01*
G01*
X119129000Y-145539000D01*
G75*
G02*
X119079000Y-145589000I-50000J0D01*
G01*
X117301000Y-145589000D01*
G75*
G02*
X117251000Y-145539000I0J50000D01*
G01*
G37*
G36*
G01*
X119850000Y-145250000D02*
X119850000Y-144050000D01*
G75*
G02*
X119900000Y-144000000I50000J0D01*
G01*
X120800000Y-144000000D01*
G75*
G02*
X120850000Y-144050000I0J-50000D01*
G01*
X120850000Y-145250000D01*
G75*
G02*
X120800000Y-145300000I-50000J0D01*
G01*
X119900000Y-145300000D01*
G75*
G02*
X119850000Y-145250000I0J50000D01*
G01*
G37*
G36*
G01*
X123150000Y-145250000D02*
X123150000Y-144050000D01*
G75*
G02*
X123200000Y-144000000I50000J0D01*
G01*
X124100000Y-144000000D01*
G75*
G02*
X124150000Y-144050000I0J-50000D01*
G01*
X124150000Y-145250000D01*
G75*
G02*
X124100000Y-145300000I-50000J0D01*
G01*
X123200000Y-145300000D01*
G75*
G02*
X123150000Y-145250000I0J50000D01*
G01*
G37*
X125810000Y-144650000D03*
G36*
G01*
X135873645Y-171506997D02*
X136762645Y-169967203D01*
G75*
G02*
X136830946Y-169948902I43301J-25000D01*
G01*
X138370740Y-170837902D01*
G75*
G02*
X138389041Y-170906203I-25000J-43301D01*
G01*
X137500041Y-172445997D01*
G75*
G02*
X137431740Y-172464298I-43301J25000D01*
G01*
X135891946Y-171575298D01*
G75*
G02*
X135873645Y-171506997I25000J43301D01*
G01*
G37*
G36*
G01*
X138268946Y-172556215D02*
X138868946Y-171516985D01*
G75*
G02*
X138937247Y-171498684I43301J-25000D01*
G01*
X139716669Y-171948684D01*
G75*
G02*
X139734970Y-172016985I-25000J-43301D01*
G01*
X139134970Y-173056215D01*
G75*
G02*
X139066669Y-173074516I-43301J25000D01*
G01*
X138287247Y-172624516D01*
G75*
G02*
X138268946Y-172556215I25000J43301D01*
G01*
G37*
G36*
G01*
X141126830Y-174206215D02*
X141726830Y-173166985D01*
G75*
G02*
X141795131Y-173148684I43301J-25000D01*
G01*
X142574553Y-173598684D01*
G75*
G02*
X142592854Y-173666985I-25000J-43301D01*
G01*
X141992854Y-174706215D01*
G75*
G02*
X141924553Y-174724516I-43301J25000D01*
G01*
X141145131Y-174274516D01*
G75*
G02*
X141126830Y-174206215I25000J43301D01*
G01*
G37*
X143730457Y-175016600D03*
D14*
X171000000Y-165600000D03*
X171000000Y-159100000D03*
G36*
G01*
X45251000Y-154889000D02*
X45251000Y-153111000D01*
G75*
G02*
X45301000Y-153061000I50000J0D01*
G01*
X47079000Y-153061000D01*
G75*
G02*
X47129000Y-153111000I0J-50000D01*
G01*
X47129000Y-154889000D01*
G75*
G02*
X47079000Y-154939000I-50000J0D01*
G01*
X45301000Y-154939000D01*
G75*
G02*
X45251000Y-154889000I0J50000D01*
G01*
G37*
G36*
G01*
X47850000Y-154600000D02*
X47850000Y-153400000D01*
G75*
G02*
X47900000Y-153350000I50000J0D01*
G01*
X48800000Y-153350000D01*
G75*
G02*
X48850000Y-153400000I0J-50000D01*
G01*
X48850000Y-154600000D01*
G75*
G02*
X48800000Y-154650000I-50000J0D01*
G01*
X47900000Y-154650000D01*
G75*
G02*
X47850000Y-154600000I0J50000D01*
G01*
G37*
G36*
G01*
X51150000Y-154600000D02*
X51150000Y-153400000D01*
G75*
G02*
X51200000Y-153350000I50000J0D01*
G01*
X52100000Y-153350000D01*
G75*
G02*
X52150000Y-153400000I0J-50000D01*
G01*
X52150000Y-154600000D01*
G75*
G02*
X52100000Y-154650000I-50000J0D01*
G01*
X51200000Y-154650000D01*
G75*
G02*
X51150000Y-154600000I0J50000D01*
G01*
G37*
D13*
X53810000Y-154000000D03*
G36*
G01*
X135251000Y-147239000D02*
X135251000Y-145461000D01*
G75*
G02*
X135301000Y-145411000I50000J0D01*
G01*
X137079000Y-145411000D01*
G75*
G02*
X137129000Y-145461000I0J-50000D01*
G01*
X137129000Y-147239000D01*
G75*
G02*
X137079000Y-147289000I-50000J0D01*
G01*
X135301000Y-147289000D01*
G75*
G02*
X135251000Y-147239000I0J50000D01*
G01*
G37*
G36*
G01*
X137850000Y-146950000D02*
X137850000Y-145750000D01*
G75*
G02*
X137900000Y-145700000I50000J0D01*
G01*
X138800000Y-145700000D01*
G75*
G02*
X138850000Y-145750000I0J-50000D01*
G01*
X138850000Y-146950000D01*
G75*
G02*
X138800000Y-147000000I-50000J0D01*
G01*
X137900000Y-147000000D01*
G75*
G02*
X137850000Y-146950000I0J50000D01*
G01*
G37*
G36*
G01*
X141150000Y-146950000D02*
X141150000Y-145750000D01*
G75*
G02*
X141200000Y-145700000I50000J0D01*
G01*
X142100000Y-145700000D01*
G75*
G02*
X142150000Y-145750000I0J-50000D01*
G01*
X142150000Y-146950000D01*
G75*
G02*
X142100000Y-147000000I-50000J0D01*
G01*
X141200000Y-147000000D01*
G75*
G02*
X141150000Y-146950000I0J50000D01*
G01*
G37*
X143810000Y-146350000D03*
G36*
G01*
X151534432Y-181961268D02*
X152791668Y-180704032D01*
G75*
G02*
X152862378Y-180704032I35355J-35355D01*
G01*
X154119614Y-181961268D01*
G75*
G02*
X154119614Y-182031978I-35355J-35355D01*
G01*
X152862378Y-183289214D01*
G75*
G02*
X152791668Y-183289214I-35355J35355D01*
G01*
X151534432Y-182031978D01*
G75*
G02*
X151534432Y-181961268I35355J35355D01*
G01*
G37*
G36*
G01*
X153576557Y-183594685D02*
X154425085Y-182746157D01*
G75*
G02*
X154495795Y-182746157I35355J-35355D01*
G01*
X155132191Y-183382553D01*
G75*
G02*
X155132191Y-183453263I-35355J-35355D01*
G01*
X154283663Y-184301791D01*
G75*
G02*
X154212953Y-184301791I-35355J35355D01*
G01*
X153576557Y-183665395D01*
G75*
G02*
X153576557Y-183594685I35355J35355D01*
G01*
G37*
G36*
G01*
X155910009Y-185928137D02*
X156758537Y-185079609D01*
G75*
G02*
X156829247Y-185079609I35355J-35355D01*
G01*
X157465643Y-185716005D01*
G75*
G02*
X157465643Y-185786715I-35355J-35355D01*
G01*
X156617115Y-186635243D01*
G75*
G02*
X156546405Y-186635243I-35355J35355D01*
G01*
X155910009Y-185998847D01*
G75*
G02*
X155910009Y-185928137I35355J35355D01*
G01*
G37*
X158215177Y-187384777D03*
G36*
G01*
X118040729Y-165462275D02*
X118500909Y-163744859D01*
G75*
G02*
X118562146Y-163709504I48296J-12941D01*
G01*
X120279562Y-164169684D01*
G75*
G02*
X120314917Y-164230921I-12941J-48296D01*
G01*
X119854737Y-165948337D01*
G75*
G02*
X119793500Y-165983692I-48296J12941D01*
G01*
X118076084Y-165523512D01*
G75*
G02*
X118040729Y-165462275I12941J48296D01*
G01*
G37*
G36*
G01*
X120625968Y-165855796D02*
X120936551Y-164696685D01*
G75*
G02*
X120997788Y-164661330I48296J-12941D01*
G01*
X121867121Y-164894267D01*
G75*
G02*
X121902476Y-164955504I-12941J-48296D01*
G01*
X121591893Y-166114615D01*
G75*
G02*
X121530656Y-166149970I-48296J12941D01*
G01*
X120661323Y-165917033D01*
G75*
G02*
X120625968Y-165855796I12941J48296D01*
G01*
G37*
G36*
G01*
X123813524Y-166709896D02*
X124124107Y-165550785D01*
G75*
G02*
X124185344Y-165515430I48296J-12941D01*
G01*
X125054677Y-165748367D01*
G75*
G02*
X125090032Y-165809604I-12941J-48296D01*
G01*
X124779449Y-166968715D01*
G75*
G02*
X124718212Y-167004070I-48296J12941D01*
G01*
X123848879Y-166771133D01*
G75*
G02*
X123813524Y-166709896I12941J48296D01*
G01*
G37*
X126538177Y-166818802D03*
G36*
G01*
X63251000Y-137889000D02*
X63251000Y-136111000D01*
G75*
G02*
X63301000Y-136061000I50000J0D01*
G01*
X65079000Y-136061000D01*
G75*
G02*
X65129000Y-136111000I0J-50000D01*
G01*
X65129000Y-137889000D01*
G75*
G02*
X65079000Y-137939000I-50000J0D01*
G01*
X63301000Y-137939000D01*
G75*
G02*
X63251000Y-137889000I0J50000D01*
G01*
G37*
G36*
G01*
X65850000Y-137600000D02*
X65850000Y-136400000D01*
G75*
G02*
X65900000Y-136350000I50000J0D01*
G01*
X66800000Y-136350000D01*
G75*
G02*
X66850000Y-136400000I0J-50000D01*
G01*
X66850000Y-137600000D01*
G75*
G02*
X66800000Y-137650000I-50000J0D01*
G01*
X65900000Y-137650000D01*
G75*
G02*
X65850000Y-137600000I0J50000D01*
G01*
G37*
G36*
G01*
X69150000Y-137600000D02*
X69150000Y-136400000D01*
G75*
G02*
X69200000Y-136350000I50000J0D01*
G01*
X70100000Y-136350000D01*
G75*
G02*
X70150000Y-136400000I0J-50000D01*
G01*
X70150000Y-137600000D01*
G75*
G02*
X70100000Y-137650000I-50000J0D01*
G01*
X69200000Y-137650000D01*
G75*
G02*
X69150000Y-137600000I0J50000D01*
G01*
G37*
X71810000Y-137000000D03*
G36*
G01*
X45251000Y-137889000D02*
X45251000Y-136111000D01*
G75*
G02*
X45301000Y-136061000I50000J0D01*
G01*
X47079000Y-136061000D01*
G75*
G02*
X47129000Y-136111000I0J-50000D01*
G01*
X47129000Y-137889000D01*
G75*
G02*
X47079000Y-137939000I-50000J0D01*
G01*
X45301000Y-137939000D01*
G75*
G02*
X45251000Y-137889000I0J50000D01*
G01*
G37*
G36*
G01*
X47850000Y-137600000D02*
X47850000Y-136400000D01*
G75*
G02*
X47900000Y-136350000I50000J0D01*
G01*
X48800000Y-136350000D01*
G75*
G02*
X48850000Y-136400000I0J-50000D01*
G01*
X48850000Y-137600000D01*
G75*
G02*
X48800000Y-137650000I-50000J0D01*
G01*
X47900000Y-137650000D01*
G75*
G02*
X47850000Y-137600000I0J50000D01*
G01*
G37*
G36*
G01*
X51150000Y-137600000D02*
X51150000Y-136400000D01*
G75*
G02*
X51200000Y-136350000I50000J0D01*
G01*
X52100000Y-136350000D01*
G75*
G02*
X52150000Y-136400000I0J-50000D01*
G01*
X52150000Y-137600000D01*
G75*
G02*
X52100000Y-137650000I-50000J0D01*
G01*
X51200000Y-137650000D01*
G75*
G02*
X51150000Y-137600000I0J50000D01*
G01*
G37*
X53810000Y-137000000D03*
G36*
G01*
X168515000Y-136150000D02*
X169315000Y-136150000D01*
G75*
G02*
X169365000Y-136200000I0J-50000D01*
G01*
X169365000Y-137200000D01*
G75*
G02*
X169315000Y-137250000I-50000J0D01*
G01*
X168515000Y-137250000D01*
G75*
G02*
X168465000Y-137200000I0J50000D01*
G01*
X168465000Y-136200000D01*
G75*
G02*
X168515000Y-136150000I50000J0D01*
G01*
G37*
G36*
G01*
X168515000Y-143450000D02*
X169315000Y-143450000D01*
G75*
G02*
X169365000Y-143500000I0J-50000D01*
G01*
X169365000Y-144500000D01*
G75*
G02*
X169315000Y-144550000I-50000J0D01*
G01*
X168515000Y-144550000D01*
G75*
G02*
X168465000Y-144500000I0J50000D01*
G01*
X168465000Y-143500000D01*
G75*
G02*
X168515000Y-143450000I50000J0D01*
G01*
G37*
D15*
X170025000Y-138850000D03*
X170025000Y-141850000D03*
G36*
G01*
X170725000Y-136150000D02*
X171525000Y-136150000D01*
G75*
G02*
X171575000Y-136200000I0J-50000D01*
G01*
X171575000Y-137200000D01*
G75*
G02*
X171525000Y-137250000I-50000J0D01*
G01*
X170725000Y-137250000D01*
G75*
G02*
X170675000Y-137200000I0J50000D01*
G01*
X170675000Y-136200000D01*
G75*
G02*
X170725000Y-136150000I50000J0D01*
G01*
G37*
G36*
G01*
X170725000Y-143450000D02*
X171525000Y-143450000D01*
G75*
G02*
X171575000Y-143500000I0J-50000D01*
G01*
X171575000Y-144500000D01*
G75*
G02*
X171525000Y-144550000I-50000J0D01*
G01*
X170725000Y-144550000D01*
G75*
G02*
X170675000Y-144500000I0J50000D01*
G01*
X170675000Y-143500000D01*
G75*
G02*
X170725000Y-143450000I50000J0D01*
G01*
G37*
G36*
G01*
X167515000Y-137700000D02*
X169015000Y-137700000D01*
G75*
G02*
X169065000Y-137750000I0J-50000D01*
G01*
X169065000Y-138450000D01*
G75*
G02*
X169015000Y-138500000I-50000J0D01*
G01*
X167515000Y-138500000D01*
G75*
G02*
X167465000Y-138450000I0J50000D01*
G01*
X167465000Y-137750000D01*
G75*
G02*
X167515000Y-137700000I50000J0D01*
G01*
G37*
G36*
G01*
X167515000Y-140700000D02*
X169015000Y-140700000D01*
G75*
G02*
X169065000Y-140750000I0J-50000D01*
G01*
X169065000Y-141450000D01*
G75*
G02*
X169015000Y-141500000I-50000J0D01*
G01*
X167515000Y-141500000D01*
G75*
G02*
X167465000Y-141450000I0J50000D01*
G01*
X167465000Y-140750000D01*
G75*
G02*
X167515000Y-140700000I50000J0D01*
G01*
G37*
G36*
G01*
X167515000Y-142200000D02*
X169015000Y-142200000D01*
G75*
G02*
X169065000Y-142250000I0J-50000D01*
G01*
X169065000Y-142950000D01*
G75*
G02*
X169015000Y-143000000I-50000J0D01*
G01*
X167515000Y-143000000D01*
G75*
G02*
X167465000Y-142950000I0J50000D01*
G01*
X167465000Y-142250000D01*
G75*
G02*
X167515000Y-142200000I50000J0D01*
G01*
G37*
G36*
G01*
X45251000Y-120889000D02*
X45251000Y-119111000D01*
G75*
G02*
X45301000Y-119061000I50000J0D01*
G01*
X47079000Y-119061000D01*
G75*
G02*
X47129000Y-119111000I0J-50000D01*
G01*
X47129000Y-120889000D01*
G75*
G02*
X47079000Y-120939000I-50000J0D01*
G01*
X45301000Y-120939000D01*
G75*
G02*
X45251000Y-120889000I0J50000D01*
G01*
G37*
G36*
G01*
X47850000Y-120600000D02*
X47850000Y-119400000D01*
G75*
G02*
X47900000Y-119350000I50000J0D01*
G01*
X48800000Y-119350000D01*
G75*
G02*
X48850000Y-119400000I0J-50000D01*
G01*
X48850000Y-120600000D01*
G75*
G02*
X48800000Y-120650000I-50000J0D01*
G01*
X47900000Y-120650000D01*
G75*
G02*
X47850000Y-120600000I0J50000D01*
G01*
G37*
G36*
G01*
X51150000Y-120600000D02*
X51150000Y-119400000D01*
G75*
G02*
X51200000Y-119350000I50000J0D01*
G01*
X52100000Y-119350000D01*
G75*
G02*
X52150000Y-119400000I0J-50000D01*
G01*
X52150000Y-120600000D01*
G75*
G02*
X52100000Y-120650000I-50000J0D01*
G01*
X51200000Y-120650000D01*
G75*
G02*
X51150000Y-120600000I0J50000D01*
G01*
G37*
D13*
X53810000Y-120000000D03*
G36*
G01*
X63251000Y-120889000D02*
X63251000Y-119111000D01*
G75*
G02*
X63301000Y-119061000I50000J0D01*
G01*
X65079000Y-119061000D01*
G75*
G02*
X65129000Y-119111000I0J-50000D01*
G01*
X65129000Y-120889000D01*
G75*
G02*
X65079000Y-120939000I-50000J0D01*
G01*
X63301000Y-120939000D01*
G75*
G02*
X63251000Y-120889000I0J50000D01*
G01*
G37*
G36*
G01*
X65850000Y-120600000D02*
X65850000Y-119400000D01*
G75*
G02*
X65900000Y-119350000I50000J0D01*
G01*
X66800000Y-119350000D01*
G75*
G02*
X66850000Y-119400000I0J-50000D01*
G01*
X66850000Y-120600000D01*
G75*
G02*
X66800000Y-120650000I-50000J0D01*
G01*
X65900000Y-120650000D01*
G75*
G02*
X65850000Y-120600000I0J50000D01*
G01*
G37*
G36*
G01*
X69150000Y-120600000D02*
X69150000Y-119400000D01*
G75*
G02*
X69200000Y-119350000I50000J0D01*
G01*
X70100000Y-119350000D01*
G75*
G02*
X70150000Y-119400000I0J-50000D01*
G01*
X70150000Y-120600000D01*
G75*
G02*
X70100000Y-120650000I-50000J0D01*
G01*
X69200000Y-120650000D01*
G75*
G02*
X69150000Y-120600000I0J50000D01*
G01*
G37*
X71810000Y-120000000D03*
G36*
G01*
X99251000Y-125139000D02*
X99251000Y-123361000D01*
G75*
G02*
X99301000Y-123311000I50000J0D01*
G01*
X101079000Y-123311000D01*
G75*
G02*
X101129000Y-123361000I0J-50000D01*
G01*
X101129000Y-125139000D01*
G75*
G02*
X101079000Y-125189000I-50000J0D01*
G01*
X99301000Y-125189000D01*
G75*
G02*
X99251000Y-125139000I0J50000D01*
G01*
G37*
G36*
G01*
X101850000Y-124850000D02*
X101850000Y-123650000D01*
G75*
G02*
X101900000Y-123600000I50000J0D01*
G01*
X102800000Y-123600000D01*
G75*
G02*
X102850000Y-123650000I0J-50000D01*
G01*
X102850000Y-124850000D01*
G75*
G02*
X102800000Y-124900000I-50000J0D01*
G01*
X101900000Y-124900000D01*
G75*
G02*
X101850000Y-124850000I0J50000D01*
G01*
G37*
G36*
G01*
X105150000Y-124850000D02*
X105150000Y-123650000D01*
G75*
G02*
X105200000Y-123600000I50000J0D01*
G01*
X106100000Y-123600000D01*
G75*
G02*
X106150000Y-123650000I0J-50000D01*
G01*
X106150000Y-124850000D01*
G75*
G02*
X106100000Y-124900000I-50000J0D01*
G01*
X105200000Y-124900000D01*
G75*
G02*
X105150000Y-124850000I0J50000D01*
G01*
G37*
X107810000Y-124250000D03*
G36*
G01*
X45251000Y-103889000D02*
X45251000Y-102111000D01*
G75*
G02*
X45301000Y-102061000I50000J0D01*
G01*
X47079000Y-102061000D01*
G75*
G02*
X47129000Y-102111000I0J-50000D01*
G01*
X47129000Y-103889000D01*
G75*
G02*
X47079000Y-103939000I-50000J0D01*
G01*
X45301000Y-103939000D01*
G75*
G02*
X45251000Y-103889000I0J50000D01*
G01*
G37*
G36*
G01*
X47850000Y-103600000D02*
X47850000Y-102400000D01*
G75*
G02*
X47900000Y-102350000I50000J0D01*
G01*
X48800000Y-102350000D01*
G75*
G02*
X48850000Y-102400000I0J-50000D01*
G01*
X48850000Y-103600000D01*
G75*
G02*
X48800000Y-103650000I-50000J0D01*
G01*
X47900000Y-103650000D01*
G75*
G02*
X47850000Y-103600000I0J50000D01*
G01*
G37*
G36*
G01*
X51150000Y-103600000D02*
X51150000Y-102400000D01*
G75*
G02*
X51200000Y-102350000I50000J0D01*
G01*
X52100000Y-102350000D01*
G75*
G02*
X52150000Y-102400000I0J-50000D01*
G01*
X52150000Y-103600000D01*
G75*
G02*
X52100000Y-103650000I-50000J0D01*
G01*
X51200000Y-103650000D01*
G75*
G02*
X51150000Y-103600000I0J50000D01*
G01*
G37*
X53810000Y-103000000D03*
D16*
X171400000Y-152350000D03*
X164400000Y-152350000D03*
D17*
X169800000Y-150050000D03*
X169800000Y-154650000D03*
X166800000Y-150050000D03*
X166800000Y-154650000D03*
D18*
X162250000Y-150050000D03*
X162250000Y-154650000D03*
G36*
G01*
X63251000Y-154889000D02*
X63251000Y-153111000D01*
G75*
G02*
X63301000Y-153061000I50000J0D01*
G01*
X65079000Y-153061000D01*
G75*
G02*
X65129000Y-153111000I0J-50000D01*
G01*
X65129000Y-154889000D01*
G75*
G02*
X65079000Y-154939000I-50000J0D01*
G01*
X63301000Y-154939000D01*
G75*
G02*
X63251000Y-154889000I0J50000D01*
G01*
G37*
G36*
G01*
X65850000Y-154600000D02*
X65850000Y-153400000D01*
G75*
G02*
X65900000Y-153350000I50000J0D01*
G01*
X66800000Y-153350000D01*
G75*
G02*
X66850000Y-153400000I0J-50000D01*
G01*
X66850000Y-154600000D01*
G75*
G02*
X66800000Y-154650000I-50000J0D01*
G01*
X65900000Y-154650000D01*
G75*
G02*
X65850000Y-154600000I0J50000D01*
G01*
G37*
G36*
G01*
X69150000Y-154600000D02*
X69150000Y-153400000D01*
G75*
G02*
X69200000Y-153350000I50000J0D01*
G01*
X70100000Y-153350000D01*
G75*
G02*
X70150000Y-153400000I0J-50000D01*
G01*
X70150000Y-154600000D01*
G75*
G02*
X70100000Y-154650000I-50000J0D01*
G01*
X69200000Y-154650000D01*
G75*
G02*
X69150000Y-154600000I0J50000D01*
G01*
G37*
D13*
X71810000Y-154000000D03*
G36*
G01*
X135251000Y-113239000D02*
X135251000Y-111461000D01*
G75*
G02*
X135301000Y-111411000I50000J0D01*
G01*
X137079000Y-111411000D01*
G75*
G02*
X137129000Y-111461000I0J-50000D01*
G01*
X137129000Y-113239000D01*
G75*
G02*
X137079000Y-113289000I-50000J0D01*
G01*
X135301000Y-113289000D01*
G75*
G02*
X135251000Y-113239000I0J50000D01*
G01*
G37*
G36*
G01*
X137850000Y-112950000D02*
X137850000Y-111750000D01*
G75*
G02*
X137900000Y-111700000I50000J0D01*
G01*
X138800000Y-111700000D01*
G75*
G02*
X138850000Y-111750000I0J-50000D01*
G01*
X138850000Y-112950000D01*
G75*
G02*
X138800000Y-113000000I-50000J0D01*
G01*
X137900000Y-113000000D01*
G75*
G02*
X137850000Y-112950000I0J50000D01*
G01*
G37*
G36*
G01*
X141150000Y-112950000D02*
X141150000Y-111750000D01*
G75*
G02*
X141200000Y-111700000I50000J0D01*
G01*
X142100000Y-111700000D01*
G75*
G02*
X142150000Y-111750000I0J-50000D01*
G01*
X142150000Y-112950000D01*
G75*
G02*
X142100000Y-113000000I-50000J0D01*
G01*
X141200000Y-113000000D01*
G75*
G02*
X141150000Y-112950000I0J50000D01*
G01*
G37*
X143810000Y-112350000D03*
G36*
G01*
X81251000Y-111539000D02*
X81251000Y-109761000D01*
G75*
G02*
X81301000Y-109711000I50000J0D01*
G01*
X83079000Y-109711000D01*
G75*
G02*
X83129000Y-109761000I0J-50000D01*
G01*
X83129000Y-111539000D01*
G75*
G02*
X83079000Y-111589000I-50000J0D01*
G01*
X81301000Y-111589000D01*
G75*
G02*
X81251000Y-111539000I0J50000D01*
G01*
G37*
G36*
G01*
X83850000Y-111250000D02*
X83850000Y-110050000D01*
G75*
G02*
X83900000Y-110000000I50000J0D01*
G01*
X84800000Y-110000000D01*
G75*
G02*
X84850000Y-110050000I0J-50000D01*
G01*
X84850000Y-111250000D01*
G75*
G02*
X84800000Y-111300000I-50000J0D01*
G01*
X83900000Y-111300000D01*
G75*
G02*
X83850000Y-111250000I0J50000D01*
G01*
G37*
G36*
G01*
X87150000Y-111250000D02*
X87150000Y-110050000D01*
G75*
G02*
X87200000Y-110000000I50000J0D01*
G01*
X88100000Y-110000000D01*
G75*
G02*
X88150000Y-110050000I0J-50000D01*
G01*
X88150000Y-111250000D01*
G75*
G02*
X88100000Y-111300000I-50000J0D01*
G01*
X87200000Y-111300000D01*
G75*
G02*
X87150000Y-111250000I0J50000D01*
G01*
G37*
X89810000Y-110650000D03*
G36*
G01*
X99251000Y-108139000D02*
X99251000Y-106361000D01*
G75*
G02*
X99301000Y-106311000I50000J0D01*
G01*
X101079000Y-106311000D01*
G75*
G02*
X101129000Y-106361000I0J-50000D01*
G01*
X101129000Y-108139000D01*
G75*
G02*
X101079000Y-108189000I-50000J0D01*
G01*
X99301000Y-108189000D01*
G75*
G02*
X99251000Y-108139000I0J50000D01*
G01*
G37*
G36*
G01*
X101850000Y-107850000D02*
X101850000Y-106650000D01*
G75*
G02*
X101900000Y-106600000I50000J0D01*
G01*
X102800000Y-106600000D01*
G75*
G02*
X102850000Y-106650000I0J-50000D01*
G01*
X102850000Y-107850000D01*
G75*
G02*
X102800000Y-107900000I-50000J0D01*
G01*
X101900000Y-107900000D01*
G75*
G02*
X101850000Y-107850000I0J50000D01*
G01*
G37*
G36*
G01*
X105150000Y-107850000D02*
X105150000Y-106650000D01*
G75*
G02*
X105200000Y-106600000I50000J0D01*
G01*
X106100000Y-106600000D01*
G75*
G02*
X106150000Y-106650000I0J-50000D01*
G01*
X106150000Y-107850000D01*
G75*
G02*
X106100000Y-107900000I-50000J0D01*
G01*
X105200000Y-107900000D01*
G75*
G02*
X105150000Y-107850000I0J50000D01*
G01*
G37*
X107810000Y-107250000D03*
G36*
G01*
X99251000Y-142139000D02*
X99251000Y-140361000D01*
G75*
G02*
X99301000Y-140311000I50000J0D01*
G01*
X101079000Y-140311000D01*
G75*
G02*
X101129000Y-140361000I0J-50000D01*
G01*
X101129000Y-142139000D01*
G75*
G02*
X101079000Y-142189000I-50000J0D01*
G01*
X99301000Y-142189000D01*
G75*
G02*
X99251000Y-142139000I0J50000D01*
G01*
G37*
G36*
G01*
X101850000Y-141850000D02*
X101850000Y-140650000D01*
G75*
G02*
X101900000Y-140600000I50000J0D01*
G01*
X102800000Y-140600000D01*
G75*
G02*
X102850000Y-140650000I0J-50000D01*
G01*
X102850000Y-141850000D01*
G75*
G02*
X102800000Y-141900000I-50000J0D01*
G01*
X101900000Y-141900000D01*
G75*
G02*
X101850000Y-141850000I0J50000D01*
G01*
G37*
G36*
G01*
X105150000Y-141850000D02*
X105150000Y-140650000D01*
G75*
G02*
X105200000Y-140600000I50000J0D01*
G01*
X106100000Y-140600000D01*
G75*
G02*
X106150000Y-140650000I0J-50000D01*
G01*
X106150000Y-141850000D01*
G75*
G02*
X106100000Y-141900000I-50000J0D01*
G01*
X105200000Y-141900000D01*
G75*
G02*
X105150000Y-141850000I0J50000D01*
G01*
G37*
X107810000Y-141250000D03*
G36*
X157635355Y-142248645D02*
G01*
X157650000Y-142284000D01*
X157650000Y-143534000D01*
X157635355Y-143569355D01*
X157600000Y-143584000D01*
X157564645Y-143569355D01*
X157000000Y-143004710D01*
X156435355Y-143569355D01*
X156400000Y-143584000D01*
X156364645Y-143569355D01*
X156350000Y-143534000D01*
X156350000Y-142284000D01*
X156364645Y-142248645D01*
X156400000Y-142234000D01*
X157600000Y-142234000D01*
X157635355Y-142248645D01*
G37*
G36*
X159635355Y-142248645D02*
G01*
X159650000Y-142284000D01*
X159650000Y-143534000D01*
X159635355Y-143569355D01*
X159600000Y-143584000D01*
X159564645Y-143569355D01*
X159000000Y-143004710D01*
X158435355Y-143569355D01*
X158400000Y-143584000D01*
X158364645Y-143569355D01*
X158350000Y-143534000D01*
X158350000Y-142284000D01*
X158364645Y-142248645D01*
X158400000Y-142234000D01*
X159600000Y-142234000D01*
X159635355Y-142248645D01*
G37*
D19*
X159000000Y-145350000D03*
X157000000Y-145350000D03*
G36*
X159035355Y-143114645D02*
G01*
X159635355Y-143714645D01*
X159650000Y-143750000D01*
X159650000Y-143950000D01*
X159635355Y-143985355D01*
X159600000Y-144000000D01*
X158400000Y-144000000D01*
X158364645Y-143985355D01*
X158350000Y-143950000D01*
X158350000Y-143750000D01*
X158364645Y-143714645D01*
X158964645Y-143114645D01*
X159000000Y-143100000D01*
X159035355Y-143114645D01*
G37*
G36*
X157035355Y-143114645D02*
G01*
X157635355Y-143714645D01*
X157650000Y-143750000D01*
X157650000Y-143950000D01*
X157635355Y-143985355D01*
X157600000Y-144000000D01*
X156400000Y-144000000D01*
X156364645Y-143985355D01*
X156350000Y-143950000D01*
X156350000Y-143750000D01*
X156364645Y-143714645D01*
X156964645Y-143114645D01*
X157000000Y-143100000D01*
X157035355Y-143114645D01*
G37*
G36*
G01*
X117251000Y-94539000D02*
X117251000Y-92761000D01*
G75*
G02*
X117301000Y-92711000I50000J0D01*
G01*
X119079000Y-92711000D01*
G75*
G02*
X119129000Y-92761000I0J-50000D01*
G01*
X119129000Y-94539000D01*
G75*
G02*
X119079000Y-94589000I-50000J0D01*
G01*
X117301000Y-94589000D01*
G75*
G02*
X117251000Y-94539000I0J50000D01*
G01*
G37*
G36*
G01*
X119850000Y-94250000D02*
X119850000Y-93050000D01*
G75*
G02*
X119900000Y-93000000I50000J0D01*
G01*
X120800000Y-93000000D01*
G75*
G02*
X120850000Y-93050000I0J-50000D01*
G01*
X120850000Y-94250000D01*
G75*
G02*
X120800000Y-94300000I-50000J0D01*
G01*
X119900000Y-94300000D01*
G75*
G02*
X119850000Y-94250000I0J50000D01*
G01*
G37*
G36*
G01*
X123150000Y-94250000D02*
X123150000Y-93050000D01*
G75*
G02*
X123200000Y-93000000I50000J0D01*
G01*
X124100000Y-93000000D01*
G75*
G02*
X124150000Y-93050000I0J-50000D01*
G01*
X124150000Y-94250000D01*
G75*
G02*
X124100000Y-94300000I-50000J0D01*
G01*
X123200000Y-94300000D01*
G75*
G02*
X123150000Y-94250000I0J50000D01*
G01*
G37*
D13*
X125810000Y-93650000D03*
G36*
G01*
X81251000Y-128539000D02*
X81251000Y-126761000D01*
G75*
G02*
X81301000Y-126711000I50000J0D01*
G01*
X83079000Y-126711000D01*
G75*
G02*
X83129000Y-126761000I0J-50000D01*
G01*
X83129000Y-128539000D01*
G75*
G02*
X83079000Y-128589000I-50000J0D01*
G01*
X81301000Y-128589000D01*
G75*
G02*
X81251000Y-128539000I0J50000D01*
G01*
G37*
G36*
G01*
X83850000Y-128250000D02*
X83850000Y-127050000D01*
G75*
G02*
X83900000Y-127000000I50000J0D01*
G01*
X84800000Y-127000000D01*
G75*
G02*
X84850000Y-127050000I0J-50000D01*
G01*
X84850000Y-128250000D01*
G75*
G02*
X84800000Y-128300000I-50000J0D01*
G01*
X83900000Y-128300000D01*
G75*
G02*
X83850000Y-128250000I0J50000D01*
G01*
G37*
G36*
G01*
X87150000Y-128250000D02*
X87150000Y-127050000D01*
G75*
G02*
X87200000Y-127000000I50000J0D01*
G01*
X88100000Y-127000000D01*
G75*
G02*
X88150000Y-127050000I0J-50000D01*
G01*
X88150000Y-128250000D01*
G75*
G02*
X88100000Y-128300000I-50000J0D01*
G01*
X87200000Y-128300000D01*
G75*
G02*
X87150000Y-128250000I0J50000D01*
G01*
G37*
X89810000Y-127650000D03*
G36*
G01*
X117251000Y-111539000D02*
X117251000Y-109761000D01*
G75*
G02*
X117301000Y-109711000I50000J0D01*
G01*
X119079000Y-109711000D01*
G75*
G02*
X119129000Y-109761000I0J-50000D01*
G01*
X119129000Y-111539000D01*
G75*
G02*
X119079000Y-111589000I-50000J0D01*
G01*
X117301000Y-111589000D01*
G75*
G02*
X117251000Y-111539000I0J50000D01*
G01*
G37*
G36*
G01*
X119850000Y-111250000D02*
X119850000Y-110050000D01*
G75*
G02*
X119900000Y-110000000I50000J0D01*
G01*
X120800000Y-110000000D01*
G75*
G02*
X120850000Y-110050000I0J-50000D01*
G01*
X120850000Y-111250000D01*
G75*
G02*
X120800000Y-111300000I-50000J0D01*
G01*
X119900000Y-111300000D01*
G75*
G02*
X119850000Y-111250000I0J50000D01*
G01*
G37*
G36*
G01*
X123150000Y-111250000D02*
X123150000Y-110050000D01*
G75*
G02*
X123200000Y-110000000I50000J0D01*
G01*
X124100000Y-110000000D01*
G75*
G02*
X124150000Y-110050000I0J-50000D01*
G01*
X124150000Y-111250000D01*
G75*
G02*
X124100000Y-111300000I-50000J0D01*
G01*
X123200000Y-111300000D01*
G75*
G02*
X123150000Y-111250000I0J50000D01*
G01*
G37*
X125810000Y-110650000D03*
G36*
G01*
X168130000Y-103250000D02*
X168130000Y-102050000D01*
G75*
G02*
X168180000Y-102000000I50000J0D01*
G01*
X168780000Y-102000000D01*
G75*
G02*
X168830000Y-102050000I0J-50000D01*
G01*
X168830000Y-103250000D01*
G75*
G02*
X168780000Y-103300000I-50000J0D01*
G01*
X168180000Y-103300000D01*
G75*
G02*
X168130000Y-103250000I0J50000D01*
G01*
G37*
D14*
X170620000Y-102650000D03*
G36*
G01*
X168130000Y-105790000D02*
X168130000Y-104590000D01*
G75*
G02*
X168180000Y-104540000I50000J0D01*
G01*
X168780000Y-104540000D01*
G75*
G02*
X168830000Y-104590000I0J-50000D01*
G01*
X168830000Y-105790000D01*
G75*
G02*
X168780000Y-105840000I-50000J0D01*
G01*
X168180000Y-105840000D01*
G75*
G02*
X168130000Y-105790000I0J50000D01*
G01*
G37*
X170620000Y-105190000D03*
G36*
G01*
X168130000Y-108330000D02*
X168130000Y-107130000D01*
G75*
G02*
X168180000Y-107080000I50000J0D01*
G01*
X168780000Y-107080000D01*
G75*
G02*
X168830000Y-107130000I0J-50000D01*
G01*
X168830000Y-108330000D01*
G75*
G02*
X168780000Y-108380000I-50000J0D01*
G01*
X168180000Y-108380000D01*
G75*
G02*
X168130000Y-108330000I0J50000D01*
G01*
G37*
X170620000Y-107730000D03*
G36*
G01*
X168130000Y-110870000D02*
X168130000Y-109670000D01*
G75*
G02*
X168180000Y-109620000I50000J0D01*
G01*
X168780000Y-109620000D01*
G75*
G02*
X168830000Y-109670000I0J-50000D01*
G01*
X168830000Y-110870000D01*
G75*
G02*
X168780000Y-110920000I-50000J0D01*
G01*
X168180000Y-110920000D01*
G75*
G02*
X168130000Y-110870000I0J50000D01*
G01*
G37*
X170620000Y-110270000D03*
G36*
G01*
X168130000Y-113410000D02*
X168130000Y-112210000D01*
G75*
G02*
X168180000Y-112160000I50000J0D01*
G01*
X168780000Y-112160000D01*
G75*
G02*
X168830000Y-112210000I0J-50000D01*
G01*
X168830000Y-113410000D01*
G75*
G02*
X168780000Y-113460000I-50000J0D01*
G01*
X168180000Y-113460000D01*
G75*
G02*
X168130000Y-113410000I0J50000D01*
G01*
G37*
X170620000Y-112810000D03*
G36*
G01*
X168130000Y-115950000D02*
X168130000Y-114750000D01*
G75*
G02*
X168180000Y-114700000I50000J0D01*
G01*
X168780000Y-114700000D01*
G75*
G02*
X168830000Y-114750000I0J-50000D01*
G01*
X168830000Y-115950000D01*
G75*
G02*
X168780000Y-116000000I-50000J0D01*
G01*
X168180000Y-116000000D01*
G75*
G02*
X168130000Y-115950000I0J50000D01*
G01*
G37*
X170620000Y-115350000D03*
G36*
G01*
X168130000Y-118490000D02*
X168130000Y-117290000D01*
G75*
G02*
X168180000Y-117240000I50000J0D01*
G01*
X168780000Y-117240000D01*
G75*
G02*
X168830000Y-117290000I0J-50000D01*
G01*
X168830000Y-118490000D01*
G75*
G02*
X168780000Y-118540000I-50000J0D01*
G01*
X168180000Y-118540000D01*
G75*
G02*
X168130000Y-118490000I0J50000D01*
G01*
G37*
X170620000Y-117890000D03*
G36*
G01*
X168130000Y-121030000D02*
X168130000Y-119830000D01*
G75*
G02*
X168180000Y-119780000I50000J0D01*
G01*
X168780000Y-119780000D01*
G75*
G02*
X168830000Y-119830000I0J-50000D01*
G01*
X168830000Y-121030000D01*
G75*
G02*
X168780000Y-121080000I-50000J0D01*
G01*
X168180000Y-121080000D01*
G75*
G02*
X168130000Y-121030000I0J50000D01*
G01*
G37*
X170620000Y-120430000D03*
G36*
G01*
X168130000Y-123570000D02*
X168130000Y-122370000D01*
G75*
G02*
X168180000Y-122320000I50000J0D01*
G01*
X168780000Y-122320000D01*
G75*
G02*
X168830000Y-122370000I0J-50000D01*
G01*
X168830000Y-123570000D01*
G75*
G02*
X168780000Y-123620000I-50000J0D01*
G01*
X168180000Y-123620000D01*
G75*
G02*
X168130000Y-123570000I0J50000D01*
G01*
G37*
X170620000Y-122970000D03*
G36*
G01*
X168130000Y-126110000D02*
X168130000Y-124910000D01*
G75*
G02*
X168180000Y-124860000I50000J0D01*
G01*
X168780000Y-124860000D01*
G75*
G02*
X168830000Y-124910000I0J-50000D01*
G01*
X168830000Y-126110000D01*
G75*
G02*
X168780000Y-126160000I-50000J0D01*
G01*
X168180000Y-126160000D01*
G75*
G02*
X168130000Y-126110000I0J50000D01*
G01*
G37*
X170620000Y-125510000D03*
G36*
G01*
X168130000Y-128650000D02*
X168130000Y-127450000D01*
G75*
G02*
X168180000Y-127400000I50000J0D01*
G01*
X168780000Y-127400000D01*
G75*
G02*
X168830000Y-127450000I0J-50000D01*
G01*
X168830000Y-128650000D01*
G75*
G02*
X168780000Y-128700000I-50000J0D01*
G01*
X168180000Y-128700000D01*
G75*
G02*
X168130000Y-128650000I0J50000D01*
G01*
G37*
X170620000Y-128050000D03*
G36*
G01*
X168130000Y-131190000D02*
X168130000Y-129990000D01*
G75*
G02*
X168180000Y-129940000I50000J0D01*
G01*
X168780000Y-129940000D01*
G75*
G02*
X168830000Y-129990000I0J-50000D01*
G01*
X168830000Y-131190000D01*
G75*
G02*
X168780000Y-131240000I-50000J0D01*
G01*
X168180000Y-131240000D01*
G75*
G02*
X168130000Y-131190000I0J50000D01*
G01*
G37*
X170620000Y-130590000D03*
X155380000Y-130590000D03*
G36*
G01*
X157170000Y-131190000D02*
X157170000Y-129990000D01*
G75*
G02*
X157220000Y-129940000I50000J0D01*
G01*
X157820000Y-129940000D01*
G75*
G02*
X157870000Y-129990000I0J-50000D01*
G01*
X157870000Y-131190000D01*
G75*
G02*
X157820000Y-131240000I-50000J0D01*
G01*
X157220000Y-131240000D01*
G75*
G02*
X157170000Y-131190000I0J50000D01*
G01*
G37*
X155380000Y-128050000D03*
G36*
G01*
X157170000Y-128650000D02*
X157170000Y-127450000D01*
G75*
G02*
X157220000Y-127400000I50000J0D01*
G01*
X157820000Y-127400000D01*
G75*
G02*
X157870000Y-127450000I0J-50000D01*
G01*
X157870000Y-128650000D01*
G75*
G02*
X157820000Y-128700000I-50000J0D01*
G01*
X157220000Y-128700000D01*
G75*
G02*
X157170000Y-128650000I0J50000D01*
G01*
G37*
X155380000Y-125510000D03*
G36*
G01*
X157170000Y-126110000D02*
X157170000Y-124910000D01*
G75*
G02*
X157220000Y-124860000I50000J0D01*
G01*
X157820000Y-124860000D01*
G75*
G02*
X157870000Y-124910000I0J-50000D01*
G01*
X157870000Y-126110000D01*
G75*
G02*
X157820000Y-126160000I-50000J0D01*
G01*
X157220000Y-126160000D01*
G75*
G02*
X157170000Y-126110000I0J50000D01*
G01*
G37*
X155380000Y-122970000D03*
G36*
G01*
X157170000Y-123570000D02*
X157170000Y-122370000D01*
G75*
G02*
X157220000Y-122320000I50000J0D01*
G01*
X157820000Y-122320000D01*
G75*
G02*
X157870000Y-122370000I0J-50000D01*
G01*
X157870000Y-123570000D01*
G75*
G02*
X157820000Y-123620000I-50000J0D01*
G01*
X157220000Y-123620000D01*
G75*
G02*
X157170000Y-123570000I0J50000D01*
G01*
G37*
X155380000Y-120430000D03*
G36*
G01*
X157170000Y-121030000D02*
X157170000Y-119830000D01*
G75*
G02*
X157220000Y-119780000I50000J0D01*
G01*
X157820000Y-119780000D01*
G75*
G02*
X157870000Y-119830000I0J-50000D01*
G01*
X157870000Y-121030000D01*
G75*
G02*
X157820000Y-121080000I-50000J0D01*
G01*
X157220000Y-121080000D01*
G75*
G02*
X157170000Y-121030000I0J50000D01*
G01*
G37*
X155380000Y-117890000D03*
G36*
G01*
X157170000Y-118490000D02*
X157170000Y-117290000D01*
G75*
G02*
X157220000Y-117240000I50000J0D01*
G01*
X157820000Y-117240000D01*
G75*
G02*
X157870000Y-117290000I0J-50000D01*
G01*
X157870000Y-118490000D01*
G75*
G02*
X157820000Y-118540000I-50000J0D01*
G01*
X157220000Y-118540000D01*
G75*
G02*
X157170000Y-118490000I0J50000D01*
G01*
G37*
X155380000Y-115350000D03*
G36*
G01*
X157170000Y-115950000D02*
X157170000Y-114750000D01*
G75*
G02*
X157220000Y-114700000I50000J0D01*
G01*
X157820000Y-114700000D01*
G75*
G02*
X157870000Y-114750000I0J-50000D01*
G01*
X157870000Y-115950000D01*
G75*
G02*
X157820000Y-116000000I-50000J0D01*
G01*
X157220000Y-116000000D01*
G75*
G02*
X157170000Y-115950000I0J50000D01*
G01*
G37*
X155380000Y-112810000D03*
G36*
G01*
X157170000Y-113410000D02*
X157170000Y-112210000D01*
G75*
G02*
X157220000Y-112160000I50000J0D01*
G01*
X157820000Y-112160000D01*
G75*
G02*
X157870000Y-112210000I0J-50000D01*
G01*
X157870000Y-113410000D01*
G75*
G02*
X157820000Y-113460000I-50000J0D01*
G01*
X157220000Y-113460000D01*
G75*
G02*
X157170000Y-113410000I0J50000D01*
G01*
G37*
X155380000Y-110270000D03*
G36*
G01*
X157170000Y-110870000D02*
X157170000Y-109670000D01*
G75*
G02*
X157220000Y-109620000I50000J0D01*
G01*
X157820000Y-109620000D01*
G75*
G02*
X157870000Y-109670000I0J-50000D01*
G01*
X157870000Y-110870000D01*
G75*
G02*
X157820000Y-110920000I-50000J0D01*
G01*
X157220000Y-110920000D01*
G75*
G02*
X157170000Y-110870000I0J50000D01*
G01*
G37*
X155380000Y-107730000D03*
G36*
G01*
X157170000Y-108330000D02*
X157170000Y-107130000D01*
G75*
G02*
X157220000Y-107080000I50000J0D01*
G01*
X157820000Y-107080000D01*
G75*
G02*
X157870000Y-107130000I0J-50000D01*
G01*
X157870000Y-108330000D01*
G75*
G02*
X157820000Y-108380000I-50000J0D01*
G01*
X157220000Y-108380000D01*
G75*
G02*
X157170000Y-108330000I0J50000D01*
G01*
G37*
X155380000Y-105190000D03*
G36*
G01*
X157170000Y-105790000D02*
X157170000Y-104590000D01*
G75*
G02*
X157220000Y-104540000I50000J0D01*
G01*
X157820000Y-104540000D01*
G75*
G02*
X157870000Y-104590000I0J-50000D01*
G01*
X157870000Y-105790000D01*
G75*
G02*
X157820000Y-105840000I-50000J0D01*
G01*
X157220000Y-105840000D01*
G75*
G02*
X157170000Y-105790000I0J50000D01*
G01*
G37*
X155380000Y-102650000D03*
G36*
G01*
X157170000Y-103250000D02*
X157170000Y-102050000D01*
G75*
G02*
X157220000Y-102000000I50000J0D01*
G01*
X157820000Y-102000000D01*
G75*
G02*
X157870000Y-102050000I0J-50000D01*
G01*
X157870000Y-103250000D01*
G75*
G02*
X157820000Y-103300000I-50000J0D01*
G01*
X157220000Y-103300000D01*
G75*
G02*
X157170000Y-103250000I0J50000D01*
G01*
G37*
G36*
G01*
X158070000Y-103250000D02*
X158070000Y-102050000D01*
G75*
G02*
X158120000Y-102000000I50000J0D01*
G01*
X158720000Y-102000000D01*
G75*
G02*
X158770000Y-102050000I0J-50000D01*
G01*
X158770000Y-103250000D01*
G75*
G02*
X158720000Y-103300000I-50000J0D01*
G01*
X158120000Y-103300000D01*
G75*
G02*
X158070000Y-103250000I0J50000D01*
G01*
G37*
D20*
X166400000Y-102650000D03*
G36*
G01*
X158070000Y-105790000D02*
X158070000Y-104590000D01*
G75*
G02*
X158120000Y-104540000I50000J0D01*
G01*
X158720000Y-104540000D01*
G75*
G02*
X158770000Y-104590000I0J-50000D01*
G01*
X158770000Y-105790000D01*
G75*
G02*
X158720000Y-105840000I-50000J0D01*
G01*
X158120000Y-105840000D01*
G75*
G02*
X158070000Y-105790000I0J50000D01*
G01*
G37*
X166400000Y-105190000D03*
G36*
G01*
X158070000Y-108330000D02*
X158070000Y-107130000D01*
G75*
G02*
X158120000Y-107080000I50000J0D01*
G01*
X158720000Y-107080000D01*
G75*
G02*
X158770000Y-107130000I0J-50000D01*
G01*
X158770000Y-108330000D01*
G75*
G02*
X158720000Y-108380000I-50000J0D01*
G01*
X158120000Y-108380000D01*
G75*
G02*
X158070000Y-108330000I0J50000D01*
G01*
G37*
X166400000Y-107730000D03*
G36*
G01*
X158070000Y-110870000D02*
X158070000Y-109670000D01*
G75*
G02*
X158120000Y-109620000I50000J0D01*
G01*
X158720000Y-109620000D01*
G75*
G02*
X158770000Y-109670000I0J-50000D01*
G01*
X158770000Y-110870000D01*
G75*
G02*
X158720000Y-110920000I-50000J0D01*
G01*
X158120000Y-110920000D01*
G75*
G02*
X158070000Y-110870000I0J50000D01*
G01*
G37*
X166400000Y-110270000D03*
G36*
G01*
X158070000Y-113410000D02*
X158070000Y-112210000D01*
G75*
G02*
X158120000Y-112160000I50000J0D01*
G01*
X158720000Y-112160000D01*
G75*
G02*
X158770000Y-112210000I0J-50000D01*
G01*
X158770000Y-113410000D01*
G75*
G02*
X158720000Y-113460000I-50000J0D01*
G01*
X158120000Y-113460000D01*
G75*
G02*
X158070000Y-113410000I0J50000D01*
G01*
G37*
X166400000Y-112810000D03*
G36*
G01*
X158070000Y-115950000D02*
X158070000Y-114750000D01*
G75*
G02*
X158120000Y-114700000I50000J0D01*
G01*
X158720000Y-114700000D01*
G75*
G02*
X158770000Y-114750000I0J-50000D01*
G01*
X158770000Y-115950000D01*
G75*
G02*
X158720000Y-116000000I-50000J0D01*
G01*
X158120000Y-116000000D01*
G75*
G02*
X158070000Y-115950000I0J50000D01*
G01*
G37*
X166400000Y-115350000D03*
G36*
G01*
X158070000Y-118490000D02*
X158070000Y-117290000D01*
G75*
G02*
X158120000Y-117240000I50000J0D01*
G01*
X158720000Y-117240000D01*
G75*
G02*
X158770000Y-117290000I0J-50000D01*
G01*
X158770000Y-118490000D01*
G75*
G02*
X158720000Y-118540000I-50000J0D01*
G01*
X158120000Y-118540000D01*
G75*
G02*
X158070000Y-118490000I0J50000D01*
G01*
G37*
X166400000Y-117890000D03*
G36*
G01*
X158070000Y-121030000D02*
X158070000Y-119830000D01*
G75*
G02*
X158120000Y-119780000I50000J0D01*
G01*
X158720000Y-119780000D01*
G75*
G02*
X158770000Y-119830000I0J-50000D01*
G01*
X158770000Y-121030000D01*
G75*
G02*
X158720000Y-121080000I-50000J0D01*
G01*
X158120000Y-121080000D01*
G75*
G02*
X158070000Y-121030000I0J50000D01*
G01*
G37*
X166400000Y-120430000D03*
G36*
G01*
X158070000Y-123570000D02*
X158070000Y-122370000D01*
G75*
G02*
X158120000Y-122320000I50000J0D01*
G01*
X158720000Y-122320000D01*
G75*
G02*
X158770000Y-122370000I0J-50000D01*
G01*
X158770000Y-123570000D01*
G75*
G02*
X158720000Y-123620000I-50000J0D01*
G01*
X158120000Y-123620000D01*
G75*
G02*
X158070000Y-123570000I0J50000D01*
G01*
G37*
X166400000Y-122970000D03*
G36*
G01*
X158070000Y-126110000D02*
X158070000Y-124910000D01*
G75*
G02*
X158120000Y-124860000I50000J0D01*
G01*
X158720000Y-124860000D01*
G75*
G02*
X158770000Y-124910000I0J-50000D01*
G01*
X158770000Y-126110000D01*
G75*
G02*
X158720000Y-126160000I-50000J0D01*
G01*
X158120000Y-126160000D01*
G75*
G02*
X158070000Y-126110000I0J50000D01*
G01*
G37*
X166400000Y-125510000D03*
G36*
G01*
X158070000Y-128650000D02*
X158070000Y-127450000D01*
G75*
G02*
X158120000Y-127400000I50000J0D01*
G01*
X158720000Y-127400000D01*
G75*
G02*
X158770000Y-127450000I0J-50000D01*
G01*
X158770000Y-128650000D01*
G75*
G02*
X158720000Y-128700000I-50000J0D01*
G01*
X158120000Y-128700000D01*
G75*
G02*
X158070000Y-128650000I0J50000D01*
G01*
G37*
X166400000Y-128050000D03*
G36*
G01*
X158070000Y-131190000D02*
X158070000Y-129990000D01*
G75*
G02*
X158120000Y-129940000I50000J0D01*
G01*
X158720000Y-129940000D01*
G75*
G02*
X158770000Y-129990000I0J-50000D01*
G01*
X158770000Y-131190000D01*
G75*
G02*
X158720000Y-131240000I-50000J0D01*
G01*
X158120000Y-131240000D01*
G75*
G02*
X158070000Y-131190000I0J50000D01*
G01*
G37*
X166400000Y-130590000D03*
X159600000Y-130590000D03*
G36*
G01*
X167230000Y-131190000D02*
X167230000Y-129990000D01*
G75*
G02*
X167280000Y-129940000I50000J0D01*
G01*
X167880000Y-129940000D01*
G75*
G02*
X167930000Y-129990000I0J-50000D01*
G01*
X167930000Y-131190000D01*
G75*
G02*
X167880000Y-131240000I-50000J0D01*
G01*
X167280000Y-131240000D01*
G75*
G02*
X167230000Y-131190000I0J50000D01*
G01*
G37*
X159600000Y-128050000D03*
G36*
G01*
X167230000Y-128650000D02*
X167230000Y-127450000D01*
G75*
G02*
X167280000Y-127400000I50000J0D01*
G01*
X167880000Y-127400000D01*
G75*
G02*
X167930000Y-127450000I0J-50000D01*
G01*
X167930000Y-128650000D01*
G75*
G02*
X167880000Y-128700000I-50000J0D01*
G01*
X167280000Y-128700000D01*
G75*
G02*
X167230000Y-128650000I0J50000D01*
G01*
G37*
X159600000Y-125510000D03*
G36*
G01*
X167230000Y-126110000D02*
X167230000Y-124910000D01*
G75*
G02*
X167280000Y-124860000I50000J0D01*
G01*
X167880000Y-124860000D01*
G75*
G02*
X167930000Y-124910000I0J-50000D01*
G01*
X167930000Y-126110000D01*
G75*
G02*
X167880000Y-126160000I-50000J0D01*
G01*
X167280000Y-126160000D01*
G75*
G02*
X167230000Y-126110000I0J50000D01*
G01*
G37*
X159600000Y-122970000D03*
G36*
G01*
X167230000Y-123570000D02*
X167230000Y-122370000D01*
G75*
G02*
X167280000Y-122320000I50000J0D01*
G01*
X167880000Y-122320000D01*
G75*
G02*
X167930000Y-122370000I0J-50000D01*
G01*
X167930000Y-123570000D01*
G75*
G02*
X167880000Y-123620000I-50000J0D01*
G01*
X167280000Y-123620000D01*
G75*
G02*
X167230000Y-123570000I0J50000D01*
G01*
G37*
X159600000Y-120430000D03*
G36*
G01*
X167230000Y-121030000D02*
X167230000Y-119830000D01*
G75*
G02*
X167280000Y-119780000I50000J0D01*
G01*
X167880000Y-119780000D01*
G75*
G02*
X167930000Y-119830000I0J-50000D01*
G01*
X167930000Y-121030000D01*
G75*
G02*
X167880000Y-121080000I-50000J0D01*
G01*
X167280000Y-121080000D01*
G75*
G02*
X167230000Y-121030000I0J50000D01*
G01*
G37*
X159600000Y-117890000D03*
G36*
G01*
X167230000Y-118490000D02*
X167230000Y-117290000D01*
G75*
G02*
X167280000Y-117240000I50000J0D01*
G01*
X167880000Y-117240000D01*
G75*
G02*
X167930000Y-117290000I0J-50000D01*
G01*
X167930000Y-118490000D01*
G75*
G02*
X167880000Y-118540000I-50000J0D01*
G01*
X167280000Y-118540000D01*
G75*
G02*
X167230000Y-118490000I0J50000D01*
G01*
G37*
X159600000Y-115350000D03*
G36*
G01*
X167230000Y-115950000D02*
X167230000Y-114750000D01*
G75*
G02*
X167280000Y-114700000I50000J0D01*
G01*
X167880000Y-114700000D01*
G75*
G02*
X167930000Y-114750000I0J-50000D01*
G01*
X167930000Y-115950000D01*
G75*
G02*
X167880000Y-116000000I-50000J0D01*
G01*
X167280000Y-116000000D01*
G75*
G02*
X167230000Y-115950000I0J50000D01*
G01*
G37*
X159600000Y-112810000D03*
G36*
G01*
X167230000Y-113410000D02*
X167230000Y-112210000D01*
G75*
G02*
X167280000Y-112160000I50000J0D01*
G01*
X167880000Y-112160000D01*
G75*
G02*
X167930000Y-112210000I0J-50000D01*
G01*
X167930000Y-113410000D01*
G75*
G02*
X167880000Y-113460000I-50000J0D01*
G01*
X167280000Y-113460000D01*
G75*
G02*
X167230000Y-113410000I0J50000D01*
G01*
G37*
X159600000Y-110270000D03*
G36*
G01*
X167230000Y-110870000D02*
X167230000Y-109670000D01*
G75*
G02*
X167280000Y-109620000I50000J0D01*
G01*
X167880000Y-109620000D01*
G75*
G02*
X167930000Y-109670000I0J-50000D01*
G01*
X167930000Y-110870000D01*
G75*
G02*
X167880000Y-110920000I-50000J0D01*
G01*
X167280000Y-110920000D01*
G75*
G02*
X167230000Y-110870000I0J50000D01*
G01*
G37*
X159600000Y-107730000D03*
G36*
G01*
X167230000Y-108330000D02*
X167230000Y-107130000D01*
G75*
G02*
X167280000Y-107080000I50000J0D01*
G01*
X167880000Y-107080000D01*
G75*
G02*
X167930000Y-107130000I0J-50000D01*
G01*
X167930000Y-108330000D01*
G75*
G02*
X167880000Y-108380000I-50000J0D01*
G01*
X167280000Y-108380000D01*
G75*
G02*
X167230000Y-108330000I0J50000D01*
G01*
G37*
X159600000Y-105190000D03*
G36*
G01*
X167230000Y-105790000D02*
X167230000Y-104590000D01*
G75*
G02*
X167280000Y-104540000I50000J0D01*
G01*
X167880000Y-104540000D01*
G75*
G02*
X167930000Y-104590000I0J-50000D01*
G01*
X167930000Y-105790000D01*
G75*
G02*
X167880000Y-105840000I-50000J0D01*
G01*
X167280000Y-105840000D01*
G75*
G02*
X167230000Y-105790000I0J50000D01*
G01*
G37*
X159600000Y-102650000D03*
G36*
G01*
X167230000Y-103250000D02*
X167230000Y-102050000D01*
G75*
G02*
X167280000Y-102000000I50000J0D01*
G01*
X167880000Y-102000000D01*
G75*
G02*
X167930000Y-102050000I0J-50000D01*
G01*
X167930000Y-103250000D01*
G75*
G02*
X167880000Y-103300000I-50000J0D01*
G01*
X167280000Y-103300000D01*
G75*
G02*
X167230000Y-103250000I0J50000D01*
G01*
G37*
G36*
G01*
X135251000Y-130239000D02*
X135251000Y-128461000D01*
G75*
G02*
X135301000Y-128411000I50000J0D01*
G01*
X137079000Y-128411000D01*
G75*
G02*
X137129000Y-128461000I0J-50000D01*
G01*
X137129000Y-130239000D01*
G75*
G02*
X137079000Y-130289000I-50000J0D01*
G01*
X135301000Y-130289000D01*
G75*
G02*
X135251000Y-130239000I0J50000D01*
G01*
G37*
G36*
G01*
X137850000Y-129950000D02*
X137850000Y-128750000D01*
G75*
G02*
X137900000Y-128700000I50000J0D01*
G01*
X138800000Y-128700000D01*
G75*
G02*
X138850000Y-128750000I0J-50000D01*
G01*
X138850000Y-129950000D01*
G75*
G02*
X138800000Y-130000000I-50000J0D01*
G01*
X137900000Y-130000000D01*
G75*
G02*
X137850000Y-129950000I0J50000D01*
G01*
G37*
G36*
G01*
X141150000Y-129950000D02*
X141150000Y-128750000D01*
G75*
G02*
X141200000Y-128700000I50000J0D01*
G01*
X142100000Y-128700000D01*
G75*
G02*
X142150000Y-128750000I0J-50000D01*
G01*
X142150000Y-129950000D01*
G75*
G02*
X142100000Y-130000000I-50000J0D01*
G01*
X141200000Y-130000000D01*
G75*
G02*
X141150000Y-129950000I0J50000D01*
G01*
G37*
D13*
X143810000Y-129350000D03*
G36*
G01*
X81251000Y-145539000D02*
X81251000Y-143761000D01*
G75*
G02*
X81301000Y-143711000I50000J0D01*
G01*
X83079000Y-143711000D01*
G75*
G02*
X83129000Y-143761000I0J-50000D01*
G01*
X83129000Y-145539000D01*
G75*
G02*
X83079000Y-145589000I-50000J0D01*
G01*
X81301000Y-145589000D01*
G75*
G02*
X81251000Y-145539000I0J50000D01*
G01*
G37*
G36*
G01*
X83850000Y-145250000D02*
X83850000Y-144050000D01*
G75*
G02*
X83900000Y-144000000I50000J0D01*
G01*
X84800000Y-144000000D01*
G75*
G02*
X84850000Y-144050000I0J-50000D01*
G01*
X84850000Y-145250000D01*
G75*
G02*
X84800000Y-145300000I-50000J0D01*
G01*
X83900000Y-145300000D01*
G75*
G02*
X83850000Y-145250000I0J50000D01*
G01*
G37*
G36*
G01*
X87150000Y-145250000D02*
X87150000Y-144050000D01*
G75*
G02*
X87200000Y-144000000I50000J0D01*
G01*
X88100000Y-144000000D01*
G75*
G02*
X88150000Y-144050000I0J-50000D01*
G01*
X88150000Y-145250000D01*
G75*
G02*
X88100000Y-145300000I-50000J0D01*
G01*
X87200000Y-145300000D01*
G75*
G02*
X87150000Y-145250000I0J50000D01*
G01*
G37*
X89810000Y-144650000D03*
G36*
G01*
X99251000Y-91139000D02*
X99251000Y-89361000D01*
G75*
G02*
X99301000Y-89311000I50000J0D01*
G01*
X101079000Y-89311000D01*
G75*
G02*
X101129000Y-89361000I0J-50000D01*
G01*
X101129000Y-91139000D01*
G75*
G02*
X101079000Y-91189000I-50000J0D01*
G01*
X99301000Y-91189000D01*
G75*
G02*
X99251000Y-91139000I0J50000D01*
G01*
G37*
G36*
G01*
X101850000Y-90850000D02*
X101850000Y-89650000D01*
G75*
G02*
X101900000Y-89600000I50000J0D01*
G01*
X102800000Y-89600000D01*
G75*
G02*
X102850000Y-89650000I0J-50000D01*
G01*
X102850000Y-90850000D01*
G75*
G02*
X102800000Y-90900000I-50000J0D01*
G01*
X101900000Y-90900000D01*
G75*
G02*
X101850000Y-90850000I0J50000D01*
G01*
G37*
G36*
G01*
X105150000Y-90850000D02*
X105150000Y-89650000D01*
G75*
G02*
X105200000Y-89600000I50000J0D01*
G01*
X106100000Y-89600000D01*
G75*
G02*
X106150000Y-89650000I0J-50000D01*
G01*
X106150000Y-90850000D01*
G75*
G02*
X106100000Y-90900000I-50000J0D01*
G01*
X105200000Y-90900000D01*
G75*
G02*
X105150000Y-90850000I0J50000D01*
G01*
G37*
X107810000Y-90250000D03*
G36*
G01*
X117251000Y-128539000D02*
X117251000Y-126761000D01*
G75*
G02*
X117301000Y-126711000I50000J0D01*
G01*
X119079000Y-126711000D01*
G75*
G02*
X119129000Y-126761000I0J-50000D01*
G01*
X119129000Y-128539000D01*
G75*
G02*
X119079000Y-128589000I-50000J0D01*
G01*
X117301000Y-128589000D01*
G75*
G02*
X117251000Y-128539000I0J50000D01*
G01*
G37*
G36*
G01*
X119850000Y-128250000D02*
X119850000Y-127050000D01*
G75*
G02*
X119900000Y-127000000I50000J0D01*
G01*
X120800000Y-127000000D01*
G75*
G02*
X120850000Y-127050000I0J-50000D01*
G01*
X120850000Y-128250000D01*
G75*
G02*
X120800000Y-128300000I-50000J0D01*
G01*
X119900000Y-128300000D01*
G75*
G02*
X119850000Y-128250000I0J50000D01*
G01*
G37*
G36*
G01*
X123150000Y-128250000D02*
X123150000Y-127050000D01*
G75*
G02*
X123200000Y-127000000I50000J0D01*
G01*
X124100000Y-127000000D01*
G75*
G02*
X124150000Y-127050000I0J-50000D01*
G01*
X124150000Y-128250000D01*
G75*
G02*
X124100000Y-128300000I-50000J0D01*
G01*
X123200000Y-128300000D01*
G75*
G02*
X123150000Y-128250000I0J50000D01*
G01*
G37*
X125810000Y-127650000D03*
D21*
X62500000Y-133000000D03*
D22*
X63000000Y-129250000D03*
X68000000Y-127050000D03*
D23*
X68000000Y-133000000D03*
D22*
X73000000Y-129250000D03*
D21*
X73500000Y-133000000D03*
G36*
X66060355Y-125714645D02*
G01*
X66075000Y-125750000D01*
X66075000Y-128350000D01*
X66060355Y-128385355D01*
X66025000Y-128400000D01*
X64608000Y-128400000D01*
X64572645Y-128385355D01*
X63389645Y-127202355D01*
X63375000Y-127167000D01*
X63375000Y-125750000D01*
X63389645Y-125714645D01*
X63425000Y-125700000D01*
X66025000Y-125700000D01*
X66060355Y-125714645D01*
G37*
G36*
G01*
X74925000Y-130550000D02*
X74925000Y-127950000D01*
G75*
G02*
X74975000Y-127900000I50000J0D01*
G01*
X77575000Y-127900000D01*
G75*
G02*
X77625000Y-127950000I0J-50000D01*
G01*
X77625000Y-130550000D01*
G75*
G02*
X77575000Y-130600000I-50000J0D01*
G01*
X74975000Y-130600000D01*
G75*
G02*
X74925000Y-130550000I0J50000D01*
G01*
G37*
X44500000Y-133000000D03*
D22*
X45000000Y-129250000D03*
X50000000Y-127050000D03*
D23*
X50000000Y-133000000D03*
D22*
X55000000Y-129250000D03*
D21*
X55500000Y-133000000D03*
G36*
X48060355Y-125714645D02*
G01*
X48075000Y-125750000D01*
X48075000Y-128350000D01*
X48060355Y-128385355D01*
X48025000Y-128400000D01*
X46608000Y-128400000D01*
X46572645Y-128385355D01*
X45389645Y-127202355D01*
X45375000Y-127167000D01*
X45375000Y-125750000D01*
X45389645Y-125714645D01*
X45425000Y-125700000D01*
X48025000Y-125700000D01*
X48060355Y-125714645D01*
G37*
G36*
G01*
X56925000Y-130550000D02*
X56925000Y-127950000D01*
G75*
G02*
X56975000Y-127900000I50000J0D01*
G01*
X59575000Y-127900000D01*
G75*
G02*
X59625000Y-127950000I0J-50000D01*
G01*
X59625000Y-130550000D01*
G75*
G02*
X59575000Y-130600000I-50000J0D01*
G01*
X56975000Y-130600000D01*
G75*
G02*
X56925000Y-130550000I0J50000D01*
G01*
G37*
X44500000Y-99000000D03*
D22*
X45000000Y-95250000D03*
X50000000Y-93050000D03*
D23*
X50000000Y-99000000D03*
D22*
X55000000Y-95250000D03*
D21*
X55500000Y-99000000D03*
G36*
X48060355Y-91714645D02*
G01*
X48075000Y-91750000D01*
X48075000Y-94350000D01*
X48060355Y-94385355D01*
X48025000Y-94400000D01*
X46608000Y-94400000D01*
X46572645Y-94385355D01*
X45389645Y-93202355D01*
X45375000Y-93167000D01*
X45375000Y-91750000D01*
X45389645Y-91714645D01*
X45425000Y-91700000D01*
X48025000Y-91700000D01*
X48060355Y-91714645D01*
G37*
G36*
G01*
X56925000Y-96550000D02*
X56925000Y-93950000D01*
G75*
G02*
X56975000Y-93900000I50000J0D01*
G01*
X59575000Y-93900000D01*
G75*
G02*
X59625000Y-93950000I0J-50000D01*
G01*
X59625000Y-96550000D01*
G75*
G02*
X59575000Y-96600000I-50000J0D01*
G01*
X56975000Y-96600000D01*
G75*
G02*
X56925000Y-96550000I0J50000D01*
G01*
G37*
X62500000Y-116000000D03*
D22*
X63000000Y-112250000D03*
X68000000Y-110050000D03*
D23*
X68000000Y-116000000D03*
D22*
X73000000Y-112250000D03*
D21*
X73500000Y-116000000D03*
G36*
X66060355Y-108714645D02*
G01*
X66075000Y-108750000D01*
X66075000Y-111350000D01*
X66060355Y-111385355D01*
X66025000Y-111400000D01*
X64608000Y-111400000D01*
X64572645Y-111385355D01*
X63389645Y-110202355D01*
X63375000Y-110167000D01*
X63375000Y-108750000D01*
X63389645Y-108714645D01*
X63425000Y-108700000D01*
X66025000Y-108700000D01*
X66060355Y-108714645D01*
G37*
G36*
G01*
X74925000Y-113550000D02*
X74925000Y-110950000D01*
G75*
G02*
X74975000Y-110900000I50000J0D01*
G01*
X77575000Y-110900000D01*
G75*
G02*
X77625000Y-110950000I0J-50000D01*
G01*
X77625000Y-113550000D01*
G75*
G02*
X77575000Y-113600000I-50000J0D01*
G01*
X74975000Y-113600000D01*
G75*
G02*
X74925000Y-113550000I0J50000D01*
G01*
G37*
X80500000Y-106650000D03*
D22*
X81000000Y-102900000D03*
X86000000Y-100700000D03*
D23*
X86000000Y-106650000D03*
D22*
X91000000Y-102900000D03*
D21*
X91500000Y-106650000D03*
G36*
X84060355Y-99364645D02*
G01*
X84075000Y-99400000D01*
X84075000Y-102000000D01*
X84060355Y-102035355D01*
X84025000Y-102050000D01*
X82608000Y-102050000D01*
X82572645Y-102035355D01*
X81389645Y-100852355D01*
X81375000Y-100817000D01*
X81375000Y-99400000D01*
X81389645Y-99364645D01*
X81425000Y-99350000D01*
X84025000Y-99350000D01*
X84060355Y-99364645D01*
G37*
G36*
G01*
X92925000Y-104200000D02*
X92925000Y-101600000D01*
G75*
G02*
X92975000Y-101550000I50000J0D01*
G01*
X95575000Y-101550000D01*
G75*
G02*
X95625000Y-101600000I0J-50000D01*
G01*
X95625000Y-104200000D01*
G75*
G02*
X95575000Y-104250000I-50000J0D01*
G01*
X92975000Y-104250000D01*
G75*
G02*
X92925000Y-104200000I0J50000D01*
G01*
G37*
X154460413Y-177973213D03*
D22*
X157465617Y-175675116D03*
X162556785Y-177655015D03*
D23*
X158349500Y-181862300D03*
D22*
X164536684Y-182746183D03*
D21*
X162238587Y-185751387D03*
G36*
X162129488Y-175339240D02*
G01*
X162114844Y-175374595D01*
X160276366Y-177213073D01*
X160241011Y-177227717D01*
X160205656Y-177213073D01*
X159203685Y-176211103D01*
X159189041Y-176175747D01*
X159189041Y-174502733D01*
X159203685Y-174467377D01*
X160205656Y-173465407D01*
X160241011Y-173450763D01*
X160276366Y-173465407D01*
X162114844Y-175303885D01*
X162129488Y-175339240D01*
G37*
G36*
G01*
X164978626Y-185026603D02*
X166817104Y-183188125D01*
G75*
G02*
X166887814Y-183188125I35355J-35355D01*
G01*
X168726292Y-185026603D01*
G75*
G02*
X168726292Y-185097313I-35355J-35355D01*
G01*
X166887814Y-186935791D01*
G75*
G02*
X166817104Y-186935791I-35355J35355D01*
G01*
X164978626Y-185097313D01*
G75*
G02*
X164978626Y-185026603I35355J35355D01*
G01*
G37*
X137667760Y-166897500D03*
D22*
X139975773Y-163899905D03*
X145405900Y-164494649D03*
D23*
X142430900Y-169647500D03*
D22*
X148636027Y-168899905D03*
D21*
X147194040Y-172397500D03*
G36*
X144393796Y-162368375D02*
G01*
X144388801Y-162406316D01*
X143088801Y-164657982D01*
X143058441Y-164681278D01*
X143020500Y-164676283D01*
X141793342Y-163967783D01*
X141770046Y-163937423D01*
X141337038Y-162321415D01*
X141342033Y-162283474D01*
X142050533Y-161056316D01*
X142080893Y-161033020D01*
X142118834Y-161038015D01*
X144370500Y-162338015D01*
X144393796Y-162368375D01*
G37*
G36*
G01*
X149653126Y-170988238D02*
X150953126Y-168736572D01*
G75*
G02*
X151021427Y-168718271I43301J-25000D01*
G01*
X153273093Y-170018271D01*
G75*
G02*
X153291394Y-170086572I-25000J-43301D01*
G01*
X151991394Y-172338238D01*
G75*
G02*
X151923093Y-172356539I-43301J25000D01*
G01*
X149671427Y-171056539D01*
G75*
G02*
X149653126Y-170988238I25000J43301D01*
G01*
G37*
X98500000Y-120250000D03*
D22*
X99000000Y-116500000D03*
X104000000Y-114300000D03*
D23*
X104000000Y-120250000D03*
D22*
X109000000Y-116500000D03*
D21*
X109500000Y-120250000D03*
G36*
X102060355Y-112964645D02*
G01*
X102075000Y-113000000D01*
X102075000Y-115600000D01*
X102060355Y-115635355D01*
X102025000Y-115650000D01*
X100608000Y-115650000D01*
X100572645Y-115635355D01*
X99389645Y-114452355D01*
X99375000Y-114417000D01*
X99375000Y-113000000D01*
X99389645Y-112964645D01*
X99425000Y-112950000D01*
X102025000Y-112950000D01*
X102060355Y-112964645D01*
G37*
G36*
G01*
X110925000Y-117800000D02*
X110925000Y-115200000D01*
G75*
G02*
X110975000Y-115150000I50000J0D01*
G01*
X113575000Y-115150000D01*
G75*
G02*
X113625000Y-115200000I0J-50000D01*
G01*
X113625000Y-117800000D01*
G75*
G02*
X113575000Y-117850000I-50000J0D01*
G01*
X110975000Y-117850000D01*
G75*
G02*
X110925000Y-117800000I0J50000D01*
G01*
G37*
X80500000Y-123650000D03*
D22*
X81000000Y-119900000D03*
X86000000Y-117700000D03*
D23*
X86000000Y-123650000D03*
D22*
X91000000Y-119900000D03*
D21*
X91500000Y-123650000D03*
G36*
X84060355Y-116364645D02*
G01*
X84075000Y-116400000D01*
X84075000Y-119000000D01*
X84060355Y-119035355D01*
X84025000Y-119050000D01*
X82608000Y-119050000D01*
X82572645Y-119035355D01*
X81389645Y-117852355D01*
X81375000Y-117817000D01*
X81375000Y-116400000D01*
X81389645Y-116364645D01*
X81425000Y-116350000D01*
X84025000Y-116350000D01*
X84060355Y-116364645D01*
G37*
G36*
G01*
X92925000Y-121200000D02*
X92925000Y-118600000D01*
G75*
G02*
X92975000Y-118550000I50000J0D01*
G01*
X95575000Y-118550000D01*
G75*
G02*
X95625000Y-118600000I0J-50000D01*
G01*
X95625000Y-121200000D01*
G75*
G02*
X95575000Y-121250000I-50000J0D01*
G01*
X92975000Y-121250000D01*
G75*
G02*
X92925000Y-121200000I0J50000D01*
G01*
G37*
X44500000Y-116000000D03*
D22*
X45000000Y-112250000D03*
X50000000Y-110050000D03*
D23*
X50000000Y-116000000D03*
D22*
X55000000Y-112250000D03*
D21*
X55500000Y-116000000D03*
G36*
X48060355Y-108714645D02*
G01*
X48075000Y-108750000D01*
X48075000Y-111350000D01*
X48060355Y-111385355D01*
X48025000Y-111400000D01*
X46608000Y-111400000D01*
X46572645Y-111385355D01*
X45389645Y-110202355D01*
X45375000Y-110167000D01*
X45375000Y-108750000D01*
X45389645Y-108714645D01*
X45425000Y-108700000D01*
X48025000Y-108700000D01*
X48060355Y-108714645D01*
G37*
G36*
G01*
X56925000Y-113550000D02*
X56925000Y-110950000D01*
G75*
G02*
X56975000Y-110900000I50000J0D01*
G01*
X59575000Y-110900000D01*
G75*
G02*
X59625000Y-110950000I0J-50000D01*
G01*
X59625000Y-113550000D01*
G75*
G02*
X59575000Y-113600000I-50000J0D01*
G01*
X56975000Y-113600000D01*
G75*
G02*
X56925000Y-113550000I0J50000D01*
G01*
G37*
X118580708Y-160545495D03*
D22*
X120034242Y-157052683D03*
X125433273Y-156221741D03*
D23*
X123893300Y-161969000D03*
D22*
X129693501Y-159640873D03*
D21*
X129205892Y-163392505D03*
G36*
X123905335Y-154429870D02*
G01*
X123910331Y-154467811D01*
X123237401Y-156979218D01*
X123214105Y-157009578D01*
X123176164Y-157014574D01*
X121807447Y-156647827D01*
X121777087Y-156624531D01*
X120940580Y-155175657D01*
X120935584Y-155137717D01*
X121302331Y-153769000D01*
X121325627Y-153738640D01*
X121363568Y-153733644D01*
X123874975Y-154406574D01*
X123905335Y-154429870D01*
G37*
G36*
G01*
X131216444Y-161394804D02*
X131889373Y-158883397D01*
G75*
G02*
X131950610Y-158848042I48296J-12941D01*
G01*
X134462017Y-159520971D01*
G75*
G02*
X134497372Y-159582208I-12941J-48296D01*
G01*
X133824443Y-162093615D01*
G75*
G02*
X133763206Y-162128970I-48296J12941D01*
G01*
X131251799Y-161456041D01*
G75*
G02*
X131216444Y-161394804I12941J48296D01*
G01*
G37*
X134500000Y-108350000D03*
D22*
X135000000Y-104600000D03*
X140000000Y-102400000D03*
D23*
X140000000Y-108350000D03*
D22*
X145000000Y-104600000D03*
D21*
X145500000Y-108350000D03*
G36*
X138060355Y-101064645D02*
G01*
X138075000Y-101100000D01*
X138075000Y-103700000D01*
X138060355Y-103735355D01*
X138025000Y-103750000D01*
X136608000Y-103750000D01*
X136572645Y-103735355D01*
X135389645Y-102552355D01*
X135375000Y-102517000D01*
X135375000Y-101100000D01*
X135389645Y-101064645D01*
X135425000Y-101050000D01*
X138025000Y-101050000D01*
X138060355Y-101064645D01*
G37*
G36*
G01*
X146925000Y-105900000D02*
X146925000Y-103300000D01*
G75*
G02*
X146975000Y-103250000I50000J0D01*
G01*
X149575000Y-103250000D01*
G75*
G02*
X149625000Y-103300000I0J-50000D01*
G01*
X149625000Y-105900000D01*
G75*
G02*
X149575000Y-105950000I-50000J0D01*
G01*
X146975000Y-105950000D01*
G75*
G02*
X146925000Y-105900000I0J50000D01*
G01*
G37*
X98500000Y-86250000D03*
D22*
X99000000Y-82500000D03*
X104000000Y-80300000D03*
D23*
X104000000Y-86250000D03*
D22*
X109000000Y-82500000D03*
D21*
X109500000Y-86250000D03*
G36*
X102060355Y-78964645D02*
G01*
X102075000Y-79000000D01*
X102075000Y-81600000D01*
X102060355Y-81635355D01*
X102025000Y-81650000D01*
X100608000Y-81650000D01*
X100572645Y-81635355D01*
X99389645Y-80452355D01*
X99375000Y-80417000D01*
X99375000Y-79000000D01*
X99389645Y-78964645D01*
X99425000Y-78950000D01*
X102025000Y-78950000D01*
X102060355Y-78964645D01*
G37*
G36*
G01*
X110925000Y-83800000D02*
X110925000Y-81200000D01*
G75*
G02*
X110975000Y-81150000I50000J0D01*
G01*
X113575000Y-81150000D01*
G75*
G02*
X113625000Y-81200000I0J-50000D01*
G01*
X113625000Y-83800000D01*
G75*
G02*
X113575000Y-83850000I-50000J0D01*
G01*
X110975000Y-83850000D01*
G75*
G02*
X110925000Y-83800000I0J50000D01*
G01*
G37*
X98500000Y-137250000D03*
D22*
X99000000Y-133500000D03*
X104000000Y-131300000D03*
D23*
X104000000Y-137250000D03*
D22*
X109000000Y-133500000D03*
D21*
X109500000Y-137250000D03*
G36*
X102060355Y-129964645D02*
G01*
X102075000Y-130000000D01*
X102075000Y-132600000D01*
X102060355Y-132635355D01*
X102025000Y-132650000D01*
X100608000Y-132650000D01*
X100572645Y-132635355D01*
X99389645Y-131452355D01*
X99375000Y-131417000D01*
X99375000Y-130000000D01*
X99389645Y-129964645D01*
X99425000Y-129950000D01*
X102025000Y-129950000D01*
X102060355Y-129964645D01*
G37*
G36*
G01*
X110925000Y-134800000D02*
X110925000Y-132200000D01*
G75*
G02*
X110975000Y-132150000I50000J0D01*
G01*
X113575000Y-132150000D01*
G75*
G02*
X113625000Y-132200000I0J-50000D01*
G01*
X113625000Y-134800000D01*
G75*
G02*
X113575000Y-134850000I-50000J0D01*
G01*
X110975000Y-134850000D01*
G75*
G02*
X110925000Y-134800000I0J50000D01*
G01*
G37*
X134500000Y-125350000D03*
D22*
X135000000Y-121600000D03*
X140000000Y-119400000D03*
D23*
X140000000Y-125350000D03*
D22*
X145000000Y-121600000D03*
D21*
X145500000Y-125350000D03*
G36*
X138060355Y-118064645D02*
G01*
X138075000Y-118100000D01*
X138075000Y-120700000D01*
X138060355Y-120735355D01*
X138025000Y-120750000D01*
X136608000Y-120750000D01*
X136572645Y-120735355D01*
X135389645Y-119552355D01*
X135375000Y-119517000D01*
X135375000Y-118100000D01*
X135389645Y-118064645D01*
X135425000Y-118050000D01*
X138025000Y-118050000D01*
X138060355Y-118064645D01*
G37*
G36*
G01*
X146925000Y-122900000D02*
X146925000Y-120300000D01*
G75*
G02*
X146975000Y-120250000I50000J0D01*
G01*
X149575000Y-120250000D01*
G75*
G02*
X149625000Y-120300000I0J-50000D01*
G01*
X149625000Y-122900000D01*
G75*
G02*
X149575000Y-122950000I-50000J0D01*
G01*
X146975000Y-122950000D01*
G75*
G02*
X146925000Y-122900000I0J50000D01*
G01*
G37*
X134500000Y-142350000D03*
D22*
X135000000Y-138600000D03*
X140000000Y-136400000D03*
D23*
X140000000Y-142350000D03*
D22*
X145000000Y-138600000D03*
D21*
X145500000Y-142350000D03*
G36*
X138060355Y-135064645D02*
G01*
X138075000Y-135100000D01*
X138075000Y-137700000D01*
X138060355Y-137735355D01*
X138025000Y-137750000D01*
X136608000Y-137750000D01*
X136572645Y-137735355D01*
X135389645Y-136552355D01*
X135375000Y-136517000D01*
X135375000Y-135100000D01*
X135389645Y-135064645D01*
X135425000Y-135050000D01*
X138025000Y-135050000D01*
X138060355Y-135064645D01*
G37*
G36*
G01*
X146925000Y-139900000D02*
X146925000Y-137300000D01*
G75*
G02*
X146975000Y-137250000I50000J0D01*
G01*
X149575000Y-137250000D01*
G75*
G02*
X149625000Y-137300000I0J-50000D01*
G01*
X149625000Y-139900000D01*
G75*
G02*
X149575000Y-139950000I-50000J0D01*
G01*
X146975000Y-139950000D01*
G75*
G02*
X146925000Y-139900000I0J50000D01*
G01*
G37*
X62500000Y-99000000D03*
D22*
X63000000Y-95250000D03*
X68000000Y-93050000D03*
D23*
X68000000Y-99000000D03*
D22*
X73000000Y-95250000D03*
D21*
X73500000Y-99000000D03*
G36*
X66060355Y-91714645D02*
G01*
X66075000Y-91750000D01*
X66075000Y-94350000D01*
X66060355Y-94385355D01*
X66025000Y-94400000D01*
X64608000Y-94400000D01*
X64572645Y-94385355D01*
X63389645Y-93202355D01*
X63375000Y-93167000D01*
X63375000Y-91750000D01*
X63389645Y-91714645D01*
X63425000Y-91700000D01*
X66025000Y-91700000D01*
X66060355Y-91714645D01*
G37*
G36*
G01*
X74925000Y-96550000D02*
X74925000Y-93950000D01*
G75*
G02*
X74975000Y-93900000I50000J0D01*
G01*
X77575000Y-93900000D01*
G75*
G02*
X77625000Y-93950000I0J-50000D01*
G01*
X77625000Y-96550000D01*
G75*
G02*
X77575000Y-96600000I-50000J0D01*
G01*
X74975000Y-96600000D01*
G75*
G02*
X74925000Y-96550000I0J50000D01*
G01*
G37*
X134500000Y-91350000D03*
D22*
X135000000Y-87600000D03*
X140000000Y-85400000D03*
D23*
X140000000Y-91350000D03*
D22*
X145000000Y-87600000D03*
D21*
X145500000Y-91350000D03*
G36*
X138060355Y-84064645D02*
G01*
X138075000Y-84100000D01*
X138075000Y-86700000D01*
X138060355Y-86735355D01*
X138025000Y-86750000D01*
X136608000Y-86750000D01*
X136572645Y-86735355D01*
X135389645Y-85552355D01*
X135375000Y-85517000D01*
X135375000Y-84100000D01*
X135389645Y-84064645D01*
X135425000Y-84050000D01*
X138025000Y-84050000D01*
X138060355Y-84064645D01*
G37*
G36*
G01*
X146925000Y-88900000D02*
X146925000Y-86300000D01*
G75*
G02*
X146975000Y-86250000I50000J0D01*
G01*
X149575000Y-86250000D01*
G75*
G02*
X149625000Y-86300000I0J-50000D01*
G01*
X149625000Y-88900000D01*
G75*
G02*
X149575000Y-88950000I-50000J0D01*
G01*
X146975000Y-88950000D01*
G75*
G02*
X146925000Y-88900000I0J50000D01*
G01*
G37*
X116500000Y-123650000D03*
D22*
X117000000Y-119900000D03*
X122000000Y-117700000D03*
D23*
X122000000Y-123650000D03*
D22*
X127000000Y-119900000D03*
D21*
X127500000Y-123650000D03*
G36*
X120060355Y-116364645D02*
G01*
X120075000Y-116400000D01*
X120075000Y-119000000D01*
X120060355Y-119035355D01*
X120025000Y-119050000D01*
X118608000Y-119050000D01*
X118572645Y-119035355D01*
X117389645Y-117852355D01*
X117375000Y-117817000D01*
X117375000Y-116400000D01*
X117389645Y-116364645D01*
X117425000Y-116350000D01*
X120025000Y-116350000D01*
X120060355Y-116364645D01*
G37*
G36*
G01*
X128925000Y-121200000D02*
X128925000Y-118600000D01*
G75*
G02*
X128975000Y-118550000I50000J0D01*
G01*
X131575000Y-118550000D01*
G75*
G02*
X131625000Y-118600000I0J-50000D01*
G01*
X131625000Y-121200000D01*
G75*
G02*
X131575000Y-121250000I-50000J0D01*
G01*
X128975000Y-121250000D01*
G75*
G02*
X128925000Y-121200000I0J50000D01*
G01*
G37*
X116500000Y-89650000D03*
D22*
X117000000Y-85900000D03*
X122000000Y-83700000D03*
D23*
X122000000Y-89650000D03*
D22*
X127000000Y-85900000D03*
D21*
X127500000Y-89650000D03*
G36*
X120060355Y-82364645D02*
G01*
X120075000Y-82400000D01*
X120075000Y-85000000D01*
X120060355Y-85035355D01*
X120025000Y-85050000D01*
X118608000Y-85050000D01*
X118572645Y-85035355D01*
X117389645Y-83852355D01*
X117375000Y-83817000D01*
X117375000Y-82400000D01*
X117389645Y-82364645D01*
X117425000Y-82350000D01*
X120025000Y-82350000D01*
X120060355Y-82364645D01*
G37*
G36*
G01*
X128925000Y-87200000D02*
X128925000Y-84600000D01*
G75*
G02*
X128975000Y-84550000I50000J0D01*
G01*
X131575000Y-84550000D01*
G75*
G02*
X131625000Y-84600000I0J-50000D01*
G01*
X131625000Y-87200000D01*
G75*
G02*
X131575000Y-87250000I-50000J0D01*
G01*
X128975000Y-87250000D01*
G75*
G02*
X128925000Y-87200000I0J50000D01*
G01*
G37*
X116500000Y-140650000D03*
D22*
X117000000Y-136900000D03*
X122000000Y-134700000D03*
D23*
X122000000Y-140650000D03*
D22*
X127000000Y-136900000D03*
D21*
X127500000Y-140650000D03*
G36*
X120060355Y-133364645D02*
G01*
X120075000Y-133400000D01*
X120075000Y-136000000D01*
X120060355Y-136035355D01*
X120025000Y-136050000D01*
X118608000Y-136050000D01*
X118572645Y-136035355D01*
X117389645Y-134852355D01*
X117375000Y-134817000D01*
X117375000Y-133400000D01*
X117389645Y-133364645D01*
X117425000Y-133350000D01*
X120025000Y-133350000D01*
X120060355Y-133364645D01*
G37*
G36*
G01*
X128925000Y-138200000D02*
X128925000Y-135600000D01*
G75*
G02*
X128975000Y-135550000I50000J0D01*
G01*
X131575000Y-135550000D01*
G75*
G02*
X131625000Y-135600000I0J-50000D01*
G01*
X131625000Y-138200000D01*
G75*
G02*
X131575000Y-138250000I-50000J0D01*
G01*
X128975000Y-138250000D01*
G75*
G02*
X128925000Y-138200000I0J50000D01*
G01*
G37*
X80500000Y-140650000D03*
D22*
X81000000Y-136900000D03*
X86000000Y-134700000D03*
D23*
X86000000Y-140650000D03*
D22*
X91000000Y-136900000D03*
D21*
X91500000Y-140650000D03*
G36*
X84060355Y-133364645D02*
G01*
X84075000Y-133400000D01*
X84075000Y-136000000D01*
X84060355Y-136035355D01*
X84025000Y-136050000D01*
X82608000Y-136050000D01*
X82572645Y-136035355D01*
X81389645Y-134852355D01*
X81375000Y-134817000D01*
X81375000Y-133400000D01*
X81389645Y-133364645D01*
X81425000Y-133350000D01*
X84025000Y-133350000D01*
X84060355Y-133364645D01*
G37*
G36*
G01*
X92925000Y-138200000D02*
X92925000Y-135600000D01*
G75*
G02*
X92975000Y-135550000I50000J0D01*
G01*
X95575000Y-135550000D01*
G75*
G02*
X95625000Y-135600000I0J-50000D01*
G01*
X95625000Y-138200000D01*
G75*
G02*
X95575000Y-138250000I-50000J0D01*
G01*
X92975000Y-138250000D01*
G75*
G02*
X92925000Y-138200000I0J50000D01*
G01*
G37*
X44500000Y-150000000D03*
D22*
X45000000Y-146250000D03*
X50000000Y-144050000D03*
D23*
X50000000Y-150000000D03*
D22*
X55000000Y-146250000D03*
D21*
X55500000Y-150000000D03*
G36*
X48060355Y-142714645D02*
G01*
X48075000Y-142750000D01*
X48075000Y-145350000D01*
X48060355Y-145385355D01*
X48025000Y-145400000D01*
X46608000Y-145400000D01*
X46572645Y-145385355D01*
X45389645Y-144202355D01*
X45375000Y-144167000D01*
X45375000Y-142750000D01*
X45389645Y-142714645D01*
X45425000Y-142700000D01*
X48025000Y-142700000D01*
X48060355Y-142714645D01*
G37*
G36*
G01*
X56925000Y-147550000D02*
X56925000Y-144950000D01*
G75*
G02*
X56975000Y-144900000I50000J0D01*
G01*
X59575000Y-144900000D01*
G75*
G02*
X59625000Y-144950000I0J-50000D01*
G01*
X59625000Y-147550000D01*
G75*
G02*
X59575000Y-147600000I-50000J0D01*
G01*
X56975000Y-147600000D01*
G75*
G02*
X56925000Y-147550000I0J50000D01*
G01*
G37*
X116500000Y-106650000D03*
D22*
X117000000Y-102900000D03*
X122000000Y-100700000D03*
D23*
X122000000Y-106650000D03*
D22*
X127000000Y-102900000D03*
D21*
X127500000Y-106650000D03*
G36*
X120060355Y-99364645D02*
G01*
X120075000Y-99400000D01*
X120075000Y-102000000D01*
X120060355Y-102035355D01*
X120025000Y-102050000D01*
X118608000Y-102050000D01*
X118572645Y-102035355D01*
X117389645Y-100852355D01*
X117375000Y-100817000D01*
X117375000Y-99400000D01*
X117389645Y-99364645D01*
X117425000Y-99350000D01*
X120025000Y-99350000D01*
X120060355Y-99364645D01*
G37*
G36*
G01*
X128925000Y-104200000D02*
X128925000Y-101600000D01*
G75*
G02*
X128975000Y-101550000I50000J0D01*
G01*
X131575000Y-101550000D01*
G75*
G02*
X131625000Y-101600000I0J-50000D01*
G01*
X131625000Y-104200000D01*
G75*
G02*
X131575000Y-104250000I-50000J0D01*
G01*
X128975000Y-104250000D01*
G75*
G02*
X128925000Y-104200000I0J50000D01*
G01*
G37*
X62500000Y-150000000D03*
D22*
X63000000Y-146250000D03*
X68000000Y-144050000D03*
D23*
X68000000Y-150000000D03*
D22*
X73000000Y-146250000D03*
D21*
X73500000Y-150000000D03*
G36*
X66060355Y-142714645D02*
G01*
X66075000Y-142750000D01*
X66075000Y-145350000D01*
X66060355Y-145385355D01*
X66025000Y-145400000D01*
X64608000Y-145400000D01*
X64572645Y-145385355D01*
X63389645Y-144202355D01*
X63375000Y-144167000D01*
X63375000Y-142750000D01*
X63389645Y-142714645D01*
X63425000Y-142700000D01*
X66025000Y-142700000D01*
X66060355Y-142714645D01*
G37*
G36*
G01*
X74925000Y-147550000D02*
X74925000Y-144950000D01*
G75*
G02*
X74975000Y-144900000I50000J0D01*
G01*
X77575000Y-144900000D01*
G75*
G02*
X77625000Y-144950000I0J-50000D01*
G01*
X77625000Y-147550000D01*
G75*
G02*
X77575000Y-147600000I-50000J0D01*
G01*
X74975000Y-147600000D01*
G75*
G02*
X74925000Y-147550000I0J50000D01*
G01*
G37*
X80500000Y-89650000D03*
D22*
X81000000Y-85900000D03*
X86000000Y-83700000D03*
D23*
X86000000Y-89650000D03*
D22*
X91000000Y-85900000D03*
D21*
X91500000Y-89650000D03*
G36*
X84060355Y-82364645D02*
G01*
X84075000Y-82400000D01*
X84075000Y-85000000D01*
X84060355Y-85035355D01*
X84025000Y-85050000D01*
X82608000Y-85050000D01*
X82572645Y-85035355D01*
X81389645Y-83852355D01*
X81375000Y-83817000D01*
X81375000Y-82400000D01*
X81389645Y-82364645D01*
X81425000Y-82350000D01*
X84025000Y-82350000D01*
X84060355Y-82364645D01*
G37*
G36*
G01*
X92925000Y-87200000D02*
X92925000Y-84600000D01*
G75*
G02*
X92975000Y-84550000I50000J0D01*
G01*
X95575000Y-84550000D01*
G75*
G02*
X95625000Y-84600000I0J-50000D01*
G01*
X95625000Y-87200000D01*
G75*
G02*
X95575000Y-87250000I-50000J0D01*
G01*
X92975000Y-87250000D01*
G75*
G02*
X92925000Y-87200000I0J50000D01*
G01*
G37*
X98500000Y-103250000D03*
D22*
X99000000Y-99500000D03*
X104000000Y-97300000D03*
D23*
X104000000Y-103250000D03*
D22*
X109000000Y-99500000D03*
D21*
X109500000Y-103250000D03*
G36*
X102060355Y-95964645D02*
G01*
X102075000Y-96000000D01*
X102075000Y-98600000D01*
X102060355Y-98635355D01*
X102025000Y-98650000D01*
X100608000Y-98650000D01*
X100572645Y-98635355D01*
X99389645Y-97452355D01*
X99375000Y-97417000D01*
X99375000Y-96000000D01*
X99389645Y-95964645D01*
X99425000Y-95950000D01*
X102025000Y-95950000D01*
X102060355Y-95964645D01*
G37*
G36*
G01*
X110925000Y-100800000D02*
X110925000Y-98200000D01*
G75*
G02*
X110975000Y-98150000I50000J0D01*
G01*
X113575000Y-98150000D01*
G75*
G02*
X113625000Y-98200000I0J-50000D01*
G01*
X113625000Y-100800000D01*
G75*
G02*
X113575000Y-100850000I-50000J0D01*
G01*
X110975000Y-100850000D01*
G75*
G02*
X110925000Y-100800000I0J50000D01*
G01*
G37*
%LPD*%
M02*
