M48
; DRILL file {KiCad 8.0.8+1} date 2025-03-17T19:58:08+0000
; FORMAT={-:-/ absolute / metric / decimal}
; #@! TF.CreationDate,2025-03-17T19:58:08+00:00
; #@! TF.GenerationSoftware,Kicad,Pcbnew,8.0.8+1
; #@! TF.FileFunction,NonPlated,1,2,NPTH
FMAT,2
METRIC
; #@! TA.AperFunction,NonPlated,NPTH,ComponentDrill
T1C0.900
; #@! TA.AperFunction,NonPlated,NPTH,ComponentDrill
T2C1.500
; #@! TA.AperFunction,NonPlated,NPTH,ComponentDrill
T3C1.900
; #@! TA.AperFunction,NonPlated,NPTH,ComponentDrill
T4C3.000
; #@! TA.AperFunction,NonPlated,NPTH,ComponentDrill
T5C3.400
%
G90
G05
T1
X170.025Y-138.85
X170.025Y-141.85
T2
X164.4Y-151.2
X164.4Y-153.5
X171.4Y-151.2
X171.4Y-153.5
T3
X44.5Y-99.0
X44.5Y-116.0
X44.5Y-133.0
X44.5Y-150.0
X55.5Y-99.0
X55.5Y-116.0
X55.5Y-133.0
X55.5Y-150.0
X62.5Y-99.0
X62.5Y-116.0
X62.5Y-133.0
X62.5Y-150.0
X73.5Y-99.0
X73.5Y-116.0
X73.5Y-133.0
X73.5Y-150.0
X80.5Y-89.65
X80.5Y-106.65
X80.5Y-123.65
X80.5Y-140.65
X91.5Y-89.65
X91.5Y-106.65
X91.5Y-123.65
X91.5Y-140.65
X98.5Y-86.25
X98.5Y-103.25
X98.5Y-120.25
X98.5Y-137.25
X109.5Y-86.25
X109.5Y-103.25
X109.5Y-120.25
X109.5Y-137.25
X116.5Y-89.65
X116.5Y-106.65
X116.5Y-123.65
X116.5Y-140.65
X118.581Y-160.545
X127.5Y-89.65
X127.5Y-106.65
X127.5Y-123.65
X127.5Y-140.65
X129.206Y-163.393
X134.5Y-91.35
X134.5Y-108.35
X134.5Y-125.35
X134.5Y-142.35
X137.668Y-166.897
X145.5Y-91.35
X145.5Y-108.35
X145.5Y-125.35
X145.5Y-142.35
X147.194Y-172.397
X154.46Y-177.973
X162.239Y-185.751
T4
X45.0Y-95.25
X45.0Y-112.25
X45.0Y-129.25
X45.0Y-146.25
X50.0Y-93.05
X50.0Y-110.05
X50.0Y-127.05
X50.0Y-144.05
X55.0Y-95.25
X55.0Y-112.25
X55.0Y-129.25
X55.0Y-146.25
X63.0Y-95.25
X63.0Y-112.25
X63.0Y-129.25
X63.0Y-146.25
X68.0Y-93.05
X68.0Y-110.05
X68.0Y-127.05
X68.0Y-144.05
X73.0Y-95.25
X73.0Y-112.25
X73.0Y-129.25
X73.0Y-146.25
X81.0Y-85.9
X81.0Y-102.9
X81.0Y-119.9
X81.0Y-136.9
X86.0Y-83.7
X86.0Y-100.7
X86.0Y-117.7
X86.0Y-134.7
X91.0Y-85.9
X91.0Y-102.9
X91.0Y-119.9
X91.0Y-136.9
X99.0Y-82.5
X99.0Y-99.5
X99.0Y-116.5
X99.0Y-133.5
X104.0Y-80.3
X104.0Y-97.3
X104.0Y-114.3
X104.0Y-131.3
X109.0Y-82.5
X109.0Y-99.5
X109.0Y-116.5
X109.0Y-133.5
X117.0Y-85.9
X117.0Y-102.9
X117.0Y-119.9
X117.0Y-136.9
X120.034Y-157.053
X122.0Y-83.7
X122.0Y-100.7
X122.0Y-117.7
X122.0Y-134.7
X125.433Y-156.222
X127.0Y-85.9
X127.0Y-102.9
X127.0Y-119.9
X127.0Y-136.9
X129.694Y-159.641
X135.0Y-87.6
X135.0Y-104.6
X135.0Y-121.6
X135.0Y-138.6
X139.976Y-163.9
X140.0Y-85.4
X140.0Y-102.4
X140.0Y-119.4
X140.0Y-136.4
X145.0Y-87.6
X145.0Y-104.6
X145.0Y-121.6
X145.0Y-138.6
X145.406Y-164.495
X148.636Y-168.9
X157.466Y-175.675
X162.557Y-177.655
X164.537Y-182.746
T5
X50.0Y-99.0
X50.0Y-116.0
X50.0Y-133.0
X50.0Y-150.0
X68.0Y-99.0
X68.0Y-116.0
X68.0Y-133.0
X68.0Y-150.0
X86.0Y-89.65
X86.0Y-106.65
X86.0Y-123.65
X86.0Y-140.65
X104.0Y-86.25
X104.0Y-103.25
X104.0Y-120.25
X104.0Y-137.25
X122.0Y-89.65
X122.0Y-106.65
X122.0Y-123.65
X122.0Y-140.65
X123.893Y-161.969
X140.0Y-91.35
X140.0Y-108.35
X140.0Y-125.35
X140.0Y-142.35
X142.431Y-169.647
X158.35Y-181.862
M30
