%TF.GenerationSoftware,KiCad,Pcbnew,8.0.8+1*%
%TF.CreationDate,2025-04-03T17:45:40+00:00*%
%TF.ProjectId,board,626f6172-642e-46b6-9963-61645f706362,0.1*%
%TF.SameCoordinates,Original*%
%TF.FileFunction,Drillmap*%
%TF.FilePolarity,Positive*%
%FSLAX45Y45*%
G04 Gerber Fmt 4.5, Leading zero omitted, Abs format (unit mm)*
G04 Created by KiCad (PCBNEW 8.0.8+1) date 2025-04-03 17:45:40*
%MOMM*%
%LPD*%
G01*
G04 APERTURE LIST*
%ADD10C,0.150000*%
%ADD11C,0.200000*%
%ADD12C,0.100000*%
G04 APERTURE END LIST*
D10*
X11600000Y-7915000D02*
X13200000Y-7915000D01*
X17293192Y-18283622D02*
X15924563Y-19652251D01*
X11042814Y-16923022D02*
X7913134Y-16053648D01*
X7500000Y-8750000D02*
G75*
G02*
X7400000Y-8850000I-100000J0D01*
G01*
X13300000Y-8085000D02*
X15000000Y-8085000D01*
X13210000Y-15085000D02*
G75*
G02*
X12990000Y-15085000I-110000J0D01*
G01*
X12990000Y-15085000D02*
G75*
G02*
X13210000Y-15085000I110000J0D01*
G01*
X7886369Y-16050000D02*
G75*
G02*
X7913134Y-16053649I1J-99980D01*
G01*
X15124705Y-17606402D02*
G75*
G02*
X14904705Y-17606402I-110000J0D01*
G01*
X14904705Y-17606402D02*
G75*
G02*
X15124705Y-17606402I110000J0D01*
G01*
X9400000Y-7575000D02*
X11400000Y-7575000D01*
X7500000Y-8750000D02*
X7500000Y-8015000D01*
X9300000Y-7815000D02*
G75*
G02*
X9200000Y-7915000I-100000J0D01*
G01*
X17300000Y-9785000D02*
X17284557Y-18129562D01*
X17284557Y-18129562D02*
X17301791Y-18152003D01*
X17301791Y-18152003D02*
G75*
G02*
X17293190Y-18283621I-79311J-60907D01*
G01*
X6010000Y-14150000D02*
G75*
G02*
X5790000Y-14150000I-110000J0D01*
G01*
X5790000Y-14150000D02*
G75*
G02*
X6010000Y-14150000I110000J0D01*
G01*
X3900000Y-15950000D02*
X3900000Y-8950000D01*
X15100000Y-9785000D02*
X17300000Y-9785000D01*
X4000000Y-8850000D02*
X7400000Y-8850000D01*
X11042814Y-16923022D02*
G75*
G02*
X11066049Y-16932772I-26774J-96368D01*
G01*
X9300000Y-7815000D02*
X9300000Y-7675000D01*
X11500000Y-7675000D02*
X11500000Y-7815000D01*
X3900000Y-8950000D02*
G75*
G02*
X4000000Y-8850000I100000J0D01*
G01*
X11400000Y-7575000D02*
G75*
G02*
X11500000Y-7675000I0J-100000D01*
G01*
X13300000Y-8015000D02*
X13300000Y-8085000D01*
X7600000Y-7915000D02*
X9200000Y-7915000D01*
X15000000Y-8085000D02*
G75*
G02*
X15100000Y-8185000I0J-100000D01*
G01*
X13200000Y-7915000D02*
G75*
G02*
X13300000Y-8015000I0J-100000D01*
G01*
X13210000Y-9815000D02*
G75*
G02*
X12990000Y-9815000I-110000J0D01*
G01*
X12990000Y-9815000D02*
G75*
G02*
X13210000Y-9815000I110000J0D01*
G01*
X7886369Y-16050000D02*
X4000000Y-16050000D01*
X15100000Y-8185000D02*
X15100000Y-9785000D01*
X6010000Y-10750000D02*
G75*
G02*
X5790000Y-10750000I-110000J0D01*
G01*
X5790000Y-10750000D02*
G75*
G02*
X6010000Y-10750000I110000J0D01*
G01*
X15803852Y-19668143D02*
X11066050Y-16932771D01*
X11600000Y-7915000D02*
G75*
G02*
X11500000Y-7815000I0J100000D01*
G01*
X7500000Y-8015000D02*
G75*
G02*
X7600000Y-7915000I100000J0D01*
G01*
X4000000Y-16050000D02*
G75*
G02*
X3900000Y-15950000I0J100000D01*
G01*
X9300000Y-7675000D02*
G75*
G02*
X9400000Y-7575000I100000J0D01*
G01*
X15924563Y-19652251D02*
G75*
G02*
X15803850Y-19668146I-70713J70701D01*
G01*
D11*
D12*
X4990000Y-11265000D02*
X5010000Y-11285000D01*
X5010000Y-11265000D02*
X4990000Y-11285000D01*
X4990000Y-12965000D02*
X5010000Y-12985000D01*
X5010000Y-12965000D02*
X4990000Y-12985000D01*
X4990000Y-14640000D02*
X5010000Y-14660000D01*
X5010000Y-14640000D02*
X4990000Y-14660000D01*
X5015000Y-9540000D02*
X5035000Y-9560000D01*
X5035000Y-9540000D02*
X5015000Y-9560000D01*
X6790000Y-9565000D02*
X6810000Y-9585000D01*
X6810000Y-9565000D02*
X6790000Y-9585000D01*
X6790000Y-11240000D02*
X6810000Y-11260000D01*
X6810000Y-11240000D02*
X6790000Y-11260000D01*
X6790000Y-12940000D02*
X6810000Y-12960000D01*
X6810000Y-12940000D02*
X6790000Y-12960000D01*
X6790000Y-14640000D02*
X6810000Y-14660000D01*
X6810000Y-14640000D02*
X6790000Y-14660000D01*
X8590000Y-8640000D02*
X8610000Y-8660000D01*
X8610000Y-8640000D02*
X8590000Y-8660000D01*
X8590000Y-10290000D02*
X8610000Y-10310000D01*
X8610000Y-10290000D02*
X8590000Y-10310000D01*
X8590000Y-12015000D02*
X8610000Y-12035000D01*
X8610000Y-12015000D02*
X8590000Y-12035000D01*
X8615000Y-13715000D02*
X8635000Y-13735000D01*
X8635000Y-13715000D02*
X8615000Y-13735000D01*
X10390000Y-8290000D02*
X10410000Y-8310000D01*
X10410000Y-8290000D02*
X10390000Y-8310000D01*
X10390000Y-9990000D02*
X10410000Y-10010000D01*
X10410000Y-9990000D02*
X10390000Y-10010000D01*
X10390000Y-11665000D02*
X10410000Y-11685000D01*
X10410000Y-11665000D02*
X10390000Y-11685000D01*
X10390000Y-13365000D02*
X10410000Y-13385000D01*
X10410000Y-13365000D02*
X10390000Y-13385000D01*
X12190000Y-8640000D02*
X12210000Y-8660000D01*
X12210000Y-8640000D02*
X12190000Y-8660000D01*
X12190000Y-12015000D02*
X12210000Y-12035000D01*
X12210000Y-12015000D02*
X12190000Y-12035000D01*
X12190000Y-13690000D02*
X12210000Y-13710000D01*
X12210000Y-13690000D02*
X12190000Y-13710000D01*
X12215000Y-10315000D02*
X12235000Y-10335000D01*
X12235000Y-10315000D02*
X12215000Y-10335000D01*
X12515000Y-15915000D02*
X12535000Y-15935000D01*
X12535000Y-15915000D02*
X12515000Y-15935000D01*
X13990000Y-8815000D02*
X14010000Y-8835000D01*
X14010000Y-8815000D02*
X13990000Y-8835000D01*
X13990000Y-10515000D02*
X14010000Y-10535000D01*
X14010000Y-10515000D02*
X13990000Y-10535000D01*
X13990000Y-12190000D02*
X14010000Y-12210000D01*
X14010000Y-12190000D02*
X13990000Y-12210000D01*
X13990000Y-13890000D02*
X14010000Y-13910000D01*
X14010000Y-13890000D02*
X13990000Y-13910000D01*
X14365000Y-16665000D02*
X14385000Y-16685000D01*
X14385000Y-16665000D02*
X14365000Y-16685000D01*
X16065000Y-17940000D02*
X16085000Y-17960000D01*
X16085000Y-17940000D02*
X16065000Y-17960000D01*
X15915000Y-14150000D02*
G75*
G02*
X15885000Y-14150000I-15000J0D01*
G01*
X15885000Y-14150000D02*
G75*
G02*
X15915000Y-14150000I15000J0D01*
G01*
X16640000Y-13810000D02*
G75*
G02*
X16610000Y-13810000I-15000J0D01*
G01*
X16610000Y-13810000D02*
G75*
G02*
X16640000Y-13810000I15000J0D01*
G01*
X16640000Y-14050000D02*
G75*
G02*
X16610000Y-14050000I-15000J0D01*
G01*
X16610000Y-14050000D02*
G75*
G02*
X16640000Y-14050000I15000J0D01*
G01*
X15960000Y-10245000D02*
X15960000Y-10285000D01*
X15940000Y-10265000D02*
X15980000Y-10265000D01*
X15960000Y-10499000D02*
X15960000Y-10539000D01*
X15940000Y-10519000D02*
X15980000Y-10519000D01*
X15960000Y-10753000D02*
X15960000Y-10793000D01*
X15940000Y-10773000D02*
X15980000Y-10773000D01*
X15960000Y-11007000D02*
X15960000Y-11047000D01*
X15940000Y-11027000D02*
X15980000Y-11027000D01*
X15960000Y-11261000D02*
X15960000Y-11301000D01*
X15940000Y-11281000D02*
X15980000Y-11281000D01*
X15960000Y-11515000D02*
X15960000Y-11555000D01*
X15940000Y-11535000D02*
X15980000Y-11535000D01*
X15960000Y-11769000D02*
X15960000Y-11809000D01*
X15940000Y-11789000D02*
X15980000Y-11789000D01*
X15960000Y-12023000D02*
X15960000Y-12063000D01*
X15940000Y-12043000D02*
X15980000Y-12043000D01*
X15960000Y-12277000D02*
X15960000Y-12317000D01*
X15940000Y-12297000D02*
X15980000Y-12297000D01*
X15960000Y-12531000D02*
X15960000Y-12571000D01*
X15940000Y-12551000D02*
X15980000Y-12551000D01*
X15960000Y-12785000D02*
X15960000Y-12825000D01*
X15940000Y-12805000D02*
X15980000Y-12805000D01*
X15960000Y-13039000D02*
X15960000Y-13079000D01*
X15940000Y-13059000D02*
X15980000Y-13059000D01*
X16640000Y-10245000D02*
X16640000Y-10285000D01*
X16620000Y-10265000D02*
X16660000Y-10265000D01*
X16640000Y-10499000D02*
X16640000Y-10539000D01*
X16620000Y-10519000D02*
X16660000Y-10519000D01*
X16640000Y-10753000D02*
X16640000Y-10793000D01*
X16620000Y-10773000D02*
X16660000Y-10773000D01*
X16640000Y-11007000D02*
X16640000Y-11047000D01*
X16620000Y-11027000D02*
X16660000Y-11027000D01*
X16640000Y-11261000D02*
X16640000Y-11301000D01*
X16620000Y-11281000D02*
X16660000Y-11281000D01*
X16640000Y-11515000D02*
X16640000Y-11555000D01*
X16620000Y-11535000D02*
X16660000Y-11535000D01*
X16640000Y-11769000D02*
X16640000Y-11809000D01*
X16620000Y-11789000D02*
X16660000Y-11789000D01*
X16640000Y-12023000D02*
X16640000Y-12063000D01*
X16620000Y-12043000D02*
X16660000Y-12043000D01*
X16640000Y-12277000D02*
X16640000Y-12317000D01*
X16620000Y-12297000D02*
X16660000Y-12297000D01*
X16640000Y-12531000D02*
X16640000Y-12571000D01*
X16620000Y-12551000D02*
X16660000Y-12551000D01*
X16640000Y-12785000D02*
X16640000Y-12825000D01*
X16620000Y-12805000D02*
X16660000Y-12805000D01*
X16640000Y-13039000D02*
X16640000Y-13079000D01*
X16620000Y-13059000D02*
X16660000Y-13059000D01*
X15726517Y-14561517D02*
X15726517Y-14508483D01*
X15673483Y-14508483D01*
X15673483Y-14561517D01*
X15726517Y-14561517D01*
X15926517Y-14561517D02*
X15926517Y-14508483D01*
X15873483Y-14508483D01*
X15873483Y-14561517D01*
X15926517Y-14561517D01*
X16225000Y-15050000D02*
X16270000Y-15005000D01*
X16225000Y-14960000D01*
X16180000Y-15005000D01*
X16225000Y-15050000D01*
X16310000Y-14960000D02*
X16140000Y-14960000D01*
X16140000Y-15050000D02*
G75*
G02*
X16140000Y-14960000I0J45000D01*
G01*
X16140000Y-15050000D02*
X16310000Y-15050000D01*
X16310000Y-15050000D02*
G75*
G03*
X16310000Y-14960000I0J45000D01*
G01*
X16225000Y-15510000D02*
X16270000Y-15465000D01*
X16225000Y-15420000D01*
X16180000Y-15465000D01*
X16225000Y-15510000D01*
X16310000Y-15420000D02*
X16140000Y-15420000D01*
X16140000Y-15510000D02*
G75*
G02*
X16140000Y-15420000I0J45000D01*
G01*
X16140000Y-15510000D02*
X16310000Y-15510000D01*
X16310000Y-15510000D02*
G75*
G03*
X16310000Y-15420000I0J45000D01*
G01*
X16680000Y-15050000D02*
X16725000Y-15005000D01*
X16680000Y-14960000D01*
X16635000Y-15005000D01*
X16680000Y-15050000D01*
X16710000Y-14960000D02*
X16650000Y-14960000D01*
X16650000Y-15050000D02*
G75*
G02*
X16650000Y-14960000I0J45000D01*
G01*
X16650000Y-15050000D02*
X16710000Y-15050000D01*
X16710000Y-15050000D02*
G75*
G03*
X16710000Y-14960000I0J45000D01*
G01*
X16680000Y-15510000D02*
X16725000Y-15465000D01*
X16680000Y-15420000D01*
X16635000Y-15465000D01*
X16680000Y-15510000D01*
X16710000Y-15420000D02*
X16650000Y-15420000D01*
X16650000Y-15510000D02*
G75*
G02*
X16650000Y-15420000I0J45000D01*
G01*
X16650000Y-15510000D02*
X16710000Y-15510000D01*
X16710000Y-15510000D02*
G75*
G03*
X16710000Y-15420000I0J45000D01*
G01*
X16980000Y-15050000D02*
X17025000Y-15005000D01*
X16980000Y-14960000D01*
X16935000Y-15005000D01*
X16980000Y-15050000D01*
X17010000Y-14960000D02*
X16950000Y-14960000D01*
X16950000Y-15050000D02*
G75*
G02*
X16950000Y-14960000I0J45000D01*
G01*
X16950000Y-15050000D02*
X17010000Y-15050000D01*
X17010000Y-15050000D02*
G75*
G03*
X17010000Y-14960000I0J45000D01*
G01*
X16980000Y-15510000D02*
X17025000Y-15465000D01*
X16980000Y-15420000D01*
X16935000Y-15465000D01*
X16980000Y-15510000D01*
X17010000Y-15420000D02*
X16950000Y-15420000D01*
X16950000Y-15510000D02*
G75*
G02*
X16950000Y-15420000I0J45000D01*
G01*
X16950000Y-15510000D02*
X17010000Y-15510000D01*
X17010000Y-15510000D02*
G75*
G03*
X17010000Y-15420000I0J45000D01*
G01*
X4569470Y-10250470D02*
X4668530Y-10349530D01*
X4668530Y-10250470D02*
X4569470Y-10349530D01*
X4668530Y-10300000D02*
G75*
G02*
X4569470Y-10300000I-49530J0D01*
G01*
X4569470Y-10300000D02*
G75*
G02*
X4668530Y-10300000I49530J0D01*
G01*
X4569470Y-11950470D02*
X4668530Y-12049530D01*
X4668530Y-11950470D02*
X4569470Y-12049530D01*
X4668530Y-12000000D02*
G75*
G02*
X4569470Y-12000000I-49530J0D01*
G01*
X4569470Y-12000000D02*
G75*
G02*
X4668530Y-12000000I49530J0D01*
G01*
X4569470Y-13650470D02*
X4668530Y-13749530D01*
X4668530Y-13650470D02*
X4569470Y-13749530D01*
X4668530Y-13700000D02*
G75*
G02*
X4569470Y-13700000I-49530J0D01*
G01*
X4569470Y-13700000D02*
G75*
G02*
X4668530Y-13700000I49530J0D01*
G01*
X4569470Y-15350470D02*
X4668530Y-15449530D01*
X4668530Y-15350470D02*
X4569470Y-15449530D01*
X4668530Y-15400000D02*
G75*
G02*
X4569470Y-15400000I-49530J0D01*
G01*
X4569470Y-15400000D02*
G75*
G02*
X4668530Y-15400000I49530J0D01*
G01*
X5331470Y-10250470D02*
X5430530Y-10349530D01*
X5430530Y-10250470D02*
X5331470Y-10349530D01*
X5430530Y-10300000D02*
G75*
G02*
X5331470Y-10300000I-49530J0D01*
G01*
X5331470Y-10300000D02*
G75*
G02*
X5430530Y-10300000I49530J0D01*
G01*
X5331470Y-11950470D02*
X5430530Y-12049530D01*
X5430530Y-11950470D02*
X5331470Y-12049530D01*
X5430530Y-12000000D02*
G75*
G02*
X5331470Y-12000000I-49530J0D01*
G01*
X5331470Y-12000000D02*
G75*
G02*
X5430530Y-12000000I49530J0D01*
G01*
X5331470Y-13650470D02*
X5430530Y-13749530D01*
X5430530Y-13650470D02*
X5331470Y-13749530D01*
X5430530Y-13700000D02*
G75*
G02*
X5331470Y-13700000I-49530J0D01*
G01*
X5331470Y-13700000D02*
G75*
G02*
X5430530Y-13700000I49530J0D01*
G01*
X5331470Y-15350470D02*
X5430530Y-15449530D01*
X5430530Y-15350470D02*
X5331470Y-15449530D01*
X5430530Y-15400000D02*
G75*
G02*
X5331470Y-15400000I-49530J0D01*
G01*
X5331470Y-15400000D02*
G75*
G02*
X5430530Y-15400000I49530J0D01*
G01*
X6369470Y-10250470D02*
X6468530Y-10349530D01*
X6468530Y-10250470D02*
X6369470Y-10349530D01*
X6468530Y-10300000D02*
G75*
G02*
X6369470Y-10300000I-49530J0D01*
G01*
X6369470Y-10300000D02*
G75*
G02*
X6468530Y-10300000I49530J0D01*
G01*
X6369470Y-11950470D02*
X6468530Y-12049530D01*
X6468530Y-11950470D02*
X6369470Y-12049530D01*
X6468530Y-12000000D02*
G75*
G02*
X6369470Y-12000000I-49530J0D01*
G01*
X6369470Y-12000000D02*
G75*
G02*
X6468530Y-12000000I49530J0D01*
G01*
X6369470Y-13650470D02*
X6468530Y-13749530D01*
X6468530Y-13650470D02*
X6369470Y-13749530D01*
X6468530Y-13700000D02*
G75*
G02*
X6369470Y-13700000I-49530J0D01*
G01*
X6369470Y-13700000D02*
G75*
G02*
X6468530Y-13700000I49530J0D01*
G01*
X6369470Y-15350470D02*
X6468530Y-15449530D01*
X6468530Y-15350470D02*
X6369470Y-15449530D01*
X6468530Y-15400000D02*
G75*
G02*
X6369470Y-15400000I-49530J0D01*
G01*
X6369470Y-15400000D02*
G75*
G02*
X6468530Y-15400000I49530J0D01*
G01*
X7131470Y-10250470D02*
X7230530Y-10349530D01*
X7230530Y-10250470D02*
X7131470Y-10349530D01*
X7230530Y-10300000D02*
G75*
G02*
X7131470Y-10300000I-49530J0D01*
G01*
X7131470Y-10300000D02*
G75*
G02*
X7230530Y-10300000I49530J0D01*
G01*
X7131470Y-11950470D02*
X7230530Y-12049530D01*
X7230530Y-11950470D02*
X7131470Y-12049530D01*
X7230530Y-12000000D02*
G75*
G02*
X7131470Y-12000000I-49530J0D01*
G01*
X7131470Y-12000000D02*
G75*
G02*
X7230530Y-12000000I49530J0D01*
G01*
X7131470Y-13650470D02*
X7230530Y-13749530D01*
X7230530Y-13650470D02*
X7131470Y-13749530D01*
X7230530Y-13700000D02*
G75*
G02*
X7131470Y-13700000I-49530J0D01*
G01*
X7131470Y-13700000D02*
G75*
G02*
X7230530Y-13700000I49530J0D01*
G01*
X7131470Y-15350470D02*
X7230530Y-15449530D01*
X7230530Y-15350470D02*
X7131470Y-15449530D01*
X7230530Y-15400000D02*
G75*
G02*
X7131470Y-15400000I-49530J0D01*
G01*
X7131470Y-15400000D02*
G75*
G02*
X7230530Y-15400000I49530J0D01*
G01*
X8169470Y-9315470D02*
X8268530Y-9414530D01*
X8268530Y-9315470D02*
X8169470Y-9414530D01*
X8268530Y-9365000D02*
G75*
G02*
X8169470Y-9365000I-49530J0D01*
G01*
X8169470Y-9365000D02*
G75*
G02*
X8268530Y-9365000I49530J0D01*
G01*
X8169470Y-11015470D02*
X8268530Y-11114530D01*
X8268530Y-11015470D02*
X8169470Y-11114530D01*
X8268530Y-11065000D02*
G75*
G02*
X8169470Y-11065000I-49530J0D01*
G01*
X8169470Y-11065000D02*
G75*
G02*
X8268530Y-11065000I49530J0D01*
G01*
X8169470Y-12715470D02*
X8268530Y-12814530D01*
X8268530Y-12715470D02*
X8169470Y-12814530D01*
X8268530Y-12765000D02*
G75*
G02*
X8169470Y-12765000I-49530J0D01*
G01*
X8169470Y-12765000D02*
G75*
G02*
X8268530Y-12765000I49530J0D01*
G01*
X8169470Y-14415470D02*
X8268530Y-14514530D01*
X8268530Y-14415470D02*
X8169470Y-14514530D01*
X8268530Y-14465000D02*
G75*
G02*
X8169470Y-14465000I-49530J0D01*
G01*
X8169470Y-14465000D02*
G75*
G02*
X8268530Y-14465000I49530J0D01*
G01*
X8931470Y-9315470D02*
X9030530Y-9414530D01*
X9030530Y-9315470D02*
X8931470Y-9414530D01*
X9030530Y-9365000D02*
G75*
G02*
X8931470Y-9365000I-49530J0D01*
G01*
X8931470Y-9365000D02*
G75*
G02*
X9030530Y-9365000I49530J0D01*
G01*
X8931470Y-11015470D02*
X9030530Y-11114530D01*
X9030530Y-11015470D02*
X8931470Y-11114530D01*
X9030530Y-11065000D02*
G75*
G02*
X8931470Y-11065000I-49530J0D01*
G01*
X8931470Y-11065000D02*
G75*
G02*
X9030530Y-11065000I49530J0D01*
G01*
X8931470Y-12715470D02*
X9030530Y-12814530D01*
X9030530Y-12715470D02*
X8931470Y-12814530D01*
X9030530Y-12765000D02*
G75*
G02*
X8931470Y-12765000I-49530J0D01*
G01*
X8931470Y-12765000D02*
G75*
G02*
X9030530Y-12765000I49530J0D01*
G01*
X8931470Y-14415470D02*
X9030530Y-14514530D01*
X9030530Y-14415470D02*
X8931470Y-14514530D01*
X9030530Y-14465000D02*
G75*
G02*
X8931470Y-14465000I-49530J0D01*
G01*
X8931470Y-14465000D02*
G75*
G02*
X9030530Y-14465000I49530J0D01*
G01*
X9969470Y-8975470D02*
X10068530Y-9074530D01*
X10068530Y-8975470D02*
X9969470Y-9074530D01*
X10068530Y-9025000D02*
G75*
G02*
X9969470Y-9025000I-49530J0D01*
G01*
X9969470Y-9025000D02*
G75*
G02*
X10068530Y-9025000I49530J0D01*
G01*
X9969470Y-10675470D02*
X10068530Y-10774530D01*
X10068530Y-10675470D02*
X9969470Y-10774530D01*
X10068530Y-10725000D02*
G75*
G02*
X9969470Y-10725000I-49530J0D01*
G01*
X9969470Y-10725000D02*
G75*
G02*
X10068530Y-10725000I49530J0D01*
G01*
X9969470Y-12375470D02*
X10068530Y-12474530D01*
X10068530Y-12375470D02*
X9969470Y-12474530D01*
X10068530Y-12425000D02*
G75*
G02*
X9969470Y-12425000I-49530J0D01*
G01*
X9969470Y-12425000D02*
G75*
G02*
X10068530Y-12425000I49530J0D01*
G01*
X9969470Y-14075470D02*
X10068530Y-14174530D01*
X10068530Y-14075470D02*
X9969470Y-14174530D01*
X10068530Y-14125000D02*
G75*
G02*
X9969470Y-14125000I-49530J0D01*
G01*
X9969470Y-14125000D02*
G75*
G02*
X10068530Y-14125000I49530J0D01*
G01*
X10731470Y-8975470D02*
X10830530Y-9074530D01*
X10830530Y-8975470D02*
X10731470Y-9074530D01*
X10830530Y-9025000D02*
G75*
G02*
X10731470Y-9025000I-49530J0D01*
G01*
X10731470Y-9025000D02*
G75*
G02*
X10830530Y-9025000I49530J0D01*
G01*
X10731470Y-10675470D02*
X10830530Y-10774530D01*
X10830530Y-10675470D02*
X10731470Y-10774530D01*
X10830530Y-10725000D02*
G75*
G02*
X10731470Y-10725000I-49530J0D01*
G01*
X10731470Y-10725000D02*
G75*
G02*
X10830530Y-10725000I49530J0D01*
G01*
X10731470Y-12375470D02*
X10830530Y-12474530D01*
X10830530Y-12375470D02*
X10731470Y-12474530D01*
X10830530Y-12425000D02*
G75*
G02*
X10731470Y-12425000I-49530J0D01*
G01*
X10731470Y-12425000D02*
G75*
G02*
X10830530Y-12425000I49530J0D01*
G01*
X10731470Y-14075470D02*
X10830530Y-14174530D01*
X10830530Y-14075470D02*
X10731470Y-14174530D01*
X10830530Y-14125000D02*
G75*
G02*
X10731470Y-14125000I-49530J0D01*
G01*
X10731470Y-14125000D02*
G75*
G02*
X10830530Y-14125000I49530J0D01*
G01*
X11769470Y-9315470D02*
X11868530Y-9414530D01*
X11868530Y-9315470D02*
X11769470Y-9414530D01*
X11868530Y-9365000D02*
G75*
G02*
X11769470Y-9365000I-49530J0D01*
G01*
X11769470Y-9365000D02*
G75*
G02*
X11868530Y-9365000I49530J0D01*
G01*
X11769470Y-11015470D02*
X11868530Y-11114530D01*
X11868530Y-11015470D02*
X11769470Y-11114530D01*
X11868530Y-11065000D02*
G75*
G02*
X11769470Y-11065000I-49530J0D01*
G01*
X11769470Y-11065000D02*
G75*
G02*
X11868530Y-11065000I49530J0D01*
G01*
X11769470Y-12715470D02*
X11868530Y-12814530D01*
X11868530Y-12715470D02*
X11769470Y-12814530D01*
X11868530Y-12765000D02*
G75*
G02*
X11769470Y-12765000I-49530J0D01*
G01*
X11769470Y-12765000D02*
G75*
G02*
X11868530Y-12765000I49530J0D01*
G01*
X11769470Y-14415470D02*
X11868530Y-14514530D01*
X11868530Y-14415470D02*
X11769470Y-14514530D01*
X11868530Y-14465000D02*
G75*
G02*
X11769470Y-14465000I-49530J0D01*
G01*
X11769470Y-14465000D02*
G75*
G02*
X11868530Y-14465000I49530J0D01*
G01*
X11868252Y-16435130D02*
X11967312Y-16534190D01*
X11967312Y-16435130D02*
X11868252Y-16534190D01*
X11967312Y-16484660D02*
G75*
G02*
X11868252Y-16484660I-49530J0D01*
G01*
X11868252Y-16484660D02*
G75*
G02*
X11967312Y-16484660I49530J0D01*
G01*
X12531470Y-9315470D02*
X12630530Y-9414530D01*
X12630530Y-9315470D02*
X12531470Y-9414530D01*
X12630530Y-9365000D02*
G75*
G02*
X12531470Y-9365000I-49530J0D01*
G01*
X12531470Y-9365000D02*
G75*
G02*
X12630530Y-9365000I49530J0D01*
G01*
X12531470Y-11015470D02*
X12630530Y-11114530D01*
X12630530Y-11015470D02*
X12531470Y-11114530D01*
X12630530Y-11065000D02*
G75*
G02*
X12531470Y-11065000I-49530J0D01*
G01*
X12531470Y-11065000D02*
G75*
G02*
X12630530Y-11065000I49530J0D01*
G01*
X12531470Y-12715470D02*
X12630530Y-12814530D01*
X12630530Y-12715470D02*
X12531470Y-12814530D01*
X12630530Y-12765000D02*
G75*
G02*
X12531470Y-12765000I-49530J0D01*
G01*
X12531470Y-12765000D02*
G75*
G02*
X12630530Y-12765000I49530J0D01*
G01*
X12531470Y-14415470D02*
X12630530Y-14514530D01*
X12630530Y-14415470D02*
X12531470Y-14514530D01*
X12630530Y-14465000D02*
G75*
G02*
X12531470Y-14465000I-49530J0D01*
G01*
X12531470Y-14465000D02*
G75*
G02*
X12630530Y-14465000I49530J0D01*
G01*
X12604288Y-16632350D02*
X12703348Y-16731410D01*
X12703348Y-16632350D02*
X12604288Y-16731410D01*
X12703348Y-16681880D02*
G75*
G02*
X12604288Y-16681880I-49530J0D01*
G01*
X12604288Y-16681880D02*
G75*
G02*
X12703348Y-16681880I49530J0D01*
G01*
X13569470Y-9485470D02*
X13668530Y-9584530D01*
X13668530Y-9485470D02*
X13569470Y-9584530D01*
X13668530Y-9535000D02*
G75*
G02*
X13569470Y-9535000I-49530J0D01*
G01*
X13569470Y-9535000D02*
G75*
G02*
X13668530Y-9535000I49530J0D01*
G01*
X13569470Y-11185470D02*
X13668530Y-11284530D01*
X13668530Y-11185470D02*
X13569470Y-11284530D01*
X13668530Y-11235000D02*
G75*
G02*
X13569470Y-11235000I-49530J0D01*
G01*
X13569470Y-11235000D02*
G75*
G02*
X13668530Y-11235000I49530J0D01*
G01*
X13569470Y-12885470D02*
X13668530Y-12984530D01*
X13668530Y-12885470D02*
X13569470Y-12984530D01*
X13668530Y-12935000D02*
G75*
G02*
X13569470Y-12935000I-49530J0D01*
G01*
X13569470Y-12935000D02*
G75*
G02*
X13668530Y-12935000I49530J0D01*
G01*
X13569470Y-14585470D02*
X13668530Y-14684530D01*
X13668530Y-14585470D02*
X13569470Y-14684530D01*
X13668530Y-14635000D02*
G75*
G02*
X13569470Y-14635000I-49530J0D01*
G01*
X13569470Y-14635000D02*
G75*
G02*
X13668530Y-14635000I49530J0D01*
G01*
X13663604Y-17071130D02*
X13762664Y-17170190D01*
X13762664Y-17071130D02*
X13663604Y-17170190D01*
X13762664Y-17120660D02*
G75*
G02*
X13663604Y-17120660I-49530J0D01*
G01*
X13663604Y-17120660D02*
G75*
G02*
X13762664Y-17120660I49530J0D01*
G01*
X14323516Y-17452130D02*
X14422576Y-17551190D01*
X14422576Y-17452130D02*
X14323516Y-17551190D01*
X14422576Y-17501660D02*
G75*
G02*
X14323516Y-17501660I-49530J0D01*
G01*
X14323516Y-17501660D02*
G75*
G02*
X14422576Y-17501660I49530J0D01*
G01*
X14331470Y-9485470D02*
X14430530Y-9584530D01*
X14430530Y-9485470D02*
X14331470Y-9584530D01*
X14430530Y-9535000D02*
G75*
G02*
X14331470Y-9535000I-49530J0D01*
G01*
X14331470Y-9535000D02*
G75*
G02*
X14430530Y-9535000I49530J0D01*
G01*
X14331470Y-11185470D02*
X14430530Y-11284530D01*
X14430530Y-11185470D02*
X14331470Y-11284530D01*
X14430530Y-11235000D02*
G75*
G02*
X14331470Y-11235000I-49530J0D01*
G01*
X14331470Y-11235000D02*
G75*
G02*
X14430530Y-11235000I49530J0D01*
G01*
X14331470Y-12885470D02*
X14430530Y-12984530D01*
X14430530Y-12885470D02*
X14331470Y-12984530D01*
X14430530Y-12935000D02*
G75*
G02*
X14331470Y-12935000I-49530J0D01*
G01*
X14331470Y-12935000D02*
G75*
G02*
X14430530Y-12935000I49530J0D01*
G01*
X14331470Y-14585470D02*
X14430530Y-14684530D01*
X14430530Y-14585470D02*
X14331470Y-14684530D01*
X14430530Y-14635000D02*
G75*
G02*
X14331470Y-14635000I-49530J0D01*
G01*
X14331470Y-14635000D02*
G75*
G02*
X14430530Y-14635000I49530J0D01*
G01*
X15233172Y-18150132D02*
X15332232Y-18249192D01*
X15332232Y-18150132D02*
X15233172Y-18249192D01*
X15332232Y-18199662D02*
G75*
G02*
X15233172Y-18199662I-49530J0D01*
G01*
X15233172Y-18199662D02*
G75*
G02*
X15332232Y-18199662I49530J0D01*
G01*
X15771988Y-18688948D02*
X15871048Y-18788008D01*
X15871048Y-18688948D02*
X15771988Y-18788008D01*
X15871048Y-18738478D02*
G75*
G02*
X15771988Y-18738478I-49530J0D01*
G01*
X15771988Y-18738478D02*
G75*
G02*
X15871048Y-18738478I49530J0D01*
G01*
X15488000Y-10215000D02*
X15588000Y-10315000D01*
X15588000Y-10215000D02*
X15488000Y-10315000D01*
X15538000Y-10215000D02*
X15538000Y-10315000D01*
X15488000Y-10265000D02*
X15588000Y-10265000D01*
X15488000Y-10469000D02*
X15588000Y-10569000D01*
X15588000Y-10469000D02*
X15488000Y-10569000D01*
X15538000Y-10469000D02*
X15538000Y-10569000D01*
X15488000Y-10519000D02*
X15588000Y-10519000D01*
X15488000Y-10723000D02*
X15588000Y-10823000D01*
X15588000Y-10723000D02*
X15488000Y-10823000D01*
X15538000Y-10723000D02*
X15538000Y-10823000D01*
X15488000Y-10773000D02*
X15588000Y-10773000D01*
X15488000Y-10977000D02*
X15588000Y-11077000D01*
X15588000Y-10977000D02*
X15488000Y-11077000D01*
X15538000Y-10977000D02*
X15538000Y-11077000D01*
X15488000Y-11027000D02*
X15588000Y-11027000D01*
X15488000Y-11231000D02*
X15588000Y-11331000D01*
X15588000Y-11231000D02*
X15488000Y-11331000D01*
X15538000Y-11231000D02*
X15538000Y-11331000D01*
X15488000Y-11281000D02*
X15588000Y-11281000D01*
X15488000Y-11485000D02*
X15588000Y-11585000D01*
X15588000Y-11485000D02*
X15488000Y-11585000D01*
X15538000Y-11485000D02*
X15538000Y-11585000D01*
X15488000Y-11535000D02*
X15588000Y-11535000D01*
X15488000Y-11739000D02*
X15588000Y-11839000D01*
X15588000Y-11739000D02*
X15488000Y-11839000D01*
X15538000Y-11739000D02*
X15538000Y-11839000D01*
X15488000Y-11789000D02*
X15588000Y-11789000D01*
X15488000Y-11993000D02*
X15588000Y-12093000D01*
X15588000Y-11993000D02*
X15488000Y-12093000D01*
X15538000Y-11993000D02*
X15538000Y-12093000D01*
X15488000Y-12043000D02*
X15588000Y-12043000D01*
X15488000Y-12247000D02*
X15588000Y-12347000D01*
X15588000Y-12247000D02*
X15488000Y-12347000D01*
X15538000Y-12247000D02*
X15538000Y-12347000D01*
X15488000Y-12297000D02*
X15588000Y-12297000D01*
X15488000Y-12501000D02*
X15588000Y-12601000D01*
X15588000Y-12501000D02*
X15488000Y-12601000D01*
X15538000Y-12501000D02*
X15538000Y-12601000D01*
X15488000Y-12551000D02*
X15588000Y-12551000D01*
X15488000Y-12755000D02*
X15588000Y-12855000D01*
X15588000Y-12755000D02*
X15488000Y-12855000D01*
X15538000Y-12755000D02*
X15538000Y-12855000D01*
X15488000Y-12805000D02*
X15588000Y-12805000D01*
X15488000Y-13009000D02*
X15588000Y-13109000D01*
X15588000Y-13009000D02*
X15488000Y-13109000D01*
X15538000Y-13009000D02*
X15538000Y-13109000D01*
X15488000Y-13059000D02*
X15588000Y-13059000D01*
X17012000Y-10215000D02*
X17112000Y-10315000D01*
X17112000Y-10215000D02*
X17012000Y-10315000D01*
X17062000Y-10215000D02*
X17062000Y-10315000D01*
X17012000Y-10265000D02*
X17112000Y-10265000D01*
X17012000Y-10469000D02*
X17112000Y-10569000D01*
X17112000Y-10469000D02*
X17012000Y-10569000D01*
X17062000Y-10469000D02*
X17062000Y-10569000D01*
X17012000Y-10519000D02*
X17112000Y-10519000D01*
X17012000Y-10723000D02*
X17112000Y-10823000D01*
X17112000Y-10723000D02*
X17012000Y-10823000D01*
X17062000Y-10723000D02*
X17062000Y-10823000D01*
X17012000Y-10773000D02*
X17112000Y-10773000D01*
X17012000Y-10977000D02*
X17112000Y-11077000D01*
X17112000Y-10977000D02*
X17012000Y-11077000D01*
X17062000Y-10977000D02*
X17062000Y-11077000D01*
X17012000Y-11027000D02*
X17112000Y-11027000D01*
X17012000Y-11231000D02*
X17112000Y-11331000D01*
X17112000Y-11231000D02*
X17012000Y-11331000D01*
X17062000Y-11231000D02*
X17062000Y-11331000D01*
X17012000Y-11281000D02*
X17112000Y-11281000D01*
X17012000Y-11485000D02*
X17112000Y-11585000D01*
X17112000Y-11485000D02*
X17012000Y-11585000D01*
X17062000Y-11485000D02*
X17062000Y-11585000D01*
X17012000Y-11535000D02*
X17112000Y-11535000D01*
X17012000Y-11739000D02*
X17112000Y-11839000D01*
X17112000Y-11739000D02*
X17012000Y-11839000D01*
X17062000Y-11739000D02*
X17062000Y-11839000D01*
X17012000Y-11789000D02*
X17112000Y-11789000D01*
X17012000Y-11993000D02*
X17112000Y-12093000D01*
X17112000Y-11993000D02*
X17012000Y-12093000D01*
X17062000Y-11993000D02*
X17062000Y-12093000D01*
X17012000Y-12043000D02*
X17112000Y-12043000D01*
X17012000Y-12247000D02*
X17112000Y-12347000D01*
X17112000Y-12247000D02*
X17012000Y-12347000D01*
X17062000Y-12247000D02*
X17062000Y-12347000D01*
X17012000Y-12297000D02*
X17112000Y-12297000D01*
X17012000Y-12501000D02*
X17112000Y-12601000D01*
X17112000Y-12501000D02*
X17012000Y-12601000D01*
X17062000Y-12501000D02*
X17062000Y-12601000D01*
X17012000Y-12551000D02*
X17112000Y-12551000D01*
X17012000Y-12755000D02*
X17112000Y-12855000D01*
X17112000Y-12755000D02*
X17012000Y-12855000D01*
X17062000Y-12755000D02*
X17062000Y-12855000D01*
X17012000Y-12805000D02*
X17112000Y-12805000D01*
X17012000Y-13009000D02*
X17112000Y-13109000D01*
X17112000Y-13009000D02*
X17012000Y-13109000D01*
X17062000Y-13009000D02*
X17062000Y-13109000D01*
X17012000Y-13059000D02*
X17112000Y-13059000D01*
X17050000Y-15860000D02*
X17150000Y-15960000D01*
X17150000Y-15860000D02*
X17050000Y-15960000D01*
X17100000Y-15860000D02*
X17100000Y-15960000D01*
X17050000Y-15910000D02*
X17150000Y-15910000D01*
X17050000Y-16510000D02*
X17150000Y-16610000D01*
X17150000Y-16510000D02*
X17050000Y-16610000D01*
X17100000Y-16510000D02*
X17100000Y-16610000D01*
X17050000Y-16560000D02*
X17150000Y-16560000D01*
D11*
X4153277Y-20000528D02*
X4153277Y-19800528D01*
X4153277Y-19800528D02*
X4200896Y-19800528D01*
X4200896Y-19800528D02*
X4229467Y-19810052D01*
X4229467Y-19810052D02*
X4248515Y-19829100D01*
X4248515Y-19829100D02*
X4258039Y-19848147D01*
X4258039Y-19848147D02*
X4267563Y-19886243D01*
X4267563Y-19886243D02*
X4267563Y-19914814D01*
X4267563Y-19914814D02*
X4258039Y-19952909D01*
X4258039Y-19952909D02*
X4248515Y-19971957D01*
X4248515Y-19971957D02*
X4229467Y-19991005D01*
X4229467Y-19991005D02*
X4200896Y-20000528D01*
X4200896Y-20000528D02*
X4153277Y-20000528D01*
X4353277Y-20000528D02*
X4353277Y-19867195D01*
X4353277Y-19905290D02*
X4362801Y-19886243D01*
X4362801Y-19886243D02*
X4372324Y-19876719D01*
X4372324Y-19876719D02*
X4391372Y-19867195D01*
X4391372Y-19867195D02*
X4410420Y-19867195D01*
X4477086Y-20000528D02*
X4477086Y-19867195D01*
X4477086Y-19800528D02*
X4467563Y-19810052D01*
X4467563Y-19810052D02*
X4477086Y-19819576D01*
X4477086Y-19819576D02*
X4486610Y-19810052D01*
X4486610Y-19810052D02*
X4477086Y-19800528D01*
X4477086Y-19800528D02*
X4477086Y-19819576D01*
X4600896Y-20000528D02*
X4581848Y-19991005D01*
X4581848Y-19991005D02*
X4572324Y-19971957D01*
X4572324Y-19971957D02*
X4572324Y-19800528D01*
X4705658Y-20000528D02*
X4686610Y-19991005D01*
X4686610Y-19991005D02*
X4677086Y-19971957D01*
X4677086Y-19971957D02*
X4677086Y-19800528D01*
X4934229Y-20000528D02*
X4934229Y-19800528D01*
X4934229Y-19800528D02*
X5000896Y-19943385D01*
X5000896Y-19943385D02*
X5067563Y-19800528D01*
X5067563Y-19800528D02*
X5067563Y-20000528D01*
X5248515Y-20000528D02*
X5248515Y-19895766D01*
X5248515Y-19895766D02*
X5238991Y-19876719D01*
X5238991Y-19876719D02*
X5219944Y-19867195D01*
X5219944Y-19867195D02*
X5181848Y-19867195D01*
X5181848Y-19867195D02*
X5162801Y-19876719D01*
X5248515Y-19991005D02*
X5229467Y-20000528D01*
X5229467Y-20000528D02*
X5181848Y-20000528D01*
X5181848Y-20000528D02*
X5162801Y-19991005D01*
X5162801Y-19991005D02*
X5153277Y-19971957D01*
X5153277Y-19971957D02*
X5153277Y-19952909D01*
X5153277Y-19952909D02*
X5162801Y-19933862D01*
X5162801Y-19933862D02*
X5181848Y-19924338D01*
X5181848Y-19924338D02*
X5229467Y-19924338D01*
X5229467Y-19924338D02*
X5248515Y-19914814D01*
X5343753Y-19867195D02*
X5343753Y-20067195D01*
X5343753Y-19876719D02*
X5362801Y-19867195D01*
X5362801Y-19867195D02*
X5400896Y-19867195D01*
X5400896Y-19867195D02*
X5419944Y-19876719D01*
X5419944Y-19876719D02*
X5429467Y-19886243D01*
X5429467Y-19886243D02*
X5438991Y-19905290D01*
X5438991Y-19905290D02*
X5438991Y-19962433D01*
X5438991Y-19962433D02*
X5429467Y-19981481D01*
X5429467Y-19981481D02*
X5419944Y-19991005D01*
X5419944Y-19991005D02*
X5400896Y-20000528D01*
X5400896Y-20000528D02*
X5362801Y-20000528D01*
X5362801Y-20000528D02*
X5343753Y-19991005D01*
X5524705Y-19981481D02*
X5534229Y-19991005D01*
X5534229Y-19991005D02*
X5524705Y-20000528D01*
X5524705Y-20000528D02*
X5515182Y-19991005D01*
X5515182Y-19991005D02*
X5524705Y-19981481D01*
X5524705Y-19981481D02*
X5524705Y-20000528D01*
X5524705Y-19876719D02*
X5534229Y-19886243D01*
X5534229Y-19886243D02*
X5524705Y-19895766D01*
X5524705Y-19895766D02*
X5515182Y-19886243D01*
X5515182Y-19886243D02*
X5524705Y-19876719D01*
X5524705Y-19876719D02*
X5524705Y-19895766D01*
D12*
X3872500Y-20319045D02*
X3892500Y-20339045D01*
X3892500Y-20319045D02*
X3872500Y-20339045D01*
D11*
X4191372Y-20220528D02*
X4210420Y-20220528D01*
X4210420Y-20220528D02*
X4229467Y-20230052D01*
X4229467Y-20230052D02*
X4238991Y-20239576D01*
X4238991Y-20239576D02*
X4248515Y-20258624D01*
X4248515Y-20258624D02*
X4258039Y-20296719D01*
X4258039Y-20296719D02*
X4258039Y-20344338D01*
X4258039Y-20344338D02*
X4248515Y-20382433D01*
X4248515Y-20382433D02*
X4238991Y-20401481D01*
X4238991Y-20401481D02*
X4229467Y-20411005D01*
X4229467Y-20411005D02*
X4210420Y-20420528D01*
X4210420Y-20420528D02*
X4191372Y-20420528D01*
X4191372Y-20420528D02*
X4172324Y-20411005D01*
X4172324Y-20411005D02*
X4162801Y-20401481D01*
X4162801Y-20401481D02*
X4153277Y-20382433D01*
X4153277Y-20382433D02*
X4143753Y-20344338D01*
X4143753Y-20344338D02*
X4143753Y-20296719D01*
X4143753Y-20296719D02*
X4153277Y-20258624D01*
X4153277Y-20258624D02*
X4162801Y-20239576D01*
X4162801Y-20239576D02*
X4172324Y-20230052D01*
X4172324Y-20230052D02*
X4191372Y-20220528D01*
X4343753Y-20401481D02*
X4353277Y-20411005D01*
X4353277Y-20411005D02*
X4343753Y-20420528D01*
X4343753Y-20420528D02*
X4334229Y-20411005D01*
X4334229Y-20411005D02*
X4343753Y-20401481D01*
X4343753Y-20401481D02*
X4343753Y-20420528D01*
X4429467Y-20239576D02*
X4438991Y-20230052D01*
X4438991Y-20230052D02*
X4458039Y-20220528D01*
X4458039Y-20220528D02*
X4505658Y-20220528D01*
X4505658Y-20220528D02*
X4524705Y-20230052D01*
X4524705Y-20230052D02*
X4534229Y-20239576D01*
X4534229Y-20239576D02*
X4543753Y-20258624D01*
X4543753Y-20258624D02*
X4543753Y-20277671D01*
X4543753Y-20277671D02*
X4534229Y-20306243D01*
X4534229Y-20306243D02*
X4419944Y-20420528D01*
X4419944Y-20420528D02*
X4543753Y-20420528D01*
X4667563Y-20220528D02*
X4686610Y-20220528D01*
X4686610Y-20220528D02*
X4705658Y-20230052D01*
X4705658Y-20230052D02*
X4715182Y-20239576D01*
X4715182Y-20239576D02*
X4724705Y-20258624D01*
X4724705Y-20258624D02*
X4734229Y-20296719D01*
X4734229Y-20296719D02*
X4734229Y-20344338D01*
X4734229Y-20344338D02*
X4724705Y-20382433D01*
X4724705Y-20382433D02*
X4715182Y-20401481D01*
X4715182Y-20401481D02*
X4705658Y-20411005D01*
X4705658Y-20411005D02*
X4686610Y-20420528D01*
X4686610Y-20420528D02*
X4667563Y-20420528D01*
X4667563Y-20420528D02*
X4648515Y-20411005D01*
X4648515Y-20411005D02*
X4638991Y-20401481D01*
X4638991Y-20401481D02*
X4629467Y-20382433D01*
X4629467Y-20382433D02*
X4619944Y-20344338D01*
X4619944Y-20344338D02*
X4619944Y-20296719D01*
X4619944Y-20296719D02*
X4629467Y-20258624D01*
X4629467Y-20258624D02*
X4638991Y-20239576D01*
X4638991Y-20239576D02*
X4648515Y-20230052D01*
X4648515Y-20230052D02*
X4667563Y-20220528D01*
X4858039Y-20220528D02*
X4877086Y-20220528D01*
X4877086Y-20220528D02*
X4896134Y-20230052D01*
X4896134Y-20230052D02*
X4905658Y-20239576D01*
X4905658Y-20239576D02*
X4915182Y-20258624D01*
X4915182Y-20258624D02*
X4924705Y-20296719D01*
X4924705Y-20296719D02*
X4924705Y-20344338D01*
X4924705Y-20344338D02*
X4915182Y-20382433D01*
X4915182Y-20382433D02*
X4905658Y-20401481D01*
X4905658Y-20401481D02*
X4896134Y-20411005D01*
X4896134Y-20411005D02*
X4877086Y-20420528D01*
X4877086Y-20420528D02*
X4858039Y-20420528D01*
X4858039Y-20420528D02*
X4838991Y-20411005D01*
X4838991Y-20411005D02*
X4829467Y-20401481D01*
X4829467Y-20401481D02*
X4819944Y-20382433D01*
X4819944Y-20382433D02*
X4810420Y-20344338D01*
X4810420Y-20344338D02*
X4810420Y-20296719D01*
X4810420Y-20296719D02*
X4819944Y-20258624D01*
X4819944Y-20258624D02*
X4829467Y-20239576D01*
X4829467Y-20239576D02*
X4838991Y-20230052D01*
X4838991Y-20230052D02*
X4858039Y-20220528D01*
X5010420Y-20420528D02*
X5010420Y-20287195D01*
X5010420Y-20306243D02*
X5019944Y-20296719D01*
X5019944Y-20296719D02*
X5038991Y-20287195D01*
X5038991Y-20287195D02*
X5067563Y-20287195D01*
X5067563Y-20287195D02*
X5086610Y-20296719D01*
X5086610Y-20296719D02*
X5096134Y-20315766D01*
X5096134Y-20315766D02*
X5096134Y-20420528D01*
X5096134Y-20315766D02*
X5105658Y-20296719D01*
X5105658Y-20296719D02*
X5124705Y-20287195D01*
X5124705Y-20287195D02*
X5153277Y-20287195D01*
X5153277Y-20287195D02*
X5172325Y-20296719D01*
X5172325Y-20296719D02*
X5181848Y-20315766D01*
X5181848Y-20315766D02*
X5181848Y-20420528D01*
X5277086Y-20420528D02*
X5277086Y-20287195D01*
X5277086Y-20306243D02*
X5286610Y-20296719D01*
X5286610Y-20296719D02*
X5305658Y-20287195D01*
X5305658Y-20287195D02*
X5334229Y-20287195D01*
X5334229Y-20287195D02*
X5353277Y-20296719D01*
X5353277Y-20296719D02*
X5362801Y-20315766D01*
X5362801Y-20315766D02*
X5362801Y-20420528D01*
X5362801Y-20315766D02*
X5372325Y-20296719D01*
X5372325Y-20296719D02*
X5391372Y-20287195D01*
X5391372Y-20287195D02*
X5419944Y-20287195D01*
X5419944Y-20287195D02*
X5438991Y-20296719D01*
X5438991Y-20296719D02*
X5448515Y-20315766D01*
X5448515Y-20315766D02*
X5448515Y-20420528D01*
X5838991Y-20211005D02*
X5667563Y-20468147D01*
X6096134Y-20220528D02*
X6115182Y-20220528D01*
X6115182Y-20220528D02*
X6134229Y-20230052D01*
X6134229Y-20230052D02*
X6143753Y-20239576D01*
X6143753Y-20239576D02*
X6153277Y-20258624D01*
X6153277Y-20258624D02*
X6162801Y-20296719D01*
X6162801Y-20296719D02*
X6162801Y-20344338D01*
X6162801Y-20344338D02*
X6153277Y-20382433D01*
X6153277Y-20382433D02*
X6143753Y-20401481D01*
X6143753Y-20401481D02*
X6134229Y-20411005D01*
X6134229Y-20411005D02*
X6115182Y-20420528D01*
X6115182Y-20420528D02*
X6096134Y-20420528D01*
X6096134Y-20420528D02*
X6077086Y-20411005D01*
X6077086Y-20411005D02*
X6067563Y-20401481D01*
X6067563Y-20401481D02*
X6058039Y-20382433D01*
X6058039Y-20382433D02*
X6048515Y-20344338D01*
X6048515Y-20344338D02*
X6048515Y-20296719D01*
X6048515Y-20296719D02*
X6058039Y-20258624D01*
X6058039Y-20258624D02*
X6067563Y-20239576D01*
X6067563Y-20239576D02*
X6077086Y-20230052D01*
X6077086Y-20230052D02*
X6096134Y-20220528D01*
X6248515Y-20401481D02*
X6258039Y-20411005D01*
X6258039Y-20411005D02*
X6248515Y-20420528D01*
X6248515Y-20420528D02*
X6238991Y-20411005D01*
X6238991Y-20411005D02*
X6248515Y-20401481D01*
X6248515Y-20401481D02*
X6248515Y-20420528D01*
X6381848Y-20220528D02*
X6400896Y-20220528D01*
X6400896Y-20220528D02*
X6419944Y-20230052D01*
X6419944Y-20230052D02*
X6429467Y-20239576D01*
X6429467Y-20239576D02*
X6438991Y-20258624D01*
X6438991Y-20258624D02*
X6448515Y-20296719D01*
X6448515Y-20296719D02*
X6448515Y-20344338D01*
X6448515Y-20344338D02*
X6438991Y-20382433D01*
X6438991Y-20382433D02*
X6429467Y-20401481D01*
X6429467Y-20401481D02*
X6419944Y-20411005D01*
X6419944Y-20411005D02*
X6400896Y-20420528D01*
X6400896Y-20420528D02*
X6381848Y-20420528D01*
X6381848Y-20420528D02*
X6362801Y-20411005D01*
X6362801Y-20411005D02*
X6353277Y-20401481D01*
X6353277Y-20401481D02*
X6343753Y-20382433D01*
X6343753Y-20382433D02*
X6334229Y-20344338D01*
X6334229Y-20344338D02*
X6334229Y-20296719D01*
X6334229Y-20296719D02*
X6343753Y-20258624D01*
X6343753Y-20258624D02*
X6353277Y-20239576D01*
X6353277Y-20239576D02*
X6362801Y-20230052D01*
X6362801Y-20230052D02*
X6381848Y-20220528D01*
X6572325Y-20220528D02*
X6591372Y-20220528D01*
X6591372Y-20220528D02*
X6610420Y-20230052D01*
X6610420Y-20230052D02*
X6619944Y-20239576D01*
X6619944Y-20239576D02*
X6629467Y-20258624D01*
X6629467Y-20258624D02*
X6638991Y-20296719D01*
X6638991Y-20296719D02*
X6638991Y-20344338D01*
X6638991Y-20344338D02*
X6629467Y-20382433D01*
X6629467Y-20382433D02*
X6619944Y-20401481D01*
X6619944Y-20401481D02*
X6610420Y-20411005D01*
X6610420Y-20411005D02*
X6591372Y-20420528D01*
X6591372Y-20420528D02*
X6572325Y-20420528D01*
X6572325Y-20420528D02*
X6553277Y-20411005D01*
X6553277Y-20411005D02*
X6543753Y-20401481D01*
X6543753Y-20401481D02*
X6534229Y-20382433D01*
X6534229Y-20382433D02*
X6524706Y-20344338D01*
X6524706Y-20344338D02*
X6524706Y-20296719D01*
X6524706Y-20296719D02*
X6534229Y-20258624D01*
X6534229Y-20258624D02*
X6543753Y-20239576D01*
X6543753Y-20239576D02*
X6553277Y-20230052D01*
X6553277Y-20230052D02*
X6572325Y-20220528D01*
X6705658Y-20220528D02*
X6838991Y-20220528D01*
X6838991Y-20220528D02*
X6753277Y-20420528D01*
X6924706Y-20420528D02*
X6962801Y-20420528D01*
X6962801Y-20420528D02*
X6981848Y-20411005D01*
X6981848Y-20411005D02*
X6991372Y-20401481D01*
X6991372Y-20401481D02*
X7010420Y-20372909D01*
X7010420Y-20372909D02*
X7019944Y-20334814D01*
X7019944Y-20334814D02*
X7019944Y-20258624D01*
X7019944Y-20258624D02*
X7010420Y-20239576D01*
X7010420Y-20239576D02*
X7000896Y-20230052D01*
X7000896Y-20230052D02*
X6981848Y-20220528D01*
X6981848Y-20220528D02*
X6943753Y-20220528D01*
X6943753Y-20220528D02*
X6924706Y-20230052D01*
X6924706Y-20230052D02*
X6915182Y-20239576D01*
X6915182Y-20239576D02*
X6905658Y-20258624D01*
X6905658Y-20258624D02*
X6905658Y-20306243D01*
X6905658Y-20306243D02*
X6915182Y-20325290D01*
X6915182Y-20325290D02*
X6924706Y-20334814D01*
X6924706Y-20334814D02*
X6943753Y-20344338D01*
X6943753Y-20344338D02*
X6981848Y-20344338D01*
X6981848Y-20344338D02*
X7000896Y-20334814D01*
X7000896Y-20334814D02*
X7010420Y-20325290D01*
X7010420Y-20325290D02*
X7019944Y-20306243D01*
X7096134Y-20220528D02*
X7096134Y-20258624D01*
X7172325Y-20220528D02*
X7172325Y-20258624D01*
X7467563Y-20496719D02*
X7458039Y-20487195D01*
X7458039Y-20487195D02*
X7438991Y-20458624D01*
X7438991Y-20458624D02*
X7429468Y-20439576D01*
X7429468Y-20439576D02*
X7419944Y-20411005D01*
X7419944Y-20411005D02*
X7410420Y-20363385D01*
X7410420Y-20363385D02*
X7410420Y-20325290D01*
X7410420Y-20325290D02*
X7419944Y-20277671D01*
X7419944Y-20277671D02*
X7429468Y-20249100D01*
X7429468Y-20249100D02*
X7438991Y-20230052D01*
X7438991Y-20230052D02*
X7458039Y-20201481D01*
X7458039Y-20201481D02*
X7467563Y-20191957D01*
X7534229Y-20239576D02*
X7543753Y-20230052D01*
X7543753Y-20230052D02*
X7562801Y-20220528D01*
X7562801Y-20220528D02*
X7610420Y-20220528D01*
X7610420Y-20220528D02*
X7629468Y-20230052D01*
X7629468Y-20230052D02*
X7638991Y-20239576D01*
X7638991Y-20239576D02*
X7648515Y-20258624D01*
X7648515Y-20258624D02*
X7648515Y-20277671D01*
X7648515Y-20277671D02*
X7638991Y-20306243D01*
X7638991Y-20306243D02*
X7524706Y-20420528D01*
X7524706Y-20420528D02*
X7648515Y-20420528D01*
X7715182Y-20220528D02*
X7848515Y-20220528D01*
X7848515Y-20220528D02*
X7762801Y-20420528D01*
X8077087Y-20420528D02*
X8077087Y-20220528D01*
X8162801Y-20420528D02*
X8162801Y-20315766D01*
X8162801Y-20315766D02*
X8153277Y-20296719D01*
X8153277Y-20296719D02*
X8134230Y-20287195D01*
X8134230Y-20287195D02*
X8105658Y-20287195D01*
X8105658Y-20287195D02*
X8086610Y-20296719D01*
X8086610Y-20296719D02*
X8077087Y-20306243D01*
X8286610Y-20420528D02*
X8267563Y-20411005D01*
X8267563Y-20411005D02*
X8258039Y-20401481D01*
X8258039Y-20401481D02*
X8248515Y-20382433D01*
X8248515Y-20382433D02*
X8248515Y-20325290D01*
X8248515Y-20325290D02*
X8258039Y-20306243D01*
X8258039Y-20306243D02*
X8267563Y-20296719D01*
X8267563Y-20296719D02*
X8286610Y-20287195D01*
X8286610Y-20287195D02*
X8315182Y-20287195D01*
X8315182Y-20287195D02*
X8334230Y-20296719D01*
X8334230Y-20296719D02*
X8343753Y-20306243D01*
X8343753Y-20306243D02*
X8353277Y-20325290D01*
X8353277Y-20325290D02*
X8353277Y-20382433D01*
X8353277Y-20382433D02*
X8343753Y-20401481D01*
X8343753Y-20401481D02*
X8334230Y-20411005D01*
X8334230Y-20411005D02*
X8315182Y-20420528D01*
X8315182Y-20420528D02*
X8286610Y-20420528D01*
X8467563Y-20420528D02*
X8448515Y-20411005D01*
X8448515Y-20411005D02*
X8438992Y-20391957D01*
X8438992Y-20391957D02*
X8438992Y-20220528D01*
X8619944Y-20411005D02*
X8600896Y-20420528D01*
X8600896Y-20420528D02*
X8562801Y-20420528D01*
X8562801Y-20420528D02*
X8543753Y-20411005D01*
X8543753Y-20411005D02*
X8534230Y-20391957D01*
X8534230Y-20391957D02*
X8534230Y-20315766D01*
X8534230Y-20315766D02*
X8543753Y-20296719D01*
X8543753Y-20296719D02*
X8562801Y-20287195D01*
X8562801Y-20287195D02*
X8600896Y-20287195D01*
X8600896Y-20287195D02*
X8619944Y-20296719D01*
X8619944Y-20296719D02*
X8629468Y-20315766D01*
X8629468Y-20315766D02*
X8629468Y-20334814D01*
X8629468Y-20334814D02*
X8534230Y-20353862D01*
X8705658Y-20411005D02*
X8724706Y-20420528D01*
X8724706Y-20420528D02*
X8762801Y-20420528D01*
X8762801Y-20420528D02*
X8781849Y-20411005D01*
X8781849Y-20411005D02*
X8791373Y-20391957D01*
X8791373Y-20391957D02*
X8791373Y-20382433D01*
X8791373Y-20382433D02*
X8781849Y-20363385D01*
X8781849Y-20363385D02*
X8762801Y-20353862D01*
X8762801Y-20353862D02*
X8734230Y-20353862D01*
X8734230Y-20353862D02*
X8715182Y-20344338D01*
X8715182Y-20344338D02*
X8705658Y-20325290D01*
X8705658Y-20325290D02*
X8705658Y-20315766D01*
X8705658Y-20315766D02*
X8715182Y-20296719D01*
X8715182Y-20296719D02*
X8734230Y-20287195D01*
X8734230Y-20287195D02*
X8762801Y-20287195D01*
X8762801Y-20287195D02*
X8781849Y-20296719D01*
X8858039Y-20496719D02*
X8867563Y-20487195D01*
X8867563Y-20487195D02*
X8886611Y-20458624D01*
X8886611Y-20458624D02*
X8896134Y-20439576D01*
X8896134Y-20439576D02*
X8905658Y-20411005D01*
X8905658Y-20411005D02*
X8915182Y-20363385D01*
X8915182Y-20363385D02*
X8915182Y-20325290D01*
X8915182Y-20325290D02*
X8905658Y-20277671D01*
X8905658Y-20277671D02*
X8896134Y-20249100D01*
X8896134Y-20249100D02*
X8886611Y-20230052D01*
X8886611Y-20230052D02*
X8867563Y-20201481D01*
X8867563Y-20201481D02*
X8858039Y-20191957D01*
D12*
X3892500Y-20593045D02*
G75*
G02*
X3862500Y-20593045I-15000J0D01*
G01*
X3862500Y-20593045D02*
G75*
G02*
X3892500Y-20593045I15000J0D01*
G01*
D11*
X4191372Y-20484528D02*
X4210420Y-20484528D01*
X4210420Y-20484528D02*
X4229467Y-20494052D01*
X4229467Y-20494052D02*
X4238991Y-20503576D01*
X4238991Y-20503576D02*
X4248515Y-20522624D01*
X4248515Y-20522624D02*
X4258039Y-20560719D01*
X4258039Y-20560719D02*
X4258039Y-20608338D01*
X4258039Y-20608338D02*
X4248515Y-20646433D01*
X4248515Y-20646433D02*
X4238991Y-20665481D01*
X4238991Y-20665481D02*
X4229467Y-20675005D01*
X4229467Y-20675005D02*
X4210420Y-20684528D01*
X4210420Y-20684528D02*
X4191372Y-20684528D01*
X4191372Y-20684528D02*
X4172324Y-20675005D01*
X4172324Y-20675005D02*
X4162801Y-20665481D01*
X4162801Y-20665481D02*
X4153277Y-20646433D01*
X4153277Y-20646433D02*
X4143753Y-20608338D01*
X4143753Y-20608338D02*
X4143753Y-20560719D01*
X4143753Y-20560719D02*
X4153277Y-20522624D01*
X4153277Y-20522624D02*
X4162801Y-20503576D01*
X4162801Y-20503576D02*
X4172324Y-20494052D01*
X4172324Y-20494052D02*
X4191372Y-20484528D01*
X4343753Y-20665481D02*
X4353277Y-20675005D01*
X4353277Y-20675005D02*
X4343753Y-20684528D01*
X4343753Y-20684528D02*
X4334229Y-20675005D01*
X4334229Y-20675005D02*
X4343753Y-20665481D01*
X4343753Y-20665481D02*
X4343753Y-20684528D01*
X4419944Y-20484528D02*
X4543753Y-20484528D01*
X4543753Y-20484528D02*
X4477086Y-20560719D01*
X4477086Y-20560719D02*
X4505658Y-20560719D01*
X4505658Y-20560719D02*
X4524705Y-20570243D01*
X4524705Y-20570243D02*
X4534229Y-20579766D01*
X4534229Y-20579766D02*
X4543753Y-20598814D01*
X4543753Y-20598814D02*
X4543753Y-20646433D01*
X4543753Y-20646433D02*
X4534229Y-20665481D01*
X4534229Y-20665481D02*
X4524705Y-20675005D01*
X4524705Y-20675005D02*
X4505658Y-20684528D01*
X4505658Y-20684528D02*
X4448515Y-20684528D01*
X4448515Y-20684528D02*
X4429467Y-20675005D01*
X4429467Y-20675005D02*
X4419944Y-20665481D01*
X4667563Y-20484528D02*
X4686610Y-20484528D01*
X4686610Y-20484528D02*
X4705658Y-20494052D01*
X4705658Y-20494052D02*
X4715182Y-20503576D01*
X4715182Y-20503576D02*
X4724705Y-20522624D01*
X4724705Y-20522624D02*
X4734229Y-20560719D01*
X4734229Y-20560719D02*
X4734229Y-20608338D01*
X4734229Y-20608338D02*
X4724705Y-20646433D01*
X4724705Y-20646433D02*
X4715182Y-20665481D01*
X4715182Y-20665481D02*
X4705658Y-20675005D01*
X4705658Y-20675005D02*
X4686610Y-20684528D01*
X4686610Y-20684528D02*
X4667563Y-20684528D01*
X4667563Y-20684528D02*
X4648515Y-20675005D01*
X4648515Y-20675005D02*
X4638991Y-20665481D01*
X4638991Y-20665481D02*
X4629467Y-20646433D01*
X4629467Y-20646433D02*
X4619944Y-20608338D01*
X4619944Y-20608338D02*
X4619944Y-20560719D01*
X4619944Y-20560719D02*
X4629467Y-20522624D01*
X4629467Y-20522624D02*
X4638991Y-20503576D01*
X4638991Y-20503576D02*
X4648515Y-20494052D01*
X4648515Y-20494052D02*
X4667563Y-20484528D01*
X4858039Y-20484528D02*
X4877086Y-20484528D01*
X4877086Y-20484528D02*
X4896134Y-20494052D01*
X4896134Y-20494052D02*
X4905658Y-20503576D01*
X4905658Y-20503576D02*
X4915182Y-20522624D01*
X4915182Y-20522624D02*
X4924705Y-20560719D01*
X4924705Y-20560719D02*
X4924705Y-20608338D01*
X4924705Y-20608338D02*
X4915182Y-20646433D01*
X4915182Y-20646433D02*
X4905658Y-20665481D01*
X4905658Y-20665481D02*
X4896134Y-20675005D01*
X4896134Y-20675005D02*
X4877086Y-20684528D01*
X4877086Y-20684528D02*
X4858039Y-20684528D01*
X4858039Y-20684528D02*
X4838991Y-20675005D01*
X4838991Y-20675005D02*
X4829467Y-20665481D01*
X4829467Y-20665481D02*
X4819944Y-20646433D01*
X4819944Y-20646433D02*
X4810420Y-20608338D01*
X4810420Y-20608338D02*
X4810420Y-20560719D01*
X4810420Y-20560719D02*
X4819944Y-20522624D01*
X4819944Y-20522624D02*
X4829467Y-20503576D01*
X4829467Y-20503576D02*
X4838991Y-20494052D01*
X4838991Y-20494052D02*
X4858039Y-20484528D01*
X5010420Y-20684528D02*
X5010420Y-20551195D01*
X5010420Y-20570243D02*
X5019944Y-20560719D01*
X5019944Y-20560719D02*
X5038991Y-20551195D01*
X5038991Y-20551195D02*
X5067563Y-20551195D01*
X5067563Y-20551195D02*
X5086610Y-20560719D01*
X5086610Y-20560719D02*
X5096134Y-20579766D01*
X5096134Y-20579766D02*
X5096134Y-20684528D01*
X5096134Y-20579766D02*
X5105658Y-20560719D01*
X5105658Y-20560719D02*
X5124705Y-20551195D01*
X5124705Y-20551195D02*
X5153277Y-20551195D01*
X5153277Y-20551195D02*
X5172325Y-20560719D01*
X5172325Y-20560719D02*
X5181848Y-20579766D01*
X5181848Y-20579766D02*
X5181848Y-20684528D01*
X5277086Y-20684528D02*
X5277086Y-20551195D01*
X5277086Y-20570243D02*
X5286610Y-20560719D01*
X5286610Y-20560719D02*
X5305658Y-20551195D01*
X5305658Y-20551195D02*
X5334229Y-20551195D01*
X5334229Y-20551195D02*
X5353277Y-20560719D01*
X5353277Y-20560719D02*
X5362801Y-20579766D01*
X5362801Y-20579766D02*
X5362801Y-20684528D01*
X5362801Y-20579766D02*
X5372325Y-20560719D01*
X5372325Y-20560719D02*
X5391372Y-20551195D01*
X5391372Y-20551195D02*
X5419944Y-20551195D01*
X5419944Y-20551195D02*
X5438991Y-20560719D01*
X5438991Y-20560719D02*
X5448515Y-20579766D01*
X5448515Y-20579766D02*
X5448515Y-20684528D01*
X5838991Y-20475005D02*
X5667563Y-20732147D01*
X6096134Y-20484528D02*
X6115182Y-20484528D01*
X6115182Y-20484528D02*
X6134229Y-20494052D01*
X6134229Y-20494052D02*
X6143753Y-20503576D01*
X6143753Y-20503576D02*
X6153277Y-20522624D01*
X6153277Y-20522624D02*
X6162801Y-20560719D01*
X6162801Y-20560719D02*
X6162801Y-20608338D01*
X6162801Y-20608338D02*
X6153277Y-20646433D01*
X6153277Y-20646433D02*
X6143753Y-20665481D01*
X6143753Y-20665481D02*
X6134229Y-20675005D01*
X6134229Y-20675005D02*
X6115182Y-20684528D01*
X6115182Y-20684528D02*
X6096134Y-20684528D01*
X6096134Y-20684528D02*
X6077086Y-20675005D01*
X6077086Y-20675005D02*
X6067563Y-20665481D01*
X6067563Y-20665481D02*
X6058039Y-20646433D01*
X6058039Y-20646433D02*
X6048515Y-20608338D01*
X6048515Y-20608338D02*
X6048515Y-20560719D01*
X6048515Y-20560719D02*
X6058039Y-20522624D01*
X6058039Y-20522624D02*
X6067563Y-20503576D01*
X6067563Y-20503576D02*
X6077086Y-20494052D01*
X6077086Y-20494052D02*
X6096134Y-20484528D01*
X6248515Y-20665481D02*
X6258039Y-20675005D01*
X6258039Y-20675005D02*
X6248515Y-20684528D01*
X6248515Y-20684528D02*
X6238991Y-20675005D01*
X6238991Y-20675005D02*
X6248515Y-20665481D01*
X6248515Y-20665481D02*
X6248515Y-20684528D01*
X6381848Y-20484528D02*
X6400896Y-20484528D01*
X6400896Y-20484528D02*
X6419944Y-20494052D01*
X6419944Y-20494052D02*
X6429467Y-20503576D01*
X6429467Y-20503576D02*
X6438991Y-20522624D01*
X6438991Y-20522624D02*
X6448515Y-20560719D01*
X6448515Y-20560719D02*
X6448515Y-20608338D01*
X6448515Y-20608338D02*
X6438991Y-20646433D01*
X6438991Y-20646433D02*
X6429467Y-20665481D01*
X6429467Y-20665481D02*
X6419944Y-20675005D01*
X6419944Y-20675005D02*
X6400896Y-20684528D01*
X6400896Y-20684528D02*
X6381848Y-20684528D01*
X6381848Y-20684528D02*
X6362801Y-20675005D01*
X6362801Y-20675005D02*
X6353277Y-20665481D01*
X6353277Y-20665481D02*
X6343753Y-20646433D01*
X6343753Y-20646433D02*
X6334229Y-20608338D01*
X6334229Y-20608338D02*
X6334229Y-20560719D01*
X6334229Y-20560719D02*
X6343753Y-20522624D01*
X6343753Y-20522624D02*
X6353277Y-20503576D01*
X6353277Y-20503576D02*
X6362801Y-20494052D01*
X6362801Y-20494052D02*
X6381848Y-20484528D01*
X6638991Y-20684528D02*
X6524706Y-20684528D01*
X6581848Y-20684528D02*
X6581848Y-20484528D01*
X6581848Y-20484528D02*
X6562801Y-20513100D01*
X6562801Y-20513100D02*
X6543753Y-20532147D01*
X6543753Y-20532147D02*
X6524706Y-20541671D01*
X6829467Y-20684528D02*
X6715182Y-20684528D01*
X6772325Y-20684528D02*
X6772325Y-20484528D01*
X6772325Y-20484528D02*
X6753277Y-20513100D01*
X6753277Y-20513100D02*
X6734229Y-20532147D01*
X6734229Y-20532147D02*
X6715182Y-20541671D01*
X6943753Y-20570243D02*
X6924706Y-20560719D01*
X6924706Y-20560719D02*
X6915182Y-20551195D01*
X6915182Y-20551195D02*
X6905658Y-20532147D01*
X6905658Y-20532147D02*
X6905658Y-20522624D01*
X6905658Y-20522624D02*
X6915182Y-20503576D01*
X6915182Y-20503576D02*
X6924706Y-20494052D01*
X6924706Y-20494052D02*
X6943753Y-20484528D01*
X6943753Y-20484528D02*
X6981848Y-20484528D01*
X6981848Y-20484528D02*
X7000896Y-20494052D01*
X7000896Y-20494052D02*
X7010420Y-20503576D01*
X7010420Y-20503576D02*
X7019944Y-20522624D01*
X7019944Y-20522624D02*
X7019944Y-20532147D01*
X7019944Y-20532147D02*
X7010420Y-20551195D01*
X7010420Y-20551195D02*
X7000896Y-20560719D01*
X7000896Y-20560719D02*
X6981848Y-20570243D01*
X6981848Y-20570243D02*
X6943753Y-20570243D01*
X6943753Y-20570243D02*
X6924706Y-20579766D01*
X6924706Y-20579766D02*
X6915182Y-20589290D01*
X6915182Y-20589290D02*
X6905658Y-20608338D01*
X6905658Y-20608338D02*
X6905658Y-20646433D01*
X6905658Y-20646433D02*
X6915182Y-20665481D01*
X6915182Y-20665481D02*
X6924706Y-20675005D01*
X6924706Y-20675005D02*
X6943753Y-20684528D01*
X6943753Y-20684528D02*
X6981848Y-20684528D01*
X6981848Y-20684528D02*
X7000896Y-20675005D01*
X7000896Y-20675005D02*
X7010420Y-20665481D01*
X7010420Y-20665481D02*
X7019944Y-20646433D01*
X7019944Y-20646433D02*
X7019944Y-20608338D01*
X7019944Y-20608338D02*
X7010420Y-20589290D01*
X7010420Y-20589290D02*
X7000896Y-20579766D01*
X7000896Y-20579766D02*
X6981848Y-20570243D01*
X7096134Y-20484528D02*
X7096134Y-20522624D01*
X7172325Y-20484528D02*
X7172325Y-20522624D01*
X7467563Y-20760719D02*
X7458039Y-20751195D01*
X7458039Y-20751195D02*
X7438991Y-20722624D01*
X7438991Y-20722624D02*
X7429468Y-20703576D01*
X7429468Y-20703576D02*
X7419944Y-20675005D01*
X7419944Y-20675005D02*
X7410420Y-20627385D01*
X7410420Y-20627385D02*
X7410420Y-20589290D01*
X7410420Y-20589290D02*
X7419944Y-20541671D01*
X7419944Y-20541671D02*
X7429468Y-20513100D01*
X7429468Y-20513100D02*
X7438991Y-20494052D01*
X7438991Y-20494052D02*
X7458039Y-20465481D01*
X7458039Y-20465481D02*
X7467563Y-20455957D01*
X7524706Y-20484528D02*
X7648515Y-20484528D01*
X7648515Y-20484528D02*
X7581848Y-20560719D01*
X7581848Y-20560719D02*
X7610420Y-20560719D01*
X7610420Y-20560719D02*
X7629468Y-20570243D01*
X7629468Y-20570243D02*
X7638991Y-20579766D01*
X7638991Y-20579766D02*
X7648515Y-20598814D01*
X7648515Y-20598814D02*
X7648515Y-20646433D01*
X7648515Y-20646433D02*
X7638991Y-20665481D01*
X7638991Y-20665481D02*
X7629468Y-20675005D01*
X7629468Y-20675005D02*
X7610420Y-20684528D01*
X7610420Y-20684528D02*
X7553277Y-20684528D01*
X7553277Y-20684528D02*
X7534229Y-20675005D01*
X7534229Y-20675005D02*
X7524706Y-20665481D01*
X7886610Y-20684528D02*
X7886610Y-20484528D01*
X7972325Y-20684528D02*
X7972325Y-20579766D01*
X7972325Y-20579766D02*
X7962801Y-20560719D01*
X7962801Y-20560719D02*
X7943753Y-20551195D01*
X7943753Y-20551195D02*
X7915182Y-20551195D01*
X7915182Y-20551195D02*
X7896134Y-20560719D01*
X7896134Y-20560719D02*
X7886610Y-20570243D01*
X8096134Y-20684528D02*
X8077087Y-20675005D01*
X8077087Y-20675005D02*
X8067563Y-20665481D01*
X8067563Y-20665481D02*
X8058039Y-20646433D01*
X8058039Y-20646433D02*
X8058039Y-20589290D01*
X8058039Y-20589290D02*
X8067563Y-20570243D01*
X8067563Y-20570243D02*
X8077087Y-20560719D01*
X8077087Y-20560719D02*
X8096134Y-20551195D01*
X8096134Y-20551195D02*
X8124706Y-20551195D01*
X8124706Y-20551195D02*
X8143753Y-20560719D01*
X8143753Y-20560719D02*
X8153277Y-20570243D01*
X8153277Y-20570243D02*
X8162801Y-20589290D01*
X8162801Y-20589290D02*
X8162801Y-20646433D01*
X8162801Y-20646433D02*
X8153277Y-20665481D01*
X8153277Y-20665481D02*
X8143753Y-20675005D01*
X8143753Y-20675005D02*
X8124706Y-20684528D01*
X8124706Y-20684528D02*
X8096134Y-20684528D01*
X8277087Y-20684528D02*
X8258039Y-20675005D01*
X8258039Y-20675005D02*
X8248515Y-20655957D01*
X8248515Y-20655957D02*
X8248515Y-20484528D01*
X8429468Y-20675005D02*
X8410420Y-20684528D01*
X8410420Y-20684528D02*
X8372325Y-20684528D01*
X8372325Y-20684528D02*
X8353277Y-20675005D01*
X8353277Y-20675005D02*
X8343753Y-20655957D01*
X8343753Y-20655957D02*
X8343753Y-20579766D01*
X8343753Y-20579766D02*
X8353277Y-20560719D01*
X8353277Y-20560719D02*
X8372325Y-20551195D01*
X8372325Y-20551195D02*
X8410420Y-20551195D01*
X8410420Y-20551195D02*
X8429468Y-20560719D01*
X8429468Y-20560719D02*
X8438992Y-20579766D01*
X8438992Y-20579766D02*
X8438992Y-20598814D01*
X8438992Y-20598814D02*
X8343753Y-20617862D01*
X8515182Y-20675005D02*
X8534230Y-20684528D01*
X8534230Y-20684528D02*
X8572325Y-20684528D01*
X8572325Y-20684528D02*
X8591373Y-20675005D01*
X8591373Y-20675005D02*
X8600896Y-20655957D01*
X8600896Y-20655957D02*
X8600896Y-20646433D01*
X8600896Y-20646433D02*
X8591373Y-20627385D01*
X8591373Y-20627385D02*
X8572325Y-20617862D01*
X8572325Y-20617862D02*
X8543753Y-20617862D01*
X8543753Y-20617862D02*
X8524706Y-20608338D01*
X8524706Y-20608338D02*
X8515182Y-20589290D01*
X8515182Y-20589290D02*
X8515182Y-20579766D01*
X8515182Y-20579766D02*
X8524706Y-20560719D01*
X8524706Y-20560719D02*
X8543753Y-20551195D01*
X8543753Y-20551195D02*
X8572325Y-20551195D01*
X8572325Y-20551195D02*
X8591373Y-20560719D01*
X8667563Y-20760719D02*
X8677087Y-20751195D01*
X8677087Y-20751195D02*
X8696134Y-20722624D01*
X8696134Y-20722624D02*
X8705658Y-20703576D01*
X8705658Y-20703576D02*
X8715182Y-20675005D01*
X8715182Y-20675005D02*
X8724706Y-20627385D01*
X8724706Y-20627385D02*
X8724706Y-20589290D01*
X8724706Y-20589290D02*
X8715182Y-20541671D01*
X8715182Y-20541671D02*
X8705658Y-20513100D01*
X8705658Y-20513100D02*
X8696134Y-20494052D01*
X8696134Y-20494052D02*
X8677087Y-20465481D01*
X8677087Y-20465481D02*
X8667563Y-20455957D01*
D12*
X3872500Y-20837045D02*
X3872500Y-20877045D01*
X3852500Y-20857045D02*
X3892500Y-20857045D01*
D11*
X4191372Y-20748528D02*
X4210420Y-20748528D01*
X4210420Y-20748528D02*
X4229467Y-20758052D01*
X4229467Y-20758052D02*
X4238991Y-20767576D01*
X4238991Y-20767576D02*
X4248515Y-20786624D01*
X4248515Y-20786624D02*
X4258039Y-20824719D01*
X4258039Y-20824719D02*
X4258039Y-20872338D01*
X4258039Y-20872338D02*
X4248515Y-20910433D01*
X4248515Y-20910433D02*
X4238991Y-20929481D01*
X4238991Y-20929481D02*
X4229467Y-20939005D01*
X4229467Y-20939005D02*
X4210420Y-20948528D01*
X4210420Y-20948528D02*
X4191372Y-20948528D01*
X4191372Y-20948528D02*
X4172324Y-20939005D01*
X4172324Y-20939005D02*
X4162801Y-20929481D01*
X4162801Y-20929481D02*
X4153277Y-20910433D01*
X4153277Y-20910433D02*
X4143753Y-20872338D01*
X4143753Y-20872338D02*
X4143753Y-20824719D01*
X4143753Y-20824719D02*
X4153277Y-20786624D01*
X4153277Y-20786624D02*
X4162801Y-20767576D01*
X4162801Y-20767576D02*
X4172324Y-20758052D01*
X4172324Y-20758052D02*
X4191372Y-20748528D01*
X4343753Y-20929481D02*
X4353277Y-20939005D01*
X4353277Y-20939005D02*
X4343753Y-20948528D01*
X4343753Y-20948528D02*
X4334229Y-20939005D01*
X4334229Y-20939005D02*
X4343753Y-20929481D01*
X4343753Y-20929481D02*
X4343753Y-20948528D01*
X4524705Y-20815195D02*
X4524705Y-20948528D01*
X4477086Y-20739005D02*
X4429467Y-20881862D01*
X4429467Y-20881862D02*
X4553277Y-20881862D01*
X4667563Y-20748528D02*
X4686610Y-20748528D01*
X4686610Y-20748528D02*
X4705658Y-20758052D01*
X4705658Y-20758052D02*
X4715182Y-20767576D01*
X4715182Y-20767576D02*
X4724705Y-20786624D01*
X4724705Y-20786624D02*
X4734229Y-20824719D01*
X4734229Y-20824719D02*
X4734229Y-20872338D01*
X4734229Y-20872338D02*
X4724705Y-20910433D01*
X4724705Y-20910433D02*
X4715182Y-20929481D01*
X4715182Y-20929481D02*
X4705658Y-20939005D01*
X4705658Y-20939005D02*
X4686610Y-20948528D01*
X4686610Y-20948528D02*
X4667563Y-20948528D01*
X4667563Y-20948528D02*
X4648515Y-20939005D01*
X4648515Y-20939005D02*
X4638991Y-20929481D01*
X4638991Y-20929481D02*
X4629467Y-20910433D01*
X4629467Y-20910433D02*
X4619944Y-20872338D01*
X4619944Y-20872338D02*
X4619944Y-20824719D01*
X4619944Y-20824719D02*
X4629467Y-20786624D01*
X4629467Y-20786624D02*
X4638991Y-20767576D01*
X4638991Y-20767576D02*
X4648515Y-20758052D01*
X4648515Y-20758052D02*
X4667563Y-20748528D01*
X4858039Y-20748528D02*
X4877086Y-20748528D01*
X4877086Y-20748528D02*
X4896134Y-20758052D01*
X4896134Y-20758052D02*
X4905658Y-20767576D01*
X4905658Y-20767576D02*
X4915182Y-20786624D01*
X4915182Y-20786624D02*
X4924705Y-20824719D01*
X4924705Y-20824719D02*
X4924705Y-20872338D01*
X4924705Y-20872338D02*
X4915182Y-20910433D01*
X4915182Y-20910433D02*
X4905658Y-20929481D01*
X4905658Y-20929481D02*
X4896134Y-20939005D01*
X4896134Y-20939005D02*
X4877086Y-20948528D01*
X4877086Y-20948528D02*
X4858039Y-20948528D01*
X4858039Y-20948528D02*
X4838991Y-20939005D01*
X4838991Y-20939005D02*
X4829467Y-20929481D01*
X4829467Y-20929481D02*
X4819944Y-20910433D01*
X4819944Y-20910433D02*
X4810420Y-20872338D01*
X4810420Y-20872338D02*
X4810420Y-20824719D01*
X4810420Y-20824719D02*
X4819944Y-20786624D01*
X4819944Y-20786624D02*
X4829467Y-20767576D01*
X4829467Y-20767576D02*
X4838991Y-20758052D01*
X4838991Y-20758052D02*
X4858039Y-20748528D01*
X5010420Y-20948528D02*
X5010420Y-20815195D01*
X5010420Y-20834243D02*
X5019944Y-20824719D01*
X5019944Y-20824719D02*
X5038991Y-20815195D01*
X5038991Y-20815195D02*
X5067563Y-20815195D01*
X5067563Y-20815195D02*
X5086610Y-20824719D01*
X5086610Y-20824719D02*
X5096134Y-20843766D01*
X5096134Y-20843766D02*
X5096134Y-20948528D01*
X5096134Y-20843766D02*
X5105658Y-20824719D01*
X5105658Y-20824719D02*
X5124705Y-20815195D01*
X5124705Y-20815195D02*
X5153277Y-20815195D01*
X5153277Y-20815195D02*
X5172325Y-20824719D01*
X5172325Y-20824719D02*
X5181848Y-20843766D01*
X5181848Y-20843766D02*
X5181848Y-20948528D01*
X5277086Y-20948528D02*
X5277086Y-20815195D01*
X5277086Y-20834243D02*
X5286610Y-20824719D01*
X5286610Y-20824719D02*
X5305658Y-20815195D01*
X5305658Y-20815195D02*
X5334229Y-20815195D01*
X5334229Y-20815195D02*
X5353277Y-20824719D01*
X5353277Y-20824719D02*
X5362801Y-20843766D01*
X5362801Y-20843766D02*
X5362801Y-20948528D01*
X5362801Y-20843766D02*
X5372325Y-20824719D01*
X5372325Y-20824719D02*
X5391372Y-20815195D01*
X5391372Y-20815195D02*
X5419944Y-20815195D01*
X5419944Y-20815195D02*
X5438991Y-20824719D01*
X5438991Y-20824719D02*
X5448515Y-20843766D01*
X5448515Y-20843766D02*
X5448515Y-20948528D01*
X5838991Y-20739005D02*
X5667563Y-20996147D01*
X6096134Y-20748528D02*
X6115182Y-20748528D01*
X6115182Y-20748528D02*
X6134229Y-20758052D01*
X6134229Y-20758052D02*
X6143753Y-20767576D01*
X6143753Y-20767576D02*
X6153277Y-20786624D01*
X6153277Y-20786624D02*
X6162801Y-20824719D01*
X6162801Y-20824719D02*
X6162801Y-20872338D01*
X6162801Y-20872338D02*
X6153277Y-20910433D01*
X6153277Y-20910433D02*
X6143753Y-20929481D01*
X6143753Y-20929481D02*
X6134229Y-20939005D01*
X6134229Y-20939005D02*
X6115182Y-20948528D01*
X6115182Y-20948528D02*
X6096134Y-20948528D01*
X6096134Y-20948528D02*
X6077086Y-20939005D01*
X6077086Y-20939005D02*
X6067563Y-20929481D01*
X6067563Y-20929481D02*
X6058039Y-20910433D01*
X6058039Y-20910433D02*
X6048515Y-20872338D01*
X6048515Y-20872338D02*
X6048515Y-20824719D01*
X6048515Y-20824719D02*
X6058039Y-20786624D01*
X6058039Y-20786624D02*
X6067563Y-20767576D01*
X6067563Y-20767576D02*
X6077086Y-20758052D01*
X6077086Y-20758052D02*
X6096134Y-20748528D01*
X6248515Y-20929481D02*
X6258039Y-20939005D01*
X6258039Y-20939005D02*
X6248515Y-20948528D01*
X6248515Y-20948528D02*
X6238991Y-20939005D01*
X6238991Y-20939005D02*
X6248515Y-20929481D01*
X6248515Y-20929481D02*
X6248515Y-20948528D01*
X6381848Y-20748528D02*
X6400896Y-20748528D01*
X6400896Y-20748528D02*
X6419944Y-20758052D01*
X6419944Y-20758052D02*
X6429467Y-20767576D01*
X6429467Y-20767576D02*
X6438991Y-20786624D01*
X6438991Y-20786624D02*
X6448515Y-20824719D01*
X6448515Y-20824719D02*
X6448515Y-20872338D01*
X6448515Y-20872338D02*
X6438991Y-20910433D01*
X6438991Y-20910433D02*
X6429467Y-20929481D01*
X6429467Y-20929481D02*
X6419944Y-20939005D01*
X6419944Y-20939005D02*
X6400896Y-20948528D01*
X6400896Y-20948528D02*
X6381848Y-20948528D01*
X6381848Y-20948528D02*
X6362801Y-20939005D01*
X6362801Y-20939005D02*
X6353277Y-20929481D01*
X6353277Y-20929481D02*
X6343753Y-20910433D01*
X6343753Y-20910433D02*
X6334229Y-20872338D01*
X6334229Y-20872338D02*
X6334229Y-20824719D01*
X6334229Y-20824719D02*
X6343753Y-20786624D01*
X6343753Y-20786624D02*
X6353277Y-20767576D01*
X6353277Y-20767576D02*
X6362801Y-20758052D01*
X6362801Y-20758052D02*
X6381848Y-20748528D01*
X6638991Y-20948528D02*
X6524706Y-20948528D01*
X6581848Y-20948528D02*
X6581848Y-20748528D01*
X6581848Y-20748528D02*
X6562801Y-20777100D01*
X6562801Y-20777100D02*
X6543753Y-20796147D01*
X6543753Y-20796147D02*
X6524706Y-20805671D01*
X6819944Y-20748528D02*
X6724706Y-20748528D01*
X6724706Y-20748528D02*
X6715182Y-20843766D01*
X6715182Y-20843766D02*
X6724706Y-20834243D01*
X6724706Y-20834243D02*
X6743753Y-20824719D01*
X6743753Y-20824719D02*
X6791372Y-20824719D01*
X6791372Y-20824719D02*
X6810420Y-20834243D01*
X6810420Y-20834243D02*
X6819944Y-20843766D01*
X6819944Y-20843766D02*
X6829467Y-20862814D01*
X6829467Y-20862814D02*
X6829467Y-20910433D01*
X6829467Y-20910433D02*
X6819944Y-20929481D01*
X6819944Y-20929481D02*
X6810420Y-20939005D01*
X6810420Y-20939005D02*
X6791372Y-20948528D01*
X6791372Y-20948528D02*
X6743753Y-20948528D01*
X6743753Y-20948528D02*
X6724706Y-20939005D01*
X6724706Y-20939005D02*
X6715182Y-20929481D01*
X6896134Y-20748528D02*
X7029467Y-20748528D01*
X7029467Y-20748528D02*
X6943753Y-20948528D01*
X7096134Y-20748528D02*
X7096134Y-20786624D01*
X7172325Y-20748528D02*
X7172325Y-20786624D01*
X7467563Y-21024719D02*
X7458039Y-21015195D01*
X7458039Y-21015195D02*
X7438991Y-20986624D01*
X7438991Y-20986624D02*
X7429468Y-20967576D01*
X7429468Y-20967576D02*
X7419944Y-20939005D01*
X7419944Y-20939005D02*
X7410420Y-20891385D01*
X7410420Y-20891385D02*
X7410420Y-20853290D01*
X7410420Y-20853290D02*
X7419944Y-20805671D01*
X7419944Y-20805671D02*
X7429468Y-20777100D01*
X7429468Y-20777100D02*
X7438991Y-20758052D01*
X7438991Y-20758052D02*
X7458039Y-20729481D01*
X7458039Y-20729481D02*
X7467563Y-20719957D01*
X7534229Y-20767576D02*
X7543753Y-20758052D01*
X7543753Y-20758052D02*
X7562801Y-20748528D01*
X7562801Y-20748528D02*
X7610420Y-20748528D01*
X7610420Y-20748528D02*
X7629468Y-20758052D01*
X7629468Y-20758052D02*
X7638991Y-20767576D01*
X7638991Y-20767576D02*
X7648515Y-20786624D01*
X7648515Y-20786624D02*
X7648515Y-20805671D01*
X7648515Y-20805671D02*
X7638991Y-20834243D01*
X7638991Y-20834243D02*
X7524706Y-20948528D01*
X7524706Y-20948528D02*
X7648515Y-20948528D01*
X7819944Y-20815195D02*
X7819944Y-20948528D01*
X7772325Y-20739005D02*
X7724706Y-20881862D01*
X7724706Y-20881862D02*
X7848515Y-20881862D01*
X8077087Y-20948528D02*
X8077087Y-20748528D01*
X8162801Y-20948528D02*
X8162801Y-20843766D01*
X8162801Y-20843766D02*
X8153277Y-20824719D01*
X8153277Y-20824719D02*
X8134230Y-20815195D01*
X8134230Y-20815195D02*
X8105658Y-20815195D01*
X8105658Y-20815195D02*
X8086610Y-20824719D01*
X8086610Y-20824719D02*
X8077087Y-20834243D01*
X8286610Y-20948528D02*
X8267563Y-20939005D01*
X8267563Y-20939005D02*
X8258039Y-20929481D01*
X8258039Y-20929481D02*
X8248515Y-20910433D01*
X8248515Y-20910433D02*
X8248515Y-20853290D01*
X8248515Y-20853290D02*
X8258039Y-20834243D01*
X8258039Y-20834243D02*
X8267563Y-20824719D01*
X8267563Y-20824719D02*
X8286610Y-20815195D01*
X8286610Y-20815195D02*
X8315182Y-20815195D01*
X8315182Y-20815195D02*
X8334230Y-20824719D01*
X8334230Y-20824719D02*
X8343753Y-20834243D01*
X8343753Y-20834243D02*
X8353277Y-20853290D01*
X8353277Y-20853290D02*
X8353277Y-20910433D01*
X8353277Y-20910433D02*
X8343753Y-20929481D01*
X8343753Y-20929481D02*
X8334230Y-20939005D01*
X8334230Y-20939005D02*
X8315182Y-20948528D01*
X8315182Y-20948528D02*
X8286610Y-20948528D01*
X8467563Y-20948528D02*
X8448515Y-20939005D01*
X8448515Y-20939005D02*
X8438992Y-20919957D01*
X8438992Y-20919957D02*
X8438992Y-20748528D01*
X8619944Y-20939005D02*
X8600896Y-20948528D01*
X8600896Y-20948528D02*
X8562801Y-20948528D01*
X8562801Y-20948528D02*
X8543753Y-20939005D01*
X8543753Y-20939005D02*
X8534230Y-20919957D01*
X8534230Y-20919957D02*
X8534230Y-20843766D01*
X8534230Y-20843766D02*
X8543753Y-20824719D01*
X8543753Y-20824719D02*
X8562801Y-20815195D01*
X8562801Y-20815195D02*
X8600896Y-20815195D01*
X8600896Y-20815195D02*
X8619944Y-20824719D01*
X8619944Y-20824719D02*
X8629468Y-20843766D01*
X8629468Y-20843766D02*
X8629468Y-20862814D01*
X8629468Y-20862814D02*
X8534230Y-20881862D01*
X8705658Y-20939005D02*
X8724706Y-20948528D01*
X8724706Y-20948528D02*
X8762801Y-20948528D01*
X8762801Y-20948528D02*
X8781849Y-20939005D01*
X8781849Y-20939005D02*
X8791373Y-20919957D01*
X8791373Y-20919957D02*
X8791373Y-20910433D01*
X8791373Y-20910433D02*
X8781849Y-20891385D01*
X8781849Y-20891385D02*
X8762801Y-20881862D01*
X8762801Y-20881862D02*
X8734230Y-20881862D01*
X8734230Y-20881862D02*
X8715182Y-20872338D01*
X8715182Y-20872338D02*
X8705658Y-20853290D01*
X8705658Y-20853290D02*
X8705658Y-20843766D01*
X8705658Y-20843766D02*
X8715182Y-20824719D01*
X8715182Y-20824719D02*
X8734230Y-20815195D01*
X8734230Y-20815195D02*
X8762801Y-20815195D01*
X8762801Y-20815195D02*
X8781849Y-20824719D01*
X8858039Y-21024719D02*
X8867563Y-21015195D01*
X8867563Y-21015195D02*
X8886611Y-20986624D01*
X8886611Y-20986624D02*
X8896134Y-20967576D01*
X8896134Y-20967576D02*
X8905658Y-20939005D01*
X8905658Y-20939005D02*
X8915182Y-20891385D01*
X8915182Y-20891385D02*
X8915182Y-20853290D01*
X8915182Y-20853290D02*
X8905658Y-20805671D01*
X8905658Y-20805671D02*
X8896134Y-20777100D01*
X8896134Y-20777100D02*
X8886611Y-20758052D01*
X8886611Y-20758052D02*
X8867563Y-20729481D01*
X8867563Y-20729481D02*
X8858039Y-20719957D01*
D12*
X3881517Y-21147561D02*
X3881517Y-21094528D01*
X3828483Y-21094528D01*
X3828483Y-21147561D01*
X3881517Y-21147561D01*
D11*
X4191372Y-21012528D02*
X4210420Y-21012528D01*
X4210420Y-21012528D02*
X4229467Y-21022052D01*
X4229467Y-21022052D02*
X4238991Y-21031576D01*
X4238991Y-21031576D02*
X4248515Y-21050624D01*
X4248515Y-21050624D02*
X4258039Y-21088719D01*
X4258039Y-21088719D02*
X4258039Y-21136338D01*
X4258039Y-21136338D02*
X4248515Y-21174433D01*
X4248515Y-21174433D02*
X4238991Y-21193481D01*
X4238991Y-21193481D02*
X4229467Y-21203005D01*
X4229467Y-21203005D02*
X4210420Y-21212528D01*
X4210420Y-21212528D02*
X4191372Y-21212528D01*
X4191372Y-21212528D02*
X4172324Y-21203005D01*
X4172324Y-21203005D02*
X4162801Y-21193481D01*
X4162801Y-21193481D02*
X4153277Y-21174433D01*
X4153277Y-21174433D02*
X4143753Y-21136338D01*
X4143753Y-21136338D02*
X4143753Y-21088719D01*
X4143753Y-21088719D02*
X4153277Y-21050624D01*
X4153277Y-21050624D02*
X4162801Y-21031576D01*
X4162801Y-21031576D02*
X4172324Y-21022052D01*
X4172324Y-21022052D02*
X4191372Y-21012528D01*
X4343753Y-21193481D02*
X4353277Y-21203005D01*
X4353277Y-21203005D02*
X4343753Y-21212528D01*
X4343753Y-21212528D02*
X4334229Y-21203005D01*
X4334229Y-21203005D02*
X4343753Y-21193481D01*
X4343753Y-21193481D02*
X4343753Y-21212528D01*
X4419944Y-21012528D02*
X4553277Y-21012528D01*
X4553277Y-21012528D02*
X4467563Y-21212528D01*
X4724705Y-21012528D02*
X4629467Y-21012528D01*
X4629467Y-21012528D02*
X4619944Y-21107766D01*
X4619944Y-21107766D02*
X4629467Y-21098243D01*
X4629467Y-21098243D02*
X4648515Y-21088719D01*
X4648515Y-21088719D02*
X4696134Y-21088719D01*
X4696134Y-21088719D02*
X4715182Y-21098243D01*
X4715182Y-21098243D02*
X4724705Y-21107766D01*
X4724705Y-21107766D02*
X4734229Y-21126814D01*
X4734229Y-21126814D02*
X4734229Y-21174433D01*
X4734229Y-21174433D02*
X4724705Y-21193481D01*
X4724705Y-21193481D02*
X4715182Y-21203005D01*
X4715182Y-21203005D02*
X4696134Y-21212528D01*
X4696134Y-21212528D02*
X4648515Y-21212528D01*
X4648515Y-21212528D02*
X4629467Y-21203005D01*
X4629467Y-21203005D02*
X4619944Y-21193481D01*
X4858039Y-21012528D02*
X4877086Y-21012528D01*
X4877086Y-21012528D02*
X4896134Y-21022052D01*
X4896134Y-21022052D02*
X4905658Y-21031576D01*
X4905658Y-21031576D02*
X4915182Y-21050624D01*
X4915182Y-21050624D02*
X4924705Y-21088719D01*
X4924705Y-21088719D02*
X4924705Y-21136338D01*
X4924705Y-21136338D02*
X4915182Y-21174433D01*
X4915182Y-21174433D02*
X4905658Y-21193481D01*
X4905658Y-21193481D02*
X4896134Y-21203005D01*
X4896134Y-21203005D02*
X4877086Y-21212528D01*
X4877086Y-21212528D02*
X4858039Y-21212528D01*
X4858039Y-21212528D02*
X4838991Y-21203005D01*
X4838991Y-21203005D02*
X4829467Y-21193481D01*
X4829467Y-21193481D02*
X4819944Y-21174433D01*
X4819944Y-21174433D02*
X4810420Y-21136338D01*
X4810420Y-21136338D02*
X4810420Y-21088719D01*
X4810420Y-21088719D02*
X4819944Y-21050624D01*
X4819944Y-21050624D02*
X4829467Y-21031576D01*
X4829467Y-21031576D02*
X4838991Y-21022052D01*
X4838991Y-21022052D02*
X4858039Y-21012528D01*
X5010420Y-21212528D02*
X5010420Y-21079195D01*
X5010420Y-21098243D02*
X5019944Y-21088719D01*
X5019944Y-21088719D02*
X5038991Y-21079195D01*
X5038991Y-21079195D02*
X5067563Y-21079195D01*
X5067563Y-21079195D02*
X5086610Y-21088719D01*
X5086610Y-21088719D02*
X5096134Y-21107766D01*
X5096134Y-21107766D02*
X5096134Y-21212528D01*
X5096134Y-21107766D02*
X5105658Y-21088719D01*
X5105658Y-21088719D02*
X5124705Y-21079195D01*
X5124705Y-21079195D02*
X5153277Y-21079195D01*
X5153277Y-21079195D02*
X5172325Y-21088719D01*
X5172325Y-21088719D02*
X5181848Y-21107766D01*
X5181848Y-21107766D02*
X5181848Y-21212528D01*
X5277086Y-21212528D02*
X5277086Y-21079195D01*
X5277086Y-21098243D02*
X5286610Y-21088719D01*
X5286610Y-21088719D02*
X5305658Y-21079195D01*
X5305658Y-21079195D02*
X5334229Y-21079195D01*
X5334229Y-21079195D02*
X5353277Y-21088719D01*
X5353277Y-21088719D02*
X5362801Y-21107766D01*
X5362801Y-21107766D02*
X5362801Y-21212528D01*
X5362801Y-21107766D02*
X5372325Y-21088719D01*
X5372325Y-21088719D02*
X5391372Y-21079195D01*
X5391372Y-21079195D02*
X5419944Y-21079195D01*
X5419944Y-21079195D02*
X5438991Y-21088719D01*
X5438991Y-21088719D02*
X5448515Y-21107766D01*
X5448515Y-21107766D02*
X5448515Y-21212528D01*
X5838991Y-21003005D02*
X5667563Y-21260147D01*
X6096134Y-21012528D02*
X6115182Y-21012528D01*
X6115182Y-21012528D02*
X6134229Y-21022052D01*
X6134229Y-21022052D02*
X6143753Y-21031576D01*
X6143753Y-21031576D02*
X6153277Y-21050624D01*
X6153277Y-21050624D02*
X6162801Y-21088719D01*
X6162801Y-21088719D02*
X6162801Y-21136338D01*
X6162801Y-21136338D02*
X6153277Y-21174433D01*
X6153277Y-21174433D02*
X6143753Y-21193481D01*
X6143753Y-21193481D02*
X6134229Y-21203005D01*
X6134229Y-21203005D02*
X6115182Y-21212528D01*
X6115182Y-21212528D02*
X6096134Y-21212528D01*
X6096134Y-21212528D02*
X6077086Y-21203005D01*
X6077086Y-21203005D02*
X6067563Y-21193481D01*
X6067563Y-21193481D02*
X6058039Y-21174433D01*
X6058039Y-21174433D02*
X6048515Y-21136338D01*
X6048515Y-21136338D02*
X6048515Y-21088719D01*
X6048515Y-21088719D02*
X6058039Y-21050624D01*
X6058039Y-21050624D02*
X6067563Y-21031576D01*
X6067563Y-21031576D02*
X6077086Y-21022052D01*
X6077086Y-21022052D02*
X6096134Y-21012528D01*
X6248515Y-21193481D02*
X6258039Y-21203005D01*
X6258039Y-21203005D02*
X6248515Y-21212528D01*
X6248515Y-21212528D02*
X6238991Y-21203005D01*
X6238991Y-21203005D02*
X6248515Y-21193481D01*
X6248515Y-21193481D02*
X6248515Y-21212528D01*
X6381848Y-21012528D02*
X6400896Y-21012528D01*
X6400896Y-21012528D02*
X6419944Y-21022052D01*
X6419944Y-21022052D02*
X6429467Y-21031576D01*
X6429467Y-21031576D02*
X6438991Y-21050624D01*
X6438991Y-21050624D02*
X6448515Y-21088719D01*
X6448515Y-21088719D02*
X6448515Y-21136338D01*
X6448515Y-21136338D02*
X6438991Y-21174433D01*
X6438991Y-21174433D02*
X6429467Y-21193481D01*
X6429467Y-21193481D02*
X6419944Y-21203005D01*
X6419944Y-21203005D02*
X6400896Y-21212528D01*
X6400896Y-21212528D02*
X6381848Y-21212528D01*
X6381848Y-21212528D02*
X6362801Y-21203005D01*
X6362801Y-21203005D02*
X6353277Y-21193481D01*
X6353277Y-21193481D02*
X6343753Y-21174433D01*
X6343753Y-21174433D02*
X6334229Y-21136338D01*
X6334229Y-21136338D02*
X6334229Y-21088719D01*
X6334229Y-21088719D02*
X6343753Y-21050624D01*
X6343753Y-21050624D02*
X6353277Y-21031576D01*
X6353277Y-21031576D02*
X6362801Y-21022052D01*
X6362801Y-21022052D02*
X6381848Y-21012528D01*
X6524706Y-21031576D02*
X6534229Y-21022052D01*
X6534229Y-21022052D02*
X6553277Y-21012528D01*
X6553277Y-21012528D02*
X6600896Y-21012528D01*
X6600896Y-21012528D02*
X6619944Y-21022052D01*
X6619944Y-21022052D02*
X6629467Y-21031576D01*
X6629467Y-21031576D02*
X6638991Y-21050624D01*
X6638991Y-21050624D02*
X6638991Y-21069671D01*
X6638991Y-21069671D02*
X6629467Y-21098243D01*
X6629467Y-21098243D02*
X6515182Y-21212528D01*
X6515182Y-21212528D02*
X6638991Y-21212528D01*
X6734229Y-21212528D02*
X6772325Y-21212528D01*
X6772325Y-21212528D02*
X6791372Y-21203005D01*
X6791372Y-21203005D02*
X6800896Y-21193481D01*
X6800896Y-21193481D02*
X6819944Y-21164909D01*
X6819944Y-21164909D02*
X6829467Y-21126814D01*
X6829467Y-21126814D02*
X6829467Y-21050624D01*
X6829467Y-21050624D02*
X6819944Y-21031576D01*
X6819944Y-21031576D02*
X6810420Y-21022052D01*
X6810420Y-21022052D02*
X6791372Y-21012528D01*
X6791372Y-21012528D02*
X6753277Y-21012528D01*
X6753277Y-21012528D02*
X6734229Y-21022052D01*
X6734229Y-21022052D02*
X6724706Y-21031576D01*
X6724706Y-21031576D02*
X6715182Y-21050624D01*
X6715182Y-21050624D02*
X6715182Y-21098243D01*
X6715182Y-21098243D02*
X6724706Y-21117290D01*
X6724706Y-21117290D02*
X6734229Y-21126814D01*
X6734229Y-21126814D02*
X6753277Y-21136338D01*
X6753277Y-21136338D02*
X6791372Y-21136338D01*
X6791372Y-21136338D02*
X6810420Y-21126814D01*
X6810420Y-21126814D02*
X6819944Y-21117290D01*
X6819944Y-21117290D02*
X6829467Y-21098243D01*
X7010420Y-21012528D02*
X6915182Y-21012528D01*
X6915182Y-21012528D02*
X6905658Y-21107766D01*
X6905658Y-21107766D02*
X6915182Y-21098243D01*
X6915182Y-21098243D02*
X6934229Y-21088719D01*
X6934229Y-21088719D02*
X6981848Y-21088719D01*
X6981848Y-21088719D02*
X7000896Y-21098243D01*
X7000896Y-21098243D02*
X7010420Y-21107766D01*
X7010420Y-21107766D02*
X7019944Y-21126814D01*
X7019944Y-21126814D02*
X7019944Y-21174433D01*
X7019944Y-21174433D02*
X7010420Y-21193481D01*
X7010420Y-21193481D02*
X7000896Y-21203005D01*
X7000896Y-21203005D02*
X6981848Y-21212528D01*
X6981848Y-21212528D02*
X6934229Y-21212528D01*
X6934229Y-21212528D02*
X6915182Y-21203005D01*
X6915182Y-21203005D02*
X6905658Y-21193481D01*
X7096134Y-21012528D02*
X7096134Y-21050624D01*
X7172325Y-21012528D02*
X7172325Y-21050624D01*
X7467563Y-21288719D02*
X7458039Y-21279195D01*
X7458039Y-21279195D02*
X7438991Y-21250624D01*
X7438991Y-21250624D02*
X7429468Y-21231576D01*
X7429468Y-21231576D02*
X7419944Y-21203005D01*
X7419944Y-21203005D02*
X7410420Y-21155385D01*
X7410420Y-21155385D02*
X7410420Y-21117290D01*
X7410420Y-21117290D02*
X7419944Y-21069671D01*
X7419944Y-21069671D02*
X7429468Y-21041100D01*
X7429468Y-21041100D02*
X7438991Y-21022052D01*
X7438991Y-21022052D02*
X7458039Y-20993481D01*
X7458039Y-20993481D02*
X7467563Y-20983957D01*
X7534229Y-21031576D02*
X7543753Y-21022052D01*
X7543753Y-21022052D02*
X7562801Y-21012528D01*
X7562801Y-21012528D02*
X7610420Y-21012528D01*
X7610420Y-21012528D02*
X7629468Y-21022052D01*
X7629468Y-21022052D02*
X7638991Y-21031576D01*
X7638991Y-21031576D02*
X7648515Y-21050624D01*
X7648515Y-21050624D02*
X7648515Y-21069671D01*
X7648515Y-21069671D02*
X7638991Y-21098243D01*
X7638991Y-21098243D02*
X7524706Y-21212528D01*
X7524706Y-21212528D02*
X7648515Y-21212528D01*
X7886610Y-21212528D02*
X7886610Y-21012528D01*
X7972325Y-21212528D02*
X7972325Y-21107766D01*
X7972325Y-21107766D02*
X7962801Y-21088719D01*
X7962801Y-21088719D02*
X7943753Y-21079195D01*
X7943753Y-21079195D02*
X7915182Y-21079195D01*
X7915182Y-21079195D02*
X7896134Y-21088719D01*
X7896134Y-21088719D02*
X7886610Y-21098243D01*
X8096134Y-21212528D02*
X8077087Y-21203005D01*
X8077087Y-21203005D02*
X8067563Y-21193481D01*
X8067563Y-21193481D02*
X8058039Y-21174433D01*
X8058039Y-21174433D02*
X8058039Y-21117290D01*
X8058039Y-21117290D02*
X8067563Y-21098243D01*
X8067563Y-21098243D02*
X8077087Y-21088719D01*
X8077087Y-21088719D02*
X8096134Y-21079195D01*
X8096134Y-21079195D02*
X8124706Y-21079195D01*
X8124706Y-21079195D02*
X8143753Y-21088719D01*
X8143753Y-21088719D02*
X8153277Y-21098243D01*
X8153277Y-21098243D02*
X8162801Y-21117290D01*
X8162801Y-21117290D02*
X8162801Y-21174433D01*
X8162801Y-21174433D02*
X8153277Y-21193481D01*
X8153277Y-21193481D02*
X8143753Y-21203005D01*
X8143753Y-21203005D02*
X8124706Y-21212528D01*
X8124706Y-21212528D02*
X8096134Y-21212528D01*
X8277087Y-21212528D02*
X8258039Y-21203005D01*
X8258039Y-21203005D02*
X8248515Y-21183957D01*
X8248515Y-21183957D02*
X8248515Y-21012528D01*
X8429468Y-21203005D02*
X8410420Y-21212528D01*
X8410420Y-21212528D02*
X8372325Y-21212528D01*
X8372325Y-21212528D02*
X8353277Y-21203005D01*
X8353277Y-21203005D02*
X8343753Y-21183957D01*
X8343753Y-21183957D02*
X8343753Y-21107766D01*
X8343753Y-21107766D02*
X8353277Y-21088719D01*
X8353277Y-21088719D02*
X8372325Y-21079195D01*
X8372325Y-21079195D02*
X8410420Y-21079195D01*
X8410420Y-21079195D02*
X8429468Y-21088719D01*
X8429468Y-21088719D02*
X8438992Y-21107766D01*
X8438992Y-21107766D02*
X8438992Y-21126814D01*
X8438992Y-21126814D02*
X8343753Y-21145862D01*
X8515182Y-21203005D02*
X8534230Y-21212528D01*
X8534230Y-21212528D02*
X8572325Y-21212528D01*
X8572325Y-21212528D02*
X8591373Y-21203005D01*
X8591373Y-21203005D02*
X8600896Y-21183957D01*
X8600896Y-21183957D02*
X8600896Y-21174433D01*
X8600896Y-21174433D02*
X8591373Y-21155385D01*
X8591373Y-21155385D02*
X8572325Y-21145862D01*
X8572325Y-21145862D02*
X8543753Y-21145862D01*
X8543753Y-21145862D02*
X8524706Y-21136338D01*
X8524706Y-21136338D02*
X8515182Y-21117290D01*
X8515182Y-21117290D02*
X8515182Y-21107766D01*
X8515182Y-21107766D02*
X8524706Y-21088719D01*
X8524706Y-21088719D02*
X8543753Y-21079195D01*
X8543753Y-21079195D02*
X8572325Y-21079195D01*
X8572325Y-21079195D02*
X8591373Y-21088719D01*
X8667563Y-21288719D02*
X8677087Y-21279195D01*
X8677087Y-21279195D02*
X8696134Y-21250624D01*
X8696134Y-21250624D02*
X8705658Y-21231576D01*
X8705658Y-21231576D02*
X8715182Y-21203005D01*
X8715182Y-21203005D02*
X8724706Y-21155385D01*
X8724706Y-21155385D02*
X8724706Y-21117290D01*
X8724706Y-21117290D02*
X8715182Y-21069671D01*
X8715182Y-21069671D02*
X8705658Y-21041100D01*
X8705658Y-21041100D02*
X8696134Y-21022052D01*
X8696134Y-21022052D02*
X8677087Y-20993481D01*
X8677087Y-20993481D02*
X8667563Y-20983957D01*
D12*
X3847500Y-21430045D02*
X3892500Y-21385045D01*
X3847500Y-21340045D01*
X3802500Y-21385045D01*
X3847500Y-21430045D01*
D11*
X4191372Y-21276528D02*
X4210420Y-21276528D01*
X4210420Y-21276528D02*
X4229467Y-21286052D01*
X4229467Y-21286052D02*
X4238991Y-21295576D01*
X4238991Y-21295576D02*
X4248515Y-21314624D01*
X4248515Y-21314624D02*
X4258039Y-21352719D01*
X4258039Y-21352719D02*
X4258039Y-21400338D01*
X4258039Y-21400338D02*
X4248515Y-21438433D01*
X4248515Y-21438433D02*
X4238991Y-21457481D01*
X4238991Y-21457481D02*
X4229467Y-21467005D01*
X4229467Y-21467005D02*
X4210420Y-21476528D01*
X4210420Y-21476528D02*
X4191372Y-21476528D01*
X4191372Y-21476528D02*
X4172324Y-21467005D01*
X4172324Y-21467005D02*
X4162801Y-21457481D01*
X4162801Y-21457481D02*
X4153277Y-21438433D01*
X4153277Y-21438433D02*
X4143753Y-21400338D01*
X4143753Y-21400338D02*
X4143753Y-21352719D01*
X4143753Y-21352719D02*
X4153277Y-21314624D01*
X4153277Y-21314624D02*
X4162801Y-21295576D01*
X4162801Y-21295576D02*
X4172324Y-21286052D01*
X4172324Y-21286052D02*
X4191372Y-21276528D01*
X4343753Y-21457481D02*
X4353277Y-21467005D01*
X4353277Y-21467005D02*
X4343753Y-21476528D01*
X4343753Y-21476528D02*
X4334229Y-21467005D01*
X4334229Y-21467005D02*
X4343753Y-21457481D01*
X4343753Y-21457481D02*
X4343753Y-21476528D01*
X4448515Y-21476528D02*
X4486610Y-21476528D01*
X4486610Y-21476528D02*
X4505658Y-21467005D01*
X4505658Y-21467005D02*
X4515182Y-21457481D01*
X4515182Y-21457481D02*
X4534229Y-21428909D01*
X4534229Y-21428909D02*
X4543753Y-21390814D01*
X4543753Y-21390814D02*
X4543753Y-21314624D01*
X4543753Y-21314624D02*
X4534229Y-21295576D01*
X4534229Y-21295576D02*
X4524705Y-21286052D01*
X4524705Y-21286052D02*
X4505658Y-21276528D01*
X4505658Y-21276528D02*
X4467563Y-21276528D01*
X4467563Y-21276528D02*
X4448515Y-21286052D01*
X4448515Y-21286052D02*
X4438991Y-21295576D01*
X4438991Y-21295576D02*
X4429467Y-21314624D01*
X4429467Y-21314624D02*
X4429467Y-21362243D01*
X4429467Y-21362243D02*
X4438991Y-21381290D01*
X4438991Y-21381290D02*
X4448515Y-21390814D01*
X4448515Y-21390814D02*
X4467563Y-21400338D01*
X4467563Y-21400338D02*
X4505658Y-21400338D01*
X4505658Y-21400338D02*
X4524705Y-21390814D01*
X4524705Y-21390814D02*
X4534229Y-21381290D01*
X4534229Y-21381290D02*
X4543753Y-21362243D01*
X4667563Y-21276528D02*
X4686610Y-21276528D01*
X4686610Y-21276528D02*
X4705658Y-21286052D01*
X4705658Y-21286052D02*
X4715182Y-21295576D01*
X4715182Y-21295576D02*
X4724705Y-21314624D01*
X4724705Y-21314624D02*
X4734229Y-21352719D01*
X4734229Y-21352719D02*
X4734229Y-21400338D01*
X4734229Y-21400338D02*
X4724705Y-21438433D01*
X4724705Y-21438433D02*
X4715182Y-21457481D01*
X4715182Y-21457481D02*
X4705658Y-21467005D01*
X4705658Y-21467005D02*
X4686610Y-21476528D01*
X4686610Y-21476528D02*
X4667563Y-21476528D01*
X4667563Y-21476528D02*
X4648515Y-21467005D01*
X4648515Y-21467005D02*
X4638991Y-21457481D01*
X4638991Y-21457481D02*
X4629467Y-21438433D01*
X4629467Y-21438433D02*
X4619944Y-21400338D01*
X4619944Y-21400338D02*
X4619944Y-21352719D01*
X4619944Y-21352719D02*
X4629467Y-21314624D01*
X4629467Y-21314624D02*
X4638991Y-21295576D01*
X4638991Y-21295576D02*
X4648515Y-21286052D01*
X4648515Y-21286052D02*
X4667563Y-21276528D01*
X4858039Y-21276528D02*
X4877086Y-21276528D01*
X4877086Y-21276528D02*
X4896134Y-21286052D01*
X4896134Y-21286052D02*
X4905658Y-21295576D01*
X4905658Y-21295576D02*
X4915182Y-21314624D01*
X4915182Y-21314624D02*
X4924705Y-21352719D01*
X4924705Y-21352719D02*
X4924705Y-21400338D01*
X4924705Y-21400338D02*
X4915182Y-21438433D01*
X4915182Y-21438433D02*
X4905658Y-21457481D01*
X4905658Y-21457481D02*
X4896134Y-21467005D01*
X4896134Y-21467005D02*
X4877086Y-21476528D01*
X4877086Y-21476528D02*
X4858039Y-21476528D01*
X4858039Y-21476528D02*
X4838991Y-21467005D01*
X4838991Y-21467005D02*
X4829467Y-21457481D01*
X4829467Y-21457481D02*
X4819944Y-21438433D01*
X4819944Y-21438433D02*
X4810420Y-21400338D01*
X4810420Y-21400338D02*
X4810420Y-21352719D01*
X4810420Y-21352719D02*
X4819944Y-21314624D01*
X4819944Y-21314624D02*
X4829467Y-21295576D01*
X4829467Y-21295576D02*
X4838991Y-21286052D01*
X4838991Y-21286052D02*
X4858039Y-21276528D01*
X5010420Y-21476528D02*
X5010420Y-21343195D01*
X5010420Y-21362243D02*
X5019944Y-21352719D01*
X5019944Y-21352719D02*
X5038991Y-21343195D01*
X5038991Y-21343195D02*
X5067563Y-21343195D01*
X5067563Y-21343195D02*
X5086610Y-21352719D01*
X5086610Y-21352719D02*
X5096134Y-21371766D01*
X5096134Y-21371766D02*
X5096134Y-21476528D01*
X5096134Y-21371766D02*
X5105658Y-21352719D01*
X5105658Y-21352719D02*
X5124705Y-21343195D01*
X5124705Y-21343195D02*
X5153277Y-21343195D01*
X5153277Y-21343195D02*
X5172325Y-21352719D01*
X5172325Y-21352719D02*
X5181848Y-21371766D01*
X5181848Y-21371766D02*
X5181848Y-21476528D01*
X5277086Y-21476528D02*
X5277086Y-21343195D01*
X5277086Y-21362243D02*
X5286610Y-21352719D01*
X5286610Y-21352719D02*
X5305658Y-21343195D01*
X5305658Y-21343195D02*
X5334229Y-21343195D01*
X5334229Y-21343195D02*
X5353277Y-21352719D01*
X5353277Y-21352719D02*
X5362801Y-21371766D01*
X5362801Y-21371766D02*
X5362801Y-21476528D01*
X5362801Y-21371766D02*
X5372325Y-21352719D01*
X5372325Y-21352719D02*
X5391372Y-21343195D01*
X5391372Y-21343195D02*
X5419944Y-21343195D01*
X5419944Y-21343195D02*
X5438991Y-21352719D01*
X5438991Y-21352719D02*
X5448515Y-21371766D01*
X5448515Y-21371766D02*
X5448515Y-21476528D01*
X5838991Y-21267005D02*
X5667563Y-21524147D01*
X6096134Y-21276528D02*
X6115182Y-21276528D01*
X6115182Y-21276528D02*
X6134229Y-21286052D01*
X6134229Y-21286052D02*
X6143753Y-21295576D01*
X6143753Y-21295576D02*
X6153277Y-21314624D01*
X6153277Y-21314624D02*
X6162801Y-21352719D01*
X6162801Y-21352719D02*
X6162801Y-21400338D01*
X6162801Y-21400338D02*
X6153277Y-21438433D01*
X6153277Y-21438433D02*
X6143753Y-21457481D01*
X6143753Y-21457481D02*
X6134229Y-21467005D01*
X6134229Y-21467005D02*
X6115182Y-21476528D01*
X6115182Y-21476528D02*
X6096134Y-21476528D01*
X6096134Y-21476528D02*
X6077086Y-21467005D01*
X6077086Y-21467005D02*
X6067563Y-21457481D01*
X6067563Y-21457481D02*
X6058039Y-21438433D01*
X6058039Y-21438433D02*
X6048515Y-21400338D01*
X6048515Y-21400338D02*
X6048515Y-21352719D01*
X6048515Y-21352719D02*
X6058039Y-21314624D01*
X6058039Y-21314624D02*
X6067563Y-21295576D01*
X6067563Y-21295576D02*
X6077086Y-21286052D01*
X6077086Y-21286052D02*
X6096134Y-21276528D01*
X6248515Y-21457481D02*
X6258039Y-21467005D01*
X6258039Y-21467005D02*
X6248515Y-21476528D01*
X6248515Y-21476528D02*
X6238991Y-21467005D01*
X6238991Y-21467005D02*
X6248515Y-21457481D01*
X6248515Y-21457481D02*
X6248515Y-21476528D01*
X6381848Y-21276528D02*
X6400896Y-21276528D01*
X6400896Y-21276528D02*
X6419944Y-21286052D01*
X6419944Y-21286052D02*
X6429467Y-21295576D01*
X6429467Y-21295576D02*
X6438991Y-21314624D01*
X6438991Y-21314624D02*
X6448515Y-21352719D01*
X6448515Y-21352719D02*
X6448515Y-21400338D01*
X6448515Y-21400338D02*
X6438991Y-21438433D01*
X6438991Y-21438433D02*
X6429467Y-21457481D01*
X6429467Y-21457481D02*
X6419944Y-21467005D01*
X6419944Y-21467005D02*
X6400896Y-21476528D01*
X6400896Y-21476528D02*
X6381848Y-21476528D01*
X6381848Y-21476528D02*
X6362801Y-21467005D01*
X6362801Y-21467005D02*
X6353277Y-21457481D01*
X6353277Y-21457481D02*
X6343753Y-21438433D01*
X6343753Y-21438433D02*
X6334229Y-21400338D01*
X6334229Y-21400338D02*
X6334229Y-21352719D01*
X6334229Y-21352719D02*
X6343753Y-21314624D01*
X6343753Y-21314624D02*
X6353277Y-21295576D01*
X6353277Y-21295576D02*
X6362801Y-21286052D01*
X6362801Y-21286052D02*
X6381848Y-21276528D01*
X6515182Y-21276528D02*
X6638991Y-21276528D01*
X6638991Y-21276528D02*
X6572325Y-21352719D01*
X6572325Y-21352719D02*
X6600896Y-21352719D01*
X6600896Y-21352719D02*
X6619944Y-21362243D01*
X6619944Y-21362243D02*
X6629467Y-21371766D01*
X6629467Y-21371766D02*
X6638991Y-21390814D01*
X6638991Y-21390814D02*
X6638991Y-21438433D01*
X6638991Y-21438433D02*
X6629467Y-21457481D01*
X6629467Y-21457481D02*
X6619944Y-21467005D01*
X6619944Y-21467005D02*
X6600896Y-21476528D01*
X6600896Y-21476528D02*
X6543753Y-21476528D01*
X6543753Y-21476528D02*
X6524706Y-21467005D01*
X6524706Y-21467005D02*
X6515182Y-21457481D01*
X6819944Y-21276528D02*
X6724706Y-21276528D01*
X6724706Y-21276528D02*
X6715182Y-21371766D01*
X6715182Y-21371766D02*
X6724706Y-21362243D01*
X6724706Y-21362243D02*
X6743753Y-21352719D01*
X6743753Y-21352719D02*
X6791372Y-21352719D01*
X6791372Y-21352719D02*
X6810420Y-21362243D01*
X6810420Y-21362243D02*
X6819944Y-21371766D01*
X6819944Y-21371766D02*
X6829467Y-21390814D01*
X6829467Y-21390814D02*
X6829467Y-21438433D01*
X6829467Y-21438433D02*
X6819944Y-21457481D01*
X6819944Y-21457481D02*
X6810420Y-21467005D01*
X6810420Y-21467005D02*
X6791372Y-21476528D01*
X6791372Y-21476528D02*
X6743753Y-21476528D01*
X6743753Y-21476528D02*
X6724706Y-21467005D01*
X6724706Y-21467005D02*
X6715182Y-21457481D01*
X7000896Y-21343195D02*
X7000896Y-21476528D01*
X6953277Y-21267005D02*
X6905658Y-21409862D01*
X6905658Y-21409862D02*
X7029467Y-21409862D01*
X7096134Y-21276528D02*
X7096134Y-21314624D01*
X7172325Y-21276528D02*
X7172325Y-21314624D01*
X7467563Y-21552719D02*
X7458039Y-21543195D01*
X7458039Y-21543195D02*
X7438991Y-21514624D01*
X7438991Y-21514624D02*
X7429468Y-21495576D01*
X7429468Y-21495576D02*
X7419944Y-21467005D01*
X7419944Y-21467005D02*
X7410420Y-21419385D01*
X7410420Y-21419385D02*
X7410420Y-21381290D01*
X7410420Y-21381290D02*
X7419944Y-21333671D01*
X7419944Y-21333671D02*
X7429468Y-21305100D01*
X7429468Y-21305100D02*
X7438991Y-21286052D01*
X7438991Y-21286052D02*
X7458039Y-21257481D01*
X7458039Y-21257481D02*
X7467563Y-21247957D01*
X7581848Y-21276528D02*
X7600896Y-21276528D01*
X7600896Y-21276528D02*
X7619944Y-21286052D01*
X7619944Y-21286052D02*
X7629468Y-21295576D01*
X7629468Y-21295576D02*
X7638991Y-21314624D01*
X7638991Y-21314624D02*
X7648515Y-21352719D01*
X7648515Y-21352719D02*
X7648515Y-21400338D01*
X7648515Y-21400338D02*
X7638991Y-21438433D01*
X7638991Y-21438433D02*
X7629468Y-21457481D01*
X7629468Y-21457481D02*
X7619944Y-21467005D01*
X7619944Y-21467005D02*
X7600896Y-21476528D01*
X7600896Y-21476528D02*
X7581848Y-21476528D01*
X7581848Y-21476528D02*
X7562801Y-21467005D01*
X7562801Y-21467005D02*
X7553277Y-21457481D01*
X7553277Y-21457481D02*
X7543753Y-21438433D01*
X7543753Y-21438433D02*
X7534229Y-21400338D01*
X7534229Y-21400338D02*
X7534229Y-21352719D01*
X7534229Y-21352719D02*
X7543753Y-21314624D01*
X7543753Y-21314624D02*
X7553277Y-21295576D01*
X7553277Y-21295576D02*
X7562801Y-21286052D01*
X7562801Y-21286052D02*
X7581848Y-21276528D01*
X7886610Y-21476528D02*
X7886610Y-21276528D01*
X7972325Y-21476528D02*
X7972325Y-21371766D01*
X7972325Y-21371766D02*
X7962801Y-21352719D01*
X7962801Y-21352719D02*
X7943753Y-21343195D01*
X7943753Y-21343195D02*
X7915182Y-21343195D01*
X7915182Y-21343195D02*
X7896134Y-21352719D01*
X7896134Y-21352719D02*
X7886610Y-21362243D01*
X8096134Y-21476528D02*
X8077087Y-21467005D01*
X8077087Y-21467005D02*
X8067563Y-21457481D01*
X8067563Y-21457481D02*
X8058039Y-21438433D01*
X8058039Y-21438433D02*
X8058039Y-21381290D01*
X8058039Y-21381290D02*
X8067563Y-21362243D01*
X8067563Y-21362243D02*
X8077087Y-21352719D01*
X8077087Y-21352719D02*
X8096134Y-21343195D01*
X8096134Y-21343195D02*
X8124706Y-21343195D01*
X8124706Y-21343195D02*
X8143753Y-21352719D01*
X8143753Y-21352719D02*
X8153277Y-21362243D01*
X8153277Y-21362243D02*
X8162801Y-21381290D01*
X8162801Y-21381290D02*
X8162801Y-21438433D01*
X8162801Y-21438433D02*
X8153277Y-21457481D01*
X8153277Y-21457481D02*
X8143753Y-21467005D01*
X8143753Y-21467005D02*
X8124706Y-21476528D01*
X8124706Y-21476528D02*
X8096134Y-21476528D01*
X8277087Y-21476528D02*
X8258039Y-21467005D01*
X8258039Y-21467005D02*
X8248515Y-21447957D01*
X8248515Y-21447957D02*
X8248515Y-21276528D01*
X8429468Y-21467005D02*
X8410420Y-21476528D01*
X8410420Y-21476528D02*
X8372325Y-21476528D01*
X8372325Y-21476528D02*
X8353277Y-21467005D01*
X8353277Y-21467005D02*
X8343753Y-21447957D01*
X8343753Y-21447957D02*
X8343753Y-21371766D01*
X8343753Y-21371766D02*
X8353277Y-21352719D01*
X8353277Y-21352719D02*
X8372325Y-21343195D01*
X8372325Y-21343195D02*
X8410420Y-21343195D01*
X8410420Y-21343195D02*
X8429468Y-21352719D01*
X8429468Y-21352719D02*
X8438992Y-21371766D01*
X8438992Y-21371766D02*
X8438992Y-21390814D01*
X8438992Y-21390814D02*
X8343753Y-21409862D01*
X8515182Y-21467005D02*
X8534230Y-21476528D01*
X8534230Y-21476528D02*
X8572325Y-21476528D01*
X8572325Y-21476528D02*
X8591373Y-21467005D01*
X8591373Y-21467005D02*
X8600896Y-21447957D01*
X8600896Y-21447957D02*
X8600896Y-21438433D01*
X8600896Y-21438433D02*
X8591373Y-21419385D01*
X8591373Y-21419385D02*
X8572325Y-21409862D01*
X8572325Y-21409862D02*
X8543753Y-21409862D01*
X8543753Y-21409862D02*
X8524706Y-21400338D01*
X8524706Y-21400338D02*
X8515182Y-21381290D01*
X8515182Y-21381290D02*
X8515182Y-21371766D01*
X8515182Y-21371766D02*
X8524706Y-21352719D01*
X8524706Y-21352719D02*
X8543753Y-21343195D01*
X8543753Y-21343195D02*
X8572325Y-21343195D01*
X8572325Y-21343195D02*
X8591373Y-21352719D01*
X8838992Y-21400338D02*
X8991373Y-21400338D01*
X8915182Y-21476528D02*
X8915182Y-21324147D01*
X9324706Y-21276528D02*
X9286611Y-21276528D01*
X9286611Y-21276528D02*
X9267563Y-21286052D01*
X9267563Y-21286052D02*
X9258039Y-21295576D01*
X9258039Y-21295576D02*
X9238992Y-21324147D01*
X9238992Y-21324147D02*
X9229468Y-21362243D01*
X9229468Y-21362243D02*
X9229468Y-21438433D01*
X9229468Y-21438433D02*
X9238992Y-21457481D01*
X9238992Y-21457481D02*
X9248515Y-21467005D01*
X9248515Y-21467005D02*
X9267563Y-21476528D01*
X9267563Y-21476528D02*
X9305658Y-21476528D01*
X9305658Y-21476528D02*
X9324706Y-21467005D01*
X9324706Y-21467005D02*
X9334230Y-21457481D01*
X9334230Y-21457481D02*
X9343754Y-21438433D01*
X9343754Y-21438433D02*
X9343754Y-21390814D01*
X9343754Y-21390814D02*
X9334230Y-21371766D01*
X9334230Y-21371766D02*
X9324706Y-21362243D01*
X9324706Y-21362243D02*
X9305658Y-21352719D01*
X9305658Y-21352719D02*
X9267563Y-21352719D01*
X9267563Y-21352719D02*
X9248515Y-21362243D01*
X9248515Y-21362243D02*
X9238992Y-21371766D01*
X9238992Y-21371766D02*
X9229468Y-21390814D01*
X9572325Y-21467005D02*
X9591373Y-21476528D01*
X9591373Y-21476528D02*
X9629468Y-21476528D01*
X9629468Y-21476528D02*
X9648516Y-21467005D01*
X9648516Y-21467005D02*
X9658039Y-21447957D01*
X9658039Y-21447957D02*
X9658039Y-21438433D01*
X9658039Y-21438433D02*
X9648516Y-21419385D01*
X9648516Y-21419385D02*
X9629468Y-21409862D01*
X9629468Y-21409862D02*
X9600896Y-21409862D01*
X9600896Y-21409862D02*
X9581849Y-21400338D01*
X9581849Y-21400338D02*
X9572325Y-21381290D01*
X9572325Y-21381290D02*
X9572325Y-21371766D01*
X9572325Y-21371766D02*
X9581849Y-21352719D01*
X9581849Y-21352719D02*
X9600896Y-21343195D01*
X9600896Y-21343195D02*
X9629468Y-21343195D01*
X9629468Y-21343195D02*
X9648516Y-21352719D01*
X9772325Y-21476528D02*
X9753277Y-21467005D01*
X9753277Y-21467005D02*
X9743754Y-21447957D01*
X9743754Y-21447957D02*
X9743754Y-21276528D01*
X9877087Y-21476528D02*
X9858039Y-21467005D01*
X9858039Y-21467005D02*
X9848516Y-21457481D01*
X9848516Y-21457481D02*
X9838992Y-21438433D01*
X9838992Y-21438433D02*
X9838992Y-21381290D01*
X9838992Y-21381290D02*
X9848516Y-21362243D01*
X9848516Y-21362243D02*
X9858039Y-21352719D01*
X9858039Y-21352719D02*
X9877087Y-21343195D01*
X9877087Y-21343195D02*
X9905658Y-21343195D01*
X9905658Y-21343195D02*
X9924706Y-21352719D01*
X9924706Y-21352719D02*
X9934230Y-21362243D01*
X9934230Y-21362243D02*
X9943754Y-21381290D01*
X9943754Y-21381290D02*
X9943754Y-21438433D01*
X9943754Y-21438433D02*
X9934230Y-21457481D01*
X9934230Y-21457481D02*
X9924706Y-21467005D01*
X9924706Y-21467005D02*
X9905658Y-21476528D01*
X9905658Y-21476528D02*
X9877087Y-21476528D01*
X10000897Y-21343195D02*
X10077087Y-21343195D01*
X10029468Y-21276528D02*
X10029468Y-21447957D01*
X10029468Y-21447957D02*
X10038992Y-21467005D01*
X10038992Y-21467005D02*
X10058039Y-21476528D01*
X10058039Y-21476528D02*
X10077087Y-21476528D01*
X10134230Y-21467005D02*
X10153277Y-21476528D01*
X10153277Y-21476528D02*
X10191373Y-21476528D01*
X10191373Y-21476528D02*
X10210420Y-21467005D01*
X10210420Y-21467005D02*
X10219944Y-21447957D01*
X10219944Y-21447957D02*
X10219944Y-21438433D01*
X10219944Y-21438433D02*
X10210420Y-21419385D01*
X10210420Y-21419385D02*
X10191373Y-21409862D01*
X10191373Y-21409862D02*
X10162801Y-21409862D01*
X10162801Y-21409862D02*
X10143754Y-21400338D01*
X10143754Y-21400338D02*
X10134230Y-21381290D01*
X10134230Y-21381290D02*
X10134230Y-21371766D01*
X10134230Y-21371766D02*
X10143754Y-21352719D01*
X10143754Y-21352719D02*
X10162801Y-21343195D01*
X10162801Y-21343195D02*
X10191373Y-21343195D01*
X10191373Y-21343195D02*
X10210420Y-21352719D01*
X10286611Y-21552719D02*
X10296135Y-21543195D01*
X10296135Y-21543195D02*
X10315182Y-21514624D01*
X10315182Y-21514624D02*
X10324706Y-21495576D01*
X10324706Y-21495576D02*
X10334230Y-21467005D01*
X10334230Y-21467005D02*
X10343754Y-21419385D01*
X10343754Y-21419385D02*
X10343754Y-21381290D01*
X10343754Y-21381290D02*
X10334230Y-21333671D01*
X10334230Y-21333671D02*
X10324706Y-21305100D01*
X10324706Y-21305100D02*
X10315182Y-21286052D01*
X10315182Y-21286052D02*
X10296135Y-21257481D01*
X10296135Y-21257481D02*
X10286611Y-21247957D01*
D12*
X3793440Y-21599515D02*
X3892500Y-21698575D01*
X3892500Y-21599515D02*
X3793440Y-21698575D01*
X3892500Y-21649045D02*
G75*
G02*
X3793440Y-21649045I-49530J0D01*
G01*
X3793440Y-21649045D02*
G75*
G02*
X3892500Y-21649045I49530J0D01*
G01*
D11*
X4191372Y-21540528D02*
X4210420Y-21540528D01*
X4210420Y-21540528D02*
X4229467Y-21550052D01*
X4229467Y-21550052D02*
X4238991Y-21559576D01*
X4238991Y-21559576D02*
X4248515Y-21578624D01*
X4248515Y-21578624D02*
X4258039Y-21616719D01*
X4258039Y-21616719D02*
X4258039Y-21664338D01*
X4258039Y-21664338D02*
X4248515Y-21702433D01*
X4248515Y-21702433D02*
X4238991Y-21721481D01*
X4238991Y-21721481D02*
X4229467Y-21731005D01*
X4229467Y-21731005D02*
X4210420Y-21740528D01*
X4210420Y-21740528D02*
X4191372Y-21740528D01*
X4191372Y-21740528D02*
X4172324Y-21731005D01*
X4172324Y-21731005D02*
X4162801Y-21721481D01*
X4162801Y-21721481D02*
X4153277Y-21702433D01*
X4153277Y-21702433D02*
X4143753Y-21664338D01*
X4143753Y-21664338D02*
X4143753Y-21616719D01*
X4143753Y-21616719D02*
X4153277Y-21578624D01*
X4153277Y-21578624D02*
X4162801Y-21559576D01*
X4162801Y-21559576D02*
X4172324Y-21550052D01*
X4172324Y-21550052D02*
X4191372Y-21540528D01*
X4343753Y-21721481D02*
X4353277Y-21731005D01*
X4353277Y-21731005D02*
X4343753Y-21740528D01*
X4343753Y-21740528D02*
X4334229Y-21731005D01*
X4334229Y-21731005D02*
X4343753Y-21721481D01*
X4343753Y-21721481D02*
X4343753Y-21740528D01*
X4448515Y-21740528D02*
X4486610Y-21740528D01*
X4486610Y-21740528D02*
X4505658Y-21731005D01*
X4505658Y-21731005D02*
X4515182Y-21721481D01*
X4515182Y-21721481D02*
X4534229Y-21692909D01*
X4534229Y-21692909D02*
X4543753Y-21654814D01*
X4543753Y-21654814D02*
X4543753Y-21578624D01*
X4543753Y-21578624D02*
X4534229Y-21559576D01*
X4534229Y-21559576D02*
X4524705Y-21550052D01*
X4524705Y-21550052D02*
X4505658Y-21540528D01*
X4505658Y-21540528D02*
X4467563Y-21540528D01*
X4467563Y-21540528D02*
X4448515Y-21550052D01*
X4448515Y-21550052D02*
X4438991Y-21559576D01*
X4438991Y-21559576D02*
X4429467Y-21578624D01*
X4429467Y-21578624D02*
X4429467Y-21626243D01*
X4429467Y-21626243D02*
X4438991Y-21645290D01*
X4438991Y-21645290D02*
X4448515Y-21654814D01*
X4448515Y-21654814D02*
X4467563Y-21664338D01*
X4467563Y-21664338D02*
X4505658Y-21664338D01*
X4505658Y-21664338D02*
X4524705Y-21654814D01*
X4524705Y-21654814D02*
X4534229Y-21645290D01*
X4534229Y-21645290D02*
X4543753Y-21626243D01*
X4638991Y-21740528D02*
X4677086Y-21740528D01*
X4677086Y-21740528D02*
X4696134Y-21731005D01*
X4696134Y-21731005D02*
X4705658Y-21721481D01*
X4705658Y-21721481D02*
X4724705Y-21692909D01*
X4724705Y-21692909D02*
X4734229Y-21654814D01*
X4734229Y-21654814D02*
X4734229Y-21578624D01*
X4734229Y-21578624D02*
X4724705Y-21559576D01*
X4724705Y-21559576D02*
X4715182Y-21550052D01*
X4715182Y-21550052D02*
X4696134Y-21540528D01*
X4696134Y-21540528D02*
X4658039Y-21540528D01*
X4658039Y-21540528D02*
X4638991Y-21550052D01*
X4638991Y-21550052D02*
X4629467Y-21559576D01*
X4629467Y-21559576D02*
X4619944Y-21578624D01*
X4619944Y-21578624D02*
X4619944Y-21626243D01*
X4619944Y-21626243D02*
X4629467Y-21645290D01*
X4629467Y-21645290D02*
X4638991Y-21654814D01*
X4638991Y-21654814D02*
X4658039Y-21664338D01*
X4658039Y-21664338D02*
X4696134Y-21664338D01*
X4696134Y-21664338D02*
X4715182Y-21654814D01*
X4715182Y-21654814D02*
X4724705Y-21645290D01*
X4724705Y-21645290D02*
X4734229Y-21626243D01*
X4924705Y-21740528D02*
X4810420Y-21740528D01*
X4867563Y-21740528D02*
X4867563Y-21540528D01*
X4867563Y-21540528D02*
X4848515Y-21569100D01*
X4848515Y-21569100D02*
X4829467Y-21588147D01*
X4829467Y-21588147D02*
X4810420Y-21597671D01*
X5010420Y-21740528D02*
X5010420Y-21607195D01*
X5010420Y-21626243D02*
X5019944Y-21616719D01*
X5019944Y-21616719D02*
X5038991Y-21607195D01*
X5038991Y-21607195D02*
X5067563Y-21607195D01*
X5067563Y-21607195D02*
X5086610Y-21616719D01*
X5086610Y-21616719D02*
X5096134Y-21635766D01*
X5096134Y-21635766D02*
X5096134Y-21740528D01*
X5096134Y-21635766D02*
X5105658Y-21616719D01*
X5105658Y-21616719D02*
X5124705Y-21607195D01*
X5124705Y-21607195D02*
X5153277Y-21607195D01*
X5153277Y-21607195D02*
X5172325Y-21616719D01*
X5172325Y-21616719D02*
X5181848Y-21635766D01*
X5181848Y-21635766D02*
X5181848Y-21740528D01*
X5277086Y-21740528D02*
X5277086Y-21607195D01*
X5277086Y-21626243D02*
X5286610Y-21616719D01*
X5286610Y-21616719D02*
X5305658Y-21607195D01*
X5305658Y-21607195D02*
X5334229Y-21607195D01*
X5334229Y-21607195D02*
X5353277Y-21616719D01*
X5353277Y-21616719D02*
X5362801Y-21635766D01*
X5362801Y-21635766D02*
X5362801Y-21740528D01*
X5362801Y-21635766D02*
X5372325Y-21616719D01*
X5372325Y-21616719D02*
X5391372Y-21607195D01*
X5391372Y-21607195D02*
X5419944Y-21607195D01*
X5419944Y-21607195D02*
X5438991Y-21616719D01*
X5438991Y-21616719D02*
X5448515Y-21635766D01*
X5448515Y-21635766D02*
X5448515Y-21740528D01*
X5838991Y-21531005D02*
X5667563Y-21788147D01*
X6096134Y-21540528D02*
X6115182Y-21540528D01*
X6115182Y-21540528D02*
X6134229Y-21550052D01*
X6134229Y-21550052D02*
X6143753Y-21559576D01*
X6143753Y-21559576D02*
X6153277Y-21578624D01*
X6153277Y-21578624D02*
X6162801Y-21616719D01*
X6162801Y-21616719D02*
X6162801Y-21664338D01*
X6162801Y-21664338D02*
X6153277Y-21702433D01*
X6153277Y-21702433D02*
X6143753Y-21721481D01*
X6143753Y-21721481D02*
X6134229Y-21731005D01*
X6134229Y-21731005D02*
X6115182Y-21740528D01*
X6115182Y-21740528D02*
X6096134Y-21740528D01*
X6096134Y-21740528D02*
X6077086Y-21731005D01*
X6077086Y-21731005D02*
X6067563Y-21721481D01*
X6067563Y-21721481D02*
X6058039Y-21702433D01*
X6058039Y-21702433D02*
X6048515Y-21664338D01*
X6048515Y-21664338D02*
X6048515Y-21616719D01*
X6048515Y-21616719D02*
X6058039Y-21578624D01*
X6058039Y-21578624D02*
X6067563Y-21559576D01*
X6067563Y-21559576D02*
X6077086Y-21550052D01*
X6077086Y-21550052D02*
X6096134Y-21540528D01*
X6248515Y-21721481D02*
X6258039Y-21731005D01*
X6258039Y-21731005D02*
X6248515Y-21740528D01*
X6248515Y-21740528D02*
X6238991Y-21731005D01*
X6238991Y-21731005D02*
X6248515Y-21721481D01*
X6248515Y-21721481D02*
X6248515Y-21740528D01*
X6381848Y-21540528D02*
X6400896Y-21540528D01*
X6400896Y-21540528D02*
X6419944Y-21550052D01*
X6419944Y-21550052D02*
X6429467Y-21559576D01*
X6429467Y-21559576D02*
X6438991Y-21578624D01*
X6438991Y-21578624D02*
X6448515Y-21616719D01*
X6448515Y-21616719D02*
X6448515Y-21664338D01*
X6448515Y-21664338D02*
X6438991Y-21702433D01*
X6438991Y-21702433D02*
X6429467Y-21721481D01*
X6429467Y-21721481D02*
X6419944Y-21731005D01*
X6419944Y-21731005D02*
X6400896Y-21740528D01*
X6400896Y-21740528D02*
X6381848Y-21740528D01*
X6381848Y-21740528D02*
X6362801Y-21731005D01*
X6362801Y-21731005D02*
X6353277Y-21721481D01*
X6353277Y-21721481D02*
X6343753Y-21702433D01*
X6343753Y-21702433D02*
X6334229Y-21664338D01*
X6334229Y-21664338D02*
X6334229Y-21616719D01*
X6334229Y-21616719D02*
X6343753Y-21578624D01*
X6343753Y-21578624D02*
X6353277Y-21559576D01*
X6353277Y-21559576D02*
X6362801Y-21550052D01*
X6362801Y-21550052D02*
X6381848Y-21540528D01*
X6515182Y-21540528D02*
X6638991Y-21540528D01*
X6638991Y-21540528D02*
X6572325Y-21616719D01*
X6572325Y-21616719D02*
X6600896Y-21616719D01*
X6600896Y-21616719D02*
X6619944Y-21626243D01*
X6619944Y-21626243D02*
X6629467Y-21635766D01*
X6629467Y-21635766D02*
X6638991Y-21654814D01*
X6638991Y-21654814D02*
X6638991Y-21702433D01*
X6638991Y-21702433D02*
X6629467Y-21721481D01*
X6629467Y-21721481D02*
X6619944Y-21731005D01*
X6619944Y-21731005D02*
X6600896Y-21740528D01*
X6600896Y-21740528D02*
X6543753Y-21740528D01*
X6543753Y-21740528D02*
X6524706Y-21731005D01*
X6524706Y-21731005D02*
X6515182Y-21721481D01*
X6734229Y-21740528D02*
X6772325Y-21740528D01*
X6772325Y-21740528D02*
X6791372Y-21731005D01*
X6791372Y-21731005D02*
X6800896Y-21721481D01*
X6800896Y-21721481D02*
X6819944Y-21692909D01*
X6819944Y-21692909D02*
X6829467Y-21654814D01*
X6829467Y-21654814D02*
X6829467Y-21578624D01*
X6829467Y-21578624D02*
X6819944Y-21559576D01*
X6819944Y-21559576D02*
X6810420Y-21550052D01*
X6810420Y-21550052D02*
X6791372Y-21540528D01*
X6791372Y-21540528D02*
X6753277Y-21540528D01*
X6753277Y-21540528D02*
X6734229Y-21550052D01*
X6734229Y-21550052D02*
X6724706Y-21559576D01*
X6724706Y-21559576D02*
X6715182Y-21578624D01*
X6715182Y-21578624D02*
X6715182Y-21626243D01*
X6715182Y-21626243D02*
X6724706Y-21645290D01*
X6724706Y-21645290D02*
X6734229Y-21654814D01*
X6734229Y-21654814D02*
X6753277Y-21664338D01*
X6753277Y-21664338D02*
X6791372Y-21664338D01*
X6791372Y-21664338D02*
X6810420Y-21654814D01*
X6810420Y-21654814D02*
X6819944Y-21645290D01*
X6819944Y-21645290D02*
X6829467Y-21626243D01*
X6953277Y-21540528D02*
X6972325Y-21540528D01*
X6972325Y-21540528D02*
X6991372Y-21550052D01*
X6991372Y-21550052D02*
X7000896Y-21559576D01*
X7000896Y-21559576D02*
X7010420Y-21578624D01*
X7010420Y-21578624D02*
X7019944Y-21616719D01*
X7019944Y-21616719D02*
X7019944Y-21664338D01*
X7019944Y-21664338D02*
X7010420Y-21702433D01*
X7010420Y-21702433D02*
X7000896Y-21721481D01*
X7000896Y-21721481D02*
X6991372Y-21731005D01*
X6991372Y-21731005D02*
X6972325Y-21740528D01*
X6972325Y-21740528D02*
X6953277Y-21740528D01*
X6953277Y-21740528D02*
X6934229Y-21731005D01*
X6934229Y-21731005D02*
X6924706Y-21721481D01*
X6924706Y-21721481D02*
X6915182Y-21702433D01*
X6915182Y-21702433D02*
X6905658Y-21664338D01*
X6905658Y-21664338D02*
X6905658Y-21616719D01*
X6905658Y-21616719D02*
X6915182Y-21578624D01*
X6915182Y-21578624D02*
X6924706Y-21559576D01*
X6924706Y-21559576D02*
X6934229Y-21550052D01*
X6934229Y-21550052D02*
X6953277Y-21540528D01*
X7096134Y-21540528D02*
X7096134Y-21578624D01*
X7172325Y-21540528D02*
X7172325Y-21578624D01*
X7467563Y-21816719D02*
X7458039Y-21807195D01*
X7458039Y-21807195D02*
X7438991Y-21778624D01*
X7438991Y-21778624D02*
X7429468Y-21759576D01*
X7429468Y-21759576D02*
X7419944Y-21731005D01*
X7419944Y-21731005D02*
X7410420Y-21683385D01*
X7410420Y-21683385D02*
X7410420Y-21645290D01*
X7410420Y-21645290D02*
X7419944Y-21597671D01*
X7419944Y-21597671D02*
X7429468Y-21569100D01*
X7429468Y-21569100D02*
X7438991Y-21550052D01*
X7438991Y-21550052D02*
X7458039Y-21521481D01*
X7458039Y-21521481D02*
X7467563Y-21511957D01*
X7638991Y-21540528D02*
X7543753Y-21540528D01*
X7543753Y-21540528D02*
X7534229Y-21635766D01*
X7534229Y-21635766D02*
X7543753Y-21626243D01*
X7543753Y-21626243D02*
X7562801Y-21616719D01*
X7562801Y-21616719D02*
X7610420Y-21616719D01*
X7610420Y-21616719D02*
X7629468Y-21626243D01*
X7629468Y-21626243D02*
X7638991Y-21635766D01*
X7638991Y-21635766D02*
X7648515Y-21654814D01*
X7648515Y-21654814D02*
X7648515Y-21702433D01*
X7648515Y-21702433D02*
X7638991Y-21721481D01*
X7638991Y-21721481D02*
X7629468Y-21731005D01*
X7629468Y-21731005D02*
X7610420Y-21740528D01*
X7610420Y-21740528D02*
X7562801Y-21740528D01*
X7562801Y-21740528D02*
X7543753Y-21731005D01*
X7543753Y-21731005D02*
X7534229Y-21721481D01*
X7819944Y-21607195D02*
X7819944Y-21740528D01*
X7772325Y-21531005D02*
X7724706Y-21673862D01*
X7724706Y-21673862D02*
X7848515Y-21673862D01*
X8077087Y-21740528D02*
X8077087Y-21540528D01*
X8162801Y-21740528D02*
X8162801Y-21635766D01*
X8162801Y-21635766D02*
X8153277Y-21616719D01*
X8153277Y-21616719D02*
X8134230Y-21607195D01*
X8134230Y-21607195D02*
X8105658Y-21607195D01*
X8105658Y-21607195D02*
X8086610Y-21616719D01*
X8086610Y-21616719D02*
X8077087Y-21626243D01*
X8286610Y-21740528D02*
X8267563Y-21731005D01*
X8267563Y-21731005D02*
X8258039Y-21721481D01*
X8258039Y-21721481D02*
X8248515Y-21702433D01*
X8248515Y-21702433D02*
X8248515Y-21645290D01*
X8248515Y-21645290D02*
X8258039Y-21626243D01*
X8258039Y-21626243D02*
X8267563Y-21616719D01*
X8267563Y-21616719D02*
X8286610Y-21607195D01*
X8286610Y-21607195D02*
X8315182Y-21607195D01*
X8315182Y-21607195D02*
X8334230Y-21616719D01*
X8334230Y-21616719D02*
X8343753Y-21626243D01*
X8343753Y-21626243D02*
X8353277Y-21645290D01*
X8353277Y-21645290D02*
X8353277Y-21702433D01*
X8353277Y-21702433D02*
X8343753Y-21721481D01*
X8343753Y-21721481D02*
X8334230Y-21731005D01*
X8334230Y-21731005D02*
X8315182Y-21740528D01*
X8315182Y-21740528D02*
X8286610Y-21740528D01*
X8467563Y-21740528D02*
X8448515Y-21731005D01*
X8448515Y-21731005D02*
X8438992Y-21711957D01*
X8438992Y-21711957D02*
X8438992Y-21540528D01*
X8619944Y-21731005D02*
X8600896Y-21740528D01*
X8600896Y-21740528D02*
X8562801Y-21740528D01*
X8562801Y-21740528D02*
X8543753Y-21731005D01*
X8543753Y-21731005D02*
X8534230Y-21711957D01*
X8534230Y-21711957D02*
X8534230Y-21635766D01*
X8534230Y-21635766D02*
X8543753Y-21616719D01*
X8543753Y-21616719D02*
X8562801Y-21607195D01*
X8562801Y-21607195D02*
X8600896Y-21607195D01*
X8600896Y-21607195D02*
X8619944Y-21616719D01*
X8619944Y-21616719D02*
X8629468Y-21635766D01*
X8629468Y-21635766D02*
X8629468Y-21654814D01*
X8629468Y-21654814D02*
X8534230Y-21673862D01*
X8705658Y-21731005D02*
X8724706Y-21740528D01*
X8724706Y-21740528D02*
X8762801Y-21740528D01*
X8762801Y-21740528D02*
X8781849Y-21731005D01*
X8781849Y-21731005D02*
X8791373Y-21711957D01*
X8791373Y-21711957D02*
X8791373Y-21702433D01*
X8791373Y-21702433D02*
X8781849Y-21683385D01*
X8781849Y-21683385D02*
X8762801Y-21673862D01*
X8762801Y-21673862D02*
X8734230Y-21673862D01*
X8734230Y-21673862D02*
X8715182Y-21664338D01*
X8715182Y-21664338D02*
X8705658Y-21645290D01*
X8705658Y-21645290D02*
X8705658Y-21635766D01*
X8705658Y-21635766D02*
X8715182Y-21616719D01*
X8715182Y-21616719D02*
X8734230Y-21607195D01*
X8734230Y-21607195D02*
X8762801Y-21607195D01*
X8762801Y-21607195D02*
X8781849Y-21616719D01*
X8858039Y-21816719D02*
X8867563Y-21807195D01*
X8867563Y-21807195D02*
X8886611Y-21778624D01*
X8886611Y-21778624D02*
X8896134Y-21759576D01*
X8896134Y-21759576D02*
X8905658Y-21731005D01*
X8905658Y-21731005D02*
X8915182Y-21683385D01*
X8915182Y-21683385D02*
X8915182Y-21645290D01*
X8915182Y-21645290D02*
X8905658Y-21597671D01*
X8905658Y-21597671D02*
X8896134Y-21569100D01*
X8896134Y-21569100D02*
X8886611Y-21550052D01*
X8886611Y-21550052D02*
X8867563Y-21521481D01*
X8867563Y-21521481D02*
X8858039Y-21511957D01*
D12*
X3792500Y-21863045D02*
X3892500Y-21963045D01*
X3892500Y-21863045D02*
X3792500Y-21963045D01*
X3842500Y-21863045D02*
X3842500Y-21963045D01*
X3792500Y-21913045D02*
X3892500Y-21913045D01*
D11*
X4258039Y-22004528D02*
X4143753Y-22004528D01*
X4200896Y-22004528D02*
X4200896Y-21804528D01*
X4200896Y-21804528D02*
X4181848Y-21833100D01*
X4181848Y-21833100D02*
X4162801Y-21852147D01*
X4162801Y-21852147D02*
X4143753Y-21861671D01*
X4343753Y-21985481D02*
X4353277Y-21995005D01*
X4353277Y-21995005D02*
X4343753Y-22004528D01*
X4343753Y-22004528D02*
X4334229Y-21995005D01*
X4334229Y-21995005D02*
X4343753Y-21985481D01*
X4343753Y-21985481D02*
X4343753Y-22004528D01*
X4477086Y-21804528D02*
X4496134Y-21804528D01*
X4496134Y-21804528D02*
X4515182Y-21814052D01*
X4515182Y-21814052D02*
X4524705Y-21823576D01*
X4524705Y-21823576D02*
X4534229Y-21842624D01*
X4534229Y-21842624D02*
X4543753Y-21880719D01*
X4543753Y-21880719D02*
X4543753Y-21928338D01*
X4543753Y-21928338D02*
X4534229Y-21966433D01*
X4534229Y-21966433D02*
X4524705Y-21985481D01*
X4524705Y-21985481D02*
X4515182Y-21995005D01*
X4515182Y-21995005D02*
X4496134Y-22004528D01*
X4496134Y-22004528D02*
X4477086Y-22004528D01*
X4477086Y-22004528D02*
X4458039Y-21995005D01*
X4458039Y-21995005D02*
X4448515Y-21985481D01*
X4448515Y-21985481D02*
X4438991Y-21966433D01*
X4438991Y-21966433D02*
X4429467Y-21928338D01*
X4429467Y-21928338D02*
X4429467Y-21880719D01*
X4429467Y-21880719D02*
X4438991Y-21842624D01*
X4438991Y-21842624D02*
X4448515Y-21823576D01*
X4448515Y-21823576D02*
X4458039Y-21814052D01*
X4458039Y-21814052D02*
X4477086Y-21804528D01*
X4667563Y-21804528D02*
X4686610Y-21804528D01*
X4686610Y-21804528D02*
X4705658Y-21814052D01*
X4705658Y-21814052D02*
X4715182Y-21823576D01*
X4715182Y-21823576D02*
X4724705Y-21842624D01*
X4724705Y-21842624D02*
X4734229Y-21880719D01*
X4734229Y-21880719D02*
X4734229Y-21928338D01*
X4734229Y-21928338D02*
X4724705Y-21966433D01*
X4724705Y-21966433D02*
X4715182Y-21985481D01*
X4715182Y-21985481D02*
X4705658Y-21995005D01*
X4705658Y-21995005D02*
X4686610Y-22004528D01*
X4686610Y-22004528D02*
X4667563Y-22004528D01*
X4667563Y-22004528D02*
X4648515Y-21995005D01*
X4648515Y-21995005D02*
X4638991Y-21985481D01*
X4638991Y-21985481D02*
X4629467Y-21966433D01*
X4629467Y-21966433D02*
X4619944Y-21928338D01*
X4619944Y-21928338D02*
X4619944Y-21880719D01*
X4619944Y-21880719D02*
X4629467Y-21842624D01*
X4629467Y-21842624D02*
X4638991Y-21823576D01*
X4638991Y-21823576D02*
X4648515Y-21814052D01*
X4648515Y-21814052D02*
X4667563Y-21804528D01*
X4858039Y-21804528D02*
X4877086Y-21804528D01*
X4877086Y-21804528D02*
X4896134Y-21814052D01*
X4896134Y-21814052D02*
X4905658Y-21823576D01*
X4905658Y-21823576D02*
X4915182Y-21842624D01*
X4915182Y-21842624D02*
X4924705Y-21880719D01*
X4924705Y-21880719D02*
X4924705Y-21928338D01*
X4924705Y-21928338D02*
X4915182Y-21966433D01*
X4915182Y-21966433D02*
X4905658Y-21985481D01*
X4905658Y-21985481D02*
X4896134Y-21995005D01*
X4896134Y-21995005D02*
X4877086Y-22004528D01*
X4877086Y-22004528D02*
X4858039Y-22004528D01*
X4858039Y-22004528D02*
X4838991Y-21995005D01*
X4838991Y-21995005D02*
X4829467Y-21985481D01*
X4829467Y-21985481D02*
X4819944Y-21966433D01*
X4819944Y-21966433D02*
X4810420Y-21928338D01*
X4810420Y-21928338D02*
X4810420Y-21880719D01*
X4810420Y-21880719D02*
X4819944Y-21842624D01*
X4819944Y-21842624D02*
X4829467Y-21823576D01*
X4829467Y-21823576D02*
X4838991Y-21814052D01*
X4838991Y-21814052D02*
X4858039Y-21804528D01*
X5010420Y-22004528D02*
X5010420Y-21871195D01*
X5010420Y-21890243D02*
X5019944Y-21880719D01*
X5019944Y-21880719D02*
X5038991Y-21871195D01*
X5038991Y-21871195D02*
X5067563Y-21871195D01*
X5067563Y-21871195D02*
X5086610Y-21880719D01*
X5086610Y-21880719D02*
X5096134Y-21899766D01*
X5096134Y-21899766D02*
X5096134Y-22004528D01*
X5096134Y-21899766D02*
X5105658Y-21880719D01*
X5105658Y-21880719D02*
X5124705Y-21871195D01*
X5124705Y-21871195D02*
X5153277Y-21871195D01*
X5153277Y-21871195D02*
X5172325Y-21880719D01*
X5172325Y-21880719D02*
X5181848Y-21899766D01*
X5181848Y-21899766D02*
X5181848Y-22004528D01*
X5277086Y-22004528D02*
X5277086Y-21871195D01*
X5277086Y-21890243D02*
X5286610Y-21880719D01*
X5286610Y-21880719D02*
X5305658Y-21871195D01*
X5305658Y-21871195D02*
X5334229Y-21871195D01*
X5334229Y-21871195D02*
X5353277Y-21880719D01*
X5353277Y-21880719D02*
X5362801Y-21899766D01*
X5362801Y-21899766D02*
X5362801Y-22004528D01*
X5362801Y-21899766D02*
X5372325Y-21880719D01*
X5372325Y-21880719D02*
X5391372Y-21871195D01*
X5391372Y-21871195D02*
X5419944Y-21871195D01*
X5419944Y-21871195D02*
X5438991Y-21880719D01*
X5438991Y-21880719D02*
X5448515Y-21899766D01*
X5448515Y-21899766D02*
X5448515Y-22004528D01*
X5838991Y-21795005D02*
X5667563Y-22052147D01*
X6096134Y-21804528D02*
X6115182Y-21804528D01*
X6115182Y-21804528D02*
X6134229Y-21814052D01*
X6134229Y-21814052D02*
X6143753Y-21823576D01*
X6143753Y-21823576D02*
X6153277Y-21842624D01*
X6153277Y-21842624D02*
X6162801Y-21880719D01*
X6162801Y-21880719D02*
X6162801Y-21928338D01*
X6162801Y-21928338D02*
X6153277Y-21966433D01*
X6153277Y-21966433D02*
X6143753Y-21985481D01*
X6143753Y-21985481D02*
X6134229Y-21995005D01*
X6134229Y-21995005D02*
X6115182Y-22004528D01*
X6115182Y-22004528D02*
X6096134Y-22004528D01*
X6096134Y-22004528D02*
X6077086Y-21995005D01*
X6077086Y-21995005D02*
X6067563Y-21985481D01*
X6067563Y-21985481D02*
X6058039Y-21966433D01*
X6058039Y-21966433D02*
X6048515Y-21928338D01*
X6048515Y-21928338D02*
X6048515Y-21880719D01*
X6048515Y-21880719D02*
X6058039Y-21842624D01*
X6058039Y-21842624D02*
X6067563Y-21823576D01*
X6067563Y-21823576D02*
X6077086Y-21814052D01*
X6077086Y-21814052D02*
X6096134Y-21804528D01*
X6248515Y-21985481D02*
X6258039Y-21995005D01*
X6258039Y-21995005D02*
X6248515Y-22004528D01*
X6248515Y-22004528D02*
X6238991Y-21995005D01*
X6238991Y-21995005D02*
X6248515Y-21985481D01*
X6248515Y-21985481D02*
X6248515Y-22004528D01*
X6381848Y-21804528D02*
X6400896Y-21804528D01*
X6400896Y-21804528D02*
X6419944Y-21814052D01*
X6419944Y-21814052D02*
X6429467Y-21823576D01*
X6429467Y-21823576D02*
X6438991Y-21842624D01*
X6438991Y-21842624D02*
X6448515Y-21880719D01*
X6448515Y-21880719D02*
X6448515Y-21928338D01*
X6448515Y-21928338D02*
X6438991Y-21966433D01*
X6438991Y-21966433D02*
X6429467Y-21985481D01*
X6429467Y-21985481D02*
X6419944Y-21995005D01*
X6419944Y-21995005D02*
X6400896Y-22004528D01*
X6400896Y-22004528D02*
X6381848Y-22004528D01*
X6381848Y-22004528D02*
X6362801Y-21995005D01*
X6362801Y-21995005D02*
X6353277Y-21985481D01*
X6353277Y-21985481D02*
X6343753Y-21966433D01*
X6343753Y-21966433D02*
X6334229Y-21928338D01*
X6334229Y-21928338D02*
X6334229Y-21880719D01*
X6334229Y-21880719D02*
X6343753Y-21842624D01*
X6343753Y-21842624D02*
X6353277Y-21823576D01*
X6353277Y-21823576D02*
X6362801Y-21814052D01*
X6362801Y-21814052D02*
X6381848Y-21804528D01*
X6515182Y-21804528D02*
X6638991Y-21804528D01*
X6638991Y-21804528D02*
X6572325Y-21880719D01*
X6572325Y-21880719D02*
X6600896Y-21880719D01*
X6600896Y-21880719D02*
X6619944Y-21890243D01*
X6619944Y-21890243D02*
X6629467Y-21899766D01*
X6629467Y-21899766D02*
X6638991Y-21918814D01*
X6638991Y-21918814D02*
X6638991Y-21966433D01*
X6638991Y-21966433D02*
X6629467Y-21985481D01*
X6629467Y-21985481D02*
X6619944Y-21995005D01*
X6619944Y-21995005D02*
X6600896Y-22004528D01*
X6600896Y-22004528D02*
X6543753Y-22004528D01*
X6543753Y-22004528D02*
X6524706Y-21995005D01*
X6524706Y-21995005D02*
X6515182Y-21985481D01*
X6734229Y-22004528D02*
X6772325Y-22004528D01*
X6772325Y-22004528D02*
X6791372Y-21995005D01*
X6791372Y-21995005D02*
X6800896Y-21985481D01*
X6800896Y-21985481D02*
X6819944Y-21956909D01*
X6819944Y-21956909D02*
X6829467Y-21918814D01*
X6829467Y-21918814D02*
X6829467Y-21842624D01*
X6829467Y-21842624D02*
X6819944Y-21823576D01*
X6819944Y-21823576D02*
X6810420Y-21814052D01*
X6810420Y-21814052D02*
X6791372Y-21804528D01*
X6791372Y-21804528D02*
X6753277Y-21804528D01*
X6753277Y-21804528D02*
X6734229Y-21814052D01*
X6734229Y-21814052D02*
X6724706Y-21823576D01*
X6724706Y-21823576D02*
X6715182Y-21842624D01*
X6715182Y-21842624D02*
X6715182Y-21890243D01*
X6715182Y-21890243D02*
X6724706Y-21909290D01*
X6724706Y-21909290D02*
X6734229Y-21918814D01*
X6734229Y-21918814D02*
X6753277Y-21928338D01*
X6753277Y-21928338D02*
X6791372Y-21928338D01*
X6791372Y-21928338D02*
X6810420Y-21918814D01*
X6810420Y-21918814D02*
X6819944Y-21909290D01*
X6819944Y-21909290D02*
X6829467Y-21890243D01*
X7000896Y-21871195D02*
X7000896Y-22004528D01*
X6953277Y-21795005D02*
X6905658Y-21937862D01*
X6905658Y-21937862D02*
X7029467Y-21937862D01*
X7096134Y-21804528D02*
X7096134Y-21842624D01*
X7172325Y-21804528D02*
X7172325Y-21842624D01*
X7467563Y-22080719D02*
X7458039Y-22071195D01*
X7458039Y-22071195D02*
X7438991Y-22042624D01*
X7438991Y-22042624D02*
X7429468Y-22023576D01*
X7429468Y-22023576D02*
X7419944Y-21995005D01*
X7419944Y-21995005D02*
X7410420Y-21947385D01*
X7410420Y-21947385D02*
X7410420Y-21909290D01*
X7410420Y-21909290D02*
X7419944Y-21861671D01*
X7419944Y-21861671D02*
X7429468Y-21833100D01*
X7429468Y-21833100D02*
X7438991Y-21814052D01*
X7438991Y-21814052D02*
X7458039Y-21785481D01*
X7458039Y-21785481D02*
X7467563Y-21775957D01*
X7534229Y-21823576D02*
X7543753Y-21814052D01*
X7543753Y-21814052D02*
X7562801Y-21804528D01*
X7562801Y-21804528D02*
X7610420Y-21804528D01*
X7610420Y-21804528D02*
X7629468Y-21814052D01*
X7629468Y-21814052D02*
X7638991Y-21823576D01*
X7638991Y-21823576D02*
X7648515Y-21842624D01*
X7648515Y-21842624D02*
X7648515Y-21861671D01*
X7648515Y-21861671D02*
X7638991Y-21890243D01*
X7638991Y-21890243D02*
X7524706Y-22004528D01*
X7524706Y-22004528D02*
X7648515Y-22004528D01*
X7819944Y-21804528D02*
X7781848Y-21804528D01*
X7781848Y-21804528D02*
X7762801Y-21814052D01*
X7762801Y-21814052D02*
X7753277Y-21823576D01*
X7753277Y-21823576D02*
X7734229Y-21852147D01*
X7734229Y-21852147D02*
X7724706Y-21890243D01*
X7724706Y-21890243D02*
X7724706Y-21966433D01*
X7724706Y-21966433D02*
X7734229Y-21985481D01*
X7734229Y-21985481D02*
X7743753Y-21995005D01*
X7743753Y-21995005D02*
X7762801Y-22004528D01*
X7762801Y-22004528D02*
X7800896Y-22004528D01*
X7800896Y-22004528D02*
X7819944Y-21995005D01*
X7819944Y-21995005D02*
X7829468Y-21985481D01*
X7829468Y-21985481D02*
X7838991Y-21966433D01*
X7838991Y-21966433D02*
X7838991Y-21918814D01*
X7838991Y-21918814D02*
X7829468Y-21899766D01*
X7829468Y-21899766D02*
X7819944Y-21890243D01*
X7819944Y-21890243D02*
X7800896Y-21880719D01*
X7800896Y-21880719D02*
X7762801Y-21880719D01*
X7762801Y-21880719D02*
X7743753Y-21890243D01*
X7743753Y-21890243D02*
X7734229Y-21899766D01*
X7734229Y-21899766D02*
X7724706Y-21918814D01*
X8077087Y-22004528D02*
X8077087Y-21804528D01*
X8162801Y-22004528D02*
X8162801Y-21899766D01*
X8162801Y-21899766D02*
X8153277Y-21880719D01*
X8153277Y-21880719D02*
X8134230Y-21871195D01*
X8134230Y-21871195D02*
X8105658Y-21871195D01*
X8105658Y-21871195D02*
X8086610Y-21880719D01*
X8086610Y-21880719D02*
X8077087Y-21890243D01*
X8286610Y-22004528D02*
X8267563Y-21995005D01*
X8267563Y-21995005D02*
X8258039Y-21985481D01*
X8258039Y-21985481D02*
X8248515Y-21966433D01*
X8248515Y-21966433D02*
X8248515Y-21909290D01*
X8248515Y-21909290D02*
X8258039Y-21890243D01*
X8258039Y-21890243D02*
X8267563Y-21880719D01*
X8267563Y-21880719D02*
X8286610Y-21871195D01*
X8286610Y-21871195D02*
X8315182Y-21871195D01*
X8315182Y-21871195D02*
X8334230Y-21880719D01*
X8334230Y-21880719D02*
X8343753Y-21890243D01*
X8343753Y-21890243D02*
X8353277Y-21909290D01*
X8353277Y-21909290D02*
X8353277Y-21966433D01*
X8353277Y-21966433D02*
X8343753Y-21985481D01*
X8343753Y-21985481D02*
X8334230Y-21995005D01*
X8334230Y-21995005D02*
X8315182Y-22004528D01*
X8315182Y-22004528D02*
X8286610Y-22004528D01*
X8467563Y-22004528D02*
X8448515Y-21995005D01*
X8448515Y-21995005D02*
X8438992Y-21975957D01*
X8438992Y-21975957D02*
X8438992Y-21804528D01*
X8619944Y-21995005D02*
X8600896Y-22004528D01*
X8600896Y-22004528D02*
X8562801Y-22004528D01*
X8562801Y-22004528D02*
X8543753Y-21995005D01*
X8543753Y-21995005D02*
X8534230Y-21975957D01*
X8534230Y-21975957D02*
X8534230Y-21899766D01*
X8534230Y-21899766D02*
X8543753Y-21880719D01*
X8543753Y-21880719D02*
X8562801Y-21871195D01*
X8562801Y-21871195D02*
X8600896Y-21871195D01*
X8600896Y-21871195D02*
X8619944Y-21880719D01*
X8619944Y-21880719D02*
X8629468Y-21899766D01*
X8629468Y-21899766D02*
X8629468Y-21918814D01*
X8629468Y-21918814D02*
X8534230Y-21937862D01*
X8705658Y-21995005D02*
X8724706Y-22004528D01*
X8724706Y-22004528D02*
X8762801Y-22004528D01*
X8762801Y-22004528D02*
X8781849Y-21995005D01*
X8781849Y-21995005D02*
X8791373Y-21975957D01*
X8791373Y-21975957D02*
X8791373Y-21966433D01*
X8791373Y-21966433D02*
X8781849Y-21947385D01*
X8781849Y-21947385D02*
X8762801Y-21937862D01*
X8762801Y-21937862D02*
X8734230Y-21937862D01*
X8734230Y-21937862D02*
X8715182Y-21928338D01*
X8715182Y-21928338D02*
X8705658Y-21909290D01*
X8705658Y-21909290D02*
X8705658Y-21899766D01*
X8705658Y-21899766D02*
X8715182Y-21880719D01*
X8715182Y-21880719D02*
X8734230Y-21871195D01*
X8734230Y-21871195D02*
X8762801Y-21871195D01*
X8762801Y-21871195D02*
X8781849Y-21880719D01*
X8858039Y-22080719D02*
X8867563Y-22071195D01*
X8867563Y-22071195D02*
X8886611Y-22042624D01*
X8886611Y-22042624D02*
X8896134Y-22023576D01*
X8896134Y-22023576D02*
X8905658Y-21995005D01*
X8905658Y-21995005D02*
X8915182Y-21947385D01*
X8915182Y-21947385D02*
X8915182Y-21909290D01*
X8915182Y-21909290D02*
X8905658Y-21861671D01*
X8905658Y-21861671D02*
X8896134Y-21833100D01*
X8896134Y-21833100D02*
X8886611Y-21814052D01*
X8886611Y-21814052D02*
X8867563Y-21785481D01*
X8867563Y-21785481D02*
X8858039Y-21775957D01*
M02*
