M48
; DRILL file {KiCad 8.0.8+1} date 2025-03-13T20:36:31+0000
; FORMAT={-:-/ absolute / metric / decimal}
; #@! TF.CreationDate,2025-03-13T20:36:31+00:00
; #@! TF.GenerationSoftware,Kicad,Pcbnew,8.0.8+1
; #@! TF.FileFunction,Plated,1,2,PTH
FMAT,2
METRIC
; #@! TA.AperFunction,Plated,PTH,ViaDrill
T1C0.200
; #@! TA.AperFunction,Plated,PTH,ViaDrill
T2C0.300
; #@! TA.AperFunction,Plated,PTH,ComponentDrill
T3C0.400
; #@! TA.AperFunction,Plated,PTH,ComponentDrill
T4C0.750
; #@! TA.AperFunction,Plated,PTH,ComponentDrill
T5C0.900
; #@! TA.AperFunction,Plated,PTH,ComponentDrill
T6C0.991
; #@! TA.AperFunction,Plated,PTH,ComponentDrill
T7C1.000
%
G90
G05
T1
X50.0Y-112.75
X50.0Y-129.75
X50.0Y-146.5
X50.25Y-95.5
X68.0Y-95.75
X68.0Y-112.5
X68.0Y-129.5
X68.0Y-146.5
X86.0Y-86.5
X86.0Y-103.0
X86.0Y-120.25
X86.25Y-137.25
X104.0Y-83.0
X104.0Y-100.0
X104.0Y-116.75
X104.0Y-133.75
X122.0Y-86.5
X122.0Y-120.25
X122.0Y-137.0
X122.25Y-103.25
X125.25Y-159.25
X140.0Y-88.25
X140.0Y-105.25
X140.0Y-122.0
X140.0Y-139.0
X143.75Y-166.75
X159.0Y-141.308
X160.33Y-137.488
X160.75Y-179.5
X166.25Y-140.25
T2
X154.0Y-144.064
T3
X159.6Y-102.65
X159.6Y-105.19
X159.6Y-107.73
X159.6Y-110.27
X159.6Y-112.81
X159.6Y-115.35
X159.6Y-117.89
X159.6Y-120.43
X159.6Y-122.97
X159.6Y-125.51
X159.6Y-128.05
X159.6Y-130.59
X166.4Y-102.65
X166.4Y-105.19
X166.4Y-107.73
X166.4Y-110.27
X166.4Y-112.81
X166.4Y-115.35
X166.4Y-117.89
X166.4Y-120.43
X166.4Y-122.97
X166.4Y-125.51
X166.4Y-128.05
X166.4Y-130.59
T4
X157.0Y-145.35
X159.0Y-145.35
T6
X46.19Y-103.0
X46.19Y-120.0
X46.19Y-137.0
X46.19Y-154.0
X53.81Y-103.0
X53.81Y-120.0
X53.81Y-137.0
X53.81Y-154.0
X64.19Y-103.0
X64.19Y-120.0
X64.19Y-137.0
X64.19Y-154.0
X71.81Y-103.0
X71.81Y-120.0
X71.81Y-137.0
X71.81Y-154.0
X82.19Y-93.65
X82.19Y-110.65
X82.19Y-127.65
X82.19Y-144.65
X89.81Y-93.65
X89.81Y-110.65
X89.81Y-127.65
X89.81Y-144.65
X100.19Y-90.25
X100.19Y-107.25
X100.19Y-124.25
X100.19Y-141.25
X107.81Y-90.25
X107.81Y-107.25
X107.81Y-124.25
X107.81Y-141.25
X118.19Y-93.65
X118.19Y-110.65
X118.19Y-127.65
X118.19Y-144.65
X119.178Y-164.847
X125.81Y-93.65
X125.81Y-110.65
X125.81Y-127.65
X125.81Y-144.65
X126.538Y-166.819
X136.19Y-95.35
X136.19Y-112.35
X136.19Y-129.35
X136.19Y-146.35
X137.131Y-171.207
X143.73Y-175.017
X143.81Y-95.35
X143.81Y-112.35
X143.81Y-129.35
X143.81Y-146.35
X152.827Y-181.997
X158.215Y-187.385
T7
X155.38Y-102.65
X155.38Y-105.19
X155.38Y-107.73
X155.38Y-110.27
X155.38Y-112.81
X155.38Y-115.35
X155.38Y-117.89
X155.38Y-120.43
X155.38Y-122.97
X155.38Y-125.51
X155.38Y-128.05
X155.38Y-130.59
X170.62Y-102.65
X170.62Y-105.19
X170.62Y-107.73
X170.62Y-110.27
X170.62Y-112.81
X170.62Y-115.35
X170.62Y-117.89
X170.62Y-120.43
X170.62Y-122.97
X170.62Y-125.51
X170.62Y-128.05
X170.62Y-130.59
X171.0Y-159.1
X171.0Y-165.6
T5
X163.1Y-150.05G85X161.4Y-150.05
G05
X163.1Y-154.65G85X161.4Y-154.65
G05
X167.1Y-150.05G85X166.5Y-150.05
G05
X167.1Y-154.65G85X166.5Y-154.65
G05
X170.1Y-150.05G85X169.5Y-150.05
G05
X170.1Y-154.65G85X169.5Y-154.65
G05
M30
