G04 #@! TF.GenerationSoftware,KiCad,Pcbnew,8.0.8+1*
G04 #@! TF.CreationDate,2025-04-03T17:45:40+00:00*
G04 #@! TF.ProjectId,board,626f6172-642e-46b6-9963-61645f706362,0.1*
G04 #@! TF.SameCoordinates,Original*
G04 #@! TF.FileFunction,Legend,Top*
G04 #@! TF.FilePolarity,Positive*
%FSLAX46Y46*%
G04 Gerber Fmt 4.6, Leading zero omitted, Abs format (unit mm)*
G04 Created by KiCad (PCBNEW 8.0.8+1) date 2025-04-03 17:45:40*
%MOMM*%
%LPD*%
G01*
G04 APERTURE LIST*
%ADD10C,0.150000*%
%ADD11C,0.100000*%
%ADD12C,0.120000*%
%ADD13C,2.005000*%
%ADD14C,1.800000*%
%ADD15C,1.000000*%
%ADD16C,1.600000*%
%ADD17O,2.300000X1.700000*%
%ADD18O,3.400000X1.700000*%
%ADD19O,1.300000X1.850000*%
%ADD20C,0.900000*%
%ADD21C,2.000000*%
%ADD22C,3.100000*%
%ADD23C,3.500000*%
G04 APERTURE END LIST*
D10*
X79928572Y-149649847D02*
X79928572Y-148983180D01*
X79928572Y-149078418D02*
X79976191Y-149030799D01*
X79976191Y-149030799D02*
X80071429Y-148983180D01*
X80071429Y-148983180D02*
X80214286Y-148983180D01*
X80214286Y-148983180D02*
X80309524Y-149030799D01*
X80309524Y-149030799D02*
X80357143Y-149126037D01*
X80357143Y-149126037D02*
X80357143Y-149649847D01*
X80357143Y-149126037D02*
X80404762Y-149030799D01*
X80404762Y-149030799D02*
X80500000Y-148983180D01*
X80500000Y-148983180D02*
X80642857Y-148983180D01*
X80642857Y-148983180D02*
X80738096Y-149030799D01*
X80738096Y-149030799D02*
X80785715Y-149126037D01*
X80785715Y-149126037D02*
X80785715Y-149649847D01*
X81261905Y-149649847D02*
X81261905Y-148983180D01*
X81261905Y-148649847D02*
X81214286Y-148697466D01*
X81214286Y-148697466D02*
X81261905Y-148745085D01*
X81261905Y-148745085D02*
X81309524Y-148697466D01*
X81309524Y-148697466D02*
X81261905Y-148649847D01*
X81261905Y-148649847D02*
X81261905Y-148745085D01*
X81738095Y-149649847D02*
X81738095Y-148983180D01*
X81738095Y-149078418D02*
X81785714Y-149030799D01*
X81785714Y-149030799D02*
X81880952Y-148983180D01*
X81880952Y-148983180D02*
X82023809Y-148983180D01*
X82023809Y-148983180D02*
X82119047Y-149030799D01*
X82119047Y-149030799D02*
X82166666Y-149126037D01*
X82166666Y-149126037D02*
X82166666Y-149649847D01*
X82166666Y-149126037D02*
X82214285Y-149030799D01*
X82214285Y-149030799D02*
X82309523Y-148983180D01*
X82309523Y-148983180D02*
X82452380Y-148983180D01*
X82452380Y-148983180D02*
X82547619Y-149030799D01*
X82547619Y-149030799D02*
X82595238Y-149126037D01*
X82595238Y-149126037D02*
X82595238Y-149649847D01*
X83071428Y-149649847D02*
X83071428Y-148983180D01*
X83071428Y-148649847D02*
X83023809Y-148697466D01*
X83023809Y-148697466D02*
X83071428Y-148745085D01*
X83071428Y-148745085D02*
X83119047Y-148697466D01*
X83119047Y-148697466D02*
X83071428Y-148649847D01*
X83071428Y-148649847D02*
X83071428Y-148745085D01*
X79000000Y-151259791D02*
X79000000Y-150259791D01*
X79000000Y-150640743D02*
X79095238Y-150593124D01*
X79095238Y-150593124D02*
X79285714Y-150593124D01*
X79285714Y-150593124D02*
X79380952Y-150640743D01*
X79380952Y-150640743D02*
X79428571Y-150688362D01*
X79428571Y-150688362D02*
X79476190Y-150783600D01*
X79476190Y-150783600D02*
X79476190Y-151069314D01*
X79476190Y-151069314D02*
X79428571Y-151164552D01*
X79428571Y-151164552D02*
X79380952Y-151212172D01*
X79380952Y-151212172D02*
X79285714Y-151259791D01*
X79285714Y-151259791D02*
X79095238Y-151259791D01*
X79095238Y-151259791D02*
X79000000Y-151212172D01*
X79809524Y-150593124D02*
X80047619Y-151259791D01*
X80285714Y-150593124D02*
X80047619Y-151259791D01*
X80047619Y-151259791D02*
X79952381Y-151497886D01*
X79952381Y-151497886D02*
X79904762Y-151545505D01*
X79904762Y-151545505D02*
X79809524Y-151593124D01*
X81428572Y-151259791D02*
X81428572Y-150593124D01*
X81428572Y-150688362D02*
X81476191Y-150640743D01*
X81476191Y-150640743D02*
X81571429Y-150593124D01*
X81571429Y-150593124D02*
X81714286Y-150593124D01*
X81714286Y-150593124D02*
X81809524Y-150640743D01*
X81809524Y-150640743D02*
X81857143Y-150735981D01*
X81857143Y-150735981D02*
X81857143Y-151259791D01*
X81857143Y-150735981D02*
X81904762Y-150640743D01*
X81904762Y-150640743D02*
X82000000Y-150593124D01*
X82000000Y-150593124D02*
X82142857Y-150593124D01*
X82142857Y-150593124D02*
X82238096Y-150640743D01*
X82238096Y-150640743D02*
X82285715Y-150735981D01*
X82285715Y-150735981D02*
X82285715Y-151259791D01*
X83190476Y-151259791D02*
X83190476Y-150259791D01*
X83190476Y-151212172D02*
X83095238Y-151259791D01*
X83095238Y-151259791D02*
X82904762Y-151259791D01*
X82904762Y-151259791D02*
X82809524Y-151212172D01*
X82809524Y-151212172D02*
X82761905Y-151164552D01*
X82761905Y-151164552D02*
X82714286Y-151069314D01*
X82714286Y-151069314D02*
X82714286Y-150783600D01*
X82714286Y-150783600D02*
X82761905Y-150688362D01*
X82761905Y-150688362D02*
X82809524Y-150640743D01*
X82809524Y-150640743D02*
X82904762Y-150593124D01*
X82904762Y-150593124D02*
X83095238Y-150593124D01*
X83095238Y-150593124D02*
X83190476Y-150640743D01*
X83666667Y-151259791D02*
X83666667Y-150259791D01*
X83761905Y-150878838D02*
X84047619Y-151259791D01*
X84047619Y-150593124D02*
X83666667Y-150974076D01*
X104622493Y-146904819D02*
X104622493Y-147619104D01*
X104622493Y-147619104D02*
X104574874Y-147761961D01*
X104574874Y-147761961D02*
X104479636Y-147857200D01*
X104479636Y-147857200D02*
X104336779Y-147904819D01*
X104336779Y-147904819D02*
X104241541Y-147904819D01*
X105574874Y-147904819D02*
X105098684Y-147904819D01*
X105098684Y-147904819D02*
X105098684Y-146904819D01*
X106479636Y-147809580D02*
X106432017Y-147857200D01*
X106432017Y-147857200D02*
X106289160Y-147904819D01*
X106289160Y-147904819D02*
X106193922Y-147904819D01*
X106193922Y-147904819D02*
X106051065Y-147857200D01*
X106051065Y-147857200D02*
X105955827Y-147761961D01*
X105955827Y-147761961D02*
X105908208Y-147666723D01*
X105908208Y-147666723D02*
X105860589Y-147476247D01*
X105860589Y-147476247D02*
X105860589Y-147333390D01*
X105860589Y-147333390D02*
X105908208Y-147142914D01*
X105908208Y-147142914D02*
X105955827Y-147047676D01*
X105955827Y-147047676D02*
X106051065Y-146952438D01*
X106051065Y-146952438D02*
X106193922Y-146904819D01*
X106193922Y-146904819D02*
X106289160Y-146904819D01*
X106289160Y-146904819D02*
X106432017Y-146952438D01*
X106432017Y-146952438D02*
X106479636Y-147000057D01*
X107193922Y-146904819D02*
X107193922Y-147619104D01*
X107193922Y-147619104D02*
X107146303Y-147761961D01*
X107146303Y-147761961D02*
X107051065Y-147857200D01*
X107051065Y-147857200D02*
X106908208Y-147904819D01*
X106908208Y-147904819D02*
X106812970Y-147904819D01*
X108146303Y-147904819D02*
X107670113Y-147904819D01*
X107670113Y-147904819D02*
X107670113Y-146904819D01*
X109051065Y-147809580D02*
X109003446Y-147857200D01*
X109003446Y-147857200D02*
X108860589Y-147904819D01*
X108860589Y-147904819D02*
X108765351Y-147904819D01*
X108765351Y-147904819D02*
X108622494Y-147857200D01*
X108622494Y-147857200D02*
X108527256Y-147761961D01*
X108527256Y-147761961D02*
X108479637Y-147666723D01*
X108479637Y-147666723D02*
X108432018Y-147476247D01*
X108432018Y-147476247D02*
X108432018Y-147333390D01*
X108432018Y-147333390D02*
X108479637Y-147142914D01*
X108479637Y-147142914D02*
X108527256Y-147047676D01*
X108527256Y-147047676D02*
X108622494Y-146952438D01*
X108622494Y-146952438D02*
X108765351Y-146904819D01*
X108765351Y-146904819D02*
X108860589Y-146904819D01*
X108860589Y-146904819D02*
X109003446Y-146952438D01*
X109003446Y-146952438D02*
X109051065Y-147000057D01*
X109765351Y-146904819D02*
X109765351Y-147619104D01*
X109765351Y-147619104D02*
X109717732Y-147761961D01*
X109717732Y-147761961D02*
X109622494Y-147857200D01*
X109622494Y-147857200D02*
X109479637Y-147904819D01*
X109479637Y-147904819D02*
X109384399Y-147904819D01*
X110717732Y-147904819D02*
X110241542Y-147904819D01*
X110241542Y-147904819D02*
X110241542Y-146904819D01*
X111622494Y-147809580D02*
X111574875Y-147857200D01*
X111574875Y-147857200D02*
X111432018Y-147904819D01*
X111432018Y-147904819D02*
X111336780Y-147904819D01*
X111336780Y-147904819D02*
X111193923Y-147857200D01*
X111193923Y-147857200D02*
X111098685Y-147761961D01*
X111098685Y-147761961D02*
X111051066Y-147666723D01*
X111051066Y-147666723D02*
X111003447Y-147476247D01*
X111003447Y-147476247D02*
X111003447Y-147333390D01*
X111003447Y-147333390D02*
X111051066Y-147142914D01*
X111051066Y-147142914D02*
X111098685Y-147047676D01*
X111098685Y-147047676D02*
X111193923Y-146952438D01*
X111193923Y-146952438D02*
X111336780Y-146904819D01*
X111336780Y-146904819D02*
X111432018Y-146904819D01*
X111432018Y-146904819D02*
X111574875Y-146952438D01*
X111574875Y-146952438D02*
X111622494Y-147000057D01*
X112336780Y-146904819D02*
X112336780Y-147619104D01*
X112336780Y-147619104D02*
X112289161Y-147761961D01*
X112289161Y-147761961D02*
X112193923Y-147857200D01*
X112193923Y-147857200D02*
X112051066Y-147904819D01*
X112051066Y-147904819D02*
X111955828Y-147904819D01*
X113289161Y-147904819D02*
X112812971Y-147904819D01*
X112812971Y-147904819D02*
X112812971Y-146904819D01*
X114193923Y-147809580D02*
X114146304Y-147857200D01*
X114146304Y-147857200D02*
X114003447Y-147904819D01*
X114003447Y-147904819D02*
X113908209Y-147904819D01*
X113908209Y-147904819D02*
X113765352Y-147857200D01*
X113765352Y-147857200D02*
X113670114Y-147761961D01*
X113670114Y-147761961D02*
X113622495Y-147666723D01*
X113622495Y-147666723D02*
X113574876Y-147476247D01*
X113574876Y-147476247D02*
X113574876Y-147333390D01*
X113574876Y-147333390D02*
X113622495Y-147142914D01*
X113622495Y-147142914D02*
X113670114Y-147047676D01*
X113670114Y-147047676D02*
X113765352Y-146952438D01*
X113765352Y-146952438D02*
X113908209Y-146904819D01*
X113908209Y-146904819D02*
X114003447Y-146904819D01*
X114003447Y-146904819D02*
X114146304Y-146952438D01*
X114146304Y-146952438D02*
X114193923Y-147000057D01*
X171454819Y-162897619D02*
X170978628Y-163230952D01*
X171454819Y-163469047D02*
X170454819Y-163469047D01*
X170454819Y-163469047D02*
X170454819Y-163088095D01*
X170454819Y-163088095D02*
X170502438Y-162992857D01*
X170502438Y-162992857D02*
X170550057Y-162945238D01*
X170550057Y-162945238D02*
X170645295Y-162897619D01*
X170645295Y-162897619D02*
X170788152Y-162897619D01*
X170788152Y-162897619D02*
X170883390Y-162945238D01*
X170883390Y-162945238D02*
X170931009Y-162992857D01*
X170931009Y-162992857D02*
X170978628Y-163088095D01*
X170978628Y-163088095D02*
X170978628Y-163469047D01*
X171407200Y-162516666D02*
X171454819Y-162373809D01*
X171454819Y-162373809D02*
X171454819Y-162135714D01*
X171454819Y-162135714D02*
X171407200Y-162040476D01*
X171407200Y-162040476D02*
X171359580Y-161992857D01*
X171359580Y-161992857D02*
X171264342Y-161945238D01*
X171264342Y-161945238D02*
X171169104Y-161945238D01*
X171169104Y-161945238D02*
X171073866Y-161992857D01*
X171073866Y-161992857D02*
X171026247Y-162040476D01*
X171026247Y-162040476D02*
X170978628Y-162135714D01*
X170978628Y-162135714D02*
X170931009Y-162326190D01*
X170931009Y-162326190D02*
X170883390Y-162421428D01*
X170883390Y-162421428D02*
X170835771Y-162469047D01*
X170835771Y-162469047D02*
X170740533Y-162516666D01*
X170740533Y-162516666D02*
X170645295Y-162516666D01*
X170645295Y-162516666D02*
X170550057Y-162469047D01*
X170550057Y-162469047D02*
X170502438Y-162421428D01*
X170502438Y-162421428D02*
X170454819Y-162326190D01*
X170454819Y-162326190D02*
X170454819Y-162088095D01*
X170454819Y-162088095D02*
X170502438Y-161945238D01*
X170454819Y-161659523D02*
X170454819Y-161088095D01*
X171454819Y-161373809D02*
X170454819Y-161373809D01*
X169047619Y-144804819D02*
X169238095Y-144804819D01*
X169238095Y-144804819D02*
X169333333Y-144852438D01*
X169333333Y-144852438D02*
X169428571Y-144947676D01*
X169428571Y-144947676D02*
X169476190Y-145138152D01*
X169476190Y-145138152D02*
X169476190Y-145471485D01*
X169476190Y-145471485D02*
X169428571Y-145661961D01*
X169428571Y-145661961D02*
X169333333Y-145757200D01*
X169333333Y-145757200D02*
X169238095Y-145804819D01*
X169238095Y-145804819D02*
X169047619Y-145804819D01*
X169047619Y-145804819D02*
X168952381Y-145757200D01*
X168952381Y-145757200D02*
X168857143Y-145661961D01*
X168857143Y-145661961D02*
X168809524Y-145471485D01*
X168809524Y-145471485D02*
X168809524Y-145138152D01*
X168809524Y-145138152D02*
X168857143Y-144947676D01*
X168857143Y-144947676D02*
X168952381Y-144852438D01*
X168952381Y-144852438D02*
X169047619Y-144804819D01*
X170238095Y-145281009D02*
X169904762Y-145281009D01*
X169904762Y-145804819D02*
X169904762Y-144804819D01*
X169904762Y-144804819D02*
X170380952Y-144804819D01*
X171095238Y-145281009D02*
X170761905Y-145281009D01*
X170761905Y-145804819D02*
X170761905Y-144804819D01*
X170761905Y-144804819D02*
X171238095Y-144804819D01*
X169380952Y-134804819D02*
X169571428Y-134804819D01*
X169571428Y-134804819D02*
X169666666Y-134852438D01*
X169666666Y-134852438D02*
X169761904Y-134947676D01*
X169761904Y-134947676D02*
X169809523Y-135138152D01*
X169809523Y-135138152D02*
X169809523Y-135471485D01*
X169809523Y-135471485D02*
X169761904Y-135661961D01*
X169761904Y-135661961D02*
X169666666Y-135757200D01*
X169666666Y-135757200D02*
X169571428Y-135804819D01*
X169571428Y-135804819D02*
X169380952Y-135804819D01*
X169380952Y-135804819D02*
X169285714Y-135757200D01*
X169285714Y-135757200D02*
X169190476Y-135661961D01*
X169190476Y-135661961D02*
X169142857Y-135471485D01*
X169142857Y-135471485D02*
X169142857Y-135138152D01*
X169142857Y-135138152D02*
X169190476Y-134947676D01*
X169190476Y-134947676D02*
X169285714Y-134852438D01*
X169285714Y-134852438D02*
X169380952Y-134804819D01*
X170238095Y-135804819D02*
X170238095Y-134804819D01*
X170238095Y-134804819D02*
X170809523Y-135804819D01*
X170809523Y-135804819D02*
X170809523Y-134804819D01*
X163235714Y-128504819D02*
X163235714Y-127504819D01*
X163235714Y-127504819D02*
X163616666Y-127504819D01*
X163616666Y-127504819D02*
X163711904Y-127552438D01*
X163711904Y-127552438D02*
X163759523Y-127600057D01*
X163759523Y-127600057D02*
X163807142Y-127695295D01*
X163807142Y-127695295D02*
X163807142Y-127838152D01*
X163807142Y-127838152D02*
X163759523Y-127933390D01*
X163759523Y-127933390D02*
X163711904Y-127981009D01*
X163711904Y-127981009D02*
X163616666Y-128028628D01*
X163616666Y-128028628D02*
X163235714Y-128028628D01*
X164759523Y-128504819D02*
X164188095Y-128504819D01*
X164473809Y-128504819D02*
X164473809Y-127504819D01*
X164473809Y-127504819D02*
X164378571Y-127647676D01*
X164378571Y-127647676D02*
X164283333Y-127742914D01*
X164283333Y-127742914D02*
X164188095Y-127790533D01*
X165616666Y-127504819D02*
X165426190Y-127504819D01*
X165426190Y-127504819D02*
X165330952Y-127552438D01*
X165330952Y-127552438D02*
X165283333Y-127600057D01*
X165283333Y-127600057D02*
X165188095Y-127742914D01*
X165188095Y-127742914D02*
X165140476Y-127933390D01*
X165140476Y-127933390D02*
X165140476Y-128314342D01*
X165140476Y-128314342D02*
X165188095Y-128409580D01*
X165188095Y-128409580D02*
X165235714Y-128457200D01*
X165235714Y-128457200D02*
X165330952Y-128504819D01*
X165330952Y-128504819D02*
X165521428Y-128504819D01*
X165521428Y-128504819D02*
X165616666Y-128457200D01*
X165616666Y-128457200D02*
X165664285Y-128409580D01*
X165664285Y-128409580D02*
X165711904Y-128314342D01*
X165711904Y-128314342D02*
X165711904Y-128076247D01*
X165711904Y-128076247D02*
X165664285Y-127981009D01*
X165664285Y-127981009D02*
X165616666Y-127933390D01*
X165616666Y-127933390D02*
X165521428Y-127885771D01*
X165521428Y-127885771D02*
X165330952Y-127885771D01*
X165330952Y-127885771D02*
X165235714Y-127933390D01*
X165235714Y-127933390D02*
X165188095Y-127981009D01*
X165188095Y-127981009D02*
X165140476Y-128076247D01*
X163235714Y-113264819D02*
X163235714Y-112264819D01*
X163235714Y-112264819D02*
X163616666Y-112264819D01*
X163616666Y-112264819D02*
X163711904Y-112312438D01*
X163711904Y-112312438D02*
X163759523Y-112360057D01*
X163759523Y-112360057D02*
X163807142Y-112455295D01*
X163807142Y-112455295D02*
X163807142Y-112598152D01*
X163807142Y-112598152D02*
X163759523Y-112693390D01*
X163759523Y-112693390D02*
X163711904Y-112741009D01*
X163711904Y-112741009D02*
X163616666Y-112788628D01*
X163616666Y-112788628D02*
X163235714Y-112788628D01*
X164188095Y-112360057D02*
X164235714Y-112312438D01*
X164235714Y-112312438D02*
X164330952Y-112264819D01*
X164330952Y-112264819D02*
X164569047Y-112264819D01*
X164569047Y-112264819D02*
X164664285Y-112312438D01*
X164664285Y-112312438D02*
X164711904Y-112360057D01*
X164711904Y-112360057D02*
X164759523Y-112455295D01*
X164759523Y-112455295D02*
X164759523Y-112550533D01*
X164759523Y-112550533D02*
X164711904Y-112693390D01*
X164711904Y-112693390D02*
X164140476Y-113264819D01*
X164140476Y-113264819D02*
X164759523Y-113264819D01*
X165711904Y-113264819D02*
X165140476Y-113264819D01*
X165426190Y-113264819D02*
X165426190Y-112264819D01*
X165426190Y-112264819D02*
X165330952Y-112407676D01*
X165330952Y-112407676D02*
X165235714Y-112502914D01*
X165235714Y-112502914D02*
X165140476Y-112550533D01*
X163235714Y-115804819D02*
X163235714Y-114804819D01*
X163235714Y-114804819D02*
X163616666Y-114804819D01*
X163616666Y-114804819D02*
X163711904Y-114852438D01*
X163711904Y-114852438D02*
X163759523Y-114900057D01*
X163759523Y-114900057D02*
X163807142Y-114995295D01*
X163807142Y-114995295D02*
X163807142Y-115138152D01*
X163807142Y-115138152D02*
X163759523Y-115233390D01*
X163759523Y-115233390D02*
X163711904Y-115281009D01*
X163711904Y-115281009D02*
X163616666Y-115328628D01*
X163616666Y-115328628D02*
X163235714Y-115328628D01*
X164188095Y-114900057D02*
X164235714Y-114852438D01*
X164235714Y-114852438D02*
X164330952Y-114804819D01*
X164330952Y-114804819D02*
X164569047Y-114804819D01*
X164569047Y-114804819D02*
X164664285Y-114852438D01*
X164664285Y-114852438D02*
X164711904Y-114900057D01*
X164711904Y-114900057D02*
X164759523Y-114995295D01*
X164759523Y-114995295D02*
X164759523Y-115090533D01*
X164759523Y-115090533D02*
X164711904Y-115233390D01*
X164711904Y-115233390D02*
X164140476Y-115804819D01*
X164140476Y-115804819D02*
X164759523Y-115804819D01*
X165378571Y-114804819D02*
X165473809Y-114804819D01*
X165473809Y-114804819D02*
X165569047Y-114852438D01*
X165569047Y-114852438D02*
X165616666Y-114900057D01*
X165616666Y-114900057D02*
X165664285Y-114995295D01*
X165664285Y-114995295D02*
X165711904Y-115185771D01*
X165711904Y-115185771D02*
X165711904Y-115423866D01*
X165711904Y-115423866D02*
X165664285Y-115614342D01*
X165664285Y-115614342D02*
X165616666Y-115709580D01*
X165616666Y-115709580D02*
X165569047Y-115757200D01*
X165569047Y-115757200D02*
X165473809Y-115804819D01*
X165473809Y-115804819D02*
X165378571Y-115804819D01*
X165378571Y-115804819D02*
X165283333Y-115757200D01*
X165283333Y-115757200D02*
X165235714Y-115709580D01*
X165235714Y-115709580D02*
X165188095Y-115614342D01*
X165188095Y-115614342D02*
X165140476Y-115423866D01*
X165140476Y-115423866D02*
X165140476Y-115185771D01*
X165140476Y-115185771D02*
X165188095Y-114995295D01*
X165188095Y-114995295D02*
X165235714Y-114900057D01*
X165235714Y-114900057D02*
X165283333Y-114852438D01*
X165283333Y-114852438D02*
X165378571Y-114804819D01*
X160221905Y-105644819D02*
X160221905Y-104644819D01*
X160221905Y-104644819D02*
X160602857Y-104644819D01*
X160602857Y-104644819D02*
X160698095Y-104692438D01*
X160698095Y-104692438D02*
X160745714Y-104740057D01*
X160745714Y-104740057D02*
X160793333Y-104835295D01*
X160793333Y-104835295D02*
X160793333Y-104978152D01*
X160793333Y-104978152D02*
X160745714Y-105073390D01*
X160745714Y-105073390D02*
X160698095Y-105121009D01*
X160698095Y-105121009D02*
X160602857Y-105168628D01*
X160602857Y-105168628D02*
X160221905Y-105168628D01*
X161412381Y-104644819D02*
X161507619Y-104644819D01*
X161507619Y-104644819D02*
X161602857Y-104692438D01*
X161602857Y-104692438D02*
X161650476Y-104740057D01*
X161650476Y-104740057D02*
X161698095Y-104835295D01*
X161698095Y-104835295D02*
X161745714Y-105025771D01*
X161745714Y-105025771D02*
X161745714Y-105263866D01*
X161745714Y-105263866D02*
X161698095Y-105454342D01*
X161698095Y-105454342D02*
X161650476Y-105549580D01*
X161650476Y-105549580D02*
X161602857Y-105597200D01*
X161602857Y-105597200D02*
X161507619Y-105644819D01*
X161507619Y-105644819D02*
X161412381Y-105644819D01*
X161412381Y-105644819D02*
X161317143Y-105597200D01*
X161317143Y-105597200D02*
X161269524Y-105549580D01*
X161269524Y-105549580D02*
X161221905Y-105454342D01*
X161221905Y-105454342D02*
X161174286Y-105263866D01*
X161174286Y-105263866D02*
X161174286Y-105025771D01*
X161174286Y-105025771D02*
X161221905Y-104835295D01*
X161221905Y-104835295D02*
X161269524Y-104740057D01*
X161269524Y-104740057D02*
X161317143Y-104692438D01*
X161317143Y-104692438D02*
X161412381Y-104644819D01*
X163116667Y-109724819D02*
X163450000Y-110724819D01*
X163450000Y-110724819D02*
X163783333Y-109724819D01*
X164688095Y-110629580D02*
X164640476Y-110677200D01*
X164640476Y-110677200D02*
X164497619Y-110724819D01*
X164497619Y-110724819D02*
X164402381Y-110724819D01*
X164402381Y-110724819D02*
X164259524Y-110677200D01*
X164259524Y-110677200D02*
X164164286Y-110581961D01*
X164164286Y-110581961D02*
X164116667Y-110486723D01*
X164116667Y-110486723D02*
X164069048Y-110296247D01*
X164069048Y-110296247D02*
X164069048Y-110153390D01*
X164069048Y-110153390D02*
X164116667Y-109962914D01*
X164116667Y-109962914D02*
X164164286Y-109867676D01*
X164164286Y-109867676D02*
X164259524Y-109772438D01*
X164259524Y-109772438D02*
X164402381Y-109724819D01*
X164402381Y-109724819D02*
X164497619Y-109724819D01*
X164497619Y-109724819D02*
X164640476Y-109772438D01*
X164640476Y-109772438D02*
X164688095Y-109820057D01*
X165688095Y-110629580D02*
X165640476Y-110677200D01*
X165640476Y-110677200D02*
X165497619Y-110724819D01*
X165497619Y-110724819D02*
X165402381Y-110724819D01*
X165402381Y-110724819D02*
X165259524Y-110677200D01*
X165259524Y-110677200D02*
X165164286Y-110581961D01*
X165164286Y-110581961D02*
X165116667Y-110486723D01*
X165116667Y-110486723D02*
X165069048Y-110296247D01*
X165069048Y-110296247D02*
X165069048Y-110153390D01*
X165069048Y-110153390D02*
X165116667Y-109962914D01*
X165116667Y-109962914D02*
X165164286Y-109867676D01*
X165164286Y-109867676D02*
X165259524Y-109772438D01*
X165259524Y-109772438D02*
X165402381Y-109724819D01*
X165402381Y-109724819D02*
X165497619Y-109724819D01*
X165497619Y-109724819D02*
X165640476Y-109772438D01*
X165640476Y-109772438D02*
X165688095Y-109820057D01*
X163235714Y-118344819D02*
X163235714Y-117344819D01*
X163235714Y-117344819D02*
X163616666Y-117344819D01*
X163616666Y-117344819D02*
X163711904Y-117392438D01*
X163711904Y-117392438D02*
X163759523Y-117440057D01*
X163759523Y-117440057D02*
X163807142Y-117535295D01*
X163807142Y-117535295D02*
X163807142Y-117678152D01*
X163807142Y-117678152D02*
X163759523Y-117773390D01*
X163759523Y-117773390D02*
X163711904Y-117821009D01*
X163711904Y-117821009D02*
X163616666Y-117868628D01*
X163616666Y-117868628D02*
X163235714Y-117868628D01*
X164759523Y-118344819D02*
X164188095Y-118344819D01*
X164473809Y-118344819D02*
X164473809Y-117344819D01*
X164473809Y-117344819D02*
X164378571Y-117487676D01*
X164378571Y-117487676D02*
X164283333Y-117582914D01*
X164283333Y-117582914D02*
X164188095Y-117630533D01*
X165235714Y-118344819D02*
X165426190Y-118344819D01*
X165426190Y-118344819D02*
X165521428Y-118297200D01*
X165521428Y-118297200D02*
X165569047Y-118249580D01*
X165569047Y-118249580D02*
X165664285Y-118106723D01*
X165664285Y-118106723D02*
X165711904Y-117916247D01*
X165711904Y-117916247D02*
X165711904Y-117535295D01*
X165711904Y-117535295D02*
X165664285Y-117440057D01*
X165664285Y-117440057D02*
X165616666Y-117392438D01*
X165616666Y-117392438D02*
X165521428Y-117344819D01*
X165521428Y-117344819D02*
X165330952Y-117344819D01*
X165330952Y-117344819D02*
X165235714Y-117392438D01*
X165235714Y-117392438D02*
X165188095Y-117440057D01*
X165188095Y-117440057D02*
X165140476Y-117535295D01*
X165140476Y-117535295D02*
X165140476Y-117773390D01*
X165140476Y-117773390D02*
X165188095Y-117868628D01*
X165188095Y-117868628D02*
X165235714Y-117916247D01*
X165235714Y-117916247D02*
X165330952Y-117963866D01*
X165330952Y-117963866D02*
X165521428Y-117963866D01*
X165521428Y-117963866D02*
X165616666Y-117916247D01*
X165616666Y-117916247D02*
X165664285Y-117868628D01*
X165664285Y-117868628D02*
X165711904Y-117773390D01*
X163759523Y-103104819D02*
X163426190Y-102628628D01*
X163188095Y-103104819D02*
X163188095Y-102104819D01*
X163188095Y-102104819D02*
X163569047Y-102104819D01*
X163569047Y-102104819D02*
X163664285Y-102152438D01*
X163664285Y-102152438D02*
X163711904Y-102200057D01*
X163711904Y-102200057D02*
X163759523Y-102295295D01*
X163759523Y-102295295D02*
X163759523Y-102438152D01*
X163759523Y-102438152D02*
X163711904Y-102533390D01*
X163711904Y-102533390D02*
X163664285Y-102581009D01*
X163664285Y-102581009D02*
X163569047Y-102628628D01*
X163569047Y-102628628D02*
X163188095Y-102628628D01*
X164140476Y-102819104D02*
X164616666Y-102819104D01*
X164045238Y-103104819D02*
X164378571Y-102104819D01*
X164378571Y-102104819D02*
X164711904Y-103104819D01*
X164950000Y-102104819D02*
X165188095Y-103104819D01*
X165188095Y-103104819D02*
X165378571Y-102390533D01*
X165378571Y-102390533D02*
X165569047Y-103104819D01*
X165569047Y-103104819D02*
X165807143Y-102104819D01*
X163235714Y-123424819D02*
X163235714Y-122424819D01*
X163235714Y-122424819D02*
X163616666Y-122424819D01*
X163616666Y-122424819D02*
X163711904Y-122472438D01*
X163711904Y-122472438D02*
X163759523Y-122520057D01*
X163759523Y-122520057D02*
X163807142Y-122615295D01*
X163807142Y-122615295D02*
X163807142Y-122758152D01*
X163807142Y-122758152D02*
X163759523Y-122853390D01*
X163759523Y-122853390D02*
X163711904Y-122901009D01*
X163711904Y-122901009D02*
X163616666Y-122948628D01*
X163616666Y-122948628D02*
X163235714Y-122948628D01*
X164759523Y-123424819D02*
X164188095Y-123424819D01*
X164473809Y-123424819D02*
X164473809Y-122424819D01*
X164473809Y-122424819D02*
X164378571Y-122567676D01*
X164378571Y-122567676D02*
X164283333Y-122662914D01*
X164283333Y-122662914D02*
X164188095Y-122710533D01*
X165664285Y-122424819D02*
X165188095Y-122424819D01*
X165188095Y-122424819D02*
X165140476Y-122901009D01*
X165140476Y-122901009D02*
X165188095Y-122853390D01*
X165188095Y-122853390D02*
X165283333Y-122805771D01*
X165283333Y-122805771D02*
X165521428Y-122805771D01*
X165521428Y-122805771D02*
X165616666Y-122853390D01*
X165616666Y-122853390D02*
X165664285Y-122901009D01*
X165664285Y-122901009D02*
X165711904Y-122996247D01*
X165711904Y-122996247D02*
X165711904Y-123234342D01*
X165711904Y-123234342D02*
X165664285Y-123329580D01*
X165664285Y-123329580D02*
X165616666Y-123377200D01*
X165616666Y-123377200D02*
X165521428Y-123424819D01*
X165521428Y-123424819D02*
X165283333Y-123424819D01*
X165283333Y-123424819D02*
X165188095Y-123377200D01*
X165188095Y-123377200D02*
X165140476Y-123329580D01*
X160221905Y-113264819D02*
X160221905Y-112264819D01*
X160221905Y-112264819D02*
X160602857Y-112264819D01*
X160602857Y-112264819D02*
X160698095Y-112312438D01*
X160698095Y-112312438D02*
X160745714Y-112360057D01*
X160745714Y-112360057D02*
X160793333Y-112455295D01*
X160793333Y-112455295D02*
X160793333Y-112598152D01*
X160793333Y-112598152D02*
X160745714Y-112693390D01*
X160745714Y-112693390D02*
X160698095Y-112741009D01*
X160698095Y-112741009D02*
X160602857Y-112788628D01*
X160602857Y-112788628D02*
X160221905Y-112788628D01*
X161174286Y-112360057D02*
X161221905Y-112312438D01*
X161221905Y-112312438D02*
X161317143Y-112264819D01*
X161317143Y-112264819D02*
X161555238Y-112264819D01*
X161555238Y-112264819D02*
X161650476Y-112312438D01*
X161650476Y-112312438D02*
X161698095Y-112360057D01*
X161698095Y-112360057D02*
X161745714Y-112455295D01*
X161745714Y-112455295D02*
X161745714Y-112550533D01*
X161745714Y-112550533D02*
X161698095Y-112693390D01*
X161698095Y-112693390D02*
X161126667Y-113264819D01*
X161126667Y-113264819D02*
X161745714Y-113264819D01*
X160788095Y-107232438D02*
X160692857Y-107184819D01*
X160692857Y-107184819D02*
X160550000Y-107184819D01*
X160550000Y-107184819D02*
X160407143Y-107232438D01*
X160407143Y-107232438D02*
X160311905Y-107327676D01*
X160311905Y-107327676D02*
X160264286Y-107422914D01*
X160264286Y-107422914D02*
X160216667Y-107613390D01*
X160216667Y-107613390D02*
X160216667Y-107756247D01*
X160216667Y-107756247D02*
X160264286Y-107946723D01*
X160264286Y-107946723D02*
X160311905Y-108041961D01*
X160311905Y-108041961D02*
X160407143Y-108137200D01*
X160407143Y-108137200D02*
X160550000Y-108184819D01*
X160550000Y-108184819D02*
X160645238Y-108184819D01*
X160645238Y-108184819D02*
X160788095Y-108137200D01*
X160788095Y-108137200D02*
X160835714Y-108089580D01*
X160835714Y-108089580D02*
X160835714Y-107756247D01*
X160835714Y-107756247D02*
X160645238Y-107756247D01*
X161264286Y-108184819D02*
X161264286Y-107184819D01*
X161264286Y-107184819D02*
X161835714Y-108184819D01*
X161835714Y-108184819D02*
X161835714Y-107184819D01*
X162311905Y-108184819D02*
X162311905Y-107184819D01*
X162311905Y-107184819D02*
X162550000Y-107184819D01*
X162550000Y-107184819D02*
X162692857Y-107232438D01*
X162692857Y-107232438D02*
X162788095Y-107327676D01*
X162788095Y-107327676D02*
X162835714Y-107422914D01*
X162835714Y-107422914D02*
X162883333Y-107613390D01*
X162883333Y-107613390D02*
X162883333Y-107756247D01*
X162883333Y-107756247D02*
X162835714Y-107946723D01*
X162835714Y-107946723D02*
X162788095Y-108041961D01*
X162788095Y-108041961D02*
X162692857Y-108137200D01*
X162692857Y-108137200D02*
X162550000Y-108184819D01*
X162550000Y-108184819D02*
X162311905Y-108184819D01*
X163235714Y-120884819D02*
X163235714Y-119884819D01*
X163235714Y-119884819D02*
X163616666Y-119884819D01*
X163616666Y-119884819D02*
X163711904Y-119932438D01*
X163711904Y-119932438D02*
X163759523Y-119980057D01*
X163759523Y-119980057D02*
X163807142Y-120075295D01*
X163807142Y-120075295D02*
X163807142Y-120218152D01*
X163807142Y-120218152D02*
X163759523Y-120313390D01*
X163759523Y-120313390D02*
X163711904Y-120361009D01*
X163711904Y-120361009D02*
X163616666Y-120408628D01*
X163616666Y-120408628D02*
X163235714Y-120408628D01*
X164759523Y-120884819D02*
X164188095Y-120884819D01*
X164473809Y-120884819D02*
X164473809Y-119884819D01*
X164473809Y-119884819D02*
X164378571Y-120027676D01*
X164378571Y-120027676D02*
X164283333Y-120122914D01*
X164283333Y-120122914D02*
X164188095Y-120170533D01*
X165330952Y-120313390D02*
X165235714Y-120265771D01*
X165235714Y-120265771D02*
X165188095Y-120218152D01*
X165188095Y-120218152D02*
X165140476Y-120122914D01*
X165140476Y-120122914D02*
X165140476Y-120075295D01*
X165140476Y-120075295D02*
X165188095Y-119980057D01*
X165188095Y-119980057D02*
X165235714Y-119932438D01*
X165235714Y-119932438D02*
X165330952Y-119884819D01*
X165330952Y-119884819D02*
X165521428Y-119884819D01*
X165521428Y-119884819D02*
X165616666Y-119932438D01*
X165616666Y-119932438D02*
X165664285Y-119980057D01*
X165664285Y-119980057D02*
X165711904Y-120075295D01*
X165711904Y-120075295D02*
X165711904Y-120122914D01*
X165711904Y-120122914D02*
X165664285Y-120218152D01*
X165664285Y-120218152D02*
X165616666Y-120265771D01*
X165616666Y-120265771D02*
X165521428Y-120313390D01*
X165521428Y-120313390D02*
X165330952Y-120313390D01*
X165330952Y-120313390D02*
X165235714Y-120361009D01*
X165235714Y-120361009D02*
X165188095Y-120408628D01*
X165188095Y-120408628D02*
X165140476Y-120503866D01*
X165140476Y-120503866D02*
X165140476Y-120694342D01*
X165140476Y-120694342D02*
X165188095Y-120789580D01*
X165188095Y-120789580D02*
X165235714Y-120837200D01*
X165235714Y-120837200D02*
X165330952Y-120884819D01*
X165330952Y-120884819D02*
X165521428Y-120884819D01*
X165521428Y-120884819D02*
X165616666Y-120837200D01*
X165616666Y-120837200D02*
X165664285Y-120789580D01*
X165664285Y-120789580D02*
X165711904Y-120694342D01*
X165711904Y-120694342D02*
X165711904Y-120503866D01*
X165711904Y-120503866D02*
X165664285Y-120408628D01*
X165664285Y-120408628D02*
X165616666Y-120361009D01*
X165616666Y-120361009D02*
X165521428Y-120313390D01*
X160788095Y-109772438D02*
X160692857Y-109724819D01*
X160692857Y-109724819D02*
X160550000Y-109724819D01*
X160550000Y-109724819D02*
X160407143Y-109772438D01*
X160407143Y-109772438D02*
X160311905Y-109867676D01*
X160311905Y-109867676D02*
X160264286Y-109962914D01*
X160264286Y-109962914D02*
X160216667Y-110153390D01*
X160216667Y-110153390D02*
X160216667Y-110296247D01*
X160216667Y-110296247D02*
X160264286Y-110486723D01*
X160264286Y-110486723D02*
X160311905Y-110581961D01*
X160311905Y-110581961D02*
X160407143Y-110677200D01*
X160407143Y-110677200D02*
X160550000Y-110724819D01*
X160550000Y-110724819D02*
X160645238Y-110724819D01*
X160645238Y-110724819D02*
X160788095Y-110677200D01*
X160788095Y-110677200D02*
X160835714Y-110629580D01*
X160835714Y-110629580D02*
X160835714Y-110296247D01*
X160835714Y-110296247D02*
X160645238Y-110296247D01*
X161264286Y-110724819D02*
X161264286Y-109724819D01*
X161264286Y-109724819D02*
X161835714Y-110724819D01*
X161835714Y-110724819D02*
X161835714Y-109724819D01*
X162311905Y-110724819D02*
X162311905Y-109724819D01*
X162311905Y-109724819D02*
X162550000Y-109724819D01*
X162550000Y-109724819D02*
X162692857Y-109772438D01*
X162692857Y-109772438D02*
X162788095Y-109867676D01*
X162788095Y-109867676D02*
X162835714Y-109962914D01*
X162835714Y-109962914D02*
X162883333Y-110153390D01*
X162883333Y-110153390D02*
X162883333Y-110296247D01*
X162883333Y-110296247D02*
X162835714Y-110486723D01*
X162835714Y-110486723D02*
X162788095Y-110581961D01*
X162788095Y-110581961D02*
X162692857Y-110677200D01*
X162692857Y-110677200D02*
X162550000Y-110724819D01*
X162550000Y-110724819D02*
X162311905Y-110724819D01*
X160221905Y-125964819D02*
X160221905Y-124964819D01*
X160221905Y-124964819D02*
X160602857Y-124964819D01*
X160602857Y-124964819D02*
X160698095Y-125012438D01*
X160698095Y-125012438D02*
X160745714Y-125060057D01*
X160745714Y-125060057D02*
X160793333Y-125155295D01*
X160793333Y-125155295D02*
X160793333Y-125298152D01*
X160793333Y-125298152D02*
X160745714Y-125393390D01*
X160745714Y-125393390D02*
X160698095Y-125441009D01*
X160698095Y-125441009D02*
X160602857Y-125488628D01*
X160602857Y-125488628D02*
X160221905Y-125488628D01*
X161126667Y-124964819D02*
X161793333Y-124964819D01*
X161793333Y-124964819D02*
X161364762Y-125964819D01*
X154857141Y-100559819D02*
X154523808Y-100083628D01*
X154285713Y-100559819D02*
X154285713Y-99559819D01*
X154285713Y-99559819D02*
X154666665Y-99559819D01*
X154666665Y-99559819D02*
X154761903Y-99607438D01*
X154761903Y-99607438D02*
X154809522Y-99655057D01*
X154809522Y-99655057D02*
X154857141Y-99750295D01*
X154857141Y-99750295D02*
X154857141Y-99893152D01*
X154857141Y-99893152D02*
X154809522Y-99988390D01*
X154809522Y-99988390D02*
X154761903Y-100036009D01*
X154761903Y-100036009D02*
X154666665Y-100083628D01*
X154666665Y-100083628D02*
X154285713Y-100083628D01*
X156047618Y-100559819D02*
X156047618Y-99559819D01*
X156476189Y-100559819D02*
X156476189Y-100036009D01*
X156476189Y-100036009D02*
X156428570Y-99940771D01*
X156428570Y-99940771D02*
X156333332Y-99893152D01*
X156333332Y-99893152D02*
X156190475Y-99893152D01*
X156190475Y-99893152D02*
X156095237Y-99940771D01*
X156095237Y-99940771D02*
X156047618Y-99988390D01*
X157380951Y-100559819D02*
X157380951Y-100036009D01*
X157380951Y-100036009D02*
X157333332Y-99940771D01*
X157333332Y-99940771D02*
X157238094Y-99893152D01*
X157238094Y-99893152D02*
X157047618Y-99893152D01*
X157047618Y-99893152D02*
X156952380Y-99940771D01*
X157380951Y-100512200D02*
X157285713Y-100559819D01*
X157285713Y-100559819D02*
X157047618Y-100559819D01*
X157047618Y-100559819D02*
X156952380Y-100512200D01*
X156952380Y-100512200D02*
X156904761Y-100416961D01*
X156904761Y-100416961D02*
X156904761Y-100321723D01*
X156904761Y-100321723D02*
X156952380Y-100226485D01*
X156952380Y-100226485D02*
X157047618Y-100178866D01*
X157047618Y-100178866D02*
X157285713Y-100178866D01*
X157285713Y-100178866D02*
X157380951Y-100131247D01*
X157857142Y-99893152D02*
X157857142Y-100559819D01*
X157857142Y-99988390D02*
X157904761Y-99940771D01*
X157904761Y-99940771D02*
X157999999Y-99893152D01*
X157999999Y-99893152D02*
X158142856Y-99893152D01*
X158142856Y-99893152D02*
X158238094Y-99940771D01*
X158238094Y-99940771D02*
X158285713Y-100036009D01*
X158285713Y-100036009D02*
X158285713Y-100559819D01*
X159190475Y-100559819D02*
X159190475Y-99559819D01*
X159190475Y-100512200D02*
X159095237Y-100559819D01*
X159095237Y-100559819D02*
X158904761Y-100559819D01*
X158904761Y-100559819D02*
X158809523Y-100512200D01*
X158809523Y-100512200D02*
X158761904Y-100464580D01*
X158761904Y-100464580D02*
X158714285Y-100369342D01*
X158714285Y-100369342D02*
X158714285Y-100083628D01*
X158714285Y-100083628D02*
X158761904Y-99988390D01*
X158761904Y-99988390D02*
X158809523Y-99940771D01*
X158809523Y-99940771D02*
X158904761Y-99893152D01*
X158904761Y-99893152D02*
X159095237Y-99893152D01*
X159095237Y-99893152D02*
X159190475Y-99940771D01*
X160428571Y-100559819D02*
X160428571Y-99559819D01*
X160428571Y-99940771D02*
X160523809Y-99893152D01*
X160523809Y-99893152D02*
X160714285Y-99893152D01*
X160714285Y-99893152D02*
X160809523Y-99940771D01*
X160809523Y-99940771D02*
X160857142Y-99988390D01*
X160857142Y-99988390D02*
X160904761Y-100083628D01*
X160904761Y-100083628D02*
X160904761Y-100369342D01*
X160904761Y-100369342D02*
X160857142Y-100464580D01*
X160857142Y-100464580D02*
X160809523Y-100512200D01*
X160809523Y-100512200D02*
X160714285Y-100559819D01*
X160714285Y-100559819D02*
X160523809Y-100559819D01*
X160523809Y-100559819D02*
X160428571Y-100512200D01*
X161761904Y-100559819D02*
X161761904Y-100036009D01*
X161761904Y-100036009D02*
X161714285Y-99940771D01*
X161714285Y-99940771D02*
X161619047Y-99893152D01*
X161619047Y-99893152D02*
X161428571Y-99893152D01*
X161428571Y-99893152D02*
X161333333Y-99940771D01*
X161761904Y-100512200D02*
X161666666Y-100559819D01*
X161666666Y-100559819D02*
X161428571Y-100559819D01*
X161428571Y-100559819D02*
X161333333Y-100512200D01*
X161333333Y-100512200D02*
X161285714Y-100416961D01*
X161285714Y-100416961D02*
X161285714Y-100321723D01*
X161285714Y-100321723D02*
X161333333Y-100226485D01*
X161333333Y-100226485D02*
X161428571Y-100178866D01*
X161428571Y-100178866D02*
X161666666Y-100178866D01*
X161666666Y-100178866D02*
X161761904Y-100131247D01*
X162666666Y-100512200D02*
X162571428Y-100559819D01*
X162571428Y-100559819D02*
X162380952Y-100559819D01*
X162380952Y-100559819D02*
X162285714Y-100512200D01*
X162285714Y-100512200D02*
X162238095Y-100464580D01*
X162238095Y-100464580D02*
X162190476Y-100369342D01*
X162190476Y-100369342D02*
X162190476Y-100083628D01*
X162190476Y-100083628D02*
X162238095Y-99988390D01*
X162238095Y-99988390D02*
X162285714Y-99940771D01*
X162285714Y-99940771D02*
X162380952Y-99893152D01*
X162380952Y-99893152D02*
X162571428Y-99893152D01*
X162571428Y-99893152D02*
X162666666Y-99940771D01*
X163095238Y-100559819D02*
X163095238Y-99559819D01*
X163190476Y-100178866D02*
X163476190Y-100559819D01*
X163476190Y-99893152D02*
X163095238Y-100274104D01*
X164619048Y-100512200D02*
X164714286Y-100559819D01*
X164714286Y-100559819D02*
X164904762Y-100559819D01*
X164904762Y-100559819D02*
X165000000Y-100512200D01*
X165000000Y-100512200D02*
X165047619Y-100416961D01*
X165047619Y-100416961D02*
X165047619Y-100369342D01*
X165047619Y-100369342D02*
X165000000Y-100274104D01*
X165000000Y-100274104D02*
X164904762Y-100226485D01*
X164904762Y-100226485D02*
X164761905Y-100226485D01*
X164761905Y-100226485D02*
X164666667Y-100178866D01*
X164666667Y-100178866D02*
X164619048Y-100083628D01*
X164619048Y-100083628D02*
X164619048Y-100036009D01*
X164619048Y-100036009D02*
X164666667Y-99940771D01*
X164666667Y-99940771D02*
X164761905Y-99893152D01*
X164761905Y-99893152D02*
X164904762Y-99893152D01*
X164904762Y-99893152D02*
X165000000Y-99940771D01*
X165476191Y-100559819D02*
X165476191Y-99893152D01*
X165476191Y-99559819D02*
X165428572Y-99607438D01*
X165428572Y-99607438D02*
X165476191Y-99655057D01*
X165476191Y-99655057D02*
X165523810Y-99607438D01*
X165523810Y-99607438D02*
X165476191Y-99559819D01*
X165476191Y-99559819D02*
X165476191Y-99655057D01*
X166380952Y-100559819D02*
X166380952Y-99559819D01*
X166380952Y-100512200D02*
X166285714Y-100559819D01*
X166285714Y-100559819D02*
X166095238Y-100559819D01*
X166095238Y-100559819D02*
X166000000Y-100512200D01*
X166000000Y-100512200D02*
X165952381Y-100464580D01*
X165952381Y-100464580D02*
X165904762Y-100369342D01*
X165904762Y-100369342D02*
X165904762Y-100083628D01*
X165904762Y-100083628D02*
X165952381Y-99988390D01*
X165952381Y-99988390D02*
X166000000Y-99940771D01*
X166000000Y-99940771D02*
X166095238Y-99893152D01*
X166095238Y-99893152D02*
X166285714Y-99893152D01*
X166285714Y-99893152D02*
X166380952Y-99940771D01*
X167238095Y-100512200D02*
X167142857Y-100559819D01*
X167142857Y-100559819D02*
X166952381Y-100559819D01*
X166952381Y-100559819D02*
X166857143Y-100512200D01*
X166857143Y-100512200D02*
X166809524Y-100416961D01*
X166809524Y-100416961D02*
X166809524Y-100036009D01*
X166809524Y-100036009D02*
X166857143Y-99940771D01*
X166857143Y-99940771D02*
X166952381Y-99893152D01*
X166952381Y-99893152D02*
X167142857Y-99893152D01*
X167142857Y-99893152D02*
X167238095Y-99940771D01*
X167238095Y-99940771D02*
X167285714Y-100036009D01*
X167285714Y-100036009D02*
X167285714Y-100131247D01*
X167285714Y-100131247D02*
X166809524Y-100226485D01*
X168761905Y-100940771D02*
X168714286Y-100893152D01*
X168714286Y-100893152D02*
X168619048Y-100750295D01*
X168619048Y-100750295D02*
X168571429Y-100655057D01*
X168571429Y-100655057D02*
X168523810Y-100512200D01*
X168523810Y-100512200D02*
X168476191Y-100274104D01*
X168476191Y-100274104D02*
X168476191Y-100083628D01*
X168476191Y-100083628D02*
X168523810Y-99845533D01*
X168523810Y-99845533D02*
X168571429Y-99702676D01*
X168571429Y-99702676D02*
X168619048Y-99607438D01*
X168619048Y-99607438D02*
X168714286Y-99464580D01*
X168714286Y-99464580D02*
X168761905Y-99416961D01*
X169142858Y-100559819D02*
X169142858Y-99559819D01*
X169142858Y-99559819D02*
X169476191Y-100274104D01*
X169476191Y-100274104D02*
X169809524Y-99559819D01*
X169809524Y-99559819D02*
X169809524Y-100559819D01*
X170666667Y-99797914D02*
X170666667Y-100559819D01*
X170857143Y-100369342D02*
X170666667Y-100559819D01*
X170666667Y-100559819D02*
X170476191Y-100369342D01*
X171428572Y-100940771D02*
X171476191Y-100893152D01*
X171476191Y-100893152D02*
X171571429Y-100750295D01*
X171571429Y-100750295D02*
X171619048Y-100655057D01*
X171619048Y-100655057D02*
X171666667Y-100512200D01*
X171666667Y-100512200D02*
X171714286Y-100274104D01*
X171714286Y-100274104D02*
X171714286Y-100083628D01*
X171714286Y-100083628D02*
X171666667Y-99845533D01*
X171666667Y-99845533D02*
X171619048Y-99702676D01*
X171619048Y-99702676D02*
X171571429Y-99607438D01*
X171571429Y-99607438D02*
X171476191Y-99464580D01*
X171476191Y-99464580D02*
X171428572Y-99416961D01*
X163235714Y-125964819D02*
X163235714Y-124964819D01*
X163235714Y-124964819D02*
X163616666Y-124964819D01*
X163616666Y-124964819D02*
X163711904Y-125012438D01*
X163711904Y-125012438D02*
X163759523Y-125060057D01*
X163759523Y-125060057D02*
X163807142Y-125155295D01*
X163807142Y-125155295D02*
X163807142Y-125298152D01*
X163807142Y-125298152D02*
X163759523Y-125393390D01*
X163759523Y-125393390D02*
X163711904Y-125441009D01*
X163711904Y-125441009D02*
X163616666Y-125488628D01*
X163616666Y-125488628D02*
X163235714Y-125488628D01*
X164759523Y-125964819D02*
X164188095Y-125964819D01*
X164473809Y-125964819D02*
X164473809Y-124964819D01*
X164473809Y-124964819D02*
X164378571Y-125107676D01*
X164378571Y-125107676D02*
X164283333Y-125202914D01*
X164283333Y-125202914D02*
X164188095Y-125250533D01*
X165616666Y-125298152D02*
X165616666Y-125964819D01*
X165378571Y-124917200D02*
X165140476Y-125631485D01*
X165140476Y-125631485D02*
X165759523Y-125631485D01*
X163235714Y-131044819D02*
X163235714Y-130044819D01*
X163235714Y-130044819D02*
X163616666Y-130044819D01*
X163616666Y-130044819D02*
X163711904Y-130092438D01*
X163711904Y-130092438D02*
X163759523Y-130140057D01*
X163759523Y-130140057D02*
X163807142Y-130235295D01*
X163807142Y-130235295D02*
X163807142Y-130378152D01*
X163807142Y-130378152D02*
X163759523Y-130473390D01*
X163759523Y-130473390D02*
X163711904Y-130521009D01*
X163711904Y-130521009D02*
X163616666Y-130568628D01*
X163616666Y-130568628D02*
X163235714Y-130568628D01*
X164759523Y-131044819D02*
X164188095Y-131044819D01*
X164473809Y-131044819D02*
X164473809Y-130044819D01*
X164473809Y-130044819D02*
X164378571Y-130187676D01*
X164378571Y-130187676D02*
X164283333Y-130282914D01*
X164283333Y-130282914D02*
X164188095Y-130330533D01*
X165378571Y-130044819D02*
X165473809Y-130044819D01*
X165473809Y-130044819D02*
X165569047Y-130092438D01*
X165569047Y-130092438D02*
X165616666Y-130140057D01*
X165616666Y-130140057D02*
X165664285Y-130235295D01*
X165664285Y-130235295D02*
X165711904Y-130425771D01*
X165711904Y-130425771D02*
X165711904Y-130663866D01*
X165711904Y-130663866D02*
X165664285Y-130854342D01*
X165664285Y-130854342D02*
X165616666Y-130949580D01*
X165616666Y-130949580D02*
X165569047Y-130997200D01*
X165569047Y-130997200D02*
X165473809Y-131044819D01*
X165473809Y-131044819D02*
X165378571Y-131044819D01*
X165378571Y-131044819D02*
X165283333Y-130997200D01*
X165283333Y-130997200D02*
X165235714Y-130949580D01*
X165235714Y-130949580D02*
X165188095Y-130854342D01*
X165188095Y-130854342D02*
X165140476Y-130663866D01*
X165140476Y-130663866D02*
X165140476Y-130425771D01*
X165140476Y-130425771D02*
X165188095Y-130235295D01*
X165188095Y-130235295D02*
X165235714Y-130140057D01*
X165235714Y-130140057D02*
X165283333Y-130092438D01*
X165283333Y-130092438D02*
X165378571Y-130044819D01*
X160221905Y-103104819D02*
X160221905Y-102104819D01*
X160221905Y-102104819D02*
X160602857Y-102104819D01*
X160602857Y-102104819D02*
X160698095Y-102152438D01*
X160698095Y-102152438D02*
X160745714Y-102200057D01*
X160745714Y-102200057D02*
X160793333Y-102295295D01*
X160793333Y-102295295D02*
X160793333Y-102438152D01*
X160793333Y-102438152D02*
X160745714Y-102533390D01*
X160745714Y-102533390D02*
X160698095Y-102581009D01*
X160698095Y-102581009D02*
X160602857Y-102628628D01*
X160602857Y-102628628D02*
X160221905Y-102628628D01*
X161745714Y-103104819D02*
X161174286Y-103104819D01*
X161460000Y-103104819D02*
X161460000Y-102104819D01*
X161460000Y-102104819D02*
X161364762Y-102247676D01*
X161364762Y-102247676D02*
X161269524Y-102342914D01*
X161269524Y-102342914D02*
X161174286Y-102390533D01*
X163902380Y-108184819D02*
X163569047Y-107708628D01*
X163330952Y-108184819D02*
X163330952Y-107184819D01*
X163330952Y-107184819D02*
X163711904Y-107184819D01*
X163711904Y-107184819D02*
X163807142Y-107232438D01*
X163807142Y-107232438D02*
X163854761Y-107280057D01*
X163854761Y-107280057D02*
X163902380Y-107375295D01*
X163902380Y-107375295D02*
X163902380Y-107518152D01*
X163902380Y-107518152D02*
X163854761Y-107613390D01*
X163854761Y-107613390D02*
X163807142Y-107661009D01*
X163807142Y-107661009D02*
X163711904Y-107708628D01*
X163711904Y-107708628D02*
X163330952Y-107708628D01*
X164283333Y-108137200D02*
X164426190Y-108184819D01*
X164426190Y-108184819D02*
X164664285Y-108184819D01*
X164664285Y-108184819D02*
X164759523Y-108137200D01*
X164759523Y-108137200D02*
X164807142Y-108089580D01*
X164807142Y-108089580D02*
X164854761Y-107994342D01*
X164854761Y-107994342D02*
X164854761Y-107899104D01*
X164854761Y-107899104D02*
X164807142Y-107803866D01*
X164807142Y-107803866D02*
X164759523Y-107756247D01*
X164759523Y-107756247D02*
X164664285Y-107708628D01*
X164664285Y-107708628D02*
X164473809Y-107661009D01*
X164473809Y-107661009D02*
X164378571Y-107613390D01*
X164378571Y-107613390D02*
X164330952Y-107565771D01*
X164330952Y-107565771D02*
X164283333Y-107470533D01*
X164283333Y-107470533D02*
X164283333Y-107375295D01*
X164283333Y-107375295D02*
X164330952Y-107280057D01*
X164330952Y-107280057D02*
X164378571Y-107232438D01*
X164378571Y-107232438D02*
X164473809Y-107184819D01*
X164473809Y-107184819D02*
X164711904Y-107184819D01*
X164711904Y-107184819D02*
X164854761Y-107232438D01*
X165140476Y-107184819D02*
X165711904Y-107184819D01*
X165426190Y-108184819D02*
X165426190Y-107184819D01*
X160221905Y-128504819D02*
X160221905Y-127504819D01*
X160221905Y-127504819D02*
X160602857Y-127504819D01*
X160602857Y-127504819D02*
X160698095Y-127552438D01*
X160698095Y-127552438D02*
X160745714Y-127600057D01*
X160745714Y-127600057D02*
X160793333Y-127695295D01*
X160793333Y-127695295D02*
X160793333Y-127838152D01*
X160793333Y-127838152D02*
X160745714Y-127933390D01*
X160745714Y-127933390D02*
X160698095Y-127981009D01*
X160698095Y-127981009D02*
X160602857Y-128028628D01*
X160602857Y-128028628D02*
X160221905Y-128028628D01*
X161364762Y-127933390D02*
X161269524Y-127885771D01*
X161269524Y-127885771D02*
X161221905Y-127838152D01*
X161221905Y-127838152D02*
X161174286Y-127742914D01*
X161174286Y-127742914D02*
X161174286Y-127695295D01*
X161174286Y-127695295D02*
X161221905Y-127600057D01*
X161221905Y-127600057D02*
X161269524Y-127552438D01*
X161269524Y-127552438D02*
X161364762Y-127504819D01*
X161364762Y-127504819D02*
X161555238Y-127504819D01*
X161555238Y-127504819D02*
X161650476Y-127552438D01*
X161650476Y-127552438D02*
X161698095Y-127600057D01*
X161698095Y-127600057D02*
X161745714Y-127695295D01*
X161745714Y-127695295D02*
X161745714Y-127742914D01*
X161745714Y-127742914D02*
X161698095Y-127838152D01*
X161698095Y-127838152D02*
X161650476Y-127885771D01*
X161650476Y-127885771D02*
X161555238Y-127933390D01*
X161555238Y-127933390D02*
X161364762Y-127933390D01*
X161364762Y-127933390D02*
X161269524Y-127981009D01*
X161269524Y-127981009D02*
X161221905Y-128028628D01*
X161221905Y-128028628D02*
X161174286Y-128123866D01*
X161174286Y-128123866D02*
X161174286Y-128314342D01*
X161174286Y-128314342D02*
X161221905Y-128409580D01*
X161221905Y-128409580D02*
X161269524Y-128457200D01*
X161269524Y-128457200D02*
X161364762Y-128504819D01*
X161364762Y-128504819D02*
X161555238Y-128504819D01*
X161555238Y-128504819D02*
X161650476Y-128457200D01*
X161650476Y-128457200D02*
X161698095Y-128409580D01*
X161698095Y-128409580D02*
X161745714Y-128314342D01*
X161745714Y-128314342D02*
X161745714Y-128123866D01*
X161745714Y-128123866D02*
X161698095Y-128028628D01*
X161698095Y-128028628D02*
X161650476Y-127981009D01*
X161650476Y-127981009D02*
X161555238Y-127933390D01*
X163688095Y-104692438D02*
X163592857Y-104644819D01*
X163592857Y-104644819D02*
X163450000Y-104644819D01*
X163450000Y-104644819D02*
X163307143Y-104692438D01*
X163307143Y-104692438D02*
X163211905Y-104787676D01*
X163211905Y-104787676D02*
X163164286Y-104882914D01*
X163164286Y-104882914D02*
X163116667Y-105073390D01*
X163116667Y-105073390D02*
X163116667Y-105216247D01*
X163116667Y-105216247D02*
X163164286Y-105406723D01*
X163164286Y-105406723D02*
X163211905Y-105501961D01*
X163211905Y-105501961D02*
X163307143Y-105597200D01*
X163307143Y-105597200D02*
X163450000Y-105644819D01*
X163450000Y-105644819D02*
X163545238Y-105644819D01*
X163545238Y-105644819D02*
X163688095Y-105597200D01*
X163688095Y-105597200D02*
X163735714Y-105549580D01*
X163735714Y-105549580D02*
X163735714Y-105216247D01*
X163735714Y-105216247D02*
X163545238Y-105216247D01*
X164164286Y-105644819D02*
X164164286Y-104644819D01*
X164164286Y-104644819D02*
X164735714Y-105644819D01*
X164735714Y-105644819D02*
X164735714Y-104644819D01*
X165211905Y-105644819D02*
X165211905Y-104644819D01*
X165211905Y-104644819D02*
X165450000Y-104644819D01*
X165450000Y-104644819D02*
X165592857Y-104692438D01*
X165592857Y-104692438D02*
X165688095Y-104787676D01*
X165688095Y-104787676D02*
X165735714Y-104882914D01*
X165735714Y-104882914D02*
X165783333Y-105073390D01*
X165783333Y-105073390D02*
X165783333Y-105216247D01*
X165783333Y-105216247D02*
X165735714Y-105406723D01*
X165735714Y-105406723D02*
X165688095Y-105501961D01*
X165688095Y-105501961D02*
X165592857Y-105597200D01*
X165592857Y-105597200D02*
X165450000Y-105644819D01*
X165450000Y-105644819D02*
X165211905Y-105644819D01*
X160221905Y-118344819D02*
X160221905Y-117344819D01*
X160221905Y-117344819D02*
X160602857Y-117344819D01*
X160602857Y-117344819D02*
X160698095Y-117392438D01*
X160698095Y-117392438D02*
X160745714Y-117440057D01*
X160745714Y-117440057D02*
X160793333Y-117535295D01*
X160793333Y-117535295D02*
X160793333Y-117678152D01*
X160793333Y-117678152D02*
X160745714Y-117773390D01*
X160745714Y-117773390D02*
X160698095Y-117821009D01*
X160698095Y-117821009D02*
X160602857Y-117868628D01*
X160602857Y-117868628D02*
X160221905Y-117868628D01*
X161650476Y-117678152D02*
X161650476Y-118344819D01*
X161412381Y-117297200D02*
X161174286Y-118011485D01*
X161174286Y-118011485D02*
X161793333Y-118011485D01*
X160221905Y-123424819D02*
X160221905Y-122424819D01*
X160221905Y-122424819D02*
X160602857Y-122424819D01*
X160602857Y-122424819D02*
X160698095Y-122472438D01*
X160698095Y-122472438D02*
X160745714Y-122520057D01*
X160745714Y-122520057D02*
X160793333Y-122615295D01*
X160793333Y-122615295D02*
X160793333Y-122758152D01*
X160793333Y-122758152D02*
X160745714Y-122853390D01*
X160745714Y-122853390D02*
X160698095Y-122901009D01*
X160698095Y-122901009D02*
X160602857Y-122948628D01*
X160602857Y-122948628D02*
X160221905Y-122948628D01*
X161650476Y-122424819D02*
X161460000Y-122424819D01*
X161460000Y-122424819D02*
X161364762Y-122472438D01*
X161364762Y-122472438D02*
X161317143Y-122520057D01*
X161317143Y-122520057D02*
X161221905Y-122662914D01*
X161221905Y-122662914D02*
X161174286Y-122853390D01*
X161174286Y-122853390D02*
X161174286Y-123234342D01*
X161174286Y-123234342D02*
X161221905Y-123329580D01*
X161221905Y-123329580D02*
X161269524Y-123377200D01*
X161269524Y-123377200D02*
X161364762Y-123424819D01*
X161364762Y-123424819D02*
X161555238Y-123424819D01*
X161555238Y-123424819D02*
X161650476Y-123377200D01*
X161650476Y-123377200D02*
X161698095Y-123329580D01*
X161698095Y-123329580D02*
X161745714Y-123234342D01*
X161745714Y-123234342D02*
X161745714Y-122996247D01*
X161745714Y-122996247D02*
X161698095Y-122901009D01*
X161698095Y-122901009D02*
X161650476Y-122853390D01*
X161650476Y-122853390D02*
X161555238Y-122805771D01*
X161555238Y-122805771D02*
X161364762Y-122805771D01*
X161364762Y-122805771D02*
X161269524Y-122853390D01*
X161269524Y-122853390D02*
X161221905Y-122901009D01*
X161221905Y-122901009D02*
X161174286Y-122996247D01*
X160221905Y-131044819D02*
X160221905Y-130044819D01*
X160221905Y-130044819D02*
X160602857Y-130044819D01*
X160602857Y-130044819D02*
X160698095Y-130092438D01*
X160698095Y-130092438D02*
X160745714Y-130140057D01*
X160745714Y-130140057D02*
X160793333Y-130235295D01*
X160793333Y-130235295D02*
X160793333Y-130378152D01*
X160793333Y-130378152D02*
X160745714Y-130473390D01*
X160745714Y-130473390D02*
X160698095Y-130521009D01*
X160698095Y-130521009D02*
X160602857Y-130568628D01*
X160602857Y-130568628D02*
X160221905Y-130568628D01*
X161269524Y-131044819D02*
X161460000Y-131044819D01*
X161460000Y-131044819D02*
X161555238Y-130997200D01*
X161555238Y-130997200D02*
X161602857Y-130949580D01*
X161602857Y-130949580D02*
X161698095Y-130806723D01*
X161698095Y-130806723D02*
X161745714Y-130616247D01*
X161745714Y-130616247D02*
X161745714Y-130235295D01*
X161745714Y-130235295D02*
X161698095Y-130140057D01*
X161698095Y-130140057D02*
X161650476Y-130092438D01*
X161650476Y-130092438D02*
X161555238Y-130044819D01*
X161555238Y-130044819D02*
X161364762Y-130044819D01*
X161364762Y-130044819D02*
X161269524Y-130092438D01*
X161269524Y-130092438D02*
X161221905Y-130140057D01*
X161221905Y-130140057D02*
X161174286Y-130235295D01*
X161174286Y-130235295D02*
X161174286Y-130473390D01*
X161174286Y-130473390D02*
X161221905Y-130568628D01*
X161221905Y-130568628D02*
X161269524Y-130616247D01*
X161269524Y-130616247D02*
X161364762Y-130663866D01*
X161364762Y-130663866D02*
X161555238Y-130663866D01*
X161555238Y-130663866D02*
X161650476Y-130616247D01*
X161650476Y-130616247D02*
X161698095Y-130568628D01*
X161698095Y-130568628D02*
X161745714Y-130473390D01*
X160221905Y-120884819D02*
X160221905Y-119884819D01*
X160221905Y-119884819D02*
X160602857Y-119884819D01*
X160602857Y-119884819D02*
X160698095Y-119932438D01*
X160698095Y-119932438D02*
X160745714Y-119980057D01*
X160745714Y-119980057D02*
X160793333Y-120075295D01*
X160793333Y-120075295D02*
X160793333Y-120218152D01*
X160793333Y-120218152D02*
X160745714Y-120313390D01*
X160745714Y-120313390D02*
X160698095Y-120361009D01*
X160698095Y-120361009D02*
X160602857Y-120408628D01*
X160602857Y-120408628D02*
X160221905Y-120408628D01*
X161698095Y-119884819D02*
X161221905Y-119884819D01*
X161221905Y-119884819D02*
X161174286Y-120361009D01*
X161174286Y-120361009D02*
X161221905Y-120313390D01*
X161221905Y-120313390D02*
X161317143Y-120265771D01*
X161317143Y-120265771D02*
X161555238Y-120265771D01*
X161555238Y-120265771D02*
X161650476Y-120313390D01*
X161650476Y-120313390D02*
X161698095Y-120361009D01*
X161698095Y-120361009D02*
X161745714Y-120456247D01*
X161745714Y-120456247D02*
X161745714Y-120694342D01*
X161745714Y-120694342D02*
X161698095Y-120789580D01*
X161698095Y-120789580D02*
X161650476Y-120837200D01*
X161650476Y-120837200D02*
X161555238Y-120884819D01*
X161555238Y-120884819D02*
X161317143Y-120884819D01*
X161317143Y-120884819D02*
X161221905Y-120837200D01*
X161221905Y-120837200D02*
X161174286Y-120789580D01*
X160221905Y-115804819D02*
X160221905Y-114804819D01*
X160221905Y-114804819D02*
X160602857Y-114804819D01*
X160602857Y-114804819D02*
X160698095Y-114852438D01*
X160698095Y-114852438D02*
X160745714Y-114900057D01*
X160745714Y-114900057D02*
X160793333Y-114995295D01*
X160793333Y-114995295D02*
X160793333Y-115138152D01*
X160793333Y-115138152D02*
X160745714Y-115233390D01*
X160745714Y-115233390D02*
X160698095Y-115281009D01*
X160698095Y-115281009D02*
X160602857Y-115328628D01*
X160602857Y-115328628D02*
X160221905Y-115328628D01*
X161126667Y-114804819D02*
X161745714Y-114804819D01*
X161745714Y-114804819D02*
X161412381Y-115185771D01*
X161412381Y-115185771D02*
X161555238Y-115185771D01*
X161555238Y-115185771D02*
X161650476Y-115233390D01*
X161650476Y-115233390D02*
X161698095Y-115281009D01*
X161698095Y-115281009D02*
X161745714Y-115376247D01*
X161745714Y-115376247D02*
X161745714Y-115614342D01*
X161745714Y-115614342D02*
X161698095Y-115709580D01*
X161698095Y-115709580D02*
X161650476Y-115757200D01*
X161650476Y-115757200D02*
X161555238Y-115804819D01*
X161555238Y-115804819D02*
X161269524Y-115804819D01*
X161269524Y-115804819D02*
X161174286Y-115757200D01*
X161174286Y-115757200D02*
X161126667Y-115709580D01*
D11*
X85250000Y-93650000D02*
X85650000Y-93650000D01*
X85650000Y-93650000D02*
X85650000Y-93100000D01*
X85650000Y-93650000D02*
X85650000Y-94200000D01*
X85650000Y-93650000D02*
X86250000Y-93250000D01*
X86250000Y-93250000D02*
X86250000Y-94050000D01*
X86250000Y-93650000D02*
X86750000Y-93650000D01*
X86250000Y-94050000D02*
X85650000Y-93650000D01*
X67250000Y-103000000D02*
X67650000Y-103000000D01*
X67650000Y-103000000D02*
X67650000Y-102450000D01*
X67650000Y-103000000D02*
X67650000Y-103550000D01*
X67650000Y-103000000D02*
X68250000Y-102600000D01*
X68250000Y-102600000D02*
X68250000Y-103400000D01*
X68250000Y-103000000D02*
X68750000Y-103000000D01*
X68250000Y-103400000D02*
X67650000Y-103000000D01*
X139250000Y-95350000D02*
X139650000Y-95350000D01*
X139650000Y-95350000D02*
X139650000Y-94800000D01*
X139650000Y-95350000D02*
X139650000Y-95900000D01*
X139650000Y-95350000D02*
X140250000Y-94950000D01*
X140250000Y-94950000D02*
X140250000Y-95750000D01*
X140250000Y-95350000D02*
X140750000Y-95350000D01*
X140250000Y-95750000D02*
X139650000Y-95350000D01*
X121250000Y-144650000D02*
X121650000Y-144650000D01*
X121650000Y-144650000D02*
X121650000Y-144100000D01*
X121650000Y-144650000D02*
X121650000Y-145200000D01*
X121650000Y-144650000D02*
X122250000Y-144250000D01*
X122250000Y-144250000D02*
X122250000Y-145050000D01*
X122250000Y-144650000D02*
X122750000Y-144650000D01*
X122250000Y-145050000D02*
X121650000Y-144650000D01*
X139781381Y-172736600D02*
X140127791Y-172936600D01*
X140127791Y-172936600D02*
X139852791Y-173412914D01*
X140127791Y-172936600D02*
X140402791Y-172460286D01*
X140127791Y-172936600D02*
X140847406Y-172890190D01*
X140447406Y-173583010D02*
X140127791Y-172936600D01*
X140647406Y-173236600D02*
X141080419Y-173486600D01*
X140847406Y-172890190D02*
X140447406Y-173583010D01*
D10*
X169250000Y-159350000D02*
X169250000Y-165350000D01*
X169250000Y-159350000D02*
X169500000Y-159350000D01*
X169250000Y-165350000D02*
X169500000Y-165350000D01*
X172750000Y-159350000D02*
X172500000Y-159350000D01*
X172750000Y-159350000D02*
X172750000Y-165350000D01*
X172750000Y-165350000D02*
X172500000Y-165350000D01*
D11*
X49250000Y-154000000D02*
X49650000Y-154000000D01*
X49650000Y-154000000D02*
X49650000Y-153450000D01*
X49650000Y-154000000D02*
X49650000Y-154550000D01*
X49650000Y-154000000D02*
X50250000Y-153600000D01*
X50250000Y-153600000D02*
X50250000Y-154400000D01*
X50250000Y-154000000D02*
X50750000Y-154000000D01*
X50250000Y-154400000D02*
X49650000Y-154000000D01*
X139250000Y-146350000D02*
X139650000Y-146350000D01*
X139650000Y-146350000D02*
X139650000Y-145800000D01*
X139650000Y-146350000D02*
X139650000Y-146900000D01*
X139650000Y-146350000D02*
X140250000Y-145950000D01*
X140250000Y-145950000D02*
X140250000Y-146750000D01*
X140250000Y-146350000D02*
X140750000Y-146350000D01*
X140250000Y-146750000D02*
X139650000Y-146350000D01*
X154990770Y-184160370D02*
X155273613Y-184443213D01*
X155273613Y-184443213D02*
X154884704Y-184832121D01*
X155273613Y-184443213D02*
X155662521Y-184054304D01*
X155273613Y-184443213D02*
X155980719Y-184584634D01*
X155415034Y-185150319D02*
X155273613Y-184443213D01*
X155697877Y-184867477D02*
X156051430Y-185221030D01*
X155980719Y-184584634D02*
X155415034Y-185150319D01*
X122133556Y-165638586D02*
X122519926Y-165742113D01*
X122519926Y-165742113D02*
X122377575Y-166273374D01*
X122519926Y-165742113D02*
X122662276Y-165210854D01*
X122519926Y-165742113D02*
X123203009Y-165511034D01*
X122995954Y-166283775D02*
X122519926Y-165742113D01*
X123099481Y-165897405D02*
X123582444Y-166026814D01*
X123203009Y-165511034D02*
X122995954Y-166283775D01*
X67250000Y-137000000D02*
X67650000Y-137000000D01*
X67650000Y-137000000D02*
X67650000Y-136450000D01*
X67650000Y-137000000D02*
X67650000Y-137550000D01*
X67650000Y-137000000D02*
X68250000Y-136600000D01*
X68250000Y-136600000D02*
X68250000Y-137400000D01*
X68250000Y-137000000D02*
X68750000Y-137000000D01*
X68250000Y-137400000D02*
X67650000Y-137000000D01*
X49250000Y-137000000D02*
X49650000Y-137000000D01*
X49650000Y-137000000D02*
X49650000Y-136450000D01*
X49650000Y-137000000D02*
X49650000Y-137550000D01*
X49650000Y-137000000D02*
X50250000Y-136600000D01*
X50250000Y-136600000D02*
X50250000Y-137400000D01*
X50250000Y-137000000D02*
X50750000Y-137000000D01*
X50250000Y-137400000D02*
X49650000Y-137000000D01*
D12*
X168575000Y-138950000D02*
X168575000Y-138750000D01*
X168575000Y-141950000D02*
X168575000Y-140250000D01*
X169625000Y-143800000D02*
X170415000Y-143800000D01*
X170415000Y-136900000D02*
X169625000Y-136900000D01*
X171425000Y-143200000D02*
X171425000Y-137500000D01*
D11*
X49250000Y-120000000D02*
X49650000Y-120000000D01*
X49650000Y-120000000D02*
X49650000Y-119450000D01*
X49650000Y-120000000D02*
X49650000Y-120550000D01*
X49650000Y-120000000D02*
X50250000Y-119600000D01*
X50250000Y-119600000D02*
X50250000Y-120400000D01*
X50250000Y-120000000D02*
X50750000Y-120000000D01*
X50250000Y-120400000D02*
X49650000Y-120000000D01*
X67250000Y-120000000D02*
X67650000Y-120000000D01*
X67650000Y-120000000D02*
X67650000Y-119450000D01*
X67650000Y-120000000D02*
X67650000Y-120550000D01*
X67650000Y-120000000D02*
X68250000Y-119600000D01*
X68250000Y-119600000D02*
X68250000Y-120400000D01*
X68250000Y-120000000D02*
X68750000Y-120000000D01*
X68250000Y-120400000D02*
X67650000Y-120000000D01*
X103250000Y-124250000D02*
X103650000Y-124250000D01*
X103650000Y-124250000D02*
X103650000Y-123700000D01*
X103650000Y-124250000D02*
X103650000Y-124800000D01*
X103650000Y-124250000D02*
X104250000Y-123850000D01*
X104250000Y-123850000D02*
X104250000Y-124650000D01*
X104250000Y-124250000D02*
X104750000Y-124250000D01*
X104250000Y-124650000D02*
X103650000Y-124250000D01*
X49250000Y-103000000D02*
X49650000Y-103000000D01*
X49650000Y-103000000D02*
X49650000Y-102450000D01*
X49650000Y-103000000D02*
X49650000Y-103550000D01*
X49650000Y-103000000D02*
X50250000Y-102600000D01*
X50250000Y-102600000D02*
X50250000Y-103400000D01*
X50250000Y-103000000D02*
X50750000Y-103000000D01*
X50250000Y-103400000D02*
X49650000Y-103000000D01*
X67250000Y-154000000D02*
X67650000Y-154000000D01*
X67650000Y-154000000D02*
X67650000Y-153450000D01*
X67650000Y-154000000D02*
X67650000Y-154550000D01*
X67650000Y-154000000D02*
X68250000Y-153600000D01*
X68250000Y-153600000D02*
X68250000Y-154400000D01*
X68250000Y-154000000D02*
X68750000Y-154000000D01*
X68250000Y-154400000D02*
X67650000Y-154000000D01*
X139250000Y-112350000D02*
X139650000Y-112350000D01*
X139650000Y-112350000D02*
X139650000Y-111800000D01*
X139650000Y-112350000D02*
X139650000Y-112900000D01*
X139650000Y-112350000D02*
X140250000Y-111950000D01*
X140250000Y-111950000D02*
X140250000Y-112750000D01*
X140250000Y-112350000D02*
X140750000Y-112350000D01*
X140250000Y-112750000D02*
X139650000Y-112350000D01*
X85250000Y-110650000D02*
X85650000Y-110650000D01*
X85650000Y-110650000D02*
X85650000Y-110100000D01*
X85650000Y-110650000D02*
X85650000Y-111200000D01*
X85650000Y-110650000D02*
X86250000Y-110250000D01*
X86250000Y-110250000D02*
X86250000Y-111050000D01*
X86250000Y-110650000D02*
X86750000Y-110650000D01*
X86250000Y-111050000D02*
X85650000Y-110650000D01*
X103250000Y-107250000D02*
X103650000Y-107250000D01*
X103650000Y-107250000D02*
X103650000Y-106700000D01*
X103650000Y-107250000D02*
X103650000Y-107800000D01*
X103650000Y-107250000D02*
X104250000Y-106850000D01*
X104250000Y-106850000D02*
X104250000Y-107650000D01*
X104250000Y-107250000D02*
X104750000Y-107250000D01*
X104250000Y-107650000D02*
X103650000Y-107250000D01*
X103250000Y-141250000D02*
X103650000Y-141250000D01*
X103650000Y-141250000D02*
X103650000Y-140700000D01*
X103650000Y-141250000D02*
X103650000Y-141800000D01*
X103650000Y-141250000D02*
X104250000Y-140850000D01*
X104250000Y-140850000D02*
X104250000Y-141650000D01*
X104250000Y-141250000D02*
X104750000Y-141250000D01*
X104250000Y-141650000D02*
X103650000Y-141250000D01*
D12*
X154940000Y-138990000D02*
X154940000Y-139990000D01*
X154940000Y-146810000D02*
X154940000Y-145810000D01*
X155860000Y-138990000D02*
X154940000Y-138990000D01*
X155860000Y-146810000D02*
X154940000Y-146810000D01*
D11*
X156500000Y-137950000D02*
X157500000Y-137950000D01*
X157000000Y-138450000D02*
X157000000Y-137450000D01*
X159500000Y-137950000D02*
X158500000Y-137950000D01*
D12*
X160060000Y-146810000D02*
X161060000Y-146810000D01*
X160140000Y-138990000D02*
X161060000Y-138990000D01*
X161060000Y-138990000D02*
X161060000Y-139990000D01*
X161060000Y-146810000D02*
X161060000Y-145810000D01*
D11*
X121250000Y-93650000D02*
X121650000Y-93650000D01*
X121650000Y-93650000D02*
X121650000Y-93100000D01*
X121650000Y-93650000D02*
X121650000Y-94200000D01*
X121650000Y-93650000D02*
X122250000Y-93250000D01*
X122250000Y-93250000D02*
X122250000Y-94050000D01*
X122250000Y-93650000D02*
X122750000Y-93650000D01*
X122250000Y-94050000D02*
X121650000Y-93650000D01*
X85250000Y-127650000D02*
X85650000Y-127650000D01*
X85650000Y-127650000D02*
X85650000Y-127100000D01*
X85650000Y-127650000D02*
X85650000Y-128200000D01*
X85650000Y-127650000D02*
X86250000Y-127250000D01*
X86250000Y-127250000D02*
X86250000Y-128050000D01*
X86250000Y-127650000D02*
X86750000Y-127650000D01*
X86250000Y-128050000D02*
X85650000Y-127650000D01*
X121250000Y-110650000D02*
X121650000Y-110650000D01*
X121650000Y-110650000D02*
X121650000Y-110100000D01*
X121650000Y-110650000D02*
X121650000Y-111200000D01*
X121650000Y-110650000D02*
X122250000Y-110250000D01*
X122250000Y-110250000D02*
X122250000Y-111050000D01*
X122250000Y-110650000D02*
X122750000Y-110650000D01*
X122250000Y-111050000D02*
X121650000Y-110650000D01*
D12*
X154050000Y-101320000D02*
X154050000Y-131920000D01*
X154050000Y-101320000D02*
X156710000Y-101320000D01*
X154050000Y-131920000D02*
X156710000Y-131920000D01*
X156710000Y-101320000D02*
X156710000Y-131920000D01*
X156710000Y-103920000D02*
X154050000Y-103920000D01*
X169290000Y-101320000D02*
X169290000Y-131920000D01*
X169290000Y-101320000D02*
X171950000Y-101320000D01*
X169290000Y-131920000D02*
X171950000Y-131920000D01*
X171950000Y-101320000D02*
X171950000Y-131920000D01*
D11*
X139250000Y-129350000D02*
X139650000Y-129350000D01*
X139650000Y-129350000D02*
X139650000Y-128800000D01*
X139650000Y-129350000D02*
X139650000Y-129900000D01*
X139650000Y-129350000D02*
X140250000Y-128950000D01*
X140250000Y-128950000D02*
X140250000Y-129750000D01*
X140250000Y-129350000D02*
X140750000Y-129350000D01*
X140250000Y-129750000D02*
X139650000Y-129350000D01*
X85250000Y-144650000D02*
X85650000Y-144650000D01*
X85650000Y-144650000D02*
X85650000Y-144100000D01*
X85650000Y-144650000D02*
X85650000Y-145200000D01*
X85650000Y-144650000D02*
X86250000Y-144250000D01*
X86250000Y-144250000D02*
X86250000Y-145050000D01*
X86250000Y-144650000D02*
X86750000Y-144650000D01*
X86250000Y-145050000D02*
X85650000Y-144650000D01*
X103250000Y-90250000D02*
X103650000Y-90250000D01*
X103650000Y-90250000D02*
X103650000Y-89700000D01*
X103650000Y-90250000D02*
X103650000Y-90800000D01*
X103650000Y-90250000D02*
X104250000Y-89850000D01*
X104250000Y-89850000D02*
X104250000Y-90650000D01*
X104250000Y-90250000D02*
X104750000Y-90250000D01*
X104250000Y-90650000D02*
X103650000Y-90250000D01*
X121250000Y-127650000D02*
X121650000Y-127650000D01*
X121650000Y-127650000D02*
X121650000Y-127100000D01*
X121650000Y-127650000D02*
X121650000Y-128200000D01*
X121650000Y-127650000D02*
X122250000Y-127250000D01*
X122250000Y-127250000D02*
X122250000Y-128050000D01*
X122250000Y-127650000D02*
X122750000Y-127650000D01*
X122250000Y-128050000D02*
X121650000Y-127650000D01*
D10*
X61000000Y-126800000D02*
X65480000Y-126800000D01*
X61000000Y-127400000D02*
X61000000Y-126800000D01*
X61000000Y-131500000D02*
X61000000Y-131000000D01*
X65500000Y-130800000D02*
X65500000Y-131500000D01*
X65500000Y-131500000D02*
X61000000Y-131500000D01*
X66000000Y-126220000D02*
X66000000Y-125300000D01*
X66500000Y-124800000D02*
X66000000Y-125300000D01*
X69500000Y-124800000D02*
X66500000Y-124800000D01*
X69500000Y-129300000D02*
X67200000Y-129300000D01*
X70000000Y-125300000D02*
X69500000Y-124800000D01*
X70000000Y-128800000D02*
X69500000Y-129300000D01*
X65500000Y-130780000D02*
G75*
G02*
X67200000Y-129300000I1589999J-109999D01*
G01*
X66000000Y-126220000D02*
G75*
G02*
X65480000Y-126800000I-549999J-30001D01*
G01*
X43000000Y-126800000D02*
X47480000Y-126800000D01*
X43000000Y-127400000D02*
X43000000Y-126800000D01*
X43000000Y-131500000D02*
X43000000Y-131000000D01*
X47500000Y-130800000D02*
X47500000Y-131500000D01*
X47500000Y-131500000D02*
X43000000Y-131500000D01*
X48000000Y-126220000D02*
X48000000Y-125300000D01*
X48500000Y-124800000D02*
X48000000Y-125300000D01*
X51500000Y-124800000D02*
X48500000Y-124800000D01*
X51500000Y-129300000D02*
X49200000Y-129300000D01*
X52000000Y-125300000D02*
X51500000Y-124800000D01*
X52000000Y-128800000D02*
X51500000Y-129300000D01*
X47500000Y-130780000D02*
G75*
G02*
X49200000Y-129300000I1589999J-109999D01*
G01*
X48000000Y-126220000D02*
G75*
G02*
X47480000Y-126800000I-549999J-30001D01*
G01*
X43000000Y-92800000D02*
X47480000Y-92800000D01*
X43000000Y-93400000D02*
X43000000Y-92800000D01*
X43000000Y-97500000D02*
X43000000Y-97000000D01*
X47500000Y-96800000D02*
X47500000Y-97500000D01*
X47500000Y-97500000D02*
X43000000Y-97500000D01*
X48000000Y-92220000D02*
X48000000Y-91300000D01*
X48500000Y-90800000D02*
X48000000Y-91300000D01*
X51500000Y-90800000D02*
X48500000Y-90800000D01*
X51500000Y-95300000D02*
X49200000Y-95300000D01*
X52000000Y-91300000D02*
X51500000Y-90800000D01*
X52000000Y-94800000D02*
X51500000Y-95300000D01*
X47500000Y-96780000D02*
G75*
G02*
X49200000Y-95300000I1589999J-109999D01*
G01*
X48000000Y-92220000D02*
G75*
G02*
X47480000Y-92800000I-549999J-30001D01*
G01*
X61000000Y-109800000D02*
X65480000Y-109800000D01*
X61000000Y-110400000D02*
X61000000Y-109800000D01*
X61000000Y-114500000D02*
X61000000Y-114000000D01*
X65500000Y-113800000D02*
X65500000Y-114500000D01*
X65500000Y-114500000D02*
X61000000Y-114500000D01*
X66000000Y-109220000D02*
X66000000Y-108300000D01*
X66500000Y-107800000D02*
X66000000Y-108300000D01*
X69500000Y-107800000D02*
X66500000Y-107800000D01*
X69500000Y-112300000D02*
X67200000Y-112300000D01*
X70000000Y-108300000D02*
X69500000Y-107800000D01*
X70000000Y-111800000D02*
X69500000Y-112300000D01*
X65500000Y-113780000D02*
G75*
G02*
X67200000Y-112300000I1589999J-109999D01*
G01*
X66000000Y-109220000D02*
G75*
G02*
X65480000Y-109800000I-549999J-30001D01*
G01*
X79000000Y-100450000D02*
X83480000Y-100450000D01*
X79000000Y-101050000D02*
X79000000Y-100450000D01*
X79000000Y-105150000D02*
X79000000Y-104650000D01*
X83500000Y-104450000D02*
X83500000Y-105150000D01*
X83500000Y-105150000D02*
X79000000Y-105150000D01*
X84000000Y-99870000D02*
X84000000Y-98950000D01*
X84500000Y-98450000D02*
X84000000Y-98950000D01*
X87500000Y-98450000D02*
X84500000Y-98450000D01*
X87500000Y-102950000D02*
X85200000Y-102950000D01*
X88000000Y-98950000D02*
X87500000Y-98450000D01*
X88000000Y-102450000D02*
X87500000Y-102950000D01*
X83500000Y-104430000D02*
G75*
G02*
X85200000Y-102950000I1589999J-109999D01*
G01*
X84000000Y-99870000D02*
G75*
G02*
X83480000Y-100450000I-549999J-30001D01*
G01*
X154460413Y-175851892D02*
X154813966Y-175498339D01*
X157359551Y-172952755D02*
X157783815Y-172528490D01*
X157642393Y-179033873D02*
X154460413Y-175851892D01*
X157783815Y-172528490D02*
X160951653Y-175696329D01*
X158137368Y-178538898D02*
X157642393Y-179033873D01*
X161729470Y-175653902D02*
X162380009Y-175003364D01*
X162026455Y-180306665D02*
X160400110Y-178680319D01*
X162733562Y-180306665D02*
X162026455Y-180306665D01*
X163087115Y-175003364D02*
X162380009Y-175003364D01*
X165208436Y-177124685D02*
X163087115Y-175003364D01*
X165208436Y-177831791D02*
X165208436Y-177124685D01*
X158151510Y-178524756D02*
G75*
G02*
X160400111Y-178680319I1046520J-1202067D01*
G01*
X161729470Y-175653902D02*
G75*
G02*
X160951653Y-175696329I-410122J367690D01*
G01*
X137118722Y-164848462D02*
X137368722Y-164415449D01*
X139168722Y-161297758D02*
X139468722Y-160778142D01*
X139468722Y-160778142D02*
X143348516Y-163018142D01*
X141015836Y-167098462D02*
X137118722Y-164848462D01*
X141365836Y-166492244D02*
X141015836Y-167098462D01*
X144088849Y-162775848D02*
X144548849Y-161979104D01*
X145231862Y-161796092D02*
X144548849Y-161979104D01*
X145579938Y-167193206D02*
X143588080Y-166043206D01*
X146262951Y-167010193D02*
X145579938Y-167193206D01*
X147829938Y-163296092D02*
X145231862Y-161796092D01*
X148012951Y-163979104D02*
X147829938Y-163296092D01*
X141375836Y-166474924D02*
G75*
G02*
X143588081Y-166043205I1321981J-890259D01*
G01*
X144088849Y-162775848D02*
G75*
G02*
X143348516Y-163018142I-491314J249021D01*
G01*
X97000000Y-114050000D02*
X101480000Y-114050000D01*
X97000000Y-114650000D02*
X97000000Y-114050000D01*
X97000000Y-118750000D02*
X97000000Y-118250000D01*
X101500000Y-118050000D02*
X101500000Y-118750000D01*
X101500000Y-118750000D02*
X97000000Y-118750000D01*
X102000000Y-113470000D02*
X102000000Y-112550000D01*
X102500000Y-112050000D02*
X102000000Y-112550000D01*
X105500000Y-112050000D02*
X102500000Y-112050000D01*
X105500000Y-116550000D02*
X103200000Y-116550000D01*
X106000000Y-112550000D02*
X105500000Y-112050000D01*
X106000000Y-116050000D02*
X105500000Y-116550000D01*
X101500000Y-118030000D02*
G75*
G02*
X103200000Y-116550000I1589999J-109999D01*
G01*
X102000000Y-113470000D02*
G75*
G02*
X101480000Y-114050000I-549999J-30001D01*
G01*
X79000000Y-117450000D02*
X83480000Y-117450000D01*
X79000000Y-118050000D02*
X79000000Y-117450000D01*
X79000000Y-122150000D02*
X79000000Y-121650000D01*
X83500000Y-121450000D02*
X83500000Y-122150000D01*
X83500000Y-122150000D02*
X79000000Y-122150000D01*
X84000000Y-116870000D02*
X84000000Y-115950000D01*
X84500000Y-115450000D02*
X84000000Y-115950000D01*
X87500000Y-115450000D02*
X84500000Y-115450000D01*
X87500000Y-119950000D02*
X85200000Y-119950000D01*
X88000000Y-115950000D02*
X87500000Y-115450000D01*
X88000000Y-119450000D02*
X87500000Y-119950000D01*
X83500000Y-121430000D02*
G75*
G02*
X85200000Y-119950000I1589999J-109999D01*
G01*
X84000000Y-116870000D02*
G75*
G02*
X83480000Y-117450000I-549999J-30001D01*
G01*
X43000000Y-109800000D02*
X47480000Y-109800000D01*
X43000000Y-110400000D02*
X43000000Y-109800000D01*
X43000000Y-114500000D02*
X43000000Y-114000000D01*
X47500000Y-113800000D02*
X47500000Y-114500000D01*
X47500000Y-114500000D02*
X43000000Y-114500000D01*
X48000000Y-109220000D02*
X48000000Y-108300000D01*
X48500000Y-107800000D02*
X48000000Y-108300000D01*
X51500000Y-107800000D02*
X48500000Y-107800000D01*
X51500000Y-112300000D02*
X49200000Y-112300000D01*
X52000000Y-108300000D02*
X51500000Y-107800000D01*
X52000000Y-111800000D02*
X51500000Y-112300000D01*
X47500000Y-113780000D02*
G75*
G02*
X49200000Y-112300000I1589999J-109999D01*
G01*
X48000000Y-109220000D02*
G75*
G02*
X47480000Y-109800000I-549999J-30001D01*
G01*
X117520048Y-158708378D02*
X117649457Y-158225415D01*
X118581206Y-154748082D02*
X118736497Y-154168528D01*
X118736497Y-154168528D02*
X123063845Y-155328036D01*
X121866714Y-159873064D02*
X117520048Y-158708378D01*
X122047887Y-159196917D02*
X121866714Y-159873064D01*
X123716241Y-154902385D02*
X123954355Y-154013733D01*
X124566727Y-153660180D02*
X123954355Y-154013733D01*
X126299819Y-158783303D02*
X124078190Y-158188019D01*
X126912192Y-158429750D02*
X126299819Y-158783303D01*
X127464505Y-154436637D02*
X124566727Y-153660180D01*
X127818058Y-155049009D02*
X127464505Y-154436637D01*
X122053064Y-159177597D02*
G75*
G02*
X124078190Y-158188019I1507356J-517782D01*
G01*
X123716241Y-154902385D02*
G75*
G02*
X123063845Y-155328036I-539026J113376D01*
G01*
X133000000Y-102150000D02*
X137480000Y-102150000D01*
X133000000Y-102750000D02*
X133000000Y-102150000D01*
X133000000Y-106850000D02*
X133000000Y-106350000D01*
X137500000Y-106150000D02*
X137500000Y-106850000D01*
X137500000Y-106850000D02*
X133000000Y-106850000D01*
X138000000Y-101570000D02*
X138000000Y-100650000D01*
X138500000Y-100150000D02*
X138000000Y-100650000D01*
X141500000Y-100150000D02*
X138500000Y-100150000D01*
X141500000Y-104650000D02*
X139200000Y-104650000D01*
X142000000Y-100650000D02*
X141500000Y-100150000D01*
X142000000Y-104150000D02*
X141500000Y-104650000D01*
X137500000Y-106130000D02*
G75*
G02*
X139200000Y-104650000I1589999J-109999D01*
G01*
X138000000Y-101570000D02*
G75*
G02*
X137480000Y-102150000I-549999J-30001D01*
G01*
X97000000Y-80050000D02*
X101480000Y-80050000D01*
X97000000Y-80650000D02*
X97000000Y-80050000D01*
X97000000Y-84750000D02*
X97000000Y-84250000D01*
X101500000Y-84050000D02*
X101500000Y-84750000D01*
X101500000Y-84750000D02*
X97000000Y-84750000D01*
X102000000Y-79470000D02*
X102000000Y-78550000D01*
X102500000Y-78050000D02*
X102000000Y-78550000D01*
X105500000Y-78050000D02*
X102500000Y-78050000D01*
X105500000Y-82550000D02*
X103200000Y-82550000D01*
X106000000Y-78550000D02*
X105500000Y-78050000D01*
X106000000Y-82050000D02*
X105500000Y-82550000D01*
X101500000Y-84030000D02*
G75*
G02*
X103200000Y-82550000I1589999J-109999D01*
G01*
X102000000Y-79470000D02*
G75*
G02*
X101480000Y-80050000I-549999J-30001D01*
G01*
X97000000Y-131050000D02*
X101480000Y-131050000D01*
X97000000Y-131650000D02*
X97000000Y-131050000D01*
X97000000Y-135750000D02*
X97000000Y-135250000D01*
X101500000Y-135050000D02*
X101500000Y-135750000D01*
X101500000Y-135750000D02*
X97000000Y-135750000D01*
X102000000Y-130470000D02*
X102000000Y-129550000D01*
X102500000Y-129050000D02*
X102000000Y-129550000D01*
X105500000Y-129050000D02*
X102500000Y-129050000D01*
X105500000Y-133550000D02*
X103200000Y-133550000D01*
X106000000Y-129550000D02*
X105500000Y-129050000D01*
X106000000Y-133050000D02*
X105500000Y-133550000D01*
X101500000Y-135030000D02*
G75*
G02*
X103200000Y-133550000I1589999J-109999D01*
G01*
X102000000Y-130470000D02*
G75*
G02*
X101480000Y-131050000I-549999J-30001D01*
G01*
X133000000Y-119150000D02*
X137480000Y-119150000D01*
X133000000Y-119750000D02*
X133000000Y-119150000D01*
X133000000Y-123850000D02*
X133000000Y-123350000D01*
X137500000Y-123150000D02*
X137500000Y-123850000D01*
X137500000Y-123850000D02*
X133000000Y-123850000D01*
X138000000Y-118570000D02*
X138000000Y-117650000D01*
X138500000Y-117150000D02*
X138000000Y-117650000D01*
X141500000Y-117150000D02*
X138500000Y-117150000D01*
X141500000Y-121650000D02*
X139200000Y-121650000D01*
X142000000Y-117650000D02*
X141500000Y-117150000D01*
X142000000Y-121150000D02*
X141500000Y-121650000D01*
X137500000Y-123130000D02*
G75*
G02*
X139200000Y-121650000I1589999J-109999D01*
G01*
X138000000Y-118570000D02*
G75*
G02*
X137480000Y-119150000I-549999J-30001D01*
G01*
X133000000Y-136150000D02*
X137480000Y-136150000D01*
X133000000Y-136750000D02*
X133000000Y-136150000D01*
X133000000Y-140850000D02*
X133000000Y-140350000D01*
X137500000Y-140150000D02*
X137500000Y-140850000D01*
X137500000Y-140850000D02*
X133000000Y-140850000D01*
X138000000Y-135570000D02*
X138000000Y-134650000D01*
X138500000Y-134150000D02*
X138000000Y-134650000D01*
X141500000Y-134150000D02*
X138500000Y-134150000D01*
X141500000Y-138650000D02*
X139200000Y-138650000D01*
X142000000Y-134650000D02*
X141500000Y-134150000D01*
X142000000Y-138150000D02*
X141500000Y-138650000D01*
X137500000Y-140130000D02*
G75*
G02*
X139200000Y-138650000I1589999J-109999D01*
G01*
X138000000Y-135570000D02*
G75*
G02*
X137480000Y-136150000I-549999J-30001D01*
G01*
X61000000Y-92800000D02*
X65480000Y-92800000D01*
X61000000Y-93400000D02*
X61000000Y-92800000D01*
X61000000Y-97500000D02*
X61000000Y-97000000D01*
X65500000Y-96800000D02*
X65500000Y-97500000D01*
X65500000Y-97500000D02*
X61000000Y-97500000D01*
X66000000Y-92220000D02*
X66000000Y-91300000D01*
X66500000Y-90800000D02*
X66000000Y-91300000D01*
X69500000Y-90800000D02*
X66500000Y-90800000D01*
X69500000Y-95300000D02*
X67200000Y-95300000D01*
X70000000Y-91300000D02*
X69500000Y-90800000D01*
X70000000Y-94800000D02*
X69500000Y-95300000D01*
X65500000Y-96780000D02*
G75*
G02*
X67200000Y-95300000I1589999J-109999D01*
G01*
X66000000Y-92220000D02*
G75*
G02*
X65480000Y-92800000I-549999J-30001D01*
G01*
X133000000Y-85150000D02*
X137480000Y-85150000D01*
X133000000Y-85750000D02*
X133000000Y-85150000D01*
X133000000Y-89850000D02*
X133000000Y-89350000D01*
X137500000Y-89150000D02*
X137500000Y-89850000D01*
X137500000Y-89850000D02*
X133000000Y-89850000D01*
X138000000Y-84570000D02*
X138000000Y-83650000D01*
X138500000Y-83150000D02*
X138000000Y-83650000D01*
X141500000Y-83150000D02*
X138500000Y-83150000D01*
X141500000Y-87650000D02*
X139200000Y-87650000D01*
X142000000Y-83650000D02*
X141500000Y-83150000D01*
X142000000Y-87150000D02*
X141500000Y-87650000D01*
X137500000Y-89130000D02*
G75*
G02*
X139200000Y-87650000I1589999J-109999D01*
G01*
X138000000Y-84570000D02*
G75*
G02*
X137480000Y-85150000I-549999J-30001D01*
G01*
X115000000Y-117450000D02*
X119480000Y-117450000D01*
X115000000Y-118050000D02*
X115000000Y-117450000D01*
X115000000Y-122150000D02*
X115000000Y-121650000D01*
X119500000Y-121450000D02*
X119500000Y-122150000D01*
X119500000Y-122150000D02*
X115000000Y-122150000D01*
X120000000Y-116870000D02*
X120000000Y-115950000D01*
X120500000Y-115450000D02*
X120000000Y-115950000D01*
X123500000Y-115450000D02*
X120500000Y-115450000D01*
X123500000Y-119950000D02*
X121200000Y-119950000D01*
X124000000Y-115950000D02*
X123500000Y-115450000D01*
X124000000Y-119450000D02*
X123500000Y-119950000D01*
X119500000Y-121430000D02*
G75*
G02*
X121200000Y-119950000I1589999J-109999D01*
G01*
X120000000Y-116870000D02*
G75*
G02*
X119480000Y-117450000I-549999J-30001D01*
G01*
X115000000Y-83450000D02*
X119480000Y-83450000D01*
X115000000Y-84050000D02*
X115000000Y-83450000D01*
X115000000Y-88150000D02*
X115000000Y-87650000D01*
X119500000Y-87450000D02*
X119500000Y-88150000D01*
X119500000Y-88150000D02*
X115000000Y-88150000D01*
X120000000Y-82870000D02*
X120000000Y-81950000D01*
X120500000Y-81450000D02*
X120000000Y-81950000D01*
X123500000Y-81450000D02*
X120500000Y-81450000D01*
X123500000Y-85950000D02*
X121200000Y-85950000D01*
X124000000Y-81950000D02*
X123500000Y-81450000D01*
X124000000Y-85450000D02*
X123500000Y-85950000D01*
X119500000Y-87430000D02*
G75*
G02*
X121200000Y-85950000I1589999J-109999D01*
G01*
X120000000Y-82870000D02*
G75*
G02*
X119480000Y-83450000I-549999J-30001D01*
G01*
X115000000Y-134450000D02*
X119480000Y-134450000D01*
X115000000Y-135050000D02*
X115000000Y-134450000D01*
X115000000Y-139150000D02*
X115000000Y-138650000D01*
X119500000Y-138450000D02*
X119500000Y-139150000D01*
X119500000Y-139150000D02*
X115000000Y-139150000D01*
X120000000Y-133870000D02*
X120000000Y-132950000D01*
X120500000Y-132450000D02*
X120000000Y-132950000D01*
X123500000Y-132450000D02*
X120500000Y-132450000D01*
X123500000Y-136950000D02*
X121200000Y-136950000D01*
X124000000Y-132950000D02*
X123500000Y-132450000D01*
X124000000Y-136450000D02*
X123500000Y-136950000D01*
X119500000Y-138430000D02*
G75*
G02*
X121200000Y-136950000I1589999J-109999D01*
G01*
X120000000Y-133870000D02*
G75*
G02*
X119480000Y-134450000I-549999J-30001D01*
G01*
X79000000Y-134450000D02*
X83480000Y-134450000D01*
X79000000Y-135050000D02*
X79000000Y-134450000D01*
X79000000Y-139150000D02*
X79000000Y-138650000D01*
X83500000Y-138450000D02*
X83500000Y-139150000D01*
X83500000Y-139150000D02*
X79000000Y-139150000D01*
X84000000Y-133870000D02*
X84000000Y-132950000D01*
X84500000Y-132450000D02*
X84000000Y-132950000D01*
X87500000Y-132450000D02*
X84500000Y-132450000D01*
X87500000Y-136950000D02*
X85200000Y-136950000D01*
X88000000Y-132950000D02*
X87500000Y-132450000D01*
X88000000Y-136450000D02*
X87500000Y-136950000D01*
X83500000Y-138430000D02*
G75*
G02*
X85200000Y-136950000I1589999J-109999D01*
G01*
X84000000Y-133870000D02*
G75*
G02*
X83480000Y-134450000I-549999J-30001D01*
G01*
X43000000Y-143800000D02*
X47480000Y-143800000D01*
X43000000Y-144400000D02*
X43000000Y-143800000D01*
X43000000Y-148500000D02*
X43000000Y-148000000D01*
X47500000Y-147800000D02*
X47500000Y-148500000D01*
X47500000Y-148500000D02*
X43000000Y-148500000D01*
X48000000Y-143220000D02*
X48000000Y-142300000D01*
X48500000Y-141800000D02*
X48000000Y-142300000D01*
X51500000Y-141800000D02*
X48500000Y-141800000D01*
X51500000Y-146300000D02*
X49200000Y-146300000D01*
X52000000Y-142300000D02*
X51500000Y-141800000D01*
X52000000Y-145800000D02*
X51500000Y-146300000D01*
X47500000Y-147780000D02*
G75*
G02*
X49200000Y-146300000I1589999J-109999D01*
G01*
X48000000Y-143220000D02*
G75*
G02*
X47480000Y-143800000I-549999J-30001D01*
G01*
X115000000Y-100450000D02*
X119480000Y-100450000D01*
X115000000Y-101050000D02*
X115000000Y-100450000D01*
X115000000Y-105150000D02*
X115000000Y-104650000D01*
X119500000Y-104450000D02*
X119500000Y-105150000D01*
X119500000Y-105150000D02*
X115000000Y-105150000D01*
X120000000Y-99870000D02*
X120000000Y-98950000D01*
X120500000Y-98450000D02*
X120000000Y-98950000D01*
X123500000Y-98450000D02*
X120500000Y-98450000D01*
X123500000Y-102950000D02*
X121200000Y-102950000D01*
X124000000Y-98950000D02*
X123500000Y-98450000D01*
X124000000Y-102450000D02*
X123500000Y-102950000D01*
X119500000Y-104430000D02*
G75*
G02*
X121200000Y-102950000I1589999J-109999D01*
G01*
X120000000Y-99870000D02*
G75*
G02*
X119480000Y-100450000I-549999J-30001D01*
G01*
X61000000Y-143800000D02*
X65480000Y-143800000D01*
X61000000Y-144400000D02*
X61000000Y-143800000D01*
X61000000Y-148500000D02*
X61000000Y-148000000D01*
X65500000Y-147800000D02*
X65500000Y-148500000D01*
X65500000Y-148500000D02*
X61000000Y-148500000D01*
X66000000Y-143220000D02*
X66000000Y-142300000D01*
X66500000Y-141800000D02*
X66000000Y-142300000D01*
X69500000Y-141800000D02*
X66500000Y-141800000D01*
X69500000Y-146300000D02*
X67200000Y-146300000D01*
X70000000Y-142300000D02*
X69500000Y-141800000D01*
X70000000Y-145800000D02*
X69500000Y-146300000D01*
X65500000Y-147780000D02*
G75*
G02*
X67200000Y-146300000I1589999J-109999D01*
G01*
X66000000Y-143220000D02*
G75*
G02*
X65480000Y-143800000I-549999J-30001D01*
G01*
X79000000Y-83450000D02*
X83480000Y-83450000D01*
X79000000Y-84050000D02*
X79000000Y-83450000D01*
X79000000Y-88150000D02*
X79000000Y-87650000D01*
X83500000Y-87450000D02*
X83500000Y-88150000D01*
X83500000Y-88150000D02*
X79000000Y-88150000D01*
X84000000Y-82870000D02*
X84000000Y-81950000D01*
X84500000Y-81450000D02*
X84000000Y-81950000D01*
X87500000Y-81450000D02*
X84500000Y-81450000D01*
X87500000Y-85950000D02*
X85200000Y-85950000D01*
X88000000Y-81950000D02*
X87500000Y-81450000D01*
X88000000Y-85450000D02*
X87500000Y-85950000D01*
X83500000Y-87430000D02*
G75*
G02*
X85200000Y-85950000I1589999J-109999D01*
G01*
X84000000Y-82870000D02*
G75*
G02*
X83480000Y-83450000I-549999J-30001D01*
G01*
X97000000Y-97050000D02*
X101480000Y-97050000D01*
X97000000Y-97650000D02*
X97000000Y-97050000D01*
X97000000Y-101750000D02*
X97000000Y-101250000D01*
X101500000Y-101050000D02*
X101500000Y-101750000D01*
X101500000Y-101750000D02*
X97000000Y-101750000D01*
X102000000Y-96470000D02*
X102000000Y-95550000D01*
X102500000Y-95050000D02*
X102000000Y-95550000D01*
X105500000Y-95050000D02*
X102500000Y-95050000D01*
X105500000Y-99550000D02*
X103200000Y-99550000D01*
X106000000Y-95550000D02*
X105500000Y-95050000D01*
X106000000Y-99050000D02*
X105500000Y-99550000D01*
X101500000Y-101030000D02*
G75*
G02*
X103200000Y-99550000I1589999J-109999D01*
G01*
X102000000Y-96470000D02*
G75*
G02*
X101480000Y-97050000I-549999J-30001D01*
G01*
%LPC*%
G36*
G01*
X81251000Y-94539000D02*
X81251000Y-92761000D01*
G75*
G02*
X81301000Y-92711000I50000J0D01*
G01*
X83079000Y-92711000D01*
G75*
G02*
X83129000Y-92761000I0J-50000D01*
G01*
X83129000Y-94539000D01*
G75*
G02*
X83079000Y-94589000I-50000J0D01*
G01*
X81301000Y-94589000D01*
G75*
G02*
X81251000Y-94539000I0J50000D01*
G01*
G37*
G36*
G01*
X83850000Y-94250000D02*
X83850000Y-93050000D01*
G75*
G02*
X83900000Y-93000000I50000J0D01*
G01*
X84800000Y-93000000D01*
G75*
G02*
X84850000Y-93050000I0J-50000D01*
G01*
X84850000Y-94250000D01*
G75*
G02*
X84800000Y-94300000I-50000J0D01*
G01*
X83900000Y-94300000D01*
G75*
G02*
X83850000Y-94250000I0J50000D01*
G01*
G37*
G36*
G01*
X87150000Y-94250000D02*
X87150000Y-93050000D01*
G75*
G02*
X87200000Y-93000000I50000J0D01*
G01*
X88100000Y-93000000D01*
G75*
G02*
X88150000Y-93050000I0J-50000D01*
G01*
X88150000Y-94250000D01*
G75*
G02*
X88100000Y-94300000I-50000J0D01*
G01*
X87200000Y-94300000D01*
G75*
G02*
X87150000Y-94250000I0J50000D01*
G01*
G37*
D13*
X89810000Y-93650000D03*
G36*
G01*
X63251000Y-103889000D02*
X63251000Y-102111000D01*
G75*
G02*
X63301000Y-102061000I50000J0D01*
G01*
X65079000Y-102061000D01*
G75*
G02*
X65129000Y-102111000I0J-50000D01*
G01*
X65129000Y-103889000D01*
G75*
G02*
X65079000Y-103939000I-50000J0D01*
G01*
X63301000Y-103939000D01*
G75*
G02*
X63251000Y-103889000I0J50000D01*
G01*
G37*
G36*
G01*
X65850000Y-103600000D02*
X65850000Y-102400000D01*
G75*
G02*
X65900000Y-102350000I50000J0D01*
G01*
X66800000Y-102350000D01*
G75*
G02*
X66850000Y-102400000I0J-50000D01*
G01*
X66850000Y-103600000D01*
G75*
G02*
X66800000Y-103650000I-50000J0D01*
G01*
X65900000Y-103650000D01*
G75*
G02*
X65850000Y-103600000I0J50000D01*
G01*
G37*
G36*
G01*
X69150000Y-103600000D02*
X69150000Y-102400000D01*
G75*
G02*
X69200000Y-102350000I50000J0D01*
G01*
X70100000Y-102350000D01*
G75*
G02*
X70150000Y-102400000I0J-50000D01*
G01*
X70150000Y-103600000D01*
G75*
G02*
X70100000Y-103650000I-50000J0D01*
G01*
X69200000Y-103650000D01*
G75*
G02*
X69150000Y-103600000I0J50000D01*
G01*
G37*
X71810000Y-103000000D03*
G36*
G01*
X135251000Y-96239000D02*
X135251000Y-94461000D01*
G75*
G02*
X135301000Y-94411000I50000J0D01*
G01*
X137079000Y-94411000D01*
G75*
G02*
X137129000Y-94461000I0J-50000D01*
G01*
X137129000Y-96239000D01*
G75*
G02*
X137079000Y-96289000I-50000J0D01*
G01*
X135301000Y-96289000D01*
G75*
G02*
X135251000Y-96239000I0J50000D01*
G01*
G37*
G36*
G01*
X137850000Y-95950000D02*
X137850000Y-94750000D01*
G75*
G02*
X137900000Y-94700000I50000J0D01*
G01*
X138800000Y-94700000D01*
G75*
G02*
X138850000Y-94750000I0J-50000D01*
G01*
X138850000Y-95950000D01*
G75*
G02*
X138800000Y-96000000I-50000J0D01*
G01*
X137900000Y-96000000D01*
G75*
G02*
X137850000Y-95950000I0J50000D01*
G01*
G37*
G36*
G01*
X141150000Y-95950000D02*
X141150000Y-94750000D01*
G75*
G02*
X141200000Y-94700000I50000J0D01*
G01*
X142100000Y-94700000D01*
G75*
G02*
X142150000Y-94750000I0J-50000D01*
G01*
X142150000Y-95950000D01*
G75*
G02*
X142100000Y-96000000I-50000J0D01*
G01*
X141200000Y-96000000D01*
G75*
G02*
X141150000Y-95950000I0J50000D01*
G01*
G37*
X143810000Y-95350000D03*
G36*
G01*
X117251000Y-145539000D02*
X117251000Y-143761000D01*
G75*
G02*
X117301000Y-143711000I50000J0D01*
G01*
X119079000Y-143711000D01*
G75*
G02*
X119129000Y-143761000I0J-50000D01*
G01*
X119129000Y-145539000D01*
G75*
G02*
X119079000Y-145589000I-50000J0D01*
G01*
X117301000Y-145589000D01*
G75*
G02*
X117251000Y-145539000I0J50000D01*
G01*
G37*
G36*
G01*
X119850000Y-145250000D02*
X119850000Y-144050000D01*
G75*
G02*
X119900000Y-144000000I50000J0D01*
G01*
X120800000Y-144000000D01*
G75*
G02*
X120850000Y-144050000I0J-50000D01*
G01*
X120850000Y-145250000D01*
G75*
G02*
X120800000Y-145300000I-50000J0D01*
G01*
X119900000Y-145300000D01*
G75*
G02*
X119850000Y-145250000I0J50000D01*
G01*
G37*
G36*
G01*
X123150000Y-145250000D02*
X123150000Y-144050000D01*
G75*
G02*
X123200000Y-144000000I50000J0D01*
G01*
X124100000Y-144000000D01*
G75*
G02*
X124150000Y-144050000I0J-50000D01*
G01*
X124150000Y-145250000D01*
G75*
G02*
X124100000Y-145300000I-50000J0D01*
G01*
X123200000Y-145300000D01*
G75*
G02*
X123150000Y-145250000I0J50000D01*
G01*
G37*
X125810000Y-144650000D03*
G36*
G01*
X135873645Y-171506997D02*
X136762645Y-169967203D01*
G75*
G02*
X136830946Y-169948902I43301J-25000D01*
G01*
X138370740Y-170837902D01*
G75*
G02*
X138389041Y-170906203I-25000J-43301D01*
G01*
X137500041Y-172445997D01*
G75*
G02*
X137431740Y-172464298I-43301J25000D01*
G01*
X135891946Y-171575298D01*
G75*
G02*
X135873645Y-171506997I25000J43301D01*
G01*
G37*
G36*
G01*
X138268946Y-172556215D02*
X138868946Y-171516985D01*
G75*
G02*
X138937247Y-171498684I43301J-25000D01*
G01*
X139716669Y-171948684D01*
G75*
G02*
X139734970Y-172016985I-25000J-43301D01*
G01*
X139134970Y-173056215D01*
G75*
G02*
X139066669Y-173074516I-43301J25000D01*
G01*
X138287247Y-172624516D01*
G75*
G02*
X138268946Y-172556215I25000J43301D01*
G01*
G37*
G36*
G01*
X141126830Y-174206215D02*
X141726830Y-173166985D01*
G75*
G02*
X141795131Y-173148684I43301J-25000D01*
G01*
X142574553Y-173598684D01*
G75*
G02*
X142592854Y-173666985I-25000J-43301D01*
G01*
X141992854Y-174706215D01*
G75*
G02*
X141924553Y-174724516I-43301J25000D01*
G01*
X141145131Y-174274516D01*
G75*
G02*
X141126830Y-174206215I25000J43301D01*
G01*
G37*
X143730457Y-175016600D03*
D14*
X171000000Y-165600000D03*
X171000000Y-159100000D03*
G36*
G01*
X45251000Y-154889000D02*
X45251000Y-153111000D01*
G75*
G02*
X45301000Y-153061000I50000J0D01*
G01*
X47079000Y-153061000D01*
G75*
G02*
X47129000Y-153111000I0J-50000D01*
G01*
X47129000Y-154889000D01*
G75*
G02*
X47079000Y-154939000I-50000J0D01*
G01*
X45301000Y-154939000D01*
G75*
G02*
X45251000Y-154889000I0J50000D01*
G01*
G37*
G36*
G01*
X47850000Y-154600000D02*
X47850000Y-153400000D01*
G75*
G02*
X47900000Y-153350000I50000J0D01*
G01*
X48800000Y-153350000D01*
G75*
G02*
X48850000Y-153400000I0J-50000D01*
G01*
X48850000Y-154600000D01*
G75*
G02*
X48800000Y-154650000I-50000J0D01*
G01*
X47900000Y-154650000D01*
G75*
G02*
X47850000Y-154600000I0J50000D01*
G01*
G37*
G36*
G01*
X51150000Y-154600000D02*
X51150000Y-153400000D01*
G75*
G02*
X51200000Y-153350000I50000J0D01*
G01*
X52100000Y-153350000D01*
G75*
G02*
X52150000Y-153400000I0J-50000D01*
G01*
X52150000Y-154600000D01*
G75*
G02*
X52100000Y-154650000I-50000J0D01*
G01*
X51200000Y-154650000D01*
G75*
G02*
X51150000Y-154600000I0J50000D01*
G01*
G37*
D13*
X53810000Y-154000000D03*
G36*
G01*
X135251000Y-147239000D02*
X135251000Y-145461000D01*
G75*
G02*
X135301000Y-145411000I50000J0D01*
G01*
X137079000Y-145411000D01*
G75*
G02*
X137129000Y-145461000I0J-50000D01*
G01*
X137129000Y-147239000D01*
G75*
G02*
X137079000Y-147289000I-50000J0D01*
G01*
X135301000Y-147289000D01*
G75*
G02*
X135251000Y-147239000I0J50000D01*
G01*
G37*
G36*
G01*
X137850000Y-146950000D02*
X137850000Y-145750000D01*
G75*
G02*
X137900000Y-145700000I50000J0D01*
G01*
X138800000Y-145700000D01*
G75*
G02*
X138850000Y-145750000I0J-50000D01*
G01*
X138850000Y-146950000D01*
G75*
G02*
X138800000Y-147000000I-50000J0D01*
G01*
X137900000Y-147000000D01*
G75*
G02*
X137850000Y-146950000I0J50000D01*
G01*
G37*
G36*
G01*
X141150000Y-146950000D02*
X141150000Y-145750000D01*
G75*
G02*
X141200000Y-145700000I50000J0D01*
G01*
X142100000Y-145700000D01*
G75*
G02*
X142150000Y-145750000I0J-50000D01*
G01*
X142150000Y-146950000D01*
G75*
G02*
X142100000Y-147000000I-50000J0D01*
G01*
X141200000Y-147000000D01*
G75*
G02*
X141150000Y-146950000I0J50000D01*
G01*
G37*
X143810000Y-146350000D03*
G36*
G01*
X151534432Y-181961268D02*
X152791668Y-180704032D01*
G75*
G02*
X152862378Y-180704032I35355J-35355D01*
G01*
X154119614Y-181961268D01*
G75*
G02*
X154119614Y-182031978I-35355J-35355D01*
G01*
X152862378Y-183289214D01*
G75*
G02*
X152791668Y-183289214I-35355J35355D01*
G01*
X151534432Y-182031978D01*
G75*
G02*
X151534432Y-181961268I35355J35355D01*
G01*
G37*
G36*
G01*
X153576557Y-183594685D02*
X154425085Y-182746157D01*
G75*
G02*
X154495795Y-182746157I35355J-35355D01*
G01*
X155132191Y-183382553D01*
G75*
G02*
X155132191Y-183453263I-35355J-35355D01*
G01*
X154283663Y-184301791D01*
G75*
G02*
X154212953Y-184301791I-35355J35355D01*
G01*
X153576557Y-183665395D01*
G75*
G02*
X153576557Y-183594685I35355J35355D01*
G01*
G37*
G36*
G01*
X155910009Y-185928137D02*
X156758537Y-185079609D01*
G75*
G02*
X156829247Y-185079609I35355J-35355D01*
G01*
X157465643Y-185716005D01*
G75*
G02*
X157465643Y-185786715I-35355J-35355D01*
G01*
X156617115Y-186635243D01*
G75*
G02*
X156546405Y-186635243I-35355J35355D01*
G01*
X155910009Y-185998847D01*
G75*
G02*
X155910009Y-185928137I35355J35355D01*
G01*
G37*
X158215177Y-187384777D03*
G36*
G01*
X118040729Y-165462275D02*
X118500909Y-163744859D01*
G75*
G02*
X118562146Y-163709504I48296J-12941D01*
G01*
X120279562Y-164169684D01*
G75*
G02*
X120314917Y-164230921I-12941J-48296D01*
G01*
X119854737Y-165948337D01*
G75*
G02*
X119793500Y-165983692I-48296J12941D01*
G01*
X118076084Y-165523512D01*
G75*
G02*
X118040729Y-165462275I12941J48296D01*
G01*
G37*
G36*
G01*
X120625968Y-165855796D02*
X120936551Y-164696685D01*
G75*
G02*
X120997788Y-164661330I48296J-12941D01*
G01*
X121867121Y-164894267D01*
G75*
G02*
X121902476Y-164955504I-12941J-48296D01*
G01*
X121591893Y-166114615D01*
G75*
G02*
X121530656Y-166149970I-48296J12941D01*
G01*
X120661323Y-165917033D01*
G75*
G02*
X120625968Y-165855796I12941J48296D01*
G01*
G37*
G36*
G01*
X123813524Y-166709896D02*
X124124107Y-165550785D01*
G75*
G02*
X124185344Y-165515430I48296J-12941D01*
G01*
X125054677Y-165748367D01*
G75*
G02*
X125090032Y-165809604I-12941J-48296D01*
G01*
X124779449Y-166968715D01*
G75*
G02*
X124718212Y-167004070I-48296J12941D01*
G01*
X123848879Y-166771133D01*
G75*
G02*
X123813524Y-166709896I12941J48296D01*
G01*
G37*
X126538177Y-166818802D03*
G36*
G01*
X63251000Y-137889000D02*
X63251000Y-136111000D01*
G75*
G02*
X63301000Y-136061000I50000J0D01*
G01*
X65079000Y-136061000D01*
G75*
G02*
X65129000Y-136111000I0J-50000D01*
G01*
X65129000Y-137889000D01*
G75*
G02*
X65079000Y-137939000I-50000J0D01*
G01*
X63301000Y-137939000D01*
G75*
G02*
X63251000Y-137889000I0J50000D01*
G01*
G37*
G36*
G01*
X65850000Y-137600000D02*
X65850000Y-136400000D01*
G75*
G02*
X65900000Y-136350000I50000J0D01*
G01*
X66800000Y-136350000D01*
G75*
G02*
X66850000Y-136400000I0J-50000D01*
G01*
X66850000Y-137600000D01*
G75*
G02*
X66800000Y-137650000I-50000J0D01*
G01*
X65900000Y-137650000D01*
G75*
G02*
X65850000Y-137600000I0J50000D01*
G01*
G37*
G36*
G01*
X69150000Y-137600000D02*
X69150000Y-136400000D01*
G75*
G02*
X69200000Y-136350000I50000J0D01*
G01*
X70100000Y-136350000D01*
G75*
G02*
X70150000Y-136400000I0J-50000D01*
G01*
X70150000Y-137600000D01*
G75*
G02*
X70100000Y-137650000I-50000J0D01*
G01*
X69200000Y-137650000D01*
G75*
G02*
X69150000Y-137600000I0J50000D01*
G01*
G37*
X71810000Y-137000000D03*
G36*
G01*
X45251000Y-137889000D02*
X45251000Y-136111000D01*
G75*
G02*
X45301000Y-136061000I50000J0D01*
G01*
X47079000Y-136061000D01*
G75*
G02*
X47129000Y-136111000I0J-50000D01*
G01*
X47129000Y-137889000D01*
G75*
G02*
X47079000Y-137939000I-50000J0D01*
G01*
X45301000Y-137939000D01*
G75*
G02*
X45251000Y-137889000I0J50000D01*
G01*
G37*
G36*
G01*
X47850000Y-137600000D02*
X47850000Y-136400000D01*
G75*
G02*
X47900000Y-136350000I50000J0D01*
G01*
X48800000Y-136350000D01*
G75*
G02*
X48850000Y-136400000I0J-50000D01*
G01*
X48850000Y-137600000D01*
G75*
G02*
X48800000Y-137650000I-50000J0D01*
G01*
X47900000Y-137650000D01*
G75*
G02*
X47850000Y-137600000I0J50000D01*
G01*
G37*
G36*
G01*
X51150000Y-137600000D02*
X51150000Y-136400000D01*
G75*
G02*
X51200000Y-136350000I50000J0D01*
G01*
X52100000Y-136350000D01*
G75*
G02*
X52150000Y-136400000I0J-50000D01*
G01*
X52150000Y-137600000D01*
G75*
G02*
X52100000Y-137650000I-50000J0D01*
G01*
X51200000Y-137650000D01*
G75*
G02*
X51150000Y-137600000I0J50000D01*
G01*
G37*
X53810000Y-137000000D03*
G36*
G01*
X169315000Y-137250000D02*
X168515000Y-137250000D01*
G75*
G02*
X168465000Y-137200000I0J50000D01*
G01*
X168465000Y-136200000D01*
G75*
G02*
X168515000Y-136150000I50000J0D01*
G01*
X169315000Y-136150000D01*
G75*
G02*
X169365000Y-136200000I0J-50000D01*
G01*
X169365000Y-137200000D01*
G75*
G02*
X169315000Y-137250000I-50000J0D01*
G01*
G37*
G36*
G01*
X169315000Y-144550000D02*
X168515000Y-144550000D01*
G75*
G02*
X168465000Y-144500000I0J50000D01*
G01*
X168465000Y-143500000D01*
G75*
G02*
X168515000Y-143450000I50000J0D01*
G01*
X169315000Y-143450000D01*
G75*
G02*
X169365000Y-143500000I0J-50000D01*
G01*
X169365000Y-144500000D01*
G75*
G02*
X169315000Y-144550000I-50000J0D01*
G01*
G37*
D15*
X170025000Y-138850000D03*
X170025000Y-141850000D03*
G36*
G01*
X171525000Y-137250000D02*
X170725000Y-137250000D01*
G75*
G02*
X170675000Y-137200000I0J50000D01*
G01*
X170675000Y-136200000D01*
G75*
G02*
X170725000Y-136150000I50000J0D01*
G01*
X171525000Y-136150000D01*
G75*
G02*
X171575000Y-136200000I0J-50000D01*
G01*
X171575000Y-137200000D01*
G75*
G02*
X171525000Y-137250000I-50000J0D01*
G01*
G37*
G36*
G01*
X171525000Y-144550000D02*
X170725000Y-144550000D01*
G75*
G02*
X170675000Y-144500000I0J50000D01*
G01*
X170675000Y-143500000D01*
G75*
G02*
X170725000Y-143450000I50000J0D01*
G01*
X171525000Y-143450000D01*
G75*
G02*
X171575000Y-143500000I0J-50000D01*
G01*
X171575000Y-144500000D01*
G75*
G02*
X171525000Y-144550000I-50000J0D01*
G01*
G37*
G36*
G01*
X169015000Y-143000000D02*
X167515000Y-143000000D01*
G75*
G02*
X167465000Y-142950000I0J50000D01*
G01*
X167465000Y-142250000D01*
G75*
G02*
X167515000Y-142200000I50000J0D01*
G01*
X169015000Y-142200000D01*
G75*
G02*
X169065000Y-142250000I0J-50000D01*
G01*
X169065000Y-142950000D01*
G75*
G02*
X169015000Y-143000000I-50000J0D01*
G01*
G37*
G36*
G01*
X169015000Y-140000000D02*
X167515000Y-140000000D01*
G75*
G02*
X167465000Y-139950000I0J50000D01*
G01*
X167465000Y-139250000D01*
G75*
G02*
X167515000Y-139200000I50000J0D01*
G01*
X169015000Y-139200000D01*
G75*
G02*
X169065000Y-139250000I0J-50000D01*
G01*
X169065000Y-139950000D01*
G75*
G02*
X169015000Y-140000000I-50000J0D01*
G01*
G37*
G36*
G01*
X169015000Y-138500000D02*
X167515000Y-138500000D01*
G75*
G02*
X167465000Y-138450000I0J50000D01*
G01*
X167465000Y-137750000D01*
G75*
G02*
X167515000Y-137700000I50000J0D01*
G01*
X169015000Y-137700000D01*
G75*
G02*
X169065000Y-137750000I0J-50000D01*
G01*
X169065000Y-138450000D01*
G75*
G02*
X169015000Y-138500000I-50000J0D01*
G01*
G37*
G36*
G01*
X45251000Y-120889000D02*
X45251000Y-119111000D01*
G75*
G02*
X45301000Y-119061000I50000J0D01*
G01*
X47079000Y-119061000D01*
G75*
G02*
X47129000Y-119111000I0J-50000D01*
G01*
X47129000Y-120889000D01*
G75*
G02*
X47079000Y-120939000I-50000J0D01*
G01*
X45301000Y-120939000D01*
G75*
G02*
X45251000Y-120889000I0J50000D01*
G01*
G37*
G36*
G01*
X47850000Y-120600000D02*
X47850000Y-119400000D01*
G75*
G02*
X47900000Y-119350000I50000J0D01*
G01*
X48800000Y-119350000D01*
G75*
G02*
X48850000Y-119400000I0J-50000D01*
G01*
X48850000Y-120600000D01*
G75*
G02*
X48800000Y-120650000I-50000J0D01*
G01*
X47900000Y-120650000D01*
G75*
G02*
X47850000Y-120600000I0J50000D01*
G01*
G37*
G36*
G01*
X51150000Y-120600000D02*
X51150000Y-119400000D01*
G75*
G02*
X51200000Y-119350000I50000J0D01*
G01*
X52100000Y-119350000D01*
G75*
G02*
X52150000Y-119400000I0J-50000D01*
G01*
X52150000Y-120600000D01*
G75*
G02*
X52100000Y-120650000I-50000J0D01*
G01*
X51200000Y-120650000D01*
G75*
G02*
X51150000Y-120600000I0J50000D01*
G01*
G37*
D13*
X53810000Y-120000000D03*
G36*
G01*
X63251000Y-120889000D02*
X63251000Y-119111000D01*
G75*
G02*
X63301000Y-119061000I50000J0D01*
G01*
X65079000Y-119061000D01*
G75*
G02*
X65129000Y-119111000I0J-50000D01*
G01*
X65129000Y-120889000D01*
G75*
G02*
X65079000Y-120939000I-50000J0D01*
G01*
X63301000Y-120939000D01*
G75*
G02*
X63251000Y-120889000I0J50000D01*
G01*
G37*
G36*
G01*
X65850000Y-120600000D02*
X65850000Y-119400000D01*
G75*
G02*
X65900000Y-119350000I50000J0D01*
G01*
X66800000Y-119350000D01*
G75*
G02*
X66850000Y-119400000I0J-50000D01*
G01*
X66850000Y-120600000D01*
G75*
G02*
X66800000Y-120650000I-50000J0D01*
G01*
X65900000Y-120650000D01*
G75*
G02*
X65850000Y-120600000I0J50000D01*
G01*
G37*
G36*
G01*
X69150000Y-120600000D02*
X69150000Y-119400000D01*
G75*
G02*
X69200000Y-119350000I50000J0D01*
G01*
X70100000Y-119350000D01*
G75*
G02*
X70150000Y-119400000I0J-50000D01*
G01*
X70150000Y-120600000D01*
G75*
G02*
X70100000Y-120650000I-50000J0D01*
G01*
X69200000Y-120650000D01*
G75*
G02*
X69150000Y-120600000I0J50000D01*
G01*
G37*
X71810000Y-120000000D03*
G36*
G01*
X99251000Y-125139000D02*
X99251000Y-123361000D01*
G75*
G02*
X99301000Y-123311000I50000J0D01*
G01*
X101079000Y-123311000D01*
G75*
G02*
X101129000Y-123361000I0J-50000D01*
G01*
X101129000Y-125139000D01*
G75*
G02*
X101079000Y-125189000I-50000J0D01*
G01*
X99301000Y-125189000D01*
G75*
G02*
X99251000Y-125139000I0J50000D01*
G01*
G37*
G36*
G01*
X101850000Y-124850000D02*
X101850000Y-123650000D01*
G75*
G02*
X101900000Y-123600000I50000J0D01*
G01*
X102800000Y-123600000D01*
G75*
G02*
X102850000Y-123650000I0J-50000D01*
G01*
X102850000Y-124850000D01*
G75*
G02*
X102800000Y-124900000I-50000J0D01*
G01*
X101900000Y-124900000D01*
G75*
G02*
X101850000Y-124850000I0J50000D01*
G01*
G37*
G36*
G01*
X105150000Y-124850000D02*
X105150000Y-123650000D01*
G75*
G02*
X105200000Y-123600000I50000J0D01*
G01*
X106100000Y-123600000D01*
G75*
G02*
X106150000Y-123650000I0J-50000D01*
G01*
X106150000Y-124850000D01*
G75*
G02*
X106100000Y-124900000I-50000J0D01*
G01*
X105200000Y-124900000D01*
G75*
G02*
X105150000Y-124850000I0J50000D01*
G01*
G37*
X107810000Y-124250000D03*
G36*
G01*
X45251000Y-103889000D02*
X45251000Y-102111000D01*
G75*
G02*
X45301000Y-102061000I50000J0D01*
G01*
X47079000Y-102061000D01*
G75*
G02*
X47129000Y-102111000I0J-50000D01*
G01*
X47129000Y-103889000D01*
G75*
G02*
X47079000Y-103939000I-50000J0D01*
G01*
X45301000Y-103939000D01*
G75*
G02*
X45251000Y-103889000I0J50000D01*
G01*
G37*
G36*
G01*
X47850000Y-103600000D02*
X47850000Y-102400000D01*
G75*
G02*
X47900000Y-102350000I50000J0D01*
G01*
X48800000Y-102350000D01*
G75*
G02*
X48850000Y-102400000I0J-50000D01*
G01*
X48850000Y-103600000D01*
G75*
G02*
X48800000Y-103650000I-50000J0D01*
G01*
X47900000Y-103650000D01*
G75*
G02*
X47850000Y-103600000I0J50000D01*
G01*
G37*
G36*
G01*
X51150000Y-103600000D02*
X51150000Y-102400000D01*
G75*
G02*
X51200000Y-102350000I50000J0D01*
G01*
X52100000Y-102350000D01*
G75*
G02*
X52150000Y-102400000I0J-50000D01*
G01*
X52150000Y-103600000D01*
G75*
G02*
X52100000Y-103650000I-50000J0D01*
G01*
X51200000Y-103650000D01*
G75*
G02*
X51150000Y-103600000I0J50000D01*
G01*
G37*
X53810000Y-103000000D03*
D16*
X171400000Y-152350000D03*
X164400000Y-152350000D03*
D17*
X169800000Y-150050000D03*
X169800000Y-154650000D03*
X166800000Y-150050000D03*
X166800000Y-154650000D03*
D18*
X162250000Y-150050000D03*
X162250000Y-154650000D03*
G36*
G01*
X63251000Y-154889000D02*
X63251000Y-153111000D01*
G75*
G02*
X63301000Y-153061000I50000J0D01*
G01*
X65079000Y-153061000D01*
G75*
G02*
X65129000Y-153111000I0J-50000D01*
G01*
X65129000Y-154889000D01*
G75*
G02*
X65079000Y-154939000I-50000J0D01*
G01*
X63301000Y-154939000D01*
G75*
G02*
X63251000Y-154889000I0J50000D01*
G01*
G37*
G36*
G01*
X65850000Y-154600000D02*
X65850000Y-153400000D01*
G75*
G02*
X65900000Y-153350000I50000J0D01*
G01*
X66800000Y-153350000D01*
G75*
G02*
X66850000Y-153400000I0J-50000D01*
G01*
X66850000Y-154600000D01*
G75*
G02*
X66800000Y-154650000I-50000J0D01*
G01*
X65900000Y-154650000D01*
G75*
G02*
X65850000Y-154600000I0J50000D01*
G01*
G37*
G36*
G01*
X69150000Y-154600000D02*
X69150000Y-153400000D01*
G75*
G02*
X69200000Y-153350000I50000J0D01*
G01*
X70100000Y-153350000D01*
G75*
G02*
X70150000Y-153400000I0J-50000D01*
G01*
X70150000Y-154600000D01*
G75*
G02*
X70100000Y-154650000I-50000J0D01*
G01*
X69200000Y-154650000D01*
G75*
G02*
X69150000Y-154600000I0J50000D01*
G01*
G37*
D13*
X71810000Y-154000000D03*
G36*
G01*
X135251000Y-113239000D02*
X135251000Y-111461000D01*
G75*
G02*
X135301000Y-111411000I50000J0D01*
G01*
X137079000Y-111411000D01*
G75*
G02*
X137129000Y-111461000I0J-50000D01*
G01*
X137129000Y-113239000D01*
G75*
G02*
X137079000Y-113289000I-50000J0D01*
G01*
X135301000Y-113289000D01*
G75*
G02*
X135251000Y-113239000I0J50000D01*
G01*
G37*
G36*
G01*
X137850000Y-112950000D02*
X137850000Y-111750000D01*
G75*
G02*
X137900000Y-111700000I50000J0D01*
G01*
X138800000Y-111700000D01*
G75*
G02*
X138850000Y-111750000I0J-50000D01*
G01*
X138850000Y-112950000D01*
G75*
G02*
X138800000Y-113000000I-50000J0D01*
G01*
X137900000Y-113000000D01*
G75*
G02*
X137850000Y-112950000I0J50000D01*
G01*
G37*
G36*
G01*
X141150000Y-112950000D02*
X141150000Y-111750000D01*
G75*
G02*
X141200000Y-111700000I50000J0D01*
G01*
X142100000Y-111700000D01*
G75*
G02*
X142150000Y-111750000I0J-50000D01*
G01*
X142150000Y-112950000D01*
G75*
G02*
X142100000Y-113000000I-50000J0D01*
G01*
X141200000Y-113000000D01*
G75*
G02*
X141150000Y-112950000I0J50000D01*
G01*
G37*
X143810000Y-112350000D03*
G36*
G01*
X81251000Y-111539000D02*
X81251000Y-109761000D01*
G75*
G02*
X81301000Y-109711000I50000J0D01*
G01*
X83079000Y-109711000D01*
G75*
G02*
X83129000Y-109761000I0J-50000D01*
G01*
X83129000Y-111539000D01*
G75*
G02*
X83079000Y-111589000I-50000J0D01*
G01*
X81301000Y-111589000D01*
G75*
G02*
X81251000Y-111539000I0J50000D01*
G01*
G37*
G36*
G01*
X83850000Y-111250000D02*
X83850000Y-110050000D01*
G75*
G02*
X83900000Y-110000000I50000J0D01*
G01*
X84800000Y-110000000D01*
G75*
G02*
X84850000Y-110050000I0J-50000D01*
G01*
X84850000Y-111250000D01*
G75*
G02*
X84800000Y-111300000I-50000J0D01*
G01*
X83900000Y-111300000D01*
G75*
G02*
X83850000Y-111250000I0J50000D01*
G01*
G37*
G36*
G01*
X87150000Y-111250000D02*
X87150000Y-110050000D01*
G75*
G02*
X87200000Y-110000000I50000J0D01*
G01*
X88100000Y-110000000D01*
G75*
G02*
X88150000Y-110050000I0J-50000D01*
G01*
X88150000Y-111250000D01*
G75*
G02*
X88100000Y-111300000I-50000J0D01*
G01*
X87200000Y-111300000D01*
G75*
G02*
X87150000Y-111250000I0J50000D01*
G01*
G37*
X89810000Y-110650000D03*
G36*
G01*
X99251000Y-108139000D02*
X99251000Y-106361000D01*
G75*
G02*
X99301000Y-106311000I50000J0D01*
G01*
X101079000Y-106311000D01*
G75*
G02*
X101129000Y-106361000I0J-50000D01*
G01*
X101129000Y-108139000D01*
G75*
G02*
X101079000Y-108189000I-50000J0D01*
G01*
X99301000Y-108189000D01*
G75*
G02*
X99251000Y-108139000I0J50000D01*
G01*
G37*
G36*
G01*
X101850000Y-107850000D02*
X101850000Y-106650000D01*
G75*
G02*
X101900000Y-106600000I50000J0D01*
G01*
X102800000Y-106600000D01*
G75*
G02*
X102850000Y-106650000I0J-50000D01*
G01*
X102850000Y-107850000D01*
G75*
G02*
X102800000Y-107900000I-50000J0D01*
G01*
X101900000Y-107900000D01*
G75*
G02*
X101850000Y-107850000I0J50000D01*
G01*
G37*
G36*
G01*
X105150000Y-107850000D02*
X105150000Y-106650000D01*
G75*
G02*
X105200000Y-106600000I50000J0D01*
G01*
X106100000Y-106600000D01*
G75*
G02*
X106150000Y-106650000I0J-50000D01*
G01*
X106150000Y-107850000D01*
G75*
G02*
X106100000Y-107900000I-50000J0D01*
G01*
X105200000Y-107900000D01*
G75*
G02*
X105150000Y-107850000I0J50000D01*
G01*
G37*
X107810000Y-107250000D03*
G36*
G01*
X99251000Y-142139000D02*
X99251000Y-140361000D01*
G75*
G02*
X99301000Y-140311000I50000J0D01*
G01*
X101079000Y-140311000D01*
G75*
G02*
X101129000Y-140361000I0J-50000D01*
G01*
X101129000Y-142139000D01*
G75*
G02*
X101079000Y-142189000I-50000J0D01*
G01*
X99301000Y-142189000D01*
G75*
G02*
X99251000Y-142139000I0J50000D01*
G01*
G37*
G36*
G01*
X101850000Y-141850000D02*
X101850000Y-140650000D01*
G75*
G02*
X101900000Y-140600000I50000J0D01*
G01*
X102800000Y-140600000D01*
G75*
G02*
X102850000Y-140650000I0J-50000D01*
G01*
X102850000Y-141850000D01*
G75*
G02*
X102800000Y-141900000I-50000J0D01*
G01*
X101900000Y-141900000D01*
G75*
G02*
X101850000Y-141850000I0J50000D01*
G01*
G37*
G36*
G01*
X105150000Y-141850000D02*
X105150000Y-140650000D01*
G75*
G02*
X105200000Y-140600000I50000J0D01*
G01*
X106100000Y-140600000D01*
G75*
G02*
X106150000Y-140650000I0J-50000D01*
G01*
X106150000Y-141850000D01*
G75*
G02*
X106100000Y-141900000I-50000J0D01*
G01*
X105200000Y-141900000D01*
G75*
G02*
X105150000Y-141850000I0J50000D01*
G01*
G37*
X107810000Y-141250000D03*
G36*
X159635355Y-142248645D02*
G01*
X159650000Y-142284000D01*
X159650000Y-143534000D01*
X159635355Y-143569355D01*
X159600000Y-143584000D01*
X159564645Y-143569355D01*
X159000000Y-143004710D01*
X158435355Y-143569355D01*
X158400000Y-143584000D01*
X158364645Y-143569355D01*
X158350000Y-143534000D01*
X158350000Y-142284000D01*
X158364645Y-142248645D01*
X158400000Y-142234000D01*
X159600000Y-142234000D01*
X159635355Y-142248645D01*
G37*
G36*
X157635355Y-142248645D02*
G01*
X157650000Y-142284000D01*
X157650000Y-143534000D01*
X157635355Y-143569355D01*
X157600000Y-143584000D01*
X157564645Y-143569355D01*
X157000000Y-143004710D01*
X156435355Y-143569355D01*
X156400000Y-143584000D01*
X156364645Y-143569355D01*
X156350000Y-143534000D01*
X156350000Y-142284000D01*
X156364645Y-142248645D01*
X156400000Y-142234000D01*
X157600000Y-142234000D01*
X157635355Y-142248645D01*
G37*
D19*
X159000000Y-145350000D03*
X157000000Y-145350000D03*
G36*
X159035355Y-143114645D02*
G01*
X159635355Y-143714645D01*
X159650000Y-143750000D01*
X159650000Y-143950000D01*
X159635355Y-143985355D01*
X159600000Y-144000000D01*
X158400000Y-144000000D01*
X158364645Y-143985355D01*
X158350000Y-143950000D01*
X158350000Y-143750000D01*
X158364645Y-143714645D01*
X158964645Y-143114645D01*
X159000000Y-143100000D01*
X159035355Y-143114645D01*
G37*
G36*
X157035355Y-143114645D02*
G01*
X157635355Y-143714645D01*
X157650000Y-143750000D01*
X157650000Y-143950000D01*
X157635355Y-143985355D01*
X157600000Y-144000000D01*
X156400000Y-144000000D01*
X156364645Y-143985355D01*
X156350000Y-143950000D01*
X156350000Y-143750000D01*
X156364645Y-143714645D01*
X156964645Y-143114645D01*
X157000000Y-143100000D01*
X157035355Y-143114645D01*
G37*
G36*
G01*
X117251000Y-94539000D02*
X117251000Y-92761000D01*
G75*
G02*
X117301000Y-92711000I50000J0D01*
G01*
X119079000Y-92711000D01*
G75*
G02*
X119129000Y-92761000I0J-50000D01*
G01*
X119129000Y-94539000D01*
G75*
G02*
X119079000Y-94589000I-50000J0D01*
G01*
X117301000Y-94589000D01*
G75*
G02*
X117251000Y-94539000I0J50000D01*
G01*
G37*
G36*
G01*
X119850000Y-94250000D02*
X119850000Y-93050000D01*
G75*
G02*
X119900000Y-93000000I50000J0D01*
G01*
X120800000Y-93000000D01*
G75*
G02*
X120850000Y-93050000I0J-50000D01*
G01*
X120850000Y-94250000D01*
G75*
G02*
X120800000Y-94300000I-50000J0D01*
G01*
X119900000Y-94300000D01*
G75*
G02*
X119850000Y-94250000I0J50000D01*
G01*
G37*
G36*
G01*
X123150000Y-94250000D02*
X123150000Y-93050000D01*
G75*
G02*
X123200000Y-93000000I50000J0D01*
G01*
X124100000Y-93000000D01*
G75*
G02*
X124150000Y-93050000I0J-50000D01*
G01*
X124150000Y-94250000D01*
G75*
G02*
X124100000Y-94300000I-50000J0D01*
G01*
X123200000Y-94300000D01*
G75*
G02*
X123150000Y-94250000I0J50000D01*
G01*
G37*
D13*
X125810000Y-93650000D03*
G36*
G01*
X81251000Y-128539000D02*
X81251000Y-126761000D01*
G75*
G02*
X81301000Y-126711000I50000J0D01*
G01*
X83079000Y-126711000D01*
G75*
G02*
X83129000Y-126761000I0J-50000D01*
G01*
X83129000Y-128539000D01*
G75*
G02*
X83079000Y-128589000I-50000J0D01*
G01*
X81301000Y-128589000D01*
G75*
G02*
X81251000Y-128539000I0J50000D01*
G01*
G37*
G36*
G01*
X83850000Y-128250000D02*
X83850000Y-127050000D01*
G75*
G02*
X83900000Y-127000000I50000J0D01*
G01*
X84800000Y-127000000D01*
G75*
G02*
X84850000Y-127050000I0J-50000D01*
G01*
X84850000Y-128250000D01*
G75*
G02*
X84800000Y-128300000I-50000J0D01*
G01*
X83900000Y-128300000D01*
G75*
G02*
X83850000Y-128250000I0J50000D01*
G01*
G37*
G36*
G01*
X87150000Y-128250000D02*
X87150000Y-127050000D01*
G75*
G02*
X87200000Y-127000000I50000J0D01*
G01*
X88100000Y-127000000D01*
G75*
G02*
X88150000Y-127050000I0J-50000D01*
G01*
X88150000Y-128250000D01*
G75*
G02*
X88100000Y-128300000I-50000J0D01*
G01*
X87200000Y-128300000D01*
G75*
G02*
X87150000Y-128250000I0J50000D01*
G01*
G37*
X89810000Y-127650000D03*
G36*
G01*
X117251000Y-111539000D02*
X117251000Y-109761000D01*
G75*
G02*
X117301000Y-109711000I50000J0D01*
G01*
X119079000Y-109711000D01*
G75*
G02*
X119129000Y-109761000I0J-50000D01*
G01*
X119129000Y-111539000D01*
G75*
G02*
X119079000Y-111589000I-50000J0D01*
G01*
X117301000Y-111589000D01*
G75*
G02*
X117251000Y-111539000I0J50000D01*
G01*
G37*
G36*
G01*
X119850000Y-111250000D02*
X119850000Y-110050000D01*
G75*
G02*
X119900000Y-110000000I50000J0D01*
G01*
X120800000Y-110000000D01*
G75*
G02*
X120850000Y-110050000I0J-50000D01*
G01*
X120850000Y-111250000D01*
G75*
G02*
X120800000Y-111300000I-50000J0D01*
G01*
X119900000Y-111300000D01*
G75*
G02*
X119850000Y-111250000I0J50000D01*
G01*
G37*
G36*
G01*
X123150000Y-111250000D02*
X123150000Y-110050000D01*
G75*
G02*
X123200000Y-110000000I50000J0D01*
G01*
X124100000Y-110000000D01*
G75*
G02*
X124150000Y-110050000I0J-50000D01*
G01*
X124150000Y-111250000D01*
G75*
G02*
X124100000Y-111300000I-50000J0D01*
G01*
X123200000Y-111300000D01*
G75*
G02*
X123150000Y-111250000I0J50000D01*
G01*
G37*
X125810000Y-110650000D03*
G36*
G01*
X168130000Y-103250000D02*
X168130000Y-102050000D01*
G75*
G02*
X168180000Y-102000000I50000J0D01*
G01*
X168780000Y-102000000D01*
G75*
G02*
X168830000Y-102050000I0J-50000D01*
G01*
X168830000Y-103250000D01*
G75*
G02*
X168780000Y-103300000I-50000J0D01*
G01*
X168180000Y-103300000D01*
G75*
G02*
X168130000Y-103250000I0J50000D01*
G01*
G37*
D14*
X170620000Y-102650000D03*
G36*
G01*
X168130000Y-105790000D02*
X168130000Y-104590000D01*
G75*
G02*
X168180000Y-104540000I50000J0D01*
G01*
X168780000Y-104540000D01*
G75*
G02*
X168830000Y-104590000I0J-50000D01*
G01*
X168830000Y-105790000D01*
G75*
G02*
X168780000Y-105840000I-50000J0D01*
G01*
X168180000Y-105840000D01*
G75*
G02*
X168130000Y-105790000I0J50000D01*
G01*
G37*
X170620000Y-105190000D03*
G36*
G01*
X168130000Y-108330000D02*
X168130000Y-107130000D01*
G75*
G02*
X168180000Y-107080000I50000J0D01*
G01*
X168780000Y-107080000D01*
G75*
G02*
X168830000Y-107130000I0J-50000D01*
G01*
X168830000Y-108330000D01*
G75*
G02*
X168780000Y-108380000I-50000J0D01*
G01*
X168180000Y-108380000D01*
G75*
G02*
X168130000Y-108330000I0J50000D01*
G01*
G37*
X170620000Y-107730000D03*
G36*
G01*
X168130000Y-110870000D02*
X168130000Y-109670000D01*
G75*
G02*
X168180000Y-109620000I50000J0D01*
G01*
X168780000Y-109620000D01*
G75*
G02*
X168830000Y-109670000I0J-50000D01*
G01*
X168830000Y-110870000D01*
G75*
G02*
X168780000Y-110920000I-50000J0D01*
G01*
X168180000Y-110920000D01*
G75*
G02*
X168130000Y-110870000I0J50000D01*
G01*
G37*
X170620000Y-110270000D03*
G36*
G01*
X168130000Y-113410000D02*
X168130000Y-112210000D01*
G75*
G02*
X168180000Y-112160000I50000J0D01*
G01*
X168780000Y-112160000D01*
G75*
G02*
X168830000Y-112210000I0J-50000D01*
G01*
X168830000Y-113410000D01*
G75*
G02*
X168780000Y-113460000I-50000J0D01*
G01*
X168180000Y-113460000D01*
G75*
G02*
X168130000Y-113410000I0J50000D01*
G01*
G37*
X170620000Y-112810000D03*
G36*
G01*
X168130000Y-115950000D02*
X168130000Y-114750000D01*
G75*
G02*
X168180000Y-114700000I50000J0D01*
G01*
X168780000Y-114700000D01*
G75*
G02*
X168830000Y-114750000I0J-50000D01*
G01*
X168830000Y-115950000D01*
G75*
G02*
X168780000Y-116000000I-50000J0D01*
G01*
X168180000Y-116000000D01*
G75*
G02*
X168130000Y-115950000I0J50000D01*
G01*
G37*
X170620000Y-115350000D03*
G36*
G01*
X168130000Y-118490000D02*
X168130000Y-117290000D01*
G75*
G02*
X168180000Y-117240000I50000J0D01*
G01*
X168780000Y-117240000D01*
G75*
G02*
X168830000Y-117290000I0J-50000D01*
G01*
X168830000Y-118490000D01*
G75*
G02*
X168780000Y-118540000I-50000J0D01*
G01*
X168180000Y-118540000D01*
G75*
G02*
X168130000Y-118490000I0J50000D01*
G01*
G37*
X170620000Y-117890000D03*
G36*
G01*
X168130000Y-121030000D02*
X168130000Y-119830000D01*
G75*
G02*
X168180000Y-119780000I50000J0D01*
G01*
X168780000Y-119780000D01*
G75*
G02*
X168830000Y-119830000I0J-50000D01*
G01*
X168830000Y-121030000D01*
G75*
G02*
X168780000Y-121080000I-50000J0D01*
G01*
X168180000Y-121080000D01*
G75*
G02*
X168130000Y-121030000I0J50000D01*
G01*
G37*
X170620000Y-120430000D03*
G36*
G01*
X168130000Y-123570000D02*
X168130000Y-122370000D01*
G75*
G02*
X168180000Y-122320000I50000J0D01*
G01*
X168780000Y-122320000D01*
G75*
G02*
X168830000Y-122370000I0J-50000D01*
G01*
X168830000Y-123570000D01*
G75*
G02*
X168780000Y-123620000I-50000J0D01*
G01*
X168180000Y-123620000D01*
G75*
G02*
X168130000Y-123570000I0J50000D01*
G01*
G37*
X170620000Y-122970000D03*
G36*
G01*
X168130000Y-126110000D02*
X168130000Y-124910000D01*
G75*
G02*
X168180000Y-124860000I50000J0D01*
G01*
X168780000Y-124860000D01*
G75*
G02*
X168830000Y-124910000I0J-50000D01*
G01*
X168830000Y-126110000D01*
G75*
G02*
X168780000Y-126160000I-50000J0D01*
G01*
X168180000Y-126160000D01*
G75*
G02*
X168130000Y-126110000I0J50000D01*
G01*
G37*
X170620000Y-125510000D03*
G36*
G01*
X168130000Y-128650000D02*
X168130000Y-127450000D01*
G75*
G02*
X168180000Y-127400000I50000J0D01*
G01*
X168780000Y-127400000D01*
G75*
G02*
X168830000Y-127450000I0J-50000D01*
G01*
X168830000Y-128650000D01*
G75*
G02*
X168780000Y-128700000I-50000J0D01*
G01*
X168180000Y-128700000D01*
G75*
G02*
X168130000Y-128650000I0J50000D01*
G01*
G37*
X170620000Y-128050000D03*
G36*
G01*
X168130000Y-131190000D02*
X168130000Y-129990000D01*
G75*
G02*
X168180000Y-129940000I50000J0D01*
G01*
X168780000Y-129940000D01*
G75*
G02*
X168830000Y-129990000I0J-50000D01*
G01*
X168830000Y-131190000D01*
G75*
G02*
X168780000Y-131240000I-50000J0D01*
G01*
X168180000Y-131240000D01*
G75*
G02*
X168130000Y-131190000I0J50000D01*
G01*
G37*
X170620000Y-130590000D03*
X155380000Y-130590000D03*
G36*
G01*
X157170000Y-131190000D02*
X157170000Y-129990000D01*
G75*
G02*
X157220000Y-129940000I50000J0D01*
G01*
X157820000Y-129940000D01*
G75*
G02*
X157870000Y-129990000I0J-50000D01*
G01*
X157870000Y-131190000D01*
G75*
G02*
X157820000Y-131240000I-50000J0D01*
G01*
X157220000Y-131240000D01*
G75*
G02*
X157170000Y-131190000I0J50000D01*
G01*
G37*
X155380000Y-128050000D03*
G36*
G01*
X157170000Y-128650000D02*
X157170000Y-127450000D01*
G75*
G02*
X157220000Y-127400000I50000J0D01*
G01*
X157820000Y-127400000D01*
G75*
G02*
X157870000Y-127450000I0J-50000D01*
G01*
X157870000Y-128650000D01*
G75*
G02*
X157820000Y-128700000I-50000J0D01*
G01*
X157220000Y-128700000D01*
G75*
G02*
X157170000Y-128650000I0J50000D01*
G01*
G37*
X155380000Y-125510000D03*
G36*
G01*
X157170000Y-126110000D02*
X157170000Y-124910000D01*
G75*
G02*
X157220000Y-124860000I50000J0D01*
G01*
X157820000Y-124860000D01*
G75*
G02*
X157870000Y-124910000I0J-50000D01*
G01*
X157870000Y-126110000D01*
G75*
G02*
X157820000Y-126160000I-50000J0D01*
G01*
X157220000Y-126160000D01*
G75*
G02*
X157170000Y-126110000I0J50000D01*
G01*
G37*
X155380000Y-122970000D03*
G36*
G01*
X157170000Y-123570000D02*
X157170000Y-122370000D01*
G75*
G02*
X157220000Y-122320000I50000J0D01*
G01*
X157820000Y-122320000D01*
G75*
G02*
X157870000Y-122370000I0J-50000D01*
G01*
X157870000Y-123570000D01*
G75*
G02*
X157820000Y-123620000I-50000J0D01*
G01*
X157220000Y-123620000D01*
G75*
G02*
X157170000Y-123570000I0J50000D01*
G01*
G37*
X155380000Y-120430000D03*
G36*
G01*
X157170000Y-121030000D02*
X157170000Y-119830000D01*
G75*
G02*
X157220000Y-119780000I50000J0D01*
G01*
X157820000Y-119780000D01*
G75*
G02*
X157870000Y-119830000I0J-50000D01*
G01*
X157870000Y-121030000D01*
G75*
G02*
X157820000Y-121080000I-50000J0D01*
G01*
X157220000Y-121080000D01*
G75*
G02*
X157170000Y-121030000I0J50000D01*
G01*
G37*
X155380000Y-117890000D03*
G36*
G01*
X157170000Y-118490000D02*
X157170000Y-117290000D01*
G75*
G02*
X157220000Y-117240000I50000J0D01*
G01*
X157820000Y-117240000D01*
G75*
G02*
X157870000Y-117290000I0J-50000D01*
G01*
X157870000Y-118490000D01*
G75*
G02*
X157820000Y-118540000I-50000J0D01*
G01*
X157220000Y-118540000D01*
G75*
G02*
X157170000Y-118490000I0J50000D01*
G01*
G37*
X155380000Y-115350000D03*
G36*
G01*
X157170000Y-115950000D02*
X157170000Y-114750000D01*
G75*
G02*
X157220000Y-114700000I50000J0D01*
G01*
X157820000Y-114700000D01*
G75*
G02*
X157870000Y-114750000I0J-50000D01*
G01*
X157870000Y-115950000D01*
G75*
G02*
X157820000Y-116000000I-50000J0D01*
G01*
X157220000Y-116000000D01*
G75*
G02*
X157170000Y-115950000I0J50000D01*
G01*
G37*
X155380000Y-112810000D03*
G36*
G01*
X157170000Y-113410000D02*
X157170000Y-112210000D01*
G75*
G02*
X157220000Y-112160000I50000J0D01*
G01*
X157820000Y-112160000D01*
G75*
G02*
X157870000Y-112210000I0J-50000D01*
G01*
X157870000Y-113410000D01*
G75*
G02*
X157820000Y-113460000I-50000J0D01*
G01*
X157220000Y-113460000D01*
G75*
G02*
X157170000Y-113410000I0J50000D01*
G01*
G37*
X155380000Y-110270000D03*
G36*
G01*
X157170000Y-110870000D02*
X157170000Y-109670000D01*
G75*
G02*
X157220000Y-109620000I50000J0D01*
G01*
X157820000Y-109620000D01*
G75*
G02*
X157870000Y-109670000I0J-50000D01*
G01*
X157870000Y-110870000D01*
G75*
G02*
X157820000Y-110920000I-50000J0D01*
G01*
X157220000Y-110920000D01*
G75*
G02*
X157170000Y-110870000I0J50000D01*
G01*
G37*
X155380000Y-107730000D03*
G36*
G01*
X157170000Y-108330000D02*
X157170000Y-107130000D01*
G75*
G02*
X157220000Y-107080000I50000J0D01*
G01*
X157820000Y-107080000D01*
G75*
G02*
X157870000Y-107130000I0J-50000D01*
G01*
X157870000Y-108330000D01*
G75*
G02*
X157820000Y-108380000I-50000J0D01*
G01*
X157220000Y-108380000D01*
G75*
G02*
X157170000Y-108330000I0J50000D01*
G01*
G37*
X155380000Y-105190000D03*
G36*
G01*
X157170000Y-105790000D02*
X157170000Y-104590000D01*
G75*
G02*
X157220000Y-104540000I50000J0D01*
G01*
X157820000Y-104540000D01*
G75*
G02*
X157870000Y-104590000I0J-50000D01*
G01*
X157870000Y-105790000D01*
G75*
G02*
X157820000Y-105840000I-50000J0D01*
G01*
X157220000Y-105840000D01*
G75*
G02*
X157170000Y-105790000I0J50000D01*
G01*
G37*
X155380000Y-102650000D03*
G36*
G01*
X157170000Y-103250000D02*
X157170000Y-102050000D01*
G75*
G02*
X157220000Y-102000000I50000J0D01*
G01*
X157820000Y-102000000D01*
G75*
G02*
X157870000Y-102050000I0J-50000D01*
G01*
X157870000Y-103250000D01*
G75*
G02*
X157820000Y-103300000I-50000J0D01*
G01*
X157220000Y-103300000D01*
G75*
G02*
X157170000Y-103250000I0J50000D01*
G01*
G37*
D20*
X166400000Y-102650000D03*
G36*
G01*
X167230000Y-103250000D02*
X167230000Y-102050000D01*
G75*
G02*
X167280000Y-102000000I50000J0D01*
G01*
X167880000Y-102000000D01*
G75*
G02*
X167930000Y-102050000I0J-50000D01*
G01*
X167930000Y-103250000D01*
G75*
G02*
X167880000Y-103300000I-50000J0D01*
G01*
X167280000Y-103300000D01*
G75*
G02*
X167230000Y-103250000I0J50000D01*
G01*
G37*
X166400000Y-105190000D03*
G36*
G01*
X167230000Y-105790000D02*
X167230000Y-104590000D01*
G75*
G02*
X167280000Y-104540000I50000J0D01*
G01*
X167880000Y-104540000D01*
G75*
G02*
X167930000Y-104590000I0J-50000D01*
G01*
X167930000Y-105790000D01*
G75*
G02*
X167880000Y-105840000I-50000J0D01*
G01*
X167280000Y-105840000D01*
G75*
G02*
X167230000Y-105790000I0J50000D01*
G01*
G37*
X166400000Y-107730000D03*
G36*
G01*
X167230000Y-108330000D02*
X167230000Y-107130000D01*
G75*
G02*
X167280000Y-107080000I50000J0D01*
G01*
X167880000Y-107080000D01*
G75*
G02*
X167930000Y-107130000I0J-50000D01*
G01*
X167930000Y-108330000D01*
G75*
G02*
X167880000Y-108380000I-50000J0D01*
G01*
X167280000Y-108380000D01*
G75*
G02*
X167230000Y-108330000I0J50000D01*
G01*
G37*
X166400000Y-110270000D03*
G36*
G01*
X167230000Y-110870000D02*
X167230000Y-109670000D01*
G75*
G02*
X167280000Y-109620000I50000J0D01*
G01*
X167880000Y-109620000D01*
G75*
G02*
X167930000Y-109670000I0J-50000D01*
G01*
X167930000Y-110870000D01*
G75*
G02*
X167880000Y-110920000I-50000J0D01*
G01*
X167280000Y-110920000D01*
G75*
G02*
X167230000Y-110870000I0J50000D01*
G01*
G37*
X166400000Y-112810000D03*
G36*
G01*
X167230000Y-113410000D02*
X167230000Y-112210000D01*
G75*
G02*
X167280000Y-112160000I50000J0D01*
G01*
X167880000Y-112160000D01*
G75*
G02*
X167930000Y-112210000I0J-50000D01*
G01*
X167930000Y-113410000D01*
G75*
G02*
X167880000Y-113460000I-50000J0D01*
G01*
X167280000Y-113460000D01*
G75*
G02*
X167230000Y-113410000I0J50000D01*
G01*
G37*
X166400000Y-115350000D03*
G36*
G01*
X167230000Y-115950000D02*
X167230000Y-114750000D01*
G75*
G02*
X167280000Y-114700000I50000J0D01*
G01*
X167880000Y-114700000D01*
G75*
G02*
X167930000Y-114750000I0J-50000D01*
G01*
X167930000Y-115950000D01*
G75*
G02*
X167880000Y-116000000I-50000J0D01*
G01*
X167280000Y-116000000D01*
G75*
G02*
X167230000Y-115950000I0J50000D01*
G01*
G37*
X166400000Y-117890000D03*
G36*
G01*
X167230000Y-118490000D02*
X167230000Y-117290000D01*
G75*
G02*
X167280000Y-117240000I50000J0D01*
G01*
X167880000Y-117240000D01*
G75*
G02*
X167930000Y-117290000I0J-50000D01*
G01*
X167930000Y-118490000D01*
G75*
G02*
X167880000Y-118540000I-50000J0D01*
G01*
X167280000Y-118540000D01*
G75*
G02*
X167230000Y-118490000I0J50000D01*
G01*
G37*
X166400000Y-120430000D03*
G36*
G01*
X167230000Y-121030000D02*
X167230000Y-119830000D01*
G75*
G02*
X167280000Y-119780000I50000J0D01*
G01*
X167880000Y-119780000D01*
G75*
G02*
X167930000Y-119830000I0J-50000D01*
G01*
X167930000Y-121030000D01*
G75*
G02*
X167880000Y-121080000I-50000J0D01*
G01*
X167280000Y-121080000D01*
G75*
G02*
X167230000Y-121030000I0J50000D01*
G01*
G37*
X166400000Y-122970000D03*
G36*
G01*
X167230000Y-123570000D02*
X167230000Y-122370000D01*
G75*
G02*
X167280000Y-122320000I50000J0D01*
G01*
X167880000Y-122320000D01*
G75*
G02*
X167930000Y-122370000I0J-50000D01*
G01*
X167930000Y-123570000D01*
G75*
G02*
X167880000Y-123620000I-50000J0D01*
G01*
X167280000Y-123620000D01*
G75*
G02*
X167230000Y-123570000I0J50000D01*
G01*
G37*
X166400000Y-125510000D03*
G36*
G01*
X167230000Y-126110000D02*
X167230000Y-124910000D01*
G75*
G02*
X167280000Y-124860000I50000J0D01*
G01*
X167880000Y-124860000D01*
G75*
G02*
X167930000Y-124910000I0J-50000D01*
G01*
X167930000Y-126110000D01*
G75*
G02*
X167880000Y-126160000I-50000J0D01*
G01*
X167280000Y-126160000D01*
G75*
G02*
X167230000Y-126110000I0J50000D01*
G01*
G37*
X166400000Y-128050000D03*
G36*
G01*
X167230000Y-128650000D02*
X167230000Y-127450000D01*
G75*
G02*
X167280000Y-127400000I50000J0D01*
G01*
X167880000Y-127400000D01*
G75*
G02*
X167930000Y-127450000I0J-50000D01*
G01*
X167930000Y-128650000D01*
G75*
G02*
X167880000Y-128700000I-50000J0D01*
G01*
X167280000Y-128700000D01*
G75*
G02*
X167230000Y-128650000I0J50000D01*
G01*
G37*
X166400000Y-130590000D03*
G36*
G01*
X167230000Y-131190000D02*
X167230000Y-129990000D01*
G75*
G02*
X167280000Y-129940000I50000J0D01*
G01*
X167880000Y-129940000D01*
G75*
G02*
X167930000Y-129990000I0J-50000D01*
G01*
X167930000Y-131190000D01*
G75*
G02*
X167880000Y-131240000I-50000J0D01*
G01*
X167280000Y-131240000D01*
G75*
G02*
X167230000Y-131190000I0J50000D01*
G01*
G37*
G36*
G01*
X158070000Y-131190000D02*
X158070000Y-129990000D01*
G75*
G02*
X158120000Y-129940000I50000J0D01*
G01*
X158720000Y-129940000D01*
G75*
G02*
X158770000Y-129990000I0J-50000D01*
G01*
X158770000Y-131190000D01*
G75*
G02*
X158720000Y-131240000I-50000J0D01*
G01*
X158120000Y-131240000D01*
G75*
G02*
X158070000Y-131190000I0J50000D01*
G01*
G37*
X159600000Y-130590000D03*
G36*
G01*
X158070000Y-128650000D02*
X158070000Y-127450000D01*
G75*
G02*
X158120000Y-127400000I50000J0D01*
G01*
X158720000Y-127400000D01*
G75*
G02*
X158770000Y-127450000I0J-50000D01*
G01*
X158770000Y-128650000D01*
G75*
G02*
X158720000Y-128700000I-50000J0D01*
G01*
X158120000Y-128700000D01*
G75*
G02*
X158070000Y-128650000I0J50000D01*
G01*
G37*
X159600000Y-128050000D03*
G36*
G01*
X158070000Y-126110000D02*
X158070000Y-124910000D01*
G75*
G02*
X158120000Y-124860000I50000J0D01*
G01*
X158720000Y-124860000D01*
G75*
G02*
X158770000Y-124910000I0J-50000D01*
G01*
X158770000Y-126110000D01*
G75*
G02*
X158720000Y-126160000I-50000J0D01*
G01*
X158120000Y-126160000D01*
G75*
G02*
X158070000Y-126110000I0J50000D01*
G01*
G37*
X159600000Y-125510000D03*
G36*
G01*
X158070000Y-123570000D02*
X158070000Y-122370000D01*
G75*
G02*
X158120000Y-122320000I50000J0D01*
G01*
X158720000Y-122320000D01*
G75*
G02*
X158770000Y-122370000I0J-50000D01*
G01*
X158770000Y-123570000D01*
G75*
G02*
X158720000Y-123620000I-50000J0D01*
G01*
X158120000Y-123620000D01*
G75*
G02*
X158070000Y-123570000I0J50000D01*
G01*
G37*
X159600000Y-122970000D03*
G36*
G01*
X158070000Y-121030000D02*
X158070000Y-119830000D01*
G75*
G02*
X158120000Y-119780000I50000J0D01*
G01*
X158720000Y-119780000D01*
G75*
G02*
X158770000Y-119830000I0J-50000D01*
G01*
X158770000Y-121030000D01*
G75*
G02*
X158720000Y-121080000I-50000J0D01*
G01*
X158120000Y-121080000D01*
G75*
G02*
X158070000Y-121030000I0J50000D01*
G01*
G37*
X159600000Y-120430000D03*
G36*
G01*
X158070000Y-118490000D02*
X158070000Y-117290000D01*
G75*
G02*
X158120000Y-117240000I50000J0D01*
G01*
X158720000Y-117240000D01*
G75*
G02*
X158770000Y-117290000I0J-50000D01*
G01*
X158770000Y-118490000D01*
G75*
G02*
X158720000Y-118540000I-50000J0D01*
G01*
X158120000Y-118540000D01*
G75*
G02*
X158070000Y-118490000I0J50000D01*
G01*
G37*
X159600000Y-117890000D03*
G36*
G01*
X158070000Y-115950000D02*
X158070000Y-114750000D01*
G75*
G02*
X158120000Y-114700000I50000J0D01*
G01*
X158720000Y-114700000D01*
G75*
G02*
X158770000Y-114750000I0J-50000D01*
G01*
X158770000Y-115950000D01*
G75*
G02*
X158720000Y-116000000I-50000J0D01*
G01*
X158120000Y-116000000D01*
G75*
G02*
X158070000Y-115950000I0J50000D01*
G01*
G37*
X159600000Y-115350000D03*
G36*
G01*
X158070000Y-113410000D02*
X158070000Y-112210000D01*
G75*
G02*
X158120000Y-112160000I50000J0D01*
G01*
X158720000Y-112160000D01*
G75*
G02*
X158770000Y-112210000I0J-50000D01*
G01*
X158770000Y-113410000D01*
G75*
G02*
X158720000Y-113460000I-50000J0D01*
G01*
X158120000Y-113460000D01*
G75*
G02*
X158070000Y-113410000I0J50000D01*
G01*
G37*
X159600000Y-112810000D03*
G36*
G01*
X158070000Y-110870000D02*
X158070000Y-109670000D01*
G75*
G02*
X158120000Y-109620000I50000J0D01*
G01*
X158720000Y-109620000D01*
G75*
G02*
X158770000Y-109670000I0J-50000D01*
G01*
X158770000Y-110870000D01*
G75*
G02*
X158720000Y-110920000I-50000J0D01*
G01*
X158120000Y-110920000D01*
G75*
G02*
X158070000Y-110870000I0J50000D01*
G01*
G37*
X159600000Y-110270000D03*
G36*
G01*
X158070000Y-108330000D02*
X158070000Y-107130000D01*
G75*
G02*
X158120000Y-107080000I50000J0D01*
G01*
X158720000Y-107080000D01*
G75*
G02*
X158770000Y-107130000I0J-50000D01*
G01*
X158770000Y-108330000D01*
G75*
G02*
X158720000Y-108380000I-50000J0D01*
G01*
X158120000Y-108380000D01*
G75*
G02*
X158070000Y-108330000I0J50000D01*
G01*
G37*
X159600000Y-107730000D03*
G36*
G01*
X158070000Y-105790000D02*
X158070000Y-104590000D01*
G75*
G02*
X158120000Y-104540000I50000J0D01*
G01*
X158720000Y-104540000D01*
G75*
G02*
X158770000Y-104590000I0J-50000D01*
G01*
X158770000Y-105790000D01*
G75*
G02*
X158720000Y-105840000I-50000J0D01*
G01*
X158120000Y-105840000D01*
G75*
G02*
X158070000Y-105790000I0J50000D01*
G01*
G37*
X159600000Y-105190000D03*
G36*
G01*
X158070000Y-103250000D02*
X158070000Y-102050000D01*
G75*
G02*
X158120000Y-102000000I50000J0D01*
G01*
X158720000Y-102000000D01*
G75*
G02*
X158770000Y-102050000I0J-50000D01*
G01*
X158770000Y-103250000D01*
G75*
G02*
X158720000Y-103300000I-50000J0D01*
G01*
X158120000Y-103300000D01*
G75*
G02*
X158070000Y-103250000I0J50000D01*
G01*
G37*
X159600000Y-102650000D03*
G36*
G01*
X135251000Y-130239000D02*
X135251000Y-128461000D01*
G75*
G02*
X135301000Y-128411000I50000J0D01*
G01*
X137079000Y-128411000D01*
G75*
G02*
X137129000Y-128461000I0J-50000D01*
G01*
X137129000Y-130239000D01*
G75*
G02*
X137079000Y-130289000I-50000J0D01*
G01*
X135301000Y-130289000D01*
G75*
G02*
X135251000Y-130239000I0J50000D01*
G01*
G37*
G36*
G01*
X137850000Y-129950000D02*
X137850000Y-128750000D01*
G75*
G02*
X137900000Y-128700000I50000J0D01*
G01*
X138800000Y-128700000D01*
G75*
G02*
X138850000Y-128750000I0J-50000D01*
G01*
X138850000Y-129950000D01*
G75*
G02*
X138800000Y-130000000I-50000J0D01*
G01*
X137900000Y-130000000D01*
G75*
G02*
X137850000Y-129950000I0J50000D01*
G01*
G37*
G36*
G01*
X141150000Y-129950000D02*
X141150000Y-128750000D01*
G75*
G02*
X141200000Y-128700000I50000J0D01*
G01*
X142100000Y-128700000D01*
G75*
G02*
X142150000Y-128750000I0J-50000D01*
G01*
X142150000Y-129950000D01*
G75*
G02*
X142100000Y-130000000I-50000J0D01*
G01*
X141200000Y-130000000D01*
G75*
G02*
X141150000Y-129950000I0J50000D01*
G01*
G37*
D13*
X143810000Y-129350000D03*
G36*
G01*
X81251000Y-145539000D02*
X81251000Y-143761000D01*
G75*
G02*
X81301000Y-143711000I50000J0D01*
G01*
X83079000Y-143711000D01*
G75*
G02*
X83129000Y-143761000I0J-50000D01*
G01*
X83129000Y-145539000D01*
G75*
G02*
X83079000Y-145589000I-50000J0D01*
G01*
X81301000Y-145589000D01*
G75*
G02*
X81251000Y-145539000I0J50000D01*
G01*
G37*
G36*
G01*
X83850000Y-145250000D02*
X83850000Y-144050000D01*
G75*
G02*
X83900000Y-144000000I50000J0D01*
G01*
X84800000Y-144000000D01*
G75*
G02*
X84850000Y-144050000I0J-50000D01*
G01*
X84850000Y-145250000D01*
G75*
G02*
X84800000Y-145300000I-50000J0D01*
G01*
X83900000Y-145300000D01*
G75*
G02*
X83850000Y-145250000I0J50000D01*
G01*
G37*
G36*
G01*
X87150000Y-145250000D02*
X87150000Y-144050000D01*
G75*
G02*
X87200000Y-144000000I50000J0D01*
G01*
X88100000Y-144000000D01*
G75*
G02*
X88150000Y-144050000I0J-50000D01*
G01*
X88150000Y-145250000D01*
G75*
G02*
X88100000Y-145300000I-50000J0D01*
G01*
X87200000Y-145300000D01*
G75*
G02*
X87150000Y-145250000I0J50000D01*
G01*
G37*
X89810000Y-144650000D03*
G36*
G01*
X99251000Y-91139000D02*
X99251000Y-89361000D01*
G75*
G02*
X99301000Y-89311000I50000J0D01*
G01*
X101079000Y-89311000D01*
G75*
G02*
X101129000Y-89361000I0J-50000D01*
G01*
X101129000Y-91139000D01*
G75*
G02*
X101079000Y-91189000I-50000J0D01*
G01*
X99301000Y-91189000D01*
G75*
G02*
X99251000Y-91139000I0J50000D01*
G01*
G37*
G36*
G01*
X101850000Y-90850000D02*
X101850000Y-89650000D01*
G75*
G02*
X101900000Y-89600000I50000J0D01*
G01*
X102800000Y-89600000D01*
G75*
G02*
X102850000Y-89650000I0J-50000D01*
G01*
X102850000Y-90850000D01*
G75*
G02*
X102800000Y-90900000I-50000J0D01*
G01*
X101900000Y-90900000D01*
G75*
G02*
X101850000Y-90850000I0J50000D01*
G01*
G37*
G36*
G01*
X105150000Y-90850000D02*
X105150000Y-89650000D01*
G75*
G02*
X105200000Y-89600000I50000J0D01*
G01*
X106100000Y-89600000D01*
G75*
G02*
X106150000Y-89650000I0J-50000D01*
G01*
X106150000Y-90850000D01*
G75*
G02*
X106100000Y-90900000I-50000J0D01*
G01*
X105200000Y-90900000D01*
G75*
G02*
X105150000Y-90850000I0J50000D01*
G01*
G37*
X107810000Y-90250000D03*
G36*
G01*
X117251000Y-128539000D02*
X117251000Y-126761000D01*
G75*
G02*
X117301000Y-126711000I50000J0D01*
G01*
X119079000Y-126711000D01*
G75*
G02*
X119129000Y-126761000I0J-50000D01*
G01*
X119129000Y-128539000D01*
G75*
G02*
X119079000Y-128589000I-50000J0D01*
G01*
X117301000Y-128589000D01*
G75*
G02*
X117251000Y-128539000I0J50000D01*
G01*
G37*
G36*
G01*
X119850000Y-128250000D02*
X119850000Y-127050000D01*
G75*
G02*
X119900000Y-127000000I50000J0D01*
G01*
X120800000Y-127000000D01*
G75*
G02*
X120850000Y-127050000I0J-50000D01*
G01*
X120850000Y-128250000D01*
G75*
G02*
X120800000Y-128300000I-50000J0D01*
G01*
X119900000Y-128300000D01*
G75*
G02*
X119850000Y-128250000I0J50000D01*
G01*
G37*
G36*
G01*
X123150000Y-128250000D02*
X123150000Y-127050000D01*
G75*
G02*
X123200000Y-127000000I50000J0D01*
G01*
X124100000Y-127000000D01*
G75*
G02*
X124150000Y-127050000I0J-50000D01*
G01*
X124150000Y-128250000D01*
G75*
G02*
X124100000Y-128300000I-50000J0D01*
G01*
X123200000Y-128300000D01*
G75*
G02*
X123150000Y-128250000I0J50000D01*
G01*
G37*
X125810000Y-127650000D03*
D21*
X62500000Y-133000000D03*
D22*
X63000000Y-129250000D03*
X68000000Y-127050000D03*
D23*
X68000000Y-133000000D03*
D22*
X73000000Y-129250000D03*
D21*
X73500000Y-133000000D03*
G36*
X72610355Y-125714645D02*
G01*
X72625000Y-125750000D01*
X72625000Y-127167000D01*
X72610355Y-127202355D01*
X71427355Y-128385355D01*
X71392000Y-128400000D01*
X69975000Y-128400000D01*
X69939645Y-128385355D01*
X69925000Y-128350000D01*
X69925000Y-125750000D01*
X69939645Y-125714645D01*
X69975000Y-125700000D01*
X72575000Y-125700000D01*
X72610355Y-125714645D01*
G37*
G36*
G01*
X58375000Y-130550000D02*
X58375000Y-127950000D01*
G75*
G02*
X58425000Y-127900000I50000J0D01*
G01*
X61025000Y-127900000D01*
G75*
G02*
X61075000Y-127950000I0J-50000D01*
G01*
X61075000Y-130550000D01*
G75*
G02*
X61025000Y-130600000I-50000J0D01*
G01*
X58425000Y-130600000D01*
G75*
G02*
X58375000Y-130550000I0J50000D01*
G01*
G37*
X44500000Y-133000000D03*
D22*
X45000000Y-129250000D03*
X50000000Y-127050000D03*
D23*
X50000000Y-133000000D03*
D22*
X55000000Y-129250000D03*
D21*
X55500000Y-133000000D03*
G36*
X54610355Y-125714645D02*
G01*
X54625000Y-125750000D01*
X54625000Y-127167000D01*
X54610355Y-127202355D01*
X53427355Y-128385355D01*
X53392000Y-128400000D01*
X51975000Y-128400000D01*
X51939645Y-128385355D01*
X51925000Y-128350000D01*
X51925000Y-125750000D01*
X51939645Y-125714645D01*
X51975000Y-125700000D01*
X54575000Y-125700000D01*
X54610355Y-125714645D01*
G37*
G36*
G01*
X40375000Y-130550000D02*
X40375000Y-127950000D01*
G75*
G02*
X40425000Y-127900000I50000J0D01*
G01*
X43025000Y-127900000D01*
G75*
G02*
X43075000Y-127950000I0J-50000D01*
G01*
X43075000Y-130550000D01*
G75*
G02*
X43025000Y-130600000I-50000J0D01*
G01*
X40425000Y-130600000D01*
G75*
G02*
X40375000Y-130550000I0J50000D01*
G01*
G37*
X44500000Y-99000000D03*
D22*
X45000000Y-95250000D03*
X50000000Y-93050000D03*
D23*
X50000000Y-99000000D03*
D22*
X55000000Y-95250000D03*
D21*
X55500000Y-99000000D03*
G36*
X54610355Y-91714645D02*
G01*
X54625000Y-91750000D01*
X54625000Y-93167000D01*
X54610355Y-93202355D01*
X53427355Y-94385355D01*
X53392000Y-94400000D01*
X51975000Y-94400000D01*
X51939645Y-94385355D01*
X51925000Y-94350000D01*
X51925000Y-91750000D01*
X51939645Y-91714645D01*
X51975000Y-91700000D01*
X54575000Y-91700000D01*
X54610355Y-91714645D01*
G37*
G36*
G01*
X40375000Y-96550000D02*
X40375000Y-93950000D01*
G75*
G02*
X40425000Y-93900000I50000J0D01*
G01*
X43025000Y-93900000D01*
G75*
G02*
X43075000Y-93950000I0J-50000D01*
G01*
X43075000Y-96550000D01*
G75*
G02*
X43025000Y-96600000I-50000J0D01*
G01*
X40425000Y-96600000D01*
G75*
G02*
X40375000Y-96550000I0J50000D01*
G01*
G37*
X62500000Y-116000000D03*
D22*
X63000000Y-112250000D03*
X68000000Y-110050000D03*
D23*
X68000000Y-116000000D03*
D22*
X73000000Y-112250000D03*
D21*
X73500000Y-116000000D03*
G36*
X72610355Y-108714645D02*
G01*
X72625000Y-108750000D01*
X72625000Y-110167000D01*
X72610355Y-110202355D01*
X71427355Y-111385355D01*
X71392000Y-111400000D01*
X69975000Y-111400000D01*
X69939645Y-111385355D01*
X69925000Y-111350000D01*
X69925000Y-108750000D01*
X69939645Y-108714645D01*
X69975000Y-108700000D01*
X72575000Y-108700000D01*
X72610355Y-108714645D01*
G37*
G36*
G01*
X58375000Y-113550000D02*
X58375000Y-110950000D01*
G75*
G02*
X58425000Y-110900000I50000J0D01*
G01*
X61025000Y-110900000D01*
G75*
G02*
X61075000Y-110950000I0J-50000D01*
G01*
X61075000Y-113550000D01*
G75*
G02*
X61025000Y-113600000I-50000J0D01*
G01*
X58425000Y-113600000D01*
G75*
G02*
X58375000Y-113550000I0J50000D01*
G01*
G37*
X80500000Y-106650000D03*
D22*
X81000000Y-102900000D03*
X86000000Y-100700000D03*
D23*
X86000000Y-106650000D03*
D22*
X91000000Y-102900000D03*
D21*
X91500000Y-106650000D03*
G36*
X90610355Y-99364645D02*
G01*
X90625000Y-99400000D01*
X90625000Y-100817000D01*
X90610355Y-100852355D01*
X89427355Y-102035355D01*
X89392000Y-102050000D01*
X87975000Y-102050000D01*
X87939645Y-102035355D01*
X87925000Y-102000000D01*
X87925000Y-99400000D01*
X87939645Y-99364645D01*
X87975000Y-99350000D01*
X90575000Y-99350000D01*
X90610355Y-99364645D01*
G37*
G36*
G01*
X76375000Y-104200000D02*
X76375000Y-101600000D01*
G75*
G02*
X76425000Y-101550000I50000J0D01*
G01*
X79025000Y-101550000D01*
G75*
G02*
X79075000Y-101600000I0J-50000D01*
G01*
X79075000Y-104200000D01*
G75*
G02*
X79025000Y-104250000I-50000J0D01*
G01*
X76425000Y-104250000D01*
G75*
G02*
X76375000Y-104200000I0J50000D01*
G01*
G37*
X154460413Y-177973213D03*
D22*
X157465617Y-175675116D03*
X162556785Y-177655015D03*
D23*
X158349500Y-181862300D03*
D22*
X164536684Y-182746183D03*
D21*
X162238587Y-185751387D03*
G36*
X166761037Y-179970789D02*
G01*
X166746393Y-180006144D01*
X165744423Y-181008115D01*
X165709067Y-181022759D01*
X164036053Y-181022759D01*
X164000697Y-181008115D01*
X162998727Y-180006144D01*
X162984083Y-179970789D01*
X162998727Y-179935434D01*
X164837205Y-178096956D01*
X164872560Y-178082312D01*
X164907915Y-178096956D01*
X166746393Y-179935434D01*
X166761037Y-179970789D01*
G37*
G36*
G01*
X153276009Y-173323986D02*
X155114487Y-171485508D01*
G75*
G02*
X155185197Y-171485508I35355J-35355D01*
G01*
X157023675Y-173323986D01*
G75*
G02*
X157023675Y-173394696I-35355J-35355D01*
G01*
X155185197Y-175233174D01*
G75*
G02*
X155114487Y-175233174I-35355J35355D01*
G01*
X153276009Y-173394696D01*
G75*
G02*
X153276009Y-173323986I35355J35355D01*
G01*
G37*
X137667760Y-166897500D03*
D22*
X139975773Y-163899905D03*
X145405900Y-164494649D03*
D23*
X142430900Y-169647500D03*
D22*
X148636027Y-168899905D03*
D21*
X147194040Y-172397500D03*
G36*
X150066262Y-165643375D02*
G01*
X150061267Y-165681316D01*
X149352767Y-166908474D01*
X149322407Y-166931770D01*
X147706399Y-167364778D01*
X147668458Y-167359783D01*
X146441300Y-166651283D01*
X146418004Y-166620923D01*
X146422999Y-166582982D01*
X147722999Y-164331316D01*
X147753359Y-164308020D01*
X147791300Y-164313015D01*
X150042966Y-165613015D01*
X150066262Y-165643375D01*
G37*
G36*
G01*
X135320406Y-162713238D02*
X136620406Y-160461572D01*
G75*
G02*
X136688707Y-160443271I43301J-25000D01*
G01*
X138940373Y-161743271D01*
G75*
G02*
X138958674Y-161811572I-25000J-43301D01*
G01*
X137658674Y-164063238D01*
G75*
G02*
X137590373Y-164081539I-43301J25000D01*
G01*
X135338707Y-162781539D01*
G75*
G02*
X135320406Y-162713238I25000J43301D01*
G01*
G37*
X98500000Y-120250000D03*
D22*
X99000000Y-116500000D03*
X104000000Y-114300000D03*
D23*
X104000000Y-120250000D03*
D22*
X109000000Y-116500000D03*
D21*
X109500000Y-120250000D03*
G36*
X108610355Y-112964645D02*
G01*
X108625000Y-113000000D01*
X108625000Y-114417000D01*
X108610355Y-114452355D01*
X107427355Y-115635355D01*
X107392000Y-115650000D01*
X105975000Y-115650000D01*
X105939645Y-115635355D01*
X105925000Y-115600000D01*
X105925000Y-113000000D01*
X105939645Y-112964645D01*
X105975000Y-112950000D01*
X108575000Y-112950000D01*
X108610355Y-112964645D01*
G37*
G36*
G01*
X94375000Y-117800000D02*
X94375000Y-115200000D01*
G75*
G02*
X94425000Y-115150000I50000J0D01*
G01*
X97025000Y-115150000D01*
G75*
G02*
X97075000Y-115200000I0J-50000D01*
G01*
X97075000Y-117800000D01*
G75*
G02*
X97025000Y-117850000I-50000J0D01*
G01*
X94425000Y-117850000D01*
G75*
G02*
X94375000Y-117800000I0J50000D01*
G01*
G37*
X80500000Y-123650000D03*
D22*
X81000000Y-119900000D03*
X86000000Y-117700000D03*
D23*
X86000000Y-123650000D03*
D22*
X91000000Y-119900000D03*
D21*
X91500000Y-123650000D03*
G36*
X90610355Y-116364645D02*
G01*
X90625000Y-116400000D01*
X90625000Y-117817000D01*
X90610355Y-117852355D01*
X89427355Y-119035355D01*
X89392000Y-119050000D01*
X87975000Y-119050000D01*
X87939645Y-119035355D01*
X87925000Y-119000000D01*
X87925000Y-116400000D01*
X87939645Y-116364645D01*
X87975000Y-116350000D01*
X90575000Y-116350000D01*
X90610355Y-116364645D01*
G37*
G36*
G01*
X76375000Y-121200000D02*
X76375000Y-118600000D01*
G75*
G02*
X76425000Y-118550000I50000J0D01*
G01*
X79025000Y-118550000D01*
G75*
G02*
X79075000Y-118600000I0J-50000D01*
G01*
X79075000Y-121200000D01*
G75*
G02*
X79025000Y-121250000I-50000J0D01*
G01*
X76425000Y-121250000D01*
G75*
G02*
X76375000Y-121200000I0J50000D01*
G01*
G37*
X44500000Y-116000000D03*
D22*
X45000000Y-112250000D03*
X50000000Y-110050000D03*
D23*
X50000000Y-116000000D03*
D22*
X55000000Y-112250000D03*
D21*
X55500000Y-116000000D03*
G36*
X54610355Y-108714645D02*
G01*
X54625000Y-108750000D01*
X54625000Y-110167000D01*
X54610355Y-110202355D01*
X53427355Y-111385355D01*
X53392000Y-111400000D01*
X51975000Y-111400000D01*
X51939645Y-111385355D01*
X51925000Y-111350000D01*
X51925000Y-108750000D01*
X51939645Y-108714645D01*
X51975000Y-108700000D01*
X54575000Y-108700000D01*
X54610355Y-108714645D01*
G37*
G36*
G01*
X40375000Y-113550000D02*
X40375000Y-110950000D01*
G75*
G02*
X40425000Y-110900000I50000J0D01*
G01*
X43025000Y-110900000D01*
G75*
G02*
X43075000Y-110950000I0J-50000D01*
G01*
X43075000Y-113550000D01*
G75*
G02*
X43025000Y-113600000I-50000J0D01*
G01*
X40425000Y-113600000D01*
G75*
G02*
X40375000Y-113550000I0J50000D01*
G01*
G37*
X118580708Y-160545495D03*
D22*
X120034242Y-157052683D03*
X125433273Y-156221741D03*
D23*
X123893300Y-161969000D03*
D22*
X129693501Y-159640873D03*
D21*
X129205892Y-163392505D03*
G36*
X130232149Y-156125135D02*
G01*
X130237145Y-156163076D01*
X129870398Y-157531793D01*
X129847102Y-157562153D01*
X128398228Y-158398660D01*
X128360288Y-158403656D01*
X126991571Y-158036909D01*
X126961211Y-158013613D01*
X126956215Y-157975672D01*
X127629145Y-155464265D01*
X127652441Y-155433905D01*
X127690382Y-155428909D01*
X130201789Y-156101839D01*
X130232149Y-156125135D01*
G37*
G36*
G01*
X115230371Y-157111349D02*
X115903300Y-154599942D01*
G75*
G02*
X115964537Y-154564587I48296J-12941D01*
G01*
X118475944Y-155237516D01*
G75*
G02*
X118511299Y-155298753I-12941J-48296D01*
G01*
X117838370Y-157810160D01*
G75*
G02*
X117777133Y-157845515I-48296J12941D01*
G01*
X115265726Y-157172586D01*
G75*
G02*
X115230371Y-157111349I12941J48296D01*
G01*
G37*
X134500000Y-108350000D03*
D22*
X135000000Y-104600000D03*
X140000000Y-102400000D03*
D23*
X140000000Y-108350000D03*
D22*
X145000000Y-104600000D03*
D21*
X145500000Y-108350000D03*
G36*
X144610355Y-101064645D02*
G01*
X144625000Y-101100000D01*
X144625000Y-102517000D01*
X144610355Y-102552355D01*
X143427355Y-103735355D01*
X143392000Y-103750000D01*
X141975000Y-103750000D01*
X141939645Y-103735355D01*
X141925000Y-103700000D01*
X141925000Y-101100000D01*
X141939645Y-101064645D01*
X141975000Y-101050000D01*
X144575000Y-101050000D01*
X144610355Y-101064645D01*
G37*
G36*
G01*
X130375000Y-105900000D02*
X130375000Y-103300000D01*
G75*
G02*
X130425000Y-103250000I50000J0D01*
G01*
X133025000Y-103250000D01*
G75*
G02*
X133075000Y-103300000I0J-50000D01*
G01*
X133075000Y-105900000D01*
G75*
G02*
X133025000Y-105950000I-50000J0D01*
G01*
X130425000Y-105950000D01*
G75*
G02*
X130375000Y-105900000I0J50000D01*
G01*
G37*
X98500000Y-86250000D03*
D22*
X99000000Y-82500000D03*
X104000000Y-80300000D03*
D23*
X104000000Y-86250000D03*
D22*
X109000000Y-82500000D03*
D21*
X109500000Y-86250000D03*
G36*
X108610355Y-78964645D02*
G01*
X108625000Y-79000000D01*
X108625000Y-80417000D01*
X108610355Y-80452355D01*
X107427355Y-81635355D01*
X107392000Y-81650000D01*
X105975000Y-81650000D01*
X105939645Y-81635355D01*
X105925000Y-81600000D01*
X105925000Y-79000000D01*
X105939645Y-78964645D01*
X105975000Y-78950000D01*
X108575000Y-78950000D01*
X108610355Y-78964645D01*
G37*
G36*
G01*
X94375000Y-83800000D02*
X94375000Y-81200000D01*
G75*
G02*
X94425000Y-81150000I50000J0D01*
G01*
X97025000Y-81150000D01*
G75*
G02*
X97075000Y-81200000I0J-50000D01*
G01*
X97075000Y-83800000D01*
G75*
G02*
X97025000Y-83850000I-50000J0D01*
G01*
X94425000Y-83850000D01*
G75*
G02*
X94375000Y-83800000I0J50000D01*
G01*
G37*
X98500000Y-137250000D03*
D22*
X99000000Y-133500000D03*
X104000000Y-131300000D03*
D23*
X104000000Y-137250000D03*
D22*
X109000000Y-133500000D03*
D21*
X109500000Y-137250000D03*
G36*
X108610355Y-129964645D02*
G01*
X108625000Y-130000000D01*
X108625000Y-131417000D01*
X108610355Y-131452355D01*
X107427355Y-132635355D01*
X107392000Y-132650000D01*
X105975000Y-132650000D01*
X105939645Y-132635355D01*
X105925000Y-132600000D01*
X105925000Y-130000000D01*
X105939645Y-129964645D01*
X105975000Y-129950000D01*
X108575000Y-129950000D01*
X108610355Y-129964645D01*
G37*
G36*
G01*
X94375000Y-134800000D02*
X94375000Y-132200000D01*
G75*
G02*
X94425000Y-132150000I50000J0D01*
G01*
X97025000Y-132150000D01*
G75*
G02*
X97075000Y-132200000I0J-50000D01*
G01*
X97075000Y-134800000D01*
G75*
G02*
X97025000Y-134850000I-50000J0D01*
G01*
X94425000Y-134850000D01*
G75*
G02*
X94375000Y-134800000I0J50000D01*
G01*
G37*
X134500000Y-125350000D03*
D22*
X135000000Y-121600000D03*
X140000000Y-119400000D03*
D23*
X140000000Y-125350000D03*
D22*
X145000000Y-121600000D03*
D21*
X145500000Y-125350000D03*
G36*
X144610355Y-118064645D02*
G01*
X144625000Y-118100000D01*
X144625000Y-119517000D01*
X144610355Y-119552355D01*
X143427355Y-120735355D01*
X143392000Y-120750000D01*
X141975000Y-120750000D01*
X141939645Y-120735355D01*
X141925000Y-120700000D01*
X141925000Y-118100000D01*
X141939645Y-118064645D01*
X141975000Y-118050000D01*
X144575000Y-118050000D01*
X144610355Y-118064645D01*
G37*
G36*
G01*
X130375000Y-122900000D02*
X130375000Y-120300000D01*
G75*
G02*
X130425000Y-120250000I50000J0D01*
G01*
X133025000Y-120250000D01*
G75*
G02*
X133075000Y-120300000I0J-50000D01*
G01*
X133075000Y-122900000D01*
G75*
G02*
X133025000Y-122950000I-50000J0D01*
G01*
X130425000Y-122950000D01*
G75*
G02*
X130375000Y-122900000I0J50000D01*
G01*
G37*
X134500000Y-142350000D03*
D22*
X135000000Y-138600000D03*
X140000000Y-136400000D03*
D23*
X140000000Y-142350000D03*
D22*
X145000000Y-138600000D03*
D21*
X145500000Y-142350000D03*
G36*
X144610355Y-135064645D02*
G01*
X144625000Y-135100000D01*
X144625000Y-136517000D01*
X144610355Y-136552355D01*
X143427355Y-137735355D01*
X143392000Y-137750000D01*
X141975000Y-137750000D01*
X141939645Y-137735355D01*
X141925000Y-137700000D01*
X141925000Y-135100000D01*
X141939645Y-135064645D01*
X141975000Y-135050000D01*
X144575000Y-135050000D01*
X144610355Y-135064645D01*
G37*
G36*
G01*
X130375000Y-139900000D02*
X130375000Y-137300000D01*
G75*
G02*
X130425000Y-137250000I50000J0D01*
G01*
X133025000Y-137250000D01*
G75*
G02*
X133075000Y-137300000I0J-50000D01*
G01*
X133075000Y-139900000D01*
G75*
G02*
X133025000Y-139950000I-50000J0D01*
G01*
X130425000Y-139950000D01*
G75*
G02*
X130375000Y-139900000I0J50000D01*
G01*
G37*
X62500000Y-99000000D03*
D22*
X63000000Y-95250000D03*
X68000000Y-93050000D03*
D23*
X68000000Y-99000000D03*
D22*
X73000000Y-95250000D03*
D21*
X73500000Y-99000000D03*
G36*
X72610355Y-91714645D02*
G01*
X72625000Y-91750000D01*
X72625000Y-93167000D01*
X72610355Y-93202355D01*
X71427355Y-94385355D01*
X71392000Y-94400000D01*
X69975000Y-94400000D01*
X69939645Y-94385355D01*
X69925000Y-94350000D01*
X69925000Y-91750000D01*
X69939645Y-91714645D01*
X69975000Y-91700000D01*
X72575000Y-91700000D01*
X72610355Y-91714645D01*
G37*
G36*
G01*
X58375000Y-96550000D02*
X58375000Y-93950000D01*
G75*
G02*
X58425000Y-93900000I50000J0D01*
G01*
X61025000Y-93900000D01*
G75*
G02*
X61075000Y-93950000I0J-50000D01*
G01*
X61075000Y-96550000D01*
G75*
G02*
X61025000Y-96600000I-50000J0D01*
G01*
X58425000Y-96600000D01*
G75*
G02*
X58375000Y-96550000I0J50000D01*
G01*
G37*
X134500000Y-91350000D03*
D22*
X135000000Y-87600000D03*
X140000000Y-85400000D03*
D23*
X140000000Y-91350000D03*
D22*
X145000000Y-87600000D03*
D21*
X145500000Y-91350000D03*
G36*
X144610355Y-84064645D02*
G01*
X144625000Y-84100000D01*
X144625000Y-85517000D01*
X144610355Y-85552355D01*
X143427355Y-86735355D01*
X143392000Y-86750000D01*
X141975000Y-86750000D01*
X141939645Y-86735355D01*
X141925000Y-86700000D01*
X141925000Y-84100000D01*
X141939645Y-84064645D01*
X141975000Y-84050000D01*
X144575000Y-84050000D01*
X144610355Y-84064645D01*
G37*
G36*
G01*
X130375000Y-88900000D02*
X130375000Y-86300000D01*
G75*
G02*
X130425000Y-86250000I50000J0D01*
G01*
X133025000Y-86250000D01*
G75*
G02*
X133075000Y-86300000I0J-50000D01*
G01*
X133075000Y-88900000D01*
G75*
G02*
X133025000Y-88950000I-50000J0D01*
G01*
X130425000Y-88950000D01*
G75*
G02*
X130375000Y-88900000I0J50000D01*
G01*
G37*
X116500000Y-123650000D03*
D22*
X117000000Y-119900000D03*
X122000000Y-117700000D03*
D23*
X122000000Y-123650000D03*
D22*
X127000000Y-119900000D03*
D21*
X127500000Y-123650000D03*
G36*
X126610355Y-116364645D02*
G01*
X126625000Y-116400000D01*
X126625000Y-117817000D01*
X126610355Y-117852355D01*
X125427355Y-119035355D01*
X125392000Y-119050000D01*
X123975000Y-119050000D01*
X123939645Y-119035355D01*
X123925000Y-119000000D01*
X123925000Y-116400000D01*
X123939645Y-116364645D01*
X123975000Y-116350000D01*
X126575000Y-116350000D01*
X126610355Y-116364645D01*
G37*
G36*
G01*
X112375000Y-121200000D02*
X112375000Y-118600000D01*
G75*
G02*
X112425000Y-118550000I50000J0D01*
G01*
X115025000Y-118550000D01*
G75*
G02*
X115075000Y-118600000I0J-50000D01*
G01*
X115075000Y-121200000D01*
G75*
G02*
X115025000Y-121250000I-50000J0D01*
G01*
X112425000Y-121250000D01*
G75*
G02*
X112375000Y-121200000I0J50000D01*
G01*
G37*
X116500000Y-89650000D03*
D22*
X117000000Y-85900000D03*
X122000000Y-83700000D03*
D23*
X122000000Y-89650000D03*
D22*
X127000000Y-85900000D03*
D21*
X127500000Y-89650000D03*
G36*
X126610355Y-82364645D02*
G01*
X126625000Y-82400000D01*
X126625000Y-83817000D01*
X126610355Y-83852355D01*
X125427355Y-85035355D01*
X125392000Y-85050000D01*
X123975000Y-85050000D01*
X123939645Y-85035355D01*
X123925000Y-85000000D01*
X123925000Y-82400000D01*
X123939645Y-82364645D01*
X123975000Y-82350000D01*
X126575000Y-82350000D01*
X126610355Y-82364645D01*
G37*
G36*
G01*
X112375000Y-87200000D02*
X112375000Y-84600000D01*
G75*
G02*
X112425000Y-84550000I50000J0D01*
G01*
X115025000Y-84550000D01*
G75*
G02*
X115075000Y-84600000I0J-50000D01*
G01*
X115075000Y-87200000D01*
G75*
G02*
X115025000Y-87250000I-50000J0D01*
G01*
X112425000Y-87250000D01*
G75*
G02*
X112375000Y-87200000I0J50000D01*
G01*
G37*
X116500000Y-140650000D03*
D22*
X117000000Y-136900000D03*
X122000000Y-134700000D03*
D23*
X122000000Y-140650000D03*
D22*
X127000000Y-136900000D03*
D21*
X127500000Y-140650000D03*
G36*
X126610355Y-133364645D02*
G01*
X126625000Y-133400000D01*
X126625000Y-134817000D01*
X126610355Y-134852355D01*
X125427355Y-136035355D01*
X125392000Y-136050000D01*
X123975000Y-136050000D01*
X123939645Y-136035355D01*
X123925000Y-136000000D01*
X123925000Y-133400000D01*
X123939645Y-133364645D01*
X123975000Y-133350000D01*
X126575000Y-133350000D01*
X126610355Y-133364645D01*
G37*
G36*
G01*
X112375000Y-138200000D02*
X112375000Y-135600000D01*
G75*
G02*
X112425000Y-135550000I50000J0D01*
G01*
X115025000Y-135550000D01*
G75*
G02*
X115075000Y-135600000I0J-50000D01*
G01*
X115075000Y-138200000D01*
G75*
G02*
X115025000Y-138250000I-50000J0D01*
G01*
X112425000Y-138250000D01*
G75*
G02*
X112375000Y-138200000I0J50000D01*
G01*
G37*
X80500000Y-140650000D03*
D22*
X81000000Y-136900000D03*
X86000000Y-134700000D03*
D23*
X86000000Y-140650000D03*
D22*
X91000000Y-136900000D03*
D21*
X91500000Y-140650000D03*
G36*
X90610355Y-133364645D02*
G01*
X90625000Y-133400000D01*
X90625000Y-134817000D01*
X90610355Y-134852355D01*
X89427355Y-136035355D01*
X89392000Y-136050000D01*
X87975000Y-136050000D01*
X87939645Y-136035355D01*
X87925000Y-136000000D01*
X87925000Y-133400000D01*
X87939645Y-133364645D01*
X87975000Y-133350000D01*
X90575000Y-133350000D01*
X90610355Y-133364645D01*
G37*
G36*
G01*
X76375000Y-138200000D02*
X76375000Y-135600000D01*
G75*
G02*
X76425000Y-135550000I50000J0D01*
G01*
X79025000Y-135550000D01*
G75*
G02*
X79075000Y-135600000I0J-50000D01*
G01*
X79075000Y-138200000D01*
G75*
G02*
X79025000Y-138250000I-50000J0D01*
G01*
X76425000Y-138250000D01*
G75*
G02*
X76375000Y-138200000I0J50000D01*
G01*
G37*
X44500000Y-150000000D03*
D22*
X45000000Y-146250000D03*
X50000000Y-144050000D03*
D23*
X50000000Y-150000000D03*
D22*
X55000000Y-146250000D03*
D21*
X55500000Y-150000000D03*
G36*
X54610355Y-142714645D02*
G01*
X54625000Y-142750000D01*
X54625000Y-144167000D01*
X54610355Y-144202355D01*
X53427355Y-145385355D01*
X53392000Y-145400000D01*
X51975000Y-145400000D01*
X51939645Y-145385355D01*
X51925000Y-145350000D01*
X51925000Y-142750000D01*
X51939645Y-142714645D01*
X51975000Y-142700000D01*
X54575000Y-142700000D01*
X54610355Y-142714645D01*
G37*
G36*
G01*
X40375000Y-147550000D02*
X40375000Y-144950000D01*
G75*
G02*
X40425000Y-144900000I50000J0D01*
G01*
X43025000Y-144900000D01*
G75*
G02*
X43075000Y-144950000I0J-50000D01*
G01*
X43075000Y-147550000D01*
G75*
G02*
X43025000Y-147600000I-50000J0D01*
G01*
X40425000Y-147600000D01*
G75*
G02*
X40375000Y-147550000I0J50000D01*
G01*
G37*
X116500000Y-106650000D03*
D22*
X117000000Y-102900000D03*
X122000000Y-100700000D03*
D23*
X122000000Y-106650000D03*
D22*
X127000000Y-102900000D03*
D21*
X127500000Y-106650000D03*
G36*
X126610355Y-99364645D02*
G01*
X126625000Y-99400000D01*
X126625000Y-100817000D01*
X126610355Y-100852355D01*
X125427355Y-102035355D01*
X125392000Y-102050000D01*
X123975000Y-102050000D01*
X123939645Y-102035355D01*
X123925000Y-102000000D01*
X123925000Y-99400000D01*
X123939645Y-99364645D01*
X123975000Y-99350000D01*
X126575000Y-99350000D01*
X126610355Y-99364645D01*
G37*
G36*
G01*
X112375000Y-104200000D02*
X112375000Y-101600000D01*
G75*
G02*
X112425000Y-101550000I50000J0D01*
G01*
X115025000Y-101550000D01*
G75*
G02*
X115075000Y-101600000I0J-50000D01*
G01*
X115075000Y-104200000D01*
G75*
G02*
X115025000Y-104250000I-50000J0D01*
G01*
X112425000Y-104250000D01*
G75*
G02*
X112375000Y-104200000I0J50000D01*
G01*
G37*
X62500000Y-150000000D03*
D22*
X63000000Y-146250000D03*
X68000000Y-144050000D03*
D23*
X68000000Y-150000000D03*
D22*
X73000000Y-146250000D03*
D21*
X73500000Y-150000000D03*
G36*
X72610355Y-142714645D02*
G01*
X72625000Y-142750000D01*
X72625000Y-144167000D01*
X72610355Y-144202355D01*
X71427355Y-145385355D01*
X71392000Y-145400000D01*
X69975000Y-145400000D01*
X69939645Y-145385355D01*
X69925000Y-145350000D01*
X69925000Y-142750000D01*
X69939645Y-142714645D01*
X69975000Y-142700000D01*
X72575000Y-142700000D01*
X72610355Y-142714645D01*
G37*
G36*
G01*
X58375000Y-147550000D02*
X58375000Y-144950000D01*
G75*
G02*
X58425000Y-144900000I50000J0D01*
G01*
X61025000Y-144900000D01*
G75*
G02*
X61075000Y-144950000I0J-50000D01*
G01*
X61075000Y-147550000D01*
G75*
G02*
X61025000Y-147600000I-50000J0D01*
G01*
X58425000Y-147600000D01*
G75*
G02*
X58375000Y-147550000I0J50000D01*
G01*
G37*
X80500000Y-89650000D03*
D22*
X81000000Y-85900000D03*
X86000000Y-83700000D03*
D23*
X86000000Y-89650000D03*
D22*
X91000000Y-85900000D03*
D21*
X91500000Y-89650000D03*
G36*
X90610355Y-82364645D02*
G01*
X90625000Y-82400000D01*
X90625000Y-83817000D01*
X90610355Y-83852355D01*
X89427355Y-85035355D01*
X89392000Y-85050000D01*
X87975000Y-85050000D01*
X87939645Y-85035355D01*
X87925000Y-85000000D01*
X87925000Y-82400000D01*
X87939645Y-82364645D01*
X87975000Y-82350000D01*
X90575000Y-82350000D01*
X90610355Y-82364645D01*
G37*
G36*
G01*
X76375000Y-87200000D02*
X76375000Y-84600000D01*
G75*
G02*
X76425000Y-84550000I50000J0D01*
G01*
X79025000Y-84550000D01*
G75*
G02*
X79075000Y-84600000I0J-50000D01*
G01*
X79075000Y-87200000D01*
G75*
G02*
X79025000Y-87250000I-50000J0D01*
G01*
X76425000Y-87250000D01*
G75*
G02*
X76375000Y-87200000I0J50000D01*
G01*
G37*
X98500000Y-103250000D03*
D22*
X99000000Y-99500000D03*
X104000000Y-97300000D03*
D23*
X104000000Y-103250000D03*
D22*
X109000000Y-99500000D03*
D21*
X109500000Y-103250000D03*
G36*
X108610355Y-95964645D02*
G01*
X108625000Y-96000000D01*
X108625000Y-97417000D01*
X108610355Y-97452355D01*
X107427355Y-98635355D01*
X107392000Y-98650000D01*
X105975000Y-98650000D01*
X105939645Y-98635355D01*
X105925000Y-98600000D01*
X105925000Y-96000000D01*
X105939645Y-95964645D01*
X105975000Y-95950000D01*
X108575000Y-95950000D01*
X108610355Y-95964645D01*
G37*
G36*
G01*
X94375000Y-100800000D02*
X94375000Y-98200000D01*
G75*
G02*
X94425000Y-98150000I50000J0D01*
G01*
X97025000Y-98150000D01*
G75*
G02*
X97075000Y-98200000I0J-50000D01*
G01*
X97075000Y-100800000D01*
G75*
G02*
X97025000Y-100850000I-50000J0D01*
G01*
X94425000Y-100850000D01*
G75*
G02*
X94375000Y-100800000I0J50000D01*
G01*
G37*
%LPD*%
M02*
