0
SECTION
2
HEADER
9
$INSUNITS
70
4
0
ENDSEC
0
SECTION
2
TABLES
0
TABLE
2
LTYPE
0
LTYPE
72
65
70
64
2
CONTINUOUS
3
______
73
0
40
0
0
ENDTAB
0
TABLE
2
LAYER
0
ENDTAB
0
ENDSEC
0
SECTION
2
ENTITIES
0
LINE
8
0
10
39
20
-159.5
11
39
21
-89.5
0
LINE
8
0
10
40
20
-88.5
11
74
21
-88.5
0
LINE
8
0
10
75
20
-87.5
11
75
21
-80.15
0
LINE
8
0
10
76
20
-79.15
11
92
21
-79.15
0
LINE
8
0
10
93
20
-78.15
11
93
21
-76.75
0
LINE
8
0
10
94
20
-75.75
11
114
21
-75.75
0
LINE
8
0
10
115
20
-76.75
11
115
21
-78.15
0
LINE
8
0
10
116
20
-79.15
11
132
21
-79.15
0
LINE
8
0
10
133
20
-80.15
11
133
21
-80.85
0
LINE
8
0
10
133
20
-80.85
11
150
21
-80.85
0
LINE
8
0
10
151
20
-81.85
11
151
21
-97.85
0
LINE
8
0
10
172.8455742
20
-181.2956232
11
173.0179125
21
-181.5200288
0
LINE
8
0
10
172.9319149
20
-182.8362213
11
159.2456263
21
-196.5225099
0
LINE
8
0
10
158.0385195
20
-196.6814285
11
110.6604952
21
-169.3277135
0
LINE
8
0
10
110.4281443
20
-169.2302224
11
79.1313379
21
-160.5364835
0
LINE
8
0
10
78.8636888
20
-160.5
11
40
21
-160.5
0
ARC
8
0
10
40
20
-89.5
40
1
50
90
51
180
0
ARC
8
0
10
74
20
-87.5
40
1
50
270
51
0
0
ARC
8
0
10
76
20
-80.15
40
1
50
90
51
180
0
ARC
8
0
10
92
20
-78.15
40
1
50
270
51
0
0
ARC
8
0
10
94
20
-76.75
40
1
50
90
51
180
0
ARC
8
0
10
114
20
-76.75
40
1
50
0
51
90
0
ARC
8
0
10
116
20
-78.15
40
1
50
180
51
270
0
ARC
8
0
10
132
20
-80.15
40
1
50
0
51
90
0
ARC
8
0
10
150
20
-81.85
40
1
50
0
51
90
0
ARC
8
0
10
172.2248081
20
-182.1291145
40
1
50
315
51
37.5234229
0
ARC
8
0
10
158.5385195
20
-195.8154031
40
1
50
239.9999999
51
315
0
ARC
8
0
10
110.1604952
20
-170.1937389
40
1
50
59.9999999
51
74.4755783
0
ARC
8
0
10
78.8636888
20
-161.5
40
1
50
74.4755783
51
90
0
ARC
8
0
10
40
20
-159.5
40
1
50
180
51
270
0
LINE
8
0
10
151
20
-97.85
11
173
21
-97.85
0
LINE
8
0
10
173
20
-97.85
11
172.8455742
21
-181.2956232
0
ENDSEC
0
EOF