<svg width="134.225mm" height="121.065mm" viewBox="0 0 134.225 121.065" xmlns="http://www.w3.org/2000/svg"><g id="svgGroup" stroke-linecap="round" fill-rule="evenodd" font-size="9pt" stroke="#000" stroke-width="0.25mm" fill="none" style="stroke:#000;stroke-width:0.25mm;fill:none"><path d="M 0 83.75 L 0 13.75 A 1 1 0 0 1 1 12.75 L 35 12.75 A 1 1 0 0 0 36 11.75 L 36 4.4 A 1 1 0 0 1 37 3.4 L 53 3.4 A 1 1 0 0 0 54 2.4 L 54 1 A 1 1 0 0 1 55 0 L 75 0 A 1 1 0 0 1 76 1 L 76 2.4 A 1 1 0 0 0 77 3.4 L 93 3.4 A 1 1 0 0 1 94 4.4 L 94 5.1 L 111 5.1 A 1 1 0 0 1 112 6.1 L 112 22.1 L 134 22.1 L 133.846 105.546 L 134.018 105.77 A 1 1 0 0 1 133.932 107.086 L 120.246 120.773 A 1 1 0 0 1 119.039 120.931 L 71.66 93.578 A 1 1 0 0 0 71.428 93.48 L 40.131 84.786 A 1 1 0 0 0 39.864 84.75 L 1 84.75 A 1 1 0 0 1 0 83.75 Z M 20 31.75 m -1.1 0 a 1.1 1.1 0 0 1 2.2 0 a 1.1 1.1 0 0 1 -2.2 0 z M 20 65.75 m -1.1 0 a 1.1 1.1 0 0 1 2.2 0 a 1.1 1.1 0 0 1 -2.2 0 z M 92 22.4 m -1.1 0 a 1.1 1.1 0 0 1 2.2 0 a 1.1 1.1 0 0 1 -2.2 0 z M 92 75.1 m -1.1 0 a 1.1 1.1 0 0 1 2.2 0 a 1.1 1.1 0 0 1 -2.2 0 z M 111.147 100.314 m -1.1 0 a 1.1 1.1 0 0 1 2.2 0 a 1.1 1.1 0 0 1 -2.2 0 z" vector-effect="non-scaling-stroke"/></g></svg>