<svg width="134.552mm" height="121.315mm" viewBox="0 0 134.552 121.315" xmlns="http://www.w3.org/2000/svg"><g id="svgGroup" stroke-linecap="round" fill-rule="evenodd" font-size="9pt" stroke="#000" stroke-width="0.25mm" fill="none" style="stroke:#000;stroke-width:0.25mm;fill:none"><path d="M 0 84.75 L 40 84.75 L 40 75.4 L 58 75.4 L 58 72 L 72 72 L 72 75.4 L 76.404 75.4 L 71.551 93.514 L 90.615 98.622 L 105.747 107.359 L 119.703 121.315 L 134.552 106.466 L 118.996 90.91 L 116.303 93.603 L 118.207 90.304 L 99.155 79.304 L 97.25 82.603 L 98.236 78.924 L 91.43 77.1 L 112 77.1 L 112 5.1 L 94 5.1 L 94 3.4 L 76 3.4 L 76 0 L 54 0 L 54 3.4 L 36 3.4 L 36 12.75 L 0 12.75 L 0 84.75 Z M 85.085 75.4 L 90 75.4 L 90 76.717 L 85.085 75.4 Z" vector-effect="non-scaling-stroke"/></g></svg>