0
SECTION
2
HEADER
9
$INSUNITS
70
4
0
ENDSEC
0
SECTION
2
TABLES
0
TABLE
2
LTYPE
0
LTYPE
72
65
70
64
2
CONTINUOUS
3
______
73
0
40
0
0
ENDTAB
0
TABLE
2
LAYER
0
ENDTAB
0
ENDSEC
0
SECTION
2
ENTITIES
0
LINE
8
0
10
39
20
-160.5
11
79
21
-160.5
0
LINE
8
0
10
39
20
-160.5
11
39
21
-88.5
0
LINE
8
0
10
39
20
-88.5
11
75
21
-88.5
0
LINE
8
0
10
79
20
-160.5
11
79
21
-151.15
0
LINE
8
0
10
79
20
-151.15
11
97
21
-151.15
0
LINE
8
0
10
97
20
-151.15
11
97
21
-147.75
0
LINE
8
0
10
93
20
-79.15
11
75
21
-79.15
0
LINE
8
0
10
75
20
-79.15
11
75
21
-88.5
0
LINE
8
0
10
97
20
-147.75
11
111
21
-147.75
0
LINE
8
0
10
115
20
-79.15
11
115
21
-75.75
0
LINE
8
0
10
115
20
-75.75
11
93
21
-75.75
0
LINE
8
0
10
93
20
-75.75
11
93
21
-79.15
0
LINE
8
0
10
111
20
-151.15
11
115.4041991
21
-151.15
0
LINE
8
0
10
124.0851143
20
-151.15
11
129
21
-151.15
0
LINE
8
0
10
111
20
-147.75
11
111
21
-151.15
0
LINE
8
0
10
133
20
-80.85
11
133
21
-79.15
0
LINE
8
0
10
133
20
-79.15
11
115
21
-79.15
0
LINE
8
0
10
130.4296007
20
-152.85
11
151
21
-152.85
0
LINE
8
0
10
151
20
-152.85
11
151
21
-80.85
0
LINE
8
0
10
129
20
-151.15
11
129
21
-152.4669396
0
LINE
8
0
10
151
20
-80.85
11
133
21
-80.85
0
LINE
8
0
10
110.5505102
20
-169.2642136
11
129.614694
21
-174.3724462
0
LINE
8
0
10
136.2503681
20
-158.3525109
11
137.2360784
21
-154.6737902
0
LINE
8
0
10
137.2360784
20
-154.6737902
11
130.4296007
21
-152.85
0
LINE
8
0
10
129
20
-152.4669396
11
124.0851143
21
-151.15
0
LINE
8
0
10
115.4041991
20
-151.15
11
110.5505102
21
-169.2642136
0
LINE
8
0
10
129.614694
20
-174.3724462
11
144.7470933
21
-183.1091411
0
LINE
8
0
10
155.302927
20
-169.3525108
11
157.2071729
21
-166.0542602
0
LINE
8
0
10
157.2071729
20
-166.0542602
11
138.1546141
21
-155.0542602
0
LINE
8
0
10
138.1546141
20
-155.0542602
11
136.2503681
21
-158.3525109
0
LINE
8
0
10
144.7470933
20
-183.1091411
11
158.7030442
21
-197.065092
0
LINE
8
0
10
158.7030442
20
-197.065092
11
173.5522866
21
-182.2158496
0
LINE
8
0
10
173.5522866
20
-182.2158496
11
157.9959374
21
-166.6595004
0
LINE
8
0
10
157.9959374
20
-166.6595004
11
155.302927
21
-169.3525108
0
ENDSEC
0
EOF