<svg width="95.447mm" height="82.214mm" viewBox="0 0 95.447 82.214" xmlns="http://www.w3.org/2000/svg"><g id="svgGroup" stroke-linecap="round" fill-rule="evenodd" font-size="9pt" stroke="#000" stroke-width="0.25mm" fill="none" style="stroke:#000;stroke-width:0.25mm;fill:none"><path d="M 2.15 11.5 m -2.15 0 a 2.15 2.15 0 0 1 4.3 0 a 2.15 2.15 0 0 1 -4.3 0 z M 2.15 45.5 m -2.15 0 a 2.15 2.15 0 0 1 4.3 0 a 2.15 2.15 0 0 1 -4.3 0 z M 74.15 2.15 m -2.15 0 a 2.15 2.15 0 0 1 4.3 0 a 2.15 2.15 0 0 1 -4.3 0 z M 74.15 54.85 m -2.15 0 a 2.15 2.15 0 0 1 4.3 0 a 2.15 2.15 0 0 1 -4.3 0 z M 93.297 80.064 m -2.15 0 a 2.15 2.15 0 0 1 4.3 0 a 2.15 2.15 0 0 1 -4.3 0 z" vector-effect="non-scaling-stroke"/></g></svg>