<svg width="125.249mm" height="112.512mm" viewBox="0 0 125.249 112.512" xmlns="http://www.w3.org/2000/svg"><g id="svgGroup" stroke-linecap="round" fill-rule="evenodd" font-size="9pt" stroke="#000" stroke-width="0.25mm" fill="none" style="stroke:#000;stroke-width:0.25mm;fill:none"><path d="M 72.32 87.669 L 85.843 91.292 L 89.467 77.769 L 75.944 74.146 L 72.32 87.669 Z M 0 77.75 L 14 77.75 L 14 63.75 L 0 63.75 L 0 77.75 Z M 0 60.75 L 14 60.75 L 14 46.75 L 0 46.75 L 0 60.75 Z M 0 43.75 L 14 43.75 L 14 29.75 L 0 29.75 L 0 43.75 Z M 0 26.75 L 14 26.75 L 14 12.75 L 0 12.75 L 0 26.75 Z M 18 77.75 L 32 77.75 L 32 63.75 L 18 63.75 L 18 77.75 Z M 18 60.75 L 32 60.75 L 32 46.75 L 18 46.75 L 18 60.75 Z M 18 43.75 L 32 43.75 L 32 29.75 L 18 29.75 L 18 43.75 Z M 18 26.75 L 32 26.75 L 32 12.75 L 18 12.75 L 18 26.75 Z M 36 68.4 L 50 68.4 L 50 54.4 L 36 54.4 L 36 68.4 Z M 36 51.4 L 50 51.4 L 50 37.4 L 36 37.4 L 36 51.4 Z M 36 34.4 L 50 34.4 L 50 20.4 L 36 20.4 L 36 34.4 Z M 36 17.4 L 50 17.4 L 50 3.4 L 36 3.4 L 36 17.4 Z M 54 65 L 68 65 L 68 51 L 54 51 L 54 65 Z M 54 48 L 68 48 L 68 34 L 54 34 L 54 48 Z M 54 31 L 68 31 L 68 17 L 54 17 L 54 31 Z M 54 14 L 68 14 L 68 0 L 54 0 L 54 14 Z M 72 68.4 L 86 68.4 L 86 54.4 L 72 54.4 L 72 68.4 Z M 72 51.4 L 86 51.4 L 86 37.4 L 72 37.4 L 72 51.4 Z M 72 34.4 L 86 34.4 L 86 20.4 L 72 20.4 L 72 34.4 Z M 72 17.4 L 86 17.4 L 86 3.4 L 72 3.4 L 72 17.4 Z M 90 70.1 L 104 70.1 L 104 56.1 L 90 56.1 L 90 70.1 Z M 90 53.1 L 104 53.1 L 104 39.1 L 90 39.1 L 90 53.1 Z M 90 36.1 L 104 36.1 L 104 22.1 L 90 22.1 L 90 36.1 Z M 90 19.1 L 104 19.1 L 104 5.1 L 90 5.1 L 90 19.1 Z M 89.869 92.96 L 101.993 99.96 L 108.993 87.835 L 96.869 80.835 L 89.869 92.96 Z M 105.45 102.612 L 115.349 112.512 L 125.249 102.612 L 115.349 92.713 L 105.45 102.612 Z" vector-effect="non-scaling-stroke"/></g></svg>