0
SECTION
2
HEADER
9
$INSUNITS
70
4
0
ENDSEC
0
SECTION
2
TABLES
0
TABLE
2
LTYPE
0
LTYPE
72
65
70
64
2
CONTINUOUS
3
______
73
0
40
0
0
ENDTAB
0
TABLE
2
LAYER
0
ENDTAB
0
ENDSEC
0
SECTION
2
ENTITIES
0
LINE
8
0
10
43
20
-157
11
57
21
-157
0
LINE
8
0
10
57
20
-157
11
57
21
-143
0
LINE
8
0
10
57
20
-143
11
43
21
-143
0
LINE
8
0
10
43
20
-143
11
43
21
-157
0
LINE
8
0
10
43
20
-140
11
57
21
-140
0
LINE
8
0
10
57
20
-140
11
57
21
-126
0
LINE
8
0
10
57
20
-126
11
43
21
-126
0
LINE
8
0
10
43
20
-126
11
43
21
-140
0
LINE
8
0
10
43
20
-123
11
57
21
-123
0
LINE
8
0
10
57
20
-123
11
57
21
-109
0
LINE
8
0
10
57
20
-109
11
43
21
-109
0
LINE
8
0
10
43
20
-109
11
43
21
-123
0
LINE
8
0
10
43
20
-106
11
57
21
-106
0
LINE
8
0
10
57
20
-106
11
57
21
-92
0
LINE
8
0
10
57
20
-92
11
43
21
-92
0
LINE
8
0
10
43
20
-92
11
43
21
-106
0
LINE
8
0
10
61
20
-157
11
75
21
-157
0
LINE
8
0
10
75
20
-157
11
75
21
-143
0
LINE
8
0
10
75
20
-143
11
61
21
-143
0
LINE
8
0
10
61
20
-143
11
61
21
-157
0
LINE
8
0
10
61
20
-140
11
75
21
-140
0
LINE
8
0
10
75
20
-140
11
75
21
-126
0
LINE
8
0
10
75
20
-126
11
61
21
-126
0
LINE
8
0
10
61
20
-126
11
61
21
-140
0
LINE
8
0
10
61
20
-123
11
75
21
-123
0
LINE
8
0
10
75
20
-123
11
75
21
-109
0
LINE
8
0
10
75
20
-109
11
61
21
-109
0
LINE
8
0
10
61
20
-109
11
61
21
-123
0
LINE
8
0
10
61
20
-106
11
75
21
-106
0
LINE
8
0
10
75
20
-106
11
75
21
-92
0
LINE
8
0
10
75
20
-92
11
61
21
-92
0
LINE
8
0
10
61
20
-92
11
61
21
-106
0
LINE
8
0
10
79
20
-147.65
11
93
21
-147.65
0
LINE
8
0
10
93
20
-147.65
11
93
21
-133.65
0
LINE
8
0
10
93
20
-133.65
11
79
21
-133.65
0
LINE
8
0
10
79
20
-133.65
11
79
21
-147.65
0
LINE
8
0
10
79
20
-130.65
11
93
21
-130.65
0
LINE
8
0
10
93
20
-130.65
11
93
21
-116.65
0
LINE
8
0
10
93
20
-116.65
11
79
21
-116.65
0
LINE
8
0
10
79
20
-116.65
11
79
21
-130.65
0
LINE
8
0
10
79
20
-113.65
11
93
21
-113.65
0
LINE
8
0
10
93
20
-113.65
11
93
21
-99.65
0
LINE
8
0
10
93
20
-99.65
11
79
21
-99.65
0
LINE
8
0
10
79
20
-99.65
11
79
21
-113.65
0
LINE
8
0
10
79
20
-96.65
11
93
21
-96.65
0
LINE
8
0
10
93
20
-96.65
11
93
21
-82.65
0
LINE
8
0
10
93
20
-82.65
11
79
21
-82.65
0
LINE
8
0
10
79
20
-82.65
11
79
21
-96.65
0
LINE
8
0
10
97
20
-144.25
11
111
21
-144.25
0
LINE
8
0
10
111
20
-144.25
11
111
21
-130.25
0
LINE
8
0
10
111
20
-130.25
11
97
21
-130.25
0
LINE
8
0
10
97
20
-130.25
11
97
21
-144.25
0
LINE
8
0
10
97
20
-127.25
11
111
21
-127.25
0
LINE
8
0
10
111
20
-127.25
11
111
21
-113.25
0
LINE
8
0
10
111
20
-113.25
11
97
21
-113.25
0
LINE
8
0
10
97
20
-113.25
11
97
21
-127.25
0
LINE
8
0
10
97
20
-110.25
11
111
21
-110.25
0
LINE
8
0
10
111
20
-110.25
11
111
21
-96.25
0
LINE
8
0
10
111
20
-96.25
11
97
21
-96.25
0
LINE
8
0
10
97
20
-96.25
11
97
21
-110.25
0
LINE
8
0
10
97
20
-93.25
11
111
21
-93.25
0
LINE
8
0
10
111
20
-93.25
11
111
21
-79.25
0
LINE
8
0
10
111
20
-79.25
11
97
21
-79.25
0
LINE
8
0
10
97
20
-79.25
11
97
21
-93.25
0
LINE
8
0
10
115
20
-147.65
11
129
21
-147.65
0
LINE
8
0
10
129
20
-147.65
11
129
21
-133.65
0
LINE
8
0
10
129
20
-133.65
11
115
21
-133.65
0
LINE
8
0
10
115
20
-133.65
11
115
21
-147.65
0
LINE
8
0
10
115
20
-130.65
11
129
21
-130.65
0
LINE
8
0
10
129
20
-130.65
11
129
21
-116.65
0
LINE
8
0
10
129
20
-116.65
11
115
21
-116.65
0
LINE
8
0
10
115
20
-116.65
11
115
21
-130.65
0
LINE
8
0
10
115
20
-113.65
11
129
21
-113.65
0
LINE
8
0
10
129
20
-113.65
11
129
21
-99.65
0
LINE
8
0
10
129
20
-99.65
11
115
21
-99.65
0
LINE
8
0
10
115
20
-99.65
11
115
21
-113.65
0
LINE
8
0
10
115
20
-96.65
11
129
21
-96.65
0
LINE
8
0
10
129
20
-96.65
11
129
21
-82.65
0
LINE
8
0
10
129
20
-82.65
11
115
21
-82.65
0
LINE
8
0
10
115
20
-82.65
11
115
21
-96.65
0
LINE
8
0
10
133
20
-149.35
11
147
21
-149.35
0
LINE
8
0
10
147
20
-149.35
11
147
21
-135.35
0
LINE
8
0
10
147
20
-135.35
11
133
21
-135.35
0
LINE
8
0
10
133
20
-135.35
11
133
21
-149.35
0
LINE
8
0
10
133
20
-132.35
11
147
21
-132.35
0
LINE
8
0
10
147
20
-132.35
11
147
21
-118.35
0
LINE
8
0
10
147
20
-118.35
11
133
21
-118.35
0
LINE
8
0
10
133
20
-118.35
11
133
21
-132.35
0
LINE
8
0
10
133
20
-115.35
11
147
21
-115.35
0
LINE
8
0
10
147
20
-115.35
11
147
21
-101.35
0
LINE
8
0
10
147
20
-101.35
11
133
21
-101.35
0
LINE
8
0
10
133
20
-101.35
11
133
21
-115.35
0
LINE
8
0
10
133
20
-98.35
11
147
21
-98.35
0
LINE
8
0
10
147
20
-98.35
11
147
21
-84.35
0
LINE
8
0
10
147
20
-84.35
11
133
21
-84.35
0
LINE
8
0
10
133
20
-84.35
11
133
21
-98.35
0
LINE
8
0
10
115.3200802
20
-166.9187494
11
128.8430418
21
-170.542216
0
LINE
8
0
10
128.8430418
20
-170.542216
11
132.4665084
21
-157.0192544
0
LINE
8
0
10
132.4665084
20
-157.0192544
11
118.9435468
21
-153.3957878
0
LINE
8
0
10
118.9435468
20
-153.3957878
11
115.3200802
21
-166.9187494
0
LINE
8
0
10
132.8687157
20
-172.2097047
11
144.9930713
21
-179.2097047
0
LINE
8
0
10
144.9930713
20
-179.2097047
11
151.9930713
21
-167.0853491
0
LINE
8
0
10
151.9930713
20
-167.0853491
11
139.8687157
21
-160.0853491
0
LINE
8
0
10
139.8687157
20
-160.0853491
11
132.8687157
21
-172.2097047
0
LINE
8
0
10
148.4499959
20
-181.8622962
11
158.3494908
21
-191.7617911
0
LINE
8
0
10
158.3494908
20
-191.7617911
11
168.2489857
21
-181.8622962
0
LINE
8
0
10
168.2489857
20
-181.8622962
11
158.3494908
21
-171.9628013
0
LINE
8
0
10
158.3494908
20
-171.9628013
11
148.4499959
21
-181.8622962
0
ENDSEC
0
EOF