<svg width="134.225mm" height="121.065mm" viewBox="0 0 134.225 121.065" xmlns="http://www.w3.org/2000/svg"><g id="svgGroup" stroke-linecap="round" fill-rule="evenodd" font-size="9pt" stroke="#000" stroke-width="0.25mm" fill="none" style="stroke:#000;stroke-width:0.25mm;fill:none"><path d="M 0 83.75 L 0 13.75 A 1 1 0 0 1 1 12.75 L 35 12.75 A 1 1 0 0 0 36 11.75 L 36 4.4 A 1 1 0 0 1 37 3.4 L 53 3.4 A 1 1 0 0 0 54 2.4 L 54 1 A 1 1 0 0 1 55 0 L 75 0 A 1 1 0 0 1 76 1 L 76 2.4 A 1 1 0 0 0 77 3.4 L 93 3.4 A 1 1 0 0 1 94 4.4 L 94 5.1 L 111 5.1 A 1 1 0 0 1 112 6.1 L 112 76.76 A 1 1 0 0 0 112.207 77.369 L 134.018 105.77 A 1 1 0 0 1 133.932 107.086 L 120.246 120.773 A 1 1 0 0 1 119.039 120.931 L 71.66 93.578 A 1 1 0 0 0 71.428 93.48 L 40.131 84.786 A 1 1 0 0 0 39.864 84.75 L 1 84.75 A 1 1 0 0 1 0 83.75 Z M 76.32 91.169 L 89.843 94.792 L 93.467 81.269 L 79.944 77.646 L 76.32 91.169 Z M 4 81.25 L 18 81.25 L 18 67.25 L 4 67.25 L 4 81.25 Z M 4 64.25 L 18 64.25 L 18 50.25 L 4 50.25 L 4 64.25 Z M 4 47.25 L 18 47.25 L 18 33.25 L 4 33.25 L 4 47.25 Z M 4 30.25 L 18 30.25 L 18 16.25 L 4 16.25 L 4 30.25 Z M 22 81.25 L 36 81.25 L 36 67.25 L 22 67.25 L 22 81.25 Z M 22 64.25 L 36 64.25 L 36 50.25 L 22 50.25 L 22 64.25 Z M 22 47.25 L 36 47.25 L 36 33.25 L 22 33.25 L 22 47.25 Z M 22 30.25 L 36 30.25 L 36 16.25 L 22 16.25 L 22 30.25 Z M 40 71.9 L 54 71.9 L 54 57.9 L 40 57.9 L 40 71.9 Z M 40 54.9 L 54 54.9 L 54 40.9 L 40 40.9 L 40 54.9 Z M 40 37.9 L 54 37.9 L 54 23.9 L 40 23.9 L 40 37.9 Z M 40 20.9 L 54 20.9 L 54 6.9 L 40 6.9 L 40 20.9 Z M 58 68.5 L 72 68.5 L 72 54.5 L 58 54.5 L 58 68.5 Z M 58 51.5 L 72 51.5 L 72 37.5 L 58 37.5 L 58 51.5 Z M 58 34.5 L 72 34.5 L 72 20.5 L 58 20.5 L 58 34.5 Z M 58 17.5 L 72 17.5 L 72 3.5 L 58 3.5 L 58 17.5 Z M 76 71.9 L 90 71.9 L 90 57.9 L 76 57.9 L 76 71.9 Z M 76 54.9 L 90 54.9 L 90 40.9 L 76 40.9 L 76 54.9 Z M 76 37.9 L 90 37.9 L 90 23.9 L 76 23.9 L 76 37.9 Z M 76 20.9 L 90 20.9 L 90 6.9 L 76 6.9 L 76 20.9 Z M 94 73.6 L 108 73.6 L 108 59.6 L 94 59.6 L 94 73.6 Z M 94 56.6 L 108 56.6 L 108 42.6 L 94 42.6 L 94 56.6 Z M 94 39.6 L 108 39.6 L 108 25.6 L 94 25.6 L 94 39.6 Z M 94 22.6 L 108 22.6 L 108 8.6 L 94 8.6 L 94 22.6 Z M 93.869 96.46 L 105.993 103.46 L 112.993 91.335 L 100.869 84.335 L 93.869 96.46 Z M 109.45 106.112 L 119.349 116.012 L 129.249 106.112 L 119.349 96.213 L 109.45 106.112 Z M 20 31.75 m -1.1 0 a 1.1 1.1 0 0 1 2.2 0 a 1.1 1.1 0 0 1 -2.2 0 z M 20 65.75 m -1.1 0 a 1.1 1.1 0 0 1 2.2 0 a 1.1 1.1 0 0 1 -2.2 0 z M 92 22.4 m -1.1 0 a 1.1 1.1 0 0 1 2.2 0 a 1.1 1.1 0 0 1 -2.2 0 z M 92 75.1 m -1.1 0 a 1.1 1.1 0 0 1 2.2 0 a 1.1 1.1 0 0 1 -2.2 0 z M 111.147 100.314 m -1.1 0 a 1.1 1.1 0 0 1 2.2 0 a 1.1 1.1 0 0 1 -2.2 0 z" vector-effect="non-scaling-stroke"/></g></svg>