<svg width="139.02mm" height="125.894mm" viewBox="0 0 139.02 125.894" xmlns="http://www.w3.org/2000/svg"><g id="svgGroup" stroke-linecap="round" fill-rule="evenodd" font-size="9pt" stroke="#000" stroke-width="0.25mm" fill="none" style="stroke:#000;stroke-width:0.25mm;fill:none"><path d="M 0 87.75 L 0 13.75 A 1 1 0 0 1 1 12.75 L 35 12.75 A 1 1 0 0 0 36 11.75 L 36 4.4 A 1 1 0 0 1 37 3.4 L 53 3.4 A 1 1 0 0 0 54 2.4 L 54 1 A 1 1 0 0 1 55 0 L 79 0 A 1 1 0 0 1 80 1 L 80 2.4 A 1 1 0 0 0 81 3.4 L 97 3.4 A 1 1 0 0 1 98 4.4 L 98 5.1 L 115 5.1 A 1 1 0 0 1 116 6.1 L 116 22.1 L 138 22.1 L 137.967 106.811 L 138.78 107.763 A 1 1 0 0 1 138.727 109.12 L 122.246 125.601 A 1 1 0 0 1 121.039 125.76 L 71.201 96.986 A 1 1 0 0 0 70.99 96.895 L 44.141 88.793 A 1 1 0 0 0 43.852 88.75 L 1 88.75 A 1 1 0 0 1 0 87.75 Z M 78.32 93.169 L 91.843 96.792 L 95.467 83.269 L 81.944 79.646 L 78.32 93.169 Z M 6 83.25 L 20 83.25 L 20 69.25 L 6 69.25 L 6 83.25 Z M 6 66.25 L 20 66.25 L 20 52.25 L 6 52.25 L 6 66.25 Z M 6 49.25 L 20 49.25 L 20 35.25 L 6 35.25 L 6 49.25 Z M 6 32.25 L 20 32.25 L 20 18.25 L 6 18.25 L 6 32.25 Z M 24 83.25 L 38 83.25 L 38 69.25 L 24 69.25 L 24 83.25 Z M 24 66.25 L 38 66.25 L 38 52.25 L 24 52.25 L 24 66.25 Z M 24 49.25 L 38 49.25 L 38 35.25 L 24 35.25 L 24 49.25 Z M 24 32.25 L 38 32.25 L 38 18.25 L 24 18.25 L 24 32.25 Z M 42 73.9 L 56 73.9 L 56 59.9 L 42 59.9 L 42 73.9 Z M 42 56.9 L 56 56.9 L 56 42.9 L 42 42.9 L 42 56.9 Z M 42 39.9 L 56 39.9 L 56 25.9 L 42 25.9 L 42 39.9 Z M 42 22.9 L 56 22.9 L 56 8.9 L 42 8.9 L 42 22.9 Z M 60 70.5 L 74 70.5 L 74 56.5 L 60 56.5 L 60 70.5 Z M 60 53.5 L 74 53.5 L 74 39.5 L 60 39.5 L 60 53.5 Z M 60 36.5 L 74 36.5 L 74 22.5 L 60 22.5 L 60 36.5 Z M 60 19.5 L 74 19.5 L 74 5.5 L 60 5.5 L 60 19.5 Z M 78 73.9 L 92 73.9 L 92 59.9 L 78 59.9 L 78 73.9 Z M 78 56.9 L 92 56.9 L 92 42.9 L 78 42.9 L 78 56.9 Z M 78 39.9 L 92 39.9 L 92 25.9 L 78 25.9 L 78 39.9 Z M 78 22.9 L 92 22.9 L 92 8.9 L 78 8.9 L 78 22.9 Z M 96 75.6 L 110 75.6 L 110 61.6 L 96 61.6 L 96 75.6 Z M 96 58.6 L 110 58.6 L 110 44.6 L 96 44.6 L 96 58.6 Z M 96 41.6 L 110 41.6 L 110 27.6 L 96 27.6 L 96 41.6 Z M 96 24.6 L 110 24.6 L 110 10.6 L 96 10.6 L 96 24.6 Z M 95.869 98.46 L 107.993 105.46 L 114.993 93.335 L 102.869 86.335 L 95.869 98.46 Z M 111.45 108.112 L 121.349 118.012 L 131.249 108.112 L 121.349 98.213 L 111.45 108.112 Z M 22 33.75 m -1.1 0 a 1.1 1.1 0 0 1 2.2 0 a 1.1 1.1 0 0 1 -2.2 0 z M 22 67.75 m -1.1 0 a 1.1 1.1 0 0 1 2.2 0 a 1.1 1.1 0 0 1 -2.2 0 z M 94 24.4 m -1.1 0 a 1.1 1.1 0 0 1 2.2 0 a 1.1 1.1 0 0 1 -2.2 0 z M 94 77.1 m -1.1 0 a 1.1 1.1 0 0 1 2.2 0 a 1.1 1.1 0 0 1 -2.2 0 z M 113.147 102.314 m -1.1 0 a 1.1 1.1 0 0 1 2.2 0 a 1.1 1.1 0 0 1 -2.2 0 z" vector-effect="non-scaling-stroke"/></g></svg>