<svg width="139.02mm" height="125.894mm" viewBox="0 0 139.02 125.894" xmlns="http://www.w3.org/2000/svg"><g id="svgGroup" stroke-linecap="round" fill-rule="evenodd" font-size="9pt" stroke="#000" stroke-width="0.25mm" fill="none" style="stroke:#000;stroke-width:0.25mm;fill:none"><path d="M 0 87.75 L 0 13.75 A 1 1 0 0 1 1 12.75 L 35 12.75 A 1 1 0 0 0 36 11.75 L 36 4.4 A 1 1 0 0 1 37 3.4 L 53 3.4 A 1 1 0 0 0 54 2.4 L 54 1 A 1 1 0 0 1 55 0 L 79 0 A 1 1 0 0 1 80 1 L 80 2.4 A 1 1 0 0 0 81 3.4 L 97 3.4 A 1 1 0 0 1 98 4.4 L 98 5.1 L 115 5.1 A 1 1 0 0 1 116 6.1 L 116 22.1 L 138 22.1 L 137.967 106.811 L 138.78 107.763 A 1 1 0 0 1 138.727 109.12 L 122.246 125.601 A 1 1 0 0 1 121.039 125.76 L 71.201 96.986 A 1 1 0 0 0 70.99 96.895 L 44.141 88.793 A 1 1 0 0 0 43.852 88.75 L 1 88.75 A 1 1 0 0 1 0 87.75 Z" vector-effect="non-scaling-stroke"/></g></svg>