0
SECTION
2
HEADER
9
$INSUNITS
70
4
0
ENDSEC
0
SECTION
2
TABLES
0
TABLE
2
LTYPE
0
LTYPE
72
65
70
64
2
CONTINUOUS
3
______
73
0
40
0
0
ENDTAB
0
TABLE
2
LAYER
0
ENDTAB
0
ENDSEC
0
SECTION
2
ENTITIES
0
LINE
8
0
10
37
20
-161.5
11
37
21
-87.5
0
LINE
8
0
10
38
20
-86.5
11
72
21
-86.5
0
LINE
8
0
10
73
20
-85.5
11
73
21
-78.15
0
LINE
8
0
10
74
20
-77.15
11
90
21
-77.15
0
LINE
8
0
10
91
20
-76.15
11
91
21
-74.75
0
LINE
8
0
10
92
20
-73.75
11
116
21
-73.75
0
LINE
8
0
10
117
20
-74.75
11
117
21
-76.15
0
LINE
8
0
10
118
20
-77.15
11
134
21
-77.15
0
LINE
8
0
10
135
20
-78.15
11
135
21
-78.85
0
LINE
8
0
10
135
20
-78.85
11
152
21
-78.85
0
LINE
8
0
10
153
20
-79.85
11
153
21
-95.85
0
LINE
8
0
10
174.9665952
20
-180.5607011
11
175.7801475
21
-181.5129197
0
LINE
8
0
10
175.7269591
20
-182.8696042
11
159.2456263
21
-199.350937
0
LINE
8
0
10
158.0385195
20
-199.5098556
11
108.2012804
21
-170.7363122
0
LINE
8
0
10
107.9901874
20
-170.6449804
11
81.1413063
21
-162.5426428
0
LINE
8
0
10
80.8523993
20
-162.5
11
38
21
-162.5
0
ARC
8
0
10
38
20
-87.5
40
1
50
90
51
180
0
ARC
8
0
10
72
20
-85.5
40
1
50
270
51
0
0
ARC
8
0
10
74
20
-78.15
40
1
50
90
51
180
0
ARC
8
0
10
90
20
-76.15
40
1
50
270
51
0
0
ARC
8
0
10
92
20
-74.75
40
1
50
90
51
180
0
ARC
8
0
10
116
20
-74.75
40
1
50
0
51
90
0
ARC
8
0
10
118
20
-76.15
40
1
50
180
51
270
0
ARC
8
0
10
134
20
-78.15
40
1
50
0
51
90
0
ARC
8
0
10
152
20
-79.85
40
1
50
0
51
90
0
ARC
8
0
10
175.0198523
20
-182.1624974
40
1
50
315
51
40.5097703
0
ARC
8
0
10
158.5385195
20
-198.6438302
40
1
50
239.9999999
51
315
0
ARC
8
0
10
107.7012804
20
-171.6023376
40
1
50
59.9999999
51
73.2074695
0
ARC
8
0
10
80.8523993
20
-163.5
40
1
50
73.2074695
51
90
0
ARC
8
0
10
38
20
-161.5
40
1
50
180
51
270
0
LINE
8
0
10
153
20
-95.85
11
175
21
-95.85
0
LINE
8
0
10
175
20
-95.85
11
174.9665952
21
-180.5607011
0
ENDSEC
0
EOF