%TF.GenerationSoftware,KiCad,Pcbnew,8.0.8+1*%
%TF.CreationDate,2025-04-03T17:45:38+00:00*%
%TF.ProjectId,top_plate,746f705f-706c-4617-9465-2e6b69636164,0.1*%
%TF.SameCoordinates,Original*%
%TF.FileFunction,Drillmap*%
%TF.FilePolarity,Positive*%
%FSLAX45Y45*%
G04 Gerber Fmt 4.5, Leading zero omitted, Abs format (unit mm)*
G04 Created by KiCad (PCBNEW 8.0.8+1) date 2025-04-03 17:45:38*
%MOMM*%
%LPD*%
G01*
G04 APERTURE LIST*
%ADD10C,0.150000*%
%ADD11C,0.200000*%
G04 APERTURE END LIST*
D10*
X11500000Y-11665000D02*
X11500000Y-13065000D01*
X11600000Y-7915000D02*
G75*
G02*
X11500000Y-7815000I0J100000D01*
G01*
X7500000Y-14300000D02*
X6100000Y-14300000D01*
X14700000Y-11835000D02*
X13300000Y-11835000D01*
X7500000Y-8750000D02*
X7500000Y-8015000D01*
X5700000Y-10900000D02*
X4300000Y-10900000D01*
X6100000Y-14300000D02*
X6100000Y-15700000D01*
X7500000Y-12300000D02*
X7500000Y-10900000D01*
X4300000Y-10600000D02*
X5700000Y-10600000D01*
X6100000Y-12600000D02*
X6100000Y-14000000D01*
X15120690Y-15311940D02*
X17301791Y-18152003D01*
X15000000Y-8085000D02*
G75*
G02*
X15100000Y-8185000I0J-100000D01*
G01*
X11600000Y-7915000D02*
X13200000Y-7915000D01*
X7500000Y-12600000D02*
X6100000Y-12600000D01*
X4300000Y-9200000D02*
X4300000Y-10600000D01*
X13246651Y-15701925D02*
X11894355Y-15339579D01*
X11042814Y-16923022D02*
X7913134Y-16053648D01*
X12884304Y-17054222D02*
X13246651Y-15701925D01*
X7886369Y-16050000D02*
X4000000Y-16050000D01*
X11500000Y-14765000D02*
X12900000Y-14765000D01*
X13300000Y-11535000D02*
X14700000Y-11535000D01*
X9700000Y-14425000D02*
X11100000Y-14425000D01*
X17293192Y-18283622D02*
X15924563Y-19652251D01*
X4000000Y-16050000D02*
G75*
G02*
X3900000Y-15950000I0J100000D01*
G01*
X6010000Y-14150000D02*
G75*
G02*
X5790000Y-14150000I-110000J0D01*
G01*
X5790000Y-14150000D02*
G75*
G02*
X6010000Y-14150000I110000J0D01*
G01*
X11532008Y-16691875D02*
X12884304Y-17054222D01*
X11100000Y-9625000D02*
X9700000Y-9625000D01*
X12900000Y-11665000D02*
X11500000Y-11665000D01*
X4300000Y-10900000D02*
X4300000Y-12300000D01*
X11500000Y-13065000D02*
X12900000Y-13065000D01*
X9700000Y-9325000D02*
X11100000Y-9325000D01*
X12900000Y-11365000D02*
X12900000Y-9965000D01*
X12900000Y-13065000D02*
X12900000Y-11665000D01*
X7500000Y-8015000D02*
G75*
G02*
X7600000Y-7915000I100000J0D01*
G01*
X13300000Y-8435000D02*
X13300000Y-9835000D01*
X6100000Y-9200000D02*
X6100000Y-10600000D01*
X9400000Y-7575000D02*
X11400000Y-7575000D01*
X5700000Y-14000000D02*
X5700000Y-12600000D01*
X14700000Y-8435000D02*
X13300000Y-8435000D01*
X9300000Y-11365000D02*
X9300000Y-9965000D01*
X12900000Y-13365000D02*
X11500000Y-13365000D01*
X11100000Y-11325000D02*
X9700000Y-11325000D01*
X15834949Y-17196280D02*
X14845000Y-18186230D01*
X4300000Y-14300000D02*
X4300000Y-15700000D01*
X11500000Y-9665000D02*
X12900000Y-9665000D01*
X7600000Y-7915000D02*
X9200000Y-7915000D01*
X9300000Y-7815000D02*
G75*
G02*
X9200000Y-7915000I-100000J0D01*
G01*
X14700000Y-10135000D02*
X13300000Y-10135000D01*
X5700000Y-12300000D02*
X5700000Y-10900000D01*
X14700000Y-13535000D02*
X13300000Y-13535000D01*
X5700000Y-10600000D02*
X5700000Y-9200000D01*
X7900000Y-13365000D02*
X7900000Y-14765000D01*
X6100000Y-14000000D02*
X7500000Y-14000000D01*
X11100000Y-9325000D02*
X11100000Y-7925000D01*
X4300000Y-12300000D02*
X5700000Y-12300000D01*
X9700000Y-11025000D02*
X11100000Y-11025000D01*
X15803852Y-19668143D02*
X11066050Y-16932771D01*
X7900000Y-11365000D02*
X9300000Y-11365000D01*
X12900000Y-9965000D02*
X11500000Y-9965000D01*
X11400000Y-7575000D02*
G75*
G02*
X11500000Y-7675000I0J-100000D01*
G01*
X5700000Y-9200000D02*
X4300000Y-9200000D01*
X13986872Y-16008535D02*
X13286872Y-17220971D01*
X13210000Y-15085000D02*
G75*
G02*
X12990000Y-15085000I-110000J0D01*
G01*
X12990000Y-15085000D02*
G75*
G02*
X13210000Y-15085000I110000J0D01*
G01*
X9300000Y-13365000D02*
X7900000Y-13365000D01*
X14700000Y-13235000D02*
X14700000Y-11835000D01*
X9300000Y-8265000D02*
X7900000Y-8265000D01*
X7900000Y-9965000D02*
X7900000Y-11365000D01*
X7500000Y-14000000D02*
X7500000Y-12600000D01*
X9300000Y-7815000D02*
X9300000Y-7675000D01*
X4300000Y-15700000D02*
X5700000Y-15700000D01*
X13300000Y-11835000D02*
X13300000Y-13235000D01*
X17301791Y-18152003D02*
G75*
G02*
X17293190Y-18283621I-79311J-60907D01*
G01*
X6100000Y-12300000D02*
X7500000Y-12300000D01*
X7500000Y-8750000D02*
G75*
G02*
X7400000Y-8850000I-100000J0D01*
G01*
X11500000Y-8265000D02*
X11500000Y-9665000D01*
X11500000Y-9965000D02*
X11500000Y-11365000D01*
X5700000Y-12600000D02*
X4300000Y-12600000D01*
X7886369Y-16050000D02*
G75*
G02*
X7913134Y-16053649I1J-99980D01*
G01*
X6100000Y-10600000D02*
X7500000Y-10600000D01*
X11894355Y-15339579D02*
X11532008Y-16691875D01*
X9300000Y-11665000D02*
X7900000Y-11665000D01*
X15924563Y-19652251D02*
G75*
G02*
X15803850Y-19668146I-70713J70701D01*
G01*
X15199307Y-16708535D02*
X13986872Y-16008535D01*
X13300000Y-13235000D02*
X14700000Y-13235000D01*
X9300000Y-7675000D02*
G75*
G02*
X9400000Y-7575000I100000J0D01*
G01*
X15120690Y-15311940D02*
G75*
G02*
X15099997Y-15251032I79300J60910D01*
G01*
X12900000Y-8265000D02*
X11500000Y-8265000D01*
X11042814Y-16923022D02*
G75*
G02*
X11066049Y-16932772I-26774J-96368D01*
G01*
X13300000Y-8015000D02*
X13300000Y-8085000D01*
X15124705Y-17606402D02*
G75*
G02*
X14904705Y-17606402I-110000J0D01*
G01*
X14904705Y-17606402D02*
G75*
G02*
X15124705Y-17606402I110000J0D01*
G01*
X3900000Y-8950000D02*
G75*
G02*
X4000000Y-8850000I100000J0D01*
G01*
X12900000Y-9665000D02*
X12900000Y-8265000D01*
X11100000Y-7925000D02*
X9700000Y-7925000D01*
X4000000Y-8850000D02*
X7400000Y-8850000D01*
X13300000Y-8085000D02*
X15000000Y-8085000D01*
X9300000Y-9965000D02*
X7900000Y-9965000D01*
X7900000Y-9665000D02*
X9300000Y-9665000D01*
X9300000Y-14765000D02*
X9300000Y-13365000D01*
X4300000Y-14000000D02*
X5700000Y-14000000D01*
X6100000Y-10900000D02*
X6100000Y-12300000D01*
X6010000Y-10750000D02*
G75*
G02*
X5790000Y-10750000I-110000J0D01*
G01*
X5790000Y-10750000D02*
G75*
G02*
X6010000Y-10750000I110000J0D01*
G01*
X9700000Y-13025000D02*
X9700000Y-14425000D01*
X6100000Y-15700000D02*
X7500000Y-15700000D01*
X13286872Y-17220971D02*
X14499307Y-17920971D01*
X9700000Y-7925000D02*
X9700000Y-9325000D01*
X13300000Y-10135000D02*
X13300000Y-11535000D01*
X9700000Y-11325000D02*
X9700000Y-12725000D01*
X11100000Y-11025000D02*
X11100000Y-9625000D01*
X11100000Y-12725000D02*
X11100000Y-11325000D01*
X13210000Y-9815000D02*
G75*
G02*
X12990000Y-9815000I-110000J0D01*
G01*
X12990000Y-9815000D02*
G75*
G02*
X13210000Y-9815000I110000J0D01*
G01*
X11500000Y-11365000D02*
X12900000Y-11365000D01*
X7900000Y-14765000D02*
X9300000Y-14765000D01*
X14700000Y-14935000D02*
X14700000Y-13535000D01*
X7900000Y-11665000D02*
X7900000Y-13065000D01*
X7500000Y-10600000D02*
X7500000Y-9200000D01*
X9700000Y-12725000D02*
X11100000Y-12725000D01*
X16824899Y-18186230D02*
X15834949Y-17196280D01*
X5700000Y-14300000D02*
X4300000Y-14300000D01*
X13300000Y-13535000D02*
X13300000Y-14935000D01*
X7500000Y-10900000D02*
X6100000Y-10900000D01*
X15834949Y-19176179D02*
X16824899Y-18186230D01*
X3900000Y-15950000D02*
X3900000Y-8950000D01*
X13300000Y-9835000D02*
X14700000Y-9835000D01*
X14845000Y-18186230D02*
X15834949Y-19176179D01*
X7500000Y-15700000D02*
X7500000Y-14300000D01*
X11500000Y-13365000D02*
X11500000Y-14765000D01*
X13200000Y-7915000D02*
G75*
G02*
X13300000Y-8015000I0J-100000D01*
G01*
X11100000Y-13025000D02*
X9700000Y-13025000D01*
X7500000Y-9200000D02*
X6100000Y-9200000D01*
X5700000Y-15700000D02*
X5700000Y-14300000D01*
X9300000Y-9665000D02*
X9300000Y-8265000D01*
X4300000Y-12600000D02*
X4300000Y-14000000D01*
X9300000Y-13065000D02*
X9300000Y-11665000D01*
X12900000Y-14765000D02*
X12900000Y-13365000D01*
X9700000Y-9625000D02*
X9700000Y-11025000D01*
X15100000Y-8185000D02*
X15100000Y-15251032D01*
X7900000Y-8265000D02*
X7900000Y-9665000D01*
X11100000Y-14425000D02*
X11100000Y-13025000D01*
X14700000Y-11535000D02*
X14700000Y-10135000D01*
X14700000Y-9835000D02*
X14700000Y-8435000D01*
X7900000Y-13065000D02*
X9300000Y-13065000D01*
X11500000Y-7675000D02*
X11500000Y-7815000D01*
X13300000Y-14935000D02*
X14700000Y-14935000D01*
X14499307Y-17920971D02*
X15199307Y-16708535D01*
D11*
X4153277Y-20000528D02*
X4153277Y-19800528D01*
X4153277Y-19800528D02*
X4200896Y-19800528D01*
X4200896Y-19800528D02*
X4229467Y-19810052D01*
X4229467Y-19810052D02*
X4248515Y-19829100D01*
X4248515Y-19829100D02*
X4258039Y-19848147D01*
X4258039Y-19848147D02*
X4267563Y-19886243D01*
X4267563Y-19886243D02*
X4267563Y-19914814D01*
X4267563Y-19914814D02*
X4258039Y-19952909D01*
X4258039Y-19952909D02*
X4248515Y-19971957D01*
X4248515Y-19971957D02*
X4229467Y-19991005D01*
X4229467Y-19991005D02*
X4200896Y-20000528D01*
X4200896Y-20000528D02*
X4153277Y-20000528D01*
X4353277Y-20000528D02*
X4353277Y-19867195D01*
X4353277Y-19905290D02*
X4362801Y-19886243D01*
X4362801Y-19886243D02*
X4372324Y-19876719D01*
X4372324Y-19876719D02*
X4391372Y-19867195D01*
X4391372Y-19867195D02*
X4410420Y-19867195D01*
X4477086Y-20000528D02*
X4477086Y-19867195D01*
X4477086Y-19800528D02*
X4467563Y-19810052D01*
X4467563Y-19810052D02*
X4477086Y-19819576D01*
X4477086Y-19819576D02*
X4486610Y-19810052D01*
X4486610Y-19810052D02*
X4477086Y-19800528D01*
X4477086Y-19800528D02*
X4477086Y-19819576D01*
X4600896Y-20000528D02*
X4581848Y-19991005D01*
X4581848Y-19991005D02*
X4572324Y-19971957D01*
X4572324Y-19971957D02*
X4572324Y-19800528D01*
X4705658Y-20000528D02*
X4686610Y-19991005D01*
X4686610Y-19991005D02*
X4677086Y-19971957D01*
X4677086Y-19971957D02*
X4677086Y-19800528D01*
X4934229Y-20000528D02*
X4934229Y-19800528D01*
X4934229Y-19800528D02*
X5000896Y-19943385D01*
X5000896Y-19943385D02*
X5067563Y-19800528D01*
X5067563Y-19800528D02*
X5067563Y-20000528D01*
X5248515Y-20000528D02*
X5248515Y-19895766D01*
X5248515Y-19895766D02*
X5238991Y-19876719D01*
X5238991Y-19876719D02*
X5219944Y-19867195D01*
X5219944Y-19867195D02*
X5181848Y-19867195D01*
X5181848Y-19867195D02*
X5162801Y-19876719D01*
X5248515Y-19991005D02*
X5229467Y-20000528D01*
X5229467Y-20000528D02*
X5181848Y-20000528D01*
X5181848Y-20000528D02*
X5162801Y-19991005D01*
X5162801Y-19991005D02*
X5153277Y-19971957D01*
X5153277Y-19971957D02*
X5153277Y-19952909D01*
X5153277Y-19952909D02*
X5162801Y-19933862D01*
X5162801Y-19933862D02*
X5181848Y-19924338D01*
X5181848Y-19924338D02*
X5229467Y-19924338D01*
X5229467Y-19924338D02*
X5248515Y-19914814D01*
X5343753Y-19867195D02*
X5343753Y-20067195D01*
X5343753Y-19876719D02*
X5362801Y-19867195D01*
X5362801Y-19867195D02*
X5400896Y-19867195D01*
X5400896Y-19867195D02*
X5419944Y-19876719D01*
X5419944Y-19876719D02*
X5429467Y-19886243D01*
X5429467Y-19886243D02*
X5438991Y-19905290D01*
X5438991Y-19905290D02*
X5438991Y-19962433D01*
X5438991Y-19962433D02*
X5429467Y-19981481D01*
X5429467Y-19981481D02*
X5419944Y-19991005D01*
X5419944Y-19991005D02*
X5400896Y-20000528D01*
X5400896Y-20000528D02*
X5362801Y-20000528D01*
X5362801Y-20000528D02*
X5343753Y-19991005D01*
X5524705Y-19981481D02*
X5534229Y-19991005D01*
X5534229Y-19991005D02*
X5524705Y-20000528D01*
X5524705Y-20000528D02*
X5515182Y-19991005D01*
X5515182Y-19991005D02*
X5524705Y-19981481D01*
X5524705Y-19981481D02*
X5524705Y-20000528D01*
X5524705Y-19876719D02*
X5534229Y-19886243D01*
X5534229Y-19886243D02*
X5524705Y-19895766D01*
X5524705Y-19895766D02*
X5515182Y-19886243D01*
X5515182Y-19886243D02*
X5524705Y-19876719D01*
X5524705Y-19876719D02*
X5524705Y-19895766D01*
M02*
