0
SECTION
2
HEADER
9
$INSUNITS
70
4
0
ENDSEC
0
SECTION
2
TABLES
0
TABLE
2
LTYPE
0
LTYPE
72
65
70
64
2
CONTINUOUS
3
______
73
0
40
0
0
ENDTAB
0
TABLE
2
LAYER
0
ENDTAB
0
ENDSEC
0
SECTION
2
ENTITIES
0
LINE
8
0
10
41
20
-141
11
59
21
-141
0
LINE
8
0
10
59
20
-141
11
59
21
-159
0
LINE
8
0
10
59
20
-159
11
41
21
-159
0
LINE
8
0
10
41
20
-159
11
41
21
-141
0
LINE
8
0
10
41
20
-124
11
59
21
-124
0
LINE
8
0
10
59
20
-124
11
59
21
-142
0
LINE
8
0
10
59
20
-142
11
41
21
-142
0
LINE
8
0
10
41
20
-142
11
41
21
-124
0
LINE
8
0
10
41
20
-107
11
59
21
-107
0
LINE
8
0
10
59
20
-107
11
59
21
-125
0
LINE
8
0
10
59
20
-125
11
41
21
-125
0
LINE
8
0
10
41
20
-125
11
41
21
-107
0
LINE
8
0
10
41
20
-90
11
59
21
-90
0
LINE
8
0
10
59
20
-90
11
59
21
-108
0
LINE
8
0
10
59
20
-108
11
41
21
-108
0
LINE
8
0
10
41
20
-108
11
41
21
-90
0
LINE
8
0
10
59
20
-141
11
77
21
-141
0
LINE
8
0
10
77
20
-141
11
77
21
-159
0
LINE
8
0
10
77
20
-159
11
59
21
-159
0
LINE
8
0
10
59
20
-159
11
59
21
-141
0
LINE
8
0
10
59
20
-124
11
77
21
-124
0
LINE
8
0
10
77
20
-124
11
77
21
-142
0
LINE
8
0
10
77
20
-142
11
59
21
-142
0
LINE
8
0
10
59
20
-142
11
59
21
-124
0
LINE
8
0
10
59
20
-107
11
77
21
-107
0
LINE
8
0
10
77
20
-107
11
77
21
-125
0
LINE
8
0
10
77
20
-125
11
59
21
-125
0
LINE
8
0
10
59
20
-125
11
59
21
-107
0
LINE
8
0
10
59
20
-90
11
77
21
-90
0
LINE
8
0
10
77
20
-90
11
77
21
-108
0
LINE
8
0
10
77
20
-108
11
59
21
-108
0
LINE
8
0
10
59
20
-108
11
59
21
-90
0
LINE
8
0
10
77
20
-131.65
11
95
21
-131.65
0
LINE
8
0
10
95
20
-131.65
11
95
21
-149.65
0
LINE
8
0
10
95
20
-149.65
11
77
21
-149.65
0
LINE
8
0
10
77
20
-149.65
11
77
21
-131.65
0
LINE
8
0
10
77
20
-114.65
11
95
21
-114.65
0
LINE
8
0
10
95
20
-114.65
11
95
21
-132.65
0
LINE
8
0
10
95
20
-132.65
11
77
21
-132.65
0
LINE
8
0
10
77
20
-132.65
11
77
21
-114.65
0
LINE
8
0
10
77
20
-97.65
11
95
21
-97.65
0
LINE
8
0
10
95
20
-97.65
11
95
21
-115.65
0
LINE
8
0
10
95
20
-115.65
11
77
21
-115.65
0
LINE
8
0
10
77
20
-115.65
11
77
21
-97.65
0
LINE
8
0
10
77
20
-80.65
11
95
21
-80.65
0
LINE
8
0
10
95
20
-80.65
11
95
21
-98.65
0
LINE
8
0
10
95
20
-98.65
11
77
21
-98.65
0
LINE
8
0
10
77
20
-98.65
11
77
21
-80.65
0
LINE
8
0
10
95
20
-128.25
11
113
21
-128.25
0
LINE
8
0
10
113
20
-128.25
11
113
21
-146.25
0
LINE
8
0
10
113
20
-146.25
11
95
21
-146.25
0
LINE
8
0
10
95
20
-146.25
11
95
21
-128.25
0
LINE
8
0
10
95
20
-111.25
11
113
21
-111.25
0
LINE
8
0
10
113
20
-111.25
11
113
21
-129.25
0
LINE
8
0
10
113
20
-129.25
11
95
21
-129.25
0
LINE
8
0
10
95
20
-129.25
11
95
21
-111.25
0
LINE
8
0
10
95
20
-94.25
11
113
21
-94.25
0
LINE
8
0
10
113
20
-94.25
11
113
21
-112.25
0
LINE
8
0
10
113
20
-112.25
11
95
21
-112.25
0
LINE
8
0
10
95
20
-112.25
11
95
21
-94.25
0
LINE
8
0
10
95
20
-77.25
11
113
21
-77.25
0
LINE
8
0
10
113
20
-77.25
11
113
21
-95.25
0
LINE
8
0
10
113
20
-95.25
11
95
21
-95.25
0
LINE
8
0
10
95
20
-95.25
11
95
21
-77.25
0
LINE
8
0
10
113
20
-131.65
11
131
21
-131.65
0
LINE
8
0
10
131
20
-131.65
11
131
21
-149.65
0
LINE
8
0
10
131
20
-149.65
11
113
21
-149.65
0
LINE
8
0
10
113
20
-149.65
11
113
21
-131.65
0
LINE
8
0
10
113
20
-114.65
11
131
21
-114.65
0
LINE
8
0
10
131
20
-114.65
11
131
21
-132.65
0
LINE
8
0
10
131
20
-132.65
11
113
21
-132.65
0
LINE
8
0
10
113
20
-132.65
11
113
21
-114.65
0
LINE
8
0
10
113
20
-97.65
11
131
21
-97.65
0
LINE
8
0
10
131
20
-97.65
11
131
21
-115.65
0
LINE
8
0
10
131
20
-115.65
11
113
21
-115.65
0
LINE
8
0
10
113
20
-115.65
11
113
21
-97.65
0
LINE
8
0
10
113
20
-80.65
11
131
21
-80.65
0
LINE
8
0
10
131
20
-80.65
11
131
21
-98.65
0
LINE
8
0
10
131
20
-98.65
11
113
21
-98.65
0
LINE
8
0
10
113
20
-98.65
11
113
21
-80.65
0
LINE
8
0
10
131
20
-133.35
11
149
21
-133.35
0
LINE
8
0
10
149
20
-133.35
11
149
21
-151.35
0
LINE
8
0
10
149
20
-151.35
11
131
21
-151.35
0
LINE
8
0
10
131
20
-151.35
11
131
21
-133.35
0
LINE
8
0
10
131
20
-116.35
11
149
21
-116.35
0
LINE
8
0
10
149
20
-116.35
11
149
21
-134.35
0
LINE
8
0
10
149
20
-134.35
11
131
21
-134.35
0
LINE
8
0
10
131
20
-134.35
11
131
21
-116.35
0
LINE
8
0
10
131
20
-99.35
11
149
21
-99.35
0
LINE
8
0
10
149
20
-99.35
11
149
21
-117.35
0
LINE
8
0
10
149
20
-117.35
11
131
21
-117.35
0
LINE
8
0
10
131
20
-117.35
11
131
21
-99.35
0
LINE
8
0
10
131
20
-82.35
11
149
21
-82.35
0
LINE
8
0
10
149
20
-82.35
11
149
21
-100.35
0
LINE
8
0
10
149
20
-100.35
11
131
21
-100.35
0
LINE
8
0
10
131
20
-100.35
11
131
21
-82.35
0
LINE
8
0
10
117.5293333
20
-150.9462981
11
134.9159981
21
-155.6050409
0
LINE
8
0
10
134.9159981
20
-155.6050409
11
130.2572553
21
-172.9917057
0
LINE
8
0
10
130.2572553
20
-172.9917057
11
112.8705905
21
-168.3329629
0
LINE
8
0
10
112.8705905
20
-168.3329629
11
117.5293333
21
-150.9462981
0
LINE
8
0
10
139.1366649
20
-157.3532983
11
154.7251221
21
-166.3532983
0
LINE
8
0
10
154.7251221
20
-166.3532983
11
145.7251221
21
-181.9417555
0
LINE
8
0
10
145.7251221
20
-181.9417555
11
130.1366649
21
-172.9417555
0
LINE
8
0
10
130.1366649
20
-172.9417555
11
139.1366649
21
-157.3532983
0
LINE
8
0
10
158.3494908
20
-169.1343741
11
171.0774129
21
-181.8622962
0
LINE
8
0
10
171.0774129
20
-181.8622962
11
158.3494908
21
-194.5902183
0
LINE
8
0
10
158.3494908
20
-194.5902183
11
145.6215687
21
-181.8622962
0
LINE
8
0
10
145.6215687
20
-181.8622962
11
158.3494908
21
-169.1343741
0
ENDSEC
0
EOF