<svg width="130.077mm" height="117.34mm" viewBox="0 0 130.077 117.34" xmlns="http://www.w3.org/2000/svg"><g id="svgGroup" stroke-linecap="round" fill-rule="evenodd" font-size="9pt" stroke="#000" stroke-width="0.25mm" fill="none" style="stroke:#000;stroke-width:0.25mm;fill:none"><path d="M 117.349 91.884 L 130.077 104.612 L 117.349 117.34 L 104.622 104.612 L 117.349 91.884 Z M 0 63.75 L 18 63.75 L 18 81.75 L 0 81.75 L 0 63.75 Z M 18 63.75 L 36 63.75 L 36 81.75 L 18 81.75 L 18 63.75 Z M 0 46.75 L 18 46.75 L 18 64.75 L 0 64.75 L 0 46.75 Z M 18 46.75 L 36 46.75 L 36 64.75 L 18 64.75 L 18 46.75 Z M 0 29.75 L 18 29.75 L 18 47.75 L 0 47.75 L 0 29.75 Z M 18 29.75 L 36 29.75 L 36 47.75 L 18 47.75 L 18 29.75 Z M 0 12.75 L 18 12.75 L 18 30.75 L 0 30.75 L 0 12.75 Z M 18 12.75 L 36 12.75 L 36 30.75 L 18 30.75 L 18 12.75 Z M 36 54.4 L 54 54.4 L 54 72.4 L 36 72.4 L 36 54.4 Z M 36 37.4 L 54 37.4 L 54 55.4 L 36 55.4 L 36 37.4 Z M 36 20.4 L 54 20.4 L 54 38.4 L 36 38.4 L 36 20.4 Z M 36 3.4 L 54 3.4 L 54 21.4 L 36 21.4 L 36 3.4 Z M 54 51 L 72 51 L 72 69 L 54 69 L 54 51 Z M 54 34 L 72 34 L 72 52 L 54 52 L 54 34 Z M 54 17 L 72 17 L 72 35 L 54 35 L 54 17 Z M 54 0 L 72 0 L 72 18 L 54 18 L 54 0 Z M 72 54.4 L 90 54.4 L 90 72.4 L 72 72.4 L 72 54.4 Z M 72 37.4 L 90 37.4 L 90 55.4 L 72 55.4 L 72 37.4 Z M 72 20.4 L 90 20.4 L 90 38.4 L 72 38.4 L 72 20.4 Z M 72 3.4 L 90 3.4 L 90 21.4 L 72 21.4 L 72 3.4 Z M 90 56.1 L 108 56.1 L 108 74.1 L 90 74.1 L 90 56.1 Z M 90 39.1 L 108 39.1 L 108 57.1 L 90 57.1 L 90 39.1 Z M 90 22.1 L 108 22.1 L 108 40.1 L 90 40.1 L 90 22.1 Z M 90 5.1 L 108 5.1 L 108 23.1 L 90 23.1 L 90 5.1 Z M 98.137 80.103 L 113.725 89.103 L 104.725 104.692 L 89.137 95.692 L 98.137 80.103 Z M 76.529 73.696 L 93.916 78.355 L 89.257 95.742 L 71.871 91.083 L 76.529 73.696 Z" vector-effect="non-scaling-stroke"/></g></svg>